<?xml version="1.0" encoding="UTF-8" standalone="no"?>
<!DOCTYPE svg PUBLIC "-//W3C//DTD SVG 1.1//EN"
 "http://www.w3.org/Graphics/SVG/1.1/DTD/svg11.dtd">
<!-- Generated by graphviz version 2.43.0 (0)
 -->
<!-- Title: src/ui/about.cpp Pages: 1 -->
<svg width="467pt" height="137pt"
 viewBox="0.00 0.00 466.50 137.00" xmlns="http://www.w3.org/2000/svg" xmlns:xlink="http://www.w3.org/1999/xlink">
<g id="graph0" class="graph" transform="scale(1 1) rotate(0) translate(4 133)">
<title>src/ui/about.cpp</title>
<!-- Node1 -->
<g id="Node000001" class="node">
<title>Node1</title>
<g id="a_Node000001"><a xlink:title=" ">
<polygon fill="#999999" stroke="#666666" points="327.5,-129 233.5,-129 233.5,-110 327.5,-110 327.5,-129"/>
<text text-anchor="middle" x="280.5" y="-117" font-family="Helvetica,sans-Serif" font-size="10.00">src/ui/about.cpp</text>
</a>
</g>
</g>
<!-- Node2 -->
<g id="Node000002" class="node">
<title>Node2</title>
<g id="a_Node000002"><a xlink:href="about_8hpp.html" target="_top" xlink:title=" ">
<polygon fill="white" stroke="#666666" points="177,-74 112,-74 112,-55 177,-55 177,-74"/>
<text text-anchor="middle" x="144.5" y="-62" font-family="Helvetica,sans-Serif" font-size="10.00">about.hpp</text>
</a>
</g>
</g>
<!-- Node1&#45;&gt;Node2 -->
<g id="edge1_Node000001_Node000002" class="edge">
<title>Node1&#45;&gt;Node2</title>
<g id="a_edge1_Node000001_Node000002"><a xlink:title=" ">
<path fill="none" stroke="#63b8ff" d="M258.65,-109.98C236.38,-101.3 201.6,-87.75 176.28,-77.88"/>
<polygon fill="#63b8ff" stroke="#63b8ff" points="177.34,-74.54 166.75,-74.17 174.79,-81.06 177.34,-74.54"/>
</a>
</g>
</g>
<!-- Node5 -->
<g id="Node000005" class="node">
<title>Node5</title>
<g id="a_Node000005"><a xlink:href="badge_8hpp.html" target="_top" xlink:title=" ">
<polygon fill="white" stroke="#666666" points="314.5,-74 246.5,-74 246.5,-55 314.5,-55 314.5,-74"/>
<text text-anchor="middle" x="280.5" y="-62" font-family="Helvetica,sans-Serif" font-size="10.00">badge.hpp</text>
</a>
</g>
</g>
<!-- Node1&#45;&gt;Node5 -->
<g id="edge4_Node000001_Node000005" class="edge">
<title>Node1&#45;&gt;Node5</title>
<g id="a_edge4_Node000001_Node000005"><a xlink:title=" ">
<path fill="none" stroke="#63b8ff" d="M280.5,-109.75C280.5,-102.8 280.5,-92.85 280.5,-84.13"/>
<polygon fill="#63b8ff" stroke="#63b8ff" points="284,-84.09 280.5,-74.09 277,-84.09 284,-84.09"/>
</a>
</g>
</g>
<!-- Node9 -->
<g id="Node000009" class="node">
<title>Node9</title>
<g id="a_Node000009"><a xlink:title=" ">
<polygon fill="#e0e0e0" stroke="#999999" points="400.5,-74 332.5,-74 332.5,-55 400.5,-55 400.5,-74"/>
<text text-anchor="middle" x="366.5" y="-62" font-family="Helvetica,sans-Serif" font-size="10.00">ui_about.h</text>
</a>
</g>
</g>
<!-- Node1&#45;&gt;Node9 -->
<g id="edge8_Node000001_Node000009" class="edge">
<title>Node1&#45;&gt;Node9</title>
<g id="a_edge8_Node000001_Node000009"><a xlink:title=" ">
<path fill="none" stroke="#63b8ff" d="M294.32,-109.98C307.65,-101.77 328.08,-89.18 343.81,-79.49"/>
<polygon fill="#63b8ff" stroke="#63b8ff" points="345.75,-82.4 352.43,-74.17 342.08,-76.44 345.75,-82.4"/>
</a>
</g>
</g>
<!-- Node3 -->
<g id="Node000003" class="node">
<title>Node3</title>
<g id="a_Node000003"><a xlink:title=" ">
<polygon fill="#e0e0e0" stroke="#999999" points="97,-19 0,-19 0,0 97,0 97,-19"/>
<text text-anchor="middle" x="48.5" y="-7" font-family="Helvetica,sans-Serif" font-size="10.00">QStackedWidget</text>
</a>
</g>
</g>
<!-- Node2&#45;&gt;Node3 -->
<g id="edge2_Node000002_Node000003" class="edge">
<title>Node2&#45;&gt;Node3</title>
<g id="a_edge2_Node000002_Node000003"><a xlink:title=" ">
<path fill="none" stroke="#63b8ff" d="M129.08,-54.98C114.05,-46.69 90.96,-33.94 73.34,-24.22"/>
<polygon fill="#63b8ff" stroke="#63b8ff" points="74.65,-20.94 64.2,-19.17 71.27,-27.07 74.65,-20.94"/>
</a>
</g>
</g>
<!-- Node4 -->
<g id="Node000004" class="node">
<title>Node4</title>
<g id="a_Node000004"><a xlink:title=" ">
<polygon fill="#e0e0e0" stroke="#999999" points="174,-19 115,-19 115,0 174,0 174,-19"/>
<text text-anchor="middle" x="144.5" y="-7" font-family="Helvetica,sans-Serif" font-size="10.00">QWidget</text>
</a>
</g>
</g>
<!-- Node2&#45;&gt;Node4 -->
<g id="edge3_Node000002_Node000004" class="edge">
<title>Node2&#45;&gt;Node4</title>
<g id="a_edge3_Node000002_Node000004"><a xlink:title=" ">
<path fill="none" stroke="#63b8ff" d="M144.5,-54.75C144.5,-47.8 144.5,-37.85 144.5,-29.13"/>
<polygon fill="#63b8ff" stroke="#63b8ff" points="148,-29.09 144.5,-19.09 141,-29.09 148,-29.09"/>
</a>
</g>
</g>
<!-- Node6 -->
<g id="Node000006" class="node">
<title>Node6</title>
<g id="a_Node000006"><a xlink:title=" ">
<polygon fill="#e0e0e0" stroke="#999999" points="242.5,-19 192.5,-19 192.5,0 242.5,0 242.5,-19"/>
<text text-anchor="middle" x="217.5" y="-7" font-family="Helvetica,sans-Serif" font-size="10.00">QLabel</text>
</a>
</g>
</g>
<!-- Node5&#45;&gt;Node6 -->
<g id="edge5_Node000005_Node000006" class="edge">
<title>Node5&#45;&gt;Node6</title>
<g id="a_edge5_Node000005_Node000006"><a xlink:title=" ">
<path fill="none" stroke="#63b8ff" d="M270.38,-54.98C261.06,-47.15 247.03,-35.34 235.76,-25.86"/>
<polygon fill="#63b8ff" stroke="#63b8ff" points="237.71,-22.93 227.81,-19.17 233.21,-28.29 237.71,-22.93"/>
</a>
</g>
</g>
<!-- Node7 -->
<g id="Node000007" class="node">
<title>Node7</title>
<g id="a_Node000007"><a xlink:title=" ">
<polygon fill="#e0e0e0" stroke="#999999" points="402.5,-19 260.5,-19 260.5,0 402.5,0 402.5,-19"/>
<text text-anchor="middle" x="331.5" y="-7" font-family="Helvetica,sans-Serif" font-size="10.00">QNetworkAccessManager</text>
</a>
</g>
</g>
<!-- Node5&#45;&gt;Node7 -->
<g id="edge6_Node000005_Node000007" class="edge">
<title>Node5&#45;&gt;Node7</title>
<g id="a_edge6_Node000005_Node000007"><a xlink:title=" ">
<path fill="none" stroke="#63b8ff" d="M288.92,-54.75C296.27,-47.11 307.13,-35.82 316.04,-26.56"/>
<polygon fill="#63b8ff" stroke="#63b8ff" points="318.82,-28.72 323.24,-19.09 313.78,-23.87 318.82,-28.72"/>
</a>
</g>
</g>
<!-- Node8 -->
<g id="Node000008" class="node">
<title>Node8</title>
<g id="a_Node000008"><a xlink:title=" ">
<polygon fill="#e0e0e0" stroke="#999999" points="458.5,-19 420.5,-19 420.5,0 458.5,0 458.5,-19"/>
<text text-anchor="middle" x="439.5" y="-7" font-family="Helvetica,sans-Serif" font-size="10.00">QUrl</text>
</a>
</g>
</g>
<!-- Node5&#45;&gt;Node8 -->
<g id="edge7_Node000005_Node000008" class="edge">
<title>Node5&#45;&gt;Node8</title>
<g id="a_edge7_Node000005_Node000008"><a xlink:title=" ">
<path fill="none" stroke="#63b8ff" d="M306.05,-54.98C334.47,-45.51 380.32,-30.23 410.19,-20.27"/>
<polygon fill="#63b8ff" stroke="#63b8ff" points="411.65,-23.47 420.03,-16.99 409.44,-16.83 411.65,-23.47"/>
</a>
</g>
</g>
</g>
</svg>
