<?xml version="1.0" encoding="UTF-8" standalone="no"?>
<!DOCTYPE svg PUBLIC "-//W3C//DTD SVG 1.1//EN"
 "http://www.w3.org/Graphics/SVG/1.1/DTD/svg11.dtd">
<!-- Generated by graphviz version 2.43.0 (0)
 -->
<!-- Title: src/appdir.hpp Pages: 1 -->
<svg width="394pt" height="82pt"
 viewBox="0.00 0.00 393.50 82.00" xmlns="http://www.w3.org/2000/svg" xmlns:xlink="http://www.w3.org/1999/xlink">
<g id="graph0" class="graph" transform="scale(1 1) rotate(0) translate(4 78)">
<title>src/appdir.hpp</title>
<!-- Node1 -->
<g id="Node000001" class="node">
<title>Node1</title>
<g id="a_Node000001"><a xlink:title=" ">
<polygon fill="#999999" stroke="#666666" points="217,-74 132,-74 132,-55 217,-55 217,-74"/>
<text text-anchor="middle" x="174.5" y="-62" font-family="Helvetica,sans-Serif" font-size="10.00">src/appdir.hpp</text>
</a>
</g>
</g>
<!-- Node2 -->
<g id="Node000002" class="node">
<title>Node2</title>
<g id="a_Node000002"><a xlink:title=" ">
<polygon fill="#e0e0e0" stroke="#999999" points="79,-19 0,-19 0,0 79,0 79,-19"/>
<text text-anchor="middle" x="39.5" y="-7" font-family="Helvetica,sans-Serif" font-size="10.00">QApplication</text>
</a>
</g>
</g>
<!-- Node1&#45;&gt;Node2 -->
<g id="edge1_Node000001_Node000002" class="edge">
<title>Node1&#45;&gt;Node2</title>
<g id="a_edge1_Node000001_Node000002"><a xlink:title=" ">
<path fill="none" stroke="#63b8ff" d="M152.81,-54.98C130.7,-46.3 96.18,-32.75 71.05,-22.88"/>
<polygon fill="#63b8ff" stroke="#63b8ff" points="72.17,-19.57 61.58,-19.17 69.61,-26.08 72.17,-19.57"/>
</a>
</g>
</g>
<!-- Node3 -->
<g id="Node000003" class="node">
<title>Node3</title>
<g id="a_Node000003"><a xlink:title=" ">
<polygon fill="#e0e0e0" stroke="#999999" points="135.5,-19 97.5,-19 97.5,0 135.5,0 135.5,-19"/>
<text text-anchor="middle" x="116.5" y="-7" font-family="Helvetica,sans-Serif" font-size="10.00">QDir</text>
</a>
</g>
</g>
<!-- Node1&#45;&gt;Node3 -->
<g id="edge2_Node000001_Node000003" class="edge">
<title>Node1&#45;&gt;Node3</title>
<g id="a_edge2_Node000001_Node000003"><a xlink:title=" ">
<path fill="none" stroke="#63b8ff" d="M165.18,-54.98C156.69,-47.23 143.94,-35.58 133.62,-26.14"/>
<polygon fill="#63b8ff" stroke="#63b8ff" points="135.73,-23.33 125.99,-19.17 131.01,-28.5 135.73,-23.33"/>
</a>
</g>
</g>
<!-- Node4 -->
<g id="Node000004" class="node">
<title>Node4</title>
<g id="a_Node000004"><a xlink:title=" ">
<polygon fill="#e0e0e0" stroke="#999999" points="195,-19 154,-19 154,0 195,0 195,-19"/>
<text text-anchor="middle" x="174.5" y="-7" font-family="Helvetica,sans-Serif" font-size="10.00">QFile</text>
</a>
</g>
</g>
<!-- Node1&#45;&gt;Node4 -->
<g id="edge3_Node000001_Node000004" class="edge">
<title>Node1&#45;&gt;Node4</title>
<g id="a_edge3_Node000001_Node000004"><a xlink:title=" ">
<path fill="none" stroke="#63b8ff" d="M174.5,-54.75C174.5,-47.8 174.5,-37.85 174.5,-29.13"/>
<polygon fill="#63b8ff" stroke="#63b8ff" points="178,-29.09 174.5,-19.09 171,-29.09 178,-29.09"/>
</a>
</g>
</g>
<!-- Node5 -->
<g id="Node000005" class="node">
<title>Node5</title>
<g id="a_Node000005"><a xlink:title=" ">
<polygon fill="#e0e0e0" stroke="#999999" points="273.5,-19 213.5,-19 213.5,0 273.5,0 273.5,-19"/>
<text text-anchor="middle" x="243.5" y="-7" font-family="Helvetica,sans-Serif" font-size="10.00">QFileInfo</text>
</a>
</g>
</g>
<!-- Node1&#45;&gt;Node5 -->
<g id="edge4_Node000001_Node000005" class="edge">
<title>Node1&#45;&gt;Node5</title>
<g id="a_edge4_Node000001_Node000005"><a xlink:title=" ">
<path fill="none" stroke="#63b8ff" d="M185.59,-54.98C195.99,-47 211.76,-34.88 224.22,-25.31"/>
<polygon fill="#63b8ff" stroke="#63b8ff" points="226.41,-28.04 232.21,-19.17 222.15,-22.49 226.41,-28.04"/>
</a>
</g>
</g>
<!-- Node6 -->
<g id="Node000006" class="node">
<title>Node6</title>
<g id="a_Node000006"><a xlink:title=" ">
<polygon fill="#e0e0e0" stroke="#999999" points="385.5,-19 291.5,-19 291.5,0 385.5,0 385.5,-19"/>
<text text-anchor="middle" x="338.5" y="-7" font-family="Helvetica,sans-Serif" font-size="10.00">QStandardPaths</text>
</a>
</g>
</g>
<!-- Node1&#45;&gt;Node6 -->
<g id="edge5_Node000001_Node000006" class="edge">
<title>Node1&#45;&gt;Node6</title>
<g id="a_edge5_Node000001_Node000006"><a xlink:title=" ">
<path fill="none" stroke="#63b8ff" d="M200.85,-54.98C228.26,-46.13 271.39,-32.19 302.06,-22.28"/>
<polygon fill="#63b8ff" stroke="#63b8ff" points="303.5,-25.49 311.94,-19.08 301.35,-18.83 303.5,-25.49"/>
</a>
</g>
</g>
</g>
</svg>
