<?xml version="1.0" encoding="UTF-8" standalone="no"?>
<!DOCTYPE svg PUBLIC "-//W3C//DTD SVG 1.1//EN"
 "http://www.w3.org/Graphics/SVG/1.1/DTD/svg11.dtd">
<!-- Generated by graphviz version 2.43.0 (0)
 -->
<!-- Title: src/ui/buttoninputbox.cpp Pages: 1 -->
<svg width="1025pt" height="269pt"
 viewBox="0.00 0.00 1024.50 269.00" xmlns="http://www.w3.org/2000/svg" xmlns:xlink="http://www.w3.org/1999/xlink">
<g id="graph0" class="graph" transform="scale(1 1) rotate(0) translate(4 265)">
<title>src/ui/buttoninputbox.cpp</title>
<!-- Node1 -->
<g id="Node000001" class="node">
<title>Node1</title>
<g id="a_Node000001"><a xlink:title=" ">
<polygon fill="#999999" stroke="#666666" points="260,-261 120,-261 120,-242 260,-242 260,-261"/>
<text text-anchor="middle" x="190" y="-249" font-family="Helvetica,sans-Serif" font-size="10.00">src/ui/buttoninputbox.cpp</text>
</a>
</g>
</g>
<!-- Node2 -->
<g id="Node000002" class="node">
<title>Node2</title>
<g id="a_Node000002"><a xlink:href="buttoninputbox_8hpp.html" target="_top" xlink:title=" ">
<polygon fill="white" stroke="#666666" points="246,-200.5 134,-200.5 134,-181.5 246,-181.5 246,-200.5"/>
<text text-anchor="middle" x="190" y="-188.5" font-family="Helvetica,sans-Serif" font-size="10.00">buttoninputbox.hpp</text>
</a>
</g>
</g>
<!-- Node1&#45;&gt;Node2 -->
<g id="edge1_Node000001_Node000002" class="edge">
<title>Node1&#45;&gt;Node2</title>
<g id="a_edge1_Node000001_Node000002"><a xlink:title=" ">
<path fill="none" stroke="#63b8ff" d="M190,-241.87C190,-233.75 190,-221.31 190,-210.89"/>
<polygon fill="#63b8ff" stroke="#63b8ff" points="193.5,-210.67 190,-200.67 186.5,-210.67 193.5,-210.67"/>
</a>
</g>
</g>
<!-- Node3 -->
<g id="Node000003" class="node">
<title>Node3</title>
<g id="a_Node000003"><a xlink:title=" ">
<polygon fill="#e0e0e0" stroke="#999999" points="52,-140 0,-140 0,-121 52,-121 52,-140"/>
<text text-anchor="middle" x="26" y="-128" font-family="Helvetica,sans-Serif" font-size="10.00">QEvent</text>
</a>
</g>
</g>
<!-- Node1&#45;&gt;Node3 -->
<g id="edge27_Node000001_Node000003" class="edge">
<title>Node1&#45;&gt;Node3</title>
<g id="a_edge27_Node000001_Node000003"><a xlink:title=" ">
<path fill="none" stroke="#63b8ff" d="M171.34,-241.97C154.21,-233.78 128.47,-220.53 108,-206 82.89,-188.17 57.12,-163.51 41.33,-147.53"/>
<polygon fill="#63b8ff" stroke="#63b8ff" points="43.53,-144.77 34.04,-140.05 38.51,-149.65 43.53,-144.77"/>
</a>
</g>
</g>
<!-- Node4 -->
<g id="Node000004" class="node">
<title>Node4</title>
<g id="a_Node000004"><a xlink:title=" ">
<polygon fill="#e0e0e0" stroke="#999999" points="140,-140 70,-140 70,-121 140,-121 140,-140"/>
<text text-anchor="middle" x="105" y="-128" font-family="Helvetica,sans-Serif" font-size="10.00">QKeyEvent</text>
</a>
</g>
</g>
<!-- Node1&#45;&gt;Node4 -->
<g id="edge28_Node000001_Node000004" class="edge">
<title>Node1&#45;&gt;Node4</title>
<g id="a_edge28_Node000001_Node000004"><a xlink:title=" ">
<path fill="none" stroke="#63b8ff" d="M170.7,-241.94C156.06,-234.48 136.54,-222.29 125,-206 113.29,-189.47 108.43,-166.46 106.42,-150.4"/>
<polygon fill="#63b8ff" stroke="#63b8ff" points="109.87,-149.73 105.4,-140.13 102.91,-150.43 109.87,-149.73"/>
</a>
</g>
</g>
<!-- Node6 -->
<g id="Node000006" class="node">
<title>Node6</title>
<g id="a_Node000006"><a xlink:title=" ">
<polygon fill="#e0e0e0" stroke="#999999" points="362,-140 278,-140 278,-121 362,-121 362,-140"/>
<text text-anchor="middle" x="320" y="-128" font-family="Helvetica,sans-Serif" font-size="10.00">QMouseEvent</text>
</a>
</g>
</g>
<!-- Node1&#45;&gt;Node6 -->
<g id="edge29_Node000001_Node000006" class="edge">
<title>Node1&#45;&gt;Node6</title>
<g id="a_edge29_Node000001_Node000006"><a xlink:title=" ">
<path fill="none" stroke="#63b8ff" d="M204.71,-241.92C218.41,-233.6 239.06,-220.18 255,-206 274.94,-188.26 294.64,-164.59 307.03,-148.73"/>
<polygon fill="#63b8ff" stroke="#63b8ff" points="310.11,-150.47 313.43,-140.41 304.56,-146.2 310.11,-150.47"/>
</a>
</g>
</g>
<!-- Node8 -->
<g id="Node000008" class="node">
<title>Node8</title>
<g id="a_Node000008"><a xlink:href="settings__singleton_8hpp.html" target="_top" xlink:title=" ">
<polygon fill="white" stroke="#666666" points="766.5,-206 659.5,-206 659.5,-176 766.5,-176 766.5,-206"/>
<text text-anchor="start" x="667.5" y="-194" font-family="Helvetica,sans-Serif" font-size="10.00">../settings/settings</text>
<text text-anchor="middle" x="713" y="-183" font-family="Helvetica,sans-Serif" font-size="10.00">_singleton.hpp</text>
</a>
</g>
</g>
<!-- Node1&#45;&gt;Node8 -->
<g id="edge7_Node000001_Node000008" class="edge">
<title>Node1&#45;&gt;Node8</title>
<g id="a_edge7_Node000001_Node000008"><a xlink:title=" ">
<path fill="none" stroke="#63b8ff" d="M260.26,-242.64C362.51,-231.2 550.8,-210.14 649.24,-199.13"/>
<polygon fill="#63b8ff" stroke="#63b8ff" points="649.8,-202.59 659.35,-198 649.02,-195.63 649.8,-202.59"/>
</a>
</g>
</g>
<!-- Node2&#45;&gt;Node3 -->
<g id="edge2_Node000002_Node000003" class="edge">
<title>Node2&#45;&gt;Node3</title>
<g id="a_edge2_Node000002_Node000003"><a xlink:title=" ">
<path fill="none" stroke="#63b8ff" d="M166.15,-181.49C138.1,-171.49 91.33,-154.8 59.6,-143.49"/>
<polygon fill="#63b8ff" stroke="#63b8ff" points="60.47,-140.08 49.88,-140.02 58.12,-146.67 60.47,-140.08"/>
</a>
</g>
</g>
<!-- Node2&#45;&gt;Node4 -->
<g id="edge3_Node000002_Node000004" class="edge">
<title>Node2&#45;&gt;Node4</title>
<g id="a_edge3_Node000002_Node000004"><a xlink:title=" ">
<path fill="none" stroke="#63b8ff" d="M177.46,-181.37C163.9,-172.04 142.06,-157.01 125.9,-145.88"/>
<polygon fill="#63b8ff" stroke="#63b8ff" points="127.82,-142.95 117.59,-140.17 123.85,-148.72 127.82,-142.95"/>
</a>
</g>
</g>
<!-- Node5 -->
<g id="Node000005" class="node">
<title>Node5</title>
<g id="a_Node000005"><a xlink:title=" ">
<polygon fill="#e0e0e0" stroke="#999999" points="221.5,-140 158.5,-140 158.5,-121 221.5,-121 221.5,-140"/>
<text text-anchor="middle" x="190" y="-128" font-family="Helvetica,sans-Serif" font-size="10.00">QLineEdit</text>
</a>
</g>
</g>
<!-- Node2&#45;&gt;Node5 -->
<g id="edge4_Node000002_Node000005" class="edge">
<title>Node2&#45;&gt;Node5</title>
<g id="a_edge4_Node000002_Node000005"><a xlink:title=" ">
<path fill="none" stroke="#63b8ff" d="M190,-181.37C190,-173.25 190,-160.81 190,-150.39"/>
<polygon fill="#63b8ff" stroke="#63b8ff" points="193.5,-150.17 190,-140.17 186.5,-150.17 193.5,-150.17"/>
</a>
</g>
</g>
<!-- Node2&#45;&gt;Node6 -->
<g id="edge5_Node000002_Node000006" class="edge">
<title>Node2&#45;&gt;Node6</title>
<g id="a_edge5_Node000002_Node000006"><a xlink:title=" ">
<path fill="none" stroke="#63b8ff" d="M208.9,-181.49C230.66,-171.7 266.62,-155.52 291.71,-144.23"/>
<polygon fill="#63b8ff" stroke="#63b8ff" points="293.39,-147.31 301.07,-140.02 290.52,-140.93 293.39,-147.31"/>
</a>
</g>
</g>
<!-- Node7 -->
<g id="Node000007" class="node">
<title>Node7</title>
<g id="a_Node000007"><a xlink:title=" ">
<polygon fill="#e0e0e0" stroke="#999999" points="284.5,-24.5 255.5,-24.5 255.5,-5.5 284.5,-5.5 284.5,-24.5"/>
<text text-anchor="middle" x="270" y="-12.5" font-family="Helvetica,sans-Serif" font-size="10.00">Qt</text>
</a>
</g>
</g>
<!-- Node2&#45;&gt;Node7 -->
<g id="edge6_Node000002_Node000007" class="edge">
<title>Node2&#45;&gt;Node7</title>
<g id="a_edge6_Node000002_Node000007"><a xlink:title=" ">
<path fill="none" stroke="#63b8ff" d="M198.44,-181.49C207.38,-172.06 221.37,-156.06 230,-140 248.86,-104.93 260.7,-59.46 266.25,-34.47"/>
<polygon fill="#63b8ff" stroke="#63b8ff" points="269.7,-35.05 268.36,-24.54 262.86,-33.6 269.7,-35.05"/>
</a>
</g>
</g>
<!-- Node9 -->
<g id="Node000009" class="node">
<title>Node9</title>
<g id="a_Node000009"><a xlink:href="GameButtons_8h.html" target="_top" xlink:title=" ">
<polygon fill="white" stroke="#666666" points="478,-30 342,-30 342,0 478,0 478,-30"/>
<text text-anchor="start" x="350" y="-18" font-family="Helvetica,sans-Serif" font-size="10.00">../../VGP_Data_Exchange</text>
<text text-anchor="middle" x="410" y="-7" font-family="Helvetica,sans-Serif" font-size="10.00">/C/GameButtons.h</text>
</a>
</g>
</g>
<!-- Node8&#45;&gt;Node9 -->
<g id="edge8_Node000008_Node000009" class="edge">
<title>Node8&#45;&gt;Node9</title>
<g id="a_edge8_Node000008_Node000009"><a xlink:title=" ">
<path fill="none" stroke="#63b8ff" d="M659.33,-182.04C615.62,-174.46 552.87,-161.03 501,-140 456.85,-122.1 432.5,-126.44 409,-85 401.37,-71.55 401.69,-54.12 403.88,-40.14"/>
<polygon fill="#63b8ff" stroke="#63b8ff" points="407.33,-40.74 405.82,-30.25 400.46,-39.39 407.33,-40.74"/>
</a>
</g>
</g>
<!-- Node10 -->
<g id="Node000010" class="node">
<title>Node10</title>
<g id="a_Node000010"><a xlink:href="input__types_8hpp.html" target="_top" xlink:title=" ">
<polygon fill="white" stroke="#666666" points="513.5,-85 418.5,-85 418.5,-66 513.5,-66 513.5,-85"/>
<text text-anchor="middle" x="466" y="-73" font-family="Helvetica,sans-Serif" font-size="10.00">input_types.hpp</text>
</a>
</g>
</g>
<!-- Node8&#45;&gt;Node10 -->
<g id="edge9_Node000008_Node000010" class="edge">
<title>Node8&#45;&gt;Node10</title>
<g id="a_edge9_Node000008_Node000010"><a xlink:title=" ">
<path fill="none" stroke="#63b8ff" d="M659.45,-183.24C620.84,-176.59 568.6,-163.83 528,-140 507.75,-128.12 489.64,-107.88 478.3,-93.45"/>
<polygon fill="#63b8ff" stroke="#63b8ff" points="480.98,-91.19 472.15,-85.34 475.4,-95.42 480.98,-91.19"/>
</a>
</g>
</g>
<!-- Node11 -->
<g id="Node000011" class="node">
<title>Node11</title>
<g id="a_Node000011"><a xlink:title=" ">
<polygon fill="#e0e0e0" stroke="#999999" points="568.5,-24.5 515.5,-24.5 515.5,-5.5 568.5,-5.5 568.5,-24.5"/>
<text text-anchor="middle" x="542" y="-12.5" font-family="Helvetica,sans-Serif" font-size="10.00">QString</text>
</a>
</g>
</g>
<!-- Node8&#45;&gt;Node11 -->
<g id="edge25_Node000008_Node000011" class="edge">
<title>Node8&#45;&gt;Node11</title>
<g id="a_edge25_Node000008_Node000011"><a xlink:title=" ">
<path fill="none" stroke="#63b8ff" d="M659.15,-185.95C626.24,-180.55 585.99,-168.17 562,-140 536.75,-110.35 537,-61.73 539.45,-35.03"/>
<polygon fill="#63b8ff" stroke="#63b8ff" points="542.97,-35.08 540.61,-24.75 536.01,-34.3 542.97,-35.08"/>
</a>
</g>
</g>
<!-- Node12 -->
<g id="Node000012" class="node">
<title>Node12</title>
<g id="a_Node000012"><a xlink:href="keymap__profile_8hpp.html" target="_top" xlink:title=" ">
<polygon fill="white" stroke="#666666" points="684.5,-140 571.5,-140 571.5,-121 684.5,-121 684.5,-140"/>
<text text-anchor="middle" x="628" y="-128" font-family="Helvetica,sans-Serif" font-size="10.00">keymap_profile.hpp</text>
</a>
</g>
</g>
<!-- Node8&#45;&gt;Node12 -->
<g id="edge13_Node000008_Node000012" class="edge">
<title>Node8&#45;&gt;Node12</title>
<g id="a_edge13_Node000008_Node000012"><a xlink:title=" ">
<path fill="none" stroke="#63b8ff" d="M692.42,-175.84C679.33,-166.83 662.41,-155.18 649.2,-146.09"/>
<polygon fill="#63b8ff" stroke="#63b8ff" points="650.96,-143.05 640.74,-140.27 646.99,-148.82 650.96,-143.05"/>
</a>
</g>
</g>
<!-- Node14 -->
<g id="Node000014" class="node">
<title>Node14</title>
<g id="a_Node000014"><a xlink:title=" ">
<polygon fill="#e0e0e0" stroke="#999999" points="780,-85 724,-85 724,-66 780,-66 780,-85"/>
<text text-anchor="middle" x="752" y="-73" font-family="Helvetica,sans-Serif" font-size="10.00">QObject</text>
</a>
</g>
</g>
<!-- Node8&#45;&gt;Node14 -->
<g id="edge23_Node000008_Node000014" class="edge">
<title>Node8&#45;&gt;Node14</title>
<g id="a_edge23_Node000008_Node000014"><a xlink:title=" ">
<path fill="none" stroke="#63b8ff" d="M717.94,-175.63C724.99,-155.12 737.92,-117.47 745.67,-94.93"/>
<polygon fill="#63b8ff" stroke="#63b8ff" points="749.06,-95.82 749,-85.23 742.44,-93.55 749.06,-95.82"/>
</a>
</g>
</g>
<!-- Node15 -->
<g id="Node000015" class="node">
<title>Node15</title>
<g id="a_Node000015"><a xlink:title=" ">
<polygon fill="#e0e0e0" stroke="#999999" points="862,-85 798,-85 798,-66 862,-66 862,-85"/>
<text text-anchor="middle" x="830" y="-73" font-family="Helvetica,sans-Serif" font-size="10.00">QSettings</text>
</a>
</g>
</g>
<!-- Node8&#45;&gt;Node15 -->
<g id="edge24_Node000008_Node000015" class="edge">
<title>Node8&#45;&gt;Node15</title>
<g id="a_edge24_Node000008_Node000015"><a xlink:title=" ">
<path fill="none" stroke="#63b8ff" d="M723.03,-175.93C733.77,-161.36 751.74,-138.33 770,-121 781.69,-109.9 796.18,-99.09 807.99,-90.9"/>
<polygon fill="#63b8ff" stroke="#63b8ff" points="810.09,-93.7 816.4,-85.19 806.16,-87.91 810.09,-93.7"/>
</a>
</g>
</g>
<!-- Node17 -->
<g id="Node000017" class="node">
<title>Node17</title>
<g id="a_Node000017"><a xlink:title=" ">
<polygon fill="#e0e0e0" stroke="#999999" points="817,-140 779,-140 779,-121 817,-121 817,-140"/>
<text text-anchor="middle" x="798" y="-128" font-family="Helvetica,sans-Serif" font-size="10.00">QDir</text>
</a>
</g>
</g>
<!-- Node8&#45;&gt;Node17 -->
<g id="edge20_Node000008_Node000017" class="edge">
<title>Node8&#45;&gt;Node17</title>
<g id="a_edge20_Node000008_Node000017"><a xlink:title=" ">
<path fill="none" stroke="#63b8ff" d="M733.58,-175.84C746.67,-166.83 763.59,-155.18 776.8,-146.09"/>
<polygon fill="#63b8ff" stroke="#63b8ff" points="779.01,-148.82 785.26,-140.27 775.04,-143.05 779.01,-148.82"/>
</a>
</g>
</g>
<!-- Node18 -->
<g id="Node000018" class="node">
<title>Node18</title>
<g id="a_Node000018"><a xlink:title=" ">
<polygon fill="#e0e0e0" stroke="#999999" points="876.5,-140 835.5,-140 835.5,-121 876.5,-121 876.5,-140"/>
<text text-anchor="middle" x="856" y="-128" font-family="Helvetica,sans-Serif" font-size="10.00">QList</text>
</a>
</g>
</g>
<!-- Node8&#45;&gt;Node18 -->
<g id="edge21_Node000008_Node000018" class="edge">
<title>Node8&#45;&gt;Node18</title>
<g id="a_edge21_Node000008_Node000018"><a xlink:title=" ">
<path fill="none" stroke="#63b8ff" d="M747.25,-175.99C771.26,-166.17 803.03,-153.17 826.03,-143.76"/>
<polygon fill="#63b8ff" stroke="#63b8ff" points="827.37,-146.99 835.3,-139.97 824.72,-140.52 827.37,-146.99"/>
</a>
</g>
</g>
<!-- Node19 -->
<g id="Node000019" class="node">
<title>Node19</title>
<g id="a_Node000019"><a xlink:title=" ">
<polygon fill="#e0e0e0" stroke="#999999" points="939.5,-140 894.5,-140 894.5,-121 939.5,-121 939.5,-140"/>
<text text-anchor="middle" x="917" y="-128" font-family="Helvetica,sans-Serif" font-size="10.00">QMap</text>
</a>
</g>
</g>
<!-- Node8&#45;&gt;Node19 -->
<g id="edge22_Node000008_Node000019" class="edge">
<title>Node8&#45;&gt;Node19</title>
<g id="a_edge22_Node000008_Node000019"><a xlink:title=" ">
<path fill="none" stroke="#63b8ff" d="M761.86,-175.99C799.89,-165.08 851.59,-150.26 884.64,-140.78"/>
<polygon fill="#63b8ff" stroke="#63b8ff" points="885.61,-144.14 894.26,-138.02 883.68,-137.41 885.61,-144.14"/>
</a>
</g>
</g>
<!-- Node20 -->
<g id="Node000020" class="node">
<title>Node20</title>
<g id="a_Node000020"><a xlink:title=" ">
<polygon fill="#e0e0e0" stroke="#999999" points="1016.5,-140 957.5,-140 957.5,-121 1016.5,-121 1016.5,-140"/>
<text text-anchor="middle" x="987" y="-128" font-family="Helvetica,sans-Serif" font-size="10.00">QVariant</text>
</a>
</g>
</g>
<!-- Node8&#45;&gt;Node20 -->
<g id="edge26_Node000008_Node000020" class="edge">
<title>Node8&#45;&gt;Node20</title>
<g id="a_edge26_Node000008_Node000020"><a xlink:title=" ">
<path fill="none" stroke="#63b8ff" d="M766.93,-178.75C812.55,-169.2 879.91,-155 947.21,-140.37"/>
<polygon fill="#63b8ff" stroke="#63b8ff" points="948.11,-143.76 957.14,-138.21 946.62,-136.92 948.11,-143.76"/>
</a>
</g>
</g>
<!-- Node10&#45;&gt;Node7 -->
<g id="edge12_Node000010_Node000007" class="edge">
<title>Node10&#45;&gt;Node7</title>
<g id="a_edge12_Node000010_Node000007"><a xlink:title=" ">
<path fill="none" stroke="#63b8ff" d="M437.5,-65.99C399.04,-54.51 331.16,-34.25 294.74,-23.38"/>
<polygon fill="#63b8ff" stroke="#63b8ff" points="295.51,-19.96 284.93,-20.46 293.51,-26.67 295.51,-19.96"/>
</a>
</g>
</g>
<!-- Node10&#45;&gt;Node9 -->
<g id="edge10_Node000010_Node000009" class="edge">
<title>Node10&#45;&gt;Node9</title>
<g id="a_edge10_Node000010_Node000009"><a xlink:title=" ">
<path fill="none" stroke="#63b8ff" d="M457.74,-65.87C450.63,-58.44 440.07,-47.42 430.69,-37.62"/>
<polygon fill="#63b8ff" stroke="#63b8ff" points="432.95,-34.92 423.51,-30.11 427.9,-39.76 432.95,-34.92"/>
</a>
</g>
</g>
<!-- Node10&#45;&gt;Node11 -->
<g id="edge11_Node000010_Node000011" class="edge">
<title>Node10&#45;&gt;Node11</title>
<g id="a_edge11_Node000010_Node000011"><a xlink:title=" ">
<path fill="none" stroke="#63b8ff" d="M477.21,-65.87C489.11,-56.71 508.14,-42.06 522.51,-31.01"/>
<polygon fill="#63b8ff" stroke="#63b8ff" points="524.95,-33.54 530.74,-24.67 520.68,-27.99 524.95,-33.54"/>
</a>
</g>
</g>
<!-- Node12&#45;&gt;Node10 -->
<g id="edge14_Node000012_Node000010" class="edge">
<title>Node12&#45;&gt;Node10</title>
<g id="a_edge14_Node000012_Node000010"><a xlink:title=" ">
<path fill="none" stroke="#63b8ff" d="M601.97,-120.98C574.89,-112.13 532.29,-98.19 501.99,-88.28"/>
<polygon fill="#63b8ff" stroke="#63b8ff" points="502.82,-84.87 492.23,-85.08 500.65,-91.52 502.82,-84.87"/>
</a>
</g>
</g>
<!-- Node12&#45;&gt;Node11 -->
<g id="edge18_Node000012_Node000011" class="edge">
<title>Node12&#45;&gt;Node11</title>
<g id="a_edge18_Node000012_Node000011"><a xlink:title=" ">
<path fill="none" stroke="#63b8ff" d="M621.54,-120.97C607.34,-102.24 573.23,-57.22 554.63,-32.66"/>
<polygon fill="#63b8ff" stroke="#63b8ff" points="557.37,-30.49 548.54,-24.63 551.79,-34.71 557.37,-30.49"/>
</a>
</g>
</g>
<!-- Node13 -->
<g id="Node000013" class="node">
<title>Node13</title>
<g id="a_Node000013"><a xlink:title=" ">
<polygon fill="#e0e0e0" stroke="#999999" points="649.5,-85 608.5,-85 608.5,-66 649.5,-66 649.5,-85"/>
<text text-anchor="middle" x="629" y="-73" font-family="Helvetica,sans-Serif" font-size="10.00">QFile</text>
</a>
</g>
</g>
<!-- Node12&#45;&gt;Node13 -->
<g id="edge15_Node000012_Node000013" class="edge">
<title>Node12&#45;&gt;Node13</title>
<g id="a_edge15_Node000012_Node000013"><a xlink:title=" ">
<path fill="none" stroke="#63b8ff" d="M628.17,-120.75C628.3,-113.8 628.48,-103.85 628.65,-95.13"/>
<polygon fill="#63b8ff" stroke="#63b8ff" points="632.15,-95.15 628.84,-85.09 625.15,-95.02 632.15,-95.15"/>
</a>
</g>
</g>
<!-- Node12&#45;&gt;Node14 -->
<g id="edge16_Node000012_Node000014" class="edge">
<title>Node12&#45;&gt;Node14</title>
<g id="a_edge16_Node000012_Node000014"><a xlink:title=" ">
<path fill="none" stroke="#63b8ff" d="M647.92,-120.98C668.05,-112.38 699.38,-98.99 722.41,-89.15"/>
<polygon fill="#63b8ff" stroke="#63b8ff" points="723.9,-92.32 731.71,-85.17 721.14,-85.88 723.9,-92.32"/>
</a>
</g>
</g>
<!-- Node12&#45;&gt;Node15 -->
<g id="edge17_Node000012_Node000015" class="edge">
<title>Node12&#45;&gt;Node15</title>
<g id="a_edge17_Node000012_Node000015"><a xlink:title=" ">
<path fill="none" stroke="#63b8ff" d="M660.45,-120.98C695.16,-111.88 750.31,-97.41 788.23,-87.46"/>
<polygon fill="#63b8ff" stroke="#63b8ff" points="789.18,-90.83 797.96,-84.91 787.4,-84.06 789.18,-90.83"/>
</a>
</g>
</g>
<!-- Node16 -->
<g id="Node000016" class="node">
<title>Node16</title>
<g id="a_Node000016"><a xlink:title=" ">
<polygon fill="#e0e0e0" stroke="#999999" points="706,-85 668,-85 668,-66 706,-66 706,-85"/>
<text text-anchor="middle" x="687" y="-73" font-family="Helvetica,sans-Serif" font-size="10.00">map</text>
</a>
</g>
</g>
<!-- Node12&#45;&gt;Node16 -->
<g id="edge19_Node000012_Node000016" class="edge">
<title>Node12&#45;&gt;Node16</title>
<g id="a_edge19_Node000012_Node000016"><a xlink:title=" ">
<path fill="none" stroke="#63b8ff" d="M637.48,-120.98C646.2,-113.15 659.34,-101.34 669.9,-91.86"/>
<polygon fill="#63b8ff" stroke="#63b8ff" points="672.25,-94.46 677.35,-85.17 667.57,-89.25 672.25,-94.46"/>
</a>
</g>
</g>
</g>
</svg>
