<?xml version="1.0" encoding="UTF-8" standalone="no"?>
<!DOCTYPE svg PUBLIC "-//W3C//DTD SVG 1.1//EN"
 "http://www.w3.org/Graphics/SVG/1.1/DTD/svg11.dtd">
<!-- Generated by graphviz version 2.43.0 (0)
 -->
<!-- Title: src/ui/buttoninputbox.cpp Pages: 1 -->
<svg width="1110pt" height="269pt"
 viewBox="0.00 0.00 1109.50 269.00" xmlns="http://www.w3.org/2000/svg" xmlns:xlink="http://www.w3.org/1999/xlink">
<g id="graph0" class="graph" transform="scale(1 1) rotate(0) translate(4 265)">
<title>src/ui/buttoninputbox.cpp</title>
<!-- Node1 -->
<g id="Node000001" class="node">
<title>Node1</title>
<g id="a_Node000001"><a xlink:title=" ">
<polygon fill="#999999" stroke="#666666" points="290,-261 150,-261 150,-242 290,-242 290,-261"/>
<text text-anchor="middle" x="220" y="-249" font-family="Helvetica,sans-Serif" font-size="10.00">src/ui/buttoninputbox.cpp</text>
</a>
</g>
</g>
<!-- Node2 -->
<g id="Node000002" class="node">
<title>Node2</title>
<g id="a_Node000002"><a xlink:href="buttoninputbox_8hpp.html" target="_top" xlink:title=" ">
<polygon fill="white" stroke="#666666" points="276,-200.5 164,-200.5 164,-181.5 276,-181.5 276,-200.5"/>
<text text-anchor="middle" x="220" y="-188.5" font-family="Helvetica,sans-Serif" font-size="10.00">buttoninputbox.hpp</text>
</a>
</g>
</g>
<!-- Node1&#45;&gt;Node2 -->
<g id="edge1_Node000001_Node000002" class="edge">
<title>Node1&#45;&gt;Node2</title>
<g id="a_edge1_Node000001_Node000002"><a xlink:title=" ">
<path fill="none" stroke="#63b8ff" d="M220,-241.87C220,-233.75 220,-221.31 220,-210.89"/>
<polygon fill="#63b8ff" stroke="#63b8ff" points="223.5,-210.67 220,-200.67 216.5,-210.67 223.5,-210.67"/>
</a>
</g>
</g>
<!-- Node3 -->
<g id="Node000003" class="node">
<title>Node3</title>
<g id="a_Node000003"><a xlink:title=" ">
<polygon fill="#e0e0e0" stroke="#999999" points="52,-140 0,-140 0,-121 52,-121 52,-140"/>
<text text-anchor="middle" x="26" y="-128" font-family="Helvetica,sans-Serif" font-size="10.00">QEvent</text>
</a>
</g>
</g>
<!-- Node1&#45;&gt;Node3 -->
<g id="edge31_Node000001_Node000003" class="edge">
<title>Node1&#45;&gt;Node3</title>
<g id="a_edge31_Node000001_Node000003"><a xlink:title=" ">
<path fill="none" stroke="#63b8ff" d="M199.72,-241.96C180.7,-233.65 151.73,-220.25 128,-206 97.37,-187.61 64.42,-162.46 44.51,-146.6"/>
<polygon fill="#63b8ff" stroke="#63b8ff" points="46.56,-143.76 36.57,-140.22 42.17,-149.21 46.56,-143.76"/>
</a>
</g>
</g>
<!-- Node4 -->
<g id="Node000004" class="node">
<title>Node4</title>
<g id="a_Node000004"><a xlink:title=" ">
<polygon fill="#e0e0e0" stroke="#999999" points="140,-140 70,-140 70,-121 140,-121 140,-140"/>
<text text-anchor="middle" x="105" y="-128" font-family="Helvetica,sans-Serif" font-size="10.00">QKeyEvent</text>
</a>
</g>
</g>
<!-- Node1&#45;&gt;Node4 -->
<g id="edge32_Node000001_Node000004" class="edge">
<title>Node1&#45;&gt;Node4</title>
<g id="a_edge32_Node000001_Node000004"><a xlink:title=" ">
<path fill="none" stroke="#63b8ff" d="M204.05,-241.9C190.07,-233.86 169.73,-220.86 155,-206 137.93,-188.77 123.13,-164.95 114.15,-148.92"/>
<polygon fill="#63b8ff" stroke="#63b8ff" points="117.2,-147.19 109.35,-140.07 111.05,-150.53 117.2,-147.19"/>
</a>
</g>
</g>
<!-- Node6 -->
<g id="Node000006" class="node">
<title>Node6</title>
<g id="a_Node000006"><a xlink:title=" ">
<polygon fill="#e0e0e0" stroke="#999999" points="400,-140 316,-140 316,-121 400,-121 400,-140"/>
<text text-anchor="middle" x="358" y="-128" font-family="Helvetica,sans-Serif" font-size="10.00">QMouseEvent</text>
</a>
</g>
</g>
<!-- Node1&#45;&gt;Node6 -->
<g id="edge33_Node000001_Node000006" class="edge">
<title>Node1&#45;&gt;Node6</title>
<g id="a_edge33_Node000001_Node000006"><a xlink:title=" ">
<path fill="none" stroke="#63b8ff" d="M234.26,-241.87C247.83,-233.41 268.55,-219.8 285,-206 306.77,-187.74 329.29,-163.87 343.45,-148.13"/>
<polygon fill="#63b8ff" stroke="#63b8ff" points="346.37,-150.11 350.4,-140.31 341.14,-145.46 346.37,-150.11"/>
</a>
</g>
</g>
<!-- Node9 -->
<g id="Node000009" class="node">
<title>Node9</title>
<g id="a_Node000009"><a xlink:href="settings__singleton_8hpp.html" target="_top" xlink:title=" ">
<polygon fill="white" stroke="#666666" points="813.5,-206 706.5,-206 706.5,-176 813.5,-176 813.5,-206"/>
<text text-anchor="start" x="714.5" y="-194" font-family="Helvetica,sans-Serif" font-size="10.00">../settings/settings</text>
<text text-anchor="middle" x="760" y="-183" font-family="Helvetica,sans-Serif" font-size="10.00">_singleton.hpp</text>
</a>
</g>
</g>
<!-- Node1&#45;&gt;Node9 -->
<g id="edge8_Node000001_Node000009" class="edge">
<title>Node1&#45;&gt;Node9</title>
<g id="a_edge8_Node000001_Node000009"><a xlink:title=" ">
<path fill="none" stroke="#63b8ff" d="M290.04,-242.91C395.71,-231.46 594.34,-209.95 696.2,-198.91"/>
<polygon fill="#63b8ff" stroke="#63b8ff" points="696.78,-202.37 706.35,-197.81 696.03,-195.41 696.78,-202.37"/>
</a>
</g>
</g>
<!-- Node2&#45;&gt;Node3 -->
<g id="edge2_Node000002_Node000003" class="edge">
<title>Node2&#45;&gt;Node3</title>
<g id="a_edge2_Node000002_Node000003"><a xlink:title=" ">
<path fill="none" stroke="#63b8ff" d="M191.79,-181.49C157.5,-171.15 99.57,-153.69 62.07,-142.38"/>
<polygon fill="#63b8ff" stroke="#63b8ff" points="62.65,-138.9 52.07,-139.36 60.63,-145.6 62.65,-138.9"/>
</a>
</g>
</g>
<!-- Node2&#45;&gt;Node4 -->
<g id="edge3_Node000002_Node000004" class="edge">
<title>Node2&#45;&gt;Node4</title>
<g id="a_edge3_Node000002_Node000004"><a xlink:title=" ">
<path fill="none" stroke="#63b8ff" d="M203.03,-181.37C184.09,-171.73 153.21,-156.03 131.17,-144.81"/>
<polygon fill="#63b8ff" stroke="#63b8ff" points="132.54,-141.58 122.04,-140.17 129.36,-147.82 132.54,-141.58"/>
</a>
</g>
</g>
<!-- Node5 -->
<g id="Node000005" class="node">
<title>Node5</title>
<g id="a_Node000005"><a xlink:title=" ">
<polygon fill="#e0e0e0" stroke="#999999" points="221.5,-140 158.5,-140 158.5,-121 221.5,-121 221.5,-140"/>
<text text-anchor="middle" x="190" y="-128" font-family="Helvetica,sans-Serif" font-size="10.00">QLineEdit</text>
</a>
</g>
</g>
<!-- Node2&#45;&gt;Node5 -->
<g id="edge4_Node000002_Node000005" class="edge">
<title>Node2&#45;&gt;Node5</title>
<g id="a_edge4_Node000002_Node000005"><a xlink:title=" ">
<path fill="none" stroke="#63b8ff" d="M215.57,-181.37C211.23,-172.9 204.48,-159.74 199.01,-149.07"/>
<polygon fill="#63b8ff" stroke="#63b8ff" points="202.12,-147.47 194.44,-140.17 195.89,-150.66 202.12,-147.47"/>
</a>
</g>
</g>
<!-- Node2&#45;&gt;Node6 -->
<g id="edge5_Node000002_Node000006" class="edge">
<title>Node2&#45;&gt;Node6</title>
<g id="a_edge5_Node000002_Node000006"><a xlink:title=" ">
<path fill="none" stroke="#63b8ff" d="M240.07,-181.49C263.37,-171.62 302.01,-155.23 328.68,-143.93"/>
<polygon fill="#63b8ff" stroke="#63b8ff" points="330.07,-147.14 337.91,-140.02 327.34,-140.7 330.07,-147.14"/>
</a>
</g>
</g>
<!-- Node7 -->
<g id="Node000007" class="node">
<title>Node7</title>
<g id="a_Node000007"><a xlink:title=" ">
<polygon fill="#e0e0e0" stroke="#999999" points="396,-85 358,-85 358,-66 396,-66 396,-85"/>
<text text-anchor="middle" x="377" y="-73" font-family="Helvetica,sans-Serif" font-size="10.00">map</text>
</a>
</g>
</g>
<!-- Node2&#45;&gt;Node7 -->
<g id="edge6_Node000002_Node000007" class="edge">
<title>Node2&#45;&gt;Node7</title>
<g id="a_edge6_Node000002_Node000007"><a xlink:title=" ">
<path fill="none" stroke="#63b8ff" d="M230.18,-181.36C246.15,-167.92 278.25,-141.45 307,-121 322.16,-110.21 339.84,-98.98 353.65,-90.5"/>
<polygon fill="#63b8ff" stroke="#63b8ff" points="355.78,-93.3 362.5,-85.11 352.14,-87.32 355.78,-93.3"/>
</a>
</g>
</g>
<!-- Node8 -->
<g id="Node000008" class="node">
<title>Node8</title>
<g id="a_Node000008"><a xlink:title=" ">
<polygon fill="#e0e0e0" stroke="#999999" points="534.5,-24.5 457.5,-24.5 457.5,-5.5 534.5,-5.5 534.5,-24.5"/>
<text text-anchor="middle" x="496" y="-12.5" font-family="Helvetica,sans-Serif" font-size="10.00">minwindef.h</text>
</a>
</g>
</g>
<!-- Node2&#45;&gt;Node8 -->
<g id="edge7_Node000002_Node000008" class="edge">
<title>Node2&#45;&gt;Node8</title>
<g id="a_edge7_Node000002_Node000008"><a xlink:title=" ">
<path fill="none" stroke="#63b8ff" d="M226.41,-181.46C236.75,-167.94 258.07,-141.08 279,-121 307.55,-93.61 314.22,-84.86 349,-66 381.15,-48.57 420.51,-35.57 450.4,-27.2"/>
<polygon fill="#63b8ff" stroke="#63b8ff" points="451.43,-30.55 460.16,-24.54 449.59,-23.8 451.43,-30.55"/>
</a>
</g>
</g>
<!-- Node9&#45;&gt;Node7 -->
<g id="edge29_Node000009_Node000007" class="edge">
<title>Node9&#45;&gt;Node7</title>
<g id="a_edge29_Node000009_Node000007"><a xlink:title=" ">
<path fill="none" stroke="#63b8ff" d="M706.32,-190.57C641.69,-189.25 531.33,-180.49 447,-140 424,-128.96 403.12,-107.91 390.26,-93.07"/>
<polygon fill="#63b8ff" stroke="#63b8ff" points="392.77,-90.61 383.67,-85.18 387.4,-95.1 392.77,-90.61"/>
</a>
</g>
</g>
<!-- Node10 -->
<g id="Node000010" class="node">
<title>Node10</title>
<g id="a_Node000010"><a xlink:href="GameButtons_8h.html" target="_top" xlink:title=" ">
<polygon fill="white" stroke="#666666" points="873,-30 737,-30 737,0 873,0 873,-30"/>
<text text-anchor="start" x="745" y="-18" font-family="Helvetica,sans-Serif" font-size="10.00">../../VGP_Data_Exchange</text>
<text text-anchor="middle" x="805" y="-7" font-family="Helvetica,sans-Serif" font-size="10.00">/C/GameButtons.h</text>
</a>
</g>
</g>
<!-- Node9&#45;&gt;Node10 -->
<g id="edge9_Node000009_Node000010" class="edge">
<title>Node9&#45;&gt;Node10</title>
<g id="a_edge9_Node000009_Node000010"><a xlink:title=" ">
<path fill="none" stroke="#63b8ff" d="M776.9,-175.74C797.36,-157.26 830.71,-122.89 844,-85 849.88,-68.23 839.9,-50.81 828.56,-37.67"/>
<polygon fill="#63b8ff" stroke="#63b8ff" points="830.85,-34.99 821.46,-30.09 825.74,-39.78 830.85,-34.99"/>
</a>
</g>
</g>
<!-- Node11 -->
<g id="Node000011" class="node">
<title>Node11</title>
<g id="a_Node000011"><a xlink:href="input__types_8hpp.html" target="_top" xlink:title=" ">
<polygon fill="white" stroke="#666666" points="678.5,-85 583.5,-85 583.5,-66 678.5,-66 678.5,-85"/>
<text text-anchor="middle" x="631" y="-73" font-family="Helvetica,sans-Serif" font-size="10.00">input_types.hpp</text>
</a>
</g>
</g>
<!-- Node9&#45;&gt;Node11 -->
<g id="edge10_Node000009_Node000011" class="edge">
<title>Node9&#45;&gt;Node11</title>
<g id="a_edge10_Node000009_Node000011"><a xlink:title=" ">
<path fill="none" stroke="#63b8ff" d="M750.46,-175.89C739.98,-161.07 722.09,-137.64 703,-121 689.1,-108.88 671.52,-97.95 657.21,-89.95"/>
<polygon fill="#63b8ff" stroke="#63b8ff" points="658.81,-86.84 648.36,-85.14 655.47,-92.99 658.81,-86.84"/>
</a>
</g>
</g>
<!-- Node13 -->
<g id="Node000013" class="node">
<title>Node13</title>
<g id="a_Node000013"><a xlink:href="keymap__profile_8hpp.html" target="_top" xlink:title=" ">
<polygon fill="white" stroke="#666666" points="693.5,-140 580.5,-140 580.5,-121 693.5,-121 693.5,-140"/>
<text text-anchor="middle" x="637" y="-128" font-family="Helvetica,sans-Serif" font-size="10.00">keymap_profile.hpp</text>
</a>
</g>
</g>
<!-- Node9&#45;&gt;Node13 -->
<g id="edge14_Node000009_Node000013" class="edge">
<title>Node9&#45;&gt;Node13</title>
<g id="a_edge14_Node000009_Node000013"><a xlink:title=" ">
<path fill="none" stroke="#63b8ff" d="M730.54,-175.99C710.38,-166.4 683.86,-153.79 664.2,-144.44"/>
<polygon fill="#63b8ff" stroke="#63b8ff" points="665.7,-141.27 655.16,-140.14 662.69,-147.6 665.7,-141.27"/>
</a>
</g>
</g>
<!-- Node15 -->
<g id="Node000015" class="node">
<title>Node15</title>
<g id="a_Node000015"><a xlink:title=" ">
<polygon fill="#e0e0e0" stroke="#999999" points="753,-85 697,-85 697,-66 753,-66 753,-85"/>
<text text-anchor="middle" x="725" y="-73" font-family="Helvetica,sans-Serif" font-size="10.00">QObject</text>
</a>
</g>
</g>
<!-- Node9&#45;&gt;Node15 -->
<g id="edge25_Node000009_Node000015" class="edge">
<title>Node9&#45;&gt;Node15</title>
<g id="a_edge25_Node000009_Node000015"><a xlink:title=" ">
<path fill="none" stroke="#63b8ff" d="M755.57,-175.63C749.24,-155.12 737.63,-117.47 730.68,-94.93"/>
<polygon fill="#63b8ff" stroke="#63b8ff" points="733.98,-93.75 727.69,-85.23 727.29,-95.82 733.98,-93.75"/>
</a>
</g>
</g>
<!-- Node16 -->
<g id="Node000016" class="node">
<title>Node16</title>
<g id="a_Node000016"><a xlink:title=" ">
<polygon fill="#e0e0e0" stroke="#999999" points="835,-85 771,-85 771,-66 835,-66 835,-85"/>
<text text-anchor="middle" x="803" y="-73" font-family="Helvetica,sans-Serif" font-size="10.00">QSettings</text>
</a>
</g>
</g>
<!-- Node9&#45;&gt;Node16 -->
<g id="edge26_Node000009_Node000016" class="edge">
<title>Node9&#45;&gt;Node16</title>
<g id="a_edge26_Node000009_Node000016"><a xlink:title=" ">
<path fill="none" stroke="#63b8ff" d="M765.45,-175.63C773.25,-155.03 787.61,-117.12 796.13,-94.63"/>
<polygon fill="#63b8ff" stroke="#63b8ff" points="799.42,-95.82 799.69,-85.23 792.88,-93.34 799.42,-95.82"/>
</a>
</g>
</g>
<!-- Node17 -->
<g id="Node000017" class="node">
<title>Node17</title>
<g id="a_Node000017"><a xlink:title=" ">
<polygon fill="#e0e0e0" stroke="#999999" points="467.5,-85 414.5,-85 414.5,-66 467.5,-66 467.5,-85"/>
<text text-anchor="middle" x="441" y="-73" font-family="Helvetica,sans-Serif" font-size="10.00">QString</text>
</a>
</g>
</g>
<!-- Node9&#45;&gt;Node17 -->
<g id="edge27_Node000009_Node000017" class="edge">
<title>Node9&#45;&gt;Node17</title>
<g id="a_edge27_Node000009_Node000017"><a xlink:title=" ">
<path fill="none" stroke="#63b8ff" d="M706.47,-178.67C668.38,-169.91 616.31,-156.51 572,-140 553.93,-133.27 550.35,-129.42 533,-121 511.08,-110.36 486.21,-98.33 467.85,-89.46"/>
<polygon fill="#63b8ff" stroke="#63b8ff" points="469.17,-86.21 458.64,-85.02 466.13,-92.52 469.17,-86.21"/>
</a>
</g>
</g>
<!-- Node18 -->
<g id="Node000018" class="node">
<title>Node18</title>
<g id="a_Node000018"><a xlink:title=" ">
<polygon fill="#e0e0e0" stroke="#999999" points="902,-140 864,-140 864,-121 902,-121 902,-140"/>
<text text-anchor="middle" x="883" y="-128" font-family="Helvetica,sans-Serif" font-size="10.00">QDir</text>
</a>
</g>
</g>
<!-- Node9&#45;&gt;Node18 -->
<g id="edge22_Node000009_Node000018" class="edge">
<title>Node9&#45;&gt;Node18</title>
<g id="a_edge22_Node000009_Node000018"><a xlink:title=" ">
<path fill="none" stroke="#63b8ff" d="M789.46,-175.99C809.62,-166.4 836.14,-153.79 855.8,-144.44"/>
<polygon fill="#63b8ff" stroke="#63b8ff" points="857.31,-147.6 864.84,-140.14 854.3,-141.27 857.31,-147.6"/>
</a>
</g>
</g>
<!-- Node19 -->
<g id="Node000019" class="node">
<title>Node19</title>
<g id="a_Node000019"><a xlink:title=" ">
<polygon fill="#e0e0e0" stroke="#999999" points="961.5,-140 920.5,-140 920.5,-121 961.5,-121 961.5,-140"/>
<text text-anchor="middle" x="941" y="-128" font-family="Helvetica,sans-Serif" font-size="10.00">QList</text>
</a>
</g>
</g>
<!-- Node9&#45;&gt;Node19 -->
<g id="edge23_Node000009_Node000019" class="edge">
<title>Node9&#45;&gt;Node19</title>
<g id="a_edge23_Node000009_Node000019"><a xlink:title=" ">
<path fill="none" stroke="#63b8ff" d="M803.35,-175.99C836.47,-165.28 881.28,-150.8 910.64,-141.31"/>
<polygon fill="#63b8ff" stroke="#63b8ff" points="911.9,-144.58 920.34,-138.18 909.75,-137.92 911.9,-144.58"/>
</a>
</g>
</g>
<!-- Node20 -->
<g id="Node000020" class="node">
<title>Node20</title>
<g id="a_Node000020"><a xlink:title=" ">
<polygon fill="#e0e0e0" stroke="#999999" points="1024.5,-140 979.5,-140 979.5,-121 1024.5,-121 1024.5,-140"/>
<text text-anchor="middle" x="1002" y="-128" font-family="Helvetica,sans-Serif" font-size="10.00">QMap</text>
</a>
</g>
</g>
<!-- Node9&#45;&gt;Node20 -->
<g id="edge24_Node000009_Node000020" class="edge">
<title>Node9&#45;&gt;Node20</title>
<g id="a_edge24_Node000009_Node000020"><a xlink:title=" ">
<path fill="none" stroke="#63b8ff" d="M813.9,-177.77C854.35,-168.47 911.35,-155.11 969.6,-140.3"/>
<polygon fill="#63b8ff" stroke="#63b8ff" points="970.51,-143.68 979.34,-137.81 968.78,-136.89 970.51,-143.68"/>
</a>
</g>
</g>
<!-- Node21 -->
<g id="Node000021" class="node">
<title>Node21</title>
<g id="a_Node000021"><a xlink:title=" ">
<polygon fill="#e0e0e0" stroke="#999999" points="1101.5,-140 1042.5,-140 1042.5,-121 1101.5,-121 1101.5,-140"/>
<text text-anchor="middle" x="1072" y="-128" font-family="Helvetica,sans-Serif" font-size="10.00">QVariant</text>
</a>
</g>
</g>
<!-- Node9&#45;&gt;Node21 -->
<g id="edge28_Node000009_Node000021" class="edge">
<title>Node9&#45;&gt;Node21</title>
<g id="a_edge28_Node000009_Node000021"><a xlink:title=" ">
<path fill="none" stroke="#63b8ff" d="M813.67,-180.85C866.84,-171.65 950.83,-156.71 1032.24,-140.3"/>
<polygon fill="#63b8ff" stroke="#63b8ff" points="1033.05,-143.71 1042.15,-138.29 1031.66,-136.85 1033.05,-143.71"/>
</a>
</g>
</g>
<!-- Node22 -->
<g id="Node000022" class="node">
<title>Node22</title>
<g id="a_Node000022"><a xlink:title=" ">
<polygon fill="#e0e0e0" stroke="#999999" points="524,-140 456,-140 456,-121 524,-121 524,-140"/>
<text text-anchor="middle" x="490" y="-128" font-family="Helvetica,sans-Serif" font-size="10.00">windows.h</text>
</a>
</g>
</g>
<!-- Node9&#45;&gt;Node22 -->
<g id="edge30_Node000009_Node000022" class="edge">
<title>Node9&#45;&gt;Node22</title>
<g id="a_edge30_Node000009_Node000022"><a xlink:title=" ">
<path fill="none" stroke="#63b8ff" d="M706.33,-178.37C655.9,-167.45 581.32,-151.29 534.22,-141.08"/>
<polygon fill="#63b8ff" stroke="#63b8ff" points="534.83,-137.63 524.32,-138.94 533.35,-144.47 534.83,-137.63"/>
</a>
</g>
</g>
<!-- Node11&#45;&gt;Node8 -->
<g id="edge12_Node000011_Node000008" class="edge">
<title>Node11&#45;&gt;Node8</title>
<g id="a_edge12_Node000011_Node000008"><a xlink:title=" ">
<path fill="none" stroke="#63b8ff" d="M611.37,-65.99C588.67,-56.16 551.1,-39.88 525.03,-28.58"/>
<polygon fill="#63b8ff" stroke="#63b8ff" points="526.22,-25.28 515.65,-24.52 523.44,-31.7 526.22,-25.28"/>
</a>
</g>
</g>
<!-- Node11&#45;&gt;Node10 -->
<g id="edge11_Node000011_Node000010" class="edge">
<title>Node11&#45;&gt;Node10</title>
<g id="a_edge11_Node000011_Node000010"><a xlink:title=" ">
<path fill="none" stroke="#63b8ff" d="M656.3,-65.99C681.67,-57.46 721.46,-44.09 753.5,-33.32"/>
<polygon fill="#63b8ff" stroke="#63b8ff" points="754.8,-36.57 763.17,-30.06 752.57,-29.93 754.8,-36.57"/>
</a>
</g>
</g>
<!-- Node12 -->
<g id="Node000012" class="node">
<title>Node12</title>
<g id="a_Node000012"><a xlink:title=" ">
<polygon fill="#e0e0e0" stroke="#999999" points="660.5,-24.5 601.5,-24.5 601.5,-5.5 660.5,-5.5 660.5,-24.5"/>
<text text-anchor="middle" x="631" y="-12.5" font-family="Helvetica,sans-Serif" font-size="10.00">qtypes.h</text>
</a>
</g>
</g>
<!-- Node11&#45;&gt;Node12 -->
<g id="edge13_Node000011_Node000012" class="edge">
<title>Node11&#45;&gt;Node12</title>
<g id="a_edge13_Node000011_Node000012"><a xlink:title=" ">
<path fill="none" stroke="#63b8ff" d="M631,-65.87C631,-57.75 631,-45.31 631,-34.89"/>
<polygon fill="#63b8ff" stroke="#63b8ff" points="634.5,-34.67 631,-24.67 627.5,-34.67 634.5,-34.67"/>
</a>
</g>
</g>
<!-- Node13&#45;&gt;Node7 -->
<g id="edge20_Node000013_Node000007" class="edge">
<title>Node13&#45;&gt;Node7</title>
<g id="a_edge20_Node000013_Node000007"><a xlink:title=" ">
<path fill="none" stroke="#63b8ff" d="M584.14,-120.99C539.1,-113.38 472.52,-101.25 406.01,-85.04"/>
<polygon fill="#63b8ff" stroke="#63b8ff" points="406.75,-81.62 396.21,-82.62 405.08,-88.42 406.75,-81.62"/>
</a>
</g>
</g>
<!-- Node13&#45;&gt;Node8 -->
<g id="edge21_Node000013_Node000008" class="edge">
<title>Node13&#45;&gt;Node8</title>
<g id="a_edge21_Node000013_Node000008"><a xlink:title=" ">
<path fill="none" stroke="#63b8ff" d="M582.98,-120.93C559.52,-114.63 533.47,-103.75 516,-85 503.4,-71.48 498.68,-50.48 496.95,-35.2"/>
<polygon fill="#63b8ff" stroke="#63b8ff" points="500.41,-34.54 496.12,-24.85 493.43,-35.1 500.41,-34.54"/>
</a>
</g>
</g>
<!-- Node13&#45;&gt;Node11 -->
<g id="edge15_Node000013_Node000011" class="edge">
<title>Node13&#45;&gt;Node11</title>
<g id="a_edge15_Node000013_Node000011"><a xlink:title=" ">
<path fill="none" stroke="#63b8ff" d="M636.01,-120.75C635.22,-113.8 634.1,-103.85 633.11,-95.13"/>
<polygon fill="#63b8ff" stroke="#63b8ff" points="636.58,-94.63 631.97,-85.09 629.62,-95.42 636.58,-94.63"/>
</a>
</g>
</g>
<!-- Node14 -->
<g id="Node000014" class="node">
<title>Node14</title>
<g id="a_Node000014"><a xlink:title=" ">
<polygon fill="#e0e0e0" stroke="#999999" points="565.5,-85 524.5,-85 524.5,-66 565.5,-66 565.5,-85"/>
<text text-anchor="middle" x="545" y="-73" font-family="Helvetica,sans-Serif" font-size="10.00">QFile</text>
</a>
</g>
</g>
<!-- Node13&#45;&gt;Node14 -->
<g id="edge16_Node000013_Node000014" class="edge">
<title>Node13&#45;&gt;Node14</title>
<g id="a_edge16_Node000013_Node000014"><a xlink:title=" ">
<path fill="none" stroke="#63b8ff" d="M622.22,-120.98C607.82,-112.69 585.69,-99.94 568.81,-90.22"/>
<polygon fill="#63b8ff" stroke="#63b8ff" points="570.46,-87.13 560.05,-85.17 566.97,-93.19 570.46,-87.13"/>
</a>
</g>
</g>
<!-- Node13&#45;&gt;Node15 -->
<g id="edge17_Node000013_Node000015" class="edge">
<title>Node13&#45;&gt;Node15</title>
<g id="a_edge17_Node000013_Node000015"><a xlink:title=" ">
<path fill="none" stroke="#63b8ff" d="M651.14,-120.98C664.79,-112.77 685.69,-100.18 701.78,-90.49"/>
<polygon fill="#63b8ff" stroke="#63b8ff" points="703.84,-93.33 710.6,-85.17 700.23,-87.33 703.84,-93.33"/>
</a>
</g>
</g>
<!-- Node13&#45;&gt;Node16 -->
<g id="edge18_Node000013_Node000016" class="edge">
<title>Node13&#45;&gt;Node16</title>
<g id="a_edge18_Node000013_Node000016"><a xlink:title=" ">
<path fill="none" stroke="#63b8ff" d="M663.67,-120.98C691.54,-112.09 735.45,-98.07 766.52,-88.15"/>
<polygon fill="#63b8ff" stroke="#63b8ff" points="767.66,-91.46 776.12,-85.08 765.53,-84.79 767.66,-91.46"/>
</a>
</g>
</g>
<!-- Node13&#45;&gt;Node17 -->
<g id="edge19_Node000013_Node000017" class="edge">
<title>Node13&#45;&gt;Node17</title>
<g id="a_edge19_Node000013_Node000017"><a xlink:title=" ">
<path fill="none" stroke="#63b8ff" d="M605.51,-120.98C570.59,-111.54 514.35,-96.33 477.53,-86.38"/>
<polygon fill="#63b8ff" stroke="#63b8ff" points="478.26,-82.95 467.69,-83.72 476.43,-89.71 478.26,-82.95"/>
</a>
</g>
</g>
</g>
</svg>
