<?xml version="1.0" encoding="UTF-8" standalone="no"?>
<!DOCTYPE svg PUBLIC "-//W3C//DTD SVG 1.1//EN"
 "http://www.w3.org/Graphics/SVG/1.1/DTD/svg11.dtd">
<!-- Generated by graphviz version 2.43.0 (0)
 -->
<!-- Title: qrcodegen::QrSegment Pages: 1 -->
<svg width="236pt" height="129pt"
 viewBox="0.00 0.00 236.00 129.00" xmlns="http://www.w3.org/2000/svg" xmlns:xlink="http://www.w3.org/1999/xlink">
<g id="graph0" class="graph" transform="scale(1 1) rotate(0) translate(4 125)">
<title>qrcodegen::QrSegment</title>
<!-- Node1 -->
<g id="Node000001" class="node">
<title>Node1</title>
<g id="a_Node000001"><a xlink:title=" ">
<polygon fill="#999999" stroke="#666666" points="128,-19 0,-19 0,0 128,0 128,-19"/>
<text text-anchor="middle" x="64" y="-7" font-family="Helvetica,sans-Serif" font-size="10.00">qrcodegen::QrSegment</text>
</a>
</g>
</g>
<!-- Node2 -->
<g id="Node000002" class="node">
<title>Node2</title>
<g id="a_Node000002"><a xlink:href="classqrcodegen_1_1QrSegment_1_1Mode.html" target="_top" xlink:title=" ">
<polygon fill="white" stroke="#666666" points="128,-108.5 0,-108.5 0,-78.5 128,-78.5 128,-108.5"/>
<text text-anchor="start" x="8" y="-96.5" font-family="Helvetica,sans-Serif" font-size="10.00">qrcodegen::QrSegment</text>
<text text-anchor="middle" x="64" y="-85.5" font-family="Helvetica,sans-Serif" font-size="10.00">::Mode</text>
</a>
</g>
</g>
<!-- Node2&#45;&gt;Node1 -->
<g id="edge1_Node000001_Node000002" class="edge">
<title>Node2&#45;&gt;Node1</title>
<g id="a_edge1_Node000001_Node000002"><a xlink:title=" ">
<path fill="none" stroke="#9a32cd" stroke-dasharray="5,2" d="M64,-68.1C64,-51.53 64,-30.61 64,-19.09"/>
<polygon fill="#9a32cd" stroke="#9a32cd" points="60.5,-68.22 64,-78.22 67.5,-68.22 60.5,-68.22"/>
</a>
</g>
<text text-anchor="middle" x="79.5" y="-40" font-family="Helvetica,sans-Serif" font-size="10.00" fill="grey"> mode</text>
</g>
<!-- Node2&#45;&gt;Node2 -->
<g id="edge2_Node000002_Node000002" class="edge">
<title>Node2&#45;&gt;Node2</title>
<g id="a_edge2_Node000002_Node000002"><a xlink:title=" ">
<path fill="none" stroke="#9a32cd" stroke-dasharray="5,2" d="M138.15,-100.2C143.04,-98.64 146,-96.41 146,-93.5 146,-88.96 138.79,-86.07 128.29,-84.83"/>
<polygon fill="#9a32cd" stroke="#9a32cd" points="137.4,-96.78 128.29,-102.17 138.78,-103.64 137.4,-96.78"/>
</a>
</g>
<text text-anchor="middle" x="187" y="-113" font-family="Helvetica,sans-Serif" font-size="10.00" fill="grey"> ALPHANUMERIC</text>
<text text-anchor="middle" x="187" y="-102" font-family="Helvetica,sans-Serif" font-size="10.00" fill="grey">BYTE</text>
<text text-anchor="middle" x="187" y="-91" font-family="Helvetica,sans-Serif" font-size="10.00" fill="grey">ECI</text>
<text text-anchor="middle" x="187" y="-80" font-family="Helvetica,sans-Serif" font-size="10.00" fill="grey">KANJI</text>
<text text-anchor="middle" x="187" y="-69" font-family="Helvetica,sans-Serif" font-size="10.00" fill="grey">NUMERIC</text>
</g>
</g>
</svg>
