<?xml version="1.0" encoding="UTF-8" standalone="no"?>
<!DOCTYPE svg PUBLIC "-//W3C//DTD SVG 1.1//EN"
 "http://www.w3.org/Graphics/SVG/1.1/DTD/svg11.dtd">
<!-- Generated by graphviz version 2.43.0 (0)
 -->
<!-- Title: SettingsSingleton Pages: 1 -->
<svg width="210pt" height="149pt"
 viewBox="0.00 0.00 210.00 149.00" xmlns="http://www.w3.org/2000/svg" xmlns:xlink="http://www.w3.org/1999/xlink">
<g id="graph0" class="graph" transform="scale(1 1) rotate(0) translate(4 145)">
<title>SettingsSingleton</title>
<!-- Node1 -->
<g id="Node000001" class="node">
<title>Node1</title>
<g id="a_Node000001"><a xlink:title=" ">
<polygon fill="#999999" stroke="#666666" points="102,-19 0,-19 0,0 102,0 102,-19"/>
<text text-anchor="middle" x="51" y="-7" font-family="Helvetica,sans-Serif" font-size="10.00">SettingsSingleton</text>
</a>
</g>
</g>
<!-- Node2 -->
<g id="Node000002" class="node">
<title>Node2</title>
<g id="a_Node000002"><a xlink:title=" ">
<polygon fill="white" stroke="#666666" points="75,-141 19,-141 19,-122 75,-122 75,-141"/>
<text text-anchor="middle" x="47" y="-129" font-family="Helvetica,sans-Serif" font-size="10.00">QObject</text>
</a>
</g>
</g>
<!-- Node2&#45;&gt;Node1 -->
<g id="edge1_Node000001_Node000002" class="edge">
<title>Node2&#45;&gt;Node1</title>
<g id="a_edge1_Node000001_Node000002"><a xlink:title=" ">
<path fill="none" stroke="#63b8ff" d="M47.63,-111.65C48.51,-85.22 50.07,-38.26 50.71,-19.05"/>
<polygon fill="#63b8ff" stroke="#63b8ff" points="44.12,-111.76 47.29,-121.87 51.12,-111.99 44.12,-111.76"/>
</a>
</g>
</g>
<!-- Node3 -->
<g id="Node000003" class="node">
<title>Node3</title>
<g id="a_Node000003"><a xlink:href="classKeymapProfile.html" target="_top" xlink:title=" ">
<polygon fill="white" stroke="#666666" points="150.5,-85 63.5,-85 63.5,-66 150.5,-66 150.5,-85"/>
<text text-anchor="middle" x="107" y="-73" font-family="Helvetica,sans-Serif" font-size="10.00">KeymapProfile</text>
</a>
</g>
</g>
<!-- Node2&#45;&gt;Node3 -->
<g id="edge3_Node000003_Node000002" class="edge">
<title>Node2&#45;&gt;Node3</title>
<g id="a_edge3_Node000003_Node000002"><a xlink:title=" ">
<path fill="none" stroke="#63b8ff" d="M64.18,-115.04C74.88,-105.41 88.26,-93.37 97.18,-85.33"/>
<polygon fill="#63b8ff" stroke="#63b8ff" points="61.73,-112.53 56.64,-121.82 66.41,-117.74 61.73,-112.53"/>
</a>
</g>
</g>
<!-- Node3&#45;&gt;Node1 -->
<g id="edge2_Node000001_Node000003" class="edge">
<title>Node3&#45;&gt;Node1</title>
<g id="a_edge2_Node000001_Node000003"><a xlink:title=" ">
<path fill="none" stroke="#9a32cd" stroke-dasharray="5,2" d="M92.67,-58.12C81.89,-45.81 67.53,-29.39 58.79,-19.41"/>
<polygon fill="#9a32cd" stroke="#9a32cd" points="90.23,-60.65 99.45,-65.87 95.5,-56.04 90.23,-60.65"/>
</a>
</g>
<text text-anchor="middle" x="142.5" y="-40" font-family="Helvetica,sans-Serif" font-size="10.00" fill="grey"> m_activeKeymapProfile</text>
</g>
</g>
</svg>
