<?xml version="1.0" encoding="UTF-8" standalone="no"?>
<!DOCTYPE svg PUBLIC "-//W3C//DTD SVG 1.1//EN"
 "http://www.w3.org/Graphics/SVG/1.1/DTD/svg11.dtd">
<!-- Generated by graphviz version 2.43.0 (0)
 -->
<!-- Title: GamepadExecutor Pages: 1 -->
<svg width="230pt" height="99pt"
 viewBox="0.00 0.00 229.50 99.00" xmlns="http://www.w3.org/2000/svg" xmlns:xlink="http://www.w3.org/1999/xlink">
<g id="graph0" class="graph" transform="scale(1 1) rotate(0) translate(4 95)">
<title>GamepadExecutor</title>
<!-- Node1 -->
<g id="Node000001" class="node">
<title>Node1</title>
<g id="a_Node000001"><a xlink:title=" ">
<polygon fill="#999999" stroke="#666666" points="164,-19 58,-19 58,0 164,0 164,-19"/>
<text text-anchor="middle" x="111" y="-7" font-family="Helvetica,sans-Serif" font-size="10.00">GamepadExecutor</text>
</a>
</g>
</g>
<!-- Node2 -->
<g id="Node000002" class="node">
<title>Node2</title>
<g id="a_Node000002"><a xlink:href="classExecutorInterface.html" target="_top" xlink:title=" ">
<polygon fill="white" stroke="#666666" points="102,-91 0,-91 0,-72 102,-72 102,-91"/>
<text text-anchor="middle" x="51" y="-79" font-family="Helvetica,sans-Serif" font-size="10.00">ExecutorInterface</text>
</a>
</g>
</g>
<!-- Node2&#45;&gt;Node1 -->
<g id="edge1_Node000001_Node000002" class="edge">
<title>Node2&#45;&gt;Node1</title>
<g id="a_edge1_Node000001_Node000002"><a xlink:title=" ">
<path fill="none" stroke="#63b8ff" d="M65.13,-64.01C77.18,-49.96 94.02,-30.32 103.58,-19.15"/>
<polygon fill="#63b8ff" stroke="#63b8ff" points="62.21,-62.05 58.36,-71.92 67.52,-66.6 62.21,-62.05"/>
</a>
</g>
</g>
<!-- Node3 -->
<g id="Node000003" class="node">
<title>Node3</title>
<g id="a_Node000003"><a xlink:href="classGamepadInjector.html" target="_top" xlink:title="Behaves like a virtual device (gamepad).">
<polygon fill="white" stroke="#666666" points="221.5,-91 120.5,-91 120.5,-72 221.5,-72 221.5,-91"/>
<text text-anchor="middle" x="171" y="-79" font-family="Helvetica,sans-Serif" font-size="10.00">GamepadInjector</text>
</a>
</g>
</g>
<!-- Node3&#45;&gt;Node1 -->
<g id="edge2_Node000001_Node000003" class="edge">
<title>Node3&#45;&gt;Node1</title>
<g id="a_edge2_Node000001_Node000003"><a xlink:title=" ">
<path fill="none" stroke="#9a32cd" stroke-dasharray="5,2" d="M156.87,-64.01C144.82,-49.96 127.98,-30.32 118.42,-19.15"/>
<polygon fill="#9a32cd" stroke="#9a32cd" points="154.48,-66.6 163.64,-71.92 159.79,-62.05 154.48,-66.6"/>
</a>
</g>
<text text-anchor="start" x="151" y="-42.5" font-family="Helvetica,sans-Serif" font-size="10.00" fill="grey">m_injector</text>
</g>
</g>
</svg>
