<?xml version="1.0" encoding="UTF-8" standalone="no"?>
<!DOCTYPE svg PUBLIC "-//W3C//DTD SVG 1.1//EN"
 "http://www.w3.org/Graphics/SVG/1.1/DTD/svg11.dtd">
<!-- Generated by graphviz version 2.43.0 (0)
 -->
<!-- Title: qrcodegen::QrSegment Pages: 1 -->
<svg width="239pt" height="157pt"
 viewBox="0.00 0.00 239.00 157.00" xmlns="http://www.w3.org/2000/svg" xmlns:xlink="http://www.w3.org/1999/xlink">
<g id="graph0" class="graph" transform="scale(1 1) rotate(0) translate(4 153)">
<title>qrcodegen::QrSegment</title>
<!-- Node1 -->
<g id="Node000001" class="node">
<title>Node1</title>
<g id="a_Node000001"><a xlink:title=" ">
<polygon fill="#999999" stroke="#666666" points="128,-19 0,-19 0,0 128,0 128,-19"/>
<text text-anchor="middle" x="64" y="-7" font-family="Helvetica,sans-Serif" font-size="10.00">qrcodegen::QrSegment</text>
</a>
</g>
</g>
<!-- Node2 -->
<g id="Node000002" class="node">
<title>Node2</title>
<g id="a_Node000002"><a xlink:href="classqrcodegen_1_1QrSegment_1_1Mode.html" target="_top" xlink:title=" ">
<polygon fill="white" stroke="#666666" points="128,-125.5 0,-125.5 0,-95.5 128,-95.5 128,-125.5"/>
<text text-anchor="start" x="8" y="-113.5" font-family="Helvetica,sans-Serif" font-size="10.00">qrcodegen::QrSegment</text>
<text text-anchor="middle" x="64" y="-102.5" font-family="Helvetica,sans-Serif" font-size="10.00">::Mode</text>
</a>
</g>
</g>
<!-- Node2&#45;&gt;Node1 -->
<g id="edge1_Node000001_Node000002" class="edge">
<title>Node2&#45;&gt;Node1</title>
<g id="a_edge1_Node000001_Node000002"><a xlink:title=" ">
<path fill="none" stroke="#9a32cd" stroke-dasharray="5,2" d="M64,-85.3C64,-63.84 64,-33.7 64,-19.1"/>
<polygon fill="#9a32cd" stroke="#9a32cd" points="60.5,-85.32 64,-95.32 67.5,-85.32 60.5,-85.32"/>
</a>
</g>
<text text-anchor="start" x="67" y="-42.5" font-family="Helvetica,sans-Serif" font-size="10.00" fill="grey">mode</text>
</g>
<!-- Node2&#45;&gt;Node2 -->
<g id="edge2_Node000002_Node000002" class="edge">
<title>Node2&#45;&gt;Node2</title>
<g id="a_edge2_Node000002_Node000002"><a xlink:title=" ">
<path fill="none" stroke="#9a32cd" stroke-dasharray="5,2" d="M138.15,-119.07C143.04,-117.08 146,-114.22 146,-110.5 146,-104.69 138.79,-100.99 128.29,-99.4"/>
<polygon fill="#9a32cd" stroke="#9a32cd" points="137.1,-115.73 128.29,-121.6 138.84,-122.51 137.1,-115.73"/>
</a>
</g>
<text text-anchor="start" x="149.5" y="-137.5" font-family="Helvetica,sans-Serif" font-size="10.00" fill="grey">ALPHANUMERIC</text>
<text text-anchor="start" x="149.5" y="-122.5" font-family="Helvetica,sans-Serif" font-size="10.00" fill="grey">BYTE</text>
<text text-anchor="start" x="149.5" y="-107.5" font-family="Helvetica,sans-Serif" font-size="10.00" fill="grey">ECI</text>
<text text-anchor="start" x="149.5" y="-92.5" font-family="Helvetica,sans-Serif" font-size="10.00" fill="grey">KANJI</text>
<text text-anchor="start" x="149.5" y="-77.5" font-family="Helvetica,sans-Serif" font-size="10.00" fill="grey">NUMERIC</text>
</g>
</g>
</svg>
