<?xml version="1.0" encoding="UTF-8" standalone="no"?>
<!DOCTYPE svg PUBLIC "-//W3C//DTD SVG 1.1//EN"
 "http://www.w3.org/Graphics/SVG/1.1/DTD/svg11.dtd">
<!-- Generated by graphviz version 2.43.0 (0)
 -->
<!-- Title: SettingsSingleton Pages: 1 -->
<svg width="215pt" height="155pt"
 viewBox="0.00 0.00 215.00 155.00" xmlns="http://www.w3.org/2000/svg" xmlns:xlink="http://www.w3.org/1999/xlink">
<g id="graph0" class="graph" transform="scale(1 1) rotate(0) translate(4 151)">
<title>SettingsSingleton</title>
<!-- Node1 -->
<g id="Node000001" class="node">
<title>Node1</title>
<g id="a_Node000001"><a xlink:title=" ">
<polygon fill="#999999" stroke="#666666" points="102,-19 0,-19 0,0 102,0 102,-19"/>
<text text-anchor="middle" x="51" y="-7" font-family="Helvetica,sans-Serif" font-size="10.00">SettingsSingleton</text>
</a>
</g>
</g>
<!-- Node2 -->
<g id="Node000002" class="node">
<title>Node2</title>
<g id="a_Node000002"><a xlink:title=" ">
<polygon fill="white" stroke="#666666" points="75,-147 19,-147 19,-128 75,-128 75,-147"/>
<text text-anchor="middle" x="47" y="-135" font-family="Helvetica,sans-Serif" font-size="10.00">QObject</text>
</a>
</g>
</g>
<!-- Node2&#45;&gt;Node1 -->
<g id="edge1_Node000001_Node000002" class="edge">
<title>Node2&#45;&gt;Node1</title>
<g id="a_edge1_Node000001_Node000002"><a xlink:title=" ">
<path fill="none" stroke="#63b8ff" d="M47.6,-117.51C48.48,-89.81 50.08,-39.42 50.72,-19.22"/>
<polygon fill="#63b8ff" stroke="#63b8ff" points="44.09,-117.73 47.27,-127.84 51.09,-117.96 44.09,-117.73"/>
</a>
</g>
</g>
<!-- Node3 -->
<g id="Node000003" class="node">
<title>Node3</title>
<g id="a_Node000003"><a xlink:href="classKeymapProfile.html" target="_top" xlink:title=" ">
<polygon fill="white" stroke="#666666" points="150.5,-91 63.5,-91 63.5,-72 150.5,-72 150.5,-91"/>
<text text-anchor="middle" x="107" y="-79" font-family="Helvetica,sans-Serif" font-size="10.00">KeymapProfile</text>
</a>
</g>
</g>
<!-- Node2&#45;&gt;Node3 -->
<g id="edge3_Node000003_Node000002" class="edge">
<title>Node2&#45;&gt;Node3</title>
<g id="a_edge3_Node000003_Node000002"><a xlink:title=" ">
<path fill="none" stroke="#63b8ff" d="M64.18,-121.04C74.88,-111.41 88.26,-99.37 97.18,-91.33"/>
<polygon fill="#63b8ff" stroke="#63b8ff" points="61.73,-118.53 56.64,-127.82 66.41,-123.74 61.73,-118.53"/>
</a>
</g>
</g>
<!-- Node3&#45;&gt;Node1 -->
<g id="edge2_Node000001_Node000003" class="edge">
<title>Node3&#45;&gt;Node1</title>
<g id="a_edge2_Node000001_Node000003"><a xlink:title=" ">
<path fill="none" stroke="#9a32cd" stroke-dasharray="5,2" d="M93.81,-64.01C82.57,-49.96 66.85,-30.32 57.92,-19.15"/>
<polygon fill="#9a32cd" stroke="#9a32cd" points="91.15,-66.29 100.13,-71.92 96.62,-61.92 91.15,-66.29"/>
</a>
</g>
<text text-anchor="start" x="88" y="-42.5" font-family="Helvetica,sans-Serif" font-size="10.00" fill="grey">m_activeKeymapProfile</text>
</g>
</g>
</svg>
