<?xml version="1.0" encoding="UTF-8" standalone="no"?>
<!DOCTYPE svg PUBLIC "-//W3C//DTD SVG 1.1//EN"
 "http://www.w3.org/Graphics/SVG/1.1/DTD/svg11.dtd">
<!-- Generated by graphviz version 2.43.0 (0)
 -->
<!-- Title: VGP_Data_Exchange/C/Colfer.h Pages: 1 -->
<svg width="448pt" height="214pt"
 viewBox="0.00 0.00 447.50 214.00" xmlns="http://www.w3.org/2000/svg" xmlns:xlink="http://www.w3.org/1999/xlink">
<g id="graph0" class="graph" transform="scale(1 1) rotate(0) translate(4 210)">
<title>VGP_Data_Exchange/C/Colfer.h</title>
<!-- Node1 -->
<g id="Node000001" class="node">
<title>Node1</title>
<g id="a_Node000001"><a xlink:title=" ">
<polygon fill="#999999" stroke="#666666" points="207,-206 79,-206 79,-176 207,-176 207,-206"/>
<text text-anchor="start" x="87" y="-194" font-family="Helvetica,sans-Serif" font-size="10.00">VGP_Data_Exchange/C</text>
<text text-anchor="middle" x="143" y="-183" font-family="Helvetica,sans-Serif" font-size="10.00">/Colfer.h</text>
</a>
</g>
</g>
<!-- Node2 -->
<g id="Node000002" class="node">
<title>Node2</title>
<g id="a_Node000002"><a xlink:href="Colfer_8c.html" target="_top" xlink:title=" ">
<polygon fill="white" stroke="#666666" points="128,-140 0,-140 0,-110 128,-110 128,-140"/>
<text text-anchor="start" x="8" y="-128" font-family="Helvetica,sans-Serif" font-size="10.00">VGP_Data_Exchange/C</text>
<text text-anchor="middle" x="64" y="-117" font-family="Helvetica,sans-Serif" font-size="10.00">/Colfer.c</text>
</a>
</g>
</g>
<!-- Node1&#45;&gt;Node2 -->
<g id="edge1_Node000001_Node000002" class="edge">
<title>Node1&#45;&gt;Node2</title>
<g id="a_edge1_Node000001_Node000002"><a xlink:title=" ">
<path fill="none" stroke="#63b8ff" d="M117.67,-169.48C105.86,-159.91 92.11,-148.77 81.48,-140.16"/>
<polygon fill="#63b8ff" stroke="#63b8ff" points="115.49,-172.22 125.47,-175.8 119.9,-166.78 115.49,-172.22"/>
</a>
</g>
</g>
<!-- Node3 -->
<g id="Node000003" class="node">
<title>Node3</title>
<g id="a_Node000003"><a xlink:href="executor_8hpp.html" target="_top" xlink:title=" ">
<polygon fill="white" stroke="#666666" points="300,-134.5 146,-134.5 146,-115.5 300,-115.5 300,-134.5"/>
<text text-anchor="middle" x="223" y="-122.5" font-family="Helvetica,sans-Serif" font-size="10.00">src/networking/executor.hpp</text>
</a>
</g>
</g>
<!-- Node1&#45;&gt;Node3 -->
<g id="edge2_Node000001_Node000003" class="edge">
<title>Node1&#45;&gt;Node3</title>
<g id="a_edge2_Node000001_Node000003"><a xlink:title=" ">
<path fill="none" stroke="#63b8ff" d="M168.93,-169.26C183.48,-157.61 200.89,-143.69 211.94,-134.84"/>
<polygon fill="#63b8ff" stroke="#63b8ff" points="166.38,-166.82 160.75,-175.8 170.75,-172.28 166.38,-166.82"/>
</a>
</g>
</g>
<!-- Node4 -->
<g id="Node000004" class="node">
<title>Node4</title>
<g id="a_Node000004"><a xlink:href="executor_8cpp.html" target="_top" xlink:title=" ">
<polygon fill="white" stroke="#666666" points="216.5,-74 63.5,-74 63.5,-55 216.5,-55 216.5,-74"/>
<text text-anchor="middle" x="140" y="-62" font-family="Helvetica,sans-Serif" font-size="10.00">src/networking/executor.cpp</text>
</a>
</g>
</g>
<!-- Node3&#45;&gt;Node4 -->
<g id="edge3_Node000003_Node000004" class="edge">
<title>Node3&#45;&gt;Node4</title>
<g id="a_edge3_Node000003_Node000004"><a xlink:title=" ">
<path fill="none" stroke="#63b8ff" d="M202.21,-109.35C186.49,-98.27 165.44,-83.43 152.3,-74.17"/>
<polygon fill="#63b8ff" stroke="#63b8ff" points="200.56,-112.47 210.75,-115.37 204.6,-106.75 200.56,-112.47"/>
</a>
</g>
</g>
<!-- Node5 -->
<g id="Node000005" class="node">
<title>Node5</title>
<g id="a_Node000005"><a xlink:href="server_8hpp.html" target="_top" xlink:title=" ">
<polygon fill="white" stroke="#666666" points="377.5,-74 234.5,-74 234.5,-55 377.5,-55 377.5,-74"/>
<text text-anchor="middle" x="306" y="-62" font-family="Helvetica,sans-Serif" font-size="10.00">src/networking/server.hpp</text>
</a>
</g>
</g>
<!-- Node3&#45;&gt;Node5 -->
<g id="edge4_Node000003_Node000005" class="edge">
<title>Node3&#45;&gt;Node5</title>
<g id="a_edge4_Node000003_Node000005"><a xlink:title=" ">
<path fill="none" stroke="#63b8ff" d="M243.79,-109.35C259.51,-98.27 280.56,-83.43 293.7,-74.17"/>
<polygon fill="#63b8ff" stroke="#63b8ff" points="241.4,-106.75 235.25,-115.37 245.44,-112.47 241.4,-106.75"/>
</a>
</g>
</g>
<!-- Node6 -->
<g id="Node000006" class="node">
<title>Node6</title>
<g id="a_Node000006"><a xlink:href="server_8cpp.html" target="_top" xlink:title=" ">
<polygon fill="white" stroke="#666666" points="302,-19 160,-19 160,0 302,0 302,-19"/>
<text text-anchor="middle" x="231" y="-7" font-family="Helvetica,sans-Serif" font-size="10.00">src/networking/server.cpp</text>
</a>
</g>
</g>
<!-- Node5&#45;&gt;Node6 -->
<g id="edge5_Node000005_Node000006" class="edge">
<title>Node5&#45;&gt;Node6</title>
<g id="a_edge5_Node000005_Node000006"><a xlink:title=" ">
<path fill="none" stroke="#63b8ff" d="M285.69,-49.15C272.14,-39.57 254.76,-27.29 243.27,-19.17"/>
<polygon fill="#63b8ff" stroke="#63b8ff" points="283.76,-52.07 293.95,-54.98 287.8,-46.36 283.76,-52.07"/>
</a>
</g>
</g>
<!-- Node7 -->
<g id="Node000007" class="node">
<title>Node7</title>
<g id="a_Node000007"><a xlink:href="mainmenu_8cpp.html" target="_top" xlink:title=" ">
<polygon fill="white" stroke="#666666" points="439.5,-19 320.5,-19 320.5,0 439.5,0 439.5,-19"/>
<text text-anchor="middle" x="380" y="-7" font-family="Helvetica,sans-Serif" font-size="10.00">src/ui/mainmenu.cpp</text>
</a>
</g>
</g>
<!-- Node5&#45;&gt;Node7 -->
<g id="edge6_Node000005_Node000007" class="edge">
<title>Node5&#45;&gt;Node7</title>
<g id="a_edge6_Node000005_Node000007"><a xlink:title=" ">
<path fill="none" stroke="#63b8ff" d="M326.03,-49.15C339.41,-39.57 356.56,-27.29 367.89,-19.17"/>
<polygon fill="#63b8ff" stroke="#63b8ff" points="323.98,-46.32 317.89,-54.98 328.06,-52.01 323.98,-46.32"/>
</a>
</g>
</g>
</g>
</svg>
