<?xml version="1.0" encoding="UTF-8" standalone="no"?>
<!DOCTYPE svg PUBLIC "-//W3C//DTD SVG 1.1//EN"
 "http://www.w3.org/Graphics/SVG/1.1/DTD/svg11.dtd">
<!-- Generated by graphviz version 2.43.0 (0)
 -->
<!-- Title: VGP_Data_Exchange/C/Colfer.h Pages: 1 -->
<svg width="385pt" height="159pt"
 viewBox="0.00 0.00 385.00 159.00" xmlns="http://www.w3.org/2000/svg" xmlns:xlink="http://www.w3.org/1999/xlink">
<g id="graph0" class="graph" transform="scale(1 1) rotate(0) translate(4 155)">
<title>VGP_Data_Exchange/C/Colfer.h</title>
<!-- Node1 -->
<g id="Node000001" class="node">
<title>Node1</title>
<g id="a_Node000001"><a xlink:title=" ">
<polygon fill="#999999" stroke="#666666" points="207,-151 79,-151 79,-121 207,-121 207,-151"/>
<text text-anchor="start" x="87" y="-139" font-family="Helvetica,sans-Serif" font-size="10.00">VGP_Data_Exchange/C</text>
<text text-anchor="middle" x="143" y="-128" font-family="Helvetica,sans-Serif" font-size="10.00">/Colfer.h</text>
</a>
</g>
</g>
<!-- Node2 -->
<g id="Node000002" class="node">
<title>Node2</title>
<g id="a_Node000002"><a xlink:href="Colfer_8c.html" target="_top" xlink:title=" ">
<polygon fill="white" stroke="#666666" points="128,-85 0,-85 0,-55 128,-55 128,-85"/>
<text text-anchor="start" x="8" y="-73" font-family="Helvetica,sans-Serif" font-size="10.00">VGP_Data_Exchange/C</text>
<text text-anchor="middle" x="64" y="-62" font-family="Helvetica,sans-Serif" font-size="10.00">/Colfer.c</text>
</a>
</g>
</g>
<!-- Node1&#45;&gt;Node2 -->
<g id="edge1_Node000001_Node000002" class="edge">
<title>Node1&#45;&gt;Node2</title>
<g id="a_edge1_Node000001_Node000002"><a xlink:title=" ">
<path fill="none" stroke="#63b8ff" d="M117.67,-114.48C105.86,-104.91 92.11,-93.77 81.48,-85.16"/>
<polygon fill="#63b8ff" stroke="#63b8ff" points="115.49,-117.22 125.47,-120.8 119.9,-111.78 115.49,-117.22"/>
</a>
</g>
</g>
<!-- Node3 -->
<g id="Node000003" class="node">
<title>Node3</title>
<g id="a_Node000003"><a xlink:href="executor_8hpp.html" target="_top" xlink:title=" ">
<polygon fill="white" stroke="#666666" points="300,-79.5 146,-79.5 146,-60.5 300,-60.5 300,-79.5"/>
<text text-anchor="middle" x="223" y="-67.5" font-family="Helvetica,sans-Serif" font-size="10.00">src/networking/executor.hpp</text>
</a>
</g>
</g>
<!-- Node1&#45;&gt;Node3 -->
<g id="edge2_Node000001_Node000003" class="edge">
<title>Node1&#45;&gt;Node3</title>
<g id="a_edge2_Node000001_Node000003"><a xlink:title=" ">
<path fill="none" stroke="#63b8ff" d="M168.93,-114.26C183.48,-102.61 200.89,-88.69 211.94,-79.84"/>
<polygon fill="#63b8ff" stroke="#63b8ff" points="166.38,-111.82 160.75,-120.8 170.75,-117.28 166.38,-111.82"/>
</a>
</g>
</g>
<!-- Node4 -->
<g id="Node000004" class="node">
<title>Node4</title>
<g id="a_Node000004"><a xlink:href="executor_8cpp.html" target="_top" xlink:title=" ">
<polygon fill="white" stroke="#666666" points="216.5,-19 63.5,-19 63.5,0 216.5,0 216.5,-19"/>
<text text-anchor="middle" x="140" y="-7" font-family="Helvetica,sans-Serif" font-size="10.00">src/networking/executor.cpp</text>
</a>
</g>
</g>
<!-- Node3&#45;&gt;Node4 -->
<g id="edge3_Node000003_Node000004" class="edge">
<title>Node3&#45;&gt;Node4</title>
<g id="a_edge3_Node000003_Node000004"><a xlink:title=" ">
<path fill="none" stroke="#63b8ff" d="M202.21,-54.35C186.49,-43.27 165.44,-28.43 152.3,-19.17"/>
<polygon fill="#63b8ff" stroke="#63b8ff" points="200.56,-57.47 210.75,-60.37 204.6,-51.75 200.56,-57.47"/>
</a>
</g>
</g>
<!-- Node5 -->
<g id="Node000005" class="node">
<title>Node5</title>
<g id="a_Node000005"><a xlink:href="server_8cpp.html" target="_top" xlink:title=" ">
<polygon fill="white" stroke="#666666" points="377,-19 235,-19 235,0 377,0 377,-19"/>
<text text-anchor="middle" x="306" y="-7" font-family="Helvetica,sans-Serif" font-size="10.00">src/networking/server.cpp</text>
</a>
</g>
</g>
<!-- Node3&#45;&gt;Node5 -->
<g id="edge4_Node000003_Node000005" class="edge">
<title>Node3&#45;&gt;Node5</title>
<g id="a_edge4_Node000003_Node000005"><a xlink:title=" ">
<path fill="none" stroke="#63b8ff" d="M243.79,-54.35C259.51,-43.27 280.56,-28.43 293.7,-19.17"/>
<polygon fill="#63b8ff" stroke="#63b8ff" points="241.4,-51.75 235.25,-60.37 245.44,-57.47 241.4,-51.75"/>
</a>
</g>
</g>
</g>
</svg>
