<?xml version="1.0" encoding="UTF-8" standalone="no"?>
<!DOCTYPE svg PUBLIC "-//W3C//DTD SVG 1.1//EN"
 "http://www.w3.org/Graphics/SVG/1.1/DTD/svg11.dtd">
<!-- Generated by graphviz version 2.43.0 (0)
 -->
<!-- Title: src Pages: 1 -->
<svg width="312pt" height="263pt"
 viewBox="0.00 0.00 311.50 263.00" xmlns="http://www.w3.org/2000/svg" xmlns:xlink="http://www.w3.org/1999/xlink">
<g id="graph0" class="graph" transform="scale(1 1) rotate(0) translate(4 259)">
<title>src</title>
<g id="clust1" class="cluster">
<title>clusterdir_68267d1309a1af8e8297ef4c3efbcdba</title>
<g id="a_clust1"><a xlink:href="dir_68267d1309a1af8e8297ef4c3efbcdba.html" target="_top">
<polygon fill="#daedff" stroke="#404040" stroke-width="2" points="8,-47 8,-247 166,-247 166,-47 8,-47"/>
</a>
</g>
</g>
<!-- dir_68267d1309a1af8e8297ef4c3efbcdba -->
<g id="node1" class="node">
<title>dir_68267d1309a1af8e8297ef4c3efbcdba</title>
<text text-anchor="middle" x="77" y="-227" font-family="Helvetica,sans-Serif" font-size="10.00">src</text>
</g>
<!-- dir_4b68c2fef3e151b6b93d5e93b14f1857 -->
<g id="node3" class="node">
<title>dir_4b68c2fef3e151b6b93d5e93b14f1857</title>
<g id="a_node3"><a xlink:href="dir_4b68c2fef3e151b6b93d5e93b14f1857.html" target="_top" xlink:title="platform">
<polygon fill="#4ea9ff" stroke="#404040" points="75.5,-184 16.5,-184 16.5,-165 75.5,-165 75.5,-184"/>
<text text-anchor="middle" x="46" y="-172" font-family="Helvetica,sans-Serif" font-size="10.00">platform</text>
</a>
</g>
</g>
<!-- dir_68267d1309a1af8e8297ef4c3efbcdba&#45;&gt;dir_4b68c2fef3e151b6b93d5e93b14f1857 -->
<g id="edge1" class="edge">
<title>dir_68267d1309a1af8e8297ef4c3efbcdba&#45;&gt;dir_4b68c2fef3e151b6b93d5e93b14f1857</title>
<g id="a_edge1"><a xlink:href="dir_000008_000004.html" target="_top">
<path fill="none" stroke="#63b8ff" d="M71.88,-219.75C67.64,-212.49 61.47,-201.95 56.22,-192.98"/>
<polygon fill="#63b8ff" stroke="#63b8ff" points="59.09,-190.95 51.02,-184.09 53.05,-194.49 59.09,-190.95"/>
</a>
</g>
<g id="a_edge1&#45;headlabel"><a xlink:href="dir_000008_000004.html" target="_top" xlink:title="1">
<text text-anchor="middle" x="63.36" y="-190.12" font-family="Helvetica,sans-Serif" font-size="10.00" fill="#63b8ff">1</text>
</a>
</g>
</g>
<!-- dir_da5c6b39c0a2f54e57df6799511cd3ab -->
<g id="node6" class="node">
<title>dir_da5c6b39c0a2f54e57df6799511cd3ab</title>
<g id="a_node6"><a xlink:href="dir_da5c6b39c0a2f54e57df6799511cd3ab.html" target="_top" xlink:title="ui">
<polygon fill="#4ea9ff" stroke="#404040" points="122.5,-184 93.5,-184 93.5,-165 122.5,-165 122.5,-184"/>
<text text-anchor="middle" x="108" y="-172" font-family="Helvetica,sans-Serif" font-size="10.00">ui</text>
</a>
</g>
</g>
<!-- dir_68267d1309a1af8e8297ef4c3efbcdba&#45;&gt;dir_da5c6b39c0a2f54e57df6799511cd3ab -->
<g id="edge2" class="edge">
<title>dir_68267d1309a1af8e8297ef4c3efbcdba&#45;&gt;dir_da5c6b39c0a2f54e57df6799511cd3ab</title>
<g id="a_edge2"><a xlink:href="dir_000008_000010.html" target="_top">
<path fill="none" stroke="#63b8ff" d="M82.12,-219.75C86.36,-212.49 92.53,-201.95 97.78,-192.98"/>
<polygon fill="#63b8ff" stroke="#63b8ff" points="100.95,-194.49 102.98,-184.09 94.91,-190.95 100.95,-194.49"/>
</a>
</g>
<g id="a_edge2&#45;headlabel"><a xlink:href="dir_000008_000010.html" target="_top" xlink:title="2">
<text text-anchor="middle" x="101.58" y="-196.52" font-family="Helvetica,sans-Serif" font-size="10.00" fill="#63b8ff">2</text>
</a>
</g>
</g>
<!-- dir_9af23f777b01ec74654e941bf6573352 -->
<g id="node2" class="node">
<title>dir_9af23f777b01ec74654e941bf6573352</title>
<g id="a_node2"><a xlink:href="dir_9af23f777b01ec74654e941bf6573352.html" target="_top" xlink:title="networking">
<polygon fill="#4ea9ff" stroke="#404040" points="157.5,-129 86.5,-129 86.5,-110 157.5,-110 157.5,-129"/>
<text text-anchor="middle" x="122" y="-117" font-family="Helvetica,sans-Serif" font-size="10.00">networking</text>
</a>
</g>
</g>
<!-- dir_ded1f21a39ae19e27d2bdf7bc3638045 -->
<g id="node4" class="node">
<title>dir_ded1f21a39ae19e27d2bdf7bc3638045</title>
<g id="a_node4"><a xlink:href="dir_ded1f21a39ae19e27d2bdf7bc3638045.html" target="_top" xlink:title="settings">
<polygon fill="#4ea9ff" stroke="#404040" points="72,-74 16,-74 16,-55 72,-55 72,-74"/>
<text text-anchor="middle" x="44" y="-62" font-family="Helvetica,sans-Serif" font-size="10.00">settings</text>
</a>
</g>
</g>
<!-- dir_9af23f777b01ec74654e941bf6573352&#45;&gt;dir_ded1f21a39ae19e27d2bdf7bc3638045 -->
<g id="edge5" class="edge">
<title>dir_9af23f777b01ec74654e941bf6573352&#45;&gt;dir_ded1f21a39ae19e27d2bdf7bc3638045</title>
<g id="a_edge5"><a xlink:href="dir_000003_000006.html" target="_top">
<path fill="none" stroke="#63b8ff" d="M109.47,-109.98C97.6,-101.92 79.54,-89.65 65.39,-80.03"/>
<polygon fill="#63b8ff" stroke="#63b8ff" points="67,-76.9 56.76,-74.17 63.06,-82.69 67,-76.9"/>
</a>
</g>
<g id="a_edge5&#45;headlabel"><a xlink:href="dir_000003_000006.html" target="_top" xlink:title="4">
<text text-anchor="middle" x="71.57" y="-74.07" font-family="Helvetica,sans-Serif" font-size="10.00" fill="#63b8ff">4</text>
</a>
</g>
</g>
<!-- dir_d73d1ee04cc237a5854777ea99c55872 -->
<g id="node5" class="node">
<title>dir_d73d1ee04cc237a5854777ea99c55872</title>
<g id="a_node5"><a xlink:href="dir_d73d1ee04cc237a5854777ea99c55872.html" target="_top" xlink:title="simulation">
<polygon fill="#4ea9ff" stroke="#404040" points="158,-74 90,-74 90,-55 158,-55 158,-74"/>
<text text-anchor="middle" x="124" y="-62" font-family="Helvetica,sans-Serif" font-size="10.00">simulation</text>
</a>
</g>
</g>
<!-- dir_9af23f777b01ec74654e941bf6573352&#45;&gt;dir_d73d1ee04cc237a5854777ea99c55872 -->
<g id="edge4" class="edge">
<title>dir_9af23f777b01ec74654e941bf6573352&#45;&gt;dir_d73d1ee04cc237a5854777ea99c55872</title>
<g id="a_edge4"><a xlink:href="dir_000003_000007.html" target="_top">
<path fill="none" stroke="#63b8ff" d="M122.33,-109.75C122.59,-102.8 122.97,-92.85 123.3,-84.13"/>
<polygon fill="#63b8ff" stroke="#63b8ff" points="126.8,-84.21 123.68,-74.09 119.8,-83.95 126.8,-84.21"/>
</a>
</g>
<g id="a_edge4&#45;headlabel"><a xlink:href="dir_000003_000007.html" target="_top" xlink:title="6">
<text text-anchor="middle" x="129.5" y="-85.41" font-family="Helvetica,sans-Serif" font-size="10.00" fill="#63b8ff">6</text>
</a>
</g>
</g>
<!-- dir_288dcfe0738221981ecb1210c37ec02c -->
<g id="node7" class="node">
<title>dir_288dcfe0738221981ecb1210c37ec02c</title>
<g id="a_node7"><a xlink:href="dir_288dcfe0738221981ecb1210c37ec02c.html" target="_top" xlink:title="VGP_Data_Exchange">
<polygon fill="#daedff" stroke="red" points="174,-19 56,-19 56,0 174,0 174,-19"/>
<text text-anchor="middle" x="115" y="-7" font-family="Helvetica,sans-Serif" font-size="10.00">VGP_Data_Exchange</text>
</a>
</g>
</g>
<!-- dir_9af23f777b01ec74654e941bf6573352&#45;&gt;dir_288dcfe0738221981ecb1210c37ec02c -->
<g id="edge3" class="edge">
<title>dir_9af23f777b01ec74654e941bf6573352&#45;&gt;dir_288dcfe0738221981ecb1210c37ec02c</title>
<g id="a_edge3"><a xlink:href="dir_000003_000011.html" target="_top">
<path fill="none" stroke="#63b8ff" d="M135.49,-109.75C146.29,-101.87 160.65,-89.21 167,-74 171.62,-62.93 172.53,-57.65 167,-47 162.04,-37.46 153.32,-29.89 144.41,-24.18"/>
<polygon fill="#63b8ff" stroke="#63b8ff" points="145.99,-21.05 135.58,-19.08 142.49,-27.11 145.99,-21.05"/>
</a>
</g>
<g id="a_edge3&#45;headlabel"><a xlink:href="dir_000003_000011.html" target="_top" xlink:title="1">
<text text-anchor="middle" x="150.53" y="-17.89" font-family="Helvetica,sans-Serif" font-size="10.00" fill="#63b8ff">1</text>
</a>
</g>
</g>
<!-- dir_e546adb800d694418bf7df99bb29b898 -->
<g id="node8" class="node">
<title>dir_e546adb800d694418bf7df99bb29b898</title>
<g id="a_node8"><a xlink:href="dir_e546adb800d694418bf7df99bb29b898.html" target="_top" xlink:title="third&#45;party&#45;libs">
<polygon fill="#daedff" stroke="red" points="303.5,-74 214.5,-74 214.5,-55 303.5,-55 303.5,-74"/>
<text text-anchor="middle" x="259" y="-62" font-family="Helvetica,sans-Serif" font-size="10.00">third&#45;party&#45;libs</text>
</a>
</g>
</g>
<!-- dir_9af23f777b01ec74654e941bf6573352&#45;&gt;dir_e546adb800d694418bf7df99bb29b898 -->
<g id="edge6" class="edge">
<title>dir_9af23f777b01ec74654e941bf6573352&#45;&gt;dir_e546adb800d694418bf7df99bb29b898</title>
<g id="a_edge6"><a xlink:href="dir_000003_000009.html" target="_top">
<path fill="none" stroke="#63b8ff" d="M144.01,-109.98C166.45,-101.3 201.48,-87.75 226.99,-77.88"/>
<polygon fill="#63b8ff" stroke="#63b8ff" points="228.52,-81.04 236.59,-74.17 226,-74.51 228.52,-81.04"/>
</a>
</g>
<g id="a_edge6&#45;headlabel"><a xlink:href="dir_000003_000009.html" target="_top" xlink:title="1">
<text text-anchor="middle" x="226.2" y="-82.49" font-family="Helvetica,sans-Serif" font-size="10.00" fill="#63b8ff">1</text>
</a>
</g>
</g>
<!-- dir_ded1f21a39ae19e27d2bdf7bc3638045&#45;&gt;dir_da5c6b39c0a2f54e57df6799511cd3ab -->
<g id="edge8" class="edge">
<title>dir_ded1f21a39ae19e27d2bdf7bc3638045&#45;&gt;dir_da5c6b39c0a2f54e57df6799511cd3ab</title>
<g id="a_edge8"><a xlink:href="dir_000006_000010.html" target="_top">
<path fill="none" stroke="#63b8ff" d="M54.32,-74.28C63.56,-86.68 75.51,-109.94 87,-129 92.47,-138.08 99,-147.87 103.78,-155.96"/>
<polygon fill="#63b8ff" stroke="#63b8ff" points="100.73,-157.67 108.56,-164.81 106.89,-154.34 100.73,-157.67"/>
</a>
</g>
<g id="a_edge8&#45;headlabel"><a xlink:href="dir_000006_000010.html" target="_top" xlink:title="1">
<text text-anchor="middle" x="96.52" y="-153.35" font-family="Helvetica,sans-Serif" font-size="10.00" fill="#63b8ff">1</text>
</a>
</g>
</g>
<!-- dir_ded1f21a39ae19e27d2bdf7bc3638045&#45;&gt;dir_288dcfe0738221981ecb1210c37ec02c -->
<g id="edge7" class="edge">
<title>dir_ded1f21a39ae19e27d2bdf7bc3638045&#45;&gt;dir_288dcfe0738221981ecb1210c37ec02c</title>
<g id="a_edge7"><a xlink:href="dir_000006_000011.html" target="_top">
<path fill="none" stroke="#63b8ff" d="M55.41,-54.98C66.11,-47 82.34,-34.88 95.16,-25.31"/>
<polygon fill="#63b8ff" stroke="#63b8ff" points="97.47,-27.96 103.39,-19.17 93.28,-22.35 97.47,-27.96"/>
</a>
</g>
<g id="a_edge7&#45;headlabel"><a xlink:href="dir_000006_000011.html" target="_top" xlink:title="2">
<text text-anchor="middle" x="96.28" y="-29.88" font-family="Helvetica,sans-Serif" font-size="10.00" fill="#63b8ff">2</text>
</a>
</g>
</g>
<!-- dir_da5c6b39c0a2f54e57df6799511cd3ab&#45;&gt;dir_9af23f777b01ec74654e941bf6573352 -->
<g id="edge9" class="edge">
<title>dir_da5c6b39c0a2f54e57df6799511cd3ab&#45;&gt;dir_9af23f777b01ec74654e941bf6573352</title>
<g id="a_edge9"><a xlink:href="dir_000010_000003.html" target="_top">
<path fill="none" stroke="#63b8ff" d="M110.31,-164.75C112.17,-157.72 114.84,-147.62 117.15,-138.84"/>
<polygon fill="#63b8ff" stroke="#63b8ff" points="120.56,-139.65 119.73,-129.09 113.79,-137.86 120.56,-139.65"/>
</a>
</g>
<g id="a_edge9&#45;headlabel"><a xlink:href="dir_000010_000003.html" target="_top" xlink:title="1">
<text text-anchor="middle" x="122.39" y="-141.35" font-family="Helvetica,sans-Serif" font-size="10.00" fill="#63b8ff">1</text>
</a>
</g>
</g>
<!-- dir_da5c6b39c0a2f54e57df6799511cd3ab&#45;&gt;dir_ded1f21a39ae19e27d2bdf7bc3638045 -->
<g id="edge10" class="edge">
<title>dir_da5c6b39c0a2f54e57df6799511cd3ab&#45;&gt;dir_ded1f21a39ae19e27d2bdf7bc3638045</title>
<g id="a_edge10"><a xlink:href="dir_000010_000006.html" target="_top">
<path fill="none" stroke="#63b8ff" d="M94.95,-164.81C86.49,-155.96 76.7,-141.77 69,-129 60.02,-114.11 50.77,-96.66 45.63,-83.82"/>
<polygon fill="#63b8ff" stroke="#63b8ff" points="48.91,-82.62 42.37,-74.28 42.29,-84.88 48.91,-82.62"/>
</a>
</g>
<g id="a_edge10&#45;headlabel"><a xlink:href="dir_000010_000006.html" target="_top" xlink:title="5">
<text text-anchor="middle" x="52.76" y="-82.6" font-family="Helvetica,sans-Serif" font-size="10.00" fill="#63b8ff">5</text>
</a>
</g>
</g>
</g>
</svg>
