<?xml version="1.0" encoding="UTF-8" standalone="no"?>
<!DOCTYPE svg PUBLIC "-//W3C//DTD SVG 1.1//EN"
 "http://www.w3.org/Graphics/SVG/1.1/DTD/svg11.dtd">
<!-- Generated by graphviz version 2.43.0 (0)
 -->
<!-- Title: src/networking/executor.cpp Pages: 1 -->
<svg width="1239pt" height="280pt"
 viewBox="0.00 0.00 1239.00 280.00" xmlns="http://www.w3.org/2000/svg" xmlns:xlink="http://www.w3.org/1999/xlink">
<g id="graph0" class="graph" transform="scale(1 1) rotate(0) translate(4 276)">
<title>src/networking/executor.cpp</title>
<!-- Node1 -->
<g id="Node000001" class="node">
<title>Node1</title>
<g id="a_Node000001"><a xlink:title=" ">
<polygon fill="#999999" stroke="#666666" points="865,-272 712,-272 712,-253 865,-253 865,-272"/>
<text text-anchor="middle" x="788.5" y="-260" font-family="Helvetica,sans-Serif" font-size="10.00">src/networking/executor.cpp</text>
</a>
</g>
</g>
<!-- Node2 -->
<g id="Node000002" class="node">
<title>Node2</title>
<g id="a_Node000002"><a xlink:href="executor_8hpp.html" target="_top" xlink:title=" ">
<polygon fill="white" stroke="#666666" points="389,-211.5 310,-211.5 310,-192.5 389,-192.5 389,-211.5"/>
<text text-anchor="middle" x="349.5" y="-199.5" font-family="Helvetica,sans-Serif" font-size="10.00">executor.hpp</text>
</a>
</g>
</g>
<!-- Node1&#45;&gt;Node2 -->
<g id="edge1_Node000001_Node000002" class="edge">
<title>Node1&#45;&gt;Node2</title>
<g id="a_edge1_Node000001_Node000002"><a xlink:title=" ">
<path fill="none" stroke="#63b8ff" d="M724.67,-252.99C636.59,-241.26 479.62,-220.34 399.52,-209.67"/>
<polygon fill="#63b8ff" stroke="#63b8ff" points="399.58,-206.14 389.21,-208.29 398.66,-213.08 399.58,-206.14"/>
</a>
</g>
</g>
<!-- Node8 -->
<g id="Node000008" class="node">
<title>Node8</title>
<g id="a_Node000008"><a xlink:href="keyboardSim_8hpp.html" target="_top" xlink:title="Simulates keyboard input in Windows.">
<polygon fill="white" stroke="#666666" points="145,-85 44,-85 44,-66 145,-66 145,-85"/>
<text text-anchor="middle" x="94.5" y="-73" font-family="Helvetica,sans-Serif" font-size="10.00">keyboardSim.hpp</text>
</a>
</g>
</g>
<!-- Node1&#45;&gt;Node8 -->
<g id="edge37_Node000001_Node000008" class="edge">
<title>Node1&#45;&gt;Node8</title>
<g id="a_edge37_Node000001_Node000008"><a xlink:title=" ">
<path fill="none" stroke="#63b8ff" d="M711.79,-260.38C610.48,-257.65 426.93,-248.38 273.5,-217 181.38,-198.16 127.65,-227.15 72.5,-151 60.07,-133.83 71.19,-109.67 81.63,-93.57"/>
<polygon fill="#63b8ff" stroke="#63b8ff" points="84.67,-95.33 87.52,-85.13 78.93,-91.33 84.67,-95.33"/>
</a>
</g>
</g>
<!-- Node10 -->
<g id="Node000010" class="node">
<title>Node10</title>
<g id="a_Node000010"><a xlink:title=" ">
<polygon fill="#e0e0e0" stroke="#999999" points="47,-24.5 0,-24.5 0,-5.5 47,-5.5 47,-24.5"/>
<text text-anchor="middle" x="23.5" y="-12.5" font-family="Helvetica,sans-Serif" font-size="10.00">vector</text>
</a>
</g>
</g>
<!-- Node1&#45;&gt;Node10 -->
<g id="edge42_Node000001_Node000010" class="edge">
<title>Node1&#45;&gt;Node10</title>
<g id="a_edge42_Node000001_Node000010"><a xlink:title=" ">
<path fill="none" stroke="#63b8ff" d="M711.93,-260.3C544.75,-257.13 157.84,-246.66 106.5,-217 40.92,-179.11 27.15,-77.17 24.27,-34.84"/>
<polygon fill="#63b8ff" stroke="#63b8ff" points="27.76,-34.58 23.71,-24.79 20.77,-34.97 27.76,-34.58"/>
</a>
</g>
</g>
<!-- Node12 -->
<g id="Node000012" class="node">
<title>Node12</title>
<g id="a_Node000012"><a xlink:href="mouseSim_8hpp.html" target="_top" xlink:title="Simulates mouse input in Windows.">
<polygon fill="white" stroke="#666666" points="252,-85 163,-85 163,-66 252,-66 252,-85"/>
<text text-anchor="middle" x="207.5" y="-73" font-family="Helvetica,sans-Serif" font-size="10.00">mouseSim.hpp</text>
</a>
</g>
</g>
<!-- Node1&#45;&gt;Node12 -->
<g id="edge38_Node000001_Node000012" class="edge">
<title>Node1&#45;&gt;Node12</title>
<g id="a_edge38_Node000001_Node000012"><a xlink:title=" ">
<path fill="none" stroke="#63b8ff" d="M711.99,-262.39C592.67,-262.48 368.92,-257.06 301.5,-217 289.05,-209.6 239.89,-130.04 218.05,-94.03"/>
<polygon fill="#63b8ff" stroke="#63b8ff" points="220.84,-91.87 212.67,-85.13 214.85,-95.49 220.84,-91.87"/>
</a>
</g>
</g>
<!-- Node13 -->
<g id="Node000013" class="node">
<title>Node13</title>
<g id="a_Node000013"><a xlink:href="input__types_8hpp.html" target="_top" xlink:title=" ">
<polygon fill="white" stroke="#666666" points="1059.5,-85 913.5,-85 913.5,-66 1059.5,-66 1059.5,-85"/>
<text text-anchor="middle" x="986.5" y="-73" font-family="Helvetica,sans-Serif" font-size="10.00">../settings/input_types.hpp</text>
</a>
</g>
</g>
<!-- Node1&#45;&gt;Node13 -->
<g id="edge13_Node000001_Node000013" class="edge">
<title>Node1&#45;&gt;Node13</title>
<g id="a_edge13_Node000001_Node000013"><a xlink:title=" ">
<path fill="none" stroke="#63b8ff" d="M818.73,-252.93C880.47,-234.75 1017.42,-190.73 1043.5,-151 1050.82,-139.85 1049.35,-132.98 1043.5,-121 1037.2,-108.09 1025.15,-97.83 1013.74,-90.43"/>
<polygon fill="#63b8ff" stroke="#63b8ff" points="1015.23,-87.25 1004.85,-85.12 1011.64,-93.25 1015.23,-87.25"/>
</a>
</g>
</g>
<!-- Node17 -->
<g id="Node000017" class="node">
<title>Node17</title>
<g id="a_Node000017"><a xlink:href="settings__singleton_8hpp.html" target="_top" xlink:title=" ">
<polygon fill="white" stroke="#666666" points="842,-217 735,-217 735,-187 842,-187 842,-217"/>
<text text-anchor="start" x="743" y="-205" font-family="Helvetica,sans-Serif" font-size="10.00">../settings/settings</text>
<text text-anchor="middle" x="788.5" y="-194" font-family="Helvetica,sans-Serif" font-size="10.00">_singleton.hpp</text>
</a>
</g>
</g>
<!-- Node1&#45;&gt;Node17 -->
<g id="edge17_Node000001_Node000017" class="edge">
<title>Node1&#45;&gt;Node17</title>
<g id="a_edge17_Node000001_Node000017"><a xlink:title=" ">
<path fill="none" stroke="#63b8ff" d="M788.5,-252.87C788.5,-246.11 788.5,-236.35 788.5,-227.26"/>
<polygon fill="#63b8ff" stroke="#63b8ff" points="792,-227.11 788.5,-217.11 785,-227.11 792,-227.11"/>
</a>
</g>
</g>
<!-- Node28 -->
<g id="Node000028" class="node">
<title>Node28</title>
<g id="a_Node000028"><a xlink:title=" ">
<polygon fill="#e0e0e0" stroke="#999999" points="1083,-211.5 1004,-211.5 1004,-192.5 1083,-192.5 1083,-211.5"/>
<text text-anchor="middle" x="1043.5" y="-199.5" font-family="Helvetica,sans-Serif" font-size="10.00">QApplication</text>
</a>
</g>
</g>
<!-- Node1&#45;&gt;Node28 -->
<g id="edge39_Node000001_Node000028" class="edge">
<title>Node1&#45;&gt;Node28</title>
<g id="a_edge39_Node000001_Node000028"><a xlink:title=" ">
<path fill="none" stroke="#63b8ff" d="M829.02,-252.97C869.69,-244.31 934.07,-230.32 989.5,-217 993.36,-216.07 997.37,-215.08 1001.39,-214.07"/>
<polygon fill="#63b8ff" stroke="#63b8ff" points="1002.45,-217.41 1011.28,-211.55 1000.73,-210.63 1002.45,-217.41"/>
</a>
</g>
</g>
<!-- Node29 -->
<g id="Node000029" class="node">
<title>Node29</title>
<g id="a_Node000029"><a xlink:title=" ">
<polygon fill="#e0e0e0" stroke="#999999" points="1165.5,-211.5 1101.5,-211.5 1101.5,-192.5 1165.5,-192.5 1165.5,-211.5"/>
<text text-anchor="middle" x="1133.5" y="-199.5" font-family="Helvetica,sans-Serif" font-size="10.00">algorithm</text>
</a>
</g>
</g>
<!-- Node1&#45;&gt;Node29 -->
<g id="edge40_Node000001_Node000029" class="edge">
<title>Node1&#45;&gt;Node29</title>
<g id="a_edge40_Node000001_Node000029"><a xlink:title=" ">
<path fill="none" stroke="#63b8ff" d="M865.14,-254.22C927.06,-247.4 1016.16,-235.46 1092.5,-217 1095.31,-216.32 1098.2,-215.53 1101.08,-214.68"/>
<polygon fill="#63b8ff" stroke="#63b8ff" points="1102.27,-217.97 1110.73,-211.6 1100.14,-211.3 1102.27,-217.97"/>
</a>
</g>
</g>
<!-- Node30 -->
<g id="Node000030" class="node">
<title>Node30</title>
<g id="a_Node000030"><a xlink:title=" ">
<polygon fill="#e0e0e0" stroke="#999999" points="1231,-211.5 1184,-211.5 1184,-192.5 1231,-192.5 1231,-211.5"/>
<text text-anchor="middle" x="1207.5" y="-199.5" font-family="Helvetica,sans-Serif" font-size="10.00">cmath</text>
</a>
</g>
</g>
<!-- Node1&#45;&gt;Node30 -->
<g id="edge41_Node000001_Node000030" class="edge">
<title>Node1&#45;&gt;Node30</title>
<g id="a_edge41_Node000001_Node000030"><a xlink:title=" ">
<path fill="none" stroke="#63b8ff" d="M865.13,-259.11C943.89,-255.17 1069.49,-244.71 1174.5,-217 1176.44,-216.49 1178.42,-215.88 1180.39,-215.22"/>
<polygon fill="#63b8ff" stroke="#63b8ff" points="1181.94,-218.37 1190.02,-211.52 1179.43,-211.84 1181.94,-218.37"/>
</a>
</g>
</g>
<!-- Node3 -->
<g id="Node000003" class="node">
<title>Node3</title>
<g id="a_Node000003"><a xlink:href="Colfer_8h.html" target="_top" xlink:title=" ">
<polygon fill="white" stroke="#666666" points="417.5,-151 281.5,-151 281.5,-121 417.5,-121 417.5,-151"/>
<text text-anchor="start" x="289.5" y="-139" font-family="Helvetica,sans-Serif" font-size="10.00">../../VGP_Data_Exchange</text>
<text text-anchor="middle" x="349.5" y="-128" font-family="Helvetica,sans-Serif" font-size="10.00">/C/Colfer.h</text>
</a>
</g>
</g>
<!-- Node2&#45;&gt;Node3 -->
<g id="edge2_Node000002_Node000003" class="edge">
<title>Node2&#45;&gt;Node3</title>
<g id="a_edge2_Node000002_Node000003"><a xlink:title=" ">
<path fill="none" stroke="#63b8ff" d="M349.5,-192.37C349.5,-184.49 349.5,-172.45 349.5,-161.6"/>
<polygon fill="#63b8ff" stroke="#63b8ff" points="353,-161.36 349.5,-151.36 346,-161.36 353,-161.36"/>
</a>
</g>
</g>
<!-- Node7 -->
<g id="Node000007" class="node">
<title>Node7</title>
<g id="a_Node000007"><a xlink:href="simulate_8hpp.html" target="_top" xlink:title=" ">
<polygon fill="white" stroke="#666666" points="225.5,-145.5 81.5,-145.5 81.5,-126.5 225.5,-126.5 225.5,-145.5"/>
<text text-anchor="middle" x="153.5" y="-133.5" font-family="Helvetica,sans-Serif" font-size="10.00">../simulation/simulate.hpp</text>
</a>
</g>
</g>
<!-- Node2&#45;&gt;Node7 -->
<g id="edge6_Node000002_Node000007" class="edge">
<title>Node2&#45;&gt;Node7</title>
<g id="a_edge6_Node000002_Node000007"><a xlink:title=" ">
<path fill="none" stroke="#63b8ff" d="M323.07,-192.37C288.63,-181.12 228.28,-161.42 189.63,-148.8"/>
<polygon fill="#63b8ff" stroke="#63b8ff" points="190.42,-145.37 179.83,-145.6 188.25,-152.03 190.42,-145.37"/>
</a>
</g>
</g>
<!-- Node4 -->
<g id="Node000004" class="node">
<title>Node4</title>
<g id="a_Node000004"><a xlink:title=" ">
<polygon fill="#e0e0e0" stroke="#999999" points="323,-85 270,-85 270,-66 323,-66 323,-85"/>
<text text-anchor="middle" x="296.5" y="-73" font-family="Helvetica,sans-Serif" font-size="10.00">limits.h</text>
</a>
</g>
</g>
<!-- Node3&#45;&gt;Node4 -->
<g id="edge3_Node000003_Node000004" class="edge">
<title>Node3&#45;&gt;Node4</title>
<g id="a_edge3_Node000003_Node000004"><a xlink:title=" ">
<path fill="none" stroke="#63b8ff" d="M336.67,-120.84C328.98,-112.35 319.17,-101.52 311.17,-92.69"/>
<polygon fill="#63b8ff" stroke="#63b8ff" points="313.75,-90.33 304.44,-85.27 308.56,-95.03 313.75,-90.33"/>
</a>
</g>
</g>
<!-- Node5 -->
<g id="Node000005" class="node">
<title>Node5</title>
<g id="a_Node000005"><a xlink:title=" ">
<polygon fill="#e0e0e0" stroke="#999999" points="394,-85 341,-85 341,-66 394,-66 394,-85"/>
<text text-anchor="middle" x="367.5" y="-73" font-family="Helvetica,sans-Serif" font-size="10.00">stdint.h</text>
</a>
</g>
</g>
<!-- Node3&#45;&gt;Node5 -->
<g id="edge4_Node000003_Node000005" class="edge">
<title>Node3&#45;&gt;Node5</title>
<g id="a_edge4_Node000003_Node000005"><a xlink:title=" ">
<path fill="none" stroke="#63b8ff" d="M353.86,-120.84C356.26,-113.04 359.26,-103.27 361.84,-94.89"/>
<polygon fill="#63b8ff" stroke="#63b8ff" points="365.21,-95.85 364.8,-85.27 358.52,-93.79 365.21,-95.85"/>
</a>
</g>
</g>
<!-- Node6 -->
<g id="Node000006" class="node">
<title>Node6</title>
<g id="a_Node000006"><a xlink:title=" ">
<polygon fill="#e0e0e0" stroke="#999999" points="465,-85 412,-85 412,-66 465,-66 465,-85"/>
<text text-anchor="middle" x="438.5" y="-73" font-family="Helvetica,sans-Serif" font-size="10.00">string.h</text>
</a>
</g>
</g>
<!-- Node3&#45;&gt;Node6 -->
<g id="edge5_Node000003_Node000006" class="edge">
<title>Node3&#45;&gt;Node6</title>
<g id="a_edge5_Node000003_Node000006"><a xlink:title=" ">
<path fill="none" stroke="#63b8ff" d="M371.04,-120.84C384.97,-111.68 403.03,-99.82 416.95,-90.66"/>
<polygon fill="#63b8ff" stroke="#63b8ff" points="418.99,-93.51 425.42,-85.09 415.15,-87.66 418.99,-93.51"/>
</a>
</g>
</g>
<!-- Node7&#45;&gt;Node8 -->
<g id="edge7_Node000007_Node000008" class="edge">
<title>Node7&#45;&gt;Node8</title>
<g id="a_edge7_Node000007_Node000008"><a xlink:title=" ">
<path fill="none" stroke="#63b8ff" d="M144.79,-126.37C135.82,-117.47 121.62,-103.39 110.59,-92.45"/>
<polygon fill="#63b8ff" stroke="#63b8ff" points="112.81,-89.72 103.24,-85.17 107.88,-94.69 112.81,-89.72"/>
</a>
</g>
</g>
<!-- Node7&#45;&gt;Node12 -->
<g id="edge11_Node000007_Node000012" class="edge">
<title>Node7&#45;&gt;Node12</title>
<g id="a_edge11_Node000007_Node000012"><a xlink:title=" ">
<path fill="none" stroke="#63b8ff" d="M161.47,-126.37C169.6,-117.55 182.43,-103.66 192.48,-92.77"/>
<polygon fill="#63b8ff" stroke="#63b8ff" points="195.29,-94.89 199.5,-85.17 190.14,-90.14 195.29,-94.89"/>
</a>
</g>
</g>
<!-- Node9 -->
<g id="Node000009" class="node">
<title>Node9</title>
<g id="a_Node000009"><a xlink:title=" ">
<polygon fill="#e0e0e0" stroke="#999999" points="116.5,-24.5 72.5,-24.5 72.5,-5.5 116.5,-5.5 116.5,-24.5"/>
<text text-anchor="middle" x="94.5" y="-12.5" font-family="Helvetica,sans-Serif" font-size="10.00">string</text>
</a>
</g>
</g>
<!-- Node8&#45;&gt;Node9 -->
<g id="edge8_Node000008_Node000009" class="edge">
<title>Node8&#45;&gt;Node9</title>
<g id="a_edge8_Node000008_Node000009"><a xlink:title=" ">
<path fill="none" stroke="#63b8ff" d="M94.5,-65.87C94.5,-57.75 94.5,-45.31 94.5,-34.89"/>
<polygon fill="#63b8ff" stroke="#63b8ff" points="98,-34.67 94.5,-24.67 91,-34.67 98,-34.67"/>
</a>
</g>
</g>
<!-- Node8&#45;&gt;Node10 -->
<g id="edge9_Node000008_Node000010" class="edge">
<title>Node8&#45;&gt;Node10</title>
<g id="a_edge9_Node000008_Node000010"><a xlink:title=" ">
<path fill="none" stroke="#63b8ff" d="M84.02,-65.87C73.01,-56.8 55.46,-42.34 42.09,-31.32"/>
<polygon fill="#63b8ff" stroke="#63b8ff" points="43.96,-28.33 34.02,-24.67 39.51,-33.73 43.96,-28.33"/>
</a>
</g>
</g>
<!-- Node11 -->
<g id="Node000011" class="node">
<title>Node11</title>
<g id="a_Node000011"><a xlink:title=" ">
<polygon fill="#e0e0e0" stroke="#999999" points="241.5,-24.5 173.5,-24.5 173.5,-5.5 241.5,-5.5 241.5,-24.5"/>
<text text-anchor="middle" x="207.5" y="-12.5" font-family="Helvetica,sans-Serif" font-size="10.00">windows.h</text>
</a>
</g>
</g>
<!-- Node8&#45;&gt;Node11 -->
<g id="edge10_Node000008_Node000011" class="edge">
<title>Node8&#45;&gt;Node11</title>
<g id="a_edge10_Node000008_Node000011"><a xlink:title=" ">
<path fill="none" stroke="#63b8ff" d="M111.17,-65.87C129.78,-56.23 160.12,-40.53 181.78,-29.31"/>
<polygon fill="#63b8ff" stroke="#63b8ff" points="183.49,-32.37 190.76,-24.67 180.27,-26.16 183.49,-32.37"/>
</a>
</g>
</g>
<!-- Node12&#45;&gt;Node11 -->
<g id="edge12_Node000012_Node000011" class="edge">
<title>Node12&#45;&gt;Node11</title>
<g id="a_edge12_Node000012_Node000011"><a xlink:title=" ">
<path fill="none" stroke="#63b8ff" d="M207.5,-65.87C207.5,-57.75 207.5,-45.31 207.5,-34.89"/>
<polygon fill="#63b8ff" stroke="#63b8ff" points="211,-34.67 207.5,-24.67 204,-34.67 211,-34.67"/>
</a>
</g>
</g>
<!-- Node14 -->
<g id="Node000014" class="node">
<title>Node14</title>
<g id="a_Node000014"><a xlink:href="GameButtons_8h.html" target="_top" xlink:title=" ">
<polygon fill="white" stroke="#666666" points="1168.5,-30 1032.5,-30 1032.5,0 1168.5,0 1168.5,-30"/>
<text text-anchor="start" x="1040.5" y="-18" font-family="Helvetica,sans-Serif" font-size="10.00">../../VGP_Data_Exchange</text>
<text text-anchor="middle" x="1100.5" y="-7" font-family="Helvetica,sans-Serif" font-size="10.00">/C/GameButtons.h</text>
</a>
</g>
</g>
<!-- Node13&#45;&gt;Node14 -->
<g id="edge14_Node000013_Node000014" class="edge">
<title>Node13&#45;&gt;Node14</title>
<g id="a_edge14_Node000013_Node000014"><a xlink:title=" ">
<path fill="none" stroke="#63b8ff" d="M1003.32,-65.87C1019.22,-57.71 1043.6,-45.2 1063.97,-34.75"/>
<polygon fill="#63b8ff" stroke="#63b8ff" points="1065.7,-37.79 1072.99,-30.11 1062.5,-31.57 1065.7,-37.79"/>
</a>
</g>
</g>
<!-- Node15 -->
<g id="Node000015" class="node">
<title>Node15</title>
<g id="a_Node000015"><a xlink:title=" ">
<polygon fill="#e0e0e0" stroke="#999999" points="853,-24.5 776,-24.5 776,-5.5 853,-5.5 853,-24.5"/>
<text text-anchor="middle" x="814.5" y="-12.5" font-family="Helvetica,sans-Serif" font-size="10.00">minwindef.h</text>
</a>
</g>
</g>
<!-- Node13&#45;&gt;Node15 -->
<g id="edge15_Node000013_Node000015" class="edge">
<title>Node13&#45;&gt;Node15</title>
<g id="a_edge15_Node000013_Node000015"><a xlink:title=" ">
<path fill="none" stroke="#63b8ff" d="M961.49,-65.99C931.94,-55.94 882.59,-39.16 849.31,-27.84"/>
<polygon fill="#63b8ff" stroke="#63b8ff" points="850.13,-24.42 839.54,-24.52 847.88,-31.05 850.13,-24.42"/>
</a>
</g>
</g>
<!-- Node16 -->
<g id="Node000016" class="node">
<title>Node16</title>
<g id="a_Node000016"><a xlink:title=" ">
<polygon fill="#e0e0e0" stroke="#999999" points="1014,-24.5 955,-24.5 955,-5.5 1014,-5.5 1014,-24.5"/>
<text text-anchor="middle" x="984.5" y="-12.5" font-family="Helvetica,sans-Serif" font-size="10.00">qtypes.h</text>
</a>
</g>
</g>
<!-- Node13&#45;&gt;Node16 -->
<g id="edge16_Node000013_Node000016" class="edge">
<title>Node13&#45;&gt;Node16</title>
<g id="a_edge16_Node000013_Node000016"><a xlink:title=" ">
<path fill="none" stroke="#63b8ff" d="M986.2,-65.87C985.93,-57.75 985.5,-45.31 985.15,-34.89"/>
<polygon fill="#63b8ff" stroke="#63b8ff" points="988.64,-34.54 984.8,-24.67 981.64,-34.78 988.64,-34.54"/>
</a>
</g>
</g>
<!-- Node17&#45;&gt;Node11 -->
<g id="edge36_Node000017_Node000011" class="edge">
<title>Node17&#45;&gt;Node11</title>
<g id="a_edge36_Node000017_Node000011"><a xlink:title=" ">
<path fill="none" stroke="#63b8ff" d="M734.99,-195.92C689.7,-189.95 624.12,-177.29 572.5,-151 521.12,-124.84 526.42,-91.07 474.5,-66 401.69,-30.85 306.64,-20.35 251.81,-17.26"/>
<polygon fill="#63b8ff" stroke="#63b8ff" points="251.89,-13.75 241.72,-16.74 251.53,-20.75 251.89,-13.75"/>
</a>
</g>
</g>
<!-- Node17&#45;&gt;Node13 -->
<g id="edge19_Node000017_Node000013" class="edge">
<title>Node17&#45;&gt;Node13</title>
<g id="a_edge19_Node000017_Node000013"><a xlink:title=" ">
<path fill="none" stroke="#63b8ff" d="M800.51,-186.87C818.01,-166.56 850,-130.51 864.5,-121 887.51,-105.91 916.32,-95.09 940.16,-87.9"/>
<polygon fill="#63b8ff" stroke="#63b8ff" points="941.41,-91.19 950.04,-85.04 939.46,-84.46 941.41,-91.19"/>
</a>
</g>
</g>
<!-- Node17&#45;&gt;Node14 -->
<g id="edge18_Node000017_Node000014" class="edge">
<title>Node17&#45;&gt;Node14</title>
<g id="a_edge18_Node000017_Node000014"><a xlink:title=" ">
<path fill="none" stroke="#63b8ff" d="M842.27,-196.37C907.72,-189.75 1013.26,-175.58 1043.5,-151 1077.79,-123.13 1091.79,-70.94 1097.24,-40.26"/>
<polygon fill="#63b8ff" stroke="#63b8ff" points="1100.76,-40.44 1098.89,-30.01 1093.85,-39.33 1100.76,-40.44"/>
</a>
</g>
</g>
<!-- Node18 -->
<g id="Node000018" class="node">
<title>Node18</title>
<g id="a_Node000018"><a xlink:href="keymap__profile_8hpp.html" target="_top" xlink:title=" ">
<polygon fill="white" stroke="#666666" points="741,-145.5 628,-145.5 628,-126.5 741,-126.5 741,-145.5"/>
<text text-anchor="middle" x="684.5" y="-133.5" font-family="Helvetica,sans-Serif" font-size="10.00">keymap_profile.hpp</text>
</a>
</g>
</g>
<!-- Node17&#45;&gt;Node18 -->
<g id="edge20_Node000017_Node000018" class="edge">
<title>Node17&#45;&gt;Node18</title>
<g id="a_edge20_Node000017_Node000018"><a xlink:title=" ">
<path fill="none" stroke="#63b8ff" d="M765.68,-186.95C748.32,-176.27 724.56,-161.65 707.23,-150.98"/>
<polygon fill="#63b8ff" stroke="#63b8ff" points="708.69,-147.78 698.34,-145.52 705.02,-153.74 708.69,-147.78"/>
</a>
</g>
</g>
<!-- Node20 -->
<g id="Node000020" class="node">
<title>Node20</title>
<g id="a_Node000020"><a xlink:title=" ">
<polygon fill="#e0e0e0" stroke="#999999" points="643.5,-85 587.5,-85 587.5,-66 643.5,-66 643.5,-85"/>
<text text-anchor="middle" x="615.5" y="-73" font-family="Helvetica,sans-Serif" font-size="10.00">QObject</text>
</a>
</g>
</g>
<!-- Node17&#45;&gt;Node20 -->
<g id="edge31_Node000017_Node000020" class="edge">
<title>Node17&#45;&gt;Node20</title>
<g id="a_edge31_Node000017_Node000020"><a xlink:title=" ">
<path fill="none" stroke="#63b8ff" d="M734.64,-200.45C696.17,-196.92 646.62,-185.34 619.5,-151 607.24,-135.47 608.19,-111.95 610.94,-95.5"/>
<polygon fill="#63b8ff" stroke="#63b8ff" points="614.43,-95.93 613,-85.43 607.57,-94.53 614.43,-95.93"/>
</a>
</g>
</g>
<!-- Node21 -->
<g id="Node000021" class="node">
<title>Node21</title>
<g id="a_Node000021"><a xlink:title=" ">
<polygon fill="#e0e0e0" stroke="#999999" points="823.5,-85 759.5,-85 759.5,-66 823.5,-66 823.5,-85"/>
<text text-anchor="middle" x="791.5" y="-73" font-family="Helvetica,sans-Serif" font-size="10.00">QSettings</text>
</a>
</g>
</g>
<!-- Node17&#45;&gt;Node21 -->
<g id="edge32_Node000017_Node000021" class="edge">
<title>Node17&#45;&gt;Node21</title>
<g id="a_edge32_Node000017_Node000021"><a xlink:title=" ">
<path fill="none" stroke="#63b8ff" d="M788.84,-186.72C789.39,-164.12 790.45,-120.12 791.05,-95.09"/>
<polygon fill="#63b8ff" stroke="#63b8ff" points="794.55,-95.15 791.29,-85.07 787.55,-94.98 794.55,-95.15"/>
</a>
</g>
</g>
<!-- Node22 -->
<g id="Node000022" class="node">
<title>Node22</title>
<g id="a_Node000022"><a xlink:title=" ">
<polygon fill="#e0e0e0" stroke="#999999" points="895,-85 842,-85 842,-66 895,-66 895,-85"/>
<text text-anchor="middle" x="868.5" y="-73" font-family="Helvetica,sans-Serif" font-size="10.00">QString</text>
</a>
</g>
</g>
<!-- Node17&#45;&gt;Node22 -->
<g id="edge33_Node000017_Node000022" class="edge">
<title>Node17&#45;&gt;Node22</title>
<g id="a_edge33_Node000017_Node000022"><a xlink:title=" ">
<path fill="none" stroke="#63b8ff" d="M795,-186.92C802.8,-170.55 816.69,-142.96 831.5,-121 838.09,-111.23 846.4,-101.08 853.48,-92.94"/>
<polygon fill="#63b8ff" stroke="#63b8ff" points="856.26,-95.08 860.29,-85.29 851.03,-90.43 856.26,-95.08"/>
</a>
</g>
</g>
<!-- Node23 -->
<g id="Node000023" class="node">
<title>Node23</title>
<g id="a_Node000023"><a xlink:title=" ">
<polygon fill="#e0e0e0" stroke="#999999" points="569.5,-85 531.5,-85 531.5,-66 569.5,-66 569.5,-85"/>
<text text-anchor="middle" x="550.5" y="-73" font-family="Helvetica,sans-Serif" font-size="10.00">map</text>
</a>
</g>
</g>
<!-- Node17&#45;&gt;Node23 -->
<g id="edge35_Node000017_Node000023" class="edge">
<title>Node17&#45;&gt;Node23</title>
<g id="a_edge35_Node000017_Node000023"><a xlink:title=" ">
<path fill="none" stroke="#63b8ff" d="M734.95,-196.04C695.93,-190.26 643.31,-177.81 604.5,-151 583.71,-136.64 568,-111.58 559.02,-94.53"/>
<polygon fill="#63b8ff" stroke="#63b8ff" points="561.92,-92.5 554.32,-85.12 555.66,-95.63 561.92,-92.5"/>
</a>
</g>
</g>
<!-- Node24 -->
<g id="Node000024" class="node">
<title>Node24</title>
<g id="a_Node000024"><a xlink:title=" ">
<polygon fill="#e0e0e0" stroke="#999999" points="911.5,-145.5 873.5,-145.5 873.5,-126.5 911.5,-126.5 911.5,-145.5"/>
<text text-anchor="middle" x="892.5" y="-133.5" font-family="Helvetica,sans-Serif" font-size="10.00">QDir</text>
</a>
</g>
</g>
<!-- Node17&#45;&gt;Node24 -->
<g id="edge28_Node000017_Node000024" class="edge">
<title>Node17&#45;&gt;Node24</title>
<g id="a_edge28_Node000017_Node000024"><a xlink:title=" ">
<path fill="none" stroke="#63b8ff" d="M811.32,-186.95C828.68,-176.27 852.44,-161.65 869.77,-150.98"/>
<polygon fill="#63b8ff" stroke="#63b8ff" points="871.98,-153.74 878.66,-145.52 868.31,-147.78 871.98,-153.74"/>
</a>
</g>
</g>
<!-- Node25 -->
<g id="Node000025" class="node">
<title>Node25</title>
<g id="a_Node000025"><a xlink:title=" ">
<polygon fill="#e0e0e0" stroke="#999999" points="971,-145.5 930,-145.5 930,-126.5 971,-126.5 971,-145.5"/>
<text text-anchor="middle" x="950.5" y="-133.5" font-family="Helvetica,sans-Serif" font-size="10.00">QList</text>
</a>
</g>
</g>
<!-- Node17&#45;&gt;Node25 -->
<g id="edge29_Node000017_Node000025" class="edge">
<title>Node17&#45;&gt;Node25</title>
<g id="a_edge29_Node000017_Node000025"><a xlink:title=" ">
<path fill="none" stroke="#63b8ff" d="M827.79,-186.99C854.2,-177.36 889.68,-164.01 920.5,-151 921.51,-150.58 922.53,-150.14 923.56,-149.69"/>
<polygon fill="#63b8ff" stroke="#63b8ff" points="925.15,-152.81 932.83,-145.51 922.28,-146.43 925.15,-152.81"/>
</a>
</g>
</g>
<!-- Node26 -->
<g id="Node000026" class="node">
<title>Node26</title>
<g id="a_Node000026"><a xlink:title=" ">
<polygon fill="#e0e0e0" stroke="#999999" points="1034,-145.5 989,-145.5 989,-126.5 1034,-126.5 1034,-145.5"/>
<text text-anchor="middle" x="1011.5" y="-133.5" font-family="Helvetica,sans-Serif" font-size="10.00">QMap</text>
</a>
</g>
</g>
<!-- Node17&#45;&gt;Node26 -->
<g id="edge30_Node000017_Node000026" class="edge">
<title>Node17&#45;&gt;Node26</title>
<g id="a_edge30_Node000017_Node000026"><a xlink:title=" ">
<path fill="none" stroke="#63b8ff" d="M842.2,-189.59C881.11,-180.7 934.7,-167.17 980.5,-151 981.89,-150.51 983.31,-149.98 984.73,-149.42"/>
<polygon fill="#63b8ff" stroke="#63b8ff" points="986.15,-152.63 994.01,-145.52 983.43,-146.17 986.15,-152.63"/>
</a>
</g>
</g>
<!-- Node27 -->
<g id="Node000027" class="node">
<title>Node27</title>
<g id="a_Node000027"><a xlink:title=" ">
<polygon fill="#e0e0e0" stroke="#999999" points="495,-145.5 436,-145.5 436,-126.5 495,-126.5 495,-145.5"/>
<text text-anchor="middle" x="465.5" y="-133.5" font-family="Helvetica,sans-Serif" font-size="10.00">QVariant</text>
</a>
</g>
</g>
<!-- Node17&#45;&gt;Node27 -->
<g id="edge34_Node000017_Node000027" class="edge">
<title>Node17&#45;&gt;Node27</title>
<g id="a_edge34_Node000017_Node000027"><a xlink:title=" ">
<path fill="none" stroke="#63b8ff" d="M734.84,-193.51C678.34,-185.14 587,-170.19 509.5,-151 506.48,-150.25 503.37,-149.41 500.27,-148.52"/>
<polygon fill="#63b8ff" stroke="#63b8ff" points="501.05,-145.1 490.47,-145.57 499.03,-151.81 501.05,-145.1"/>
</a>
</g>
</g>
<!-- Node18&#45;&gt;Node13 -->
<g id="edge21_Node000018_Node000013" class="edge">
<title>Node18&#45;&gt;Node13</title>
<g id="a_edge21_Node000018_Node000013"><a xlink:title=" ">
<path fill="none" stroke="#63b8ff" d="M728.41,-126.49C782.43,-116.03 874.11,-98.27 932.41,-86.98"/>
<polygon fill="#63b8ff" stroke="#63b8ff" points="933.38,-90.35 942.53,-85.02 932.05,-83.48 933.38,-90.35"/>
</a>
</g>
</g>
<!-- Node18&#45;&gt;Node15 -->
<g id="edge27_Node000018_Node000015" class="edge">
<title>Node18&#45;&gt;Node15</title>
<g id="a_edge27_Node000018_Node000015"><a xlink:title=" ">
<path fill="none" stroke="#63b8ff" d="M692.25,-126.11C704.21,-112.58 728.13,-86.24 750.5,-66 764.43,-53.4 781.2,-40.37 794.08,-30.77"/>
<polygon fill="#63b8ff" stroke="#63b8ff" points="796.31,-33.47 802.29,-24.72 792.16,-27.83 796.31,-33.47"/>
</a>
</g>
</g>
<!-- Node19 -->
<g id="Node000019" class="node">
<title>Node19</title>
<g id="a_Node000019"><a xlink:title=" ">
<polygon fill="#e0e0e0" stroke="#999999" points="703,-85 662,-85 662,-66 703,-66 703,-85"/>
<text text-anchor="middle" x="682.5" y="-73" font-family="Helvetica,sans-Serif" font-size="10.00">QFile</text>
</a>
</g>
</g>
<!-- Node18&#45;&gt;Node19 -->
<g id="edge22_Node000018_Node000019" class="edge">
<title>Node18&#45;&gt;Node19</title>
<g id="a_edge22_Node000018_Node000019"><a xlink:title=" ">
<path fill="none" stroke="#63b8ff" d="M684.2,-126.37C683.93,-118.25 683.5,-105.81 683.15,-95.39"/>
<polygon fill="#63b8ff" stroke="#63b8ff" points="686.64,-95.04 682.8,-85.17 679.64,-95.28 686.64,-95.04"/>
</a>
</g>
</g>
<!-- Node18&#45;&gt;Node20 -->
<g id="edge23_Node000018_Node000020" class="edge">
<title>Node18&#45;&gt;Node20</title>
<g id="a_edge23_Node000018_Node000020"><a xlink:title=" ">
<path fill="none" stroke="#63b8ff" d="M674.32,-126.37C663.62,-117.3 646.56,-102.84 633.57,-91.82"/>
<polygon fill="#63b8ff" stroke="#63b8ff" points="635.61,-88.96 625.72,-85.17 631.09,-94.3 635.61,-88.96"/>
</a>
</g>
</g>
<!-- Node18&#45;&gt;Node21 -->
<g id="edge24_Node000018_Node000021" class="edge">
<title>Node18&#45;&gt;Node21</title>
<g id="a_edge24_Node000018_Node000021"><a xlink:title=" ">
<path fill="none" stroke="#63b8ff" d="M700.29,-126.37C717.83,-116.78 746.38,-101.17 766.87,-89.97"/>
<polygon fill="#63b8ff" stroke="#63b8ff" points="768.55,-93.04 775.65,-85.17 765.19,-86.89 768.55,-93.04"/>
</a>
</g>
</g>
<!-- Node18&#45;&gt;Node22 -->
<g id="edge25_Node000018_Node000022" class="edge">
<title>Node18&#45;&gt;Node22</title>
<g id="a_edge25_Node000018_Node000022"><a xlink:title=" ">
<path fill="none" stroke="#63b8ff" d="M711.26,-126.49C743.14,-116.36 796.57,-99.37 832.18,-88.05"/>
<polygon fill="#63b8ff" stroke="#63b8ff" points="833.24,-91.38 841.71,-85.02 831.12,-84.71 833.24,-91.38"/>
</a>
</g>
</g>
<!-- Node18&#45;&gt;Node23 -->
<g id="edge26_Node000018_Node000023" class="edge">
<title>Node18&#45;&gt;Node23</title>
<g id="a_edge26_Node000018_Node000023"><a xlink:title=" ">
<path fill="none" stroke="#63b8ff" d="M665.02,-126.49C642.36,-116.6 604.77,-100.19 578.87,-88.89"/>
<polygon fill="#63b8ff" stroke="#63b8ff" points="580.14,-85.62 569.57,-84.83 577.34,-92.04 580.14,-85.62"/>
</a>
</g>
</g>
</g>
</svg>
