<?xml version="1.0" encoding="UTF-8" standalone="no"?>
<!DOCTYPE svg PUBLIC "-//W3C//DTD SVG 1.1//EN"
 "http://www.w3.org/Graphics/SVG/1.1/DTD/svg11.dtd">
<!-- Generated by graphviz version 2.43.0 (0)
 -->
<!-- Title: src/networking/executor.cpp Pages: 1 -->
<svg width="700pt" height="258pt"
 viewBox="0.00 0.00 700.00 258.00" xmlns="http://www.w3.org/2000/svg" xmlns:xlink="http://www.w3.org/1999/xlink">
<g id="graph0" class="graph" transform="scale(1 1) rotate(0) translate(4 254)">
<title>src/networking/executor.cpp</title>
<!-- Node1 -->
<g id="Node000001" class="node">
<title>Node1</title>
<g id="a_Node000001"><a xlink:title=" ">
<polygon fill="#999999" stroke="#666666" points="593,-250 440,-250 440,-231 593,-231 593,-250"/>
<text text-anchor="middle" x="516.5" y="-238" font-family="Helvetica,sans-Serif" font-size="10.00">src/networking/executor.cpp</text>
</a>
</g>
</g>
<!-- Node2 -->
<g id="Node000002" class="node">
<title>Node2</title>
<g id="a_Node000002"><a xlink:href="executor_8hpp.html" target="_top" xlink:title=" ">
<polygon fill="white" stroke="#666666" points="301,-195 222,-195 222,-176 301,-176 301,-195"/>
<text text-anchor="middle" x="261.5" y="-183" font-family="Helvetica,sans-Serif" font-size="10.00">executor.hpp</text>
</a>
</g>
</g>
<!-- Node1&#45;&gt;Node2 -->
<g id="edge1_Node000001_Node000002" class="edge">
<title>Node1&#45;&gt;Node2</title>
<g id="a_edge1_Node000001_Node000002"><a xlink:title=" ">
<path fill="none" stroke="#63b8ff" d="M475.53,-230.98C430.71,-221.67 358.88,-206.74 310.95,-196.78"/>
<polygon fill="#63b8ff" stroke="#63b8ff" points="311.61,-193.34 301.11,-194.73 310.19,-200.19 311.61,-193.34"/>
</a>
</g>
</g>
<!-- Node13 -->
<g id="Node000013" class="node">
<title>Node13</title>
<g id="a_Node000013"><a xlink:href="settings__key__variables_8hpp.html" target="_top" xlink:title=" ">
<polygon fill="white" stroke="#666666" points="595.5,-195 437.5,-195 437.5,-176 595.5,-176 595.5,-195"/>
<text text-anchor="middle" x="516.5" y="-183" font-family="Helvetica,sans-Serif" font-size="10.00">../settings_key_variables.hpp</text>
</a>
</g>
</g>
<!-- Node1&#45;&gt;Node13 -->
<g id="edge13_Node000001_Node000013" class="edge">
<title>Node1&#45;&gt;Node13</title>
<g id="a_edge13_Node000001_Node000013"><a xlink:title=" ">
<path fill="none" stroke="#63b8ff" d="M516.5,-230.75C516.5,-223.8 516.5,-213.85 516.5,-205.13"/>
<polygon fill="#63b8ff" stroke="#63b8ff" points="520,-205.09 516.5,-195.09 513,-205.09 520,-205.09"/>
</a>
</g>
</g>
<!-- Node17 -->
<g id="Node000017" class="node">
<title>Node17</title>
<g id="a_Node000017"><a xlink:title=" ">
<polygon fill="#e0e0e0" stroke="#999999" points="692,-195 613,-195 613,-176 692,-176 692,-195"/>
<text text-anchor="middle" x="652.5" y="-183" font-family="Helvetica,sans-Serif" font-size="10.00">QApplication</text>
</a>
</g>
</g>
<!-- Node1&#45;&gt;Node17 -->
<g id="edge18_Node000001_Node000017" class="edge">
<title>Node1&#45;&gt;Node17</title>
<g id="a_edge18_Node000001_Node000017"><a xlink:title=" ">
<path fill="none" stroke="#63b8ff" d="M538.35,-230.98C560.62,-222.3 595.4,-208.75 620.72,-198.88"/>
<polygon fill="#63b8ff" stroke="#63b8ff" points="622.21,-202.06 630.25,-195.17 619.66,-195.54 622.21,-202.06"/>
</a>
</g>
</g>
<!-- Node3 -->
<g id="Node000003" class="node">
<title>Node3</title>
<g id="a_Node000003"><a xlink:href="Colfer_8h.html" target="_top" xlink:title=" ">
<polygon fill="white" stroke="#666666" points="169.5,-140 33.5,-140 33.5,-110 169.5,-110 169.5,-140"/>
<text text-anchor="start" x="41.5" y="-128" font-family="Helvetica,sans-Serif" font-size="10.00">../../VGP_Data_Exchange</text>
<text text-anchor="middle" x="101.5" y="-117" font-family="Helvetica,sans-Serif" font-size="10.00">/C/Colfer.h</text>
</a>
</g>
</g>
<!-- Node2&#45;&gt;Node3 -->
<g id="edge2_Node000002_Node000003" class="edge">
<title>Node2&#45;&gt;Node3</title>
<g id="a_edge2_Node000002_Node000003"><a xlink:title=" ">
<path fill="none" stroke="#63b8ff" d="M238.23,-175.99C215.11,-167.54 178.95,-154.32 149.62,-143.59"/>
<polygon fill="#63b8ff" stroke="#63b8ff" points="150.56,-140.21 139.97,-140.06 148.16,-146.79 150.56,-140.21"/>
</a>
</g>
</g>
<!-- Node7 -->
<g id="Node000007" class="node">
<title>Node7</title>
<g id="a_Node000007"><a xlink:href="simulate_8hpp.html" target="_top" xlink:title=" ">
<polygon fill="white" stroke="#666666" points="333.5,-134.5 189.5,-134.5 189.5,-115.5 333.5,-115.5 333.5,-134.5"/>
<text text-anchor="middle" x="261.5" y="-122.5" font-family="Helvetica,sans-Serif" font-size="10.00">../simulation/simulate.hpp</text>
</a>
</g>
</g>
<!-- Node2&#45;&gt;Node7 -->
<g id="edge6_Node000002_Node000007" class="edge">
<title>Node2&#45;&gt;Node7</title>
<g id="a_edge6_Node000002_Node000007"><a xlink:title=" ">
<path fill="none" stroke="#63b8ff" d="M261.5,-175.87C261.5,-167.75 261.5,-155.31 261.5,-144.89"/>
<polygon fill="#63b8ff" stroke="#63b8ff" points="265,-144.67 261.5,-134.67 258,-144.67 265,-144.67"/>
</a>
</g>
</g>
<!-- Node4 -->
<g id="Node000004" class="node">
<title>Node4</title>
<g id="a_Node000004"><a xlink:title=" ">
<polygon fill="#e0e0e0" stroke="#999999" points="53,-74 0,-74 0,-55 53,-55 53,-74"/>
<text text-anchor="middle" x="26.5" y="-62" font-family="Helvetica,sans-Serif" font-size="10.00">limits.h</text>
</a>
</g>
</g>
<!-- Node3&#45;&gt;Node4 -->
<g id="edge3_Node000003_Node000004" class="edge">
<title>Node3&#45;&gt;Node4</title>
<g id="a_edge3_Node000003_Node000004"><a xlink:title=" ">
<path fill="none" stroke="#63b8ff" d="M83.34,-109.84C72.01,-101 57.44,-89.63 45.88,-80.62"/>
<polygon fill="#63b8ff" stroke="#63b8ff" points="47.78,-77.66 37.74,-74.27 43.47,-83.18 47.78,-77.66"/>
</a>
</g>
</g>
<!-- Node5 -->
<g id="Node000005" class="node">
<title>Node5</title>
<g id="a_Node000005"><a xlink:title=" ">
<polygon fill="#e0e0e0" stroke="#999999" points="124,-74 71,-74 71,-55 124,-55 124,-74"/>
<text text-anchor="middle" x="97.5" y="-62" font-family="Helvetica,sans-Serif" font-size="10.00">stdint.h</text>
</a>
</g>
</g>
<!-- Node3&#45;&gt;Node5 -->
<g id="edge4_Node000003_Node000005" class="edge">
<title>Node3&#45;&gt;Node5</title>
<g id="a_edge4_Node000003_Node000005"><a xlink:title=" ">
<path fill="none" stroke="#63b8ff" d="M100.53,-109.84C100.01,-102.21 99.36,-92.7 98.8,-84.45"/>
<polygon fill="#63b8ff" stroke="#63b8ff" points="102.27,-84 98.1,-74.27 95.29,-84.48 102.27,-84"/>
</a>
</g>
</g>
<!-- Node6 -->
<g id="Node000006" class="node">
<title>Node6</title>
<g id="a_Node000006"><a xlink:title=" ">
<polygon fill="#e0e0e0" stroke="#999999" points="195,-74 142,-74 142,-55 195,-55 195,-74"/>
<text text-anchor="middle" x="168.5" y="-62" font-family="Helvetica,sans-Serif" font-size="10.00">string.h</text>
</a>
</g>
</g>
<!-- Node3&#45;&gt;Node6 -->
<g id="edge5_Node000003_Node000006" class="edge">
<title>Node3&#45;&gt;Node6</title>
<g id="a_edge5_Node000003_Node000006"><a xlink:title=" ">
<path fill="none" stroke="#63b8ff" d="M117.72,-109.84C127.74,-101.09 140.61,-89.85 150.88,-80.88"/>
<polygon fill="#63b8ff" stroke="#63b8ff" points="153.23,-83.48 158.46,-74.27 148.63,-78.21 153.23,-83.48"/>
</a>
</g>
</g>
<!-- Node8 -->
<g id="Node000008" class="node">
<title>Node8</title>
<g id="a_Node000008"><a xlink:href="keyboardSim_8hpp.html" target="_top" xlink:title="Simulates keyboard input in Windows.">
<polygon fill="white" stroke="#666666" points="314,-74 213,-74 213,-55 314,-55 314,-74"/>
<text text-anchor="middle" x="263.5" y="-62" font-family="Helvetica,sans-Serif" font-size="10.00">keyboardSim.hpp</text>
</a>
</g>
</g>
<!-- Node7&#45;&gt;Node8 -->
<g id="edge7_Node000007_Node000008" class="edge">
<title>Node7&#45;&gt;Node8</title>
<g id="a_edge7_Node000007_Node000008"><a xlink:title=" ">
<path fill="none" stroke="#63b8ff" d="M261.8,-115.37C262.07,-107.25 262.5,-94.81 262.85,-84.39"/>
<polygon fill="#63b8ff" stroke="#63b8ff" points="266.36,-84.28 263.2,-74.17 259.36,-84.04 266.36,-84.28"/>
</a>
</g>
</g>
<!-- Node12 -->
<g id="Node000012" class="node">
<title>Node12</title>
<g id="a_Node000012"><a xlink:href="mouseSim_8hpp.html" target="_top" xlink:title="Simulates mouse input in Windows.">
<polygon fill="white" stroke="#666666" points="421,-74 332,-74 332,-55 421,-55 421,-74"/>
<text text-anchor="middle" x="376.5" y="-62" font-family="Helvetica,sans-Serif" font-size="10.00">mouseSim.hpp</text>
</a>
</g>
</g>
<!-- Node7&#45;&gt;Node12 -->
<g id="edge11_Node000007_Node000012" class="edge">
<title>Node7&#45;&gt;Node12</title>
<g id="a_edge11_Node000007_Node000012"><a xlink:title=" ">
<path fill="none" stroke="#63b8ff" d="M278.47,-115.37C297.41,-105.73 328.29,-90.03 350.33,-78.81"/>
<polygon fill="#63b8ff" stroke="#63b8ff" points="352.14,-81.82 359.46,-74.17 348.96,-75.58 352.14,-81.82"/>
</a>
</g>
</g>
<!-- Node9 -->
<g id="Node000009" class="node">
<title>Node9</title>
<g id="a_Node000009"><a xlink:title=" ">
<polygon fill="#e0e0e0" stroke="#999999" points="410.5,-19 342.5,-19 342.5,0 410.5,0 410.5,-19"/>
<text text-anchor="middle" x="376.5" y="-7" font-family="Helvetica,sans-Serif" font-size="10.00">windows.h</text>
</a>
</g>
</g>
<!-- Node8&#45;&gt;Node9 -->
<g id="edge8_Node000008_Node000009" class="edge">
<title>Node8&#45;&gt;Node9</title>
<g id="a_edge8_Node000008_Node000009"><a xlink:title=" ">
<path fill="none" stroke="#63b8ff" d="M281.66,-54.98C299.75,-46.5 327.78,-33.35 348.69,-23.54"/>
<polygon fill="#63b8ff" stroke="#63b8ff" points="350.45,-26.59 358.01,-19.17 347.47,-20.25 350.45,-26.59"/>
</a>
</g>
</g>
<!-- Node10 -->
<g id="Node000010" class="node">
<title>Node10</title>
<g id="a_Node000010"><a xlink:title=" ">
<polygon fill="#e0e0e0" stroke="#999999" points="239.5,-19 195.5,-19 195.5,0 239.5,0 239.5,-19"/>
<text text-anchor="middle" x="217.5" y="-7" font-family="Helvetica,sans-Serif" font-size="10.00">string</text>
</a>
</g>
</g>
<!-- Node8&#45;&gt;Node10 -->
<g id="edge9_Node000008_Node000010" class="edge">
<title>Node8&#45;&gt;Node10</title>
<g id="a_edge9_Node000008_Node000010"><a xlink:title=" ">
<path fill="none" stroke="#63b8ff" d="M255.9,-54.75C249.34,-47.18 239.68,-36.05 231.69,-26.84"/>
<polygon fill="#63b8ff" stroke="#63b8ff" points="234.15,-24.35 224.95,-19.09 228.87,-28.94 234.15,-24.35"/>
</a>
</g>
</g>
<!-- Node11 -->
<g id="Node000011" class="node">
<title>Node11</title>
<g id="a_Node000011"><a xlink:title=" ">
<polygon fill="#e0e0e0" stroke="#999999" points="305,-19 258,-19 258,0 305,0 305,-19"/>
<text text-anchor="middle" x="281.5" y="-7" font-family="Helvetica,sans-Serif" font-size="10.00">vector</text>
</a>
</g>
</g>
<!-- Node8&#45;&gt;Node11 -->
<g id="edge10_Node000008_Node000011" class="edge">
<title>Node8&#45;&gt;Node11</title>
<g id="a_edge10_Node000008_Node000011"><a xlink:title=" ">
<path fill="none" stroke="#63b8ff" d="M266.47,-54.75C268.86,-47.72 272.29,-37.62 275.27,-28.84"/>
<polygon fill="#63b8ff" stroke="#63b8ff" points="278.68,-29.68 278.58,-19.09 272.05,-27.43 278.68,-29.68"/>
</a>
</g>
</g>
<!-- Node12&#45;&gt;Node9 -->
<g id="edge12_Node000012_Node000009" class="edge">
<title>Node12&#45;&gt;Node9</title>
<g id="a_edge12_Node000012_Node000009"><a xlink:title=" ">
<path fill="none" stroke="#63b8ff" d="M376.5,-54.75C376.5,-47.8 376.5,-37.85 376.5,-29.13"/>
<polygon fill="#63b8ff" stroke="#63b8ff" points="380,-29.09 376.5,-19.09 373,-29.09 380,-29.09"/>
</a>
</g>
</g>
<!-- Node13&#45;&gt;Node9 -->
<g id="edge15_Node000013_Node000009" class="edge">
<title>Node13&#45;&gt;Node9</title>
<g id="a_edge15_Node000013_Node000009"><a xlink:title=" ">
<path fill="none" stroke="#63b8ff" d="M524.49,-175.84C536.68,-161.54 557.23,-132.33 544.5,-110 517.67,-62.93 458.86,-35.85 418.46,-22.15"/>
<polygon fill="#63b8ff" stroke="#63b8ff" points="419.46,-18.79 408.87,-19.03 417.3,-25.45 419.46,-18.79"/>
</a>
</g>
</g>
<!-- Node14 -->
<g id="Node000014" class="node">
<title>Node14</title>
<g id="a_Node000014"><a xlink:title=" ">
<polygon fill="#e0e0e0" stroke="#999999" points="633,-134.5 592,-134.5 592,-115.5 633,-115.5 633,-134.5"/>
<text text-anchor="middle" x="612.5" y="-122.5" font-family="Helvetica,sans-Serif" font-size="10.00">QList</text>
</a>
</g>
</g>
<!-- Node13&#45;&gt;Node14 -->
<g id="edge14_Node000013_Node000014" class="edge">
<title>Node13&#45;&gt;Node14</title>
<g id="a_edge14_Node000013_Node000014"><a xlink:title=" ">
<path fill="none" stroke="#63b8ff" d="M530.67,-175.87C546.19,-166.41 571.33,-151.09 589.65,-139.92"/>
<polygon fill="#63b8ff" stroke="#63b8ff" points="591.56,-142.86 598.28,-134.67 587.92,-136.88 591.56,-142.86"/>
</a>
</g>
</g>
<!-- Node15 -->
<g id="Node000015" class="node">
<title>Node15</title>
<g id="a_Node000015"><a xlink:href="GameButtons_8h.html" target="_top" xlink:title=" ">
<polygon fill="white" stroke="#666666" points="479,-140 352,-140 352,-110 479,-110 479,-140"/>
<text text-anchor="start" x="360" y="-128" font-family="Helvetica,sans-Serif" font-size="10.00">../VGP_Data_Exchange</text>
<text text-anchor="middle" x="415.5" y="-117" font-family="Helvetica,sans-Serif" font-size="10.00">/C/GameButtons.h</text>
</a>
</g>
</g>
<!-- Node13&#45;&gt;Node15 -->
<g id="edge16_Node000013_Node000015" class="edge">
<title>Node13&#45;&gt;Node15</title>
<g id="a_edge16_Node000013_Node000015"><a xlink:title=" ">
<path fill="none" stroke="#63b8ff" d="M501.6,-175.87C487.77,-167.86 466.69,-155.65 448.85,-145.31"/>
<polygon fill="#63b8ff" stroke="#63b8ff" points="450.28,-142.1 439.87,-140.11 446.77,-148.16 450.28,-142.1"/>
</a>
</g>
</g>
<!-- Node16 -->
<g id="Node000016" class="node">
<title>Node16</title>
<g id="a_Node000016"><a xlink:title=" ">
<polygon fill="#e0e0e0" stroke="#999999" points="535.5,-134.5 497.5,-134.5 497.5,-115.5 535.5,-115.5 535.5,-134.5"/>
<text text-anchor="middle" x="516.5" y="-122.5" font-family="Helvetica,sans-Serif" font-size="10.00">map</text>
</a>
</g>
</g>
<!-- Node13&#45;&gt;Node16 -->
<g id="edge17_Node000013_Node000016" class="edge">
<title>Node13&#45;&gt;Node16</title>
<g id="a_edge17_Node000013_Node000016"><a xlink:title=" ">
<path fill="none" stroke="#63b8ff" d="M516.5,-175.87C516.5,-167.75 516.5,-155.31 516.5,-144.89"/>
<polygon fill="#63b8ff" stroke="#63b8ff" points="520,-144.67 516.5,-134.67 513,-144.67 520,-144.67"/>
</a>
</g>
</g>
</g>
</svg>
