<?xml version="1.0" encoding="UTF-8" standalone="no"?>
<!DOCTYPE svg PUBLIC "-//W3C//DTD SVG 1.1//EN"
 "http://www.w3.org/Graphics/SVG/1.1/DTD/svg11.dtd">
<!-- Generated by graphviz version 2.43.0 (0)
 -->
<!-- Title: src/networking/executor.cpp Pages: 1 -->
<svg width="1156pt" height="280pt"
 viewBox="0.00 0.00 1156.41 280.00" xmlns="http://www.w3.org/2000/svg" xmlns:xlink="http://www.w3.org/1999/xlink">
<g id="graph0" class="graph" transform="scale(1 1) rotate(0) translate(4 276)">
<title>src/networking/executor.cpp</title>
<!-- Node1 -->
<g id="Node000001" class="node">
<title>Node1</title>
<g id="a_Node000001"><a xlink:title=" ">
<polygon fill="#999999" stroke="#666666" points="639.41,-272 486.41,-272 486.41,-253 639.41,-253 639.41,-272"/>
<text text-anchor="middle" x="562.91" y="-260" font-family="Helvetica,sans-Serif" font-size="10.00">src/networking/executor.cpp</text>
</a>
</g>
</g>
<!-- Node2 -->
<g id="Node000002" class="node">
<title>Node2</title>
<g id="a_Node000002"><a xlink:href="executor_8hpp.html" target="_top" xlink:title=" ">
<polygon fill="white" stroke="#666666" points="345.41,-211.5 266.41,-211.5 266.41,-192.5 345.41,-192.5 345.41,-211.5"/>
<text text-anchor="middle" x="305.91" y="-199.5" font-family="Helvetica,sans-Serif" font-size="10.00">executor.hpp</text>
</a>
</g>
</g>
<!-- Node1&#45;&gt;Node2 -->
<g id="edge1_Node000001_Node000002" class="edge">
<title>Node1&#45;&gt;Node2</title>
<g id="a_edge1_Node000001_Node000002"><a xlink:title=" ">
<path fill="none" stroke="#63b8ff" d="M525.54,-252.99C479.96,-242.62 402.85,-225.07 353.18,-213.76"/>
<polygon fill="#63b8ff" stroke="#63b8ff" points="353.85,-210.32 343.33,-211.52 352.3,-217.15 353.85,-210.32"/>
</a>
</g>
</g>
<!-- Node8 -->
<g id="Node000008" class="node">
<title>Node8</title>
<g id="a_Node000008"><a xlink:href="keyboardSim_8hpp.html" target="_top" xlink:title="Simulates keyboard input in Windows.">
<polygon fill="white" stroke="#666666" points="334.41,-85 233.41,-85 233.41,-66 334.41,-66 334.41,-85"/>
<text text-anchor="middle" x="283.91" y="-73" font-family="Helvetica,sans-Serif" font-size="10.00">keyboardSim.hpp</text>
</a>
</g>
</g>
<!-- Node1&#45;&gt;Node8 -->
<g id="edge37_Node000001_Node000008" class="edge">
<title>Node1&#45;&gt;Node8</title>
<g id="a_edge37_Node000001_Node000008"><a xlink:title=" ">
<path fill="none" stroke="#63b8ff" d="M486.16,-258.44C407.67,-253.92 292.38,-242.96 256.91,-217 220.62,-190.44 204.85,-161.25 224.91,-121 231.48,-107.82 244.01,-97.52 255.84,-90.16"/>
<polygon fill="#63b8ff" stroke="#63b8ff" points="257.72,-93.12 264.64,-85.1 254.23,-87.05 257.72,-93.12"/>
</a>
</g>
</g>
<!-- Node9 -->
<g id="Node000009" class="node">
<title>Node9</title>
<g id="a_Node000009"><a xlink:title=" ">
<polygon fill="#e0e0e0" stroke="#999999" points="165.91,-24.5 121.91,-24.5 121.91,-5.5 165.91,-5.5 165.91,-24.5"/>
<text text-anchor="middle" x="143.91" y="-12.5" font-family="Helvetica,sans-Serif" font-size="10.00">string</text>
</a>
</g>
</g>
<!-- Node1&#45;&gt;Node9 -->
<g id="edge44_Node000001_Node000009" class="edge">
<title>Node1&#45;&gt;Node9</title>
<g id="a_edge44_Node000001_Node000009"><a xlink:title=" ">
<path fill="none" stroke="#63b8ff" d="M486.35,-255.79C355.15,-244.39 95.4,-214.28 32.91,-151 5.49,-123.23 -11.3,-98.08 10.91,-66 33.49,-33.38 80.19,-22.01 111.79,-18.07"/>
<polygon fill="#63b8ff" stroke="#63b8ff" points="112.3,-21.54 121.87,-17 111.56,-14.57 112.3,-21.54"/>
</a>
</g>
</g>
<!-- Node10 -->
<g id="Node000010" class="node">
<title>Node10</title>
<g id="a_Node000010"><a xlink:title=" ">
<polygon fill="#e0e0e0" stroke="#999999" points="345.41,-24.5 298.41,-24.5 298.41,-5.5 345.41,-5.5 345.41,-24.5"/>
<text text-anchor="middle" x="321.91" y="-12.5" font-family="Helvetica,sans-Serif" font-size="10.00">vector</text>
</a>
</g>
</g>
<!-- Node1&#45;&gt;Node10 -->
<g id="edge45_Node000001_Node000010" class="edge">
<title>Node1&#45;&gt;Node10</title>
<g id="a_edge45_Node000001_Node000010"><a xlink:title=" ">
<path fill="none" stroke="#63b8ff" d="M541.31,-252.89C523.62,-245.17 498.57,-232.66 479.91,-217 412.5,-160.41 354.73,-70.9 332.1,-33.42"/>
<polygon fill="#63b8ff" stroke="#63b8ff" points="335.02,-31.47 326.9,-24.67 329.01,-35.06 335.02,-31.47"/>
</a>
</g>
</g>
<!-- Node12 -->
<g id="Node000012" class="node">
<title>Node12</title>
<g id="a_Node000012"><a xlink:href="mouseSim_8hpp.html" target="_top" xlink:title="Simulates mouse input in Windows.">
<polygon fill="white" stroke="#666666" points="480.41,-85 391.41,-85 391.41,-66 480.41,-66 480.41,-85"/>
<text text-anchor="middle" x="435.91" y="-73" font-family="Helvetica,sans-Serif" font-size="10.00">mouseSim.hpp</text>
</a>
</g>
</g>
<!-- Node1&#45;&gt;Node12 -->
<g id="edge38_Node000001_Node000012" class="edge">
<title>Node1&#45;&gt;Node12</title>
<g id="a_edge38_Node000001_Node000012"><a xlink:title=" ">
<path fill="none" stroke="#63b8ff" d="M549.01,-252.89C536.64,-244.74 518.59,-231.6 505.91,-217 473.11,-179.23 451.36,-123.4 441.68,-94.82"/>
<polygon fill="#63b8ff" stroke="#63b8ff" points="444.99,-93.71 438.56,-85.29 438.34,-95.88 444.99,-93.71"/>
</a>
</g>
</g>
<!-- Node13 -->
<g id="Node000013" class="node">
<title>Node13</title>
<g id="a_Node000013"><a xlink:href="input__types_8hpp.html" target="_top" xlink:title=" ">
<polygon fill="white" stroke="#666666" points="766.91,-85 620.91,-85 620.91,-66 766.91,-66 766.91,-85"/>
<text text-anchor="middle" x="693.91" y="-73" font-family="Helvetica,sans-Serif" font-size="10.00">../settings/input_types.hpp</text>
</a>
</g>
</g>
<!-- Node1&#45;&gt;Node13 -->
<g id="edge13_Node000001_Node000013" class="edge">
<title>Node1&#45;&gt;Node13</title>
<g id="a_edge13_Node000001_Node000013"><a xlink:title=" ">
<path fill="none" stroke="#63b8ff" d="M561.01,-252.8C556.35,-228.92 546.81,-161.45 577.91,-121 590.28,-104.91 609.23,-94.63 628.25,-88.07"/>
<polygon fill="#63b8ff" stroke="#63b8ff" points="629.37,-91.39 637.87,-85.06 627.28,-84.71 629.37,-91.39"/>
</a>
</g>
</g>
<!-- Node17 -->
<g id="Node000017" class="node">
<title>Node17</title>
<g id="a_Node000017"><a xlink:href="settings__singleton_8hpp.html" target="_top" xlink:title=" ">
<polygon fill="white" stroke="#666666" points="690.41,-217 583.41,-217 583.41,-187 690.41,-187 690.41,-217"/>
<text text-anchor="start" x="591.41" y="-205" font-family="Helvetica,sans-Serif" font-size="10.00">../settings/settings</text>
<text text-anchor="middle" x="636.91" y="-194" font-family="Helvetica,sans-Serif" font-size="10.00">_singleton.hpp</text>
</a>
</g>
</g>
<!-- Node1&#45;&gt;Node17 -->
<g id="edge17_Node000001_Node000017" class="edge">
<title>Node1&#45;&gt;Node17</title>
<g id="a_edge17_Node000001_Node000017"><a xlink:title=" ">
<path fill="none" stroke="#63b8ff" d="M573.83,-252.87C583.59,-245.15 598.28,-233.54 611.03,-223.46"/>
<polygon fill="#63b8ff" stroke="#63b8ff" points="613.38,-226.06 619.06,-217.11 609.04,-220.57 613.38,-226.06"/>
</a>
</g>
</g>
<!-- Node28 -->
<g id="Node000028" class="node">
<title>Node28</title>
<g id="a_Node000028"><a xlink:title=" ">
<polygon fill="#e0e0e0" stroke="#999999" points="787.41,-211.5 708.41,-211.5 708.41,-192.5 787.41,-192.5 787.41,-211.5"/>
<text text-anchor="middle" x="747.91" y="-199.5" font-family="Helvetica,sans-Serif" font-size="10.00">QApplication</text>
</a>
</g>
</g>
<!-- Node1&#45;&gt;Node28 -->
<g id="edge39_Node000001_Node000028" class="edge">
<title>Node1&#45;&gt;Node28</title>
<g id="a_edge39_Node000001_Node000028"><a xlink:title=" ">
<path fill="none" stroke="#63b8ff" d="M589.81,-252.99C621.87,-242.86 675.59,-225.87 711.39,-214.55"/>
<polygon fill="#63b8ff" stroke="#63b8ff" points="712.5,-217.87 720.98,-211.52 710.39,-211.19 712.5,-217.87"/>
</a>
</g>
</g>
<!-- Node29 -->
<g id="Node000029" class="node">
<title>Node29</title>
<g id="a_Node000029"><a xlink:title=" ">
<polygon fill="#e0e0e0" stroke="#999999" points="869.91,-211.5 805.91,-211.5 805.91,-192.5 869.91,-192.5 869.91,-211.5"/>
<text text-anchor="middle" x="837.91" y="-199.5" font-family="Helvetica,sans-Serif" font-size="10.00">algorithm</text>
</a>
</g>
</g>
<!-- Node1&#45;&gt;Node29 -->
<g id="edge40_Node000001_Node000029" class="edge">
<title>Node1&#45;&gt;Node29</title>
<g id="a_edge40_Node000001_Node000029"><a xlink:title=" ">
<path fill="none" stroke="#63b8ff" d="M620.16,-252.93C667.84,-245.24 737.34,-232.75 796.91,-217 799.55,-216.3 802.26,-215.52 804.97,-214.7"/>
<polygon fill="#63b8ff" stroke="#63b8ff" points="806.22,-217.97 814.67,-211.57 804.08,-211.31 806.22,-217.97"/>
</a>
</g>
</g>
<!-- Node30 -->
<g id="Node000030" class="node">
<title>Node30</title>
<g id="a_Node000030"><a xlink:title=" ">
<polygon fill="#e0e0e0" stroke="#999999" points="935.41,-211.5 888.41,-211.5 888.41,-192.5 935.41,-192.5 935.41,-211.5"/>
<text text-anchor="middle" x="911.91" y="-199.5" font-family="Helvetica,sans-Serif" font-size="10.00">cmath</text>
</a>
</g>
</g>
<!-- Node1&#45;&gt;Node30 -->
<g id="edge41_Node000001_Node000030" class="edge">
<title>Node1&#45;&gt;Node30</title>
<g id="a_edge41_Node000001_Node000030"><a xlink:title=" ">
<path fill="none" stroke="#63b8ff" d="M639.71,-256.33C704.42,-250.63 798.96,-239.17 878.91,-217 880.8,-216.48 882.72,-215.87 884.64,-215.21"/>
<polygon fill="#63b8ff" stroke="#63b8ff" points="885.99,-218.44 894.06,-211.58 883.47,-211.91 885.99,-218.44"/>
</a>
</g>
</g>
<!-- Node31 -->
<g id="Node000031" class="node">
<title>Node31</title>
<g id="a_Node000031"><a xlink:title=" ">
<polygon fill="#e0e0e0" stroke="#999999" points="1004.41,-211.5 953.41,-211.5 953.41,-192.5 1004.41,-192.5 1004.41,-211.5"/>
<text text-anchor="middle" x="978.91" y="-199.5" font-family="Helvetica,sans-Serif" font-size="10.00">errno.h</text>
</a>
</g>
</g>
<!-- Node1&#45;&gt;Node31 -->
<g id="edge42_Node000001_Node000031" class="edge">
<title>Node1&#45;&gt;Node31</title>
<g id="a_edge42_Node000001_Node000031"><a xlink:title=" ">
<path fill="none" stroke="#63b8ff" d="M639.42,-258.75C717.36,-254.53 841.17,-243.85 944.91,-217 947.07,-216.44 949.27,-215.77 951.47,-215.04"/>
<polygon fill="#63b8ff" stroke="#63b8ff" points="952.75,-218.3 960.87,-211.5 950.28,-211.74 952.75,-218.3"/>
</a>
</g>
</g>
<!-- Node32 -->
<g id="Node000032" class="node">
<title>Node32</title>
<g id="a_Node000032"><a xlink:title=" ">
<polygon fill="#e0e0e0" stroke="#999999" points="1078.91,-211.5 1022.91,-211.5 1022.91,-192.5 1078.91,-192.5 1078.91,-211.5"/>
<text text-anchor="middle" x="1050.91" y="-199.5" font-family="Helvetica,sans-Serif" font-size="10.00">sstream</text>
</a>
</g>
</g>
<!-- Node1&#45;&gt;Node32 -->
<g id="edge43_Node000001_Node000032" class="edge">
<title>Node1&#45;&gt;Node32</title>
<g id="a_edge43_Node000001_Node000032"><a xlink:title=" ">
<path fill="none" stroke="#63b8ff" d="M639.72,-260.05C730.28,-256.94 884.83,-247.23 1013.91,-217 1016.43,-216.41 1019,-215.69 1021.57,-214.9"/>
<polygon fill="#63b8ff" stroke="#63b8ff" points="1022.94,-218.12 1031.24,-211.54 1020.65,-211.51 1022.94,-218.12"/>
</a>
</g>
</g>
<!-- Node3 -->
<g id="Node000003" class="node">
<title>Node3</title>
<g id="a_Node000003"><a xlink:href="Colfer_8h.html" target="_top" xlink:title=" ">
<polygon fill="white" stroke="#666666" points="177.91,-151 41.91,-151 41.91,-121 177.91,-121 177.91,-151"/>
<text text-anchor="start" x="49.91" y="-139" font-family="Helvetica,sans-Serif" font-size="10.00">../../VGP_Data_Exchange</text>
<text text-anchor="middle" x="109.91" y="-128" font-family="Helvetica,sans-Serif" font-size="10.00">/C/Colfer.h</text>
</a>
</g>
</g>
<!-- Node2&#45;&gt;Node3 -->
<g id="edge2_Node000002_Node000003" class="edge">
<title>Node2&#45;&gt;Node3</title>
<g id="a_edge2_Node000002_Node000003"><a xlink:title=" ">
<path fill="none" stroke="#63b8ff" d="M279.48,-192.37C249.74,-182.66 200.68,-166.64 162.96,-154.32"/>
<polygon fill="#63b8ff" stroke="#63b8ff" points="163.73,-150.89 153.14,-151.12 161.56,-157.55 163.73,-150.89"/>
</a>
</g>
</g>
<!-- Node7 -->
<g id="Node000007" class="node">
<title>Node7</title>
<g id="a_Node000007"><a xlink:href="simulate_8hpp.html" target="_top" xlink:title=" ">
<polygon fill="white" stroke="#666666" points="377.91,-145.5 233.91,-145.5 233.91,-126.5 377.91,-126.5 377.91,-145.5"/>
<text text-anchor="middle" x="305.91" y="-133.5" font-family="Helvetica,sans-Serif" font-size="10.00">../simulation/simulate.hpp</text>
</a>
</g>
</g>
<!-- Node2&#45;&gt;Node7 -->
<g id="edge6_Node000002_Node000007" class="edge">
<title>Node2&#45;&gt;Node7</title>
<g id="a_edge6_Node000002_Node000007"><a xlink:title=" ">
<path fill="none" stroke="#63b8ff" d="M305.91,-192.37C305.91,-183.16 305.91,-168.29 305.91,-156.27"/>
<polygon fill="#63b8ff" stroke="#63b8ff" points="309.41,-155.91 305.91,-145.91 302.41,-155.91 309.41,-155.91"/>
</a>
</g>
</g>
<!-- Node4 -->
<g id="Node000004" class="node">
<title>Node4</title>
<g id="a_Node000004"><a xlink:title=" ">
<polygon fill="#e0e0e0" stroke="#999999" points="144.41,-85 91.41,-85 91.41,-66 144.41,-66 144.41,-85"/>
<text text-anchor="middle" x="117.91" y="-73" font-family="Helvetica,sans-Serif" font-size="10.00">limits.h</text>
</a>
</g>
</g>
<!-- Node3&#45;&gt;Node4 -->
<g id="edge3_Node000003_Node000004" class="edge">
<title>Node3&#45;&gt;Node4</title>
<g id="a_edge3_Node000003_Node000004"><a xlink:title=" ">
<path fill="none" stroke="#63b8ff" d="M111.85,-120.84C112.89,-113.21 114.19,-103.7 115.32,-95.45"/>
<polygon fill="#63b8ff" stroke="#63b8ff" points="118.82,-95.65 116.71,-85.27 111.89,-94.7 118.82,-95.65"/>
</a>
</g>
</g>
<!-- Node5 -->
<g id="Node000005" class="node">
<title>Node5</title>
<g id="a_Node000005"><a xlink:title=" ">
<polygon fill="#e0e0e0" stroke="#999999" points="215.41,-85 162.41,-85 162.41,-66 215.41,-66 215.41,-85"/>
<text text-anchor="middle" x="188.91" y="-73" font-family="Helvetica,sans-Serif" font-size="10.00">stdint.h</text>
</a>
</g>
</g>
<!-- Node3&#45;&gt;Node5 -->
<g id="edge4_Node000003_Node000005" class="edge">
<title>Node3&#45;&gt;Node5</title>
<g id="a_edge4_Node000003_Node000005"><a xlink:title=" ">
<path fill="none" stroke="#63b8ff" d="M129.03,-120.84C141.09,-111.91 156.62,-100.41 168.85,-91.35"/>
<polygon fill="#63b8ff" stroke="#63b8ff" points="171.12,-94.03 177.07,-85.27 166.95,-88.4 171.12,-94.03"/>
</a>
</g>
</g>
<!-- Node6 -->
<g id="Node000006" class="node">
<title>Node6</title>
<g id="a_Node000006"><a xlink:title=" ">
<polygon fill="#e0e0e0" stroke="#999999" points="73.41,-85 20.41,-85 20.41,-66 73.41,-66 73.41,-85"/>
<text text-anchor="middle" x="46.91" y="-73" font-family="Helvetica,sans-Serif" font-size="10.00">string.h</text>
</a>
</g>
</g>
<!-- Node3&#45;&gt;Node6 -->
<g id="edge5_Node000003_Node000006" class="edge">
<title>Node3&#45;&gt;Node6</title>
<g id="a_edge5_Node000003_Node000006"><a xlink:title=" ">
<path fill="none" stroke="#63b8ff" d="M94.66,-120.84C85.33,-112.17 73.38,-101.08 63.77,-92.15"/>
<polygon fill="#63b8ff" stroke="#63b8ff" points="66.06,-89.51 56.35,-85.27 61.3,-94.64 66.06,-89.51"/>
</a>
</g>
</g>
<!-- Node7&#45;&gt;Node8 -->
<g id="edge7_Node000007_Node000008" class="edge">
<title>Node7&#45;&gt;Node8</title>
<g id="a_edge7_Node000007_Node000008"><a xlink:title=" ">
<path fill="none" stroke="#63b8ff" d="M302.66,-126.37C299.54,-118.07 294.73,-105.28 290.76,-94.72"/>
<polygon fill="#63b8ff" stroke="#63b8ff" points="293.97,-93.3 287.17,-85.17 287.41,-95.76 293.97,-93.3"/>
</a>
</g>
</g>
<!-- Node7&#45;&gt;Node12 -->
<g id="edge11_Node000007_Node000012" class="edge">
<title>Node7&#45;&gt;Node12</title>
<g id="a_edge11_Node000007_Node000012"><a xlink:title=" ">
<path fill="none" stroke="#63b8ff" d="M324.81,-126.49C346.57,-116.7 382.53,-100.52 407.62,-89.23"/>
<polygon fill="#63b8ff" stroke="#63b8ff" points="409.3,-92.31 416.98,-85.02 406.43,-85.93 409.3,-92.31"/>
</a>
</g>
</g>
<!-- Node8&#45;&gt;Node9 -->
<g id="edge8_Node000008_Node000009" class="edge">
<title>Node8&#45;&gt;Node9</title>
<g id="a_edge8_Node000008_Node000009"><a xlink:title=" ">
<path fill="none" stroke="#63b8ff" d="M263.55,-65.99C239.91,-56.12 200.71,-39.73 173.66,-28.43"/>
<polygon fill="#63b8ff" stroke="#63b8ff" points="174.87,-25.14 164.29,-24.52 172.17,-31.6 174.87,-25.14"/>
</a>
</g>
</g>
<!-- Node8&#45;&gt;Node10 -->
<g id="edge9_Node000008_Node000010" class="edge">
<title>Node8&#45;&gt;Node10</title>
<g id="a_edge9_Node000008_Node000010"><a xlink:title=" ">
<path fill="none" stroke="#63b8ff" d="M289.52,-65.87C295.07,-57.31 303.74,-43.97 310.71,-33.24"/>
<polygon fill="#63b8ff" stroke="#63b8ff" points="313.77,-34.96 316.28,-24.67 307.9,-31.15 313.77,-34.96"/>
</a>
</g>
</g>
<!-- Node11 -->
<g id="Node000011" class="node">
<title>Node11</title>
<g id="a_Node000011"><a xlink:title=" ">
<polygon fill="#e0e0e0" stroke="#999999" points="469.91,-24.5 401.91,-24.5 401.91,-5.5 469.91,-5.5 469.91,-24.5"/>
<text text-anchor="middle" x="435.91" y="-12.5" font-family="Helvetica,sans-Serif" font-size="10.00">windows.h</text>
</a>
</g>
</g>
<!-- Node8&#45;&gt;Node11 -->
<g id="edge10_Node000008_Node000011" class="edge">
<title>Node8&#45;&gt;Node11</title>
<g id="a_edge10_Node000008_Node000011"><a xlink:title=" ">
<path fill="none" stroke="#63b8ff" d="M306.01,-65.99C331.9,-56.03 374.99,-39.45 404.38,-28.13"/>
<polygon fill="#63b8ff" stroke="#63b8ff" points="405.71,-31.38 413.78,-24.52 403.19,-24.84 405.71,-31.38"/>
</a>
</g>
</g>
<!-- Node12&#45;&gt;Node11 -->
<g id="edge12_Node000012_Node000011" class="edge">
<title>Node12&#45;&gt;Node11</title>
<g id="a_edge12_Node000012_Node000011"><a xlink:title=" ">
<path fill="none" stroke="#63b8ff" d="M435.91,-65.87C435.91,-57.75 435.91,-45.31 435.91,-34.89"/>
<polygon fill="#63b8ff" stroke="#63b8ff" points="439.41,-34.67 435.91,-24.67 432.41,-34.67 439.41,-34.67"/>
</a>
</g>
</g>
<!-- Node14 -->
<g id="Node000014" class="node">
<title>Node14</title>
<g id="a_Node000014"><a xlink:href="GameButtons_8h.html" target="_top" xlink:title=" ">
<polygon fill="white" stroke="#666666" points="640.91,-30 504.91,-30 504.91,0 640.91,0 640.91,-30"/>
<text text-anchor="start" x="512.91" y="-18" font-family="Helvetica,sans-Serif" font-size="10.00">../../VGP_Data_Exchange</text>
<text text-anchor="middle" x="572.91" y="-7" font-family="Helvetica,sans-Serif" font-size="10.00">/C/GameButtons.h</text>
</a>
</g>
</g>
<!-- Node13&#45;&gt;Node14 -->
<g id="edge14_Node000013_Node000014" class="edge">
<title>Node13&#45;&gt;Node14</title>
<g id="a_edge14_Node000013_Node000014"><a xlink:title=" ">
<path fill="none" stroke="#63b8ff" d="M676.32,-65.99C659.34,-57.79 633.08,-45.09 611.27,-34.55"/>
<polygon fill="#63b8ff" stroke="#63b8ff" points="612.76,-31.38 602.24,-30.18 609.71,-37.68 612.76,-31.38"/>
</a>
</g>
</g>
<!-- Node15 -->
<g id="Node000015" class="node">
<title>Node15</title>
<g id="a_Node000015"><a xlink:title=" ">
<polygon fill="#e0e0e0" stroke="#999999" points="920.41,-24.5 843.41,-24.5 843.41,-5.5 920.41,-5.5 920.41,-24.5"/>
<text text-anchor="middle" x="881.91" y="-12.5" font-family="Helvetica,sans-Serif" font-size="10.00">minwindef.h</text>
</a>
</g>
</g>
<!-- Node13&#45;&gt;Node15 -->
<g id="edge15_Node000013_Node000015" class="edge">
<title>Node13&#45;&gt;Node15</title>
<g id="a_edge15_Node000013_Node000015"><a xlink:title=" ">
<path fill="none" stroke="#63b8ff" d="M721.25,-65.99C753.83,-55.86 808.42,-38.87 844.8,-27.55"/>
<polygon fill="#63b8ff" stroke="#63b8ff" points="846.03,-30.83 854.54,-24.52 843.95,-24.15 846.03,-30.83"/>
</a>
</g>
</g>
<!-- Node16 -->
<g id="Node000016" class="node">
<title>Node16</title>
<g id="a_Node000016"><a xlink:title=" ">
<polygon fill="#e0e0e0" stroke="#999999" points="723.41,-24.5 664.41,-24.5 664.41,-5.5 723.41,-5.5 723.41,-24.5"/>
<text text-anchor="middle" x="693.91" y="-12.5" font-family="Helvetica,sans-Serif" font-size="10.00">qtypes.h</text>
</a>
</g>
</g>
<!-- Node13&#45;&gt;Node16 -->
<g id="edge16_Node000013_Node000016" class="edge">
<title>Node13&#45;&gt;Node16</title>
<g id="a_edge16_Node000013_Node000016"><a xlink:title=" ">
<path fill="none" stroke="#63b8ff" d="M693.91,-65.87C693.91,-57.75 693.91,-45.31 693.91,-34.89"/>
<polygon fill="#63b8ff" stroke="#63b8ff" points="697.41,-34.67 693.91,-24.67 690.41,-34.67 697.41,-34.67"/>
</a>
</g>
</g>
<!-- Node17&#45;&gt;Node11 -->
<g id="edge36_Node000017_Node000011" class="edge">
<title>Node17&#45;&gt;Node11</title>
<g id="a_edge36_Node000017_Node000011"><a xlink:title=" ">
<path fill="none" stroke="#63b8ff" d="M613.12,-186.87C598.28,-177.55 579.17,-164.59 563.91,-151 526.5,-117.69 524.78,-101.96 489.91,-66 478.14,-53.87 464.12,-40.92 453.31,-31.25"/>
<polygon fill="#63b8ff" stroke="#63b8ff" points="455.57,-28.57 445.77,-24.55 450.92,-33.8 455.57,-28.57"/>
</a>
</g>
</g>
<!-- Node17&#45;&gt;Node13 -->
<g id="edge19_Node000017_Node000013" class="edge">
<title>Node17&#45;&gt;Node13</title>
<g id="a_edge19_Node000017_Node000013"><a xlink:title=" ">
<path fill="none" stroke="#63b8ff" d="M690.69,-188.6C725.61,-179.34 766.5,-165.77 776.91,-151 784.59,-140.1 783.76,-132.44 776.91,-121 767.94,-106.01 752,-95.78 736.48,-88.95"/>
<polygon fill="#63b8ff" stroke="#63b8ff" points="737.51,-85.6 726.93,-85.13 734.91,-92.1 737.51,-85.6"/>
</a>
</g>
</g>
<!-- Node17&#45;&gt;Node14 -->
<g id="edge18_Node000017_Node000014" class="edge">
<title>Node17&#45;&gt;Node14</title>
<g id="a_edge18_Node000017_Node000014"><a xlink:title=" ">
<path fill="none" stroke="#63b8ff" d="M612.14,-186.98C599.49,-178.37 585.25,-166.09 577.91,-151 560.71,-115.62 563.91,-68.65 568.15,-40.46"/>
<polygon fill="#63b8ff" stroke="#63b8ff" points="571.65,-40.74 569.85,-30.3 564.75,-39.59 571.65,-40.74"/>
</a>
</g>
</g>
<!-- Node18 -->
<g id="Node000018" class="node">
<title>Node18</title>
<g id="a_Node000018"><a xlink:href="keymap__profile_8hpp.html" target="_top" xlink:title=" ">
<polygon fill="white" stroke="#666666" points="1013.41,-145.5 900.41,-145.5 900.41,-126.5 1013.41,-126.5 1013.41,-145.5"/>
<text text-anchor="middle" x="956.91" y="-133.5" font-family="Helvetica,sans-Serif" font-size="10.00">keymap_profile.hpp</text>
</a>
</g>
</g>
<!-- Node17&#45;&gt;Node18 -->
<g id="edge20_Node000017_Node000018" class="edge">
<title>Node17&#45;&gt;Node18</title>
<g id="a_edge20_Node000017_Node000018"><a xlink:title=" ">
<path fill="none" stroke="#63b8ff" d="M690.51,-188.98C693.69,-188.3 696.84,-187.64 699.91,-187 782.35,-169.87 803.27,-167.14 885.91,-151 891.68,-149.87 897.71,-148.69 903.71,-147.51"/>
<polygon fill="#63b8ff" stroke="#63b8ff" points="904.6,-150.9 913.74,-145.54 903.25,-144.03 904.6,-150.9"/>
</a>
</g>
</g>
<!-- Node20 -->
<g id="Node000020" class="node">
<title>Node20</title>
<g id="a_Node000020"><a xlink:title=" ">
<polygon fill="#e0e0e0" stroke="#999999" points="896.91,-85 840.91,-85 840.91,-66 896.91,-66 896.91,-85"/>
<text text-anchor="middle" x="868.91" y="-73" font-family="Helvetica,sans-Serif" font-size="10.00">QObject</text>
</a>
</g>
</g>
<!-- Node17&#45;&gt;Node20 -->
<g id="edge31_Node000017_Node000020" class="edge">
<title>Node17&#45;&gt;Node20</title>
<g id="a_edge31_Node000017_Node000020"><a xlink:title=" ">
<path fill="none" stroke="#63b8ff" d="M690.45,-187.63C738.36,-175.37 802.6,-158.08 812.91,-151 834.21,-136.38 850.72,-111.02 860.14,-94"/>
<polygon fill="#63b8ff" stroke="#63b8ff" points="863.27,-95.56 864.84,-85.09 857.08,-92.3 863.27,-95.56"/>
</a>
</g>
</g>
<!-- Node21 -->
<g id="Node000021" class="node">
<title>Node21</title>
<g id="a_Node000021"><a xlink:title=" ">
<polygon fill="#e0e0e0" stroke="#999999" points="1076.91,-85 1012.91,-85 1012.91,-66 1076.91,-66 1076.91,-85"/>
<text text-anchor="middle" x="1044.91" y="-73" font-family="Helvetica,sans-Serif" font-size="10.00">QSettings</text>
</a>
</g>
</g>
<!-- Node17&#45;&gt;Node21 -->
<g id="edge32_Node000017_Node000021" class="edge">
<title>Node17&#45;&gt;Node21</title>
<g id="a_edge32_Node000017_Node000021"><a xlink:title=" ">
<path fill="none" stroke="#63b8ff" d="M690.45,-188.69C693.64,-188.08 696.82,-187.51 699.91,-187 771.15,-175.15 967.55,-197.38 1022.91,-151 1039.19,-137.36 1043.77,-112.3 1044.88,-95.04"/>
<polygon fill="#63b8ff" stroke="#63b8ff" points="1048.38,-95.13 1045.19,-85.02 1041.38,-94.91 1048.38,-95.13"/>
</a>
</g>
</g>
<!-- Node22 -->
<g id="Node000022" class="node">
<title>Node22</title>
<g id="a_Node000022"><a xlink:title=" ">
<polygon fill="#e0e0e0" stroke="#999999" points="1148.41,-85 1095.41,-85 1095.41,-66 1148.41,-66 1148.41,-85"/>
<text text-anchor="middle" x="1121.91" y="-73" font-family="Helvetica,sans-Serif" font-size="10.00">QString</text>
</a>
</g>
</g>
<!-- Node17&#45;&gt;Node22 -->
<g id="edge33_Node000017_Node000022" class="edge">
<title>Node17&#45;&gt;Node22</title>
<g id="a_edge33_Node000017_Node000022"><a xlink:title=" ">
<path fill="none" stroke="#63b8ff" d="M690.45,-188.66C693.64,-188.07 696.81,-187.5 699.91,-187 852.07,-162.24 905.2,-216.17 1044.91,-151 1072.47,-138.14 1096.24,-111.32 1109.81,-93.62"/>
<polygon fill="#63b8ff" stroke="#63b8ff" points="1112.82,-95.43 1115.95,-85.31 1107.19,-91.27 1112.82,-95.43"/>
</a>
</g>
</g>
<!-- Node23 -->
<g id="Node000023" class="node">
<title>Node23</title>
<g id="a_Node000023"><a xlink:title=" ">
<polygon fill="#e0e0e0" stroke="#999999" points="822.91,-85 784.91,-85 784.91,-66 822.91,-66 822.91,-85"/>
<text text-anchor="middle" x="803.91" y="-73" font-family="Helvetica,sans-Serif" font-size="10.00">map</text>
</a>
</g>
</g>
<!-- Node17&#45;&gt;Node23 -->
<g id="edge35_Node000017_Node000023" class="edge">
<title>Node17&#45;&gt;Node23</title>
<g id="a_edge35_Node000017_Node000023"><a xlink:title=" ">
<path fill="none" stroke="#63b8ff" d="M690.19,-186.91C732.59,-175.22 785.94,-159.21 792.91,-151 805.97,-135.61 807.28,-111.69 806.26,-95.12"/>
<polygon fill="#63b8ff" stroke="#63b8ff" points="809.73,-94.65 805.3,-85.03 802.76,-95.31 809.73,-94.65"/>
</a>
</g>
</g>
<!-- Node24 -->
<g id="Node000024" class="node">
<title>Node24</title>
<g id="a_Node000024"><a xlink:title=" ">
<polygon fill="#e0e0e0" stroke="#999999" points="1145.91,-145.5 1107.91,-145.5 1107.91,-126.5 1145.91,-126.5 1145.91,-145.5"/>
<text text-anchor="middle" x="1126.91" y="-133.5" font-family="Helvetica,sans-Serif" font-size="10.00">QDir</text>
</a>
</g>
</g>
<!-- Node17&#45;&gt;Node24 -->
<g id="edge28_Node000017_Node000024" class="edge">
<title>Node17&#45;&gt;Node24</title>
<g id="a_edge28_Node000017_Node000024"><a xlink:title=" ">
<path fill="none" stroke="#63b8ff" d="M690.44,-188.62C693.64,-188.03 696.81,-187.48 699.91,-187 873.65,-159.87 923.37,-193.85 1093.91,-151 1095.86,-150.51 1097.84,-149.92 1099.81,-149.27"/>
<polygon fill="#63b8ff" stroke="#63b8ff" points="1101.35,-152.43 1109.45,-145.6 1098.86,-145.89 1101.35,-152.43"/>
</a>
</g>
</g>
<!-- Node25 -->
<g id="Node000025" class="node">
<title>Node25</title>
<g id="a_Node000025"><a xlink:title=" ">
<polygon fill="#e0e0e0" stroke="#999999" points="627.41,-145.5 586.41,-145.5 586.41,-126.5 627.41,-126.5 627.41,-145.5"/>
<text text-anchor="middle" x="606.91" y="-133.5" font-family="Helvetica,sans-Serif" font-size="10.00">QList</text>
</a>
</g>
</g>
<!-- Node17&#45;&gt;Node25 -->
<g id="edge29_Node000017_Node000025" class="edge">
<title>Node17&#45;&gt;Node25</title>
<g id="a_edge29_Node000017_Node000025"><a xlink:title=" ">
<path fill="none" stroke="#63b8ff" d="M630.25,-186.8C625.85,-177.41 620.04,-165.02 615.32,-154.95"/>
<polygon fill="#63b8ff" stroke="#63b8ff" points="618.47,-153.41 611.06,-145.84 612.13,-156.38 618.47,-153.41"/>
</a>
</g>
</g>
<!-- Node26 -->
<g id="Node000026" class="node">
<title>Node26</title>
<g id="a_Node000026"><a xlink:title=" ">
<polygon fill="#e0e0e0" stroke="#999999" points="690.41,-145.5 645.41,-145.5 645.41,-126.5 690.41,-126.5 690.41,-145.5"/>
<text text-anchor="middle" x="667.91" y="-133.5" font-family="Helvetica,sans-Serif" font-size="10.00">QMap</text>
</a>
</g>
</g>
<!-- Node17&#45;&gt;Node26 -->
<g id="edge30_Node000017_Node000026" class="edge">
<title>Node17&#45;&gt;Node26</title>
<g id="a_edge30_Node000017_Node000026"><a xlink:title=" ">
<path fill="none" stroke="#63b8ff" d="M643.79,-186.8C648.34,-177.41 654.34,-165.02 659.22,-154.95"/>
<polygon fill="#63b8ff" stroke="#63b8ff" points="662.42,-156.37 663.63,-145.84 656.12,-153.32 662.42,-156.37"/>
</a>
</g>
</g>
<!-- Node27 -->
<g id="Node000027" class="node">
<title>Node27</title>
<g id="a_Node000027"><a xlink:title=" ">
<polygon fill="#e0e0e0" stroke="#999999" points="767.41,-145.5 708.41,-145.5 708.41,-126.5 767.41,-126.5 767.41,-145.5"/>
<text text-anchor="middle" x="737.91" y="-133.5" font-family="Helvetica,sans-Serif" font-size="10.00">QVariant</text>
</a>
</g>
</g>
<!-- Node17&#45;&gt;Node27 -->
<g id="edge34_Node000017_Node000027" class="edge">
<title>Node17&#45;&gt;Node27</title>
<g id="a_edge34_Node000017_Node000027"><a xlink:title=" ">
<path fill="none" stroke="#63b8ff" d="M659.33,-186.8C676.1,-176.17 698.92,-161.7 715.66,-151.1"/>
<polygon fill="#63b8ff" stroke="#63b8ff" points="717.67,-153.97 724.25,-145.66 713.93,-148.05 717.67,-153.97"/>
</a>
</g>
</g>
<!-- Node18&#45;&gt;Node13 -->
<g id="edge21_Node000018_Node000013" class="edge">
<title>Node18&#45;&gt;Node13</title>
<g id="a_edge21_Node000018_Node000013"><a xlink:title=" ">
<path fill="none" stroke="#63b8ff" d="M918.67,-126.49C871.92,-116.1 792.78,-98.49 741.97,-87.19"/>
<polygon fill="#63b8ff" stroke="#63b8ff" points="742.72,-83.77 732.2,-85.02 741.2,-90.6 742.72,-83.77"/>
</a>
</g>
</g>
<!-- Node18&#45;&gt;Node15 -->
<g id="edge27_Node000018_Node000015" class="edge">
<title>Node18&#45;&gt;Node15</title>
<g id="a_edge27_Node000018_Node000015"><a xlink:title=" ">
<path fill="none" stroke="#63b8ff" d="M961.25,-126.28C967.44,-112.52 976.9,-85.32 965.91,-66 955.93,-48.45 937.09,-36.41 919.77,-28.55"/>
<polygon fill="#63b8ff" stroke="#63b8ff" points="920.95,-25.25 910.37,-24.61 918.24,-31.71 920.95,-25.25"/>
</a>
</g>
</g>
<!-- Node19 -->
<g id="Node000019" class="node">
<title>Node19</title>
<g id="a_Node000019"><a xlink:title=" ">
<polygon fill="#e0e0e0" stroke="#999999" points="956.41,-85 915.41,-85 915.41,-66 956.41,-66 956.41,-85"/>
<text text-anchor="middle" x="935.91" y="-73" font-family="Helvetica,sans-Serif" font-size="10.00">QFile</text>
</a>
</g>
</g>
<!-- Node18&#45;&gt;Node19 -->
<g id="edge22_Node000018_Node000019" class="edge">
<title>Node18&#45;&gt;Node19</title>
<g id="a_edge22_Node000018_Node000019"><a xlink:title=" ">
<path fill="none" stroke="#63b8ff" d="M953.81,-126.37C950.83,-118.07 946.24,-105.28 942.45,-94.72"/>
<polygon fill="#63b8ff" stroke="#63b8ff" points="945.69,-93.4 939.02,-85.17 939.11,-95.76 945.69,-93.4"/>
</a>
</g>
</g>
<!-- Node18&#45;&gt;Node20 -->
<g id="edge23_Node000018_Node000020" class="edge">
<title>Node18&#45;&gt;Node20</title>
<g id="a_edge23_Node000018_Node000020"><a xlink:title=" ">
<path fill="none" stroke="#63b8ff" d="M943.93,-126.37C929.89,-117.04 907.28,-102.01 890.55,-90.88"/>
<polygon fill="#63b8ff" stroke="#63b8ff" points="892.21,-87.79 881.95,-85.17 888.34,-93.62 892.21,-87.79"/>
</a>
</g>
</g>
<!-- Node18&#45;&gt;Node21 -->
<g id="edge24_Node000018_Node000021" class="edge">
<title>Node18&#45;&gt;Node21</title>
<g id="a_edge24_Node000018_Node000021"><a xlink:title=" ">
<path fill="none" stroke="#63b8ff" d="M969.9,-126.37C983.93,-117.04 1006.54,-102.01 1023.27,-90.88"/>
<polygon fill="#63b8ff" stroke="#63b8ff" points="1025.48,-93.62 1031.87,-85.17 1021.61,-87.79 1025.48,-93.62"/>
</a>
</g>
</g>
<!-- Node18&#45;&gt;Node22 -->
<g id="edge25_Node000018_Node000022" class="edge">
<title>Node18&#45;&gt;Node22</title>
<g id="a_edge25_Node000018_Node000022"><a xlink:title=" ">
<path fill="none" stroke="#63b8ff" d="M980.9,-126.49C1009.13,-116.49 1056.19,-99.8 1088.1,-88.49"/>
<polygon fill="#63b8ff" stroke="#63b8ff" points="1089.63,-91.66 1097.89,-85.02 1087.29,-85.06 1089.63,-91.66"/>
</a>
</g>
</g>
<!-- Node18&#45;&gt;Node23 -->
<g id="edge26_Node000018_Node000023" class="edge">
<title>Node18&#45;&gt;Node23</title>
<g id="a_edge26_Node000018_Node000023"><a xlink:title=" ">
<path fill="none" stroke="#63b8ff" d="M934.66,-126.49C907.71,-116.19 862.24,-98.8 832.65,-87.49"/>
<polygon fill="#63b8ff" stroke="#63b8ff" points="833.87,-84.21 823.28,-83.9 831.37,-90.75 833.87,-84.21"/>
</a>
</g>
</g>
</g>
</svg>
