<?xml version="1.0" encoding="UTF-8" standalone="no"?>
<!DOCTYPE svg PUBLIC "-//W3C//DTD SVG 1.1//EN"
 "http://www.w3.org/Graphics/SVG/1.1/DTD/svg11.dtd">
<!-- Generated by graphviz version 2.43.0 (0)
 -->
<!-- Title: src/networking/executor.hpp Pages: 1 -->
<svg width="1032pt" height="159pt"
 viewBox="0.00 0.00 1031.50 159.00" xmlns="http://www.w3.org/2000/svg" xmlns:xlink="http://www.w3.org/1999/xlink">
<g id="graph0" class="graph" transform="scale(1 1) rotate(0) translate(4 155)">
<title>src/networking/executor.hpp</title>
<!-- Node1 -->
<g id="Node000001" class="node">
<title>Node1</title>
<g id="a_Node000001"><a xlink:title=" ">
<polygon fill="#999999" stroke="#666666" points="677.5,-151 523.5,-151 523.5,-132 677.5,-132 677.5,-151"/>
<text text-anchor="middle" x="600.5" y="-139" font-family="Helvetica,sans-Serif" font-size="10.00">src/networking/executor.hpp</text>
</a>
</g>
</g>
<!-- Node2 -->
<g id="Node000002" class="node">
<title>Node2</title>
<g id="a_Node000002"><a xlink:href="Colfer_8h.html" target="_top" xlink:title=" ">
<polygon fill="white" stroke="#666666" points="201.5,-96 65.5,-96 65.5,-66 201.5,-66 201.5,-96"/>
<text text-anchor="start" x="73.5" y="-84" font-family="Helvetica,sans-Serif" font-size="10.00">../../VGP_Data_Exchange</text>
<text text-anchor="middle" x="133.5" y="-73" font-family="Helvetica,sans-Serif" font-size="10.00">/C/Colfer.h</text>
</a>
</g>
</g>
<!-- Node1&#45;&gt;Node2 -->
<g id="edge1_Node000001_Node000002" class="edge">
<title>Node1&#45;&gt;Node2</title>
<g id="a_edge1_Node000001_Node000002"><a xlink:title=" ">
<path fill="none" stroke="#63b8ff" d="M532.59,-131.99C447.46,-121.33 301.82,-103.09 212,-91.83"/>
<polygon fill="#63b8ff" stroke="#63b8ff" points="212.23,-88.33 201.87,-90.56 211.36,-95.28 212.23,-88.33"/>
</a>
</g>
</g>
<!-- Node6 -->
<g id="Node000006" class="node">
<title>Node6</title>
<g id="a_Node000006"><a xlink:href="input__types_8hpp.html" target="_top" xlink:title=" ">
<polygon fill="white" stroke="#666666" points="407.5,-90.5 261.5,-90.5 261.5,-71.5 407.5,-71.5 407.5,-90.5"/>
<text text-anchor="middle" x="334.5" y="-78.5" font-family="Helvetica,sans-Serif" font-size="10.00">../settings/input_types.hpp</text>
</a>
</g>
</g>
<!-- Node1&#45;&gt;Node6 -->
<g id="edge5_Node000001_Node000006" class="edge">
<title>Node1&#45;&gt;Node6</title>
<g id="a_edge5_Node000001_Node000006"><a xlink:title=" ">
<path fill="none" stroke="#63b8ff" d="M561.82,-131.99C514.54,-121.6 434.5,-103.99 383.1,-92.69"/>
<polygon fill="#63b8ff" stroke="#63b8ff" points="383.74,-89.25 373.23,-90.52 382.24,-96.08 383.74,-89.25"/>
</a>
</g>
</g>
<!-- Node10 -->
<g id="Node000010" class="node">
<title>Node10</title>
<g id="a_Node000010"><a xlink:href="gamepadSim_8hpp.html" target="_top" xlink:title=" ">
<polygon fill="white" stroke="#666666" points="775.5,-90.5 609.5,-90.5 609.5,-71.5 775.5,-71.5 775.5,-90.5"/>
<text text-anchor="middle" x="692.5" y="-78.5" font-family="Helvetica,sans-Serif" font-size="10.00">../simulation/gamepadSim.hpp</text>
</a>
</g>
</g>
<!-- Node1&#45;&gt;Node10 -->
<g id="edge9_Node000001_Node000010" class="edge">
<title>Node1&#45;&gt;Node10</title>
<g id="a_edge9_Node000001_Node000010"><a xlink:title=" ">
<path fill="none" stroke="#63b8ff" d="M614.07,-131.87C628.89,-122.45 652.83,-107.23 670.36,-96.08"/>
<polygon fill="#63b8ff" stroke="#63b8ff" points="672.31,-98.99 678.87,-90.67 668.55,-93.08 672.31,-98.99"/>
</a>
</g>
</g>
<!-- Node13 -->
<g id="Node000013" class="node">
<title>Node13</title>
<g id="a_Node000013"><a xlink:href="keyboardSim_8hpp.html" target="_top" xlink:title="Simulates keyboard input across platforms.">
<polygon fill="white" stroke="#666666" points="591,-90.5 426,-90.5 426,-71.5 591,-71.5 591,-90.5"/>
<text text-anchor="middle" x="508.5" y="-78.5" font-family="Helvetica,sans-Serif" font-size="10.00">../simulation/keyboardSim.hpp</text>
</a>
</g>
</g>
<!-- Node1&#45;&gt;Node13 -->
<g id="edge12_Node000001_Node000013" class="edge">
<title>Node1&#45;&gt;Node13</title>
<g id="a_edge12_Node000001_Node000013"><a xlink:title=" ">
<path fill="none" stroke="#63b8ff" d="M586.93,-131.87C572.11,-122.45 548.17,-107.23 530.64,-96.08"/>
<polygon fill="#63b8ff" stroke="#63b8ff" points="532.45,-93.08 522.13,-90.67 528.69,-98.99 532.45,-93.08"/>
</a>
</g>
</g>
<!-- Node16 -->
<g id="Node000016" class="node">
<title>Node16</title>
<g id="a_Node000016"><a xlink:href="mouseSim_8hpp.html" target="_top" xlink:title="Simulates mouse input across platforms.">
<polygon fill="white" stroke="#666666" points="947,-90.5 794,-90.5 794,-71.5 947,-71.5 947,-90.5"/>
<text text-anchor="middle" x="870.5" y="-78.5" font-family="Helvetica,sans-Serif" font-size="10.00">../simulation/mouseSim.hpp</text>
</a>
</g>
</g>
<!-- Node1&#45;&gt;Node16 -->
<g id="edge16_Node000001_Node000016" class="edge">
<title>Node1&#45;&gt;Node16</title>
<g id="a_edge16_Node000001_Node000016"><a xlink:title=" ">
<path fill="none" stroke="#63b8ff" d="M639.76,-131.99C687.75,-121.6 769,-103.99 821.17,-92.69"/>
<polygon fill="#63b8ff" stroke="#63b8ff" points="822.16,-96.05 831.19,-90.52 820.68,-89.21 822.16,-96.05"/>
</a>
</g>
</g>
<!-- Node17 -->
<g id="Node000017" class="node">
<title>Node17</title>
<g id="a_Node000017"><a xlink:title=" ">
<polygon fill="#e0e0e0" stroke="#999999" points="1023.5,-90.5 965.5,-90.5 965.5,-71.5 1023.5,-71.5 1023.5,-90.5"/>
<text text-anchor="middle" x="994.5" y="-78.5" font-family="Helvetica,sans-Serif" font-size="10.00">memory</text>
</a>
</g>
</g>
<!-- Node1&#45;&gt;Node17 -->
<g id="edge17_Node000001_Node000017" class="edge">
<title>Node1&#45;&gt;Node17</title>
<g id="a_edge17_Node000001_Node000017"><a xlink:title=" ">
<path fill="none" stroke="#63b8ff" d="M677.81,-135.95C750.54,-130.47 862.09,-118.97 956.5,-96 959.01,-95.39 961.58,-94.67 964.15,-93.87"/>
<polygon fill="#63b8ff" stroke="#63b8ff" points="965.52,-97.11 973.86,-90.58 963.27,-90.48 965.52,-97.11"/>
</a>
</g>
</g>
<!-- Node3 -->
<g id="Node000003" class="node">
<title>Node3</title>
<g id="a_Node000003"><a xlink:title=" ">
<polygon fill="#e0e0e0" stroke="#999999" points="53,-24.5 0,-24.5 0,-5.5 53,-5.5 53,-24.5"/>
<text text-anchor="middle" x="26.5" y="-12.5" font-family="Helvetica,sans-Serif" font-size="10.00">limits.h</text>
</a>
</g>
</g>
<!-- Node2&#45;&gt;Node3 -->
<g id="edge2_Node000002_Node000003" class="edge">
<title>Node2&#45;&gt;Node3</title>
<g id="a_edge2_Node000002_Node000003"><a xlink:title=" ">
<path fill="none" stroke="#63b8ff" d="M110.02,-65.95C92,-55.18 67.26,-40.38 49.39,-29.69"/>
<polygon fill="#63b8ff" stroke="#63b8ff" points="51.12,-26.65 40.74,-24.52 47.53,-32.65 51.12,-26.65"/>
</a>
</g>
</g>
<!-- Node4 -->
<g id="Node000004" class="node">
<title>Node4</title>
<g id="a_Node000004"><a xlink:title=" ">
<polygon fill="#e0e0e0" stroke="#999999" points="124,-24.5 71,-24.5 71,-5.5 124,-5.5 124,-24.5"/>
<text text-anchor="middle" x="97.5" y="-12.5" font-family="Helvetica,sans-Serif" font-size="10.00">stdint.h</text>
</a>
</g>
</g>
<!-- Node2&#45;&gt;Node4 -->
<g id="edge3_Node000002_Node000004" class="edge">
<title>Node2&#45;&gt;Node4</title>
<g id="a_edge3_Node000002_Node000004"><a xlink:title=" ">
<path fill="none" stroke="#63b8ff" d="M125.51,-65.8C120.17,-56.31 113.11,-43.76 107.42,-33.63"/>
<polygon fill="#63b8ff" stroke="#63b8ff" points="110.43,-31.84 102.47,-24.84 104.33,-35.28 110.43,-31.84"/>
</a>
</g>
</g>
<!-- Node5 -->
<g id="Node000005" class="node">
<title>Node5</title>
<g id="a_Node000005"><a xlink:title=" ">
<polygon fill="#e0e0e0" stroke="#999999" points="195,-24.5 142,-24.5 142,-5.5 195,-5.5 195,-24.5"/>
<text text-anchor="middle" x="168.5" y="-12.5" font-family="Helvetica,sans-Serif" font-size="10.00">string.h</text>
</a>
</g>
</g>
<!-- Node2&#45;&gt;Node5 -->
<g id="edge4_Node000002_Node000005" class="edge">
<title>Node2&#45;&gt;Node5</title>
<g id="a_edge4_Node000002_Node000005"><a xlink:title=" ">
<path fill="none" stroke="#63b8ff" d="M141.27,-65.8C146.46,-56.31 153.32,-43.76 158.86,-33.63"/>
<polygon fill="#63b8ff" stroke="#63b8ff" points="161.94,-35.3 163.66,-24.84 155.79,-31.94 161.94,-35.3"/>
</a>
</g>
</g>
<!-- Node7 -->
<g id="Node000007" class="node">
<title>Node7</title>
<g id="a_Node000007"><a xlink:href="GameButtons_8h.html" target="_top" xlink:title=" ">
<polygon fill="white" stroke="#666666" points="349.5,-30 213.5,-30 213.5,0 349.5,0 349.5,-30"/>
<text text-anchor="start" x="221.5" y="-18" font-family="Helvetica,sans-Serif" font-size="10.00">../../VGP_Data_Exchange</text>
<text text-anchor="middle" x="281.5" y="-7" font-family="Helvetica,sans-Serif" font-size="10.00">/C/GameButtons.h</text>
</a>
</g>
</g>
<!-- Node6&#45;&gt;Node7 -->
<g id="edge6_Node000006_Node000007" class="edge">
<title>Node6&#45;&gt;Node7</title>
<g id="a_edge6_Node000006_Node000007"><a xlink:title=" ">
<path fill="none" stroke="#63b8ff" d="M327.35,-71.37C320.35,-62.91 309.38,-49.67 299.93,-38.25"/>
<polygon fill="#63b8ff" stroke="#63b8ff" points="302.47,-35.83 293.39,-30.36 297.07,-40.29 302.47,-35.83"/>
</a>
</g>
</g>
<!-- Node8 -->
<g id="Node000008" class="node">
<title>Node8</title>
<g id="a_Node000008"><a xlink:title=" ">
<polygon fill="#e0e0e0" stroke="#999999" points="468,-24.5 415,-24.5 415,-5.5 468,-5.5 468,-24.5"/>
<text text-anchor="middle" x="441.5" y="-12.5" font-family="Helvetica,sans-Serif" font-size="10.00">QString</text>
</a>
</g>
</g>
<!-- Node6&#45;&gt;Node8 -->
<g id="edge7_Node000006_Node000008" class="edge">
<title>Node6&#45;&gt;Node8</title>
<g id="a_edge7_Node000006_Node000008"><a xlink:title=" ">
<path fill="none" stroke="#63b8ff" d="M348.93,-71.37C366.72,-60.73 397.18,-42.51 418.28,-29.89"/>
<polygon fill="#63b8ff" stroke="#63b8ff" points="420.17,-32.84 426.96,-24.7 416.58,-26.83 420.17,-32.84"/>
</a>
</g>
</g>
<!-- Node9 -->
<g id="Node000009" class="node">
<title>Node9</title>
<g id="a_Node000009"><a xlink:title=" ">
<polygon fill="#e0e0e0" stroke="#999999" points="397,-24.5 368,-24.5 368,-5.5 397,-5.5 397,-24.5"/>
<text text-anchor="middle" x="382.5" y="-12.5" font-family="Helvetica,sans-Serif" font-size="10.00">Qt</text>
</a>
</g>
</g>
<!-- Node6&#45;&gt;Node9 -->
<g id="edge8_Node000006_Node000009" class="edge">
<title>Node6&#45;&gt;Node9</title>
<g id="a_edge8_Node000006_Node000009"><a xlink:title=" ">
<path fill="none" stroke="#63b8ff" d="M340.97,-71.37C348.3,-61.59 360.43,-45.42 369.69,-33.08"/>
<polygon fill="#63b8ff" stroke="#63b8ff" points="372.62,-35.01 375.82,-24.91 367.02,-30.81 372.62,-35.01"/>
</a>
</g>
</g>
<!-- Node11 -->
<g id="Node000011" class="node">
<title>Node11</title>
<g id="a_Node000011"><a xlink:title=" ">
<polygon fill="#e0e0e0" stroke="#999999" points="695.5,-24.5 639.5,-24.5 639.5,-5.5 695.5,-5.5 695.5,-24.5"/>
<text text-anchor="middle" x="667.5" y="-12.5" font-family="Helvetica,sans-Serif" font-size="10.00">QDebug</text>
</a>
</g>
</g>
<!-- Node10&#45;&gt;Node11 -->
<g id="edge10_Node000010_Node000011" class="edge">
<title>Node10&#45;&gt;Node11</title>
<g id="a_edge10_Node000010_Node000011"><a xlink:title=" ">
<path fill="none" stroke="#63b8ff" d="M689.13,-71.37C685.46,-61.97 679.48,-46.67 674.74,-34.53"/>
<polygon fill="#63b8ff" stroke="#63b8ff" points="677.88,-32.95 670.98,-24.91 671.36,-35.49 677.88,-32.95"/>
</a>
</g>
</g>
<!-- Node12 -->
<g id="Node000012" class="node">
<title>Node12</title>
<g id="a_Node000012"><a xlink:title=" ">
<polygon fill="#e0e0e0" stroke="#999999" points="761,-24.5 714,-24.5 714,-5.5 761,-5.5 761,-24.5"/>
<text text-anchor="middle" x="737.5" y="-12.5" font-family="Helvetica,sans-Serif" font-size="10.00">cmath</text>
</a>
</g>
</g>
<!-- Node10&#45;&gt;Node12 -->
<g id="edge11_Node000010_Node000012" class="edge">
<title>Node10&#45;&gt;Node12</title>
<g id="a_edge11_Node000010_Node000012"><a xlink:title=" ">
<path fill="none" stroke="#63b8ff" d="M698.57,-71.37C705.37,-61.69 716.59,-45.74 725.24,-33.44"/>
<polygon fill="#63b8ff" stroke="#63b8ff" points="728.35,-35.1 731.24,-24.91 722.62,-31.07 728.35,-35.1"/>
</a>
</g>
</g>
<!-- Node13&#45;&gt;Node8 -->
<g id="edge13_Node000013_Node000008" class="edge">
<title>Node13&#45;&gt;Node8</title>
<g id="a_edge13_Node000013_Node000008"><a xlink:title=" ">
<path fill="none" stroke="#63b8ff" d="M499.46,-71.37C488.93,-61.31 471.31,-44.48 458.26,-32.01"/>
<polygon fill="#63b8ff" stroke="#63b8ff" points="460.47,-29.28 450.82,-24.91 455.64,-34.34 460.47,-29.28"/>
</a>
</g>
</g>
<!-- Node14 -->
<g id="Node000014" class="node">
<title>Node14</title>
<g id="a_Node000014"><a xlink:title=" ">
<polygon fill="#e0e0e0" stroke="#999999" points="530.5,-24.5 486.5,-24.5 486.5,-5.5 530.5,-5.5 530.5,-24.5"/>
<text text-anchor="middle" x="508.5" y="-12.5" font-family="Helvetica,sans-Serif" font-size="10.00">string</text>
</a>
</g>
</g>
<!-- Node13&#45;&gt;Node14 -->
<g id="edge14_Node000013_Node000014" class="edge">
<title>Node13&#45;&gt;Node14</title>
<g id="a_edge14_Node000013_Node000014"><a xlink:title=" ">
<path fill="none" stroke="#63b8ff" d="M508.5,-71.37C508.5,-62.16 508.5,-47.29 508.5,-35.27"/>
<polygon fill="#63b8ff" stroke="#63b8ff" points="512,-34.91 508.5,-24.91 505,-34.91 512,-34.91"/>
</a>
</g>
</g>
<!-- Node15 -->
<g id="Node000015" class="node">
<title>Node15</title>
<g id="a_Node000015"><a xlink:title=" ">
<polygon fill="#e0e0e0" stroke="#999999" points="596,-24.5 549,-24.5 549,-5.5 596,-5.5 596,-24.5"/>
<text text-anchor="middle" x="572.5" y="-12.5" font-family="Helvetica,sans-Serif" font-size="10.00">vector</text>
</a>
</g>
</g>
<!-- Node13&#45;&gt;Node15 -->
<g id="edge15_Node000013_Node000015" class="edge">
<title>Node13&#45;&gt;Node15</title>
<g id="a_edge15_Node000013_Node000015"><a xlink:title=" ">
<path fill="none" stroke="#63b8ff" d="M517.13,-71.37C527.19,-61.31 544.02,-44.48 556.49,-32.01"/>
<polygon fill="#63b8ff" stroke="#63b8ff" points="559,-34.45 563.59,-24.91 554.05,-29.5 559,-34.45"/>
</a>
</g>
</g>
</g>
</svg>
