<?xml version="1.0" encoding="UTF-8" standalone="no"?>
<!DOCTYPE svg PUBLIC "-//W3C//DTD SVG 1.1//EN"
 "http://www.w3.org/Graphics/SVG/1.1/DTD/svg11.dtd">
<!-- Generated by graphviz version 2.43.0 (0)
 -->
<!-- Title: src/networking/executor.hpp Pages: 1 -->
<svg width="551pt" height="203pt"
 viewBox="0.00 0.00 551.00 203.00" xmlns="http://www.w3.org/2000/svg" xmlns:xlink="http://www.w3.org/1999/xlink">
<g id="graph0" class="graph" transform="scale(1 1) rotate(0) translate(4 199)">
<title>src/networking/executor.hpp</title>
<!-- Node1 -->
<g id="Node000001" class="node">
<title>Node1</title>
<g id="a_Node000001"><a xlink:title=" ">
<polygon fill="#999999" stroke="#666666" points="407.5,-195 253.5,-195 253.5,-176 407.5,-176 407.5,-195"/>
<text text-anchor="middle" x="330.5" y="-183" font-family="Helvetica,sans-Serif" font-size="10.00">src/networking/executor.hpp</text>
</a>
</g>
</g>
<!-- Node2 -->
<g id="Node000002" class="node">
<title>Node2</title>
<g id="a_Node000002"><a xlink:href="Colfer_8h.html" target="_top" xlink:title=" ">
<polygon fill="white" stroke="#666666" points="165.5,-140 29.5,-140 29.5,-110 165.5,-110 165.5,-140"/>
<text text-anchor="start" x="37.5" y="-128" font-family="Helvetica,sans-Serif" font-size="10.00">../../VGP_Data_Exchange</text>
<text text-anchor="middle" x="97.5" y="-117" font-family="Helvetica,sans-Serif" font-size="10.00">/C/Colfer.h</text>
</a>
</g>
</g>
<!-- Node1&#45;&gt;Node2 -->
<g id="edge1_Node000001_Node000002" class="edge">
<title>Node1&#45;&gt;Node2</title>
<g id="a_edge1_Node000001_Node000002"><a xlink:title=" ">
<path fill="none" stroke="#63b8ff" d="M296.62,-175.99C261.84,-167.26 206.83,-153.45 163.43,-142.55"/>
<polygon fill="#63b8ff" stroke="#63b8ff" points="164.07,-139.1 153.52,-140.06 162.36,-145.89 164.07,-139.1"/>
</a>
</g>
</g>
<!-- Node6 -->
<g id="Node000006" class="node">
<title>Node6</title>
<g id="a_Node000006"><a xlink:href="GameButtons_8h.html" target="_top" xlink:title=" ">
<polygon fill="white" stroke="#666666" points="319.5,-140 183.5,-140 183.5,-110 319.5,-110 319.5,-140"/>
<text text-anchor="start" x="191.5" y="-128" font-family="Helvetica,sans-Serif" font-size="10.00">../../VGP_Data_Exchange</text>
<text text-anchor="middle" x="251.5" y="-117" font-family="Helvetica,sans-Serif" font-size="10.00">/C/GameButtons.h</text>
</a>
</g>
</g>
<!-- Node1&#45;&gt;Node6 -->
<g id="edge5_Node000001_Node000006" class="edge">
<title>Node1&#45;&gt;Node6</title>
<g id="a_edge5_Node000001_Node000006"><a xlink:title=" ">
<path fill="none" stroke="#63b8ff" d="M318.84,-175.87C308.32,-168.08 292.44,-156.32 278.74,-146.17"/>
<polygon fill="#63b8ff" stroke="#63b8ff" points="280.68,-143.25 270.56,-140.11 276.51,-148.88 280.68,-143.25"/>
</a>
</g>
</g>
<!-- Node7 -->
<g id="Node000007" class="node">
<title>Node7</title>
<g id="a_Node000007"><a xlink:href="simulate_8hpp.html" target="_top" xlink:title=" ">
<polygon fill="white" stroke="#666666" points="481.5,-134.5 337.5,-134.5 337.5,-115.5 481.5,-115.5 481.5,-134.5"/>
<text text-anchor="middle" x="409.5" y="-122.5" font-family="Helvetica,sans-Serif" font-size="10.00">../simulation/simulate.hpp</text>
</a>
</g>
</g>
<!-- Node1&#45;&gt;Node7 -->
<g id="edge6_Node000001_Node000007" class="edge">
<title>Node1&#45;&gt;Node7</title>
<g id="a_edge6_Node000001_Node000007"><a xlink:title=" ">
<path fill="none" stroke="#63b8ff" d="M342.16,-175.87C354.64,-166.62 374.68,-151.78 389.66,-140.69"/>
<polygon fill="#63b8ff" stroke="#63b8ff" points="391.84,-143.43 397.8,-134.67 387.68,-137.81 391.84,-143.43"/>
</a>
</g>
</g>
<!-- Node13 -->
<g id="Node000013" class="node">
<title>Node13</title>
<g id="a_Node000013"><a xlink:title=" ">
<polygon fill="#e0e0e0" stroke="#999999" points="537.5,-134.5 499.5,-134.5 499.5,-115.5 537.5,-115.5 537.5,-134.5"/>
<text text-anchor="middle" x="518.5" y="-122.5" font-family="Helvetica,sans-Serif" font-size="10.00">map</text>
</a>
</g>
</g>
<!-- Node1&#45;&gt;Node13 -->
<g id="edge13_Node000001_Node000013" class="edge">
<title>Node1&#45;&gt;Node13</title>
<g id="a_edge13_Node000001_Node000013"><a xlink:title=" ">
<path fill="none" stroke="#63b8ff" d="M368.99,-176C401.82,-168.23 450,-155.59 490.5,-140 491.51,-139.61 492.54,-139.19 493.57,-138.76"/>
<polygon fill="#63b8ff" stroke="#63b8ff" points="495.13,-141.9 502.75,-134.54 492.2,-135.54 495.13,-141.9"/>
</a>
</g>
</g>
<!-- Node3 -->
<g id="Node000003" class="node">
<title>Node3</title>
<g id="a_Node000003"><a xlink:title=" ">
<polygon fill="#e0e0e0" stroke="#999999" points="53,-74 0,-74 0,-55 53,-55 53,-74"/>
<text text-anchor="middle" x="26.5" y="-62" font-family="Helvetica,sans-Serif" font-size="10.00">limits.h</text>
</a>
</g>
</g>
<!-- Node2&#45;&gt;Node3 -->
<g id="edge2_Node000002_Node000003" class="edge">
<title>Node2&#45;&gt;Node3</title>
<g id="a_edge2_Node000002_Node000003"><a xlink:title=" ">
<path fill="none" stroke="#63b8ff" d="M80.31,-109.84C69.69,-101.09 56.06,-89.85 45.17,-80.88"/>
<polygon fill="#63b8ff" stroke="#63b8ff" points="47.08,-77.92 37.14,-74.27 42.63,-83.33 47.08,-77.92"/>
</a>
</g>
</g>
<!-- Node4 -->
<g id="Node000004" class="node">
<title>Node4</title>
<g id="a_Node000004"><a xlink:title=" ">
<polygon fill="#e0e0e0" stroke="#999999" points="124,-74 71,-74 71,-55 124,-55 124,-74"/>
<text text-anchor="middle" x="97.5" y="-62" font-family="Helvetica,sans-Serif" font-size="10.00">stdint.h</text>
</a>
</g>
</g>
<!-- Node2&#45;&gt;Node4 -->
<g id="edge3_Node000002_Node000004" class="edge">
<title>Node2&#45;&gt;Node4</title>
<g id="a_edge3_Node000002_Node000004"><a xlink:title=" ">
<path fill="none" stroke="#63b8ff" d="M97.5,-109.84C97.5,-102.21 97.5,-92.7 97.5,-84.45"/>
<polygon fill="#63b8ff" stroke="#63b8ff" points="101,-84.27 97.5,-74.27 94,-84.27 101,-84.27"/>
</a>
</g>
</g>
<!-- Node5 -->
<g id="Node000005" class="node">
<title>Node5</title>
<g id="a_Node000005"><a xlink:title=" ">
<polygon fill="#e0e0e0" stroke="#999999" points="195,-74 142,-74 142,-55 195,-55 195,-74"/>
<text text-anchor="middle" x="168.5" y="-62" font-family="Helvetica,sans-Serif" font-size="10.00">string.h</text>
</a>
</g>
</g>
<!-- Node2&#45;&gt;Node5 -->
<g id="edge4_Node000002_Node000005" class="edge">
<title>Node2&#45;&gt;Node5</title>
<g id="a_edge4_Node000002_Node000005"><a xlink:title=" ">
<path fill="none" stroke="#63b8ff" d="M114.69,-109.84C125.31,-101.09 138.94,-89.85 149.83,-80.88"/>
<polygon fill="#63b8ff" stroke="#63b8ff" points="152.37,-83.33 157.86,-74.27 147.92,-77.92 152.37,-83.33"/>
</a>
</g>
</g>
<!-- Node8 -->
<g id="Node000008" class="node">
<title>Node8</title>
<g id="a_Node000008"><a xlink:href="keyboardSim_8hpp.html" target="_top" xlink:title="Simulates keyboard input in Windows.">
<polygon fill="white" stroke="#666666" points="516,-74 415,-74 415,-55 516,-55 516,-74"/>
<text text-anchor="middle" x="465.5" y="-62" font-family="Helvetica,sans-Serif" font-size="10.00">keyboardSim.hpp</text>
</a>
</g>
</g>
<!-- Node7&#45;&gt;Node8 -->
<g id="edge7_Node000007_Node000008" class="edge">
<title>Node7&#45;&gt;Node8</title>
<g id="a_edge7_Node000007_Node000008"><a xlink:title=" ">
<path fill="none" stroke="#63b8ff" d="M417.76,-115.37C426.28,-106.47 439.76,-92.39 450.23,-81.45"/>
<polygon fill="#63b8ff" stroke="#63b8ff" points="452.82,-83.81 457.2,-74.17 447.76,-78.97 452.82,-83.81"/>
</a>
</g>
</g>
<!-- Node12 -->
<g id="Node000012" class="node">
<title>Node12</title>
<g id="a_Node000012"><a xlink:href="mouseSim_8hpp.html" target="_top" xlink:title="Simulates mouse input in Windows.">
<polygon fill="white" stroke="#666666" points="397,-74 308,-74 308,-55 397,-55 397,-74"/>
<text text-anchor="middle" x="352.5" y="-62" font-family="Helvetica,sans-Serif" font-size="10.00">mouseSim.hpp</text>
</a>
</g>
</g>
<!-- Node7&#45;&gt;Node12 -->
<g id="edge11_Node000007_Node000012" class="edge">
<title>Node7&#45;&gt;Node12</title>
<g id="a_edge11_Node000007_Node000012"><a xlink:title=" ">
<path fill="none" stroke="#63b8ff" d="M401.09,-115.37C392.42,-106.47 378.7,-92.39 368.04,-81.45"/>
<polygon fill="#63b8ff" stroke="#63b8ff" points="370.43,-78.89 360.95,-74.17 365.42,-83.77 370.43,-78.89"/>
</a>
</g>
</g>
<!-- Node9 -->
<g id="Node000009" class="node">
<title>Node9</title>
<g id="a_Node000009"><a xlink:title=" ">
<polygon fill="#e0e0e0" stroke="#999999" points="405.5,-19 337.5,-19 337.5,0 405.5,0 405.5,-19"/>
<text text-anchor="middle" x="371.5" y="-7" font-family="Helvetica,sans-Serif" font-size="10.00">windows.h</text>
</a>
</g>
</g>
<!-- Node8&#45;&gt;Node9 -->
<g id="edge8_Node000008_Node000009" class="edge">
<title>Node8&#45;&gt;Node9</title>
<g id="a_edge8_Node000008_Node000009"><a xlink:title=" ">
<path fill="none" stroke="#63b8ff" d="M450.4,-54.98C435.68,-46.69 413.08,-33.94 395.83,-24.22"/>
<polygon fill="#63b8ff" stroke="#63b8ff" points="397.31,-21.03 386.88,-19.17 393.87,-27.13 397.31,-21.03"/>
</a>
</g>
</g>
<!-- Node10 -->
<g id="Node000010" class="node">
<title>Node10</title>
<g id="a_Node000010"><a xlink:title=" ">
<polygon fill="#e0e0e0" stroke="#999999" points="477.5,-19 433.5,-19 433.5,0 477.5,0 477.5,-19"/>
<text text-anchor="middle" x="455.5" y="-7" font-family="Helvetica,sans-Serif" font-size="10.00">string</text>
</a>
</g>
</g>
<!-- Node8&#45;&gt;Node10 -->
<g id="edge9_Node000008_Node000010" class="edge">
<title>Node8&#45;&gt;Node10</title>
<g id="a_edge9_Node000008_Node000010"><a xlink:title=" ">
<path fill="none" stroke="#63b8ff" d="M463.85,-54.75C462.54,-47.8 460.66,-37.85 459.02,-29.13"/>
<polygon fill="#63b8ff" stroke="#63b8ff" points="462.41,-28.27 457.12,-19.09 455.54,-29.56 462.41,-28.27"/>
</a>
</g>
</g>
<!-- Node11 -->
<g id="Node000011" class="node">
<title>Node11</title>
<g id="a_Node000011"><a xlink:title=" ">
<polygon fill="#e0e0e0" stroke="#999999" points="543,-19 496,-19 496,0 543,0 543,-19"/>
<text text-anchor="middle" x="519.5" y="-7" font-family="Helvetica,sans-Serif" font-size="10.00">vector</text>
</a>
</g>
</g>
<!-- Node8&#45;&gt;Node11 -->
<g id="edge10_Node000008_Node000011" class="edge">
<title>Node8&#45;&gt;Node11</title>
<g id="a_edge10_Node000008_Node000011"><a xlink:title=" ">
<path fill="none" stroke="#63b8ff" d="M474.42,-54.75C482.28,-47.03 493.93,-35.6 503.42,-26.28"/>
<polygon fill="#63b8ff" stroke="#63b8ff" points="506.06,-28.59 510.75,-19.09 501.16,-23.6 506.06,-28.59"/>
</a>
</g>
</g>
<!-- Node12&#45;&gt;Node9 -->
<g id="edge12_Node000012_Node000009" class="edge">
<title>Node12&#45;&gt;Node9</title>
<g id="a_edge12_Node000012_Node000009"><a xlink:title=" ">
<path fill="none" stroke="#63b8ff" d="M355.64,-54.75C358.18,-47.65 361.86,-37.4 365.03,-28.56"/>
<polygon fill="#63b8ff" stroke="#63b8ff" points="368.34,-29.68 368.42,-19.09 361.75,-27.32 368.34,-29.68"/>
</a>
</g>
</g>
</g>
</svg>
