<?xml version="1.0" encoding="UTF-8" standalone="no"?>
<!DOCTYPE svg PUBLIC "-//W3C//DTD SVG 1.1//EN"
 "http://www.w3.org/Graphics/SVG/1.1/DTD/svg11.dtd">
<!-- Generated by graphviz version 2.43.0 (0)
 -->
<!-- Title: src/networking/executor.cpp Pages: 1 -->
<svg width="1668pt" height="280pt"
 viewBox="0.00 0.00 1667.50 280.00" xmlns="http://www.w3.org/2000/svg" xmlns:xlink="http://www.w3.org/1999/xlink">
<g id="graph0" class="graph" transform="scale(1 1) rotate(0) translate(4 276)">
<title>src/networking/executor.cpp</title>
<!-- Node1 -->
<g id="Node000001" class="node">
<title>Node1</title>
<g id="a_Node000001"><a xlink:title=" ">
<polygon fill="#999999" stroke="#666666" points="1307,-272 1154,-272 1154,-253 1307,-253 1307,-272"/>
<text text-anchor="middle" x="1230.5" y="-260" font-family="Helvetica,sans-Serif" font-size="10.00">src/networking/executor.cpp</text>
</a>
</g>
</g>
<!-- Node2 -->
<g id="Node000002" class="node">
<title>Node2</title>
<g id="a_Node000002"><a xlink:href="executor_8hpp.html" target="_top" xlink:title=" ">
<polygon fill="white" stroke="#666666" points="1155,-211.5 1076,-211.5 1076,-192.5 1155,-192.5 1155,-211.5"/>
<text text-anchor="middle" x="1115.5" y="-199.5" font-family="Helvetica,sans-Serif" font-size="10.00">executor.hpp</text>
</a>
</g>
</g>
<!-- Node1&#45;&gt;Node2 -->
<g id="edge1_Node000001_Node000002" class="edge">
<title>Node1&#45;&gt;Node2</title>
<g id="a_edge1_Node000001_Node000002"><a xlink:title=" ">
<path fill="none" stroke="#63b8ff" d="M1213.53,-252.87C1194.59,-243.23 1163.71,-227.53 1141.67,-216.31"/>
<polygon fill="#63b8ff" stroke="#63b8ff" points="1143.04,-213.08 1132.54,-211.67 1139.86,-219.32 1143.04,-213.08"/>
</a>
</g>
</g>
<!-- Node7 -->
<g id="Node000007" class="node">
<title>Node7</title>
<g id="a_Node000007"><a xlink:href="input__types_8hpp.html" target="_top" xlink:title=" ">
<polygon fill="white" stroke="#666666" points="719.5,-85 573.5,-85 573.5,-66 719.5,-66 719.5,-85"/>
<text text-anchor="middle" x="646.5" y="-73" font-family="Helvetica,sans-Serif" font-size="10.00">../settings/input_types.hpp</text>
</a>
</g>
</g>
<!-- Node1&#45;&gt;Node7 -->
<g id="edge19_Node000001_Node000007" class="edge">
<title>Node1&#45;&gt;Node7</title>
<g id="a_edge19_Node000001_Node000007"><a xlink:title=" ">
<path fill="none" stroke="#63b8ff" d="M1153.71,-260.82C1040.59,-258.69 835.53,-250.2 770.5,-217 715.33,-188.83 673.64,-124.85 655.89,-93.9"/>
<polygon fill="#63b8ff" stroke="#63b8ff" points="658.91,-92.13 650.98,-85.1 652.79,-95.54 658.91,-92.13"/>
</a>
</g>
</g>
<!-- Node11 -->
<g id="Node000011" class="node">
<title>Node11</title>
<g id="a_Node000011"><a xlink:href="gamepadSim_8hpp.html" target="_top" xlink:title=" ">
<polygon fill="white" stroke="#666666" points="1405.5,-145.5 1239.5,-145.5 1239.5,-126.5 1405.5,-126.5 1405.5,-145.5"/>
<text text-anchor="middle" x="1322.5" y="-133.5" font-family="Helvetica,sans-Serif" font-size="10.00">../simulation/gamepadSim.hpp</text>
</a>
</g>
</g>
<!-- Node1&#45;&gt;Node11 -->
<g id="edge37_Node000001_Node000011" class="edge">
<title>Node1&#45;&gt;Node11</title>
<g id="a_edge37_Node000001_Node000011"><a xlink:title=" ">
<path fill="none" stroke="#63b8ff" d="M1234.62,-252.8C1241.61,-238.43 1256.7,-209.12 1273.5,-187 1283.01,-174.47 1295.43,-161.83 1305.38,-152.4"/>
<polygon fill="#63b8ff" stroke="#63b8ff" points="1307.78,-154.95 1312.73,-145.58 1303.02,-149.81 1307.78,-154.95"/>
</a>
</g>
</g>
<!-- Node12 -->
<g id="Node000012" class="node">
<title>Node12</title>
<g id="a_Node000012"><a xlink:title=" ">
<polygon fill="#e0e0e0" stroke="#999999" points="1318.5,-85 1262.5,-85 1262.5,-66 1318.5,-66 1318.5,-85"/>
<text text-anchor="middle" x="1290.5" y="-73" font-family="Helvetica,sans-Serif" font-size="10.00">QDebug</text>
</a>
</g>
</g>
<!-- Node1&#45;&gt;Node12 -->
<g id="edge41_Node000001_Node000012" class="edge">
<title>Node1&#45;&gt;Node12</title>
<g id="a_edge41_Node000001_Node000012"><a xlink:title=" ">
<path fill="none" stroke="#63b8ff" d="M1228,-252.99C1221.81,-230.13 1207.8,-166.1 1230.5,-121 1237.19,-107.71 1249.94,-97.39 1261.97,-90.05"/>
<polygon fill="#63b8ff" stroke="#63b8ff" points="1263.92,-92.97 1270.92,-85.02 1260.49,-86.87 1263.92,-92.97"/>
</a>
</g>
</g>
<!-- Node13 -->
<g id="Node000013" class="node">
<title>Node13</title>
<g id="a_Node000013"><a xlink:title=" ">
<polygon fill="#e0e0e0" stroke="#999999" points="1506,-85 1459,-85 1459,-66 1506,-66 1506,-85"/>
<text text-anchor="middle" x="1482.5" y="-73" font-family="Helvetica,sans-Serif" font-size="10.00">cmath</text>
</a>
</g>
</g>
<!-- Node1&#45;&gt;Node13 -->
<g id="edge43_Node000001_Node000013" class="edge">
<title>Node1&#45;&gt;Node13</title>
<g id="a_edge43_Node000001_Node000013"><a xlink:title=" ">
<path fill="none" stroke="#63b8ff" d="M1246.84,-252.95C1262.71,-244.44 1287.31,-230.7 1307.5,-217 1325.31,-204.92 1325.75,-195.54 1345.5,-187 1395.2,-165.5 1551.15,-192.02 1586.5,-151 1595.2,-140.9 1593.84,-132.13 1586.5,-121 1570.98,-97.48 1540.18,-86.34 1516.11,-81.1"/>
<polygon fill="#63b8ff" stroke="#63b8ff" points="1516.75,-77.66 1506.27,-79.19 1515.42,-84.53 1516.75,-77.66"/>
</a>
</g>
</g>
<!-- Node14 -->
<g id="Node000014" class="node">
<title>Node14</title>
<g id="a_Node000014"><a xlink:href="keyboardSim_8hpp.html" target="_top" xlink:title="Simulates keyboard input across platforms.">
<polygon fill="white" stroke="#666666" points="915,-145.5 750,-145.5 750,-126.5 915,-126.5 915,-145.5"/>
<text text-anchor="middle" x="832.5" y="-133.5" font-family="Helvetica,sans-Serif" font-size="10.00">../simulation/keyboardSim.hpp</text>
</a>
</g>
</g>
<!-- Node1&#45;&gt;Node14 -->
<g id="edge38_Node000001_Node000014" class="edge">
<title>Node1&#45;&gt;Node14</title>
<g id="a_edge38_Node000001_Node000014"><a xlink:title=" ">
<path fill="none" stroke="#63b8ff" d="M1153.77,-261.4C1090.99,-258.73 1001.18,-248.86 929.5,-217 895.62,-201.94 863.99,-171.64 846.55,-152.96"/>
<polygon fill="#63b8ff" stroke="#63b8ff" points="849.09,-150.56 839.77,-145.52 843.91,-155.27 849.09,-150.56"/>
</a>
</g>
</g>
<!-- Node15 -->
<g id="Node000015" class="node">
<title>Node15</title>
<g id="a_Node000015"><a xlink:title=" ">
<polygon fill="#e0e0e0" stroke="#999999" points="786.5,-85 742.5,-85 742.5,-66 786.5,-66 786.5,-85"/>
<text text-anchor="middle" x="764.5" y="-73" font-family="Helvetica,sans-Serif" font-size="10.00">string</text>
</a>
</g>
</g>
<!-- Node1&#45;&gt;Node15 -->
<g id="edge46_Node000001_Node000015" class="edge">
<title>Node1&#45;&gt;Node15</title>
<g id="a_edge46_Node000001_Node000015"><a xlink:title=" ">
<path fill="none" stroke="#63b8ff" d="M1153.77,-258.75C1081.69,-254.55 971.47,-243.91 879.5,-217 813.86,-197.79 777.04,-208.81 740.5,-151 729.21,-133.14 740.49,-109.49 751.08,-93.68"/>
<polygon fill="#63b8ff" stroke="#63b8ff" points="754.06,-95.53 757.07,-85.37 748.38,-91.44 754.06,-95.53"/>
</a>
</g>
</g>
<!-- Node16 -->
<g id="Node000016" class="node">
<title>Node16</title>
<g id="a_Node000016"><a xlink:title=" ">
<polygon fill="#e0e0e0" stroke="#999999" points="932,-85 885,-85 885,-66 932,-66 932,-85"/>
<text text-anchor="middle" x="908.5" y="-73" font-family="Helvetica,sans-Serif" font-size="10.00">vector</text>
</a>
</g>
</g>
<!-- Node1&#45;&gt;Node16 -->
<g id="edge47_Node000001_Node000016" class="edge">
<title>Node1&#45;&gt;Node16</title>
<g id="a_edge47_Node000001_Node000016"><a xlink:title=" ">
<path fill="none" stroke="#63b8ff" d="M1184.7,-252.94C1151.1,-245.74 1104.83,-233.9 1066.5,-217 1016.41,-194.92 1002.39,-188.5 962.5,-151 944.38,-133.97 928.33,-110.1 918.53,-94.01"/>
<polygon fill="#63b8ff" stroke="#63b8ff" points="921.38,-91.95 913.27,-85.12 915.35,-95.51 921.38,-91.95"/>
</a>
</g>
</g>
<!-- Node17 -->
<g id="Node000017" class="node">
<title>Node17</title>
<g id="a_Node000017"><a xlink:href="mouseSim_8hpp.html" target="_top" xlink:title="Simulates mouse input across platforms.">
<polygon fill="white" stroke="#666666" points="1577,-145.5 1424,-145.5 1424,-126.5 1577,-126.5 1577,-145.5"/>
<text text-anchor="middle" x="1500.5" y="-133.5" font-family="Helvetica,sans-Serif" font-size="10.00">../simulation/mouseSim.hpp</text>
</a>
</g>
</g>
<!-- Node1&#45;&gt;Node17 -->
<g id="edge39_Node000001_Node000017" class="edge">
<title>Node1&#45;&gt;Node17</title>
<g id="a_edge39_Node000001_Node000017"><a xlink:title=" ">
<path fill="none" stroke="#63b8ff" d="M1238.79,-252.89C1255.93,-235.28 1294.99,-196.04 1311.5,-187 1335.05,-174.1 1401.7,-158.04 1449.17,-147.66"/>
<polygon fill="#63b8ff" stroke="#63b8ff" points="1449.96,-151.07 1458.99,-145.53 1448.47,-144.23 1449.96,-151.07"/>
</a>
</g>
</g>
<!-- Node19 -->
<g id="Node000019" class="node">
<title>Node19</title>
<g id="a_Node000019"><a xlink:href="settings__singleton_8hpp.html" target="_top" xlink:title=" ">
<polygon fill="white" stroke="#666666" points="439,-217 332,-217 332,-187 439,-187 439,-217"/>
<text text-anchor="start" x="340" y="-205" font-family="Helvetica,sans-Serif" font-size="10.00">../settings/settings</text>
<text text-anchor="middle" x="385.5" y="-194" font-family="Helvetica,sans-Serif" font-size="10.00">_singleton.hpp</text>
</a>
</g>
</g>
<!-- Node1&#45;&gt;Node19 -->
<g id="edge20_Node000001_Node000019" class="edge">
<title>Node1&#45;&gt;Node19</title>
<g id="a_edge20_Node000001_Node000019"><a xlink:title=" ">
<path fill="none" stroke="#63b8ff" d="M1153.65,-256.18C988.4,-244.74 601.92,-217.98 449.21,-207.41"/>
<polygon fill="#63b8ff" stroke="#63b8ff" points="449.28,-203.91 439.06,-206.71 448.8,-210.89 449.28,-203.91"/>
</a>
</g>
</g>
<!-- Node29 -->
<g id="Node000029" class="node">
<title>Node29</title>
<g id="a_Node000029"><a xlink:title=" ">
<polygon fill="#e0e0e0" stroke="#999999" points="1433,-211.5 1354,-211.5 1354,-192.5 1433,-192.5 1433,-211.5"/>
<text text-anchor="middle" x="1393.5" y="-199.5" font-family="Helvetica,sans-Serif" font-size="10.00">QApplication</text>
</a>
</g>
</g>
<!-- Node1&#45;&gt;Node29 -->
<g id="edge40_Node000001_Node000029" class="edge">
<title>Node1&#45;&gt;Node29</title>
<g id="a_edge40_Node000001_Node000029"><a xlink:title=" ">
<path fill="none" stroke="#63b8ff" d="M1254.2,-252.99C1282.09,-242.99 1328.57,-226.3 1360.1,-214.99"/>
<polygon fill="#63b8ff" stroke="#63b8ff" points="1361.54,-218.19 1369.77,-211.52 1359.18,-211.6 1361.54,-218.19"/>
</a>
</g>
</g>
<!-- Node30 -->
<g id="Node000030" class="node">
<title>Node30</title>
<g id="a_Node000030"><a xlink:title=" ">
<polygon fill="#e0e0e0" stroke="#999999" points="1515.5,-211.5 1451.5,-211.5 1451.5,-192.5 1515.5,-192.5 1515.5,-211.5"/>
<text text-anchor="middle" x="1483.5" y="-199.5" font-family="Helvetica,sans-Serif" font-size="10.00">algorithm</text>
</a>
</g>
</g>
<!-- Node1&#45;&gt;Node30 -->
<g id="edge42_Node000001_Node000030" class="edge">
<title>Node1&#45;&gt;Node30</title>
<g id="a_edge42_Node000001_Node000030"><a xlink:title=" ">
<path fill="none" stroke="#63b8ff" d="M1279.74,-252.93C1322.97,-244.99 1387.38,-232.14 1442.5,-217 1444.98,-216.32 1447.52,-215.57 1450.07,-214.79"/>
<polygon fill="#63b8ff" stroke="#63b8ff" points="1451.37,-218.05 1459.8,-211.64 1449.21,-211.39 1451.37,-218.05"/>
</a>
</g>
</g>
<!-- Node31 -->
<g id="Node000031" class="node">
<title>Node31</title>
<g id="a_Node000031"><a xlink:title=" ">
<polygon fill="#e0e0e0" stroke="#999999" points="1585,-211.5 1534,-211.5 1534,-192.5 1585,-192.5 1585,-211.5"/>
<text text-anchor="middle" x="1559.5" y="-199.5" font-family="Helvetica,sans-Serif" font-size="10.00">errno.h</text>
</a>
</g>
</g>
<!-- Node1&#45;&gt;Node31 -->
<g id="edge44_Node000001_Node000031" class="edge">
<title>Node1&#45;&gt;Node31</title>
<g id="a_edge44_Node000001_Node000031"><a xlink:title=" ">
<path fill="none" stroke="#63b8ff" d="M1307.03,-254.79C1366.96,-248.38 1452.02,-236.7 1524.5,-217 1526.66,-216.41 1528.86,-215.74 1531.06,-215"/>
<polygon fill="#63b8ff" stroke="#63b8ff" points="1532.34,-218.26 1540.52,-211.51 1529.92,-211.69 1532.34,-218.26"/>
</a>
</g>
</g>
<!-- Node32 -->
<g id="Node000032" class="node">
<title>Node32</title>
<g id="a_Node000032"><a xlink:title=" ">
<polygon fill="#e0e0e0" stroke="#999999" points="1659.5,-211.5 1603.5,-211.5 1603.5,-192.5 1659.5,-192.5 1659.5,-211.5"/>
<text text-anchor="middle" x="1631.5" y="-199.5" font-family="Helvetica,sans-Serif" font-size="10.00">sstream</text>
</a>
</g>
</g>
<!-- Node1&#45;&gt;Node32 -->
<g id="edge45_Node000001_Node000032" class="edge">
<title>Node1&#45;&gt;Node32</title>
<g id="a_edge45_Node000001_Node000032"><a xlink:title=" ">
<path fill="none" stroke="#63b8ff" d="M1307.1,-257.49C1381.44,-252.35 1496.99,-241.04 1594.5,-217 1596.95,-216.4 1599.46,-215.68 1601.96,-214.89"/>
<polygon fill="#63b8ff" stroke="#63b8ff" points="1603.13,-218.19 1611.42,-211.6 1600.83,-211.58 1603.13,-218.19"/>
</a>
</g>
</g>
<!-- Node3 -->
<g id="Node000003" class="node">
<title>Node3</title>
<g id="a_Node000003"><a xlink:href="Colfer_8h.html" target="_top" xlink:title=" ">
<polygon fill="white" stroke="#666666" points="1183.5,-151 1047.5,-151 1047.5,-121 1183.5,-121 1183.5,-151"/>
<text text-anchor="start" x="1055.5" y="-139" font-family="Helvetica,sans-Serif" font-size="10.00">../../VGP_Data_Exchange</text>
<text text-anchor="middle" x="1115.5" y="-128" font-family="Helvetica,sans-Serif" font-size="10.00">/C/Colfer.h</text>
</a>
</g>
</g>
<!-- Node2&#45;&gt;Node3 -->
<g id="edge2_Node000002_Node000003" class="edge">
<title>Node2&#45;&gt;Node3</title>
<g id="a_edge2_Node000002_Node000003"><a xlink:title=" ">
<path fill="none" stroke="#63b8ff" d="M1115.5,-192.37C1115.5,-184.49 1115.5,-172.45 1115.5,-161.6"/>
<polygon fill="#63b8ff" stroke="#63b8ff" points="1119,-161.36 1115.5,-151.36 1112,-161.36 1119,-161.36"/>
</a>
</g>
</g>
<!-- Node2&#45;&gt;Node7 -->
<g id="edge6_Node000002_Node000007" class="edge">
<title>Node2&#45;&gt;Node7</title>
<g id="a_edge6_Node000002_Node000007"><a xlink:title=" ">
<path fill="none" stroke="#63b8ff" d="M1075.69,-198.38C991.95,-192.42 800.36,-176.4 740.5,-151 708.58,-137.45 678.42,-110.01 661.23,-92.48"/>
<polygon fill="#63b8ff" stroke="#63b8ff" points="663.72,-90.03 654.29,-85.21 658.66,-94.86 663.72,-90.03"/>
</a>
</g>
</g>
<!-- Node2&#45;&gt;Node11 -->
<g id="edge10_Node000002_Node000011" class="edge">
<title>Node2&#45;&gt;Node11</title>
<g id="a_edge10_Node000002_Node000011"><a xlink:title=" ">
<path fill="none" stroke="#63b8ff" d="M1143.42,-192.37C1180.02,-181.05 1244.34,-161.16 1285.12,-148.56"/>
<polygon fill="#63b8ff" stroke="#63b8ff" points="1286.18,-151.89 1294.7,-145.6 1284.11,-145.21 1286.18,-151.89"/>
</a>
</g>
</g>
<!-- Node2&#45;&gt;Node14 -->
<g id="edge13_Node000002_Node000014" class="edge">
<title>Node2&#45;&gt;Node14</title>
<g id="a_edge13_Node000002_Node000014"><a xlink:title=" ">
<path fill="none" stroke="#63b8ff" d="M1077.63,-192.44C1026.58,-180.89 935.71,-160.34 880.1,-147.77"/>
<polygon fill="#63b8ff" stroke="#63b8ff" points="880.67,-144.31 870.15,-145.51 879.13,-151.13 880.67,-144.31"/>
</a>
</g>
</g>
<!-- Node2&#45;&gt;Node17 -->
<g id="edge17_Node000002_Node000017" class="edge">
<title>Node2&#45;&gt;Node17</title>
<g id="a_edge17_Node000002_Node000017"><a xlink:title=" ">
<path fill="none" stroke="#63b8ff" d="M1155.25,-194.39C1222.59,-183.2 1359.54,-160.43 1439.22,-147.19"/>
<polygon fill="#63b8ff" stroke="#63b8ff" points="1439.83,-150.63 1449.12,-145.54 1438.69,-143.73 1439.83,-150.63"/>
</a>
</g>
</g>
<!-- Node18 -->
<g id="Node000018" class="node">
<title>Node18</title>
<g id="a_Node000018"><a xlink:title=" ">
<polygon fill="#e0e0e0" stroke="#999999" points="1029.5,-145.5 971.5,-145.5 971.5,-126.5 1029.5,-126.5 1029.5,-145.5"/>
<text text-anchor="middle" x="1000.5" y="-133.5" font-family="Helvetica,sans-Serif" font-size="10.00">memory</text>
</a>
</g>
</g>
<!-- Node2&#45;&gt;Node18 -->
<g id="edge18_Node000002_Node000018" class="edge">
<title>Node2&#45;&gt;Node18</title>
<g id="a_edge18_Node000002_Node000018"><a xlink:title=" ">
<path fill="none" stroke="#63b8ff" d="M1099.99,-192.37C1080.79,-181.68 1047.84,-163.35 1025.15,-150.72"/>
<polygon fill="#63b8ff" stroke="#63b8ff" points="1026.57,-147.5 1016.13,-145.7 1023.17,-153.62 1026.57,-147.5"/>
</a>
</g>
</g>
<!-- Node4 -->
<g id="Node000004" class="node">
<title>Node4</title>
<g id="a_Node000004"><a xlink:title=" ">
<polygon fill="#e0e0e0" stroke="#999999" points="1071,-85 1018,-85 1018,-66 1071,-66 1071,-85"/>
<text text-anchor="middle" x="1044.5" y="-73" font-family="Helvetica,sans-Serif" font-size="10.00">limits.h</text>
</a>
</g>
</g>
<!-- Node3&#45;&gt;Node4 -->
<g id="edge3_Node000003_Node000004" class="edge">
<title>Node3&#45;&gt;Node4</title>
<g id="a_edge3_Node000003_Node000004"><a xlink:title=" ">
<path fill="none" stroke="#63b8ff" d="M1098.31,-120.84C1087.69,-112.09 1074.06,-100.85 1063.17,-91.88"/>
<polygon fill="#63b8ff" stroke="#63b8ff" points="1065.08,-88.92 1055.14,-85.27 1060.63,-94.33 1065.08,-88.92"/>
</a>
</g>
</g>
<!-- Node5 -->
<g id="Node000005" class="node">
<title>Node5</title>
<g id="a_Node000005"><a xlink:title=" ">
<polygon fill="#e0e0e0" stroke="#999999" points="1142,-85 1089,-85 1089,-66 1142,-66 1142,-85"/>
<text text-anchor="middle" x="1115.5" y="-73" font-family="Helvetica,sans-Serif" font-size="10.00">stdint.h</text>
</a>
</g>
</g>
<!-- Node3&#45;&gt;Node5 -->
<g id="edge4_Node000003_Node000005" class="edge">
<title>Node3&#45;&gt;Node5</title>
<g id="a_edge4_Node000003_Node000005"><a xlink:title=" ">
<path fill="none" stroke="#63b8ff" d="M1115.5,-120.84C1115.5,-113.21 1115.5,-103.7 1115.5,-95.45"/>
<polygon fill="#63b8ff" stroke="#63b8ff" points="1119,-95.27 1115.5,-85.27 1112,-95.27 1119,-95.27"/>
</a>
</g>
</g>
<!-- Node6 -->
<g id="Node000006" class="node">
<title>Node6</title>
<g id="a_Node000006"><a xlink:title=" ">
<polygon fill="#e0e0e0" stroke="#999999" points="1213,-85 1160,-85 1160,-66 1213,-66 1213,-85"/>
<text text-anchor="middle" x="1186.5" y="-73" font-family="Helvetica,sans-Serif" font-size="10.00">string.h</text>
</a>
</g>
</g>
<!-- Node3&#45;&gt;Node6 -->
<g id="edge5_Node000003_Node000006" class="edge">
<title>Node3&#45;&gt;Node6</title>
<g id="a_edge5_Node000003_Node000006"><a xlink:title=" ">
<path fill="none" stroke="#63b8ff" d="M1132.69,-120.84C1143.31,-112.09 1156.94,-100.85 1167.83,-91.88"/>
<polygon fill="#63b8ff" stroke="#63b8ff" points="1170.37,-94.33 1175.86,-85.27 1165.92,-88.92 1170.37,-94.33"/>
</a>
</g>
</g>
<!-- Node8 -->
<g id="Node000008" class="node">
<title>Node8</title>
<g id="a_Node000008"><a xlink:href="GameButtons_8h.html" target="_top" xlink:title=" ">
<polygon fill="white" stroke="#666666" points="404.5,-30 268.5,-30 268.5,0 404.5,0 404.5,-30"/>
<text text-anchor="start" x="276.5" y="-18" font-family="Helvetica,sans-Serif" font-size="10.00">../../VGP_Data_Exchange</text>
<text text-anchor="middle" x="336.5" y="-7" font-family="Helvetica,sans-Serif" font-size="10.00">/C/GameButtons.h</text>
</a>
</g>
</g>
<!-- Node7&#45;&gt;Node8 -->
<g id="edge7_Node000007_Node000008" class="edge">
<title>Node7&#45;&gt;Node8</title>
<g id="a_edge7_Node000007_Node000008"><a xlink:title=" ">
<path fill="none" stroke="#63b8ff" d="M601.42,-65.99C552.53,-56.77 473.57,-41.87 414.56,-30.73"/>
<polygon fill="#63b8ff" stroke="#63b8ff" points="415,-27.25 404.52,-28.84 413.7,-34.13 415,-27.25"/>
</a>
</g>
</g>
<!-- Node9 -->
<g id="Node000009" class="node">
<title>Node9</title>
<g id="a_Node000009"><a xlink:title=" ">
<polygon fill="#e0e0e0" stroke="#999999" points="593,-24.5 540,-24.5 540,-5.5 593,-5.5 593,-24.5"/>
<text text-anchor="middle" x="566.5" y="-12.5" font-family="Helvetica,sans-Serif" font-size="10.00">QString</text>
</a>
</g>
</g>
<!-- Node7&#45;&gt;Node9 -->
<g id="edge8_Node000007_Node000009" class="edge">
<title>Node7&#45;&gt;Node9</title>
<g id="a_edge8_Node000007_Node000009"><a xlink:title=" ">
<path fill="none" stroke="#63b8ff" d="M634.7,-65.87C622.05,-56.62 601.76,-41.78 586.59,-30.69"/>
<polygon fill="#63b8ff" stroke="#63b8ff" points="588.49,-27.74 578.35,-24.67 584.36,-33.4 588.49,-27.74"/>
</a>
</g>
</g>
<!-- Node10 -->
<g id="Node000010" class="node">
<title>Node10</title>
<g id="a_Node000010"><a xlink:title=" ">
<polygon fill="#e0e0e0" stroke="#999999" points="661,-24.5 632,-24.5 632,-5.5 661,-5.5 661,-24.5"/>
<text text-anchor="middle" x="646.5" y="-12.5" font-family="Helvetica,sans-Serif" font-size="10.00">Qt</text>
</a>
</g>
</g>
<!-- Node7&#45;&gt;Node10 -->
<g id="edge9_Node000007_Node000010" class="edge">
<title>Node7&#45;&gt;Node10</title>
<g id="a_edge9_Node000007_Node000010"><a xlink:title=" ">
<path fill="none" stroke="#63b8ff" d="M646.5,-65.87C646.5,-57.75 646.5,-45.31 646.5,-34.89"/>
<polygon fill="#63b8ff" stroke="#63b8ff" points="650,-34.67 646.5,-24.67 643,-34.67 650,-34.67"/>
</a>
</g>
</g>
<!-- Node11&#45;&gt;Node12 -->
<g id="edge11_Node000011_Node000012" class="edge">
<title>Node11&#45;&gt;Node12</title>
<g id="a_edge11_Node000011_Node000012"><a xlink:title=" ">
<path fill="none" stroke="#63b8ff" d="M1317.78,-126.37C1313.15,-117.9 1305.95,-104.74 1300.11,-94.07"/>
<polygon fill="#63b8ff" stroke="#63b8ff" points="1303.11,-92.26 1295.24,-85.17 1296.97,-95.62 1303.11,-92.26"/>
</a>
</g>
</g>
<!-- Node11&#45;&gt;Node13 -->
<g id="edge12_Node000011_Node000013" class="edge">
<title>Node11&#45;&gt;Node13</title>
<g id="a_edge12_Node000011_Node000013"><a xlink:title=" ">
<path fill="none" stroke="#63b8ff" d="M1345.77,-126.49C1373.14,-116.49 1418.77,-99.8 1449.72,-88.49"/>
<polygon fill="#63b8ff" stroke="#63b8ff" points="1451.02,-91.74 1459.21,-85.02 1448.61,-85.16 1451.02,-91.74"/>
</a>
</g>
</g>
<!-- Node14&#45;&gt;Node9 -->
<g id="edge14_Node000014_Node000009" class="edge">
<title>Node14&#45;&gt;Node9</title>
<g id="a_edge14_Node000014_Node000009"><a xlink:title=" ">
<path fill="none" stroke="#63b8ff" d="M830.39,-126.22C826.33,-111.34 815.97,-81.3 795.5,-66 732.59,-18.98 699.06,-47.53 622.5,-30 616.22,-28.56 609.56,-26.96 603.11,-25.37"/>
<polygon fill="#63b8ff" stroke="#63b8ff" points="603.77,-21.93 593.22,-22.91 602.08,-28.73 603.77,-21.93"/>
</a>
</g>
</g>
<!-- Node14&#45;&gt;Node15 -->
<g id="edge15_Node000014_Node000015" class="edge">
<title>Node14&#45;&gt;Node15</title>
<g id="a_edge15_Node000014_Node000015"><a xlink:title=" ">
<path fill="none" stroke="#63b8ff" d="M822.47,-126.37C811.92,-117.3 795.11,-102.84 782.31,-91.82"/>
<polygon fill="#63b8ff" stroke="#63b8ff" points="784.44,-89.04 774.57,-85.17 779.87,-94.34 784.44,-89.04"/>
</a>
</g>
</g>
<!-- Node14&#45;&gt;Node16 -->
<g id="edge16_Node000014_Node000016" class="edge">
<title>Node14&#45;&gt;Node16</title>
<g id="a_edge16_Node000014_Node000016"><a xlink:title=" ">
<path fill="none" stroke="#63b8ff" d="M843.71,-126.37C855.61,-117.21 874.64,-102.56 889.01,-91.51"/>
<polygon fill="#63b8ff" stroke="#63b8ff" points="891.45,-94.04 897.24,-85.17 887.18,-88.49 891.45,-94.04"/>
</a>
</g>
</g>
<!-- Node19&#45;&gt;Node7 -->
<g id="edge22_Node000019_Node000007" class="edge">
<title>Node19&#45;&gt;Node7</title>
<g id="a_edge22_Node000019_Node000007"><a xlink:title=" ">
<path fill="none" stroke="#63b8ff" d="M439.34,-197.42C482.62,-192.38 543.43,-180.23 588.5,-151 610.46,-136.76 627.59,-111.3 637.37,-94.16"/>
<polygon fill="#63b8ff" stroke="#63b8ff" points="640.55,-95.63 642.26,-85.17 634.41,-92.28 640.55,-95.63"/>
</a>
</g>
</g>
<!-- Node19&#45;&gt;Node8 -->
<g id="edge21_Node000019_Node000008" class="edge">
<title>Node19&#45;&gt;Node8</title>
<g id="a_edge21_Node000019_Node000008"><a xlink:title=" ">
<path fill="none" stroke="#63b8ff" d="M343.27,-186.91C301.22,-170.21 239.71,-137.77 216.5,-85 205.19,-59.3 229.21,-42.68 258.66,-32.21"/>
<polygon fill="#63b8ff" stroke="#63b8ff" points="259.96,-35.47 268.38,-29.03 257.78,-28.82 259.96,-35.47"/>
</a>
</g>
</g>
<!-- Node19&#45;&gt;Node9 -->
<g id="edge35_Node000019_Node000009" class="edge">
<title>Node19&#45;&gt;Node9</title>
<g id="a_edge35_Node000019_Node000009"><a xlink:title=" ">
<path fill="none" stroke="#63b8ff" d="M417.49,-186.85C435.36,-178.05 457.4,-165.63 474.5,-151 514.23,-117.01 544.45,-61.96 558.25,-33.81"/>
<polygon fill="#63b8ff" stroke="#63b8ff" points="561.43,-35.28 562.58,-24.75 555.11,-32.26 561.43,-35.28"/>
</a>
</g>
</g>
<!-- Node20 -->
<g id="Node000020" class="node">
<title>Node20</title>
<g id="a_Node000020"><a xlink:href="keymap__profile_8hpp.html" target="_top" xlink:title=" ">
<polygon fill="white" stroke="#666666" points="442,-145.5 329,-145.5 329,-126.5 442,-126.5 442,-145.5"/>
<text text-anchor="middle" x="385.5" y="-133.5" font-family="Helvetica,sans-Serif" font-size="10.00">keymap_profile.hpp</text>
</a>
</g>
</g>
<!-- Node19&#45;&gt;Node20 -->
<g id="edge23_Node000019_Node000020" class="edge">
<title>Node19&#45;&gt;Node20</title>
<g id="a_edge23_Node000019_Node000020"><a xlink:title=" ">
<path fill="none" stroke="#63b8ff" d="M385.5,-186.8C385.5,-177.7 385.5,-165.79 385.5,-155.9"/>
<polygon fill="#63b8ff" stroke="#63b8ff" points="389,-155.84 385.5,-145.84 382,-155.84 389,-155.84"/>
</a>
</g>
</g>
<!-- Node22 -->
<g id="Node000022" class="node">
<title>Node22</title>
<g id="a_Node000022"><a xlink:title=" ">
<polygon fill="#e0e0e0" stroke="#999999" points="517.5,-85 461.5,-85 461.5,-66 517.5,-66 517.5,-85"/>
<text text-anchor="middle" x="489.5" y="-73" font-family="Helvetica,sans-Serif" font-size="10.00">QObject</text>
</a>
</g>
</g>
<!-- Node19&#45;&gt;Node22 -->
<g id="edge33_Node000019_Node000022" class="edge">
<title>Node19&#45;&gt;Node22</title>
<g id="a_edge33_Node000019_Node000022"><a xlink:title=" ">
<path fill="none" stroke="#63b8ff" d="M408.59,-186.89C422.02,-177.84 438.6,-165.17 450.5,-151 464.84,-133.93 475.96,-110.7 482.58,-94.75"/>
<polygon fill="#63b8ff" stroke="#63b8ff" points="486.01,-95.61 486.44,-85.03 479.5,-93.03 486.01,-95.61"/>
</a>
</g>
</g>
<!-- Node23 -->
<g id="Node000023" class="node">
<title>Node23</title>
<g id="a_Node000023"><a xlink:title=" ">
<polygon fill="#e0e0e0" stroke="#999999" points="289.5,-85 225.5,-85 225.5,-66 289.5,-66 289.5,-85"/>
<text text-anchor="middle" x="257.5" y="-73" font-family="Helvetica,sans-Serif" font-size="10.00">QSettings</text>
</a>
</g>
</g>
<!-- Node19&#45;&gt;Node23 -->
<g id="edge34_Node000019_Node000023" class="edge">
<title>Node19&#45;&gt;Node23</title>
<g id="a_edge34_Node000019_Node000023"><a xlink:title=" ">
<path fill="none" stroke="#63b8ff" d="M364.31,-186.82C350.86,-177.38 333.43,-164.31 319.5,-151 300.58,-132.93 281.77,-109.33 269.92,-93.58"/>
<polygon fill="#63b8ff" stroke="#63b8ff" points="272.56,-91.27 263.8,-85.32 266.94,-95.43 272.56,-91.27"/>
</a>
</g>
</g>
<!-- Node25 -->
<g id="Node000025" class="node">
<title>Node25</title>
<g id="a_Node000025"><a xlink:title=" ">
<polygon fill="#e0e0e0" stroke="#999999" points="579.5,-145.5 541.5,-145.5 541.5,-126.5 579.5,-126.5 579.5,-145.5"/>
<text text-anchor="middle" x="560.5" y="-133.5" font-family="Helvetica,sans-Serif" font-size="10.00">QDir</text>
</a>
</g>
</g>
<!-- Node19&#45;&gt;Node25 -->
<g id="edge30_Node000019_Node000025" class="edge">
<title>Node19&#45;&gt;Node25</title>
<g id="a_edge30_Node000019_Node000025"><a xlink:title=" ">
<path fill="none" stroke="#63b8ff" d="M427.69,-186.92C456.07,-177.26 494.24,-163.9 527.5,-151 528.91,-150.45 530.36,-149.88 531.81,-149.3"/>
<polygon fill="#63b8ff" stroke="#63b8ff" points="533.48,-152.4 541.39,-145.35 530.81,-145.93 533.48,-152.4"/>
</a>
</g>
</g>
<!-- Node26 -->
<g id="Node000026" class="node">
<title>Node26</title>
<g id="a_Node000026"><a xlink:title=" ">
<polygon fill="#e0e0e0" stroke="#999999" points="41,-145.5 0,-145.5 0,-126.5 41,-126.5 41,-145.5"/>
<text text-anchor="middle" x="20.5" y="-133.5" font-family="Helvetica,sans-Serif" font-size="10.00">QList</text>
</a>
</g>
</g>
<!-- Node19&#45;&gt;Node26 -->
<g id="edge31_Node000019_Node000026" class="edge">
<title>Node19&#45;&gt;Node26</title>
<g id="a_edge31_Node000019_Node000026"><a xlink:title=" ">
<path fill="none" stroke="#63b8ff" d="M331.73,-198C264.45,-193.13 146.3,-180.81 49.5,-151 48.24,-150.61 46.96,-150.18 45.68,-149.7"/>
<polygon fill="#63b8ff" stroke="#63b8ff" points="46.67,-146.32 36.1,-145.6 43.92,-152.75 46.67,-146.32"/>
</a>
</g>
</g>
<!-- Node27 -->
<g id="Node000027" class="node">
<title>Node27</title>
<g id="a_Node000027"><a xlink:title=" ">
<polygon fill="#e0e0e0" stroke="#999999" points="104,-145.5 59,-145.5 59,-126.5 104,-126.5 104,-145.5"/>
<text text-anchor="middle" x="81.5" y="-133.5" font-family="Helvetica,sans-Serif" font-size="10.00">QMap</text>
</a>
</g>
</g>
<!-- Node19&#45;&gt;Node27 -->
<g id="edge32_Node000019_Node000027" class="edge">
<title>Node19&#45;&gt;Node27</title>
<g id="a_edge32_Node000019_Node000027"><a xlink:title=" ">
<path fill="none" stroke="#63b8ff" d="M331.99,-195.11C276.27,-188.07 186.9,-174.23 112.5,-151 111.06,-150.55 109.59,-150.05 108.12,-149.51"/>
<polygon fill="#63b8ff" stroke="#63b8ff" points="109.17,-146.16 98.59,-145.61 106.52,-152.64 109.17,-146.16"/>
</a>
</g>
</g>
<!-- Node28 -->
<g id="Node000028" class="node">
<title>Node28</title>
<g id="a_Node000028"><a xlink:title=" ">
<polygon fill="#e0e0e0" stroke="#999999" points="181,-145.5 122,-145.5 122,-126.5 181,-126.5 181,-145.5"/>
<text text-anchor="middle" x="151.5" y="-133.5" font-family="Helvetica,sans-Serif" font-size="10.00">QVariant</text>
</a>
</g>
</g>
<!-- Node19&#45;&gt;Node28 -->
<g id="edge36_Node000019_Node000028" class="edge">
<title>Node19&#45;&gt;Node28</title>
<g id="a_edge36_Node000019_Node000028"><a xlink:title=" ">
<path fill="none" stroke="#63b8ff" d="M331.66,-187.61C293.51,-177.93 241.19,-164.27 195.5,-151 192.76,-150.2 189.93,-149.36 187.08,-148.49"/>
<polygon fill="#63b8ff" stroke="#63b8ff" points="188.08,-145.14 177.49,-145.51 186,-151.82 188.08,-145.14"/>
</a>
</g>
</g>
<!-- Node20&#45;&gt;Node7 -->
<g id="edge24_Node000020_Node000007" class="edge">
<title>Node20&#45;&gt;Node7</title>
<g id="a_edge24_Node000020_Node000007"><a xlink:title=" ">
<path fill="none" stroke="#63b8ff" d="M423.45,-126.49C469.75,-116.12 548.05,-98.57 598.49,-87.26"/>
<polygon fill="#63b8ff" stroke="#63b8ff" points="599.51,-90.62 608.5,-85.02 597.98,-83.79 599.51,-90.62"/>
</a>
</g>
</g>
<!-- Node20&#45;&gt;Node9 -->
<g id="edge28_Node000020_Node000009" class="edge">
<title>Node20&#45;&gt;Node9</title>
<g id="a_edge28_Node000020_Node000009"><a xlink:title=" ">
<path fill="none" stroke="#63b8ff" d="M392.07,-126.32C403.18,-112.11 426.99,-83.71 452.5,-66 476.42,-49.4 506.75,-36.42 530.11,-27.85"/>
<polygon fill="#63b8ff" stroke="#63b8ff" points="531.4,-31.1 539.65,-24.45 529.06,-24.51 531.4,-31.1"/>
</a>
</g>
</g>
<!-- Node21 -->
<g id="Node000021" class="node">
<title>Node21</title>
<g id="a_Node000021"><a xlink:title=" ">
<polygon fill="#e0e0e0" stroke="#999999" points="405,-85 364,-85 364,-66 405,-66 405,-85"/>
<text text-anchor="middle" x="384.5" y="-73" font-family="Helvetica,sans-Serif" font-size="10.00">QFile</text>
</a>
</g>
</g>
<!-- Node20&#45;&gt;Node21 -->
<g id="edge25_Node000020_Node000021" class="edge">
<title>Node20&#45;&gt;Node21</title>
<g id="a_edge25_Node000020_Node000021"><a xlink:title=" ">
<path fill="none" stroke="#63b8ff" d="M385.35,-126.37C385.21,-118.25 385,-105.81 384.82,-95.39"/>
<polygon fill="#63b8ff" stroke="#63b8ff" points="388.32,-95.11 384.65,-85.17 381.32,-95.23 388.32,-95.11"/>
</a>
</g>
</g>
<!-- Node20&#45;&gt;Node22 -->
<g id="edge26_Node000020_Node000022" class="edge">
<title>Node20&#45;&gt;Node22</title>
<g id="a_edge26_Node000020_Node000022"><a xlink:title=" ">
<path fill="none" stroke="#63b8ff" d="M400.85,-126.37C417.82,-116.82 445.4,-101.31 465.29,-90.12"/>
<polygon fill="#63b8ff" stroke="#63b8ff" points="467.09,-93.12 474.09,-85.17 463.66,-87.02 467.09,-93.12"/>
</a>
</g>
</g>
<!-- Node20&#45;&gt;Node23 -->
<g id="edge27_Node000020_Node000023" class="edge">
<title>Node20&#45;&gt;Node23</title>
<g id="a_edge27_Node000020_Node000023"><a xlink:title=" ">
<path fill="none" stroke="#63b8ff" d="M366.89,-126.49C345.46,-116.7 310.06,-100.52 285.35,-89.23"/>
<polygon fill="#63b8ff" stroke="#63b8ff" points="286.68,-85.99 276.13,-85.02 283.78,-92.36 286.68,-85.99"/>
</a>
</g>
</g>
<!-- Node24 -->
<g id="Node000024" class="node">
<title>Node24</title>
<g id="a_Node000024"><a xlink:title=" ">
<polygon fill="#e0e0e0" stroke="#999999" points="345.5,-85 307.5,-85 307.5,-66 345.5,-66 345.5,-85"/>
<text text-anchor="middle" x="326.5" y="-73" font-family="Helvetica,sans-Serif" font-size="10.00">map</text>
</a>
</g>
</g>
<!-- Node20&#45;&gt;Node24 -->
<g id="edge29_Node000020_Node000024" class="edge">
<title>Node20&#45;&gt;Node24</title>
<g id="a_edge29_Node000020_Node000024"><a xlink:title=" ">
<path fill="none" stroke="#63b8ff" d="M376.79,-126.37C367.82,-117.47 353.62,-103.39 342.59,-92.45"/>
<polygon fill="#63b8ff" stroke="#63b8ff" points="344.81,-89.72 335.24,-85.17 339.88,-94.69 344.81,-89.72"/>
</a>
</g>
</g>
</g>
</svg>
