<?xml version="1.0" encoding="UTF-8" standalone="no"?>
<!DOCTYPE svg PUBLIC "-//W3C//DTD SVG 1.1//EN"
 "http://www.w3.org/Graphics/SVG/1.1/DTD/svg11.dtd">
<!-- Generated by graphviz version 2.43.0 (0)
 -->
<!-- Title: src/simulation/gamepadSim.hpp Pages: 1 -->
<svg width="547pt" height="203pt"
 viewBox="0.00 0.00 547.00 203.00" xmlns="http://www.w3.org/2000/svg" xmlns:xlink="http://www.w3.org/1999/xlink">
<g id="graph0" class="graph" transform="scale(1 1) rotate(0) translate(4 199)">
<title>src/simulation/gamepadSim.hpp</title>
<!-- Node1 -->
<g id="Node000001" class="node">
<title>Node1</title>
<g id="a_Node000001"><a xlink:title=" ">
<polygon fill="#999999" stroke="#666666" points="344.5,-195 170.5,-195 170.5,-176 344.5,-176 344.5,-195"/>
<text text-anchor="middle" x="257.5" y="-183" font-family="Helvetica,sans-Serif" font-size="10.00">src/simulation/gamepadSim.hpp</text>
</a>
</g>
</g>
<!-- Node2 -->
<g id="Node000002" class="node">
<title>Node2</title>
<g id="a_Node000002"><a xlink:href="executor_8cpp.html" target="_top" xlink:title=" ">
<polygon fill="white" stroke="#666666" points="153,-74 0,-74 0,-55 153,-55 153,-74"/>
<text text-anchor="middle" x="76.5" y="-62" font-family="Helvetica,sans-Serif" font-size="10.00">src/networking/executor.cpp</text>
</a>
</g>
</g>
<!-- Node1&#45;&gt;Node2 -->
<g id="edge1_Node000001_Node000002" class="edge">
<title>Node1&#45;&gt;Node2</title>
<g id="a_edge1_Node000001_Node000002"><a xlink:title=" ">
<path fill="none" stroke="#63b8ff" d="M160.31,-175.1C136.46,-168.49 112.83,-157.65 95.5,-140 77.73,-121.9 75.87,-89.63 76.09,-74.19"/>
<polygon fill="#63b8ff" stroke="#63b8ff" points="159.61,-178.53 170.17,-177.59 161.33,-171.74 159.61,-178.53"/>
</a>
</g>
</g>
<!-- Node3 -->
<g id="Node000003" class="node">
<title>Node3</title>
<g id="a_Node000003"><a xlink:href="executor_8hpp.html" target="_top" xlink:title=" ">
<polygon fill="white" stroke="#666666" points="258.5,-134.5 104.5,-134.5 104.5,-115.5 258.5,-115.5 258.5,-134.5"/>
<text text-anchor="middle" x="181.5" y="-122.5" font-family="Helvetica,sans-Serif" font-size="10.00">src/networking/executor.hpp</text>
</a>
</g>
</g>
<!-- Node1&#45;&gt;Node3 -->
<g id="edge2_Node000001_Node000003" class="edge">
<title>Node1&#45;&gt;Node3</title>
<g id="a_edge2_Node000001_Node000003"><a xlink:title=" ">
<path fill="none" stroke="#63b8ff" d="M238.06,-169.54C223.71,-158.49 204.68,-143.84 192.76,-134.67"/>
<polygon fill="#63b8ff" stroke="#63b8ff" points="236.23,-172.54 246.29,-175.87 240.5,-166.99 236.23,-172.54"/>
</a>
</g>
</g>
<!-- Node7 -->
<g id="Node000007" class="node">
<title>Node7</title>
<g id="a_Node000007"><a xlink:href="linux_2gamepadSim_8cpp.html" target="_top" xlink:title="Gamepad simulation/injection for Linux using uinput.">
<polygon fill="white" stroke="#666666" points="390,-140 277,-140 277,-110 390,-110 390,-140"/>
<text text-anchor="start" x="285" y="-128" font-family="Helvetica,sans-Serif" font-size="10.00">src/simulation/linux</text>
<text text-anchor="middle" x="333.5" y="-117" font-family="Helvetica,sans-Serif" font-size="10.00">/gamepadSim.cpp</text>
</a>
</g>
</g>
<!-- Node1&#45;&gt;Node7 -->
<g id="edge7_Node000001_Node000007" class="edge">
<title>Node1&#45;&gt;Node7</title>
<g id="a_edge7_Node000001_Node000007"><a xlink:title=" ">
<path fill="none" stroke="#63b8ff" d="M276.64,-169.77C288.45,-160.68 303.51,-149.09 315.16,-140.11"/>
<polygon fill="#63b8ff" stroke="#63b8ff" points="274.5,-166.99 268.71,-175.87 278.77,-172.54 274.5,-166.99"/>
</a>
</g>
</g>
<!-- Node8 -->
<g id="Node000008" class="node">
<title>Node8</title>
<g id="a_Node000008"><a xlink:href="windows_2gamepadSim_8cpp.html" target="_top" xlink:title=" ">
<polygon fill="white" stroke="#666666" points="539,-140 408,-140 408,-110 539,-110 539,-140"/>
<text text-anchor="start" x="416" y="-128" font-family="Helvetica,sans-Serif" font-size="10.00">src/simulation/windows</text>
<text text-anchor="middle" x="473.5" y="-117" font-family="Helvetica,sans-Serif" font-size="10.00">/gamepadSim.cpp</text>
</a>
</g>
</g>
<!-- Node1&#45;&gt;Node8 -->
<g id="edge8_Node000001_Node000008" class="edge">
<title>Node1&#45;&gt;Node8</title>
<g id="a_edge8_Node000001_Node000008"><a xlink:title=" ">
<path fill="none" stroke="#63b8ff" d="M298.78,-173.32C333.7,-163.86 383.92,-150.26 421.57,-140.06"/>
<polygon fill="#63b8ff" stroke="#63b8ff" points="297.65,-170 288.91,-175.99 299.48,-176.76 297.65,-170"/>
</a>
</g>
</g>
<!-- Node3&#45;&gt;Node2 -->
<g id="edge3_Node000003_Node000002" class="edge">
<title>Node3&#45;&gt;Node2</title>
<g id="a_edge3_Node000003_Node000002"><a xlink:title=" ">
<path fill="none" stroke="#63b8ff" d="M157.13,-110.42C137.07,-99.24 109.22,-83.73 92.06,-74.17"/>
<polygon fill="#63b8ff" stroke="#63b8ff" points="155.57,-113.56 166.01,-115.37 158.97,-107.44 155.57,-113.56"/>
</a>
</g>
</g>
<!-- Node4 -->
<g id="Node000004" class="node">
<title>Node4</title>
<g id="a_Node000004"><a xlink:href="server_8hpp.html" target="_top" xlink:title=" ">
<polygon fill="white" stroke="#666666" points="314,-74 171,-74 171,-55 314,-55 314,-74"/>
<text text-anchor="middle" x="242.5" y="-62" font-family="Helvetica,sans-Serif" font-size="10.00">src/networking/server.hpp</text>
</a>
</g>
</g>
<!-- Node3&#45;&gt;Node4 -->
<g id="edge4_Node000003_Node000004" class="edge">
<title>Node3&#45;&gt;Node4</title>
<g id="a_edge4_Node000003_Node000004"><a xlink:title=" ">
<path fill="none" stroke="#63b8ff" d="M197.76,-108.41C209.2,-97.44 224.08,-83.17 233.46,-74.17"/>
<polygon fill="#63b8ff" stroke="#63b8ff" points="195.3,-105.92 190.5,-115.37 200.14,-110.97 195.3,-105.92"/>
</a>
</g>
</g>
<!-- Node5 -->
<g id="Node000005" class="node">
<title>Node5</title>
<g id="a_Node000005"><a xlink:href="server_8cpp.html" target="_top" xlink:title=" ">
<polygon fill="white" stroke="#666666" points="238.5,-19 96.5,-19 96.5,0 238.5,0 238.5,-19"/>
<text text-anchor="middle" x="167.5" y="-7" font-family="Helvetica,sans-Serif" font-size="10.00">src/networking/server.cpp</text>
</a>
</g>
</g>
<!-- Node4&#45;&gt;Node5 -->
<g id="edge5_Node000004_Node000005" class="edge">
<title>Node4&#45;&gt;Node5</title>
<g id="a_edge5_Node000004_Node000005"><a xlink:title=" ">
<path fill="none" stroke="#63b8ff" d="M222.19,-49.15C208.64,-39.57 191.26,-27.29 179.77,-19.17"/>
<polygon fill="#63b8ff" stroke="#63b8ff" points="220.26,-52.07 230.45,-54.98 224.3,-46.36 220.26,-52.07"/>
</a>
</g>
</g>
<!-- Node6 -->
<g id="Node000006" class="node">
<title>Node6</title>
<g id="a_Node000006"><a xlink:href="mainmenu_8cpp.html" target="_top" xlink:title=" ">
<polygon fill="white" stroke="#666666" points="376,-19 257,-19 257,0 376,0 376,-19"/>
<text text-anchor="middle" x="316.5" y="-7" font-family="Helvetica,sans-Serif" font-size="10.00">src/ui/mainmenu.cpp</text>
</a>
</g>
</g>
<!-- Node4&#45;&gt;Node6 -->
<g id="edge6_Node000004_Node000006" class="edge">
<title>Node4&#45;&gt;Node6</title>
<g id="a_edge6_Node000004_Node000006"><a xlink:title=" ">
<path fill="none" stroke="#63b8ff" d="M262.53,-49.15C275.91,-39.57 293.06,-27.29 304.39,-19.17"/>
<polygon fill="#63b8ff" stroke="#63b8ff" points="260.48,-46.32 254.39,-54.98 264.56,-52.01 260.48,-46.32"/>
</a>
</g>
</g>
</g>
</svg>
