<?xml version="1.0" encoding="UTF-8" standalone="no"?>
<!DOCTYPE svg PUBLIC "-//W3C//DTD SVG 1.1//EN"
 "http://www.w3.org/Graphics/SVG/1.1/DTD/svg11.dtd">
<!-- Generated by graphviz version 2.43.0 (0)
 -->
<!-- Title: VGP_Data_Exchange/C/GameButtons.h Pages: 1 -->
<svg width="1041pt" height="357pt"
 viewBox="0.00 0.00 1041.16 357.00" xmlns="http://www.w3.org/2000/svg" xmlns:xlink="http://www.w3.org/1999/xlink">
<g id="graph0" class="graph" transform="scale(1 1) rotate(0) translate(4 353)">
<title>VGP_Data_Exchange/C/GameButtons.h</title>
<!-- Node1 -->
<g id="Node000001" class="node">
<title>Node1</title>
<g id="a_Node000001"><a xlink:title=" ">
<polygon fill="#999999" stroke="#666666" points="527.84,-349 399.84,-349 399.84,-319 527.84,-319 527.84,-349"/>
<text text-anchor="start" x="407.84" y="-337" font-family="Helvetica,sans-Serif" font-size="10.00">VGP_Data_Exchange/C</text>
<text text-anchor="middle" x="463.84" y="-326" font-family="Helvetica,sans-Serif" font-size="10.00">/GameButtons.h</text>
</a>
</g>
</g>
<!-- Node2 -->
<g id="Node000002" class="node">
<title>Node2</title>
<g id="a_Node000002"><a xlink:href="input__types_8hpp.html" target="_top" xlink:title=" ">
<polygon fill="white" stroke="#666666" points="619.34,-283 518.34,-283 518.34,-253 619.34,-253 619.34,-283"/>
<text text-anchor="start" x="526.34" y="-271" font-family="Helvetica,sans-Serif" font-size="10.00">src/settings/input</text>
<text text-anchor="middle" x="568.84" y="-260" font-family="Helvetica,sans-Serif" font-size="10.00">_types.hpp</text>
</a>
</g>
</g>
<!-- Node1&#45;&gt;Node2 -->
<g id="edge1_Node000001_Node000002" class="edge">
<title>Node1&#45;&gt;Node2</title>
<g id="a_edge1_Node000001_Node000002"><a xlink:title=" ">
<path fill="none" stroke="#63b8ff" d="M495.52,-313.69C511.72,-303.82 531.09,-292.01 545.85,-283.01"/>
<polygon fill="#63b8ff" stroke="#63b8ff" points="493.6,-310.76 486.89,-318.95 497.25,-316.74 493.6,-310.76"/>
</a>
</g>
</g>
<!-- Node10 -->
<g id="Node000010" class="node">
<title>Node10</title>
<g id="a_Node000010"><a xlink:href="settings__singleton_8hpp.html" target="_top" xlink:title=" ">
<polygon fill="white" stroke="#666666" points="508.34,-151 393.34,-151 393.34,-121 508.34,-121 508.34,-151"/>
<text text-anchor="start" x="401.34" y="-139" font-family="Helvetica,sans-Serif" font-size="10.00">src/settings/settings</text>
<text text-anchor="middle" x="450.84" y="-128" font-family="Helvetica,sans-Serif" font-size="10.00">_singleton.hpp</text>
</a>
</g>
</g>
<!-- Node1&#45;&gt;Node10 -->
<g id="edge23_Node000001_Node000010" class="edge">
<title>Node1&#45;&gt;Node10</title>
<g id="a_edge23_Node000001_Node000010"><a xlink:title=" ">
<path fill="none" stroke="#63b8ff" d="M446.36,-310.59C430.16,-288.29 407.21,-252.4 397.84,-217 394.43,-204.11 392.56,-199.24 397.84,-187 404.21,-172.25 417.3,-159.83 428.88,-151.06"/>
<polygon fill="#63b8ff" stroke="#63b8ff" points="443.62,-312.78 452.4,-318.71 449.24,-308.6 443.62,-312.78"/>
</a>
</g>
</g>
<!-- Node3 -->
<g id="Node000003" class="node">
<title>Node3</title>
<g id="a_Node000003"><a xlink:href="executor_8cpp.html" target="_top" xlink:title=" ">
<polygon fill="white" stroke="#666666" points="702.34,-85 549.34,-85 549.34,-66 702.34,-66 702.34,-85"/>
<text text-anchor="middle" x="625.84" y="-73" font-family="Helvetica,sans-Serif" font-size="10.00">src/networking/executor.cpp</text>
</a>
</g>
</g>
<!-- Node2&#45;&gt;Node3 -->
<g id="edge2_Node000002_Node000003" class="edge">
<title>Node2&#45;&gt;Node3</title>
<g id="a_edge2_Node000002_Node000003"><a xlink:title=" ">
<path fill="none" stroke="#63b8ff" d="M575.96,-243.2C588.69,-200.65 614.81,-113.37 623.19,-85.36"/>
<polygon fill="#63b8ff" stroke="#63b8ff" points="572.55,-242.41 573.03,-252.99 579.25,-244.42 572.55,-242.41"/>
</a>
</g>
</g>
<!-- Node4 -->
<g id="Node000004" class="node">
<title>Node4</title>
<g id="a_Node000004"><a xlink:href="executor_8hpp.html" target="_top" xlink:title=" ">
<polygon fill="white" stroke="#666666" points="769.84,-211.5 615.84,-211.5 615.84,-192.5 769.84,-192.5 769.84,-211.5"/>
<text text-anchor="middle" x="692.84" y="-199.5" font-family="Helvetica,sans-Serif" font-size="10.00">src/networking/executor.hpp</text>
</a>
</g>
</g>
<!-- Node2&#45;&gt;Node4 -->
<g id="edge3_Node000002_Node000004" class="edge">
<title>Node2&#45;&gt;Node4</title>
<g id="a_edge3_Node000002_Node000004"><a xlink:title=" ">
<path fill="none" stroke="#63b8ff" d="M605.08,-248.3C628.64,-236.14 658.24,-220.86 676.34,-211.52"/>
<polygon fill="#63b8ff" stroke="#63b8ff" points="603.34,-245.26 596.06,-252.95 606.55,-251.48 603.34,-245.26"/>
</a>
</g>
</g>
<!-- Node8 -->
<g id="Node000008" class="node">
<title>Node8</title>
<g id="a_Node000008"><a xlink:href="keymap__profile_8hpp.html" target="_top" xlink:title=" ">
<polygon fill="white" stroke="#666666" points="521.34,-217 406.34,-217 406.34,-187 521.34,-187 521.34,-217"/>
<text text-anchor="start" x="414.34" y="-205" font-family="Helvetica,sans-Serif" font-size="10.00">src/settings/keymap</text>
<text text-anchor="middle" x="463.84" y="-194" font-family="Helvetica,sans-Serif" font-size="10.00">_profile.hpp</text>
</a>
</g>
</g>
<!-- Node2&#45;&gt;Node8 -->
<g id="edge8_Node000002_Node000008" class="edge">
<title>Node2&#45;&gt;Node8</title>
<g id="a_edge8_Node000002_Node000008"><a xlink:title=" ">
<path fill="none" stroke="#63b8ff" d="M537.17,-247.69C520.96,-237.82 501.59,-226.01 486.83,-217.01"/>
<polygon fill="#63b8ff" stroke="#63b8ff" points="535.44,-250.74 545.8,-252.95 539.08,-244.76 535.44,-250.74"/>
</a>
</g>
</g>
<!-- Node2&#45;&gt;Node10 -->
<g id="edge21_Node000002_Node000010" class="edge">
<title>Node2&#45;&gt;Node10</title>
<g id="a_edge21_Node000002_Node000010"><a xlink:title=" ">
<path fill="none" stroke="#63b8ff" d="M561.54,-243.09C555.42,-226.01 545.33,-203.26 530.84,-187 517.33,-171.84 498.14,-159.63 481.94,-151.08"/>
<polygon fill="#63b8ff" stroke="#63b8ff" points="558.33,-244.53 564.84,-252.89 564.96,-242.3 558.33,-244.53"/>
</a>
</g>
</g>
<!-- Node13 -->
<g id="Node000013" class="node">
<title>Node13</title>
<g id="a_Node000013"><a xlink:href="preferences_8cpp.html" target="_top" xlink:title=" ">
<polygon fill="white" stroke="#666666" points="582.84,-24.5 458.84,-24.5 458.84,-5.5 582.84,-5.5 582.84,-24.5"/>
<text text-anchor="middle" x="520.84" y="-12.5" font-family="Helvetica,sans-Serif" font-size="10.00">src/ui/preferences.cpp</text>
</a>
</g>
</g>
<!-- Node2&#45;&gt;Node13 -->
<g id="edge22_Node000002_Node000013" class="edge">
<title>Node2&#45;&gt;Node13</title>
<g id="a_edge22_Node000002_Node000013"><a xlink:title=" ">
<path fill="none" stroke="#63b8ff" d="M629.53,-261.34C775.35,-245.57 1125.07,-193.61 1009.84,-66 981.75,-34.89 708.68,-22.08 583.26,-17.8"/>
<polygon fill="#63b8ff" stroke="#63b8ff" points="628.97,-257.88 619.4,-262.41 629.71,-264.84 628.97,-257.88"/>
</a>
</g>
</g>
<!-- Node4&#45;&gt;Node3 -->
<g id="edge4_Node000004_Node000003" class="edge">
<title>Node4&#45;&gt;Node3</title>
<g id="a_edge4_Node000004_Node000003"><a xlink:title=" ">
<path fill="none" stroke="#63b8ff" d="M683.33,-183.32C668.74,-156.2 641.37,-105.35 630.48,-85.12"/>
<polygon fill="#63b8ff" stroke="#63b8ff" points="680.42,-185.3 688.24,-192.44 686.58,-181.98 680.42,-185.3"/>
</a>
</g>
</g>
<!-- Node5 -->
<g id="Node000005" class="node">
<title>Node5</title>
<g id="a_Node000005"><a xlink:href="server_8hpp.html" target="_top" xlink:title=" ">
<polygon fill="white" stroke="#666666" points="863.34,-145.5 720.34,-145.5 720.34,-126.5 863.34,-126.5 863.34,-145.5"/>
<text text-anchor="middle" x="791.84" y="-133.5" font-family="Helvetica,sans-Serif" font-size="10.00">src/networking/server.hpp</text>
</a>
</g>
</g>
<!-- Node4&#45;&gt;Node5 -->
<g id="edge5_Node000004_Node000005" class="edge">
<title>Node4&#45;&gt;Node5</title>
<g id="a_edge5_Node000004_Node000005"><a xlink:title=" ">
<path fill="none" stroke="#63b8ff" d="M714.73,-186.85C734.19,-174.27 762.03,-156.28 778.39,-145.7"/>
<polygon fill="#63b8ff" stroke="#63b8ff" points="712.69,-184 706.19,-192.37 716.49,-189.88 712.69,-184"/>
</a>
</g>
</g>
<!-- Node6 -->
<g id="Node000006" class="node">
<title>Node6</title>
<g id="a_Node000006"><a xlink:href="server_8cpp.html" target="_top" xlink:title=" ">
<polygon fill="white" stroke="#666666" points="862.84,-85 720.84,-85 720.84,-66 862.84,-66 862.84,-85"/>
<text text-anchor="middle" x="791.84" y="-73" font-family="Helvetica,sans-Serif" font-size="10.00">src/networking/server.cpp</text>
</a>
</g>
</g>
<!-- Node5&#45;&gt;Node6 -->
<g id="edge6_Node000005_Node000006" class="edge">
<title>Node5&#45;&gt;Node6</title>
<g id="a_edge6_Node000005_Node000006"><a xlink:title=" ">
<path fill="none" stroke="#63b8ff" d="M791.84,-116.16C791.84,-105.74 791.84,-93.3 791.84,-85.17"/>
<polygon fill="#63b8ff" stroke="#63b8ff" points="788.34,-116.37 791.84,-126.37 795.34,-116.37 788.34,-116.37"/>
</a>
</g>
</g>
<!-- Node7 -->
<g id="Node000007" class="node">
<title>Node7</title>
<g id="a_Node000007"><a xlink:href="mainmenu_8cpp.html" target="_top" xlink:title=" ">
<polygon fill="white" stroke="#666666" points="1000.34,-85 881.34,-85 881.34,-66 1000.34,-66 1000.34,-85"/>
<text text-anchor="middle" x="940.84" y="-73" font-family="Helvetica,sans-Serif" font-size="10.00">src/ui/mainmenu.cpp</text>
</a>
</g>
</g>
<!-- Node5&#45;&gt;Node7 -->
<g id="edge7_Node000005_Node000007" class="edge">
<title>Node5&#45;&gt;Node7</title>
<g id="a_edge7_Node000005_Node000007"><a xlink:title=" ">
<path fill="none" stroke="#63b8ff" d="M823.1,-122.73C851.89,-111.42 893.87,-94.94 919.15,-85.02"/>
<polygon fill="#63b8ff" stroke="#63b8ff" points="821.54,-119.58 813.51,-126.49 824.1,-126.1 821.54,-119.58"/>
</a>
</g>
</g>
<!-- Node9 -->
<g id="Node000009" class="node">
<title>Node9</title>
<g id="a_Node000009"><a xlink:href="keymap__profile_8cpp.html" target="_top" xlink:title=" ">
<polygon fill="white" stroke="#666666" points="176.34,-30 61.34,-30 61.34,0 176.34,0 176.34,-30"/>
<text text-anchor="start" x="69.34" y="-18" font-family="Helvetica,sans-Serif" font-size="10.00">src/settings/keymap</text>
<text text-anchor="middle" x="118.84" y="-7" font-family="Helvetica,sans-Serif" font-size="10.00">_profile.cpp</text>
</a>
</g>
</g>
<!-- Node8&#45;&gt;Node9 -->
<g id="edge9_Node000008_Node000009" class="edge">
<title>Node8&#45;&gt;Node9</title>
<g id="a_edge9_Node000008_Node000009"><a xlink:title=" ">
<path fill="none" stroke="#63b8ff" d="M396.01,-193.9C280.51,-180.26 53.46,-146.18 5.84,-85 -14.49,-58.88 23.81,-40.31 61.21,-29.07"/>
<polygon fill="#63b8ff" stroke="#63b8ff" points="395.82,-197.4 406.16,-195.08 396.63,-190.45 395.82,-197.4"/>
</a>
</g>
</g>
<!-- Node8&#45;&gt;Node10 -->
<g id="edge10_Node000008_Node000010" class="edge">
<title>Node8&#45;&gt;Node10</title>
<g id="a_edge10_Node000008_Node000010"><a xlink:title=" ">
<path fill="none" stroke="#63b8ff" d="M458.93,-176.83C457.17,-168.17 455.25,-158.7 453.72,-151.16"/>
<polygon fill="#63b8ff" stroke="#63b8ff" points="455.54,-177.69 460.96,-186.8 462.4,-176.3 455.54,-177.69"/>
</a>
</g>
</g>
<!-- Node10&#45;&gt;Node3 -->
<g id="edge11_Node000010_Node000003" class="edge">
<title>Node10&#45;&gt;Node3</title>
<g id="a_edge11_Node000010_Node000003"><a xlink:title=" ">
<path fill="none" stroke="#63b8ff" d="M502.47,-117.74C534.67,-106.98 574.69,-93.6 600.26,-85.05"/>
<polygon fill="#63b8ff" stroke="#63b8ff" points="501.13,-114.5 492.76,-120.99 503.35,-121.14 501.13,-114.5"/>
</a>
</g>
</g>
<!-- Node10&#45;&gt;Node6 -->
<g id="edge12_Node000010_Node000006" class="edge">
<title>Node10&#45;&gt;Node6</title>
<g id="a_edge12_Node000010_Node000006"><a xlink:title=" ">
<path fill="none" stroke="#63b8ff" d="M518.57,-123.38C584.47,-112.08 683.05,-95.16 742.04,-85.04"/>
<polygon fill="#63b8ff" stroke="#63b8ff" points="517.95,-119.94 508.69,-125.08 519.14,-126.83 517.95,-119.94"/>
</a>
</g>
</g>
<!-- Node11 -->
<g id="Node000011" class="node">
<title>Node11</title>
<g id="a_Node000011"><a xlink:href="settings_8hpp.html" target="_top" xlink:title=" ">
<polygon fill="white" stroke="#666666" points="492.84,-85 356.84,-85 356.84,-66 492.84,-66 492.84,-85"/>
<text text-anchor="middle" x="424.84" y="-73" font-family="Helvetica,sans-Serif" font-size="10.00">src/settings/settings.hpp</text>
</a>
</g>
</g>
<!-- Node10&#45;&gt;Node11 -->
<g id="edge13_Node000010_Node000011" class="edge">
<title>Node10&#45;&gt;Node11</title>
<g id="a_edge13_Node000010_Node000011"><a xlink:title=" ">
<path fill="none" stroke="#63b8ff" d="M440.46,-111.63C436.33,-102.35 431.84,-92.25 428.74,-85.27"/>
<polygon fill="#63b8ff" stroke="#63b8ff" points="437.29,-113.12 444.55,-120.84 443.69,-110.28 437.29,-113.12"/>
</a>
</g>
</g>
<!-- Node12 -->
<g id="Node000012" class="node">
<title>Node12</title>
<g id="a_Node000012"><a xlink:href="settings__singleton_8cpp.html" target="_top" xlink:title=" ">
<polygon fill="white" stroke="#666666" points="413.34,-30 298.34,-30 298.34,0 413.34,0 413.34,-30"/>
<text text-anchor="start" x="306.34" y="-18" font-family="Helvetica,sans-Serif" font-size="10.00">src/settings/settings</text>
<text text-anchor="middle" x="355.84" y="-7" font-family="Helvetica,sans-Serif" font-size="10.00">_singleton.cpp</text>
</a>
</g>
</g>
<!-- Node10&#45;&gt;Node12 -->
<g id="edge17_Node000010_Node000012" class="edge">
<title>Node10&#45;&gt;Node12</title>
<g id="a_edge17_Node000010_Node000012"><a xlink:title=" ">
<path fill="none" stroke="#63b8ff" d="M385.64,-116.69C370.72,-109.31 356.67,-99.09 347.84,-85 337.41,-68.34 343.51,-44.92 349.31,-30.11"/>
<polygon fill="#63b8ff" stroke="#63b8ff" points="384.45,-119.99 395.01,-120.92 387.34,-113.61 384.45,-119.99"/>
</a>
</g>
</g>
<!-- Node10&#45;&gt;Node13 -->
<g id="edge20_Node000010_Node000013" class="edge">
<title>Node10&#45;&gt;Node13</title>
<g id="a_edge20_Node000010_Node000013"><a xlink:title=" ">
<path fill="none" stroke="#63b8ff" d="M477.43,-113.97C486.3,-105.76 495.52,-95.74 501.84,-85 513.44,-65.3 518.18,-38.27 519.93,-24.63"/>
<polygon fill="#63b8ff" stroke="#63b8ff" points="474.99,-111.44 469.8,-120.68 479.62,-116.7 474.99,-111.44"/>
</a>
</g>
</g>
<!-- Node14 -->
<g id="Node000014" class="node">
<title>Node14</title>
<g id="a_Node000014"><a xlink:href="buttoninputbox_8cpp.html" target="_top" xlink:title=" ">
<polygon fill="white" stroke="#666666" points="154.84,-85 14.84,-85 14.84,-66 154.84,-66 154.84,-85"/>
<text text-anchor="middle" x="84.84" y="-73" font-family="Helvetica,sans-Serif" font-size="10.00">src/ui/buttoninputbox.cpp</text>
</a>
</g>
</g>
<!-- Node10&#45;&gt;Node14 -->
<g id="edge18_Node000010_Node000014" class="edge">
<title>Node10&#45;&gt;Node14</title>
<g id="a_edge18_Node000010_Node000014"><a xlink:title=" ">
<path fill="none" stroke="#63b8ff" d="M383.11,-124.17C312.43,-112.88 203.05,-95.39 138.23,-85.03"/>
<polygon fill="#63b8ff" stroke="#63b8ff" points="382.83,-127.67 393.25,-125.8 383.93,-120.76 382.83,-127.67"/>
</a>
</g>
</g>
<!-- Node15 -->
<g id="Node000015" class="node">
<title>Node15</title>
<g id="a_Node000015"><a xlink:href="mainwindow_8cpp.html" target="_top" xlink:title=" ">
<polygon fill="white" stroke="#666666" points="300.84,-85 172.84,-85 172.84,-66 300.84,-66 300.84,-85"/>
<text text-anchor="middle" x="236.84" y="-73" font-family="Helvetica,sans-Serif" font-size="10.00">src/ui/mainwindow.cpp</text>
</a>
</g>
</g>
<!-- Node10&#45;&gt;Node15 -->
<g id="edge19_Node000010_Node000015" class="edge">
<title>Node10&#45;&gt;Node15</title>
<g id="a_edge19_Node000010_Node000015"><a xlink:title=" ">
<path fill="none" stroke="#63b8ff" d="M389.73,-118.29C350.03,-107.44 299.94,-93.75 268.13,-85.05"/>
<polygon fill="#63b8ff" stroke="#63b8ff" points="389.02,-121.73 399.58,-120.99 390.86,-114.97 389.02,-121.73"/>
</a>
</g>
</g>
<!-- Node11&#45;&gt;Node9 -->
<g id="edge14_Node000011_Node000009" class="edge">
<title>Node11&#45;&gt;Node9</title>
<g id="a_edge14_Node000011_Node000009"><a xlink:title=" ">
<path fill="none" stroke="#63b8ff" d="M370.51,-64.11C315.94,-53.68 232.16,-37.66 176.45,-27.01"/>
<polygon fill="#63b8ff" stroke="#63b8ff" points="369.87,-67.55 380.35,-65.99 371.18,-60.68 369.87,-67.55"/>
</a>
</g>
</g>
<!-- Node11&#45;&gt;Node12 -->
<g id="edge15_Node000011_Node000012" class="edge">
<title>Node11&#45;&gt;Node12</title>
<g id="a_edge15_Node000011_Node000012"><a xlink:title=" ">
<path fill="none" stroke="#63b8ff" d="M406.84,-59.23C396.22,-50.23 382.87,-38.91 372.49,-30.11"/>
<polygon fill="#63b8ff" stroke="#63b8ff" points="404.77,-62.07 414.66,-65.87 409.3,-56.73 404.77,-62.07"/>
</a>
</g>
</g>
<!-- Node11&#45;&gt;Node13 -->
<g id="edge16_Node000011_Node000013" class="edge">
<title>Node11&#45;&gt;Node13</title>
<g id="a_edge16_Node000011_Node000013"><a xlink:title=" ">
<path fill="none" stroke="#63b8ff" d="M447.62,-60.62C465.93,-49.46 491.07,-34.14 506.62,-24.67"/>
<polygon fill="#63b8ff" stroke="#63b8ff" points="445.73,-57.68 439.01,-65.87 449.37,-63.65 445.73,-57.68"/>
</a>
</g>
</g>
</g>
</svg>
