<?xml version="1.0" encoding="UTF-8" standalone="no"?>
<!DOCTYPE svg PUBLIC "-//W3C//DTD SVG 1.1//EN"
 "http://www.w3.org/Graphics/SVG/1.1/DTD/svg11.dtd">
<!-- Generated by graphviz version 2.43.0 (0)
 -->
<!-- Title: VGP_Data_Exchange/C/GameButtons.h Pages: 1 -->
<svg width="1060pt" height="357pt"
 viewBox="0.00 0.00 1060.47 357.00" xmlns="http://www.w3.org/2000/svg" xmlns:xlink="http://www.w3.org/1999/xlink">
<g id="graph0" class="graph" transform="scale(1 1) rotate(0) translate(4 353)">
<title>VGP_Data_Exchange/C/GameButtons.h</title>
<!-- Node1 -->
<g id="Node000001" class="node">
<title>Node1</title>
<g id="a_Node000001"><a xlink:title=" ">
<polygon fill="#999999" stroke="#666666" points="493.5,-349 365.5,-349 365.5,-319 493.5,-319 493.5,-349"/>
<text text-anchor="start" x="373.5" y="-337" font-family="Helvetica,sans-Serif" font-size="10.00">VGP_Data_Exchange/C</text>
<text text-anchor="middle" x="429.5" y="-326" font-family="Helvetica,sans-Serif" font-size="10.00">/GameButtons.h</text>
</a>
</g>
</g>
<!-- Node2 -->
<g id="Node000002" class="node">
<title>Node2</title>
<g id="a_Node000002"><a xlink:href="input__types_8hpp.html" target="_top" xlink:title=" ">
<polygon fill="white" stroke="#666666" points="542,-283 441,-283 441,-253 542,-253 542,-283"/>
<text text-anchor="start" x="449" y="-271" font-family="Helvetica,sans-Serif" font-size="10.00">src/settings/input</text>
<text text-anchor="middle" x="491.5" y="-260" font-family="Helvetica,sans-Serif" font-size="10.00">_types.hpp</text>
</a>
</g>
</g>
<!-- Node1&#45;&gt;Node2 -->
<g id="edge1_Node000001_Node000002" class="edge">
<title>Node1&#45;&gt;Node2</title>
<g id="a_edge1_Node000001_Node000002"><a xlink:title=" ">
<path fill="none" stroke="#63b8ff" d="M450.46,-311.37C459.47,-302.06 469.76,-291.44 477.78,-283.16"/>
<polygon fill="#63b8ff" stroke="#63b8ff" points="447.7,-309.18 443.26,-318.8 452.73,-314.05 447.7,-309.18"/>
</a>
</g>
</g>
<!-- Node6 -->
<g id="Node000006" class="node">
<title>Node6</title>
<g id="a_Node000006"><a xlink:href="settings__singleton_8hpp.html" target="_top" xlink:title=" ">
<polygon fill="white" stroke="#666666" points="549,-151 434,-151 434,-121 549,-121 549,-151"/>
<text text-anchor="start" x="442" y="-139" font-family="Helvetica,sans-Serif" font-size="10.00">src/settings/settings</text>
<text text-anchor="middle" x="491.5" y="-128" font-family="Helvetica,sans-Serif" font-size="10.00">_singleton.hpp</text>
</a>
</g>
</g>
<!-- Node1&#45;&gt;Node6 -->
<g id="edge21_Node000001_Node000006" class="edge">
<title>Node1&#45;&gt;Node6</title>
<g id="a_edge21_Node000001_Node000006"><a xlink:title=" ">
<path fill="none" stroke="#63b8ff" d="M427.73,-308.69C427.2,-292.63 427.76,-271.25 432.5,-253 442.72,-213.64 467.74,-172.28 481.69,-151.19"/>
<polygon fill="#63b8ff" stroke="#63b8ff" points="424.24,-309.04 428.22,-318.86 431.23,-308.7 424.24,-309.04"/>
</a>
</g>
</g>
<!-- Node3 -->
<g id="Node000003" class="node">
<title>Node3</title>
<g id="a_Node000003"><a xlink:href="executor_8cpp.html" target="_top" xlink:title=" ">
<polygon fill="white" stroke="#666666" points="1039,-85 886,-85 886,-66 1039,-66 1039,-85"/>
<text text-anchor="middle" x="962.5" y="-73" font-family="Helvetica,sans-Serif" font-size="10.00">src/networking/executor.cpp</text>
</a>
</g>
</g>
<!-- Node2&#45;&gt;Node3 -->
<g id="edge2_Node000002_Node000003" class="edge">
<title>Node2&#45;&gt;Node3</title>
<g id="a_edge2_Node000002_Node000003"><a xlink:title=" ">
<path fill="none" stroke="#63b8ff" d="M514.01,-246.24C534.45,-228.35 566.11,-202.95 597.5,-187 705.22,-132.25 844.85,-99.4 916.15,-85.06"/>
<polygon fill="#63b8ff" stroke="#63b8ff" points="511.63,-243.66 506.49,-252.92 516.29,-248.89 511.63,-243.66"/>
</a>
</g>
</g>
<!-- Node4 -->
<g id="Node000004" class="node">
<title>Node4</title>
<g id="a_Node000004"><a xlink:href="keymap__profile_8hpp.html" target="_top" xlink:title=" ">
<polygon fill="white" stroke="#666666" points="721,-217 606,-217 606,-187 721,-187 721,-217"/>
<text text-anchor="start" x="614" y="-205" font-family="Helvetica,sans-Serif" font-size="10.00">src/settings/keymap</text>
<text text-anchor="middle" x="663.5" y="-194" font-family="Helvetica,sans-Serif" font-size="10.00">_profile.hpp</text>
</a>
</g>
</g>
<!-- Node2&#45;&gt;Node4 -->
<g id="edge3_Node000002_Node000004" class="edge">
<title>Node2&#45;&gt;Node4</title>
<g id="a_edge3_Node000002_Node000004"><a xlink:title=" ">
<path fill="none" stroke="#63b8ff" d="M538.65,-249.46C566.09,-239.25 600.21,-226.55 625.84,-217.01"/>
<polygon fill="#63b8ff" stroke="#63b8ff" points="537.4,-246.19 529.25,-252.95 539.84,-252.75 537.4,-246.19"/>
</a>
</g>
</g>
<!-- Node2&#45;&gt;Node6 -->
<g id="edge19_Node000002_Node000006" class="edge">
<title>Node2&#45;&gt;Node6</title>
<g id="a_edge19_Node000002_Node000006"><a xlink:title=" ">
<path fill="none" stroke="#63b8ff" d="M491.5,-242.68C491.5,-215.7 491.5,-173.11 491.5,-151.14"/>
<polygon fill="#63b8ff" stroke="#63b8ff" points="488,-242.84 491.5,-252.84 495,-242.84 488,-242.84"/>
</a>
</g>
</g>
<!-- Node13 -->
<g id="Node000013" class="node">
<title>Node13</title>
<g id="a_Node000013"><a xlink:href="preferences_8hpp.html" target="_top" xlink:title=" ">
<polygon fill="white" stroke="#666666" points="173,-85 48,-85 48,-66 173,-66 173,-85"/>
<text text-anchor="middle" x="110.5" y="-73" font-family="Helvetica,sans-Serif" font-size="10.00">src/ui/preferences.hpp</text>
</a>
</g>
</g>
<!-- Node2&#45;&gt;Node13 -->
<g id="edge20_Node000002_Node000013" class="edge">
<title>Node2&#45;&gt;Node13</title>
<g id="a_edge20_Node000002_Node000013"><a xlink:title=" ">
<path fill="none" stroke="#63b8ff" d="M454.2,-248.35C373.58,-208.04 185.71,-114.1 127.8,-85.15"/>
<polygon fill="#63b8ff" stroke="#63b8ff" points="452.97,-251.65 463.48,-252.99 456.11,-245.39 452.97,-251.65"/>
</a>
</g>
</g>
<!-- Node5 -->
<g id="Node000005" class="node">
<title>Node5</title>
<g id="a_Node000005"><a xlink:href="keymap__profile_8cpp.html" target="_top" xlink:title=" ">
<polygon fill="white" stroke="#666666" points="825,-30 710,-30 710,0 825,0 825,-30"/>
<text text-anchor="start" x="718" y="-18" font-family="Helvetica,sans-Serif" font-size="10.00">src/settings/keymap</text>
<text text-anchor="middle" x="767.5" y="-7" font-family="Helvetica,sans-Serif" font-size="10.00">_profile.cpp</text>
</a>
</g>
</g>
<!-- Node4&#45;&gt;Node5 -->
<g id="edge4_Node000004_Node000005" class="edge">
<title>Node4&#45;&gt;Node5</title>
<g id="a_edge4_Node000004_Node000005"><a xlink:title=" ">
<path fill="none" stroke="#63b8ff" d="M731.12,-190.44C831.05,-173.3 1010.51,-136.12 1048.5,-85 1053.54,-78.22 1053.92,-72.47 1048.5,-66 1020.58,-32.67 898.88,-21.54 825.1,-17.84"/>
<polygon fill="#63b8ff" stroke="#63b8ff" points="730.39,-187.02 721.11,-192.14 731.56,-193.92 730.39,-187.02"/>
</a>
</g>
</g>
<!-- Node4&#45;&gt;Node6 -->
<g id="edge5_Node000004_Node000006" class="edge">
<title>Node4&#45;&gt;Node6</title>
<g id="a_edge5_Node000004_Node000006"><a xlink:title=" ">
<path fill="none" stroke="#63b8ff" d="M616.35,-183.46C588.91,-173.25 554.79,-160.55 529.16,-151.01"/>
<polygon fill="#63b8ff" stroke="#63b8ff" points="615.16,-186.75 625.75,-186.95 617.6,-180.19 615.16,-186.75"/>
</a>
</g>
</g>
<!-- Node6&#45;&gt;Node3 -->
<g id="edge6_Node000006_Node000003" class="edge">
<title>Node6&#45;&gt;Node3</title>
<g id="a_edge6_Node000006_Node000003"><a xlink:title=" ">
<path fill="none" stroke="#63b8ff" d="M559.09,-121.69C560.57,-121.45 562.04,-121.22 563.5,-121 623.7,-111.81 787.64,-94.43 885.63,-84.32"/>
<polygon fill="#63b8ff" stroke="#63b8ff" points="558.48,-118.25 549.2,-123.35 559.64,-125.15 558.48,-118.25"/>
</a>
</g>
</g>
<!-- Node7 -->
<g id="Node000007" class="node">
<title>Node7</title>
<g id="a_Node000007"><a xlink:href="server_8cpp.html" target="_top" xlink:title=" ">
<polygon fill="white" stroke="#666666" points="867.5,-85 725.5,-85 725.5,-66 867.5,-66 867.5,-85"/>
<text text-anchor="middle" x="796.5" y="-73" font-family="Helvetica,sans-Serif" font-size="10.00">src/networking/server.cpp</text>
</a>
</g>
</g>
<!-- Node6&#45;&gt;Node7 -->
<g id="edge7_Node000006_Node000007" class="edge">
<title>Node6&#45;&gt;Node7</title>
<g id="a_edge7_Node000006_Node000007"><a xlink:title=" ">
<path fill="none" stroke="#63b8ff" d="M559.12,-121.85C560.59,-121.56 562.05,-121.28 563.5,-121 628.81,-108.41 704.45,-94 751.39,-85.07"/>
<polygon fill="#63b8ff" stroke="#63b8ff" points="558.42,-118.42 549.27,-123.75 559.75,-125.29 558.42,-118.42"/>
</a>
</g>
</g>
<!-- Node8 -->
<g id="Node000008" class="node">
<title>Node8</title>
<g id="a_Node000008"><a xlink:href="settings_8hpp.html" target="_top" xlink:title=" ">
<polygon fill="white" stroke="#666666" points="403.5,-85 267.5,-85 267.5,-66 403.5,-66 403.5,-85"/>
<text text-anchor="middle" x="335.5" y="-73" font-family="Helvetica,sans-Serif" font-size="10.00">src/settings/settings.hpp</text>
</a>
</g>
</g>
<!-- Node6&#45;&gt;Node8 -->
<g id="edge8_Node000006_Node000008" class="edge">
<title>Node6&#45;&gt;Node8</title>
<g id="a_edge8_Node000006_Node000008"><a xlink:title=" ">
<path fill="none" stroke="#63b8ff" d="M444.76,-117.47C416.28,-106.79 381.15,-93.62 358.54,-85.14"/>
<polygon fill="#63b8ff" stroke="#63b8ff" points="443.54,-120.75 454.13,-120.99 446,-114.2 443.54,-120.75"/>
</a>
</g>
</g>
<!-- Node9 -->
<g id="Node000009" class="node">
<title>Node9</title>
<g id="a_Node000009"><a xlink:href="settings__singleton_8cpp.html" target="_top" xlink:title=" ">
<polygon fill="white" stroke="#666666" points="395,-30 280,-30 280,0 395,0 395,-30"/>
<text text-anchor="start" x="288" y="-18" font-family="Helvetica,sans-Serif" font-size="10.00">src/settings/settings</text>
<text text-anchor="middle" x="337.5" y="-7" font-family="Helvetica,sans-Serif" font-size="10.00">_singleton.cpp</text>
</a>
</g>
</g>
<!-- Node6&#45;&gt;Node9 -->
<g id="edge12_Node000006_Node000009" class="edge">
<title>Node6&#45;&gt;Node9</title>
<g id="a_edge12_Node000006_Node000009"><a xlink:title=" ">
<path fill="none" stroke="#63b8ff" d="M423.69,-121.51C355.85,-107.85 261.16,-88.29 258.5,-85 241.04,-63.4 272.42,-43.05 300.64,-30.12"/>
<polygon fill="#63b8ff" stroke="#63b8ff" points="423.41,-125.02 433.9,-123.56 424.79,-118.16 423.41,-125.02"/>
</a>
</g>
</g>
<!-- Node10 -->
<g id="Node000010" class="node">
<title>Node10</title>
<g id="a_Node000010"><a xlink:href="preferences_8cpp.html" target="_top" xlink:title=" ">
<polygon fill="white" stroke="#666666" points="261.5,-24.5 137.5,-24.5 137.5,-5.5 261.5,-5.5 261.5,-24.5"/>
<text text-anchor="middle" x="199.5" y="-12.5" font-family="Helvetica,sans-Serif" font-size="10.00">src/ui/preferences.cpp</text>
</a>
</g>
</g>
<!-- Node6&#45;&gt;Node10 -->
<g id="edge15_Node000006_Node000010" class="edge">
<title>Node6&#45;&gt;Node10</title>
<g id="a_edge15_Node000006_Node000010"><a xlink:title=" ">
<path fill="none" stroke="#63b8ff" d="M423.68,-121.6C353.4,-107.63 253.23,-87.41 249.5,-85 226.14,-69.9 210.13,-39.77 203.26,-24.82"/>
<polygon fill="#63b8ff" stroke="#63b8ff" points="423.33,-125.1 433.82,-123.62 424.7,-118.23 423.33,-125.1"/>
</a>
</g>
</g>
<!-- Node11 -->
<g id="Node000011" class="node">
<title>Node11</title>
<g id="a_Node000011"><a xlink:href="buttoninputbox_8cpp.html" target="_top" xlink:title=" ">
<polygon fill="white" stroke="#666666" points="561.5,-85 421.5,-85 421.5,-66 561.5,-66 561.5,-85"/>
<text text-anchor="middle" x="491.5" y="-73" font-family="Helvetica,sans-Serif" font-size="10.00">src/ui/buttoninputbox.cpp</text>
</a>
</g>
</g>
<!-- Node6&#45;&gt;Node11 -->
<g id="edge13_Node000006_Node000011" class="edge">
<title>Node6&#45;&gt;Node11</title>
<g id="a_edge13_Node000006_Node000011"><a xlink:title=" ">
<path fill="none" stroke="#63b8ff" d="M491.5,-110.75C491.5,-101.72 491.5,-92.03 491.5,-85.27"/>
<polygon fill="#63b8ff" stroke="#63b8ff" points="488,-110.84 491.5,-120.84 495,-110.84 488,-110.84"/>
</a>
</g>
</g>
<!-- Node12 -->
<g id="Node000012" class="node">
<title>Node12</title>
<g id="a_Node000012"><a xlink:href="mainwindow_8cpp.html" target="_top" xlink:title=" ">
<polygon fill="white" stroke="#666666" points="707.5,-85 579.5,-85 579.5,-66 707.5,-66 707.5,-85"/>
<text text-anchor="middle" x="643.5" y="-73" font-family="Helvetica,sans-Serif" font-size="10.00">src/ui/mainwindow.cpp</text>
</a>
</g>
</g>
<!-- Node6&#45;&gt;Node12 -->
<g id="edge14_Node000006_Node000012" class="edge">
<title>Node6&#45;&gt;Node12</title>
<g id="a_edge14_Node000006_Node000012"><a xlink:title=" ">
<path fill="none" stroke="#63b8ff" d="M537.4,-117.33C565.08,-106.68 599.12,-93.58 621.05,-85.14"/>
<polygon fill="#63b8ff" stroke="#63b8ff" points="535.98,-114.13 527.91,-120.99 538.5,-120.66 535.98,-114.13"/>
</a>
</g>
</g>
<!-- Node6&#45;&gt;Node13 -->
<g id="edge16_Node000006_Node000013" class="edge">
<title>Node6&#45;&gt;Node13</title>
<g id="a_edge16_Node000006_Node000013"><a xlink:title=" ">
<path fill="none" stroke="#63b8ff" d="M423.9,-121.75C422.42,-121.5 420.95,-121.25 419.5,-121 334.4,-106.61 235.6,-92.9 173.08,-84.6"/>
<polygon fill="#63b8ff" stroke="#63b8ff" points="423.32,-125.21 433.78,-123.52 424.55,-118.32 423.32,-125.21"/>
</a>
</g>
</g>
<!-- Node8&#45;&gt;Node5 -->
<g id="edge9_Node000008_Node000005" class="edge">
<title>Node8&#45;&gt;Node5</title>
<g id="a_edge9_Node000008_Node000005"><a xlink:title=" ">
<path fill="none" stroke="#63b8ff" d="M408.4,-64.63C493.35,-53.13 631.96,-34.35 709.79,-23.81"/>
<polygon fill="#63b8ff" stroke="#63b8ff" points="407.76,-61.18 398.32,-65.99 408.7,-68.12 407.76,-61.18"/>
</a>
</g>
</g>
<!-- Node8&#45;&gt;Node9 -->
<g id="edge10_Node000008_Node000009" class="edge">
<title>Node8&#45;&gt;Node9</title>
<g id="a_edge10_Node000008_Node000009"><a xlink:title=" ">
<path fill="none" stroke="#63b8ff" d="M336.14,-55.65C336.43,-47.36 336.76,-37.78 337.02,-30.11"/>
<polygon fill="#63b8ff" stroke="#63b8ff" points="332.64,-55.75 335.8,-65.87 339.63,-55.99 332.64,-55.75"/>
</a>
</g>
</g>
<!-- Node8&#45;&gt;Node10 -->
<g id="edge11_Node000008_Node000010" class="edge">
<title>Node8&#45;&gt;Node10</title>
<g id="a_edge11_Node000008_Node000010"><a xlink:title=" ">
<path fill="none" stroke="#63b8ff" d="M306.28,-61.93C280.02,-50.64 242.17,-34.36 219.3,-24.52"/>
<polygon fill="#63b8ff" stroke="#63b8ff" points="305.16,-65.26 315.72,-65.99 307.92,-58.83 305.16,-65.26"/>
</a>
</g>
</g>
<!-- Node13&#45;&gt;Node10 -->
<g id="edge18_Node000013_Node000010" class="edge">
<title>Node13&#45;&gt;Node10</title>
<g id="a_edge18_Node000013_Node000010"><a xlink:title=" ">
<path fill="none" stroke="#63b8ff" d="M132.32,-60.16C149.23,-49.05 172.09,-34.01 186.31,-24.67"/>
<polygon fill="#63b8ff" stroke="#63b8ff" points="130.07,-57.45 123.63,-65.87 133.91,-63.3 130.07,-57.45"/>
</a>
</g>
</g>
<!-- Node14 -->
<g id="Node000014" class="node">
<title>Node14</title>
<g id="a_Node000014"><a xlink:href="mainmenu_8cpp.html" target="_top" xlink:title=" ">
<polygon fill="white" stroke="#666666" points="119,-24.5 0,-24.5 0,-5.5 119,-5.5 119,-24.5"/>
<text text-anchor="middle" x="59.5" y="-12.5" font-family="Helvetica,sans-Serif" font-size="10.00">src/ui/mainmenu.cpp</text>
</a>
</g>
</g>
<!-- Node13&#45;&gt;Node14 -->
<g id="edge17_Node000013_Node000014" class="edge">
<title>Node13&#45;&gt;Node14</title>
<g id="a_edge17_Node000013_Node000014"><a xlink:title=" ">
<path fill="none" stroke="#63b8ff" d="M96.35,-58.27C86.87,-47.39 74.75,-33.49 67.06,-24.67"/>
<polygon fill="#63b8ff" stroke="#63b8ff" points="93.77,-60.63 102.97,-65.87 99.04,-56.03 93.77,-60.63"/>
</a>
</g>
</g>
</g>
</svg>
