<?xml version="1.0" encoding="UTF-8" standalone="no"?>
<!DOCTYPE svg PUBLIC "-//W3C//DTD SVG 1.1//EN"
 "http://www.w3.org/Graphics/SVG/1.1/DTD/svg11.dtd">
<!-- Generated by graphviz version 2.43.0 (0)
 -->
<!-- Title: Graphical Class Hierarchy Pages: 1 -->
<svg width="283pt" height="64pt"
 viewBox="0.00 0.00 283.00 64.00" xmlns="http://www.w3.org/2000/svg" xmlns:xlink="http://www.w3.org/1999/xlink">
<g id="graph0" class="graph" transform="scale(1 1) rotate(0) translate(4 60)">
<title>Graphical Class Hierarchy</title>
<!-- Node0 -->
<g id="Node000000" class="node">
<title>Node0</title>
<g id="a_Node000000"><a xlink:href="classExecutorInterface.html" target="_top" xlink:title=" ">
<polygon fill="white" stroke="#666666" points="102,-37 0,-37 0,-18 102,-18 102,-37"/>
<text text-anchor="middle" x="51" y="-25" font-family="Helvetica,sans-Serif" font-size="10.00">ExecutorInterface</text>
</a>
</g>
</g>
<!-- Node1 -->
<g id="Node000001" class="node">
<title>Node1</title>
<g id="a_Node000001"><a xlink:href="classGamepadExecutor.html" target="_top" xlink:title=" ">
<polygon fill="white" stroke="#666666" points="259.5,-56 153.5,-56 153.5,-37 259.5,-37 259.5,-56"/>
<text text-anchor="middle" x="206.5" y="-44" font-family="Helvetica,sans-Serif" font-size="10.00">GamepadExecutor</text>
</a>
</g>
</g>
<!-- Node0&#45;&gt;Node1 -->
<g id="edge1_Node000000_Node000001" class="edge">
<title>Node0&#45;&gt;Node1</title>
<g id="a_edge1_Node000000_Node000001"><a xlink:title=" ">
<path fill="none" stroke="#63b8ff" d="M112.42,-34.98C125.93,-36.65 140.14,-38.41 153.28,-40.04"/>
<polygon fill="#63b8ff" stroke="#63b8ff" points="112.62,-31.48 102.26,-33.72 111.76,-38.42 112.62,-31.48"/>
</a>
</g>
</g>
<!-- Node2 -->
<g id="Node000002" class="node">
<title>Node2</title>
<g id="a_Node000002"><a xlink:href="classKeyboardMouseExecutor.html" target="_top" xlink:title="Executes gamepad input by converting it to keyboard and mouse actions.">
<polygon fill="white" stroke="#666666" points="275,-19 138,-19 138,0 275,0 275,-19"/>
<text text-anchor="middle" x="206.5" y="-7" font-family="Helvetica,sans-Serif" font-size="10.00">KeyboardMouseExecutor</text>
</a>
</g>
</g>
<!-- Node0&#45;&gt;Node2 -->
<g id="edge2_Node000000_Node000002" class="edge">
<title>Node0&#45;&gt;Node2</title>
<g id="a_edge2_Node000000_Node000002"><a xlink:title=" ">
<path fill="none" stroke="#63b8ff" d="M112.31,-20.43C120.69,-19.45 129.33,-18.43 137.83,-17.44"/>
<polygon fill="#63b8ff" stroke="#63b8ff" points="111.79,-16.97 102.26,-21.61 112.6,-23.92 111.79,-16.97"/>
</a>
</g>
</g>
</g>
</svg>
