<?xml version="1.0" encoding="UTF-8" standalone="no"?>
<!DOCTYPE svg PUBLIC "-//W3C//DTD SVG 1.1//EN"
 "http://www.w3.org/Graphics/SVG/1.1/DTD/svg11.dtd">
<!-- Generated by graphviz version 2.43.0 (0)
 -->
<!-- Title: Graphical Class Hierarchy Pages: 1 -->
<svg width="177pt" height="138pt"
 viewBox="0.00 0.00 177.00 138.00" xmlns="http://www.w3.org/2000/svg" xmlns:xlink="http://www.w3.org/1999/xlink">
<g id="graph0" class="graph" transform="scale(1 1) rotate(0) translate(4 134)">
<title>Graphical Class Hierarchy</title>
<!-- Node0 -->
<g id="Node000000" class="node">
<title>Node0</title>
<g id="a_Node000000"><a xlink:title=" ">
<polygon fill="#e0e0e0" stroke="#999999" points="59,-74 0,-74 0,-55 59,-55 59,-74"/>
<text text-anchor="middle" x="29.5" y="-62" font-family="Helvetica,sans-Serif" font-size="10.00">QWidget</text>
</a>
</g>
</g>
<!-- Node1 -->
<g id="Node000001" class="node">
<title>Node1</title>
<g id="a_Node000001"><a xlink:href="classAbout.html" target="_top" xlink:title=" ">
<polygon fill="white" stroke="#666666" points="154.5,-130 109.5,-130 109.5,-111 154.5,-111 154.5,-130"/>
<text text-anchor="middle" x="132" y="-118" font-family="Helvetica,sans-Serif" font-size="10.00">About</text>
</a>
</g>
</g>
<!-- Node0&#45;&gt;Node1 -->
<g id="edge8_Node000000_Node000001" class="edge">
<title>Node0&#45;&gt;Node1</title>
<g id="a_edge8_Node000000_Node000001"><a xlink:title=" ">
<path fill="none" stroke="#63b8ff" d="M54.55,-79.2C66.59,-86.42 81.44,-95.13 95,-102.5 100.16,-105.3 105.81,-108.21 111.07,-110.84"/>
<polygon fill="#63b8ff" stroke="#63b8ff" points="56.34,-76.19 45.97,-74.02 52.72,-82.18 56.34,-76.19"/>
</a>
</g>
</g>
<!-- Node2 -->
<g id="Node000002" class="node">
<title>Node2</title>
<g id="a_Node000002"><a xlink:href="classMainMenu.html" target="_top" xlink:title=" ">
<polygon fill="white" stroke="#666666" points="166,-93 98,-93 98,-74 166,-74 166,-93"/>
<text text-anchor="middle" x="132" y="-81" font-family="Helvetica,sans-Serif" font-size="10.00">MainMenu</text>
</a>
</g>
</g>
<!-- Node0&#45;&gt;Node2 -->
<g id="edge9_Node000000_Node000002" class="edge">
<title>Node0&#45;&gt;Node2</title>
<g id="a_edge9_Node000000_Node000002"><a xlink:title=" ">
<path fill="none" stroke="#63b8ff" d="M69.02,-71.78C78.5,-73.57 88.57,-75.48 97.78,-77.22"/>
<polygon fill="#63b8ff" stroke="#63b8ff" points="69.51,-68.31 59.03,-69.89 68.21,-75.19 69.51,-68.31"/>
</a>
</g>
</g>
<!-- Node3 -->
<g id="Node000003" class="node">
<title>Node3</title>
<g id="a_Node000003"><a xlink:href="classPreferences.html" target="_top" xlink:title=" ">
<polygon fill="white" stroke="#666666" points="169,-56 95,-56 95,-37 169,-37 169,-56"/>
<text text-anchor="middle" x="132" y="-44" font-family="Helvetica,sans-Serif" font-size="10.00">Preferences</text>
</a>
</g>
</g>
<!-- Node0&#45;&gt;Node3 -->
<g id="edge10_Node000000_Node000003" class="edge">
<title>Node0&#45;&gt;Node3</title>
<g id="a_edge10_Node000000_Node000003"><a xlink:title=" ">
<path fill="none" stroke="#63b8ff" d="M69.07,-57.59C77.54,-56.07 86.48,-54.47 94.86,-52.97"/>
<polygon fill="#63b8ff" stroke="#63b8ff" points="68.26,-54.18 59.03,-59.39 69.49,-61.07 68.26,-54.18"/>
</a>
</g>
</g>
<!-- Node4 -->
<g id="Node000004" class="node">
<title>Node4</title>
<g id="a_Node000004"><a xlink:href="classServer.html" target="_top" xlink:title=" ">
<polygon fill="white" stroke="#666666" points="156,-19 108,-19 108,0 156,0 156,-19"/>
<text text-anchor="middle" x="132" y="-7" font-family="Helvetica,sans-Serif" font-size="10.00">Server</text>
</a>
</g>
</g>
<!-- Node0&#45;&gt;Node4 -->
<g id="edge11_Node000000_Node000004" class="edge">
<title>Node0&#45;&gt;Node4</title>
<g id="a_edge11_Node000000_Node000004"><a xlink:title=" ">
<path fill="none" stroke="#63b8ff" d="M56.28,-49.93C68.05,-43.32 82.19,-35.45 95,-28.5 100.71,-25.4 106.97,-22.07 112.64,-19.08"/>
<polygon fill="#63b8ff" stroke="#63b8ff" points="54.41,-46.96 47.42,-54.92 57.85,-53.06 54.41,-46.96"/>
</a>
</g>
</g>
</g>
</svg>
