<?xml version="1.0" encoding="UTF-8" standalone="no"?>
<!DOCTYPE svg PUBLIC "-//W3C//DTD SVG 1.1//EN"
 "http://www.w3.org/Graphics/SVG/1.1/DTD/svg11.dtd">
<!-- Generated by graphviz version 2.43.0 (0)
 -->
<!-- Title: Graphical Class Hierarchy Pages: 1 -->
<svg width="177pt" height="101pt"
 viewBox="0.00 0.00 177.00 101.00" xmlns="http://www.w3.org/2000/svg" xmlns:xlink="http://www.w3.org/1999/xlink">
<g id="graph0" class="graph" transform="scale(1 1) rotate(0) translate(4 97)">
<title>Graphical Class Hierarchy</title>
<!-- Node0 -->
<g id="Node000000" class="node">
<title>Node0</title>
<g id="a_Node000000"><a xlink:title=" ">
<polygon fill="#e0e0e0" stroke="#999999" points="59,-56 0,-56 0,-37 59,-37 59,-56"/>
<text text-anchor="middle" x="29.5" y="-44" font-family="Helvetica,sans-Serif" font-size="10.00">QWidget</text>
</a>
</g>
</g>
<!-- Node1 -->
<g id="Node000001" class="node">
<title>Node1</title>
<g id="a_Node000001"><a xlink:href="classMainMenu.html" target="_top" xlink:title=" ">
<polygon fill="white" stroke="#666666" points="166,-93 98,-93 98,-74 166,-74 166,-93"/>
<text text-anchor="middle" x="132" y="-81" font-family="Helvetica,sans-Serif" font-size="10.00">MainMenu</text>
</a>
</g>
</g>
<!-- Node0&#45;&gt;Node1 -->
<g id="edge2_Node000000_Node000001" class="edge">
<title>Node0&#45;&gt;Node1</title>
<g id="a_edge2_Node000000_Node000001"><a xlink:title=" ">
<path fill="none" stroke="#63b8ff" d="M65.86,-59.52C78.69,-64.24 92.96,-69.49 104.86,-73.88"/>
<polygon fill="#63b8ff" stroke="#63b8ff" points="66.97,-56.2 56.38,-56.03 64.56,-62.77 66.97,-56.2"/>
</a>
</g>
</g>
<!-- Node2 -->
<g id="Node000002" class="node">
<title>Node2</title>
<g id="a_Node000002"><a xlink:href="classPreferences.html" target="_top" xlink:title=" ">
<polygon fill="white" stroke="#666666" points="169,-56 95,-56 95,-37 169,-37 169,-56"/>
<text text-anchor="middle" x="132" y="-44" font-family="Helvetica,sans-Serif" font-size="10.00">Preferences</text>
</a>
</g>
</g>
<!-- Node0&#45;&gt;Node2 -->
<g id="edge3_Node000000_Node000002" class="edge">
<title>Node0&#45;&gt;Node2</title>
<g id="a_edge3_Node000000_Node000002"><a xlink:title=" ">
<path fill="none" stroke="#63b8ff" d="M69.07,-46.5C77.54,-46.5 86.48,-46.5 94.86,-46.5"/>
<polygon fill="#63b8ff" stroke="#63b8ff" points="69.03,-43 59.03,-46.5 69.03,-50 69.03,-43"/>
</a>
</g>
</g>
<!-- Node3 -->
<g id="Node000003" class="node">
<title>Node3</title>
<g id="a_Node000003"><a xlink:href="classServer.html" target="_top" xlink:title=" ">
<polygon fill="white" stroke="#666666" points="156,-19 108,-19 108,0 156,0 156,-19"/>
<text text-anchor="middle" x="132" y="-7" font-family="Helvetica,sans-Serif" font-size="10.00">Server</text>
</a>
</g>
</g>
<!-- Node0&#45;&gt;Node3 -->
<g id="edge4_Node000000_Node000003" class="edge">
<title>Node0&#45;&gt;Node3</title>
<g id="a_edge4_Node000000_Node000003"><a xlink:title=" ">
<path fill="none" stroke="#63b8ff" d="M66.14,-33.38C80.04,-28.26 95.57,-22.54 107.95,-17.99"/>
<polygon fill="#63b8ff" stroke="#63b8ff" points="64.56,-30.23 56.38,-36.97 66.97,-36.8 64.56,-30.23"/>
</a>
</g>
</g>
</g>
</svg>
