<?xml version="1.0" encoding="UTF-8" standalone="no"?>
<!DOCTYPE svg PUBLIC "-//W3C//DTD SVG 1.1//EN"
 "http://www.w3.org/Graphics/SVG/1.1/DTD/svg11.dtd">
<!-- Generated by graphviz version 2.43.0 (0)
 -->
<!-- Title: src/settings/input_types.hpp Pages: 1 -->
<svg width="1087pt" height="291pt"
 viewBox="0.00 0.00 1086.50 291.00" xmlns="http://www.w3.org/2000/svg" xmlns:xlink="http://www.w3.org/1999/xlink">
<g id="graph0" class="graph" transform="scale(1 1) rotate(0) translate(4 287)">
<title>src/settings/input_types.hpp</title>
<!-- Node1 -->
<g id="Node000001" class="node">
<title>Node1</title>
<g id="a_Node000001"><a xlink:title=" ">
<polygon fill="#999999" stroke="#666666" points="632,-283 531,-283 531,-253 632,-253 632,-283"/>
<text text-anchor="start" x="539" y="-271" font-family="Helvetica,sans-Serif" font-size="10.00">src/settings/input</text>
<text text-anchor="middle" x="581.5" y="-260" font-family="Helvetica,sans-Serif" font-size="10.00">_types.hpp</text>
</a>
</g>
</g>
<!-- Node2 -->
<g id="Node000002" class="node">
<title>Node2</title>
<g id="a_Node000002"><a xlink:href="executor_8cpp.html" target="_top" xlink:title=" ">
<polygon fill="white" stroke="#666666" points="153,-85 0,-85 0,-66 153,-66 153,-85"/>
<text text-anchor="middle" x="76.5" y="-73" font-family="Helvetica,sans-Serif" font-size="10.00">src/networking/executor.cpp</text>
</a>
</g>
</g>
<!-- Node1&#45;&gt;Node2 -->
<g id="edge1_Node000001_Node000002" class="edge">
<title>Node1&#45;&gt;Node2</title>
<g id="a_edge1_Node000001_Node000002"><a xlink:title=" ">
<path fill="none" stroke="#63b8ff" d="M520.57,-265.33C456.58,-261.74 354.12,-250.66 272.5,-217 191.22,-183.48 111.4,-110.41 85.34,-85.23"/>
<polygon fill="#63b8ff" stroke="#63b8ff" points="520.72,-268.85 530.89,-265.87 521.08,-261.86 520.72,-268.85"/>
</a>
</g>
</g>
<!-- Node3 -->
<g id="Node000003" class="node">
<title>Node3</title>
<g id="a_Node000003"><a xlink:href="executor_8hpp.html" target="_top" xlink:title=" ">
<polygon fill="white" stroke="#666666" points="435.5,-211.5 281.5,-211.5 281.5,-192.5 435.5,-192.5 435.5,-211.5"/>
<text text-anchor="middle" x="358.5" y="-199.5" font-family="Helvetica,sans-Serif" font-size="10.00">src/networking/executor.hpp</text>
</a>
</g>
</g>
<!-- Node1&#45;&gt;Node3 -->
<g id="edge2_Node000001_Node000003" class="edge">
<title>Node1&#45;&gt;Node3</title>
<g id="a_edge2_Node000001_Node000003"><a xlink:title=" ">
<path fill="none" stroke="#63b8ff" d="M522.71,-250.13C479.43,-237.71 422.38,-221.33 388.18,-211.52"/>
<polygon fill="#63b8ff" stroke="#63b8ff" points="521.98,-253.56 532.56,-252.95 523.92,-246.83 521.98,-253.56"/>
</a>
</g>
</g>
<!-- Node7 -->
<g id="Node000007" class="node">
<title>Node7</title>
<g id="a_Node000007"><a xlink:href="keymap__profile_8hpp.html" target="_top" xlink:title=" ">
<polygon fill="white" stroke="#666666" points="725,-217 610,-217 610,-187 725,-187 725,-217"/>
<text text-anchor="start" x="618" y="-205" font-family="Helvetica,sans-Serif" font-size="10.00">src/settings/keymap</text>
<text text-anchor="middle" x="667.5" y="-194" font-family="Helvetica,sans-Serif" font-size="10.00">_profile.hpp</text>
</a>
</g>
</g>
<!-- Node1&#45;&gt;Node7 -->
<g id="edge7_Node000001_Node000007" class="edge">
<title>Node1&#45;&gt;Node7</title>
<g id="a_edge7_Node000001_Node000007"><a xlink:title=" ">
<path fill="none" stroke="#63b8ff" d="M608.71,-246.75C621.64,-237.13 636.79,-225.86 648.47,-217.16"/>
<polygon fill="#63b8ff" stroke="#63b8ff" points="606.52,-244.02 600.59,-252.8 610.7,-249.63 606.52,-244.02"/>
</a>
</g>
</g>
<!-- Node9 -->
<g id="Node000009" class="node">
<title>Node9</title>
<g id="a_Node000009"><a xlink:href="settings__singleton_8hpp.html" target="_top" xlink:title=" ">
<polygon fill="white" stroke="#666666" points="682,-151 567,-151 567,-121 682,-121 682,-151"/>
<text text-anchor="start" x="575" y="-139" font-family="Helvetica,sans-Serif" font-size="10.00">src/settings/settings</text>
<text text-anchor="middle" x="624.5" y="-128" font-family="Helvetica,sans-Serif" font-size="10.00">_singleton.hpp</text>
</a>
</g>
</g>
<!-- Node1&#45;&gt;Node9 -->
<g id="edge20_Node000001_Node000009" class="edge">
<title>Node1&#45;&gt;Node9</title>
<g id="a_edge20_Node000001_Node000009"><a xlink:title=" ">
<path fill="none" stroke="#63b8ff" d="M585.86,-242.7C589.08,-226.64 594.03,-205.26 600.5,-187 604.94,-174.47 611.56,-160.92 616.73,-151.09"/>
<polygon fill="#63b8ff" stroke="#63b8ff" points="582.36,-242.38 583.91,-252.86 589.23,-243.7 582.36,-242.38"/>
</a>
</g>
</g>
<!-- Node12 -->
<g id="Node000012" class="node">
<title>Node12</title>
<g id="a_Node000012"><a xlink:href="preferences_8cpp.html" target="_top" xlink:title=" ">
<polygon fill="white" stroke="#666666" points="1078.5,-24.5 954.5,-24.5 954.5,-5.5 1078.5,-5.5 1078.5,-24.5"/>
<text text-anchor="middle" x="1016.5" y="-12.5" font-family="Helvetica,sans-Serif" font-size="10.00">src/ui/preferences.cpp</text>
</a>
</g>
</g>
<!-- Node1&#45;&gt;Node12 -->
<g id="edge21_Node000001_Node000012" class="edge">
<title>Node1&#45;&gt;Node12</title>
<g id="a_edge21_Node000001_Node000012"><a xlink:title=" ">
<path fill="none" stroke="#63b8ff" d="M642.11,-255.94C712.4,-240.95 829.49,-209.13 914.5,-151 964.94,-116.51 1000.75,-48.95 1012.41,-24.82"/>
<polygon fill="#63b8ff" stroke="#63b8ff" points="641.17,-252.56 632.09,-258.03 642.6,-259.42 641.17,-252.56"/>
</a>
</g>
</g>
<!-- Node3&#45;&gt;Node2 -->
<g id="edge3_Node000003_Node000002" class="edge">
<title>Node3&#45;&gt;Node2</title>
<g id="a_edge3_Node000003_Node000002"><a xlink:title=" ">
<path fill="none" stroke="#63b8ff" d="M329.9,-188.37C272.56,-163.06 144.86,-106.68 96.02,-85.12"/>
<polygon fill="#63b8ff" stroke="#63b8ff" points="328.56,-191.61 339.12,-192.44 331.38,-185.2 328.56,-191.61"/>
</a>
</g>
</g>
<!-- Node4 -->
<g id="Node000004" class="node">
<title>Node4</title>
<g id="a_Node000004"><a xlink:href="server_8hpp.html" target="_top" xlink:title=" ">
<polygon fill="white" stroke="#666666" points="430,-145.5 287,-145.5 287,-126.5 430,-126.5 430,-145.5"/>
<text text-anchor="middle" x="358.5" y="-133.5" font-family="Helvetica,sans-Serif" font-size="10.00">src/networking/server.hpp</text>
</a>
</g>
</g>
<!-- Node3&#45;&gt;Node4 -->
<g id="edge4_Node000003_Node000004" class="edge">
<title>Node3&#45;&gt;Node4</title>
<g id="a_edge4_Node000003_Node000004"><a xlink:title=" ">
<path fill="none" stroke="#63b8ff" d="M358.5,-182.08C358.5,-170.13 358.5,-155.22 358.5,-145.91"/>
<polygon fill="#63b8ff" stroke="#63b8ff" points="355,-182.37 358.5,-192.37 362,-182.37 355,-182.37"/>
</a>
</g>
</g>
<!-- Node5 -->
<g id="Node000005" class="node">
<title>Node5</title>
<g id="a_Node000005"><a xlink:href="server_8cpp.html" target="_top" xlink:title=" ">
<polygon fill="white" stroke="#666666" points="450.5,-85 308.5,-85 308.5,-66 450.5,-66 450.5,-85"/>
<text text-anchor="middle" x="379.5" y="-73" font-family="Helvetica,sans-Serif" font-size="10.00">src/networking/server.cpp</text>
</a>
</g>
</g>
<!-- Node4&#45;&gt;Node5 -->
<g id="edge5_Node000004_Node000005" class="edge">
<title>Node4&#45;&gt;Node5</title>
<g id="a_edge5_Node000004_Node000005"><a xlink:title=" ">
<path fill="none" stroke="#63b8ff" d="M365.03,-116.82C368.81,-106.28 373.41,-93.48 376.39,-85.17"/>
<polygon fill="#63b8ff" stroke="#63b8ff" points="361.68,-115.77 361.6,-126.37 368.27,-118.14 361.68,-115.77"/>
</a>
</g>
</g>
<!-- Node6 -->
<g id="Node000006" class="node">
<title>Node6</title>
<g id="a_Node000006"><a xlink:href="mainmenu_8cpp.html" target="_top" xlink:title=" ">
<polygon fill="white" stroke="#666666" points="290,-85 171,-85 171,-66 290,-66 290,-85"/>
<text text-anchor="middle" x="230.5" y="-73" font-family="Helvetica,sans-Serif" font-size="10.00">src/ui/mainmenu.cpp</text>
</a>
</g>
</g>
<!-- Node4&#45;&gt;Node6 -->
<g id="edge6_Node000004_Node000006" class="edge">
<title>Node4&#45;&gt;Node6</title>
<g id="a_edge6_Node000004_Node000006"><a xlink:title=" ">
<path fill="none" stroke="#63b8ff" d="M330.67,-122.28C305.97,-110.99 270.57,-94.81 249.13,-85.02"/>
<polygon fill="#63b8ff" stroke="#63b8ff" points="329.34,-125.52 339.89,-126.49 332.25,-119.15 329.34,-125.52"/>
</a>
</g>
</g>
<!-- Node8 -->
<g id="Node000008" class="node">
<title>Node8</title>
<g id="a_Node000008"><a xlink:href="keymap__profile_8cpp.html" target="_top" xlink:title=" ">
<polygon fill="white" stroke="#666666" points="936,-30 821,-30 821,0 936,0 936,-30"/>
<text text-anchor="start" x="829" y="-18" font-family="Helvetica,sans-Serif" font-size="10.00">src/settings/keymap</text>
<text text-anchor="middle" x="878.5" y="-7" font-family="Helvetica,sans-Serif" font-size="10.00">_profile.cpp</text>
</a>
</g>
</g>
<!-- Node7&#45;&gt;Node8 -->
<g id="edge8_Node000007_Node000008" class="edge">
<title>Node7&#45;&gt;Node8</title>
<g id="a_edge8_Node000007_Node000008"><a xlink:title=" ">
<path fill="none" stroke="#63b8ff" d="M735.49,-194.87C804.06,-184.66 906.58,-157.45 955.5,-85 970.62,-62.61 941.35,-42.7 914.66,-30.09"/>
<polygon fill="#63b8ff" stroke="#63b8ff" points="734.62,-191.46 725.21,-196.31 735.59,-198.39 734.62,-191.46"/>
</a>
</g>
</g>
<!-- Node7&#45;&gt;Node9 -->
<g id="edge9_Node000007_Node000009" class="edge">
<title>Node7&#45;&gt;Node9</title>
<g id="a_edge9_Node000007_Node000009"><a xlink:title=" ">
<path fill="none" stroke="#63b8ff" d="M652.21,-178.24C646.14,-169.21 639.36,-159.11 634.02,-151.16"/>
<polygon fill="#63b8ff" stroke="#63b8ff" points="649.47,-180.45 657.96,-186.8 655.29,-176.54 649.47,-180.45"/>
</a>
</g>
</g>
<!-- Node9&#45;&gt;Node2 -->
<g id="edge10_Node000009_Node000002" class="edge">
<title>Node9&#45;&gt;Node2</title>
<g id="a_edge10_Node000009_Node000002"><a xlink:title=" ">
<path fill="none" stroke="#63b8ff" d="M556.67,-127.76C454.3,-116.83 260.89,-96.18 153.42,-84.71"/>
<polygon fill="#63b8ff" stroke="#63b8ff" points="556.58,-131.27 566.89,-128.85 557.32,-124.31 556.58,-131.27"/>
</a>
</g>
</g>
<!-- Node9&#45;&gt;Node5 -->
<g id="edge11_Node000009_Node000005" class="edge">
<title>Node9&#45;&gt;Node5</title>
<g id="a_edge11_Node000009_Node000005"><a xlink:title=" ">
<path fill="none" stroke="#63b8ff" d="M556.88,-118.85C511.04,-107.91 452.27,-93.88 415.24,-85.03"/>
<polygon fill="#63b8ff" stroke="#63b8ff" points="556.21,-122.29 566.75,-121.21 557.83,-115.48 556.21,-122.29"/>
</a>
</g>
</g>
<!-- Node10 -->
<g id="Node000010" class="node">
<title>Node10</title>
<g id="a_Node000010"><a xlink:href="settings_8hpp.html" target="_top" xlink:title=" ">
<polygon fill="white" stroke="#666666" points="946.5,-85 810.5,-85 810.5,-66 946.5,-66 946.5,-85"/>
<text text-anchor="middle" x="878.5" y="-73" font-family="Helvetica,sans-Serif" font-size="10.00">src/settings/settings.hpp</text>
</a>
</g>
</g>
<!-- Node9&#45;&gt;Node10 -->
<g id="edge12_Node000009_Node000010" class="edge">
<title>Node9&#45;&gt;Node10</title>
<g id="a_edge12_Node000009_Node000010"><a xlink:title=" ">
<path fill="none" stroke="#63b8ff" d="M692.12,-119.43C740.03,-108.39 802.47,-94.01 841.53,-85.02"/>
<polygon fill="#63b8ff" stroke="#63b8ff" points="691.1,-116.07 682.14,-121.73 692.67,-122.89 691.1,-116.07"/>
</a>
</g>
</g>
<!-- Node11 -->
<g id="Node000011" class="node">
<title>Node11</title>
<g id="a_Node000011"><a xlink:href="settings__singleton_8cpp.html" target="_top" xlink:title=" ">
<polygon fill="white" stroke="#666666" points="743,-30 628,-30 628,0 743,0 743,-30"/>
<text text-anchor="start" x="636" y="-18" font-family="Helvetica,sans-Serif" font-size="10.00">src/settings/settings</text>
<text text-anchor="middle" x="685.5" y="-7" font-family="Helvetica,sans-Serif" font-size="10.00">_singleton.cpp</text>
</a>
</g>
</g>
<!-- Node9&#45;&gt;Node11 -->
<g id="edge16_Node000009_Node000011" class="edge">
<title>Node9&#45;&gt;Node11</title>
<g id="a_edge16_Node000009_Node000011"><a xlink:title=" ">
<path fill="none" stroke="#63b8ff" d="M628.52,-110.75C631.43,-97.07 636.16,-79.97 643.5,-66 650.56,-52.55 661.74,-39.48 670.79,-30.08"/>
<polygon fill="#63b8ff" stroke="#63b8ff" points="625.03,-110.38 626.56,-120.86 631.9,-111.71 625.03,-110.38"/>
</a>
</g>
</g>
<!-- Node9&#45;&gt;Node12 -->
<g id="edge19_Node000009_Node000012" class="edge">
<title>Node9&#45;&gt;Node12</title>
<g id="a_edge19_Node000009_Node000012"><a xlink:title=" ">
<path fill="none" stroke="#63b8ff" d="M692.35,-130.22C775.65,-123.42 911.34,-109.03 955.5,-85 981.9,-70.63 1002.42,-40.15 1011.46,-24.98"/>
<polygon fill="#63b8ff" stroke="#63b8ff" points="691.9,-126.75 682.21,-131.03 692.46,-133.72 691.9,-126.75"/>
</a>
</g>
</g>
<!-- Node13 -->
<g id="Node000013" class="node">
<title>Node13</title>
<g id="a_Node000013"><a xlink:href="buttoninputbox_8cpp.html" target="_top" xlink:title=" ">
<polygon fill="white" stroke="#666666" points="792.5,-85 652.5,-85 652.5,-66 792.5,-66 792.5,-85"/>
<text text-anchor="middle" x="722.5" y="-73" font-family="Helvetica,sans-Serif" font-size="10.00">src/ui/buttoninputbox.cpp</text>
</a>
</g>
</g>
<!-- Node9&#45;&gt;Node13 -->
<g id="edge17_Node000009_Node000013" class="edge">
<title>Node9&#45;&gt;Node13</title>
<g id="a_edge17_Node000009_Node000013"><a xlink:title=" ">
<path fill="none" stroke="#63b8ff" d="M656.94,-115.64C674.26,-105.3 694.7,-93.09 708.1,-85.09"/>
<polygon fill="#63b8ff" stroke="#63b8ff" points="655.02,-112.71 648.22,-120.84 658.6,-118.72 655.02,-112.71"/>
</a>
</g>
</g>
<!-- Node14 -->
<g id="Node000014" class="node">
<title>Node14</title>
<g id="a_Node000014"><a xlink:href="mainwindow_8cpp.html" target="_top" xlink:title=" ">
<polygon fill="white" stroke="#666666" points="596.5,-85 468.5,-85 468.5,-66 596.5,-66 596.5,-85"/>
<text text-anchor="middle" x="532.5" y="-73" font-family="Helvetica,sans-Serif" font-size="10.00">src/ui/mainwindow.cpp</text>
</a>
</g>
</g>
<!-- Node9&#45;&gt;Node14 -->
<g id="edge18_Node000009_Node000014" class="edge">
<title>Node9&#45;&gt;Node14</title>
<g id="a_edge18_Node000009_Node000014"><a xlink:title=" ">
<path fill="none" stroke="#63b8ff" d="M593.6,-115.35C577.44,-105.07 558.48,-93.02 546.02,-85.09"/>
<polygon fill="#63b8ff" stroke="#63b8ff" points="591.91,-118.43 602.23,-120.84 595.67,-112.52 591.91,-118.43"/>
</a>
</g>
</g>
<!-- Node10&#45;&gt;Node8 -->
<g id="edge13_Node000010_Node000008" class="edge">
<title>Node10&#45;&gt;Node8</title>
<g id="a_edge13_Node000010_Node000008"><a xlink:title=" ">
<path fill="none" stroke="#63b8ff" d="M878.5,-55.65C878.5,-47.36 878.5,-37.78 878.5,-30.11"/>
<polygon fill="#63b8ff" stroke="#63b8ff" points="875,-55.87 878.5,-65.87 882,-55.87 875,-55.87"/>
</a>
</g>
</g>
<!-- Node10&#45;&gt;Node11 -->
<g id="edge14_Node000010_Node000011" class="edge">
<title>Node10&#45;&gt;Node11</title>
<g id="a_edge14_Node000010_Node000011"><a xlink:title=" ">
<path fill="none" stroke="#63b8ff" d="M840.81,-63.08C809.65,-53.63 765.25,-40.17 731.9,-30.06"/>
<polygon fill="#63b8ff" stroke="#63b8ff" points="839.85,-66.44 850.44,-65.99 841.88,-59.74 839.85,-66.44"/>
</a>
</g>
</g>
<!-- Node10&#45;&gt;Node12 -->
<g id="edge15_Node000010_Node000012" class="edge">
<title>Node10&#45;&gt;Node12</title>
<g id="a_edge15_Node000010_Node000012"><a xlink:title=" ">
<path fill="none" stroke="#63b8ff" d="M907.79,-62.08C934.45,-50.78 973.1,-34.4 996.41,-24.52"/>
<polygon fill="#63b8ff" stroke="#63b8ff" points="906.41,-58.87 898.57,-65.99 909.14,-65.31 906.41,-58.87"/>
</a>
</g>
</g>
</g>
</svg>
