<?xml version="1.0" encoding="UTF-8" standalone="no"?>
<!DOCTYPE svg PUBLIC "-//W3C//DTD SVG 1.1//EN"
 "http://www.w3.org/Graphics/SVG/1.1/DTD/svg11.dtd">
<!-- Generated by graphviz version 2.43.0 (0)
 -->
<!-- Title: src/settings/input_types.hpp Pages: 1 -->
<svg width="1036pt" height="291pt"
 viewBox="0.00 0.00 1036.31 291.00" xmlns="http://www.w3.org/2000/svg" xmlns:xlink="http://www.w3.org/1999/xlink">
<g id="graph0" class="graph" transform="scale(1 1) rotate(0) translate(4 287)">
<title>src/settings/input_types.hpp</title>
<!-- Node1 -->
<g id="Node000001" class="node">
<title>Node1</title>
<g id="a_Node000001"><a xlink:title=" ">
<polygon fill="#999999" stroke="#666666" points="571.31,-283 470.31,-283 470.31,-253 571.31,-253 571.31,-283"/>
<text text-anchor="start" x="478.31" y="-271" font-family="Helvetica,sans-Serif" font-size="10.00">src/settings/input</text>
<text text-anchor="middle" x="520.81" y="-260" font-family="Helvetica,sans-Serif" font-size="10.00">_types.hpp</text>
</a>
</g>
</g>
<!-- Node2 -->
<g id="Node000002" class="node">
<title>Node2</title>
<g id="a_Node000002"><a xlink:href="executor_8cpp.html" target="_top" xlink:title=" ">
<polygon fill="white" stroke="#666666" points="169.31,-85 16.31,-85 16.31,-66 169.31,-66 169.31,-85"/>
<text text-anchor="middle" x="92.81" y="-73" font-family="Helvetica,sans-Serif" font-size="10.00">src/networking/executor.cpp</text>
</a>
</g>
</g>
<!-- Node1&#45;&gt;Node2 -->
<g id="edge1_Node000001_Node000002" class="edge">
<title>Node1&#45;&gt;Node2</title>
<g id="a_edge1_Node000001_Node000002"><a xlink:title=" ">
<path fill="none" stroke="#63b8ff" d="M508.21,-244.24C497.14,-226.24 479.45,-201.77 457.81,-187 367.3,-125.23 241.27,-97.15 163.47,-85.01"/>
<polygon fill="#63b8ff" stroke="#63b8ff" points="505.27,-246.15 513.38,-252.97 511.3,-242.58 505.27,-246.15"/>
</a>
</g>
</g>
<!-- Node3 -->
<g id="Node000003" class="node">
<title>Node3</title>
<g id="a_Node000003"><a xlink:href="keymap__profile_8hpp.html" target="_top" xlink:title=" ">
<polygon fill="white" stroke="#666666" points="449.31,-217 334.31,-217 334.31,-187 449.31,-187 449.31,-217"/>
<text text-anchor="start" x="342.31" y="-205" font-family="Helvetica,sans-Serif" font-size="10.00">src/settings/keymap</text>
<text text-anchor="middle" x="391.81" y="-194" font-family="Helvetica,sans-Serif" font-size="10.00">_profile.hpp</text>
</a>
</g>
</g>
<!-- Node1&#45;&gt;Node3 -->
<g id="edge2_Node000001_Node000003" class="edge">
<title>Node1&#45;&gt;Node3</title>
<g id="a_edge2_Node000001_Node000003"><a xlink:title=" ">
<path fill="none" stroke="#63b8ff" d="M483.27,-248.38C463.09,-238.36 438.61,-226.22 420.05,-217.01"/>
<polygon fill="#63b8ff" stroke="#63b8ff" points="481.99,-251.65 492.5,-252.95 485.1,-245.38 481.99,-251.65"/>
</a>
</g>
</g>
<!-- Node5 -->
<g id="Node000005" class="node">
<title>Node5</title>
<g id="a_Node000005"><a xlink:href="settings__singleton_8hpp.html" target="_top" xlink:title=" ">
<polygon fill="white" stroke="#666666" points="621.31,-151 506.31,-151 506.31,-121 621.31,-121 621.31,-151"/>
<text text-anchor="start" x="514.31" y="-139" font-family="Helvetica,sans-Serif" font-size="10.00">src/settings/settings</text>
<text text-anchor="middle" x="563.81" y="-128" font-family="Helvetica,sans-Serif" font-size="10.00">_singleton.hpp</text>
</a>
</g>
</g>
<!-- Node1&#45;&gt;Node5 -->
<g id="edge18_Node000001_Node000005" class="edge">
<title>Node1&#45;&gt;Node5</title>
<g id="a_edge18_Node000001_Node000005"><a xlink:title=" ">
<path fill="none" stroke="#63b8ff" d="M528.74,-243.04C537.65,-216.08 551.83,-173.21 559.13,-151.14"/>
<polygon fill="#63b8ff" stroke="#63b8ff" points="525.31,-242.25 525.49,-252.84 531.96,-244.45 525.31,-242.25"/>
</a>
</g>
</g>
<!-- Node12 -->
<g id="Node000012" class="node">
<title>Node12</title>
<g id="a_Node000012"><a xlink:href="preferences_8hpp.html" target="_top" xlink:title=" ">
<polygon fill="white" stroke="#666666" points="1007.31,-85 882.31,-85 882.31,-66 1007.31,-66 1007.31,-85"/>
<text text-anchor="middle" x="944.81" y="-73" font-family="Helvetica,sans-Serif" font-size="10.00">src/ui/preferences.hpp</text>
</a>
</g>
</g>
<!-- Node1&#45;&gt;Node12 -->
<g id="edge19_Node000001_Node000012" class="edge">
<title>Node1&#45;&gt;Node12</title>
<g id="a_edge19_Node000001_Node000012"><a xlink:title=" ">
<path fill="none" stroke="#63b8ff" d="M561.23,-248.84C650.33,-208.81 860.85,-114.22 925.55,-85.15"/>
<polygon fill="#63b8ff" stroke="#63b8ff" points="559.67,-245.7 551.99,-252.99 562.54,-252.09 559.67,-245.7"/>
</a>
</g>
</g>
<!-- Node4 -->
<g id="Node000004" class="node">
<title>Node4</title>
<g id="a_Node000004"><a xlink:href="keymap__profile_8cpp.html" target="_top" xlink:title=" ">
<polygon fill="white" stroke="#666666" points="213.31,-30 98.31,-30 98.31,0 213.31,0 213.31,-30"/>
<text text-anchor="start" x="106.31" y="-18" font-family="Helvetica,sans-Serif" font-size="10.00">src/settings/keymap</text>
<text text-anchor="middle" x="155.81" y="-7" font-family="Helvetica,sans-Serif" font-size="10.00">_profile.cpp</text>
</a>
</g>
</g>
<!-- Node3&#45;&gt;Node4 -->
<g id="edge3_Node000003_Node000004" class="edge">
<title>Node3&#45;&gt;Node4</title>
<g id="a_edge3_Node000003_Node000004"><a xlink:title=" ">
<path fill="none" stroke="#63b8ff" d="M324.19,-190.44C224.26,-173.3 44.8,-136.12 6.81,-85 -20.57,-48.16 45.43,-30.37 98.17,-22.23"/>
<polygon fill="#63b8ff" stroke="#63b8ff" points="323.75,-193.92 334.2,-192.14 324.92,-187.02 323.75,-193.92"/>
</a>
</g>
</g>
<!-- Node3&#45;&gt;Node5 -->
<g id="edge4_Node000003_Node000005" class="edge">
<title>Node3&#45;&gt;Node5</title>
<g id="a_edge4_Node000003_Node000005"><a xlink:title=" ">
<path fill="none" stroke="#63b8ff" d="M438.96,-183.46C466.4,-173.25 500.52,-160.55 526.15,-151.01"/>
<polygon fill="#63b8ff" stroke="#63b8ff" points="437.71,-180.19 429.56,-186.95 440.15,-186.75 437.71,-180.19"/>
</a>
</g>
</g>
<!-- Node5&#45;&gt;Node2 -->
<g id="edge5_Node000005_Node000002" class="edge">
<title>Node5&#45;&gt;Node2</title>
<g id="a_edge5_Node000005_Node000002"><a xlink:title=" ">
<path fill="none" stroke="#63b8ff" d="M496.22,-121.69C494.74,-121.45 493.27,-121.22 491.81,-121 431.61,-111.81 267.67,-94.43 169.68,-84.32"/>
<polygon fill="#63b8ff" stroke="#63b8ff" points="495.67,-125.15 506.11,-123.35 496.83,-118.25 495.67,-125.15"/>
</a>
</g>
</g>
<!-- Node6 -->
<g id="Node000006" class="node">
<title>Node6</title>
<g id="a_Node000006"><a xlink:href="server_8cpp.html" target="_top" xlink:title=" ">
<polygon fill="white" stroke="#666666" points="787.81,-85 645.81,-85 645.81,-66 787.81,-66 787.81,-85"/>
<text text-anchor="middle" x="716.81" y="-73" font-family="Helvetica,sans-Serif" font-size="10.00">src/networking/server.cpp</text>
</a>
</g>
</g>
<!-- Node5&#45;&gt;Node6 -->
<g id="edge6_Node000005_Node000006" class="edge">
<title>Node5&#45;&gt;Node6</title>
<g id="a_edge6_Node000005_Node000006"><a xlink:title=" ">
<path fill="none" stroke="#63b8ff" d="M610.02,-117.33C637.88,-106.68 672.14,-93.58 694.21,-85.14"/>
<polygon fill="#63b8ff" stroke="#63b8ff" points="608.55,-114.15 600.46,-120.99 611.05,-120.69 608.55,-114.15"/>
</a>
</g>
</g>
<!-- Node7 -->
<g id="Node000007" class="node">
<title>Node7</title>
<g id="a_Node000007"><a xlink:href="settings_8hpp.html" target="_top" xlink:title=" ">
<polygon fill="white" stroke="#666666" points="323.81,-85 187.81,-85 187.81,-66 323.81,-66 323.81,-85"/>
<text text-anchor="middle" x="255.81" y="-73" font-family="Helvetica,sans-Serif" font-size="10.00">src/settings/settings.hpp</text>
</a>
</g>
</g>
<!-- Node5&#45;&gt;Node7 -->
<g id="edge7_Node000005_Node000007" class="edge">
<title>Node5&#45;&gt;Node7</title>
<g id="a_edge7_Node000005_Node000007"><a xlink:title=" ">
<path fill="none" stroke="#63b8ff" d="M496.19,-121.84C494.72,-121.56 493.26,-121.28 491.81,-121 425.68,-108.34 349.06,-93.94 301.51,-85.04"/>
<polygon fill="#63b8ff" stroke="#63b8ff" points="495.57,-125.28 506.05,-123.74 496.89,-118.41 495.57,-125.28"/>
</a>
</g>
</g>
<!-- Node8 -->
<g id="Node000008" class="node">
<title>Node8</title>
<g id="a_Node000008"><a xlink:href="settings__singleton_8cpp.html" target="_top" xlink:title=" ">
<polygon fill="white" stroke="#666666" points="413.31,-30 298.31,-30 298.31,0 413.31,0 413.31,-30"/>
<text text-anchor="start" x="306.31" y="-18" font-family="Helvetica,sans-Serif" font-size="10.00">src/settings/settings</text>
<text text-anchor="middle" x="355.81" y="-7" font-family="Helvetica,sans-Serif" font-size="10.00">_singleton.cpp</text>
</a>
</g>
</g>
<!-- Node5&#45;&gt;Node8 -->
<g id="edge11_Node000005_Node000008" class="edge">
<title>Node5&#45;&gt;Node8</title>
<g id="a_edge11_Node000005_Node000008"><a xlink:title=" ">
<path fill="none" stroke="#63b8ff" d="M631.51,-135.24C716.75,-133.3 846.43,-121.56 796.81,-66 771.69,-37.87 527.14,-23.53 413.42,-18.33"/>
<polygon fill="#63b8ff" stroke="#63b8ff" points="631.28,-131.74 621.35,-135.43 631.41,-138.74 631.28,-131.74"/>
</a>
</g>
</g>
<!-- Node9 -->
<g id="Node000009" class="node">
<title>Node9</title>
<g id="a_Node000009"><a xlink:href="preferences_8cpp.html" target="_top" xlink:title=" ">
<polygon fill="white" stroke="#666666" points="890.81,-24.5 766.81,-24.5 766.81,-5.5 890.81,-5.5 890.81,-24.5"/>
<text text-anchor="middle" x="828.81" y="-12.5" font-family="Helvetica,sans-Serif" font-size="10.00">src/ui/preferences.cpp</text>
</a>
</g>
</g>
<!-- Node5&#45;&gt;Node9 -->
<g id="edge14_Node000005_Node000009" class="edge">
<title>Node5&#45;&gt;Node9</title>
<g id="a_edge14_Node000005_Node000009"><a xlink:title=" ">
<path fill="none" stroke="#63b8ff" d="M631.86,-129.98C697.51,-123.69 790.56,-110.49 815.81,-85 831.94,-68.72 831.39,-39.14 829.96,-24.57"/>
<polygon fill="#63b8ff" stroke="#63b8ff" points="631.2,-126.53 621.57,-130.93 631.85,-133.5 631.2,-126.53"/>
</a>
</g>
</g>
<!-- Node10 -->
<g id="Node000010" class="node">
<title>Node10</title>
<g id="a_Node000010"><a xlink:href="buttoninputbox_8cpp.html" target="_top" xlink:title=" ">
<polygon fill="white" stroke="#666666" points="481.81,-85 341.81,-85 341.81,-66 481.81,-66 481.81,-85"/>
<text text-anchor="middle" x="411.81" y="-73" font-family="Helvetica,sans-Serif" font-size="10.00">src/ui/buttoninputbox.cpp</text>
</a>
</g>
</g>
<!-- Node5&#45;&gt;Node10 -->
<g id="edge12_Node000005_Node000010" class="edge">
<title>Node5&#45;&gt;Node10</title>
<g id="a_edge12_Node000005_Node000010"><a xlink:title=" ">
<path fill="none" stroke="#63b8ff" d="M517.91,-117.33C490.23,-106.68 456.19,-93.58 434.26,-85.14"/>
<polygon fill="#63b8ff" stroke="#63b8ff" points="516.81,-120.66 527.4,-120.99 519.33,-114.13 516.81,-120.66"/>
</a>
</g>
</g>
<!-- Node11 -->
<g id="Node000011" class="node">
<title>Node11</title>
<g id="a_Node000011"><a xlink:href="mainwindow_8cpp.html" target="_top" xlink:title=" ">
<polygon fill="white" stroke="#666666" points="627.81,-85 499.81,-85 499.81,-66 627.81,-66 627.81,-85"/>
<text text-anchor="middle" x="563.81" y="-73" font-family="Helvetica,sans-Serif" font-size="10.00">src/ui/mainwindow.cpp</text>
</a>
</g>
</g>
<!-- Node5&#45;&gt;Node11 -->
<g id="edge13_Node000005_Node000011" class="edge">
<title>Node5&#45;&gt;Node11</title>
<g id="a_edge13_Node000005_Node000011"><a xlink:title=" ">
<path fill="none" stroke="#63b8ff" d="M563.81,-110.75C563.81,-101.72 563.81,-92.03 563.81,-85.27"/>
<polygon fill="#63b8ff" stroke="#63b8ff" points="560.31,-110.84 563.81,-120.84 567.31,-110.84 560.31,-110.84"/>
</a>
</g>
</g>
<!-- Node5&#45;&gt;Node12 -->
<g id="edge15_Node000005_Node000012" class="edge">
<title>Node5&#45;&gt;Node12</title>
<g id="a_edge15_Node000005_Node000012"><a xlink:title=" ">
<path fill="none" stroke="#63b8ff" d="M631.75,-124.57C705.21,-113.29 820.93,-95.52 889.19,-85.04"/>
<polygon fill="#63b8ff" stroke="#63b8ff" points="631.03,-121.14 621.68,-126.12 632.09,-128.06 631.03,-121.14"/>
</a>
</g>
</g>
<!-- Node7&#45;&gt;Node4 -->
<g id="edge8_Node000007_Node000004" class="edge">
<title>Node7&#45;&gt;Node4</title>
<g id="a_edge8_Node000007_Node000004"><a xlink:title=" ">
<path fill="none" stroke="#63b8ff" d="M232.41,-60.81C216.64,-51.58 195.87,-39.43 179.94,-30.11"/>
<polygon fill="#63b8ff" stroke="#63b8ff" points="230.66,-63.84 241.05,-65.87 234.19,-57.8 230.66,-63.84"/>
</a>
</g>
</g>
<!-- Node7&#45;&gt;Node8 -->
<g id="edge9_Node000007_Node000008" class="edge">
<title>Node7&#45;&gt;Node8</title>
<g id="a_edge9_Node000007_Node000008"><a xlink:title=" ">
<path fill="none" stroke="#63b8ff" d="M279.21,-60.81C294.98,-51.58 315.75,-39.43 331.68,-30.11"/>
<polygon fill="#63b8ff" stroke="#63b8ff" points="277.43,-57.8 270.57,-65.87 280.96,-63.84 277.43,-57.8"/>
</a>
</g>
</g>
<!-- Node7&#45;&gt;Node9 -->
<g id="edge10_Node000007_Node000009" class="edge">
<title>Node7&#45;&gt;Node9</title>
<g id="a_edge10_Node000007_Node000009"><a xlink:title=" ">
<path fill="none" stroke="#63b8ff" d="M334,-65.88C496.31,-48.78 674.47,-31.13 766.54,-22.09"/>
<polygon fill="#63b8ff" stroke="#63b8ff" points="333.4,-62.43 323.83,-66.96 334.14,-69.39 333.4,-62.43"/>
</a>
</g>
</g>
<!-- Node12&#45;&gt;Node9 -->
<g id="edge17_Node000012_Node000009" class="edge">
<title>Node12&#45;&gt;Node9</title>
<g id="a_edge17_Node000012_Node000009"><a xlink:title=" ">
<path fill="none" stroke="#63b8ff" d="M918.49,-61.23C896.28,-50.03 865.13,-34.32 846,-24.67"/>
<polygon fill="#63b8ff" stroke="#63b8ff" points="917.19,-64.49 927.69,-65.87 920.34,-58.24 917.19,-64.49"/>
</a>
</g>
</g>
<!-- Node13 -->
<g id="Node000013" class="node">
<title>Node13</title>
<g id="a_Node000013"><a xlink:href="mainmenu_8cpp.html" target="_top" xlink:title=" ">
<polygon fill="white" stroke="#666666" points="1028.31,-24.5 909.31,-24.5 909.31,-5.5 1028.31,-5.5 1028.31,-24.5"/>
<text text-anchor="middle" x="968.81" y="-12.5" font-family="Helvetica,sans-Serif" font-size="10.00">src/ui/mainmenu.cpp</text>
</a>
</g>
</g>
<!-- Node12&#45;&gt;Node13 -->
<g id="edge16_Node000012_Node000013" class="edge">
<title>Node12&#45;&gt;Node13</title>
<g id="a_edge16_Node000012_Node000013"><a xlink:title=" ">
<path fill="none" stroke="#63b8ff" d="M952.27,-56.32C956.59,-45.78 961.85,-32.98 965.25,-24.67"/>
<polygon fill="#63b8ff" stroke="#63b8ff" points="948.91,-55.29 948.35,-65.87 955.38,-57.94 948.91,-55.29"/>
</a>
</g>
</g>
</g>
</svg>
