<?xml version="1.0" encoding="UTF-8" standalone="no"?>
<!DOCTYPE svg PUBLIC "-//W3C//DTD SVG 1.1//EN"
 "http://www.w3.org/Graphics/SVG/1.1/DTD/svg11.dtd">
<!-- Generated by graphviz version 2.43.0 (0)
 -->
<!-- Title: src/settings/input_types.hpp Pages: 1 -->
<svg width="317pt" height="104pt"
 viewBox="0.00 0.00 316.50 104.00" xmlns="http://www.w3.org/2000/svg" xmlns:xlink="http://www.w3.org/1999/xlink">
<g id="graph0" class="graph" transform="scale(1 1) rotate(0) translate(4 100)">
<title>src/settings/input_types.hpp</title>
<!-- Node1 -->
<g id="Node000001" class="node">
<title>Node1</title>
<g id="a_Node000001"><a xlink:title=" ">
<polygon fill="#999999" stroke="#666666" points="243.5,-96 142.5,-96 142.5,-66 243.5,-66 243.5,-96"/>
<text text-anchor="start" x="150.5" y="-84" font-family="Helvetica,sans-Serif" font-size="10.00">src/settings/input</text>
<text text-anchor="middle" x="193" y="-73" font-family="Helvetica,sans-Serif" font-size="10.00">_types.hpp</text>
</a>
</g>
</g>
<!-- Node2 -->
<g id="Node000002" class="node">
<title>Node2</title>
<g id="a_Node000002"><a xlink:href="GameButtons_8h.html" target="_top" xlink:title=" ">
<polygon fill="white" stroke="#666666" points="136,-30 0,-30 0,0 136,0 136,-30"/>
<text text-anchor="start" x="8" y="-18" font-family="Helvetica,sans-Serif" font-size="10.00">../../VGP_Data_Exchange</text>
<text text-anchor="middle" x="68" y="-7" font-family="Helvetica,sans-Serif" font-size="10.00">/C/GameButtons.h</text>
</a>
</g>
</g>
<!-- Node1&#45;&gt;Node2 -->
<g id="edge1_Node000001_Node000002" class="edge">
<title>Node1&#45;&gt;Node2</title>
<g id="a_edge1_Node000001_Node000002"><a xlink:title=" ">
<path fill="none" stroke="#63b8ff" d="M165.57,-65.95C147.58,-56.74 123.85,-44.6 104.3,-34.59"/>
<polygon fill="#63b8ff" stroke="#63b8ff" points="105.86,-31.45 95.37,-30.01 102.67,-37.69 105.86,-31.45"/>
</a>
</g>
</g>
<!-- Node3 -->
<g id="Node000003" class="node">
<title>Node3</title>
<g id="a_Node000003"><a xlink:title=" ">
<polygon fill="#e0e0e0" stroke="#999999" points="231.5,-24.5 154.5,-24.5 154.5,-5.5 231.5,-5.5 231.5,-24.5"/>
<text text-anchor="middle" x="193" y="-12.5" font-family="Helvetica,sans-Serif" font-size="10.00">minwindef.h</text>
</a>
</g>
</g>
<!-- Node1&#45;&gt;Node3 -->
<g id="edge2_Node000001_Node000003" class="edge">
<title>Node1&#45;&gt;Node3</title>
<g id="a_edge2_Node000001_Node000003"><a xlink:title=" ">
<path fill="none" stroke="#63b8ff" d="M193,-65.8C193,-56.7 193,-44.79 193,-34.9"/>
<polygon fill="#63b8ff" stroke="#63b8ff" points="196.5,-34.84 193,-24.84 189.5,-34.84 196.5,-34.84"/>
</a>
</g>
</g>
<!-- Node4 -->
<g id="Node000004" class="node">
<title>Node4</title>
<g id="a_Node000004"><a xlink:title=" ">
<polygon fill="#e0e0e0" stroke="#999999" points="308.5,-24.5 249.5,-24.5 249.5,-5.5 308.5,-5.5 308.5,-24.5"/>
<text text-anchor="middle" x="279" y="-12.5" font-family="Helvetica,sans-Serif" font-size="10.00">qtypes.h</text>
</a>
</g>
</g>
<!-- Node1&#45;&gt;Node4 -->
<g id="edge3_Node000001_Node000004" class="edge">
<title>Node1&#45;&gt;Node4</title>
<g id="a_edge3_Node000001_Node000004"><a xlink:title=" ">
<path fill="none" stroke="#63b8ff" d="M212.09,-65.8C226.02,-55.43 244.86,-41.4 259,-30.88"/>
<polygon fill="#63b8ff" stroke="#63b8ff" points="261.18,-33.62 267.12,-24.84 257,-28.01 261.18,-33.62"/>
</a>
</g>
</g>
</g>
</svg>
