<?xml version="1.0" encoding="UTF-8" standalone="no"?>
<!DOCTYPE svg PUBLIC "-//W3C//DTD SVG 1.1//EN"
 "http://www.w3.org/Graphics/SVG/1.1/DTD/svg11.dtd">
<!-- Generated by graphviz version 2.43.0 (0)
 -->
<!-- Title: src/settings/keymap_profile.hpp Pages: 1 -->
<svg width="530pt" height="159pt"
 viewBox="0.00 0.00 530.00 159.00" xmlns="http://www.w3.org/2000/svg" xmlns:xlink="http://www.w3.org/1999/xlink">
<g id="graph0" class="graph" transform="scale(1 1) rotate(0) translate(4 155)">
<title>src/settings/keymap_profile.hpp</title>
<!-- Node1 -->
<g id="Node000001" class="node">
<title>Node1</title>
<g id="a_Node000001"><a xlink:title=" ">
<polygon fill="#999999" stroke="#666666" points="379.5,-151 264.5,-151 264.5,-121 379.5,-121 379.5,-151"/>
<text text-anchor="start" x="272.5" y="-139" font-family="Helvetica,sans-Serif" font-size="10.00">src/settings/keymap</text>
<text text-anchor="middle" x="322" y="-128" font-family="Helvetica,sans-Serif" font-size="10.00">_profile.hpp</text>
</a>
</g>
</g>
<!-- Node2 -->
<g id="Node000002" class="node">
<title>Node2</title>
<g id="a_Node000002"><a xlink:href="input__types_8hpp.html" target="_top" xlink:title=" ">
<polygon fill="white" stroke="#666666" points="211.5,-85 116.5,-85 116.5,-66 211.5,-66 211.5,-85"/>
<text text-anchor="middle" x="164" y="-73" font-family="Helvetica,sans-Serif" font-size="10.00">input_types.hpp</text>
</a>
</g>
</g>
<!-- Node1&#45;&gt;Node2 -->
<g id="edge1_Node000001_Node000002" class="edge">
<title>Node1&#45;&gt;Node2</title>
<g id="a_edge1_Node000001_Node000002"><a xlink:title=" ">
<path fill="none" stroke="#63b8ff" d="M284.16,-120.99C257.56,-111.14 222.33,-98.1 196.9,-88.68"/>
<polygon fill="#63b8ff" stroke="#63b8ff" points="197.93,-85.33 187.33,-85.14 195.5,-91.89 197.93,-85.33"/>
</a>
</g>
</g>
<!-- Node4 -->
<g id="Node000004" class="node">
<title>Node4</title>
<g id="a_Node000004"><a xlink:title=" ">
<polygon fill="#e0e0e0" stroke="#999999" points="262.5,-24.5 209.5,-24.5 209.5,-5.5 262.5,-5.5 262.5,-24.5"/>
<text text-anchor="middle" x="236" y="-12.5" font-family="Helvetica,sans-Serif" font-size="10.00">QString</text>
</a>
</g>
</g>
<!-- Node1&#45;&gt;Node4 -->
<g id="edge8_Node000001_Node000004" class="edge">
<title>Node1&#45;&gt;Node4</title>
<g id="a_edge8_Node000001_Node000004"><a xlink:title=" ">
<path fill="none" stroke="#63b8ff" d="M298.64,-120.85C285.69,-111.97 270.19,-99.47 260,-85 249.29,-69.79 242.98,-49.37 239.54,-34.7"/>
<polygon fill="#63b8ff" stroke="#63b8ff" points="242.93,-33.84 237.44,-24.78 236.08,-35.28 242.93,-33.84"/>
</a>
</g>
</g>
<!-- Node6 -->
<g id="Node000006" class="node">
<title>Node6</title>
<g id="a_Node000006"><a xlink:title=" ">
<polygon fill="#e0e0e0" stroke="#999999" points="309.5,-85 268.5,-85 268.5,-66 309.5,-66 309.5,-85"/>
<text text-anchor="middle" x="289" y="-73" font-family="Helvetica,sans-Serif" font-size="10.00">QFile</text>
</a>
</g>
</g>
<!-- Node1&#45;&gt;Node6 -->
<g id="edge5_Node000001_Node000006" class="edge">
<title>Node1&#45;&gt;Node6</title>
<g id="a_edge5_Node000001_Node000006"><a xlink:title=" ">
<path fill="none" stroke="#63b8ff" d="M314.01,-120.84C309.47,-112.78 303.73,-102.62 298.9,-94.06"/>
<polygon fill="#63b8ff" stroke="#63b8ff" points="301.91,-92.26 293.94,-85.27 295.81,-95.7 301.91,-92.26"/>
</a>
</g>
</g>
<!-- Node7 -->
<g id="Node000007" class="node">
<title>Node7</title>
<g id="a_Node000007"><a xlink:title=" ">
<polygon fill="#e0e0e0" stroke="#999999" points="384,-85 328,-85 328,-66 384,-66 384,-85"/>
<text text-anchor="middle" x="356" y="-73" font-family="Helvetica,sans-Serif" font-size="10.00">QObject</text>
</a>
</g>
</g>
<!-- Node1&#45;&gt;Node7 -->
<g id="edge6_Node000001_Node000007" class="edge">
<title>Node1&#45;&gt;Node7</title>
<g id="a_edge6_Node000001_Node000007"><a xlink:title=" ">
<path fill="none" stroke="#63b8ff" d="M330.23,-120.84C334.91,-112.78 340.82,-102.62 345.8,-94.06"/>
<polygon fill="#63b8ff" stroke="#63b8ff" points="348.91,-95.67 350.91,-85.27 342.85,-92.15 348.91,-95.67"/>
</a>
</g>
</g>
<!-- Node8 -->
<g id="Node000008" class="node">
<title>Node8</title>
<g id="a_Node000008"><a xlink:title=" ">
<polygon fill="#e0e0e0" stroke="#999999" points="466,-85 402,-85 402,-66 466,-66 466,-85"/>
<text text-anchor="middle" x="434" y="-73" font-family="Helvetica,sans-Serif" font-size="10.00">QSettings</text>
</a>
</g>
</g>
<!-- Node1&#45;&gt;Node8 -->
<g id="edge7_Node000001_Node000008" class="edge">
<title>Node1&#45;&gt;Node8</title>
<g id="a_edge7_Node000001_Node000008"><a xlink:title=" ">
<path fill="none" stroke="#63b8ff" d="M348.83,-120.99C366.85,-111.58 390.46,-99.24 408.25,-89.95"/>
<polygon fill="#63b8ff" stroke="#63b8ff" points="410.22,-92.87 417.46,-85.14 406.98,-86.67 410.22,-92.87"/>
</a>
</g>
</g>
<!-- Node9 -->
<g id="Node000009" class="node">
<title>Node9</title>
<g id="a_Node000009"><a xlink:title=" ">
<polygon fill="#e0e0e0" stroke="#999999" points="522,-85 484,-85 484,-66 522,-66 522,-85"/>
<text text-anchor="middle" x="503" y="-73" font-family="Helvetica,sans-Serif" font-size="10.00">map</text>
</a>
</g>
</g>
<!-- Node1&#45;&gt;Node9 -->
<g id="edge9_Node000001_Node000009" class="edge">
<title>Node1&#45;&gt;Node9</title>
<g id="a_edge9_Node000001_Node000009"><a xlink:title=" ">
<path fill="none" stroke="#63b8ff" d="M365.35,-120.99C399.03,-110.1 444.8,-95.31 474.12,-85.83"/>
<polygon fill="#63b8ff" stroke="#63b8ff" points="475.32,-89.12 483.76,-82.72 473.17,-82.46 475.32,-89.12"/>
</a>
</g>
</g>
<!-- Node3 -->
<g id="Node000003" class="node">
<title>Node3</title>
<g id="a_Node000003"><a xlink:href="GameButtons_8h.html" target="_top" xlink:title=" ">
<polygon fill="white" stroke="#666666" points="136,-30 0,-30 0,0 136,0 136,-30"/>
<text text-anchor="start" x="8" y="-18" font-family="Helvetica,sans-Serif" font-size="10.00">../../VGP_Data_Exchange</text>
<text text-anchor="middle" x="68" y="-7" font-family="Helvetica,sans-Serif" font-size="10.00">/C/GameButtons.h</text>
</a>
</g>
</g>
<!-- Node2&#45;&gt;Node3 -->
<g id="edge2_Node000002_Node000003" class="edge">
<title>Node2&#45;&gt;Node3</title>
<g id="a_edge2_Node000002_Node000003"><a xlink:title=" ">
<path fill="none" stroke="#63b8ff" d="M149.83,-65.87C136.81,-57.93 117.02,-45.87 100.16,-35.6"/>
<polygon fill="#63b8ff" stroke="#63b8ff" points="101.52,-32.33 91.16,-30.11 97.88,-38.31 101.52,-32.33"/>
</a>
</g>
</g>
<!-- Node2&#45;&gt;Node4 -->
<g id="edge3_Node000002_Node000004" class="edge">
<title>Node2&#45;&gt;Node4</title>
<g id="a_edge3_Node000002_Node000004"><a xlink:title=" ">
<path fill="none" stroke="#63b8ff" d="M174.62,-65.87C185.9,-56.71 203.92,-42.06 217.53,-31.01"/>
<polygon fill="#63b8ff" stroke="#63b8ff" points="219.78,-33.69 225.33,-24.67 215.36,-28.26 219.78,-33.69"/>
</a>
</g>
</g>
<!-- Node5 -->
<g id="Node000005" class="node">
<title>Node5</title>
<g id="a_Node000005"><a xlink:title=" ">
<polygon fill="#e0e0e0" stroke="#999999" points="183.5,-24.5 154.5,-24.5 154.5,-5.5 183.5,-5.5 183.5,-24.5"/>
<text text-anchor="middle" x="169" y="-12.5" font-family="Helvetica,sans-Serif" font-size="10.00">Qt</text>
</a>
</g>
</g>
<!-- Node2&#45;&gt;Node5 -->
<g id="edge4_Node000002_Node000005" class="edge">
<title>Node2&#45;&gt;Node5</title>
<g id="a_edge4_Node000002_Node000005"><a xlink:title=" ">
<path fill="none" stroke="#63b8ff" d="M164.74,-65.87C165.43,-57.75 166.5,-45.31 167.39,-34.89"/>
<polygon fill="#63b8ff" stroke="#63b8ff" points="170.89,-34.93 168.26,-24.67 163.92,-34.33 170.89,-34.93"/>
</a>
</g>
</g>
</g>
</svg>
