<?xml version="1.0" encoding="UTF-8" standalone="no"?>
<!DOCTYPE svg PUBLIC "-//W3C//DTD SVG 1.1//EN"
 "http://www.w3.org/Graphics/SVG/1.1/DTD/svg11.dtd">
<!-- Generated by graphviz version 2.43.0 (0)
 -->
<!-- Title: src/settings/keymap_profile.cpp Pages: 1 -->
<svg width="758pt" height="324pt"
 viewBox="0.00 0.00 757.50 324.00" xmlns="http://www.w3.org/2000/svg" xmlns:xlink="http://www.w3.org/1999/xlink">
<g id="graph0" class="graph" transform="scale(1 1) rotate(0) translate(4 320)">
<title>src/settings/keymap_profile.cpp</title>
<!-- Node1 -->
<g id="Node000001" class="node">
<title>Node1</title>
<g id="a_Node000001"><a xlink:title=" ">
<polygon fill="#999999" stroke="#666666" points="283,-316 168,-316 168,-286 283,-286 283,-316"/>
<text text-anchor="start" x="176" y="-304" font-family="Helvetica,sans-Serif" font-size="10.00">src/settings/keymap</text>
<text text-anchor="middle" x="225.5" y="-293" font-family="Helvetica,sans-Serif" font-size="10.00">_profile.cpp</text>
</a>
</g>
</g>
<!-- Node2 -->
<g id="Node000002" class="node">
<title>Node2</title>
<g id="a_Node000002"><a xlink:href="keymap__profile_8hpp.html" target="_top" xlink:title=" ">
<polygon fill="white" stroke="#666666" points="216,-140 103,-140 103,-121 216,-121 216,-140"/>
<text text-anchor="middle" x="159.5" y="-128" font-family="Helvetica,sans-Serif" font-size="10.00">keymap_profile.hpp</text>
</a>
</g>
</g>
<!-- Node1&#45;&gt;Node2 -->
<g id="edge1_Node000001_Node000002" class="edge">
<title>Node1&#45;&gt;Node2</title>
<g id="a_edge1_Node000001_Node000002"><a xlink:title=" ">
<path fill="none" stroke="#63b8ff" d="M219.99,-285.92C208.08,-255.52 179.96,-183.73 166.68,-149.83"/>
<polygon fill="#63b8ff" stroke="#63b8ff" points="169.84,-148.29 162.93,-140.25 163.32,-150.84 169.84,-148.29"/>
</a>
</g>
</g>
<!-- Node7 -->
<g id="Node000007" class="node">
<title>Node7</title>
<g id="a_Node000007"><a xlink:title=" ">
<polygon fill="#e0e0e0" stroke="#999999" points="41,-85 0,-85 0,-66 41,-66 41,-85"/>
<text text-anchor="middle" x="20.5" y="-73" font-family="Helvetica,sans-Serif" font-size="10.00">QFile</text>
</a>
</g>
</g>
<!-- Node1&#45;&gt;Node7 -->
<g id="edge28_Node000001_Node000007" class="edge">
<title>Node1&#45;&gt;Node7</title>
<g id="a_edge28_Node000001_Node000007"><a xlink:title=" ">
<path fill="none" stroke="#63b8ff" d="M212.36,-285.68C175.91,-245.94 73.66,-134.46 35.29,-92.63"/>
<polygon fill="#63b8ff" stroke="#63b8ff" points="37.85,-90.24 28.51,-85.23 32.69,-94.97 37.85,-90.24"/>
</a>
</g>
</g>
<!-- Node12 -->
<g id="Node000012" class="node">
<title>Node12</title>
<g id="a_Node000012"><a xlink:href="settings_8hpp.html" target="_top" xlink:title=" ">
<polygon fill="white" stroke="#666666" points="364,-250 287,-250 287,-231 364,-231 364,-250"/>
<text text-anchor="middle" x="325.5" y="-238" font-family="Helvetica,sans-Serif" font-size="10.00">settings.hpp</text>
</a>
</g>
</g>
<!-- Node1&#45;&gt;Node12 -->
<g id="edge12_Node000001_Node000012" class="edge">
<title>Node1&#45;&gt;Node12</title>
<g id="a_edge12_Node000001_Node000012"><a xlink:title=" ">
<path fill="none" stroke="#63b8ff" d="M249.45,-285.99C265.39,-276.66 286.23,-264.47 302.06,-255.21"/>
<polygon fill="#63b8ff" stroke="#63b8ff" points="303.87,-258.21 310.73,-250.14 300.33,-252.17 303.87,-258.21"/>
</a>
</g>
</g>
<!-- Node19 -->
<g id="Node000019" class="node">
<title>Node19</title>
<g id="a_Node000019"><a xlink:title=" ">
<polygon fill="#e0e0e0" stroke="#999999" points="438.5,-250 382.5,-250 382.5,-231 438.5,-231 438.5,-250"/>
<text text-anchor="middle" x="410.5" y="-238" font-family="Helvetica,sans-Serif" font-size="10.00">QDebug</text>
</a>
</g>
</g>
<!-- Node1&#45;&gt;Node19 -->
<g id="edge27_Node000001_Node000019" class="edge">
<title>Node1&#45;&gt;Node19</title>
<g id="a_edge27_Node000001_Node000019"><a xlink:title=" ">
<path fill="none" stroke="#63b8ff" d="M269.81,-285.99C301.6,-275.94 343.92,-262.55 373.82,-253.1"/>
<polygon fill="#63b8ff" stroke="#63b8ff" points="374.97,-256.41 383.45,-250.05 372.86,-249.73 374.97,-256.41"/>
</a>
</g>
</g>
<!-- Node3 -->
<g id="Node000003" class="node">
<title>Node3</title>
<g id="a_Node000003"><a xlink:href="input__types_8hpp.html" target="_top" xlink:title=" ">
<polygon fill="white" stroke="#666666" points="320,-85 225,-85 225,-66 320,-66 320,-85"/>
<text text-anchor="middle" x="272.5" y="-73" font-family="Helvetica,sans-Serif" font-size="10.00">input_types.hpp</text>
</a>
</g>
</g>
<!-- Node2&#45;&gt;Node3 -->
<g id="edge2_Node000002_Node000003" class="edge">
<title>Node2&#45;&gt;Node3</title>
<g id="a_edge2_Node000002_Node000003"><a xlink:title=" ">
<path fill="none" stroke="#63b8ff" d="M177.66,-120.98C195.75,-112.5 223.78,-99.35 244.69,-89.54"/>
<polygon fill="#63b8ff" stroke="#63b8ff" points="246.45,-92.59 254.01,-85.17 243.47,-86.25 246.45,-92.59"/>
</a>
</g>
</g>
<!-- Node5 -->
<g id="Node000005" class="node">
<title>Node5</title>
<g id="a_Node000005"><a xlink:title=" ">
<polygon fill="#e0e0e0" stroke="#999999" points="202,-24.5 125,-24.5 125,-5.5 202,-5.5 202,-24.5"/>
<text text-anchor="middle" x="163.5" y="-12.5" font-family="Helvetica,sans-Serif" font-size="10.00">minwindef.h</text>
</a>
</g>
</g>
<!-- Node2&#45;&gt;Node5 -->
<g id="edge11_Node000002_Node000005" class="edge">
<title>Node2&#45;&gt;Node5</title>
<g id="a_edge11_Node000002_Node000005"><a xlink:title=" ">
<path fill="none" stroke="#63b8ff" d="M159.28,-120.87C159.02,-108.65 158.72,-85.61 159.5,-66 159.91,-55.73 160.79,-44.3 161.62,-34.97"/>
<polygon fill="#63b8ff" stroke="#63b8ff" points="165.12,-35.12 162.58,-24.84 158.16,-34.47 165.12,-35.12"/>
</a>
</g>
</g>
<!-- Node2&#45;&gt;Node7 -->
<g id="edge6_Node000002_Node000007" class="edge">
<title>Node2&#45;&gt;Node7</title>
<g id="a_edge6_Node000002_Node000007"><a xlink:title=" ">
<path fill="none" stroke="#63b8ff" d="M137.17,-120.98C113.76,-112.06 76.83,-97.98 50.8,-88.05"/>
<polygon fill="#63b8ff" stroke="#63b8ff" points="52,-84.77 41.41,-84.47 49.51,-91.31 52,-84.77"/>
</a>
</g>
</g>
<!-- Node8 -->
<g id="Node000008" class="node">
<title>Node8</title>
<g id="a_Node000008"><a xlink:title=" ">
<polygon fill="#e0e0e0" stroke="#999999" points="394.5,-85 338.5,-85 338.5,-66 394.5,-66 394.5,-85"/>
<text text-anchor="middle" x="366.5" y="-73" font-family="Helvetica,sans-Serif" font-size="10.00">QObject</text>
</a>
</g>
</g>
<!-- Node2&#45;&gt;Node8 -->
<g id="edge7_Node000002_Node000008" class="edge">
<title>Node2&#45;&gt;Node8</title>
<g id="a_edge7_Node000002_Node000008"><a xlink:title=" ">
<path fill="none" stroke="#63b8ff" d="M192.76,-120.98C229.79,-111.5 289.54,-96.2 328.42,-86.25"/>
<polygon fill="#63b8ff" stroke="#63b8ff" points="329.49,-89.59 338.31,-83.72 327.76,-82.81 329.49,-89.59"/>
</a>
</g>
</g>
<!-- Node9 -->
<g id="Node000009" class="node">
<title>Node9</title>
<g id="a_Node000009"><a xlink:title=" ">
<polygon fill="#e0e0e0" stroke="#999999" points="476.5,-85 412.5,-85 412.5,-66 476.5,-66 476.5,-85"/>
<text text-anchor="middle" x="444.5" y="-73" font-family="Helvetica,sans-Serif" font-size="10.00">QSettings</text>
</a>
</g>
</g>
<!-- Node2&#45;&gt;Node9 -->
<g id="edge8_Node000002_Node000009" class="edge">
<title>Node2&#45;&gt;Node9</title>
<g id="a_edge8_Node000002_Node000009"><a xlink:title=" ">
<path fill="none" stroke="#63b8ff" d="M208.17,-120.98C255.35,-112.64 329.19,-99.38 402.43,-85.17"/>
<polygon fill="#63b8ff" stroke="#63b8ff" points="403.14,-88.6 412.29,-83.25 401.8,-81.73 403.14,-88.6"/>
</a>
</g>
</g>
<!-- Node10 -->
<g id="Node000010" class="node">
<title>Node10</title>
<g id="a_Node000010"><a xlink:title=" ">
<polygon fill="#e0e0e0" stroke="#999999" points="112,-85 59,-85 59,-66 112,-66 112,-85"/>
<text text-anchor="middle" x="85.5" y="-73" font-family="Helvetica,sans-Serif" font-size="10.00">QString</text>
</a>
</g>
</g>
<!-- Node2&#45;&gt;Node10 -->
<g id="edge9_Node000002_Node000010" class="edge">
<title>Node2&#45;&gt;Node10</title>
<g id="a_edge9_Node000002_Node000010"><a xlink:title=" ">
<path fill="none" stroke="#63b8ff" d="M147.61,-120.98C136.35,-112.92 119.21,-100.65 105.79,-91.03"/>
<polygon fill="#63b8ff" stroke="#63b8ff" points="107.77,-88.15 97.61,-85.17 103.7,-93.84 107.77,-88.15"/>
</a>
</g>
</g>
<!-- Node11 -->
<g id="Node000011" class="node">
<title>Node11</title>
<g id="a_Node000011"><a xlink:title=" ">
<polygon fill="#e0e0e0" stroke="#999999" points="206.5,-85 168.5,-85 168.5,-66 206.5,-66 206.5,-85"/>
<text text-anchor="middle" x="187.5" y="-73" font-family="Helvetica,sans-Serif" font-size="10.00">map</text>
</a>
</g>
</g>
<!-- Node2&#45;&gt;Node11 -->
<g id="edge10_Node000002_Node000011" class="edge">
<title>Node2&#45;&gt;Node11</title>
<g id="a_edge10_Node000002_Node000011"><a xlink:title=" ">
<path fill="none" stroke="#63b8ff" d="M164.12,-120.75C167.96,-113.49 173.52,-102.95 178.26,-93.98"/>
<polygon fill="#63b8ff" stroke="#63b8ff" points="181.39,-95.57 182.96,-85.09 175.2,-92.3 181.39,-95.57"/>
</a>
</g>
</g>
<!-- Node4 -->
<g id="Node000004" class="node">
<title>Node4</title>
<g id="a_Node000004"><a xlink:href="GameButtons_8h.html" target="_top" xlink:title=" ">
<polygon fill="white" stroke="#666666" points="516.5,-30 380.5,-30 380.5,0 516.5,0 516.5,-30"/>
<text text-anchor="start" x="388.5" y="-18" font-family="Helvetica,sans-Serif" font-size="10.00">../../VGP_Data_Exchange</text>
<text text-anchor="middle" x="448.5" y="-7" font-family="Helvetica,sans-Serif" font-size="10.00">/C/GameButtons.h</text>
</a>
</g>
</g>
<!-- Node3&#45;&gt;Node4 -->
<g id="edge3_Node000003_Node000004" class="edge">
<title>Node3&#45;&gt;Node4</title>
<g id="a_edge3_Node000003_Node000004"><a xlink:title=" ">
<path fill="none" stroke="#63b8ff" d="M298.09,-65.99C323.75,-57.46 364,-44.09 396.41,-33.32"/>
<polygon fill="#63b8ff" stroke="#63b8ff" points="397.8,-36.54 406.19,-30.06 395.59,-29.9 397.8,-36.54"/>
</a>
</g>
</g>
<!-- Node3&#45;&gt;Node5 -->
<g id="edge4_Node000003_Node000005" class="edge">
<title>Node3&#45;&gt;Node5</title>
<g id="a_edge4_Node000003_Node000005"><a xlink:title=" ">
<path fill="none" stroke="#63b8ff" d="M256.42,-65.87C238.55,-56.28 209.46,-40.67 188.59,-29.47"/>
<polygon fill="#63b8ff" stroke="#63b8ff" points="190.12,-26.31 179.65,-24.67 186.81,-32.48 190.12,-26.31"/>
</a>
</g>
</g>
<!-- Node6 -->
<g id="Node000006" class="node">
<title>Node6</title>
<g id="a_Node000006"><a xlink:title=" ">
<polygon fill="#e0e0e0" stroke="#999999" points="302,-24.5 243,-24.5 243,-5.5 302,-5.5 302,-24.5"/>
<text text-anchor="middle" x="272.5" y="-12.5" font-family="Helvetica,sans-Serif" font-size="10.00">qtypes.h</text>
</a>
</g>
</g>
<!-- Node3&#45;&gt;Node6 -->
<g id="edge5_Node000003_Node000006" class="edge">
<title>Node3&#45;&gt;Node6</title>
<g id="a_edge5_Node000003_Node000006"><a xlink:title=" ">
<path fill="none" stroke="#63b8ff" d="M272.5,-65.87C272.5,-57.75 272.5,-45.31 272.5,-34.89"/>
<polygon fill="#63b8ff" stroke="#63b8ff" points="276,-34.67 272.5,-24.67 269,-34.67 276,-34.67"/>
</a>
</g>
</g>
<!-- Node13 -->
<g id="Node000013" class="node">
<title>Node13</title>
<g id="a_Node000013"><a xlink:href="settings__singleton_8hpp.html" target="_top" xlink:title=" ">
<polygon fill="white" stroke="#666666" points="422,-195 295,-195 295,-176 422,-176 422,-195"/>
<text text-anchor="middle" x="358.5" y="-183" font-family="Helvetica,sans-Serif" font-size="10.00">settings_singleton.hpp</text>
</a>
</g>
</g>
<!-- Node12&#45;&gt;Node13 -->
<g id="edge13_Node000012_Node000013" class="edge">
<title>Node12&#45;&gt;Node13</title>
<g id="a_edge13_Node000012_Node000013"><a xlink:title=" ">
<path fill="none" stroke="#63b8ff" d="M330.95,-230.75C335.51,-223.42 342.17,-212.73 347.79,-203.7"/>
<polygon fill="#63b8ff" stroke="#63b8ff" points="350.84,-205.43 353.15,-195.09 344.9,-201.73 350.84,-205.43"/>
</a>
</g>
</g>
<!-- Node14 -->
<g id="Node000014" class="node">
<title>Node14</title>
<g id="a_Node000014"><a xlink:title=" ">
<polygon fill="#e0e0e0" stroke="#999999" points="749.5,-140 711.5,-140 711.5,-121 749.5,-121 749.5,-140"/>
<text text-anchor="middle" x="730.5" y="-128" font-family="Helvetica,sans-Serif" font-size="10.00">QDir</text>
</a>
</g>
</g>
<!-- Node12&#45;&gt;Node14 -->
<g id="edge26_Node000012_Node000014" class="edge">
<title>Node12&#45;&gt;Node14</title>
<g id="a_edge26_Node000012_Node000014"><a xlink:title=" ">
<path fill="none" stroke="#63b8ff" d="M359.41,-231C423.97,-214.71 569.17,-177.61 701.35,-140.25"/>
<polygon fill="#63b8ff" stroke="#63b8ff" points="702.58,-143.54 711.25,-137.45 700.67,-136.81 702.58,-143.54"/>
</a>
</g>
</g>
<!-- Node13&#45;&gt;Node2 -->
<g id="edge16_Node000013_Node000002" class="edge">
<title>Node13&#45;&gt;Node2</title>
<g id="a_edge16_Node000013_Node000002"><a xlink:title=" ">
<path fill="none" stroke="#63b8ff" d="M326.53,-175.98C292.68,-166.97 239.1,-152.7 201.79,-142.76"/>
<polygon fill="#63b8ff" stroke="#63b8ff" points="202.29,-139.27 191.72,-140.08 200.49,-146.04 202.29,-139.27"/>
</a>
</g>
</g>
<!-- Node13&#45;&gt;Node3 -->
<g id="edge15_Node000013_Node000003" class="edge">
<title>Node13&#45;&gt;Node3</title>
<g id="a_edge15_Node000013_Node000003"><a xlink:title=" ">
<path fill="none" stroke="#63b8ff" d="M351.46,-175.66C337.09,-157.61 304.17,-116.28 285.7,-93.08"/>
<polygon fill="#63b8ff" stroke="#63b8ff" points="288.36,-90.8 279.39,-85.16 282.89,-95.16 288.36,-90.8"/>
</a>
</g>
</g>
<!-- Node13&#45;&gt;Node4 -->
<g id="edge14_Node000013_Node000004" class="edge">
<title>Node13&#45;&gt;Node4</title>
<g id="a_edge14_Node000013_Node000004"><a xlink:title=" ">
<path fill="none" stroke="#63b8ff" d="M422.07,-181.07C450.87,-175.94 482.45,-164.57 500.5,-140 524.05,-107.95 493.22,-63.63 469.96,-37.58"/>
<polygon fill="#63b8ff" stroke="#63b8ff" points="472.42,-35.08 463.06,-30.11 467.28,-39.83 472.42,-35.08"/>
</a>
</g>
</g>
<!-- Node13&#45;&gt;Node8 -->
<g id="edge20_Node000013_Node000008" class="edge">
<title>Node13&#45;&gt;Node8</title>
<g id="a_edge20_Node000013_Node000008"><a xlink:title=" ">
<path fill="none" stroke="#63b8ff" d="M354.12,-175.86C348.48,-163.62 339.93,-140.57 344.5,-121 346.7,-111.57 351.21,-101.85 355.57,-93.91"/>
<polygon fill="#63b8ff" stroke="#63b8ff" points="358.62,-95.64 360.66,-85.24 352.58,-92.09 358.62,-95.64"/>
</a>
</g>
</g>
<!-- Node13&#45;&gt;Node9 -->
<g id="edge21_Node000013_Node000009" class="edge">
<title>Node13&#45;&gt;Node9</title>
<g id="a_edge21_Node000013_Node000009"><a xlink:title=" ">
<path fill="none" stroke="#63b8ff" d="M359.39,-175.88C361.12,-162.84 365.91,-137.86 378.5,-121 388.21,-107.99 402.91,-97.55 415.97,-90.06"/>
<polygon fill="#63b8ff" stroke="#63b8ff" points="417.96,-92.96 425.1,-85.13 414.64,-86.8 417.96,-92.96"/>
</a>
</g>
</g>
<!-- Node13&#45;&gt;Node10 -->
<g id="edge22_Node000013_Node000010" class="edge">
<title>Node13&#45;&gt;Node10</title>
<g id="a_edge22_Node000013_Node000010"><a xlink:title=" ">
<path fill="none" stroke="#63b8ff" d="M294.78,-182.18C225.68,-178.27 121.58,-167.8 94.5,-140 83.22,-128.42 81.84,-109.55 82.76,-95.38"/>
<polygon fill="#63b8ff" stroke="#63b8ff" points="86.26,-95.58 83.84,-85.26 79.3,-94.83 86.26,-95.58"/>
</a>
</g>
</g>
<!-- Node13&#45;&gt;Node11 -->
<g id="edge24_Node000013_Node000011" class="edge">
<title>Node13&#45;&gt;Node11</title>
<g id="a_edge24_Node000013_Node000011"><a xlink:title=" ">
<path fill="none" stroke="#63b8ff" d="M344.8,-175.84C315.4,-157.28 246.06,-113.49 210.07,-90.75"/>
<polygon fill="#63b8ff" stroke="#63b8ff" points="211.59,-87.58 201.27,-85.2 207.86,-93.5 211.59,-87.58"/>
</a>
</g>
</g>
<!-- Node13&#45;&gt;Node14 -->
<g id="edge17_Node000013_Node000014" class="edge">
<title>Node13&#45;&gt;Node14</title>
<g id="a_edge17_Node000013_Node000014"><a xlink:title=" ">
<path fill="none" stroke="#63b8ff" d="M422.12,-179.46C489.4,-173.41 598.7,-161.55 701.41,-139.9"/>
<polygon fill="#63b8ff" stroke="#63b8ff" points="702.29,-143.3 711.33,-137.78 700.82,-136.45 702.29,-143.3"/>
</a>
</g>
</g>
<!-- Node15 -->
<g id="Node000015" class="node">
<title>Node15</title>
<g id="a_Node000015"><a xlink:title=" ">
<polygon fill="#e0e0e0" stroke="#999999" points="428,-140 387,-140 387,-121 428,-121 428,-140"/>
<text text-anchor="middle" x="407.5" y="-128" font-family="Helvetica,sans-Serif" font-size="10.00">QList</text>
</a>
</g>
</g>
<!-- Node13&#45;&gt;Node15 -->
<g id="edge18_Node000013_Node000015" class="edge">
<title>Node13&#45;&gt;Node15</title>
<g id="a_edge18_Node000013_Node000015"><a xlink:title=" ">
<path fill="none" stroke="#63b8ff" d="M366.59,-175.75C373.66,-168.11 384.09,-156.82 392.65,-147.56"/>
<polygon fill="#63b8ff" stroke="#63b8ff" points="395.34,-149.81 399.56,-140.09 390.2,-145.06 395.34,-149.81"/>
</a>
</g>
</g>
<!-- Node16 -->
<g id="Node000016" class="node">
<title>Node16</title>
<g id="a_Node000016"><a xlink:title=" ">
<polygon fill="#e0e0e0" stroke="#999999" points="491,-140 446,-140 446,-121 491,-121 491,-140"/>
<text text-anchor="middle" x="468.5" y="-128" font-family="Helvetica,sans-Serif" font-size="10.00">QMap</text>
</a>
</g>
</g>
<!-- Node13&#45;&gt;Node16 -->
<g id="edge19_Node000013_Node000016" class="edge">
<title>Node13&#45;&gt;Node16</title>
<g id="a_edge19_Node000013_Node000016"><a xlink:title=" ">
<path fill="none" stroke="#63b8ff" d="M376.17,-175.98C393.79,-167.5 421.08,-154.35 441.43,-144.54"/>
<polygon fill="#63b8ff" stroke="#63b8ff" points="443.02,-147.66 450.51,-140.17 439.98,-141.36 443.02,-147.66"/>
</a>
</g>
</g>
<!-- Node17 -->
<g id="Node000017" class="node">
<title>Node17</title>
<g id="a_Node000017"><a xlink:title=" ">
<polygon fill="#e0e0e0" stroke="#999999" points="607,-140 548,-140 548,-121 607,-121 607,-140"/>
<text text-anchor="middle" x="577.5" y="-128" font-family="Helvetica,sans-Serif" font-size="10.00">QVariant</text>
</a>
</g>
</g>
<!-- Node13&#45;&gt;Node17 -->
<g id="edge23_Node000013_Node000017" class="edge">
<title>Node13&#45;&gt;Node17</title>
<g id="a_edge23_Node000013_Node000017"><a xlink:title=" ">
<path fill="none" stroke="#63b8ff" d="M393.69,-175.98C433.03,-166.46 496.62,-151.07 537.74,-141.12"/>
<polygon fill="#63b8ff" stroke="#63b8ff" points="538.78,-144.47 547.68,-138.72 537.14,-137.67 538.78,-144.47"/>
</a>
</g>
</g>
<!-- Node18 -->
<g id="Node000018" class="node">
<title>Node18</title>
<g id="a_Node000018"><a xlink:title=" ">
<polygon fill="#e0e0e0" stroke="#999999" points="693.5,-140 625.5,-140 625.5,-121 693.5,-121 693.5,-140"/>
<text text-anchor="middle" x="659.5" y="-128" font-family="Helvetica,sans-Serif" font-size="10.00">windows.h</text>
</a>
</g>
</g>
<!-- Node13&#45;&gt;Node18 -->
<g id="edge25_Node000013_Node000018" class="edge">
<title>Node13&#45;&gt;Node18</title>
<g id="a_edge25_Node000013_Node000018"><a xlink:title=" ">
<path fill="none" stroke="#63b8ff" d="M410.45,-175.92C460.46,-167.58 538.49,-154.33 615.39,-140.17"/>
<polygon fill="#63b8ff" stroke="#63b8ff" points="616.05,-143.61 625.25,-138.35 614.78,-136.72 616.05,-143.61"/>
</a>
</g>
</g>
</g>
</svg>
