<?xml version="1.0" encoding="UTF-8" standalone="no"?>
<!DOCTYPE svg PUBLIC "-//W3C//DTD SVG 1.1//EN"
 "http://www.w3.org/Graphics/SVG/1.1/DTD/svg11.dtd">
<!-- Generated by graphviz version 2.43.0 (0)
 -->
<!-- Title: src/settings/keymap_profile.hpp Pages: 1 -->
<svg width="1011pt" height="225pt"
 viewBox="0.00 0.00 1011.37 225.00" xmlns="http://www.w3.org/2000/svg" xmlns:xlink="http://www.w3.org/1999/xlink">
<g id="graph0" class="graph" transform="scale(1 1) rotate(0) translate(4 221)">
<title>src/settings/keymap_profile.hpp</title>
<!-- Node1 -->
<g id="Node000001" class="node">
<title>Node1</title>
<g id="a_Node000001"><a xlink:title=" ">
<polygon fill="#999999" stroke="#666666" points="267.37,-217 152.37,-217 152.37,-187 267.37,-187 267.37,-217"/>
<text text-anchor="start" x="160.37" y="-205" font-family="Helvetica,sans-Serif" font-size="10.00">src/settings/keymap</text>
<text text-anchor="middle" x="209.87" y="-194" font-family="Helvetica,sans-Serif" font-size="10.00">_profile.hpp</text>
</a>
</g>
</g>
<!-- Node2 -->
<g id="Node000002" class="node">
<title>Node2</title>
<g id="a_Node000002"><a xlink:href="keymap__profile_8cpp.html" target="_top" xlink:title=" ">
<polygon fill="white" stroke="#666666" points="152.37,-30 37.37,-30 37.37,0 152.37,0 152.37,-30"/>
<text text-anchor="start" x="45.37" y="-18" font-family="Helvetica,sans-Serif" font-size="10.00">src/settings/keymap</text>
<text text-anchor="middle" x="94.87" y="-7" font-family="Helvetica,sans-Serif" font-size="10.00">_profile.cpp</text>
</a>
</g>
</g>
<!-- Node1&#45;&gt;Node2 -->
<g id="edge1_Node000001_Node000002" class="edge">
<title>Node1&#45;&gt;Node2</title>
<g id="a_edge1_Node000001_Node000002"><a xlink:title=" ">
<path fill="none" stroke="#63b8ff" d="M144.68,-183.63C96.41,-166.97 34,-136.55 3.87,-85 -10.49,-60.44 19.84,-41.73 49.27,-30.03"/>
<polygon fill="#63b8ff" stroke="#63b8ff" points="143.85,-187.04 154.44,-186.88 146.06,-180.4 143.85,-187.04"/>
</a>
</g>
</g>
<!-- Node3 -->
<g id="Node000003" class="node">
<title>Node3</title>
<g id="a_Node000003"><a xlink:href="settings__singleton_8hpp.html" target="_top" xlink:title=" ">
<polygon fill="white" stroke="#666666" points="492.37,-151 377.37,-151 377.37,-121 492.37,-121 492.37,-151"/>
<text text-anchor="start" x="385.37" y="-139" font-family="Helvetica,sans-Serif" font-size="10.00">src/settings/settings</text>
<text text-anchor="middle" x="434.87" y="-128" font-family="Helvetica,sans-Serif" font-size="10.00">_singleton.hpp</text>
</a>
</g>
</g>
<!-- Node1&#45;&gt;Node3 -->
<g id="edge2_Node000001_Node000003" class="edge">
<title>Node1&#45;&gt;Node3</title>
<g id="a_edge2_Node000001_Node000003"><a xlink:title=" ">
<path fill="none" stroke="#63b8ff" d="M269.2,-184.12C305.48,-173.8 351.34,-160.76 385.6,-151.01"/>
<polygon fill="#63b8ff" stroke="#63b8ff" points="267.9,-180.85 259.24,-186.95 269.82,-187.59 267.9,-180.85"/>
</a>
</g>
</g>
<!-- Node4 -->
<g id="Node000004" class="node">
<title>Node4</title>
<g id="a_Node000004"><a xlink:href="executor_8cpp.html" target="_top" xlink:title=" ">
<polygon fill="white" stroke="#666666" points="1003.37,-85 850.37,-85 850.37,-66 1003.37,-66 1003.37,-85"/>
<text text-anchor="middle" x="926.87" y="-73" font-family="Helvetica,sans-Serif" font-size="10.00">src/networking/executor.cpp</text>
</a>
</g>
</g>
<!-- Node3&#45;&gt;Node4 -->
<g id="edge3_Node000003_Node000004" class="edge">
<title>Node3&#45;&gt;Node4</title>
<g id="a_edge3_Node000003_Node000004"><a xlink:title=" ">
<path fill="none" stroke="#63b8ff" d="M502.86,-126.92C595.54,-115.9 760.79,-96.25 855.29,-85.01"/>
<polygon fill="#63b8ff" stroke="#63b8ff" points="502.27,-123.46 492.75,-128.12 503.09,-130.41 502.27,-123.46"/>
</a>
</g>
</g>
<!-- Node5 -->
<g id="Node000005" class="node">
<title>Node5</title>
<g id="a_Node000005"><a xlink:href="server_8cpp.html" target="_top" xlink:title=" ">
<polygon fill="white" stroke="#666666" points="154.87,-85 12.87,-85 12.87,-66 154.87,-66 154.87,-85"/>
<text text-anchor="middle" x="83.87" y="-73" font-family="Helvetica,sans-Serif" font-size="10.00">src/networking/server.cpp</text>
</a>
</g>
</g>
<!-- Node3&#45;&gt;Node5 -->
<g id="edge4_Node000003_Node000005" class="edge">
<title>Node3&#45;&gt;Node5</title>
<g id="a_edge4_Node000003_Node000005"><a xlink:title=" ">
<path fill="none" stroke="#63b8ff" d="M367.13,-123.71C299.22,-112.39 196.19,-95.22 134.9,-85.01"/>
<polygon fill="#63b8ff" stroke="#63b8ff" points="366.86,-127.21 377.3,-125.41 368.01,-120.31 366.86,-127.21"/>
</a>
</g>
</g>
<!-- Node6 -->
<g id="Node000006" class="node">
<title>Node6</title>
<g id="a_Node000006"><a xlink:href="settings_8hpp.html" target="_top" xlink:title=" ">
<polygon fill="white" stroke="#666666" points="308.87,-85 172.87,-85 172.87,-66 308.87,-66 308.87,-85"/>
<text text-anchor="middle" x="240.87" y="-73" font-family="Helvetica,sans-Serif" font-size="10.00">src/settings/settings.hpp</text>
</a>
</g>
</g>
<!-- Node3&#45;&gt;Node6 -->
<g id="edge5_Node000003_Node000006" class="edge">
<title>Node3&#45;&gt;Node6</title>
<g id="a_edge5_Node000003_Node000006"><a xlink:title=" ">
<path fill="none" stroke="#63b8ff" d="M378.55,-118.02C342.71,-107.21 297.82,-93.67 269.23,-85.05"/>
<polygon fill="#63b8ff" stroke="#63b8ff" points="377.81,-121.45 388.4,-120.99 379.83,-114.75 377.81,-121.45"/>
</a>
</g>
</g>
<!-- Node7 -->
<g id="Node000007" class="node">
<title>Node7</title>
<g id="a_Node000007"><a xlink:href="settings__singleton_8cpp.html" target="_top" xlink:title=" ">
<polygon fill="white" stroke="#666666" points="346.37,-30 231.37,-30 231.37,0 346.37,0 346.37,-30"/>
<text text-anchor="start" x="239.37" y="-18" font-family="Helvetica,sans-Serif" font-size="10.00">src/settings/settings</text>
<text text-anchor="middle" x="288.87" y="-7" font-family="Helvetica,sans-Serif" font-size="10.00">_singleton.cpp</text>
</a>
</g>
</g>
<!-- Node3&#45;&gt;Node7 -->
<g id="edge9_Node000003_Node000007" class="edge">
<title>Node3&#45;&gt;Node7</title>
<g id="a_edge9_Node000003_Node000007"><a xlink:title=" ">
<path fill="none" stroke="#63b8ff" d="M400.67,-115.78C386.3,-107.1 369.74,-96.27 355.87,-85 334.87,-67.95 313.62,-44.84 300.84,-30.18"/>
<polygon fill="#63b8ff" stroke="#63b8ff" points="398.9,-118.8 409.28,-120.89 402.47,-112.78 398.9,-118.8"/>
</a>
</g>
</g>
<!-- Node8 -->
<g id="Node000008" class="node">
<title>Node8</title>
<g id="a_Node000008"><a xlink:href="preferences_8cpp.html" target="_top" xlink:title=" ">
<polygon fill="white" stroke="#666666" points="715.87,-24.5 591.87,-24.5 591.87,-5.5 715.87,-5.5 715.87,-24.5"/>
<text text-anchor="middle" x="653.87" y="-12.5" font-family="Helvetica,sans-Serif" font-size="10.00">src/ui/preferences.cpp</text>
</a>
</g>
</g>
<!-- Node3&#45;&gt;Node8 -->
<g id="edge12_Node000003_Node000008" class="edge">
<title>Node3&#45;&gt;Node8</title>
<g id="a_edge12_Node000003_Node000008"><a xlink:title=" ">
<path fill="none" stroke="#63b8ff" d="M502.39,-129.18C561.32,-122.54 640.37,-109.31 659.87,-85 673.86,-67.55 664.35,-39.03 658.11,-24.74"/>
<polygon fill="#63b8ff" stroke="#63b8ff" points="501.95,-125.71 492.39,-130.27 502.7,-132.67 501.95,-125.71"/>
</a>
</g>
</g>
<!-- Node9 -->
<g id="Node000009" class="node">
<title>Node9</title>
<g id="a_Node000009"><a xlink:href="buttoninputbox_8cpp.html" target="_top" xlink:title=" ">
<polygon fill="white" stroke="#666666" points="504.87,-85 364.87,-85 364.87,-66 504.87,-66 504.87,-85"/>
<text text-anchor="middle" x="434.87" y="-73" font-family="Helvetica,sans-Serif" font-size="10.00">src/ui/buttoninputbox.cpp</text>
</a>
</g>
</g>
<!-- Node3&#45;&gt;Node9 -->
<g id="edge10_Node000003_Node000009" class="edge">
<title>Node3&#45;&gt;Node9</title>
<g id="a_edge10_Node000003_Node000009"><a xlink:title=" ">
<path fill="none" stroke="#63b8ff" d="M434.87,-110.75C434.87,-101.72 434.87,-92.03 434.87,-85.27"/>
<polygon fill="#63b8ff" stroke="#63b8ff" points="431.37,-110.84 434.87,-120.84 438.37,-110.84 431.37,-110.84"/>
</a>
</g>
</g>
<!-- Node10 -->
<g id="Node000010" class="node">
<title>Node10</title>
<g id="a_Node000010"><a xlink:href="mainwindow_8cpp.html" target="_top" xlink:title=" ">
<polygon fill="white" stroke="#666666" points="650.87,-85 522.87,-85 522.87,-66 650.87,-66 650.87,-85"/>
<text text-anchor="middle" x="586.87" y="-73" font-family="Helvetica,sans-Serif" font-size="10.00">src/ui/mainwindow.cpp</text>
</a>
</g>
</g>
<!-- Node3&#45;&gt;Node10 -->
<g id="edge11_Node000003_Node000010" class="edge">
<title>Node3&#45;&gt;Node10</title>
<g id="a_edge11_Node000003_Node000010"><a xlink:title=" ">
<path fill="none" stroke="#63b8ff" d="M480.77,-117.33C508.45,-106.68 542.48,-93.58 564.42,-85.14"/>
<polygon fill="#63b8ff" stroke="#63b8ff" points="479.35,-114.13 471.27,-120.99 481.86,-120.66 479.35,-114.13"/>
</a>
</g>
</g>
<!-- Node11 -->
<g id="Node000011" class="node">
<title>Node11</title>
<g id="a_Node000011"><a xlink:href="preferences_8hpp.html" target="_top" xlink:title=" ">
<polygon fill="white" stroke="#666666" points="832.37,-85 707.37,-85 707.37,-66 832.37,-66 832.37,-85"/>
<text text-anchor="middle" x="769.87" y="-73" font-family="Helvetica,sans-Serif" font-size="10.00">src/ui/preferences.hpp</text>
</a>
</g>
</g>
<!-- Node3&#45;&gt;Node11 -->
<g id="edge13_Node000003_Node000011" class="edge">
<title>Node3&#45;&gt;Node11</title>
<g id="a_edge13_Node000003_Node000011"><a xlink:title=" ">
<path fill="none" stroke="#63b8ff" d="M502.58,-123.18C567.4,-111.86 663.59,-95.06 721.18,-85"/>
<polygon fill="#63b8ff" stroke="#63b8ff" points="501.7,-119.78 492.45,-124.94 502.91,-126.67 501.7,-119.78"/>
</a>
</g>
</g>
<!-- Node6&#45;&gt;Node2 -->
<g id="edge6_Node000006_Node000002" class="edge">
<title>Node6&#45;&gt;Node2</title>
<g id="a_edge6_Node000006_Node000002"><a xlink:title=" ">
<path fill="none" stroke="#63b8ff" d="M210.19,-62.21C186.75,-52.82 154.43,-39.87 129.97,-30.06"/>
<polygon fill="#63b8ff" stroke="#63b8ff" points="209.05,-65.52 219.64,-65.99 211.66,-59.03 209.05,-65.52"/>
</a>
</g>
</g>
<!-- Node6&#45;&gt;Node7 -->
<g id="edge7_Node000006_Node000007" class="edge">
<title>Node6&#45;&gt;Node7</title>
<g id="a_edge7_Node000006_Node000007"><a xlink:title=" ">
<path fill="none" stroke="#63b8ff" d="M254.5,-57.88C261.69,-49.11 270.42,-38.48 277.28,-30.11"/>
<polygon fill="#63b8ff" stroke="#63b8ff" points="251.59,-55.92 247.95,-65.87 257,-60.36 251.59,-55.92"/>
</a>
</g>
</g>
<!-- Node6&#45;&gt;Node8 -->
<g id="edge8_Node000006_Node000008" class="edge">
<title>Node6&#45;&gt;Node8</title>
<g id="a_edge8_Node000006_Node000008"><a xlink:title=" ">
<path fill="none" stroke="#63b8ff" d="M310.84,-64.59C390.3,-53.33 518.61,-35.16 593.74,-24.52"/>
<polygon fill="#63b8ff" stroke="#63b8ff" points="310.33,-61.13 300.92,-65.99 311.31,-68.06 310.33,-61.13"/>
</a>
</g>
</g>
<!-- Node11&#45;&gt;Node8 -->
<g id="edge15_Node000011_Node000008" class="edge">
<title>Node11&#45;&gt;Node8</title>
<g id="a_edge15_Node000011_Node000008"><a xlink:title=" ">
<path fill="none" stroke="#63b8ff" d="M743.54,-61.23C721.34,-50.03 690.19,-34.32 671.05,-24.67"/>
<polygon fill="#63b8ff" stroke="#63b8ff" points="742.24,-64.49 752.75,-65.87 745.4,-58.24 742.24,-64.49"/>
</a>
</g>
</g>
<!-- Node12 -->
<g id="Node000012" class="node">
<title>Node12</title>
<g id="a_Node000012"><a xlink:href="mainmenu_8cpp.html" target="_top" xlink:title=" ">
<polygon fill="white" stroke="#666666" points="853.37,-24.5 734.37,-24.5 734.37,-5.5 853.37,-5.5 853.37,-24.5"/>
<text text-anchor="middle" x="793.87" y="-12.5" font-family="Helvetica,sans-Serif" font-size="10.00">src/ui/mainmenu.cpp</text>
</a>
</g>
</g>
<!-- Node11&#45;&gt;Node12 -->
<g id="edge14_Node000011_Node000012" class="edge">
<title>Node11&#45;&gt;Node12</title>
<g id="a_edge14_Node000011_Node000012"><a xlink:title=" ">
<path fill="none" stroke="#63b8ff" d="M777.32,-56.32C781.65,-45.78 786.9,-32.98 790.31,-24.67"/>
<polygon fill="#63b8ff" stroke="#63b8ff" points="773.96,-55.29 773.41,-65.87 780.44,-57.94 773.96,-55.29"/>
</a>
</g>
</g>
</g>
</svg>
