<?xml version="1.0" encoding="UTF-8" standalone="no"?>
<!DOCTYPE svg PUBLIC "-//W3C//DTD SVG 1.1//EN"
 "http://www.w3.org/Graphics/SVG/1.1/DTD/svg11.dtd">
<!-- Generated by graphviz version 2.43.0 (0)
 -->
<!-- Title: src/settings/keymap_profile.hpp Pages: 1 -->
<svg width="629pt" height="159pt"
 viewBox="0.00 0.00 629.00 159.00" xmlns="http://www.w3.org/2000/svg" xmlns:xlink="http://www.w3.org/1999/xlink">
<g id="graph0" class="graph" transform="scale(1 1) rotate(0) translate(4 155)">
<title>src/settings/keymap_profile.hpp</title>
<!-- Node1 -->
<g id="Node000001" class="node">
<title>Node1</title>
<g id="a_Node000001"><a xlink:title=" ">
<polygon fill="#999999" stroke="#666666" points="440.5,-151 325.5,-151 325.5,-121 440.5,-121 440.5,-151"/>
<text text-anchor="start" x="333.5" y="-139" font-family="Helvetica,sans-Serif" font-size="10.00">src/settings/keymap</text>
<text text-anchor="middle" x="383" y="-128" font-family="Helvetica,sans-Serif" font-size="10.00">_profile.hpp</text>
</a>
</g>
</g>
<!-- Node2 -->
<g id="Node000002" class="node">
<title>Node2</title>
<g id="a_Node000002"><a xlink:href="input__types_8hpp.html" target="_top" xlink:title=" ">
<polygon fill="white" stroke="#666666" points="236.5,-85 141.5,-85 141.5,-66 236.5,-66 236.5,-85"/>
<text text-anchor="middle" x="189" y="-73" font-family="Helvetica,sans-Serif" font-size="10.00">input_types.hpp</text>
</a>
</g>
</g>
<!-- Node1&#45;&gt;Node2 -->
<g id="edge1_Node000001_Node000002" class="edge">
<title>Node1&#45;&gt;Node2</title>
<g id="a_edge1_Node000001_Node000002"><a xlink:title=" ">
<path fill="none" stroke="#63b8ff" d="M336.53,-120.99C303.05,-110.89 258.43,-97.44 227.06,-87.98"/>
<polygon fill="#63b8ff" stroke="#63b8ff" points="227.95,-84.59 217.37,-85.05 225.93,-91.29 227.95,-84.59"/>
</a>
</g>
</g>
<!-- Node4 -->
<g id="Node000004" class="node">
<title>Node4</title>
<g id="a_Node000004"><a xlink:title=" ">
<polygon fill="#e0e0e0" stroke="#999999" points="308.5,-24.5 231.5,-24.5 231.5,-5.5 308.5,-5.5 308.5,-24.5"/>
<text text-anchor="middle" x="270" y="-12.5" font-family="Helvetica,sans-Serif" font-size="10.00">minwindef.h</text>
</a>
</g>
</g>
<!-- Node1&#45;&gt;Node4 -->
<g id="edge10_Node000001_Node000004" class="edge">
<title>Node1&#45;&gt;Node4</title>
<g id="a_edge10_Node000001_Node000004"><a xlink:title=" ">
<path fill="none" stroke="#63b8ff" d="M337.9,-120.83C319.65,-112.98 299.89,-101.4 287,-85 275.7,-70.62 271.79,-49.76 270.49,-34.75"/>
<polygon fill="#63b8ff" stroke="#63b8ff" points="273.98,-34.4 269.94,-24.61 266.99,-34.79 273.98,-34.4"/>
</a>
</g>
</g>
<!-- Node6 -->
<g id="Node000006" class="node">
<title>Node6</title>
<g id="a_Node000006"><a xlink:title=" ">
<polygon fill="#e0e0e0" stroke="#999999" points="336.5,-85 295.5,-85 295.5,-66 336.5,-66 336.5,-85"/>
<text text-anchor="middle" x="316" y="-73" font-family="Helvetica,sans-Serif" font-size="10.00">QFile</text>
</a>
</g>
</g>
<!-- Node1&#45;&gt;Node6 -->
<g id="edge5_Node000001_Node000006" class="edge">
<title>Node1&#45;&gt;Node6</title>
<g id="a_edge5_Node000001_Node000006"><a xlink:title=" ">
<path fill="none" stroke="#63b8ff" d="M366.78,-120.84C356.76,-112.09 343.89,-100.85 333.62,-91.88"/>
<polygon fill="#63b8ff" stroke="#63b8ff" points="335.87,-89.21 326.04,-85.27 331.27,-94.48 335.87,-89.21"/>
</a>
</g>
</g>
<!-- Node7 -->
<g id="Node000007" class="node">
<title>Node7</title>
<g id="a_Node000007"><a xlink:title=" ">
<polygon fill="#e0e0e0" stroke="#999999" points="411,-85 355,-85 355,-66 411,-66 411,-85"/>
<text text-anchor="middle" x="383" y="-73" font-family="Helvetica,sans-Serif" font-size="10.00">QObject</text>
</a>
</g>
</g>
<!-- Node1&#45;&gt;Node7 -->
<g id="edge6_Node000001_Node000007" class="edge">
<title>Node1&#45;&gt;Node7</title>
<g id="a_edge6_Node000001_Node000007"><a xlink:title=" ">
<path fill="none" stroke="#63b8ff" d="M383,-120.84C383,-113.21 383,-103.7 383,-95.45"/>
<polygon fill="#63b8ff" stroke="#63b8ff" points="386.5,-95.27 383,-85.27 379.5,-95.27 386.5,-95.27"/>
</a>
</g>
</g>
<!-- Node8 -->
<g id="Node000008" class="node">
<title>Node8</title>
<g id="a_Node000008"><a xlink:title=" ">
<polygon fill="#e0e0e0" stroke="#999999" points="493,-85 429,-85 429,-66 493,-66 493,-85"/>
<text text-anchor="middle" x="461" y="-73" font-family="Helvetica,sans-Serif" font-size="10.00">QSettings</text>
</a>
</g>
</g>
<!-- Node1&#45;&gt;Node8 -->
<g id="edge7_Node000001_Node000008" class="edge">
<title>Node1&#45;&gt;Node8</title>
<g id="a_edge7_Node000001_Node000008"><a xlink:title=" ">
<path fill="none" stroke="#63b8ff" d="M401.88,-120.84C413.78,-111.91 429.12,-100.41 441.2,-91.35"/>
<polygon fill="#63b8ff" stroke="#63b8ff" points="443.41,-94.07 449.31,-85.27 439.21,-88.47 443.41,-94.07"/>
</a>
</g>
</g>
<!-- Node9 -->
<g id="Node000009" class="node">
<title>Node9</title>
<g id="a_Node000009"><a xlink:title=" ">
<polygon fill="#e0e0e0" stroke="#999999" points="564.5,-85 511.5,-85 511.5,-66 564.5,-66 564.5,-85"/>
<text text-anchor="middle" x="538" y="-73" font-family="Helvetica,sans-Serif" font-size="10.00">QString</text>
</a>
</g>
</g>
<!-- Node1&#45;&gt;Node9 -->
<g id="edge8_Node000001_Node000009" class="edge">
<title>Node1&#45;&gt;Node9</title>
<g id="a_edge8_Node000001_Node000009"><a xlink:title=" ">
<path fill="none" stroke="#63b8ff" d="M420.13,-120.99C446.22,-111.14 480.78,-98.1 505.73,-88.68"/>
<polygon fill="#63b8ff" stroke="#63b8ff" points="506.99,-91.94 515.11,-85.14 504.52,-85.4 506.99,-91.94"/>
</a>
</g>
</g>
<!-- Node10 -->
<g id="Node000010" class="node">
<title>Node10</title>
<g id="a_Node000010"><a xlink:title=" ">
<polygon fill="#e0e0e0" stroke="#999999" points="621,-85 583,-85 583,-66 621,-66 621,-85"/>
<text text-anchor="middle" x="602" y="-73" font-family="Helvetica,sans-Serif" font-size="10.00">map</text>
</a>
</g>
</g>
<!-- Node1&#45;&gt;Node10 -->
<g id="edge9_Node000001_Node000010" class="edge">
<title>Node1&#45;&gt;Node10</title>
<g id="a_edge9_Node000001_Node000010"><a xlink:title=" ">
<path fill="none" stroke="#63b8ff" d="M439.15,-120.91C474.98,-111.78 522.62,-99.38 572.98,-85.21"/>
<polygon fill="#63b8ff" stroke="#63b8ff" points="574.08,-88.54 582.75,-82.45 572.17,-81.8 574.08,-88.54"/>
</a>
</g>
</g>
<!-- Node3 -->
<g id="Node000003" class="node">
<title>Node3</title>
<g id="a_Node000003"><a xlink:href="GameButtons_8h.html" target="_top" xlink:title=" ">
<polygon fill="white" stroke="#666666" points="136,-30 0,-30 0,0 136,0 136,-30"/>
<text text-anchor="start" x="8" y="-18" font-family="Helvetica,sans-Serif" font-size="10.00">../../VGP_Data_Exchange</text>
<text text-anchor="middle" x="68" y="-7" font-family="Helvetica,sans-Serif" font-size="10.00">/C/GameButtons.h</text>
</a>
</g>
</g>
<!-- Node2&#45;&gt;Node3 -->
<g id="edge2_Node000002_Node000003" class="edge">
<title>Node2&#45;&gt;Node3</title>
<g id="a_edge2_Node000002_Node000003"><a xlink:title=" ">
<path fill="none" stroke="#63b8ff" d="M171.41,-65.99C154.43,-57.79 128.17,-45.09 106.36,-34.55"/>
<polygon fill="#63b8ff" stroke="#63b8ff" points="107.85,-31.38 97.32,-30.18 104.8,-37.68 107.85,-31.38"/>
</a>
</g>
</g>
<!-- Node2&#45;&gt;Node4 -->
<g id="edge3_Node000002_Node000004" class="edge">
<title>Node2&#45;&gt;Node4</title>
<g id="a_edge3_Node000002_Node000004"><a xlink:title=" ">
<path fill="none" stroke="#63b8ff" d="M200.95,-65.87C213.75,-56.62 234.3,-41.78 249.65,-30.69"/>
<polygon fill="#63b8ff" stroke="#63b8ff" points="251.94,-33.36 258,-24.67 247.84,-27.68 251.94,-33.36"/>
</a>
</g>
</g>
<!-- Node5 -->
<g id="Node000005" class="node">
<title>Node5</title>
<g id="a_Node000005"><a xlink:title=" ">
<polygon fill="#e0e0e0" stroke="#999999" points="213.5,-24.5 154.5,-24.5 154.5,-5.5 213.5,-5.5 213.5,-24.5"/>
<text text-anchor="middle" x="184" y="-12.5" font-family="Helvetica,sans-Serif" font-size="10.00">qtypes.h</text>
</a>
</g>
</g>
<!-- Node2&#45;&gt;Node5 -->
<g id="edge4_Node000002_Node000005" class="edge">
<title>Node2&#45;&gt;Node5</title>
<g id="a_edge4_Node000002_Node000005"><a xlink:title=" ">
<path fill="none" stroke="#63b8ff" d="M188.26,-65.87C187.57,-57.75 186.5,-45.31 185.61,-34.89"/>
<polygon fill="#63b8ff" stroke="#63b8ff" points="189.08,-34.33 184.74,-24.67 182.11,-34.93 189.08,-34.33"/>
</a>
</g>
</g>
</g>
</svg>
