<?xml version="1.0" encoding="UTF-8" standalone="no"?>
<!DOCTYPE svg PUBLIC "-//W3C//DTD SVG 1.1//EN"
 "http://www.w3.org/Graphics/SVG/1.1/DTD/svg11.dtd">
<!-- Generated by graphviz version 2.43.0 (0)
 -->
<!-- Title: src/settings/keymap_profile.cpp Pages: 1 -->
<svg width="764pt" height="324pt"
 viewBox="0.00 0.00 764.25 324.00" xmlns="http://www.w3.org/2000/svg" xmlns:xlink="http://www.w3.org/1999/xlink">
<g id="graph0" class="graph" transform="scale(1 1) rotate(0) translate(4 320)">
<title>src/settings/keymap_profile.cpp</title>
<!-- Node1 -->
<g id="Node000001" class="node">
<title>Node1</title>
<g id="a_Node000001"><a xlink:title=" ">
<polygon fill="#999999" stroke="#666666" points="471.75,-316 356.75,-316 356.75,-286 471.75,-286 471.75,-316"/>
<text text-anchor="start" x="364.75" y="-304" font-family="Helvetica,sans-Serif" font-size="10.00">src/settings/keymap</text>
<text text-anchor="middle" x="414.25" y="-293" font-family="Helvetica,sans-Serif" font-size="10.00">_profile.cpp</text>
</a>
</g>
</g>
<!-- Node2 -->
<g id="Node000002" class="node">
<title>Node2</title>
<g id="a_Node000002"><a xlink:href="keymap__profile_8hpp.html" target="_top" xlink:title=" ">
<polygon fill="white" stroke="#666666" points="688.75,-140 575.75,-140 575.75,-121 688.75,-121 688.75,-140"/>
<text text-anchor="middle" x="632.25" y="-128" font-family="Helvetica,sans-Serif" font-size="10.00">keymap_profile.hpp</text>
</a>
</g>
</g>
<!-- Node1&#45;&gt;Node2 -->
<g id="edge1_Node000001_Node000002" class="edge">
<title>Node1&#45;&gt;Node2</title>
<g id="a_edge1_Node000001_Node000002"><a xlink:title=" ">
<path fill="none" stroke="#63b8ff" d="M432.46,-285.92C473.16,-254.47 571.18,-178.7 612.91,-146.45"/>
<polygon fill="#63b8ff" stroke="#63b8ff" points="615.15,-149.14 620.92,-140.25 610.87,-143.6 615.15,-149.14"/>
</a>
</g>
</g>
<!-- Node9 -->
<g id="Node000009" class="node">
<title>Node9</title>
<g id="a_Node000009"><a xlink:title=" ">
<polygon fill="#e0e0e0" stroke="#999999" points="242.25,-85 178.25,-85 178.25,-66 242.25,-66 242.25,-85"/>
<text text-anchor="middle" x="210.25" y="-73" font-family="Helvetica,sans-Serif" font-size="10.00">QSettings</text>
</a>
</g>
</g>
<!-- Node1&#45;&gt;Node9 -->
<g id="edge31_Node000001_Node000009" class="edge">
<title>Node1&#45;&gt;Node9</title>
<g id="a_edge31_Node000001_Node000009"><a xlink:title=" ">
<path fill="none" stroke="#63b8ff" d="M356.51,-294.83C252.85,-284.1 42.68,-255.22 7.25,-195 -31.95,-128.37 98.02,-95.46 168.26,-82.86"/>
<polygon fill="#63b8ff" stroke="#63b8ff" points="168.91,-86.3 178.16,-81.14 167.71,-79.4 168.91,-86.3"/>
</a>
</g>
</g>
<!-- Node11 -->
<g id="Node000011" class="node">
<title>Node11</title>
<g id="a_Node000011"><a xlink:href="buttoninputbox_8hpp.html" target="_top" xlink:title=" ">
<polygon fill="white" stroke="#666666" points="248.75,-250 115.75,-250 115.75,-231 248.75,-231 248.75,-250"/>
<text text-anchor="middle" x="182.25" y="-238" font-family="Helvetica,sans-Serif" font-size="10.00">../ui/buttoninputbox.hpp</text>
</a>
</g>
</g>
<!-- Node1&#45;&gt;Node11 -->
<g id="edge11_Node000001_Node000011" class="edge">
<title>Node1&#45;&gt;Node11</title>
<g id="a_edge11_Node000001_Node000011"><a xlink:title=" ">
<path fill="none" stroke="#63b8ff" d="M358.68,-285.99C318.12,-275.76 263.89,-262.09 226.3,-252.61"/>
<polygon fill="#63b8ff" stroke="#63b8ff" points="226.72,-249.1 216.17,-250.05 225.01,-255.89 226.72,-249.1"/>
</a>
</g>
</g>
<!-- Node16 -->
<g id="Node000016" class="node">
<title>Node16</title>
<g id="a_Node000016"><a xlink:href="settings_8hpp.html" target="_top" xlink:title=" ">
<polygon fill="white" stroke="#666666" points="452.75,-250 375.75,-250 375.75,-231 452.75,-231 452.75,-250"/>
<text text-anchor="middle" x="414.25" y="-238" font-family="Helvetica,sans-Serif" font-size="10.00">settings.hpp</text>
</a>
</g>
</g>
<!-- Node1&#45;&gt;Node16 -->
<g id="edge17_Node000001_Node000016" class="edge">
<title>Node1&#45;&gt;Node16</title>
<g id="a_edge17_Node000001_Node000016"><a xlink:title=" ">
<path fill="none" stroke="#63b8ff" d="M414.25,-285.84C414.25,-278.21 414.25,-268.7 414.25,-260.45"/>
<polygon fill="#63b8ff" stroke="#63b8ff" points="417.75,-260.27 414.25,-250.27 410.75,-260.27 417.75,-260.27"/>
</a>
</g>
</g>
<!-- Node22 -->
<g id="Node000022" class="node">
<title>Node22</title>
<g id="a_Node000022"><a xlink:title=" ">
<polygon fill="#e0e0e0" stroke="#999999" points="636.25,-250 580.25,-250 580.25,-231 636.25,-231 636.25,-250"/>
<text text-anchor="middle" x="608.25" y="-238" font-family="Helvetica,sans-Serif" font-size="10.00">QDebug</text>
</a>
</g>
</g>
<!-- Node1&#45;&gt;Node22 -->
<g id="edge30_Node000001_Node000022" class="edge">
<title>Node1&#45;&gt;Node22</title>
<g id="a_edge30_Node000001_Node000022"><a xlink:title=" ">
<path fill="none" stroke="#63b8ff" d="M460.72,-285.99C494.3,-275.86 539.09,-262.35 570.48,-252.89"/>
<polygon fill="#63b8ff" stroke="#63b8ff" points="571.6,-256.21 580.17,-249.97 569.58,-249.5 571.6,-256.21"/>
</a>
</g>
</g>
<!-- Node3 -->
<g id="Node000003" class="node">
<title>Node3</title>
<g id="a_Node000003"><a xlink:href="input__types_8hpp.html" target="_top" xlink:title=" ">
<polygon fill="white" stroke="#666666" points="564.75,-85 469.75,-85 469.75,-66 564.75,-66 564.75,-85"/>
<text text-anchor="middle" x="517.25" y="-73" font-family="Helvetica,sans-Serif" font-size="10.00">input_types.hpp</text>
</a>
</g>
</g>
<!-- Node2&#45;&gt;Node3 -->
<g id="edge2_Node000002_Node000003" class="edge">
<title>Node2&#45;&gt;Node3</title>
<g id="a_edge2_Node000002_Node000003"><a xlink:title=" ">
<path fill="none" stroke="#63b8ff" d="M613.77,-120.98C595.27,-112.46 566.57,-99.23 545.27,-89.41"/>
<polygon fill="#63b8ff" stroke="#63b8ff" points="546.61,-86.18 536.06,-85.17 543.68,-92.53 546.61,-86.18"/>
</a>
</g>
</g>
<!-- Node5 -->
<g id="Node000005" class="node">
<title>Node5</title>
<g id="a_Node000005"><a xlink:title=" ">
<polygon fill="#e0e0e0" stroke="#999999" points="543.75,-24.5 490.75,-24.5 490.75,-5.5 543.75,-5.5 543.75,-24.5"/>
<text text-anchor="middle" x="517.25" y="-12.5" font-family="Helvetica,sans-Serif" font-size="10.00">QString</text>
</a>
</g>
</g>
<!-- Node2&#45;&gt;Node5 -->
<g id="edge9_Node000002_Node000005" class="edge">
<title>Node2&#45;&gt;Node5</title>
<g id="a_edge9_Node000002_Node000005"><a xlink:title=" ">
<path fill="none" stroke="#63b8ff" d="M624.66,-120.59C613.86,-108.04 593.23,-84.6 574.25,-66 561.81,-53.81 547.01,-40.87 535.61,-31.21"/>
<polygon fill="#63b8ff" stroke="#63b8ff" points="537.55,-28.27 527.64,-24.52 533.05,-33.63 537.55,-28.27"/>
</a>
</g>
</g>
<!-- Node7 -->
<g id="Node000007" class="node">
<title>Node7</title>
<g id="a_Node000007"><a xlink:title=" ">
<polygon fill="#e0e0e0" stroke="#999999" points="718.75,-85 677.75,-85 677.75,-66 718.75,-66 718.75,-85"/>
<text text-anchor="middle" x="698.25" y="-73" font-family="Helvetica,sans-Serif" font-size="10.00">QFile</text>
</a>
</g>
</g>
<!-- Node2&#45;&gt;Node7 -->
<g id="edge6_Node000002_Node000007" class="edge">
<title>Node2&#45;&gt;Node7</title>
<g id="a_edge6_Node000002_Node000007"><a xlink:title=" ">
<path fill="none" stroke="#63b8ff" d="M642.85,-120.98C652.7,-113.07 667.6,-101.11 679.46,-91.58"/>
<polygon fill="#63b8ff" stroke="#63b8ff" points="681.85,-94.16 687.45,-85.17 677.46,-88.7 681.85,-94.16"/>
</a>
</g>
</g>
<!-- Node8 -->
<g id="Node000008" class="node">
<title>Node8</title>
<g id="a_Node000008"><a xlink:title=" ">
<polygon fill="#e0e0e0" stroke="#999999" points="451.25,-85 395.25,-85 395.25,-66 451.25,-66 451.25,-85"/>
<text text-anchor="middle" x="423.25" y="-73" font-family="Helvetica,sans-Serif" font-size="10.00">QObject</text>
</a>
</g>
</g>
<!-- Node2&#45;&gt;Node8 -->
<g id="edge7_Node000002_Node000008" class="edge">
<title>Node2&#45;&gt;Node8</title>
<g id="a_edge7_Node000002_Node000008"><a xlink:title=" ">
<path fill="none" stroke="#63b8ff" d="M598.67,-120.98C561.09,-111.46 500.35,-96.05 461.11,-86.1"/>
<polygon fill="#63b8ff" stroke="#63b8ff" points="461.94,-82.7 451.38,-83.63 460.22,-89.49 461.94,-82.7"/>
</a>
</g>
</g>
<!-- Node2&#45;&gt;Node9 -->
<g id="edge8_Node000002_Node000009" class="edge">
<title>Node2&#45;&gt;Node9</title>
<g id="a_edge8_Node000002_Node000009"><a xlink:title=" ">
<path fill="none" stroke="#63b8ff" d="M575.34,-122.35C489.5,-111.57 328.84,-91.39 252.55,-81.81"/>
<polygon fill="#63b8ff" stroke="#63b8ff" points="252.72,-78.31 242.36,-80.53 251.85,-85.25 252.72,-78.31"/>
</a>
</g>
</g>
<!-- Node10 -->
<g id="Node000010" class="node">
<title>Node10</title>
<g id="a_Node000010"><a xlink:title=" ">
<polygon fill="#e0e0e0" stroke="#999999" points="659.25,-85 621.25,-85 621.25,-66 659.25,-66 659.25,-85"/>
<text text-anchor="middle" x="640.25" y="-73" font-family="Helvetica,sans-Serif" font-size="10.00">map</text>
</a>
</g>
</g>
<!-- Node2&#45;&gt;Node10 -->
<g id="edge10_Node000002_Node000010" class="edge">
<title>Node2&#45;&gt;Node10</title>
<g id="a_edge10_Node000002_Node000010"><a xlink:title=" ">
<path fill="none" stroke="#63b8ff" d="M633.57,-120.75C634.62,-113.8 636.12,-103.85 637.44,-95.13"/>
<polygon fill="#63b8ff" stroke="#63b8ff" points="640.92,-95.5 638.95,-85.09 634,-94.45 640.92,-95.5"/>
</a>
</g>
</g>
<!-- Node4 -->
<g id="Node000004" class="node">
<title>Node4</title>
<g id="a_Node000004"><a xlink:href="GameButtons_8h.html" target="_top" xlink:title=" ">
<polygon fill="white" stroke="#666666" points="756.25,-30 620.25,-30 620.25,0 756.25,0 756.25,-30"/>
<text text-anchor="start" x="628.25" y="-18" font-family="Helvetica,sans-Serif" font-size="10.00">../../VGP_Data_Exchange</text>
<text text-anchor="middle" x="688.25" y="-7" font-family="Helvetica,sans-Serif" font-size="10.00">/C/GameButtons.h</text>
</a>
</g>
</g>
<!-- Node3&#45;&gt;Node4 -->
<g id="edge3_Node000003_Node000004" class="edge">
<title>Node3&#45;&gt;Node4</title>
<g id="a_edge3_Node000003_Node000004"><a xlink:title=" ">
<path fill="none" stroke="#63b8ff" d="M542.11,-65.99C567.05,-57.46 606.15,-44.09 637.64,-33.32"/>
<polygon fill="#63b8ff" stroke="#63b8ff" points="638.81,-36.61 647.14,-30.06 636.54,-29.99 638.81,-36.61"/>
</a>
</g>
</g>
<!-- Node3&#45;&gt;Node5 -->
<g id="edge4_Node000003_Node000005" class="edge">
<title>Node3&#45;&gt;Node5</title>
<g id="a_edge4_Node000003_Node000005"><a xlink:title=" ">
<path fill="none" stroke="#63b8ff" d="M517.25,-65.87C517.25,-57.75 517.25,-45.31 517.25,-34.89"/>
<polygon fill="#63b8ff" stroke="#63b8ff" points="520.75,-34.67 517.25,-24.67 513.75,-34.67 520.75,-34.67"/>
</a>
</g>
</g>
<!-- Node6 -->
<g id="Node000006" class="node">
<title>Node6</title>
<g id="a_Node000006"><a xlink:title=" ">
<polygon fill="#e0e0e0" stroke="#999999" points="256.75,-24.5 227.75,-24.5 227.75,-5.5 256.75,-5.5 256.75,-24.5"/>
<text text-anchor="middle" x="242.25" y="-12.5" font-family="Helvetica,sans-Serif" font-size="10.00">Qt</text>
</a>
</g>
</g>
<!-- Node3&#45;&gt;Node6 -->
<g id="edge5_Node000003_Node000006" class="edge">
<title>Node3&#45;&gt;Node6</title>
<g id="a_edge5_Node000003_Node000006"><a xlink:title=" ">
<path fill="none" stroke="#63b8ff" d="M477.26,-65.99C419.49,-53.7 314.41,-31.35 266.83,-21.23"/>
<polygon fill="#63b8ff" stroke="#63b8ff" points="267.32,-17.75 256.81,-19.1 265.86,-24.6 267.32,-17.75"/>
</a>
</g>
</g>
<!-- Node11&#45;&gt;Node6 -->
<g id="edge16_Node000011_Node000006" class="edge">
<title>Node11&#45;&gt;Node6</title>
<g id="a_edge16_Node000011_Node000006"><a xlink:title=" ">
<path fill="none" stroke="#63b8ff" d="M115.57,-238.62C56.55,-234.92 -16.78,-221.43 7.25,-176 52.71,-90.05 167.35,-41.64 217.79,-23.89"/>
<polygon fill="#63b8ff" stroke="#63b8ff" points="219.2,-27.1 227.53,-20.56 216.94,-20.48 219.2,-27.1"/>
</a>
</g>
</g>
<!-- Node12 -->
<g id="Node000012" class="node">
<title>Node12</title>
<g id="a_Node000012"><a xlink:title=" ">
<polygon fill="#e0e0e0" stroke="#999999" points="340.25,-195 288.25,-195 288.25,-176 340.25,-176 340.25,-195"/>
<text text-anchor="middle" x="314.25" y="-183" font-family="Helvetica,sans-Serif" font-size="10.00">QEvent</text>
</a>
</g>
</g>
<!-- Node11&#45;&gt;Node12 -->
<g id="edge12_Node000011_Node000012" class="edge">
<title>Node11&#45;&gt;Node12</title>
<g id="a_edge12_Node000011_Node000012"><a xlink:title=" ">
<path fill="none" stroke="#63b8ff" d="M203.46,-230.98C224.98,-222.34 258.53,-208.87 283.08,-199.02"/>
<polygon fill="#63b8ff" stroke="#63b8ff" points="284.68,-202.14 292.65,-195.17 282.07,-195.65 284.68,-202.14"/>
</a>
</g>
</g>
<!-- Node13 -->
<g id="Node000013" class="node">
<title>Node13</title>
<g id="a_Node000013"><a xlink:title=" ">
<polygon fill="#e0e0e0" stroke="#999999" points="86.25,-195 16.25,-195 16.25,-176 86.25,-176 86.25,-195"/>
<text text-anchor="middle" x="51.25" y="-183" font-family="Helvetica,sans-Serif" font-size="10.00">QKeyEvent</text>
</a>
</g>
</g>
<!-- Node11&#45;&gt;Node13 -->
<g id="edge13_Node000011_Node000013" class="edge">
<title>Node11&#45;&gt;Node13</title>
<g id="a_edge13_Node000011_Node000013"><a xlink:title=" ">
<path fill="none" stroke="#63b8ff" d="M161.2,-230.98C139.84,-222.34 106.54,-208.87 82.18,-199.02"/>
<polygon fill="#63b8ff" stroke="#63b8ff" points="83.26,-195.68 72.68,-195.17 80.64,-202.17 83.26,-195.68"/>
</a>
</g>
</g>
<!-- Node14 -->
<g id="Node000014" class="node">
<title>Node14</title>
<g id="a_Node000014"><a xlink:title=" ">
<polygon fill="#e0e0e0" stroke="#999999" points="167.75,-195 104.75,-195 104.75,-176 167.75,-176 167.75,-195"/>
<text text-anchor="middle" x="136.25" y="-183" font-family="Helvetica,sans-Serif" font-size="10.00">QLineEdit</text>
</a>
</g>
</g>
<!-- Node11&#45;&gt;Node14 -->
<g id="edge14_Node000011_Node000014" class="edge">
<title>Node11&#45;&gt;Node14</title>
<g id="a_edge14_Node000011_Node000014"><a xlink:title=" ">
<path fill="none" stroke="#63b8ff" d="M174.65,-230.75C168.09,-223.18 158.43,-212.05 150.43,-202.84"/>
<polygon fill="#63b8ff" stroke="#63b8ff" points="152.9,-200.35 143.7,-195.09 147.61,-204.94 152.9,-200.35"/>
</a>
</g>
</g>
<!-- Node15 -->
<g id="Node000015" class="node">
<title>Node15</title>
<g id="a_Node000015"><a xlink:title=" ">
<polygon fill="#e0e0e0" stroke="#999999" points="270.25,-195 186.25,-195 186.25,-176 270.25,-176 270.25,-195"/>
<text text-anchor="middle" x="228.25" y="-183" font-family="Helvetica,sans-Serif" font-size="10.00">QMouseEvent</text>
</a>
</g>
</g>
<!-- Node11&#45;&gt;Node15 -->
<g id="edge15_Node000011_Node000015" class="edge">
<title>Node11&#45;&gt;Node15</title>
<g id="a_edge15_Node000011_Node000015"><a xlink:title=" ">
<path fill="none" stroke="#63b8ff" d="M189.84,-230.75C196.41,-223.18 206.07,-212.05 214.06,-202.84"/>
<polygon fill="#63b8ff" stroke="#63b8ff" points="216.88,-204.94 220.79,-195.09 211.6,-200.35 216.88,-204.94"/>
</a>
</g>
</g>
<!-- Node17 -->
<g id="Node000017" class="node">
<title>Node17</title>
<g id="a_Node000017"><a xlink:href="settings__singleton_8hpp.html" target="_top" xlink:title=" ">
<polygon fill="white" stroke="#666666" points="523.75,-195 396.75,-195 396.75,-176 523.75,-176 523.75,-195"/>
<text text-anchor="middle" x="460.25" y="-183" font-family="Helvetica,sans-Serif" font-size="10.00">settings_singleton.hpp</text>
</a>
</g>
</g>
<!-- Node16&#45;&gt;Node17 -->
<g id="edge18_Node000016_Node000017" class="edge">
<title>Node16&#45;&gt;Node17</title>
<g id="a_edge18_Node000016_Node000017"><a xlink:title=" ">
<path fill="none" stroke="#63b8ff" d="M421.84,-230.75C428.41,-223.18 438.07,-212.05 446.06,-202.84"/>
<polygon fill="#63b8ff" stroke="#63b8ff" points="448.88,-204.94 452.79,-195.09 443.6,-200.35 448.88,-204.94"/>
</a>
</g>
</g>
<!-- Node18 -->
<g id="Node000018" class="node">
<title>Node18</title>
<g id="a_Node000018"><a xlink:title=" ">
<polygon fill="#e0e0e0" stroke="#999999" points="204.25,-140 166.25,-140 166.25,-121 204.25,-121 204.25,-140"/>
<text text-anchor="middle" x="185.25" y="-128" font-family="Helvetica,sans-Serif" font-size="10.00">QDir</text>
</a>
</g>
</g>
<!-- Node16&#45;&gt;Node18 -->
<g id="edge29_Node000016_Node000018" class="edge">
<title>Node16&#45;&gt;Node18</title>
<g id="a_edge29_Node000016_Node000018"><a xlink:title=" ">
<path fill="none" stroke="#63b8ff" d="M407.7,-230.68C397,-216.91 374.45,-190.41 349.25,-176 343.31,-172.6 259.83,-150.75 214.33,-138.98"/>
<polygon fill="#63b8ff" stroke="#63b8ff" points="215,-135.54 204.44,-136.43 213.25,-142.32 215,-135.54"/>
</a>
</g>
</g>
<!-- Node17&#45;&gt;Node2 -->
<g id="edge21_Node000017_Node000002" class="edge">
<title>Node17&#45;&gt;Node2</title>
<g id="a_edge21_Node000017_Node000002"><a xlink:title=" ">
<path fill="none" stroke="#63b8ff" d="M487.88,-175.98C516.76,-167.09 562.26,-153.07 594.45,-143.15"/>
<polygon fill="#63b8ff" stroke="#63b8ff" points="595.87,-146.37 604.4,-140.08 593.81,-139.68 595.87,-146.37"/>
</a>
</g>
</g>
<!-- Node17&#45;&gt;Node3 -->
<g id="edge20_Node000017_Node000003" class="edge">
<title>Node17&#45;&gt;Node3</title>
<g id="a_edge20_Node000017_Node000003"><a xlink:title=" ">
<path fill="none" stroke="#63b8ff" d="M484.03,-175.92C499.68,-168.89 518.92,-157.25 528.25,-140 535.81,-126.02 531.59,-108.01 526.34,-94.74"/>
<polygon fill="#63b8ff" stroke="#63b8ff" points="529.39,-92.98 522.11,-85.28 523,-95.84 529.39,-92.98"/>
</a>
</g>
</g>
<!-- Node17&#45;&gt;Node4 -->
<g id="edge19_Node000017_Node000004" class="edge">
<title>Node17&#45;&gt;Node4</title>
<g id="a_edge19_Node000017_Node000004"><a xlink:title=" ">
<path fill="none" stroke="#63b8ff" d="M523.79,-178.79C584.6,-172.24 671,-159.79 698.25,-140 726.96,-119.15 740,-99.49 728.25,-66 724.61,-55.62 717.8,-45.78 710.82,-37.63"/>
<polygon fill="#63b8ff" stroke="#63b8ff" points="713.23,-35.09 703.89,-30.08 708.07,-39.82 713.23,-35.09"/>
</a>
</g>
</g>
<!-- Node17&#45;&gt;Node5 -->
<g id="edge27_Node000017_Node000005" class="edge">
<title>Node17&#45;&gt;Node5</title>
<g id="a_edge27_Node000017_Node000005"><a xlink:title=" ">
<path fill="none" stroke="#63b8ff" d="M396.56,-176.01C353.98,-168.88 303.44,-157.09 290.25,-140 285.09,-133.32 286.01,-128.31 290.25,-121 329.64,-53.03 426.75,-28.69 480.31,-20.26"/>
<polygon fill="#63b8ff" stroke="#63b8ff" points="481.02,-23.69 490.41,-18.77 480.01,-16.76 481.02,-23.69"/>
</a>
</g>
</g>
<!-- Node17&#45;&gt;Node8 -->
<g id="edge25_Node000017_Node000008" class="edge">
<title>Node17&#45;&gt;Node8</title>
<g id="a_edge25_Node000017_Node000008"><a xlink:title=" ">
<path fill="none" stroke="#63b8ff" d="M457.22,-175.66C451.17,-158.01 437.5,-118.09 429.46,-94.64"/>
<polygon fill="#63b8ff" stroke="#63b8ff" points="432.77,-93.48 426.21,-85.16 426.14,-95.75 432.77,-93.48"/>
</a>
</g>
</g>
<!-- Node17&#45;&gt;Node9 -->
<g id="edge26_Node000017_Node000009" class="edge">
<title>Node17&#45;&gt;Node9</title>
<g id="a_edge26_Node000017_Node000009"><a xlink:title=" ">
<path fill="none" stroke="#63b8ff" d="M398.52,-175.98C347.34,-168.03 279.38,-155.13 256.25,-140 239.03,-128.74 226.11,-108.64 218.42,-94.07"/>
<polygon fill="#63b8ff" stroke="#63b8ff" points="221.51,-92.44 213.93,-85.04 215.24,-95.55 221.51,-92.44"/>
</a>
</g>
</g>
<!-- Node17&#45;&gt;Node18 -->
<g id="edge22_Node000017_Node000018" class="edge">
<title>Node17&#45;&gt;Node18</title>
<g id="a_edge22_Node000017_Node000018"><a xlink:title=" ">
<path fill="none" stroke="#63b8ff" d="M407.64,-175.92C358.47,-167.65 283.12,-154.3 218.25,-140 216.98,-139.72 215.69,-139.43 214.38,-139.12"/>
<polygon fill="#63b8ff" stroke="#63b8ff" points="214.93,-135.65 204.39,-136.67 213.27,-142.45 214.93,-135.65"/>
</a>
</g>
</g>
<!-- Node19 -->
<g id="Node000019" class="node">
<title>Node19</title>
<g id="a_Node000019"><a xlink:title=" ">
<polygon fill="#e0e0e0" stroke="#999999" points="339.75,-140 298.75,-140 298.75,-121 339.75,-121 339.75,-140"/>
<text text-anchor="middle" x="319.25" y="-128" font-family="Helvetica,sans-Serif" font-size="10.00">QList</text>
</a>
</g>
</g>
<!-- Node17&#45;&gt;Node19 -->
<g id="edge23_Node000017_Node000019" class="edge">
<title>Node17&#45;&gt;Node19</title>
<g id="a_edge23_Node000017_Node000019"><a xlink:title=" ">
<path fill="none" stroke="#63b8ff" d="M437.59,-175.98C413.71,-167.01 375.96,-152.82 349.53,-142.88"/>
<polygon fill="#63b8ff" stroke="#63b8ff" points="350.6,-139.55 340.01,-139.3 348.14,-146.1 350.6,-139.55"/>
</a>
</g>
</g>
<!-- Node20 -->
<g id="Node000020" class="node">
<title>Node20</title>
<g id="a_Node000020"><a xlink:title=" ">
<polygon fill="#e0e0e0" stroke="#999999" points="402.75,-140 357.75,-140 357.75,-121 402.75,-121 402.75,-140"/>
<text text-anchor="middle" x="380.25" y="-128" font-family="Helvetica,sans-Serif" font-size="10.00">QMap</text>
</a>
</g>
</g>
<!-- Node17&#45;&gt;Node20 -->
<g id="edge24_Node000017_Node000020" class="edge">
<title>Node17&#45;&gt;Node20</title>
<g id="a_edge24_Node000017_Node000020"><a xlink:title=" ">
<path fill="none" stroke="#63b8ff" d="M447.4,-175.98C435.11,-167.84 416.34,-155.41 401.77,-145.76"/>
<polygon fill="#63b8ff" stroke="#63b8ff" points="403.61,-142.78 393.34,-140.17 399.74,-148.61 403.61,-142.78"/>
</a>
</g>
</g>
<!-- Node21 -->
<g id="Node000021" class="node">
<title>Node21</title>
<g id="a_Node000021"><a xlink:title=" ">
<polygon fill="#e0e0e0" stroke="#999999" points="518.75,-140 459.75,-140 459.75,-121 518.75,-121 518.75,-140"/>
<text text-anchor="middle" x="489.25" y="-128" font-family="Helvetica,sans-Serif" font-size="10.00">QVariant</text>
</a>
</g>
</g>
<!-- Node17&#45;&gt;Node21 -->
<g id="edge28_Node000017_Node000021" class="edge">
<title>Node17&#45;&gt;Node21</title>
<g id="a_edge28_Node000017_Node000021"><a xlink:title=" ">
<path fill="none" stroke="#63b8ff" d="M465.04,-175.75C469.01,-168.49 474.77,-157.95 479.68,-148.98"/>
<polygon fill="#63b8ff" stroke="#63b8ff" points="482.82,-150.54 484.55,-140.09 476.68,-147.18 482.82,-150.54"/>
</a>
</g>
</g>
</g>
</svg>
