<?xml version="1.0" encoding="UTF-8" standalone="no"?>
<!DOCTYPE svg PUBLIC "-//W3C//DTD SVG 1.1//EN"
 "http://www.w3.org/Graphics/SVG/1.1/DTD/svg11.dtd">
<!-- Generated by graphviz version 2.43.0 (0)
 -->
<!-- Title: src/settings/keymap_profile.hpp Pages: 1 -->
<svg width="874pt" height="225pt"
 viewBox="0.00 0.00 873.64 225.00" xmlns="http://www.w3.org/2000/svg" xmlns:xlink="http://www.w3.org/1999/xlink">
<g id="graph0" class="graph" transform="scale(1 1) rotate(0) translate(4 221)">
<title>src/settings/keymap_profile.hpp</title>
<!-- Node1 -->
<g id="Node000001" class="node">
<title>Node1</title>
<g id="a_Node000001"><a xlink:title=" ">
<polygon fill="#999999" stroke="#666666" points="195.64,-217 80.64,-217 80.64,-187 195.64,-187 195.64,-217"/>
<text text-anchor="start" x="88.64" y="-205" font-family="Helvetica,sans-Serif" font-size="10.00">src/settings/keymap</text>
<text text-anchor="middle" x="138.14" y="-194" font-family="Helvetica,sans-Serif" font-size="10.00">_profile.hpp</text>
</a>
</g>
</g>
<!-- Node2 -->
<g id="Node000002" class="node">
<title>Node2</title>
<g id="a_Node000002"><a xlink:href="keymap__profile_8cpp.html" target="_top" xlink:title=" ">
<polygon fill="white" stroke="#666666" points="235.64,-30 120.64,-30 120.64,0 235.64,0 235.64,-30"/>
<text text-anchor="start" x="128.64" y="-18" font-family="Helvetica,sans-Serif" font-size="10.00">src/settings/keymap</text>
<text text-anchor="middle" x="178.14" y="-7" font-family="Helvetica,sans-Serif" font-size="10.00">_profile.cpp</text>
</a>
</g>
</g>
<!-- Node1&#45;&gt;Node2 -->
<g id="edge1_Node000001_Node000002" class="edge">
<title>Node1&#45;&gt;Node2</title>
<g id="a_edge1_Node000001_Node000002"><a xlink:title=" ">
<path fill="none" stroke="#63b8ff" d="M96.75,-182.35C47.33,-157.46 -24.67,-111.26 9.14,-66 22.69,-47.86 77.06,-33.98 120.52,-25.5"/>
<polygon fill="#63b8ff" stroke="#63b8ff" points="95.47,-185.62 105.99,-186.89 98.56,-179.33 95.47,-185.62"/>
</a>
</g>
</g>
<!-- Node3 -->
<g id="Node000003" class="node">
<title>Node3</title>
<g id="a_Node000003"><a xlink:href="settings__singleton_8hpp.html" target="_top" xlink:title=" ">
<polygon fill="white" stroke="#666666" points="419.64,-151 304.64,-151 304.64,-121 419.64,-121 419.64,-151"/>
<text text-anchor="start" x="312.64" y="-139" font-family="Helvetica,sans-Serif" font-size="10.00">src/settings/settings</text>
<text text-anchor="middle" x="362.14" y="-128" font-family="Helvetica,sans-Serif" font-size="10.00">_singleton.hpp</text>
</a>
</g>
</g>
<!-- Node1&#45;&gt;Node3 -->
<g id="edge2_Node000001_Node000003" class="edge">
<title>Node1&#45;&gt;Node3</title>
<g id="a_edge2_Node000001_Node000003"><a xlink:title=" ">
<path fill="none" stroke="#63b8ff" d="M197.21,-184.12C233.33,-173.8 278.98,-160.76 313.1,-151.01"/>
<polygon fill="#63b8ff" stroke="#63b8ff" points="195.95,-180.84 187.3,-186.95 197.87,-187.57 195.95,-180.84"/>
</a>
</g>
</g>
<!-- Node4 -->
<g id="Node000004" class="node">
<title>Node4</title>
<g id="a_Node000004"><a xlink:href="executor_8cpp.html" target="_top" xlink:title=" ">
<polygon fill="white" stroke="#666666" points="865.64,-85 712.64,-85 712.64,-66 865.64,-66 865.64,-85"/>
<text text-anchor="middle" x="789.14" y="-73" font-family="Helvetica,sans-Serif" font-size="10.00">src/networking/executor.cpp</text>
</a>
</g>
</g>
<!-- Node3&#45;&gt;Node4 -->
<g id="edge3_Node000003_Node000004" class="edge">
<title>Node3&#45;&gt;Node4</title>
<g id="a_edge3_Node000003_Node000004"><a xlink:title=" ">
<path fill="none" stroke="#63b8ff" d="M429.9,-125.72C511.61,-114.52 647.8,-95.86 726.94,-85.02"/>
<polygon fill="#63b8ff" stroke="#63b8ff" points="429.16,-122.29 419.73,-127.11 430.11,-129.22 429.16,-122.29"/>
</a>
</g>
</g>
<!-- Node5 -->
<g id="Node000005" class="node">
<title>Node5</title>
<g id="a_Node000005"><a xlink:href="server_8cpp.html" target="_top" xlink:title=" ">
<polygon fill="white" stroke="#666666" points="160.14,-85 18.14,-85 18.14,-66 160.14,-66 160.14,-85"/>
<text text-anchor="middle" x="89.14" y="-73" font-family="Helvetica,sans-Serif" font-size="10.00">src/networking/server.cpp</text>
</a>
</g>
</g>
<!-- Node3&#45;&gt;Node5 -->
<g id="edge4_Node000003_Node000005" class="edge">
<title>Node3&#45;&gt;Node5</title>
<g id="a_edge4_Node000003_Node000005"><a xlink:title=" ">
<path fill="none" stroke="#63b8ff" d="M294.75,-120.56C242.69,-109.4 172.4,-94.34 128.96,-85.03"/>
<polygon fill="#63b8ff" stroke="#63b8ff" points="294.07,-123.99 304.58,-122.67 295.53,-117.15 294.07,-123.99"/>
</a>
</g>
</g>
<!-- Node6 -->
<g id="Node000006" class="node">
<title>Node6</title>
<g id="a_Node000006"><a xlink:href="settings_8hpp.html" target="_top" xlink:title=" ">
<polygon fill="white" stroke="#666666" points="656.14,-85 520.14,-85 520.14,-66 656.14,-66 656.14,-85"/>
<text text-anchor="middle" x="588.14" y="-73" font-family="Helvetica,sans-Serif" font-size="10.00">src/settings/settings.hpp</text>
</a>
</g>
</g>
<!-- Node3&#45;&gt;Node6 -->
<g id="edge5_Node000003_Node000006" class="edge">
<title>Node3&#45;&gt;Node6</title>
<g id="a_edge5_Node000003_Node000006"><a xlink:title=" ">
<path fill="none" stroke="#63b8ff" d="M426.14,-118.43C468.15,-107.56 521.37,-93.78 555.09,-85.05"/>
<polygon fill="#63b8ff" stroke="#63b8ff" points="425.08,-115.09 416.27,-120.99 426.83,-121.87 425.08,-115.09"/>
</a>
</g>
</g>
<!-- Node7 -->
<g id="Node000007" class="node">
<title>Node7</title>
<g id="a_Node000007"><a xlink:href="settings__singleton_8cpp.html" target="_top" xlink:title=" ">
<polygon fill="white" stroke="#666666" points="400.64,-30 285.64,-30 285.64,0 400.64,0 400.64,-30"/>
<text text-anchor="start" x="293.64" y="-18" font-family="Helvetica,sans-Serif" font-size="10.00">src/settings/settings</text>
<text text-anchor="middle" x="343.14" y="-7" font-family="Helvetica,sans-Serif" font-size="10.00">_singleton.cpp</text>
</a>
</g>
</g>
<!-- Node3&#45;&gt;Node7 -->
<g id="edge9_Node000003_Node000007" class="edge">
<title>Node3&#45;&gt;Node7</title>
<g id="a_edge9_Node000003_Node000007"><a xlink:title=" ">
<path fill="none" stroke="#63b8ff" d="M294.3,-130.88C262.43,-125.13 227.11,-112.43 207.14,-85 182.91,-51.72 238.29,-33.41 285.51,-24.16"/>
<polygon fill="#63b8ff" stroke="#63b8ff" points="294.08,-134.39 304.51,-132.52 295.19,-127.48 294.08,-134.39"/>
</a>
</g>
</g>
<!-- Node8 -->
<g id="Node000008" class="node">
<title>Node8</title>
<g id="a_Node000008"><a xlink:href="preferences_8cpp.html" target="_top" xlink:title=" ">
<polygon fill="white" stroke="#666666" points="698.14,-24.5 574.14,-24.5 574.14,-5.5 698.14,-5.5 698.14,-24.5"/>
<text text-anchor="middle" x="636.14" y="-12.5" font-family="Helvetica,sans-Serif" font-size="10.00">src/ui/preferences.cpp</text>
</a>
</g>
</g>
<!-- Node3&#45;&gt;Node8 -->
<g id="edge12_Node000003_Node000008" class="edge">
<title>Node3&#45;&gt;Node8</title>
<g id="a_edge12_Node000003_Node000008"><a xlink:title=" ">
<path fill="none" stroke="#63b8ff" d="M430.32,-133.62C510.26,-130.4 635.63,-119.77 665.14,-85 680.78,-66.57 658.38,-38.5 644.97,-24.52"/>
<polygon fill="#63b8ff" stroke="#63b8ff" points="429.7,-130.14 419.84,-134.01 429.96,-137.14 429.7,-130.14"/>
</a>
</g>
</g>
<!-- Node9 -->
<g id="Node000009" class="node">
<title>Node9</title>
<g id="a_Node000009"><a xlink:href="buttoninputbox_8cpp.html" target="_top" xlink:title=" ">
<polygon fill="white" stroke="#666666" points="356.14,-85 216.14,-85 216.14,-66 356.14,-66 356.14,-85"/>
<text text-anchor="middle" x="286.14" y="-73" font-family="Helvetica,sans-Serif" font-size="10.00">src/ui/buttoninputbox.cpp</text>
</a>
</g>
</g>
<!-- Node3&#45;&gt;Node9 -->
<g id="edge10_Node000003_Node000009" class="edge">
<title>Node3&#45;&gt;Node9</title>
<g id="a_edge10_Node000003_Node000009"><a xlink:title=" ">
<path fill="none" stroke="#63b8ff" d="M335.55,-114.53C322.53,-104.51 307.55,-92.98 297.53,-85.27"/>
<polygon fill="#63b8ff" stroke="#63b8ff" points="333.68,-117.51 343.74,-120.84 337.95,-111.97 333.68,-117.51"/>
</a>
</g>
</g>
<!-- Node10 -->
<g id="Node000010" class="node">
<title>Node10</title>
<g id="a_Node000010"><a xlink:href="mainwindow_8cpp.html" target="_top" xlink:title=" ">
<polygon fill="white" stroke="#666666" points="502.14,-85 374.14,-85 374.14,-66 502.14,-66 502.14,-85"/>
<text text-anchor="middle" x="438.14" y="-73" font-family="Helvetica,sans-Serif" font-size="10.00">src/ui/mainwindow.cpp</text>
</a>
</g>
</g>
<!-- Node3&#45;&gt;Node10 -->
<g id="edge11_Node000003_Node000010" class="edge">
<title>Node3&#45;&gt;Node10</title>
<g id="a_edge11_Node000003_Node000010"><a xlink:title=" ">
<path fill="none" stroke="#63b8ff" d="M388.73,-114.53C401.75,-104.51 416.73,-92.98 426.75,-85.27"/>
<polygon fill="#63b8ff" stroke="#63b8ff" points="386.33,-111.97 380.54,-120.84 390.6,-117.51 386.33,-111.97"/>
</a>
</g>
</g>
<!-- Node6&#45;&gt;Node2 -->
<g id="edge6_Node000006_Node000002" class="edge">
<title>Node6&#45;&gt;Node2</title>
<g id="a_edge6_Node000006_Node000002"><a xlink:title=" ">
<path fill="none" stroke="#63b8ff" d="M518.07,-64.51C454.84,-55.5 359.26,-41.86 276.14,-30 263.04,-28.13 248.95,-26.12 235.66,-24.22"/>
<polygon fill="#63b8ff" stroke="#63b8ff" points="517.93,-68.03 528.33,-65.97 518.92,-61.1 517.93,-68.03"/>
</a>
</g>
</g>
<!-- Node6&#45;&gt;Node7 -->
<g id="edge7_Node000006_Node000007" class="edge">
<title>Node6&#45;&gt;Node7</title>
<g id="a_edge7_Node000006_Node000007"><a xlink:title=" ">
<path fill="none" stroke="#63b8ff" d="M542.78,-63.67C502.83,-54.13 444.42,-40.18 401.1,-29.84"/>
<polygon fill="#63b8ff" stroke="#63b8ff" points="541.98,-67.08 552.51,-65.99 543.6,-60.27 541.98,-67.08"/>
</a>
</g>
</g>
<!-- Node6&#45;&gt;Node8 -->
<g id="edge8_Node000006_Node000008" class="edge">
<title>Node6&#45;&gt;Node8</title>
<g id="a_edge8_Node000006_Node000008"><a xlink:title=" ">
<path fill="none" stroke="#63b8ff" d="M601.72,-57.95C610.6,-47.12 621.86,-33.41 629.03,-24.67"/>
<polygon fill="#63b8ff" stroke="#63b8ff" points="598.86,-55.92 595.22,-65.87 604.27,-60.36 598.86,-55.92"/>
</a>
</g>
</g>
</g>
</svg>
