<?xml version="1.0" encoding="UTF-8" standalone="no"?>
<!DOCTYPE svg PUBLIC "-//W3C//DTD SVG 1.1//EN"
 "http://www.w3.org/Graphics/SVG/1.1/DTD/svg11.dtd">
<!-- Generated by graphviz version 2.43.0 (0)
 -->
<!-- Title: src/simulation/linux/gamepadSim.cpp Pages: 1 -->
<svg width="379pt" height="148pt"
 viewBox="0.00 0.00 378.75 148.00" xmlns="http://www.w3.org/2000/svg" xmlns:xlink="http://www.w3.org/1999/xlink">
<g id="graph0" class="graph" transform="scale(1 1) rotate(0) translate(4 144)">
<title>src/simulation/linux/gamepadSim.cpp</title>
<!-- Node1 -->
<g id="Node000001" class="node">
<title>Node1</title>
<g id="a_Node000001"><a xlink:title="Gamepad simulation/injection for Linux using uinput.">
<polygon fill="#999999" stroke="#666666" points="235.25,-140 122.25,-140 122.25,-110 235.25,-110 235.25,-140"/>
<text text-anchor="start" x="130.25" y="-128" font-family="Helvetica,sans-Serif" font-size="10.00">src/simulation/linux</text>
<text text-anchor="middle" x="178.75" y="-117" font-family="Helvetica,sans-Serif" font-size="10.00">/gamepadSim.cpp</text>
</a>
</g>
</g>
<!-- Node2 -->
<g id="Node000002" class="node">
<title>Node2</title>
<g id="a_Node000002"><a xlink:href="gamepadSim_8hpp.html" target="_top" xlink:title=" ">
<polygon fill="white" stroke="#666666" points="124.25,-74 13.25,-74 13.25,-55 124.25,-55 124.25,-74"/>
<text text-anchor="middle" x="68.75" y="-62" font-family="Helvetica,sans-Serif" font-size="10.00">../gamepadSim.hpp</text>
</a>
</g>
</g>
<!-- Node1&#45;&gt;Node2 -->
<g id="edge1_Node000001_Node000002" class="edge">
<title>Node1&#45;&gt;Node2</title>
<g id="a_edge1_Node000001_Node000002"><a xlink:title=" ">
<path fill="none" stroke="#63b8ff" d="M152.41,-109.99C134.71,-100.58 111.52,-88.24 94.05,-78.95"/>
<polygon fill="#63b8ff" stroke="#63b8ff" points="95.47,-75.74 85,-74.14 92.19,-81.92 95.47,-75.74"/>
</a>
</g>
</g>
<!-- Node3 -->
<g id="Node000003" class="node">
<title>Node3</title>
<g id="a_Node000003"><a xlink:title=" ">
<polygon fill="#e0e0e0" stroke="#999999" points="57.75,-19 1.75,-19 1.75,0 57.75,0 57.75,-19"/>
<text text-anchor="middle" x="29.75" y="-7" font-family="Helvetica,sans-Serif" font-size="10.00">QDebug</text>
</a>
</g>
</g>
<!-- Node1&#45;&gt;Node3 -->
<g id="edge4_Node000001_Node000003" class="edge">
<title>Node1&#45;&gt;Node3</title>
<g id="a_edge4_Node000001_Node000003"><a xlink:title=" ">
<path fill="none" stroke="#63b8ff" d="M122.16,-115.23C77,-106.95 19.03,-92.96 4.75,-74 -5.89,-59.87 4.39,-40.62 14.8,-27.03"/>
<polygon fill="#63b8ff" stroke="#63b8ff" points="17.75,-28.96 21.44,-19.03 12.36,-24.49 17.75,-28.96"/>
</a>
</g>
</g>
<!-- Node4 -->
<g id="Node000004" class="node">
<title>Node4</title>
<g id="a_Node000004"><a xlink:title=" ">
<polygon fill="#e0e0e0" stroke="#999999" points="130.25,-19 83.25,-19 83.25,0 130.25,0 130.25,-19"/>
<text text-anchor="middle" x="106.75" y="-7" font-family="Helvetica,sans-Serif" font-size="10.00">cmath</text>
</a>
</g>
</g>
<!-- Node1&#45;&gt;Node4 -->
<g id="edge5_Node000001_Node000004" class="edge">
<title>Node1&#45;&gt;Node4</title>
<g id="a_edge5_Node000001_Node000004"><a xlink:title=" ">
<path fill="none" stroke="#63b8ff" d="M169.64,-109.63C156.39,-88.75 131.87,-50.09 117.68,-27.72"/>
<polygon fill="#63b8ff" stroke="#63b8ff" points="120.6,-25.8 112.29,-19.23 114.69,-29.55 120.6,-25.8"/>
</a>
</g>
</g>
<!-- Node5 -->
<g id="Node000005" class="node">
<title>Node5</title>
<g id="a_Node000005"><a xlink:title=" ">
<polygon fill="#e0e0e0" stroke="#999999" points="230.75,-74 180.75,-74 180.75,-55 230.75,-55 230.75,-74"/>
<text text-anchor="middle" x="205.75" y="-62" font-family="Helvetica,sans-Serif" font-size="10.00">cstring</text>
</a>
</g>
</g>
<!-- Node1&#45;&gt;Node5 -->
<g id="edge6_Node000001_Node000005" class="edge">
<title>Node1&#45;&gt;Node5</title>
<g id="a_edge6_Node000001_Node000005"><a xlink:title=" ">
<path fill="none" stroke="#63b8ff" d="M185.29,-109.84C188.93,-101.95 193.5,-92.05 197.4,-83.61"/>
<polygon fill="#63b8ff" stroke="#63b8ff" points="200.7,-84.81 201.71,-74.27 194.34,-81.88 200.7,-84.81"/>
</a>
</g>
</g>
<!-- Node6 -->
<g id="Node000006" class="node">
<title>Node6</title>
<g id="a_Node000006"><a xlink:title=" ">
<polygon fill="#e0e0e0" stroke="#999999" points="296.25,-74 249.25,-74 249.25,-55 296.25,-55 296.25,-74"/>
<text text-anchor="middle" x="272.75" y="-62" font-family="Helvetica,sans-Serif" font-size="10.00">fcntl.h</text>
</a>
</g>
</g>
<!-- Node1&#45;&gt;Node6 -->
<g id="edge7_Node000001_Node000006" class="edge">
<title>Node1&#45;&gt;Node6</title>
<g id="a_edge7_Node000001_Node000006"><a xlink:title=" ">
<path fill="none" stroke="#63b8ff" d="M201.51,-109.84C216.36,-100.6 235.65,-88.59 250.42,-79.4"/>
<polygon fill="#63b8ff" stroke="#63b8ff" points="252.3,-82.35 258.94,-74.09 248.61,-76.41 252.3,-82.35"/>
</a>
</g>
</g>
<!-- Node7 -->
<g id="Node000007" class="node">
<title>Node7</title>
<g id="a_Node000007"><a xlink:title=" ">
<polygon fill="#e0e0e0" stroke="#999999" points="370.75,-74 314.75,-74 314.75,-55 370.75,-55 370.75,-74"/>
<text text-anchor="middle" x="342.75" y="-62" font-family="Helvetica,sans-Serif" font-size="10.00">unistd.h</text>
</a>
</g>
</g>
<!-- Node1&#45;&gt;Node7 -->
<g id="edge8_Node000001_Node000007" class="edge">
<title>Node1&#45;&gt;Node7</title>
<g id="a_edge8_Node000001_Node000007"><a xlink:title=" ">
<path fill="none" stroke="#63b8ff" d="M218.04,-109.99C245.77,-100.1 282.54,-86.98 308.96,-77.56"/>
<polygon fill="#63b8ff" stroke="#63b8ff" points="310.29,-80.8 318.54,-74.14 307.94,-74.2 310.29,-80.8"/>
</a>
</g>
</g>
<!-- Node2&#45;&gt;Node3 -->
<g id="edge2_Node000002_Node000003" class="edge">
<title>Node2&#45;&gt;Node3</title>
<g id="a_edge2_Node000002_Node000003"><a xlink:title=" ">
<path fill="none" stroke="#63b8ff" d="M62.31,-54.75C56.86,-47.34 48.89,-36.5 42.2,-27.41"/>
<polygon fill="#63b8ff" stroke="#63b8ff" points="44.82,-25.07 36.07,-19.09 39.18,-29.22 44.82,-25.07"/>
</a>
</g>
</g>
<!-- Node2&#45;&gt;Node4 -->
<g id="edge3_Node000002_Node000004" class="edge">
<title>Node2&#45;&gt;Node4</title>
<g id="a_edge3_Node000002_Node000004"><a xlink:title=" ">
<path fill="none" stroke="#63b8ff" d="M75.03,-54.75C80.34,-47.34 88.11,-36.5 94.63,-27.41"/>
<polygon fill="#63b8ff" stroke="#63b8ff" points="97.61,-29.26 100.6,-19.09 91.93,-25.18 97.61,-29.26"/>
</a>
</g>
</g>
</g>
</svg>
