<?xml version="1.0" encoding="UTF-8" standalone="no"?>
<!DOCTYPE svg PUBLIC "-//W3C//DTD SVG 1.1//EN"
 "http://www.w3.org/Graphics/SVG/1.1/DTD/svg11.dtd">
<!-- Generated by graphviz version 2.43.0 (0)
 -->
<!-- Title: src/mainwindow.cpp Pages: 1 -->
<svg width="703pt" height="192pt"
 viewBox="0.00 0.00 702.58 192.00" xmlns="http://www.w3.org/2000/svg" xmlns:xlink="http://www.w3.org/1999/xlink">
<g id="graph0" class="graph" transform="scale(1 1) rotate(0) translate(4 188)">
<title>src/mainwindow.cpp</title>
<!-- Node1 -->
<g id="Node000001" class="node">
<title>Node1</title>
<g id="a_Node000001"><a xlink:title=" ">
<polygon fill="#999999" stroke="#666666" points="496.58,-184 380.58,-184 380.58,-165 496.58,-165 496.58,-184"/>
<text text-anchor="middle" x="438.58" y="-172" font-family="Helvetica,sans-Serif" font-size="10.00">src/mainwindow.cpp</text>
</a>
</g>
</g>
<!-- Node2 -->
<g id="Node000002" class="node">
<title>Node2</title>
<g id="a_Node000002"><a xlink:href="mainwindow_8hpp.html" target="_top" xlink:title=" ">
<polygon fill="white" stroke="#666666" points="382.08,-129 283.08,-129 283.08,-110 382.08,-110 382.08,-129"/>
<text text-anchor="middle" x="332.58" y="-117" font-family="Helvetica,sans-Serif" font-size="10.00">mainwindow.hpp</text>
</a>
</g>
</g>
<!-- Node1&#45;&gt;Node2 -->
<g id="edge1_Node000001_Node000002" class="edge">
<title>Node1&#45;&gt;Node2</title>
<g id="a_edge1_Node000001_Node000002"><a xlink:title=" ">
<path fill="none" stroke="#63b8ff" d="M421.55,-164.98C404.65,-156.54 378.51,-143.47 358.93,-133.68"/>
<polygon fill="#63b8ff" stroke="#63b8ff" points="360.43,-130.51 349.92,-129.17 357.3,-136.77 360.43,-130.51"/>
</a>
</g>
</g>
<!-- Node8 -->
<g id="Node000008" class="node">
<title>Node8</title>
<g id="a_Node000008"><a xlink:href="server_8hpp.html" target="_top" xlink:title=" ">
<polygon fill="white" stroke="#666666" points="156.08,-129 31.08,-129 31.08,-110 156.08,-110 156.08,-129"/>
<text text-anchor="middle" x="93.58" y="-117" font-family="Helvetica,sans-Serif" font-size="10.00">networking/server.hpp</text>
</a>
</g>
</g>
<!-- Node1&#45;&gt;Node8 -->
<g id="edge7_Node000001_Node000008" class="edge">
<title>Node1&#45;&gt;Node8</title>
<g id="a_edge7_Node000001_Node000008"><a xlink:title=" ">
<path fill="none" stroke="#63b8ff" d="M383.15,-164.98C322.13,-155.61 224.1,-140.55 159.27,-130.59"/>
<polygon fill="#63b8ff" stroke="#63b8ff" points="159.57,-127.1 149.16,-129.04 158.51,-134.02 159.57,-127.1"/>
</a>
</g>
</g>
<!-- Node11 -->
<g id="Node000011" class="node">
<title>Node11</title>
<g id="a_Node000011"><a xlink:href="settings_8hpp.html" target="_top" xlink:title=" ">
<polygon fill="white" stroke="#666666" points="477.08,-129 400.08,-129 400.08,-110 477.08,-110 477.08,-129"/>
<text text-anchor="middle" x="438.58" y="-117" font-family="Helvetica,sans-Serif" font-size="10.00">settings.hpp</text>
</a>
</g>
</g>
<!-- Node1&#45;&gt;Node11 -->
<g id="edge11_Node000001_Node000011" class="edge">
<title>Node1&#45;&gt;Node11</title>
<g id="a_edge11_Node000001_Node000011"><a xlink:title=" ">
<path fill="none" stroke="#63b8ff" d="M438.58,-164.75C438.58,-157.8 438.58,-147.85 438.58,-139.13"/>
<polygon fill="#63b8ff" stroke="#63b8ff" points="442.08,-139.09 438.58,-129.09 435.08,-139.09 442.08,-139.09"/>
</a>
</g>
</g>
<!-- Node14 -->
<g id="Node000014" class="node">
<title>Node14</title>
<g id="a_Node000014"><a xlink:title=" ">
<polygon fill="#e0e0e0" stroke="#999999" points="596.08,-129 495.08,-129 495.08,-110 596.08,-110 596.08,-129"/>
<text text-anchor="middle" x="545.58" y="-117" font-family="Helvetica,sans-Serif" font-size="10.00">ui_mainwindow.h</text>
</a>
</g>
</g>
<!-- Node1&#45;&gt;Node14 -->
<g id="edge15_Node000001_Node000014" class="edge">
<title>Node1&#45;&gt;Node14</title>
<g id="a_edge15_Node000001_Node000014"><a xlink:title=" ">
<path fill="none" stroke="#63b8ff" d="M455.77,-164.98C472.83,-156.54 499.21,-143.47 518.97,-133.68"/>
<polygon fill="#63b8ff" stroke="#63b8ff" points="520.67,-136.75 528.07,-129.17 517.56,-130.47 520.67,-136.75"/>
</a>
</g>
</g>
<!-- Node15 -->
<g id="Node000015" class="node">
<title>Node15</title>
<g id="a_Node000015"><a xlink:title=" ">
<polygon fill="#e0e0e0" stroke="#999999" points="694.58,-129 614.58,-129 614.58,-110 694.58,-110 694.58,-129"/>
<text text-anchor="middle" x="654.58" y="-117" font-family="Helvetica,sans-Serif" font-size="10.00">QPushButton</text>
</a>
</g>
</g>
<!-- Node1&#45;&gt;Node15 -->
<g id="edge16_Node000001_Node000015" class="edge">
<title>Node1&#45;&gt;Node15</title>
<g id="a_edge16_Node000001_Node000015"><a xlink:title=" ">
<path fill="none" stroke="#63b8ff" d="M473.28,-164.98C510.33,-155.89 569.17,-141.46 609.71,-131.51"/>
<polygon fill="#63b8ff" stroke="#63b8ff" points="610.72,-134.86 619.6,-129.08 609.06,-128.07 610.72,-134.86"/>
</a>
</g>
</g>
<!-- Node3 -->
<g id="Node000003" class="node">
<title>Node3</title>
<g id="a_Node000003"><a xlink:href="preferences_8hpp.html" target="_top" xlink:title=" ">
<polygon fill="white" stroke="#666666" points="288.08,-74 193.08,-74 193.08,-55 288.08,-55 288.08,-74"/>
<text text-anchor="middle" x="240.58" y="-62" font-family="Helvetica,sans-Serif" font-size="10.00">preferences.hpp</text>
</a>
</g>
</g>
<!-- Node2&#45;&gt;Node3 -->
<g id="edge2_Node000002_Node000003" class="edge">
<title>Node2&#45;&gt;Node3</title>
<g id="a_edge2_Node000002_Node000003"><a xlink:title=" ">
<path fill="none" stroke="#63b8ff" d="M317.8,-109.98C303.4,-101.69 281.27,-88.94 264.39,-79.22"/>
<polygon fill="#63b8ff" stroke="#63b8ff" points="266.04,-76.13 255.63,-74.17 262.55,-82.19 266.04,-76.13"/>
</a>
</g>
</g>
<!-- Node7 -->
<g id="Node000007" class="node">
<title>Node7</title>
<g id="a_Node000007"><a xlink:title=" ">
<polygon fill="#e0e0e0" stroke="#999999" points="393.08,-74 306.08,-74 306.08,-55 393.08,-55 393.08,-74"/>
<text text-anchor="middle" x="349.58" y="-62" font-family="Helvetica,sans-Serif" font-size="10.00">QMainWindow</text>
</a>
</g>
</g>
<!-- Node2&#45;&gt;Node7 -->
<g id="edge6_Node000002_Node000007" class="edge">
<title>Node2&#45;&gt;Node7</title>
<g id="a_edge6_Node000002_Node000007"><a xlink:title=" ">
<path fill="none" stroke="#63b8ff" d="M335.38,-109.75C337.64,-102.72 340.88,-92.62 343.69,-83.84"/>
<polygon fill="#63b8ff" stroke="#63b8ff" points="347.1,-84.68 346.82,-74.09 340.44,-82.54 347.1,-84.68"/>
</a>
</g>
</g>
<!-- Node4 -->
<g id="Node000004" class="node">
<title>Node4</title>
<g id="a_Node000004"><a xlink:title=" ">
<polygon fill="#e0e0e0" stroke="#999999" points="100.58,-19 44.58,-19 44.58,0 100.58,0 100.58,-19"/>
<text text-anchor="middle" x="72.58" y="-7" font-family="Helvetica,sans-Serif" font-size="10.00">QDialog</text>
</a>
</g>
</g>
<!-- Node3&#45;&gt;Node4 -->
<g id="edge3_Node000003_Node000004" class="edge">
<title>Node3&#45;&gt;Node4</title>
<g id="a_edge3_Node000003_Node000004"><a xlink:title=" ">
<path fill="none" stroke="#63b8ff" d="M213.59,-54.98C185.38,-46.09 140.94,-32.07 109.5,-22.15"/>
<polygon fill="#63b8ff" stroke="#63b8ff" points="110.37,-18.75 99.78,-19.08 108.26,-25.43 110.37,-18.75"/>
</a>
</g>
</g>
<!-- Node5 -->
<g id="Node000005" class="node">
<title>Node5</title>
<g id="a_Node000005"><a xlink:title=" ">
<polygon fill="#e0e0e0" stroke="#999999" points="275.58,-19 205.58,-19 205.58,0 275.58,0 275.58,-19"/>
<text text-anchor="middle" x="240.58" y="-7" font-family="Helvetica,sans-Serif" font-size="10.00">Windows.h</text>
</a>
</g>
</g>
<!-- Node3&#45;&gt;Node5 -->
<g id="edge4_Node000003_Node000005" class="edge">
<title>Node3&#45;&gt;Node5</title>
<g id="a_edge4_Node000003_Node000005"><a xlink:title=" ">
<path fill="none" stroke="#63b8ff" d="M240.58,-54.75C240.58,-47.8 240.58,-37.85 240.58,-29.13"/>
<polygon fill="#63b8ff" stroke="#63b8ff" points="244.08,-29.09 240.58,-19.09 237.08,-29.09 244.08,-29.09"/>
</a>
</g>
</g>
<!-- Node6 -->
<g id="Node000006" class="node">
<title>Node6</title>
<g id="a_Node000006"><a xlink:title=" ">
<polygon fill="#e0e0e0" stroke="#999999" points="415.08,-19 338.08,-19 338.08,0 415.08,0 415.08,-19"/>
<text text-anchor="middle" x="376.58" y="-7" font-family="Helvetica,sans-Serif" font-size="10.00">minwindef.h</text>
</a>
</g>
</g>
<!-- Node3&#45;&gt;Node6 -->
<g id="edge5_Node000003_Node000006" class="edge">
<title>Node3&#45;&gt;Node6</title>
<g id="a_edge5_Node000003_Node000006"><a xlink:title=" ">
<path fill="none" stroke="#63b8ff" d="M262.43,-54.98C284.7,-46.3 319.48,-32.75 344.8,-22.88"/>
<polygon fill="#63b8ff" stroke="#63b8ff" points="346.28,-26.06 354.33,-19.17 343.74,-19.54 346.28,-26.06"/>
</a>
</g>
</g>
<!-- Node8&#45;&gt;Node4 -->
<g id="edge8_Node000008_Node000004" class="edge">
<title>Node8&#45;&gt;Node4</title>
<g id="a_edge8_Node000008_Node000004"><a xlink:title=" ">
<path fill="none" stroke="#63b8ff" d="M55.56,-109.85C36.45,-103.37 14.98,-92.36 3.58,-74 -9.39,-53.12 16.93,-34.79 40.71,-23.25"/>
<polygon fill="#63b8ff" stroke="#63b8ff" points="42.31,-26.37 49.95,-19.03 39.4,-20.01 42.31,-26.37"/>
</a>
</g>
</g>
<!-- Node9 -->
<g id="Node000009" class="node">
<title>Node9</title>
<g id="a_Node000009"><a xlink:title=" ">
<polygon fill="#e0e0e0" stroke="#999999" points="84.08,-74 13.08,-74 13.08,-55 84.08,-55 84.08,-74"/>
<text text-anchor="middle" x="48.58" y="-62" font-family="Helvetica,sans-Serif" font-size="10.00">QTcpServer</text>
</a>
</g>
</g>
<!-- Node8&#45;&gt;Node9 -->
<g id="edge9_Node000008_Node000009" class="edge">
<title>Node8&#45;&gt;Node9</title>
<g id="a_edge9_Node000008_Node000009"><a xlink:title=" ">
<path fill="none" stroke="#63b8ff" d="M86.15,-109.75C79.72,-102.18 70.27,-91.05 62.46,-81.84"/>
<polygon fill="#63b8ff" stroke="#63b8ff" points="65.01,-79.45 55.87,-74.09 59.67,-83.98 65.01,-79.45"/>
</a>
</g>
</g>
<!-- Node10 -->
<g id="Node000010" class="node">
<title>Node10</title>
<g id="a_Node000010"><a xlink:title=" ">
<polygon fill="#e0e0e0" stroke="#999999" points="174.58,-74 102.58,-74 102.58,-55 174.58,-55 174.58,-74"/>
<text text-anchor="middle" x="138.58" y="-62" font-family="Helvetica,sans-Serif" font-size="10.00">QTcpSocket</text>
</a>
</g>
</g>
<!-- Node8&#45;&gt;Node10 -->
<g id="edge10_Node000008_Node000010" class="edge">
<title>Node8&#45;&gt;Node10</title>
<g id="a_edge10_Node000008_Node000010"><a xlink:title=" ">
<path fill="none" stroke="#63b8ff" d="M101.01,-109.75C107.43,-102.18 116.88,-91.05 124.7,-81.84"/>
<polygon fill="#63b8ff" stroke="#63b8ff" points="127.48,-83.98 131.29,-74.09 122.14,-79.45 127.48,-83.98"/>
</a>
</g>
</g>
<!-- Node11&#45;&gt;Node6 -->
<g id="edge14_Node000011_Node000006" class="edge">
<title>Node11&#45;&gt;Node6</title>
<g id="a_edge14_Node000011_Node000006"><a xlink:title=" ">
<path fill="none" stroke="#63b8ff" d="M433.5,-109.66C423.28,-91.85 400.04,-51.37 386.63,-28.01"/>
<polygon fill="#63b8ff" stroke="#63b8ff" points="389.56,-26.09 381.55,-19.16 383.49,-29.57 389.56,-26.09"/>
</a>
</g>
</g>
<!-- Node12 -->
<g id="Node000012" class="node">
<title>Node12</title>
<g id="a_Node000012"><a xlink:title=" ">
<polygon fill="#e0e0e0" stroke="#999999" points="487.58,-74 449.58,-74 449.58,-55 487.58,-55 487.58,-74"/>
<text text-anchor="middle" x="468.58" y="-62" font-family="Helvetica,sans-Serif" font-size="10.00">QDir</text>
</a>
</g>
</g>
<!-- Node11&#45;&gt;Node12 -->
<g id="edge12_Node000011_Node000012" class="edge">
<title>Node11&#45;&gt;Node12</title>
<g id="a_edge12_Node000011_Node000012"><a xlink:title=" ">
<path fill="none" stroke="#63b8ff" d="M443.53,-109.75C447.64,-102.49 453.6,-91.95 458.68,-82.98"/>
<polygon fill="#63b8ff" stroke="#63b8ff" points="461.84,-84.52 463.72,-74.09 455.74,-81.07 461.84,-84.52"/>
</a>
</g>
</g>
<!-- Node13 -->
<g id="Node000013" class="node">
<title>Node13</title>
<g id="a_Node000013"><a xlink:title=" ">
<polygon fill="#e0e0e0" stroke="#999999" points="569.58,-74 505.58,-74 505.58,-55 569.58,-55 569.58,-74"/>
<text text-anchor="middle" x="537.58" y="-62" font-family="Helvetica,sans-Serif" font-size="10.00">QSettings</text>
</a>
</g>
</g>
<!-- Node11&#45;&gt;Node13 -->
<g id="edge13_Node000011_Node000013" class="edge">
<title>Node11&#45;&gt;Node13</title>
<g id="a_edge13_Node000011_Node000013"><a xlink:title=" ">
<path fill="none" stroke="#63b8ff" d="M454.48,-109.98C470.12,-101.61 494.23,-88.7 512.46,-78.95"/>
<polygon fill="#63b8ff" stroke="#63b8ff" points="514.22,-81.98 521.38,-74.17 510.91,-75.8 514.22,-81.98"/>
</a>
</g>
</g>
</g>
</svg>
