<?xml version="1.0" encoding="UTF-8" standalone="no"?>
<!DOCTYPE svg PUBLIC "-//W3C//DTD SVG 1.1//EN"
 "http://www.w3.org/Graphics/SVG/1.1/DTD/svg11.dtd">
<!-- Generated by graphviz version 2.43.0 (0)
 -->
<!-- Title: src/main.cpp Pages: 1 -->
<svg width="491pt" height="192pt"
 viewBox="0.00 0.00 491.00 192.00" xmlns="http://www.w3.org/2000/svg" xmlns:xlink="http://www.w3.org/1999/xlink">
<g id="graph0" class="graph" transform="scale(1 1) rotate(0) translate(4 188)">
<title>src/main.cpp</title>
<!-- Node1 -->
<g id="Node000001" class="node">
<title>Node1</title>
<g id="a_Node000001"><a xlink:title=" ">
<polygon fill="#999999" stroke="#666666" points="223,-184 144,-184 144,-165 223,-165 223,-184"/>
<text text-anchor="middle" x="183.5" y="-172" font-family="Helvetica,sans-Serif" font-size="10.00">src/main.cpp</text>
</a>
</g>
</g>
<!-- Node2 -->
<g id="Node000002" class="node">
<title>Node2</title>
<g id="a_Node000002"><a xlink:title=" ">
<polygon fill="#e0e0e0" stroke="#999999" points="79,-129 0,-129 0,-110 79,-110 79,-129"/>
<text text-anchor="middle" x="39.5" y="-117" font-family="Helvetica,sans-Serif" font-size="10.00">QApplication</text>
</a>
</g>
</g>
<!-- Node1&#45;&gt;Node2 -->
<g id="edge1_Node000001_Node000002" class="edge">
<title>Node1&#45;&gt;Node2</title>
<g id="a_edge1_Node000001_Node000002"><a xlink:title=" ">
<path fill="none" stroke="#63b8ff" d="M160.36,-164.98C136.68,-156.27 99.63,-142.63 72.79,-132.75"/>
<polygon fill="#63b8ff" stroke="#63b8ff" points="73.65,-129.34 63.06,-129.17 71.23,-135.91 73.65,-129.34"/>
</a>
</g>
</g>
<!-- Node3 -->
<g id="Node000003" class="node">
<title>Node3</title>
<g id="a_Node000003"><a xlink:title=" ">
<polygon fill="#e0e0e0" stroke="#999999" points="138,-129 97,-129 97,-110 138,-110 138,-129"/>
<text text-anchor="middle" x="117.5" y="-117" font-family="Helvetica,sans-Serif" font-size="10.00">QFile</text>
</a>
</g>
</g>
<!-- Node1&#45;&gt;Node3 -->
<g id="edge2_Node000001_Node000003" class="edge">
<title>Node1&#45;&gt;Node3</title>
<g id="a_edge2_Node000001_Node000003"><a xlink:title=" ">
<path fill="none" stroke="#63b8ff" d="M172.9,-164.98C163.04,-157.07 148.15,-145.11 136.28,-135.58"/>
<polygon fill="#63b8ff" stroke="#63b8ff" points="138.29,-132.7 128.3,-129.17 133.9,-138.16 138.29,-132.7"/>
</a>
</g>
</g>
<!-- Node4 -->
<g id="Node000004" class="node">
<title>Node4</title>
<g id="a_Node000004"><a xlink:title=" ">
<polygon fill="#e0e0e0" stroke="#999999" points="211,-129 156,-129 156,-110 211,-110 211,-129"/>
<text text-anchor="middle" x="183.5" y="-117" font-family="Helvetica,sans-Serif" font-size="10.00">QMutex</text>
</a>
</g>
</g>
<!-- Node1&#45;&gt;Node4 -->
<g id="edge3_Node000001_Node000004" class="edge">
<title>Node1&#45;&gt;Node4</title>
<g id="a_edge3_Node000001_Node000004"><a xlink:title=" ">
<path fill="none" stroke="#63b8ff" d="M183.5,-164.75C183.5,-157.8 183.5,-147.85 183.5,-139.13"/>
<polygon fill="#63b8ff" stroke="#63b8ff" points="187,-139.09 183.5,-129.09 180,-139.09 187,-139.09"/>
</a>
</g>
</g>
<!-- Node5 -->
<g id="Node000005" class="node">
<title>Node5</title>
<g id="a_Node000005"><a xlink:title=" ">
<polygon fill="#e0e0e0" stroke="#999999" points="313.5,-129 229.5,-129 229.5,-110 313.5,-110 313.5,-129"/>
<text text-anchor="middle" x="271.5" y="-117" font-family="Helvetica,sans-Serif" font-size="10.00">QStyleFactory</text>
</a>
</g>
</g>
<!-- Node1&#45;&gt;Node5 -->
<g id="edge4_Node000001_Node000005" class="edge">
<title>Node1&#45;&gt;Node5</title>
<g id="a_edge4_Node000001_Node000005"><a xlink:title=" ">
<path fill="none" stroke="#63b8ff" d="M197.64,-164.98C211.29,-156.77 232.19,-144.18 248.28,-134.49"/>
<polygon fill="#63b8ff" stroke="#63b8ff" points="250.34,-137.33 257.1,-129.17 246.73,-131.33 250.34,-137.33"/>
</a>
</g>
</g>
<!-- Node6 -->
<g id="Node000006" class="node">
<title>Node6</title>
<g id="a_Node000006"><a xlink:href="mainwindow_8hpp.html" target="_top" xlink:title=" ">
<polygon fill="white" stroke="#666666" points="442,-129 331,-129 331,-110 442,-110 442,-129"/>
<text text-anchor="middle" x="386.5" y="-117" font-family="Helvetica,sans-Serif" font-size="10.00">ui/mainwindow.hpp</text>
</a>
</g>
</g>
<!-- Node1&#45;&gt;Node6 -->
<g id="edge5_Node000001_Node000006" class="edge">
<title>Node1&#45;&gt;Node6</title>
<g id="a_edge5_Node000001_Node000006"><a xlink:title=" ">
<path fill="none" stroke="#63b8ff" d="M216.12,-164.98C250.79,-155.93 305.76,-141.58 343.85,-131.64"/>
<polygon fill="#63b8ff" stroke="#63b8ff" points="344.84,-134.99 353.63,-129.08 343.07,-128.22 344.84,-134.99"/>
</a>
</g>
</g>
<!-- Node7 -->
<g id="Node000007" class="node">
<title>Node7</title>
<g id="a_Node000007"><a xlink:href="mainmenu_8hpp.html" target="_top" xlink:title=" ">
<polygon fill="white" stroke="#666666" points="377.5,-74 287.5,-74 287.5,-55 377.5,-55 377.5,-74"/>
<text text-anchor="middle" x="332.5" y="-62" font-family="Helvetica,sans-Serif" font-size="10.00">mainmenu.hpp</text>
</a>
</g>
</g>
<!-- Node6&#45;&gt;Node7 -->
<g id="edge6_Node000006_Node000007" class="edge">
<title>Node6&#45;&gt;Node7</title>
<g id="a_edge6_Node000006_Node000007"><a xlink:title=" ">
<path fill="none" stroke="#63b8ff" d="M377.58,-109.75C369.72,-102.03 358.07,-90.6 348.58,-81.28"/>
<polygon fill="#63b8ff" stroke="#63b8ff" points="350.84,-78.6 341.25,-74.09 345.94,-83.59 350.84,-78.6"/>
</a>
</g>
</g>
<!-- Node10 -->
<g id="Node000010" class="node">
<title>Node10</title>
<g id="a_Node000010"><a xlink:title=" ">
<polygon fill="#e0e0e0" stroke="#999999" points="483,-74 396,-74 396,-55 483,-55 483,-74"/>
<text text-anchor="middle" x="439.5" y="-62" font-family="Helvetica,sans-Serif" font-size="10.00">QMainWindow</text>
</a>
</g>
</g>
<!-- Node6&#45;&gt;Node10 -->
<g id="edge9_Node000006_Node000010" class="edge">
<title>Node6&#45;&gt;Node10</title>
<g id="a_edge9_Node000006_Node000010"><a xlink:title=" ">
<path fill="none" stroke="#63b8ff" d="M395.25,-109.75C402.97,-102.03 414.4,-90.6 423.72,-81.28"/>
<polygon fill="#63b8ff" stroke="#63b8ff" points="426.31,-83.64 430.91,-74.09 421.36,-78.69 426.31,-83.64"/>
</a>
</g>
</g>
<!-- Node8 -->
<g id="Node000008" class="node">
<title>Node8</title>
<g id="a_Node000008"><a xlink:title=" ">
<polygon fill="#e0e0e0" stroke="#999999" points="333,-19 236,-19 236,0 333,0 333,-19"/>
<text text-anchor="middle" x="284.5" y="-7" font-family="Helvetica,sans-Serif" font-size="10.00">QStackedWidget</text>
</a>
</g>
</g>
<!-- Node7&#45;&gt;Node8 -->
<g id="edge7_Node000007_Node000008" class="edge">
<title>Node7&#45;&gt;Node8</title>
<g id="a_edge7_Node000007_Node000008"><a xlink:title=" ">
<path fill="none" stroke="#63b8ff" d="M324.57,-54.75C317.65,-47.11 307.43,-35.82 299.05,-26.56"/>
<polygon fill="#63b8ff" stroke="#63b8ff" points="301.59,-24.15 292.28,-19.09 296.4,-28.85 301.59,-24.15"/>
</a>
</g>
</g>
<!-- Node9 -->
<g id="Node000009" class="node">
<title>Node9</title>
<g id="a_Node000009"><a xlink:title=" ">
<polygon fill="#e0e0e0" stroke="#999999" points="410,-19 351,-19 351,0 410,0 410,-19"/>
<text text-anchor="middle" x="380.5" y="-7" font-family="Helvetica,sans-Serif" font-size="10.00">QWidget</text>
</a>
</g>
</g>
<!-- Node7&#45;&gt;Node9 -->
<g id="edge8_Node000007_Node000009" class="edge">
<title>Node7&#45;&gt;Node9</title>
<g id="a_edge8_Node000007_Node000009"><a xlink:title=" ">
<path fill="none" stroke="#63b8ff" d="M340.43,-54.75C347.35,-47.11 357.57,-35.82 365.95,-26.56"/>
<polygon fill="#63b8ff" stroke="#63b8ff" points="368.6,-28.85 372.72,-19.09 363.41,-24.15 368.6,-28.85"/>
</a>
</g>
</g>
</g>
</svg>
