<?xml version="1.0" encoding="UTF-8" standalone="no"?>
<!DOCTYPE svg PUBLIC "-//W3C//DTD SVG 1.1//EN"
 "http://www.w3.org/Graphics/SVG/1.1/DTD/svg11.dtd">
<!-- Generated by graphviz version 2.43.0 (0)
 -->
<!-- Title: src/mainwindow.cpp Pages: 1 -->
<svg width="682pt" height="192pt"
 viewBox="0.00 0.00 681.53 192.00" xmlns="http://www.w3.org/2000/svg" xmlns:xlink="http://www.w3.org/1999/xlink">
<g id="graph0" class="graph" transform="scale(1 1) rotate(0) translate(4 188)">
<title>src/mainwindow.cpp</title>
<!-- Node1 -->
<g id="Node000001" class="node">
<title>Node1</title>
<g id="a_Node000001"><a xlink:title=" ">
<polygon fill="#999999" stroke="#666666" points="481.53,-184 365.53,-184 365.53,-165 481.53,-165 481.53,-184"/>
<text text-anchor="middle" x="423.53" y="-172" font-family="Helvetica,sans-Serif" font-size="10.00">src/mainwindow.cpp</text>
</a>
</g>
</g>
<!-- Node2 -->
<g id="Node000002" class="node">
<title>Node2</title>
<g id="a_Node000002"><a xlink:href="mainwindow_8hpp.html" target="_top" xlink:title=" ">
<polygon fill="white" stroke="#666666" points="373.03,-129 274.03,-129 274.03,-110 373.03,-110 373.03,-129"/>
<text text-anchor="middle" x="323.53" y="-117" font-family="Helvetica,sans-Serif" font-size="10.00">mainwindow.hpp</text>
</a>
</g>
</g>
<!-- Node1&#45;&gt;Node2 -->
<g id="edge1_Node000001_Node000002" class="edge">
<title>Node1&#45;&gt;Node2</title>
<g id="a_edge1_Node000001_Node000002"><a xlink:title=" ">
<path fill="none" stroke="#63b8ff" d="M407.46,-164.98C391.67,-156.61 367.31,-143.7 348.9,-133.95"/>
<polygon fill="#63b8ff" stroke="#63b8ff" points="350.36,-130.76 339.89,-129.17 347.09,-136.95 350.36,-130.76"/>
</a>
</g>
</g>
<!-- Node8 -->
<g id="Node000008" class="node">
<title>Node8</title>
<g id="a_Node000008"><a xlink:href="server_8hpp.html" target="_top" xlink:title=" ">
<polygon fill="white" stroke="#666666" points="156.03,-129 31.03,-129 31.03,-110 156.03,-110 156.03,-129"/>
<text text-anchor="middle" x="93.53" y="-117" font-family="Helvetica,sans-Serif" font-size="10.00">networking/server.hpp</text>
</a>
</g>
</g>
<!-- Node1&#45;&gt;Node8 -->
<g id="edge7_Node000001_Node000008" class="edge">
<title>Node1&#45;&gt;Node8</title>
<g id="a_edge7_Node000001_Node000008"><a xlink:title=" ">
<path fill="none" stroke="#63b8ff" d="M370.51,-164.98C312.26,-155.63 218.76,-140.61 156.75,-130.65"/>
<polygon fill="#63b8ff" stroke="#63b8ff" points="157.12,-127.17 146.69,-129.04 156.01,-134.08 157.12,-127.17"/>
</a>
</g>
</g>
<!-- Node11 -->
<g id="Node000011" class="node">
<title>Node11</title>
<g id="a_Node000011"><a xlink:href="settings_8h.html" target="_top" xlink:title=" ">
<polygon fill="white" stroke="#666666" points="456.03,-129 391.03,-129 391.03,-110 456.03,-110 456.03,-129"/>
<text text-anchor="middle" x="423.53" y="-117" font-family="Helvetica,sans-Serif" font-size="10.00">settings.h</text>
</a>
</g>
</g>
<!-- Node1&#45;&gt;Node11 -->
<g id="edge11_Node000001_Node000011" class="edge">
<title>Node1&#45;&gt;Node11</title>
<g id="a_edge11_Node000001_Node000011"><a xlink:title=" ">
<path fill="none" stroke="#63b8ff" d="M423.53,-164.75C423.53,-157.8 423.53,-147.85 423.53,-139.13"/>
<polygon fill="#63b8ff" stroke="#63b8ff" points="427.03,-139.09 423.53,-129.09 420.03,-139.09 427.03,-139.09"/>
</a>
</g>
</g>
<!-- Node14 -->
<g id="Node000014" class="node">
<title>Node14</title>
<g id="a_Node000014"><a xlink:title=" ">
<polygon fill="#e0e0e0" stroke="#999999" points="575.03,-129 474.03,-129 474.03,-110 575.03,-110 575.03,-129"/>
<text text-anchor="middle" x="524.53" y="-117" font-family="Helvetica,sans-Serif" font-size="10.00">ui_mainwindow.h</text>
</a>
</g>
</g>
<!-- Node1&#45;&gt;Node14 -->
<g id="edge15_Node000001_Node000014" class="edge">
<title>Node1&#45;&gt;Node14</title>
<g id="a_edge15_Node000001_Node000014"><a xlink:title=" ">
<path fill="none" stroke="#63b8ff" d="M439.76,-164.98C455.71,-156.61 480.31,-143.7 498.91,-133.95"/>
<polygon fill="#63b8ff" stroke="#63b8ff" points="500.78,-136.92 508.01,-129.17 497.53,-130.72 500.78,-136.92"/>
</a>
</g>
</g>
<!-- Node15 -->
<g id="Node000015" class="node">
<title>Node15</title>
<g id="a_Node000015"><a xlink:title=" ">
<polygon fill="#e0e0e0" stroke="#999999" points="673.53,-129 593.53,-129 593.53,-110 673.53,-110 673.53,-129"/>
<text text-anchor="middle" x="633.53" y="-117" font-family="Helvetica,sans-Serif" font-size="10.00">QPushButton</text>
</a>
</g>
</g>
<!-- Node1&#45;&gt;Node15 -->
<g id="edge16_Node000001_Node000015" class="edge">
<title>Node1&#45;&gt;Node15</title>
<g id="a_edge16_Node000001_Node000015"><a xlink:title=" ">
<path fill="none" stroke="#63b8ff" d="M457.27,-164.98C493.21,-155.91 550.25,-141.52 589.66,-131.57"/>
<polygon fill="#63b8ff" stroke="#63b8ff" points="590.69,-134.92 599.53,-129.08 588.97,-128.14 590.69,-134.92"/>
</a>
</g>
</g>
<!-- Node3 -->
<g id="Node000003" class="node">
<title>Node3</title>
<g id="a_Node000003"><a xlink:href="preferences_8h.html" target="_top" xlink:title=" ">
<polygon fill="white" stroke="#666666" points="276.03,-74 193.03,-74 193.03,-55 276.03,-55 276.03,-74"/>
<text text-anchor="middle" x="234.53" y="-62" font-family="Helvetica,sans-Serif" font-size="10.00">preferences.h</text>
</a>
</g>
</g>
<!-- Node2&#45;&gt;Node3 -->
<g id="edge2_Node000002_Node000003" class="edge">
<title>Node2&#45;&gt;Node3</title>
<g id="a_edge2_Node000002_Node000003"><a xlink:title=" ">
<path fill="none" stroke="#63b8ff" d="M309.23,-109.98C295.43,-101.77 274.29,-89.18 258.02,-79.49"/>
<polygon fill="#63b8ff" stroke="#63b8ff" points="259.47,-76.28 249.09,-74.17 255.89,-82.29 259.47,-76.28"/>
</a>
</g>
</g>
<!-- Node7 -->
<g id="Node000007" class="node">
<title>Node7</title>
<g id="a_Node000007"><a xlink:title=" ">
<polygon fill="#e0e0e0" stroke="#999999" points="381.03,-74 294.03,-74 294.03,-55 381.03,-55 381.03,-74"/>
<text text-anchor="middle" x="337.53" y="-62" font-family="Helvetica,sans-Serif" font-size="10.00">QMainWindow</text>
</a>
</g>
</g>
<!-- Node2&#45;&gt;Node7 -->
<g id="edge6_Node000002_Node000007" class="edge">
<title>Node2&#45;&gt;Node7</title>
<g id="a_edge6_Node000002_Node000007"><a xlink:title=" ">
<path fill="none" stroke="#63b8ff" d="M325.84,-109.75C327.7,-102.72 330.37,-92.62 332.69,-83.84"/>
<polygon fill="#63b8ff" stroke="#63b8ff" points="336.09,-84.65 335.26,-74.09 329.32,-82.86 336.09,-84.65"/>
</a>
</g>
</g>
<!-- Node4 -->
<g id="Node000004" class="node">
<title>Node4</title>
<g id="a_Node000004"><a xlink:title=" ">
<polygon fill="#e0e0e0" stroke="#999999" points="97.53,-19 41.53,-19 41.53,0 97.53,0 97.53,-19"/>
<text text-anchor="middle" x="69.53" y="-7" font-family="Helvetica,sans-Serif" font-size="10.00">QDialog</text>
</a>
</g>
</g>
<!-- Node3&#45;&gt;Node4 -->
<g id="edge3_Node000003_Node000004" class="edge">
<title>Node3&#45;&gt;Node4</title>
<g id="a_edge3_Node000003_Node000004"><a xlink:title=" ">
<path fill="none" stroke="#63b8ff" d="M208.02,-54.98C180.32,-46.09 136.67,-32.07 105.79,-22.15"/>
<polygon fill="#63b8ff" stroke="#63b8ff" points="106.84,-18.81 96.25,-19.08 104.7,-25.47 106.84,-18.81"/>
</a>
</g>
</g>
<!-- Node5 -->
<g id="Node000005" class="node">
<title>Node5</title>
<g id="a_Node000005"><a xlink:title=" ">
<polygon fill="#e0e0e0" stroke="#999999" points="269.53,-19 199.53,-19 199.53,0 269.53,0 269.53,-19"/>
<text text-anchor="middle" x="234.53" y="-7" font-family="Helvetica,sans-Serif" font-size="10.00">Windows.h</text>
</a>
</g>
</g>
<!-- Node3&#45;&gt;Node5 -->
<g id="edge4_Node000003_Node000005" class="edge">
<title>Node3&#45;&gt;Node5</title>
<g id="a_edge4_Node000003_Node000005"><a xlink:title=" ">
<path fill="none" stroke="#63b8ff" d="M234.53,-54.75C234.53,-47.8 234.53,-37.85 234.53,-29.13"/>
<polygon fill="#63b8ff" stroke="#63b8ff" points="238.03,-29.09 234.53,-19.09 231.03,-29.09 238.03,-29.09"/>
</a>
</g>
</g>
<!-- Node6 -->
<g id="Node000006" class="node">
<title>Node6</title>
<g id="a_Node000006"><a xlink:title=" ">
<polygon fill="#e0e0e0" stroke="#999999" points="406.03,-19 329.03,-19 329.03,0 406.03,0 406.03,-19"/>
<text text-anchor="middle" x="367.53" y="-7" font-family="Helvetica,sans-Serif" font-size="10.00">minwindef.h</text>
</a>
</g>
</g>
<!-- Node3&#45;&gt;Node6 -->
<g id="edge5_Node000003_Node000006" class="edge">
<title>Node3&#45;&gt;Node6</title>
<g id="a_edge5_Node000003_Node000006"><a xlink:title=" ">
<path fill="none" stroke="#63b8ff" d="M255.9,-54.98C277.68,-46.3 311.69,-32.75 336.45,-22.88"/>
<polygon fill="#63b8ff" stroke="#63b8ff" points="337.78,-26.12 345.77,-19.17 335.19,-19.62 337.78,-26.12"/>
</a>
</g>
</g>
<!-- Node8&#45;&gt;Node4 -->
<g id="edge8_Node000008_Node000004" class="edge">
<title>Node8&#45;&gt;Node4</title>
<g id="a_edge8_Node000008_Node000004"><a xlink:title=" ">
<path fill="none" stroke="#63b8ff" d="M55.52,-109.85C36.41,-103.37 14.94,-92.36 3.53,-74 -9.15,-53.58 16.16,-35.13 39.01,-23.45"/>
<polygon fill="#63b8ff" stroke="#63b8ff" points="40.72,-26.51 48.22,-19.02 37.69,-20.21 40.72,-26.51"/>
</a>
</g>
</g>
<!-- Node9 -->
<g id="Node000009" class="node">
<title>Node9</title>
<g id="a_Node000009"><a xlink:title=" ">
<polygon fill="#e0e0e0" stroke="#999999" points="84.03,-74 13.03,-74 13.03,-55 84.03,-55 84.03,-74"/>
<text text-anchor="middle" x="48.53" y="-62" font-family="Helvetica,sans-Serif" font-size="10.00">QTcpServer</text>
</a>
</g>
</g>
<!-- Node8&#45;&gt;Node9 -->
<g id="edge9_Node000008_Node000009" class="edge">
<title>Node8&#45;&gt;Node9</title>
<g id="a_edge9_Node000008_Node000009"><a xlink:title=" ">
<path fill="none" stroke="#63b8ff" d="M86.1,-109.75C79.68,-102.18 70.23,-91.05 62.41,-81.84"/>
<polygon fill="#63b8ff" stroke="#63b8ff" points="64.96,-79.45 55.82,-74.09 59.63,-83.98 64.96,-79.45"/>
</a>
</g>
</g>
<!-- Node10 -->
<g id="Node000010" class="node">
<title>Node10</title>
<g id="a_Node000010"><a xlink:title=" ">
<polygon fill="#e0e0e0" stroke="#999999" points="174.53,-74 102.53,-74 102.53,-55 174.53,-55 174.53,-74"/>
<text text-anchor="middle" x="138.53" y="-62" font-family="Helvetica,sans-Serif" font-size="10.00">QTcpSocket</text>
</a>
</g>
</g>
<!-- Node8&#45;&gt;Node10 -->
<g id="edge10_Node000008_Node000010" class="edge">
<title>Node8&#45;&gt;Node10</title>
<g id="a_edge10_Node000008_Node000010"><a xlink:title=" ">
<path fill="none" stroke="#63b8ff" d="M100.96,-109.75C107.38,-102.18 116.84,-91.05 124.65,-81.84"/>
<polygon fill="#63b8ff" stroke="#63b8ff" points="127.43,-83.98 131.24,-74.09 122.1,-79.45 127.43,-83.98"/>
</a>
</g>
</g>
<!-- Node11&#45;&gt;Node6 -->
<g id="edge14_Node000011_Node000006" class="edge">
<title>Node11&#45;&gt;Node6</title>
<g id="a_edge14_Node000011_Node000006"><a xlink:title=" ">
<path fill="none" stroke="#63b8ff" d="M418.95,-109.66C409.76,-91.93 388.91,-51.73 376.77,-28.32"/>
<polygon fill="#63b8ff" stroke="#63b8ff" points="379.73,-26.42 372.02,-19.16 373.52,-29.65 379.73,-26.42"/>
</a>
</g>
</g>
<!-- Node12 -->
<g id="Node000012" class="node">
<title>Node12</title>
<g id="a_Node000012"><a xlink:title=" ">
<polygon fill="#e0e0e0" stroke="#999999" points="475.53,-74 437.53,-74 437.53,-55 475.53,-55 475.53,-74"/>
<text text-anchor="middle" x="456.53" y="-62" font-family="Helvetica,sans-Serif" font-size="10.00">QDir</text>
</a>
</g>
</g>
<!-- Node11&#45;&gt;Node12 -->
<g id="edge12_Node000011_Node000012" class="edge">
<title>Node11&#45;&gt;Node12</title>
<g id="a_edge12_Node000011_Node000012"><a xlink:title=" ">
<path fill="none" stroke="#63b8ff" d="M428.98,-109.75C433.55,-102.42 440.2,-91.73 445.82,-82.7"/>
<polygon fill="#63b8ff" stroke="#63b8ff" points="448.87,-84.43 451.18,-74.09 442.93,-80.73 448.87,-84.43"/>
</a>
</g>
</g>
<!-- Node13 -->
<g id="Node000013" class="node">
<title>Node13</title>
<g id="a_Node000013"><a xlink:title=" ">
<polygon fill="#e0e0e0" stroke="#999999" points="557.53,-74 493.53,-74 493.53,-55 557.53,-55 557.53,-74"/>
<text text-anchor="middle" x="525.53" y="-62" font-family="Helvetica,sans-Serif" font-size="10.00">QSettings</text>
</a>
</g>
</g>
<!-- Node11&#45;&gt;Node13 -->
<g id="edge13_Node000011_Node000013" class="edge">
<title>Node11&#45;&gt;Node13</title>
<g id="a_edge13_Node000011_Node000013"><a xlink:title=" ">
<path fill="none" stroke="#63b8ff" d="M439.92,-109.98C456.11,-101.57 481.1,-88.59 499.91,-78.81"/>
<polygon fill="#63b8ff" stroke="#63b8ff" points="501.59,-81.89 508.84,-74.17 498.36,-75.68 501.59,-81.89"/>
</a>
</g>
</g>
</g>
</svg>
