<?xml version="1.0" encoding="UTF-8" standalone="no"?>
<!DOCTYPE svg PUBLIC "-//W3C//DTD SVG 1.1//EN"
 "http://www.w3.org/Graphics/SVG/1.1/DTD/svg11.dtd">
<!-- Generated by graphviz version 2.43.0 (0)
 -->
<!-- Title: src/main.cpp Pages: 1 -->
<svg width="545pt" height="192pt"
 viewBox="0.00 0.00 544.50 192.00" xmlns="http://www.w3.org/2000/svg" xmlns:xlink="http://www.w3.org/1999/xlink">
<g id="graph0" class="graph" transform="scale(1 1) rotate(0) translate(4 188)">
<title>src/main.cpp</title>
<!-- Node1 -->
<g id="Node000001" class="node">
<title>Node1</title>
<g id="a_Node000001"><a xlink:title=" ">
<polygon fill="#999999" stroke="#666666" points="380,-184 301,-184 301,-165 380,-165 380,-184"/>
<text text-anchor="middle" x="340.5" y="-172" font-family="Helvetica,sans-Serif" font-size="10.00">src/main.cpp</text>
</a>
</g>
</g>
<!-- Node2 -->
<g id="Node000002" class="node">
<title>Node2</title>
<g id="a_Node000002"><a xlink:href="mainwindow_8hpp.html" target="_top" xlink:title=" ">
<polygon fill="white" stroke="#666666" points="205,-129 94,-129 94,-110 205,-110 205,-129"/>
<text text-anchor="middle" x="149.5" y="-117" font-family="Helvetica,sans-Serif" font-size="10.00">ui/mainwindow.hpp</text>
</a>
</g>
</g>
<!-- Node1&#45;&gt;Node2 -->
<g id="edge1_Node000001_Node000002" class="edge">
<title>Node1&#45;&gt;Node2</title>
<g id="a_edge1_Node000001_Node000002"><a xlink:title=" ">
<path fill="none" stroke="#63b8ff" d="M309.81,-164.98C277.33,-155.97 225.9,-141.7 190.09,-131.76"/>
<polygon fill="#63b8ff" stroke="#63b8ff" points="191,-128.38 180.43,-129.08 189.13,-135.13 191,-128.38"/>
</a>
</g>
</g>
<!-- Node7 -->
<g id="Node000007" class="node">
<title>Node7</title>
<g id="a_Node000007"><a xlink:title=" ">
<polygon fill="#e0e0e0" stroke="#999999" points="302,-129 223,-129 223,-110 302,-110 302,-129"/>
<text text-anchor="middle" x="262.5" y="-117" font-family="Helvetica,sans-Serif" font-size="10.00">QApplication</text>
</a>
</g>
</g>
<!-- Node1&#45;&gt;Node7 -->
<g id="edge6_Node000001_Node000007" class="edge">
<title>Node1&#45;&gt;Node7</title>
<g id="a_edge6_Node000001_Node000007"><a xlink:title=" ">
<path fill="none" stroke="#63b8ff" d="M327.97,-164.98C316.1,-156.92 298.04,-144.65 283.89,-135.03"/>
<polygon fill="#63b8ff" stroke="#63b8ff" points="285.5,-131.9 275.26,-129.17 281.56,-137.69 285.5,-131.9"/>
</a>
</g>
</g>
<!-- Node8 -->
<g id="Node000008" class="node">
<title>Node8</title>
<g id="a_Node000008"><a xlink:title=" ">
<polygon fill="#e0e0e0" stroke="#999999" points="361,-129 320,-129 320,-110 361,-110 361,-129"/>
<text text-anchor="middle" x="340.5" y="-117" font-family="Helvetica,sans-Serif" font-size="10.00">QFile</text>
</a>
</g>
</g>
<!-- Node1&#45;&gt;Node8 -->
<g id="edge7_Node000001_Node000008" class="edge">
<title>Node1&#45;&gt;Node8</title>
<g id="a_edge7_Node000001_Node000008"><a xlink:title=" ">
<path fill="none" stroke="#63b8ff" d="M340.5,-164.75C340.5,-157.8 340.5,-147.85 340.5,-139.13"/>
<polygon fill="#63b8ff" stroke="#63b8ff" points="344,-139.09 340.5,-129.09 337,-139.09 344,-139.09"/>
</a>
</g>
</g>
<!-- Node9 -->
<g id="Node000009" class="node">
<title>Node9</title>
<g id="a_Node000009"><a xlink:title=" ">
<polygon fill="#e0e0e0" stroke="#999999" points="434,-129 379,-129 379,-110 434,-110 434,-129"/>
<text text-anchor="middle" x="406.5" y="-117" font-family="Helvetica,sans-Serif" font-size="10.00">QMutex</text>
</a>
</g>
</g>
<!-- Node1&#45;&gt;Node9 -->
<g id="edge8_Node000001_Node000009" class="edge">
<title>Node1&#45;&gt;Node9</title>
<g id="a_edge8_Node000001_Node000009"><a xlink:title=" ">
<path fill="none" stroke="#63b8ff" d="M351.1,-164.98C360.96,-157.07 375.85,-145.11 387.72,-135.58"/>
<polygon fill="#63b8ff" stroke="#63b8ff" points="390.1,-138.16 395.7,-129.17 385.71,-132.7 390.1,-138.16"/>
</a>
</g>
</g>
<!-- Node10 -->
<g id="Node000010" class="node">
<title>Node10</title>
<g id="a_Node000010"><a xlink:title=" ">
<polygon fill="#e0e0e0" stroke="#999999" points="536.5,-129 452.5,-129 452.5,-110 536.5,-110 536.5,-129"/>
<text text-anchor="middle" x="494.5" y="-117" font-family="Helvetica,sans-Serif" font-size="10.00">QStyleFactory</text>
</a>
</g>
</g>
<!-- Node1&#45;&gt;Node10 -->
<g id="edge9_Node000001_Node000010" class="edge">
<title>Node1&#45;&gt;Node10</title>
<g id="a_edge9_Node000001_Node000010"><a xlink:title=" ">
<path fill="none" stroke="#63b8ff" d="M365.24,-164.98C390.87,-156.16 431.13,-142.31 459.91,-132.41"/>
<polygon fill="#63b8ff" stroke="#63b8ff" points="461.25,-135.65 469.56,-129.08 458.97,-129.03 461.25,-135.65"/>
</a>
</g>
</g>
<!-- Node3 -->
<g id="Node000003" class="node">
<title>Node3</title>
<g id="a_Node000003"><a xlink:href="mainmenu_8hpp.html" target="_top" xlink:title=" ">
<polygon fill="white" stroke="#666666" points="141.5,-74 51.5,-74 51.5,-55 141.5,-55 141.5,-74"/>
<text text-anchor="middle" x="96.5" y="-62" font-family="Helvetica,sans-Serif" font-size="10.00">mainmenu.hpp</text>
</a>
</g>
</g>
<!-- Node2&#45;&gt;Node3 -->
<g id="edge2_Node000002_Node000003" class="edge">
<title>Node2&#45;&gt;Node3</title>
<g id="a_edge2_Node000002_Node000003"><a xlink:title=" ">
<path fill="none" stroke="#63b8ff" d="M140.75,-109.75C133.03,-102.03 121.6,-90.6 112.28,-81.28"/>
<polygon fill="#63b8ff" stroke="#63b8ff" points="114.64,-78.69 105.09,-74.09 109.69,-83.64 114.64,-78.69"/>
</a>
</g>
</g>
<!-- Node6 -->
<g id="Node000006" class="node">
<title>Node6</title>
<g id="a_Node000006"><a xlink:title=" ">
<polygon fill="#e0e0e0" stroke="#999999" points="247,-74 160,-74 160,-55 247,-55 247,-74"/>
<text text-anchor="middle" x="203.5" y="-62" font-family="Helvetica,sans-Serif" font-size="10.00">QMainWindow</text>
</a>
</g>
</g>
<!-- Node2&#45;&gt;Node6 -->
<g id="edge5_Node000002_Node000006" class="edge">
<title>Node2&#45;&gt;Node6</title>
<g id="a_edge5_Node000002_Node000006"><a xlink:title=" ">
<path fill="none" stroke="#63b8ff" d="M158.42,-109.75C166.28,-102.03 177.93,-90.6 187.42,-81.28"/>
<polygon fill="#63b8ff" stroke="#63b8ff" points="190.06,-83.59 194.75,-74.09 185.16,-78.6 190.06,-83.59"/>
</a>
</g>
</g>
<!-- Node4 -->
<g id="Node000004" class="node">
<title>Node4</title>
<g id="a_Node000004"><a xlink:title=" ">
<polygon fill="#e0e0e0" stroke="#999999" points="97,-19 0,-19 0,0 97,0 97,-19"/>
<text text-anchor="middle" x="48.5" y="-7" font-family="Helvetica,sans-Serif" font-size="10.00">QStackedWidget</text>
</a>
</g>
</g>
<!-- Node3&#45;&gt;Node4 -->
<g id="edge3_Node000003_Node000004" class="edge">
<title>Node3&#45;&gt;Node4</title>
<g id="a_edge3_Node000003_Node000004"><a xlink:title=" ">
<path fill="none" stroke="#63b8ff" d="M88.57,-54.75C81.65,-47.11 71.43,-35.82 63.05,-26.56"/>
<polygon fill="#63b8ff" stroke="#63b8ff" points="65.59,-24.15 56.28,-19.09 60.4,-28.85 65.59,-24.15"/>
</a>
</g>
</g>
<!-- Node5 -->
<g id="Node000005" class="node">
<title>Node5</title>
<g id="a_Node000005"><a xlink:title=" ">
<polygon fill="#e0e0e0" stroke="#999999" points="174,-19 115,-19 115,0 174,0 174,-19"/>
<text text-anchor="middle" x="144.5" y="-7" font-family="Helvetica,sans-Serif" font-size="10.00">QWidget</text>
</a>
</g>
</g>
<!-- Node3&#45;&gt;Node5 -->
<g id="edge4_Node000003_Node000005" class="edge">
<title>Node3&#45;&gt;Node5</title>
<g id="a_edge4_Node000003_Node000005"><a xlink:title=" ">
<path fill="none" stroke="#63b8ff" d="M104.43,-54.75C111.35,-47.11 121.57,-35.82 129.95,-26.56"/>
<polygon fill="#63b8ff" stroke="#63b8ff" points="132.6,-28.85 136.72,-19.09 127.41,-24.15 132.6,-28.85"/>
</a>
</g>
</g>
</g>
</svg>
