<?xml version="1.0" encoding="UTF-8" standalone="no"?>
<!DOCTYPE svg PUBLIC "-//W3C//DTD SVG 1.1//EN"
 "http://www.w3.org/Graphics/SVG/1.1/DTD/svg11.dtd">
<!-- Generated by graphviz version 2.43.0 (0)
 -->
<!-- Title: src/main.cpp Pages: 1 -->
<svg width="963pt" height="137pt"
 viewBox="0.00 0.00 962.50 137.00" xmlns="http://www.w3.org/2000/svg" xmlns:xlink="http://www.w3.org/1999/xlink">
<g id="graph0" class="graph" transform="scale(1 1) rotate(0) translate(4 133)">
<title>src/main.cpp</title>
<!-- Node1 -->
<g id="Node000001" class="node">
<title>Node1</title>
<g id="a_Node000001"><a xlink:title=" ">
<polygon fill="#999999" stroke="#666666" points="391,-129 312,-129 312,-110 391,-110 391,-129"/>
<text text-anchor="middle" x="351.5" y="-117" font-family="Helvetica,sans-Serif" font-size="10.00">src/main.cpp</text>
</a>
</g>
</g>
<!-- Node2 -->
<g id="Node000002" class="node">
<title>Node2</title>
<g id="a_Node000002"><a xlink:href="appdir_8hpp.html" target="_top" xlink:title=" ">
<polygon fill="white" stroke="#666666" points="192.5,-74 124.5,-74 124.5,-55 192.5,-55 192.5,-74"/>
<text text-anchor="middle" x="158.5" y="-62" font-family="Helvetica,sans-Serif" font-size="10.00">appdir.hpp</text>
</a>
</g>
</g>
<!-- Node1&#45;&gt;Node2 -->
<g id="edge1_Node000001_Node000002" class="edge">
<title>Node1&#45;&gt;Node2</title>
<g id="a_edge1_Node000001_Node000002"><a xlink:title=" ">
<path fill="none" stroke="#63b8ff" d="M320.49,-109.98C287.67,-100.97 235.7,-86.7 199.51,-76.76"/>
<polygon fill="#63b8ff" stroke="#63b8ff" points="200.32,-73.36 189.75,-74.08 198.47,-80.11 200.32,-73.36"/>
</a>
</g>
</g>
<!-- Node3 -->
<g id="Node000003" class="node">
<title>Node3</title>
<g id="a_Node000003"><a xlink:title=" ">
<polygon fill="#e0e0e0" stroke="#999999" points="79,-19 0,-19 0,0 79,0 79,-19"/>
<text text-anchor="middle" x="39.5" y="-7" font-family="Helvetica,sans-Serif" font-size="10.00">QApplication</text>
</a>
</g>
</g>
<!-- Node1&#45;&gt;Node3 -->
<g id="edge10_Node000001_Node000003" class="edge">
<title>Node1&#45;&gt;Node3</title>
<g id="a_edge10_Node000001_Node000003"><a xlink:title=" ">
<path fill="none" stroke="#63b8ff" d="M311.57,-118.39C260.75,-116.72 171.5,-108.54 104.5,-74 82.9,-62.87 63.76,-42.14 51.94,-27.4"/>
<polygon fill="#63b8ff" stroke="#63b8ff" points="54.45,-24.92 45.57,-19.13 48.9,-29.19 54.45,-24.92"/>
</a>
</g>
</g>
<!-- Node4 -->
<g id="Node000004" class="node">
<title>Node4</title>
<g id="a_Node000004"><a xlink:title=" ">
<polygon fill="#e0e0e0" stroke="#999999" points="135.5,-19 97.5,-19 97.5,0 135.5,0 135.5,-19"/>
<text text-anchor="middle" x="116.5" y="-7" font-family="Helvetica,sans-Serif" font-size="10.00">QDir</text>
</a>
</g>
</g>
<!-- Node1&#45;&gt;Node4 -->
<g id="edge11_Node000001_Node000004" class="edge">
<title>Node1&#45;&gt;Node4</title>
<g id="a_edge11_Node000001_Node000004"><a xlink:title=" ">
<path fill="none" stroke="#63b8ff" d="M311.81,-116.93C251.19,-113.6 139.98,-103.53 115.5,-74 105.28,-61.68 106.98,-42.91 110.36,-28.97"/>
<polygon fill="#63b8ff" stroke="#63b8ff" points="113.81,-29.62 113.23,-19.04 107.09,-27.67 113.81,-29.62"/>
</a>
</g>
</g>
<!-- Node5 -->
<g id="Node000005" class="node">
<title>Node5</title>
<g id="a_Node000005"><a xlink:title=" ">
<polygon fill="#e0e0e0" stroke="#999999" points="195,-19 154,-19 154,0 195,0 195,-19"/>
<text text-anchor="middle" x="174.5" y="-7" font-family="Helvetica,sans-Serif" font-size="10.00">QFile</text>
</a>
</g>
</g>
<!-- Node1&#45;&gt;Node5 -->
<g id="edge12_Node000001_Node000005" class="edge">
<title>Node1&#45;&gt;Node5</title>
<g id="a_edge12_Node000001_Node000005"><a xlink:title=" ">
<path fill="none" stroke="#63b8ff" d="M337.31,-109.84C306.76,-91.2 234.51,-47.11 197.39,-24.46"/>
<polygon fill="#63b8ff" stroke="#63b8ff" points="199.11,-21.42 188.75,-19.2 195.47,-27.39 199.11,-21.42"/>
</a>
</g>
</g>
<!-- Node6 -->
<g id="Node000006" class="node">
<title>Node6</title>
<g id="a_Node000006"><a xlink:title=" ">
<polygon fill="#e0e0e0" stroke="#999999" points="273.5,-19 213.5,-19 213.5,0 273.5,0 273.5,-19"/>
<text text-anchor="middle" x="243.5" y="-7" font-family="Helvetica,sans-Serif" font-size="10.00">QFileInfo</text>
</a>
</g>
</g>
<!-- Node1&#45;&gt;Node6 -->
<g id="edge13_Node000001_Node000006" class="edge">
<title>Node1&#45;&gt;Node6</title>
<g id="a_edge13_Node000001_Node000006"><a xlink:title=" ">
<path fill="none" stroke="#63b8ff" d="M342.66,-109.66C324.46,-91.46 282.55,-49.55 259.47,-26.47"/>
<polygon fill="#63b8ff" stroke="#63b8ff" points="261.7,-23.75 252.16,-19.16 256.75,-28.7 261.7,-23.75"/>
</a>
</g>
</g>
<!-- Node7 -->
<g id="Node000007" class="node">
<title>Node7</title>
<g id="a_Node000007"><a xlink:title=" ">
<polygon fill="#e0e0e0" stroke="#999999" points="385.5,-19 291.5,-19 291.5,0 385.5,0 385.5,-19"/>
<text text-anchor="middle" x="338.5" y="-7" font-family="Helvetica,sans-Serif" font-size="10.00">QStandardPaths</text>
</a>
</g>
</g>
<!-- Node1&#45;&gt;Node7 -->
<g id="edge16_Node000001_Node000007" class="edge">
<title>Node1&#45;&gt;Node7</title>
<g id="a_edge16_Node000001_Node000007"><a xlink:title=" ">
<path fill="none" stroke="#63b8ff" d="M341.34,-109.81C332.6,-101.6 320.6,-88.43 315.5,-74 309.9,-58.17 317.76,-40.17 325.78,-27.39"/>
<polygon fill="#63b8ff" stroke="#63b8ff" points="328.69,-29.34 331.46,-19.11 322.92,-25.38 328.69,-29.34"/>
</a>
</g>
</g>
<!-- Node8 -->
<g id="Node000008" class="node">
<title>Node8</title>
<g id="a_Node000008"><a xlink:href="console_8hpp.html" target="_top" xlink:title=" ">
<polygon fill="white" stroke="#666666" points="490.5,-74 324.5,-74 324.5,-55 490.5,-55 490.5,-74"/>
<text text-anchor="middle" x="407.5" y="-62" font-family="Helvetica,sans-Serif" font-size="10.00">platform/windows/console.hpp</text>
</a>
</g>
</g>
<!-- Node1&#45;&gt;Node8 -->
<g id="edge7_Node000001_Node000008" class="edge">
<title>Node1&#45;&gt;Node8</title>
<g id="a_edge7_Node000001_Node000008"><a xlink:title=" ">
<path fill="none" stroke="#63b8ff" d="M360.5,-109.98C368.69,-102.23 381.01,-90.58 390.97,-81.14"/>
<polygon fill="#63b8ff" stroke="#63b8ff" points="393.48,-83.59 398.34,-74.17 388.67,-78.5 393.48,-83.59"/>
</a>
</g>
</g>
<!-- Node9 -->
<g id="Node000009" class="node">
<title>Node9</title>
<g id="a_Node000009"><a xlink:href="mainwindow_8hpp.html" target="_top" xlink:title=" ">
<polygon fill="white" stroke="#666666" points="620,-74 509,-74 509,-55 620,-55 620,-74"/>
<text text-anchor="middle" x="564.5" y="-62" font-family="Helvetica,sans-Serif" font-size="10.00">ui/mainwindow.hpp</text>
</a>
</g>
</g>
<!-- Node1&#45;&gt;Node9 -->
<g id="edge8_Node000001_Node000009" class="edge">
<title>Node1&#45;&gt;Node9</title>
<g id="a_edge8_Node000001_Node000009"><a xlink:title=" ">
<path fill="none" stroke="#63b8ff" d="M385.72,-109.98C422.26,-100.89 480.28,-86.46 520.26,-76.51"/>
<polygon fill="#63b8ff" stroke="#63b8ff" points="521.15,-79.89 530.01,-74.08 519.46,-73.1 521.15,-79.89"/>
</a>
</g>
</g>
<!-- Node11 -->
<g id="Node000011" class="node">
<title>Node11</title>
<g id="a_Node000011"><a xlink:title=" ">
<polygon fill="#e0e0e0" stroke="#999999" points="702.5,-74 638.5,-74 638.5,-55 702.5,-55 702.5,-74"/>
<text text-anchor="middle" x="670.5" y="-62" font-family="Helvetica,sans-Serif" font-size="10.00">QLockFile</text>
</a>
</g>
</g>
<!-- Node1&#45;&gt;Node11 -->
<g id="edge14_Node000001_Node000011" class="edge">
<title>Node1&#45;&gt;Node11</title>
<g id="a_edge14_Node000001_Node000011"><a xlink:title=" ">
<path fill="none" stroke="#63b8ff" d="M391.19,-112.73C443.32,-105.02 537.94,-90.59 628.43,-74.13"/>
<polygon fill="#63b8ff" stroke="#63b8ff" points="629.09,-77.56 638.3,-72.32 627.83,-70.68 629.09,-77.56"/>
</a>
</g>
</g>
<!-- Node12 -->
<g id="Node000012" class="node">
<title>Node12</title>
<g id="a_Node000012"><a xlink:title=" ">
<polygon fill="#e0e0e0" stroke="#999999" points="776,-74 721,-74 721,-55 776,-55 776,-74"/>
<text text-anchor="middle" x="748.5" y="-62" font-family="Helvetica,sans-Serif" font-size="10.00">QMutex</text>
</a>
</g>
</g>
<!-- Node1&#45;&gt;Node12 -->
<g id="edge15_Node000001_Node000012" class="edge">
<title>Node1&#45;&gt;Node12</title>
<g id="a_edge15_Node000001_Node000012"><a xlink:title=" ">
<path fill="none" stroke="#63b8ff" d="M391.12,-114.95C455.88,-108.85 588.59,-95.13 710.78,-73.95"/>
<polygon fill="#63b8ff" stroke="#63b8ff" points="711.44,-77.39 720.68,-72.21 710.23,-70.49 711.44,-77.39"/>
</a>
</g>
</g>
<!-- Node13 -->
<g id="Node000013" class="node">
<title>Node13</title>
<g id="a_Node000013"><a xlink:title=" ">
<polygon fill="#e0e0e0" stroke="#999999" points="878.5,-74 794.5,-74 794.5,-55 878.5,-55 878.5,-74"/>
<text text-anchor="middle" x="836.5" y="-62" font-family="Helvetica,sans-Serif" font-size="10.00">QStyleFactory</text>
</a>
</g>
</g>
<!-- Node1&#45;&gt;Node13 -->
<g id="edge17_Node000001_Node000013" class="edge">
<title>Node1&#45;&gt;Node13</title>
<g id="a_edge17_Node000001_Node000013"><a xlink:title=" ">
<path fill="none" stroke="#63b8ff" d="M391.09,-115.28C465.88,-109.02 633.23,-94.14 784.3,-74.08"/>
<polygon fill="#63b8ff" stroke="#63b8ff" points="784.78,-77.55 794.23,-72.76 783.85,-70.61 784.78,-77.55"/>
</a>
</g>
</g>
<!-- Node14 -->
<g id="Node000014" class="node">
<title>Node14</title>
<g id="a_Node000014"><a xlink:title=" ">
<polygon fill="#e0e0e0" stroke="#999999" points="954.5,-74 896.5,-74 896.5,-55 954.5,-55 954.5,-74"/>
<text text-anchor="middle" x="925.5" y="-62" font-family="Helvetica,sans-Serif" font-size="10.00">memory</text>
</a>
</g>
</g>
<!-- Node1&#45;&gt;Node14 -->
<g id="edge18_Node000001_Node000014" class="edge">
<title>Node1&#45;&gt;Node14</title>
<g id="a_edge18_Node000001_Node000014"><a xlink:title=" ">
<path fill="none" stroke="#63b8ff" d="M391.06,-117.07C478.62,-113.52 695.53,-102.52 886.2,-73.99"/>
<polygon fill="#63b8ff" stroke="#63b8ff" points="886.75,-77.45 896.12,-72.49 885.71,-70.53 886.75,-77.45"/>
</a>
</g>
</g>
<!-- Node2&#45;&gt;Node3 -->
<g id="edge2_Node000002_Node000003" class="edge">
<title>Node2&#45;&gt;Node3</title>
<g id="a_edge2_Node000002_Node000003"><a xlink:title=" ">
<path fill="none" stroke="#63b8ff" d="M139.38,-54.98C120.15,-46.42 90.27,-33.11 68.19,-23.28"/>
<polygon fill="#63b8ff" stroke="#63b8ff" points="69.53,-20.04 58.97,-19.17 66.68,-26.44 69.53,-20.04"/>
</a>
</g>
</g>
<!-- Node2&#45;&gt;Node4 -->
<g id="edge3_Node000002_Node000004" class="edge">
<title>Node2&#45;&gt;Node4</title>
<g id="a_edge3_Node000002_Node000004"><a xlink:title=" ">
<path fill="none" stroke="#63b8ff" d="M151.56,-54.75C145.63,-47.26 136.93,-36.28 129.68,-27.13"/>
<polygon fill="#63b8ff" stroke="#63b8ff" points="132.26,-24.75 123.31,-19.09 126.77,-29.1 132.26,-24.75"/>
</a>
</g>
</g>
<!-- Node2&#45;&gt;Node5 -->
<g id="edge4_Node000002_Node000005" class="edge">
<title>Node2&#45;&gt;Node5</title>
<g id="a_edge4_Node000002_Node000005"><a xlink:title=" ">
<path fill="none" stroke="#63b8ff" d="M161.14,-54.75C163.26,-47.72 166.31,-37.62 168.96,-28.84"/>
<polygon fill="#63b8ff" stroke="#63b8ff" points="172.37,-29.67 171.91,-19.09 165.67,-27.65 172.37,-29.67"/>
</a>
</g>
</g>
<!-- Node2&#45;&gt;Node6 -->
<g id="edge5_Node000002_Node000006" class="edge">
<title>Node2&#45;&gt;Node6</title>
<g id="a_edge5_Node000002_Node000006"><a xlink:title=" ">
<path fill="none" stroke="#63b8ff" d="M172.16,-54.98C185.34,-46.77 205.53,-34.18 221.07,-24.49"/>
<polygon fill="#63b8ff" stroke="#63b8ff" points="222.96,-27.43 229.59,-19.17 219.26,-21.49 222.96,-27.43"/>
</a>
</g>
</g>
<!-- Node2&#45;&gt;Node7 -->
<g id="edge6_Node000002_Node000007" class="edge">
<title>Node2&#45;&gt;Node7</title>
<g id="a_edge6_Node000002_Node000007"><a xlink:title=" ">
<path fill="none" stroke="#63b8ff" d="M187.42,-54.98C217.77,-46.05 265.67,-31.94 299.38,-22.02"/>
<polygon fill="#63b8ff" stroke="#63b8ff" points="300.75,-25.26 309.35,-19.08 298.77,-18.55 300.75,-25.26"/>
</a>
</g>
</g>
<!-- Node10 -->
<g id="Node000010" class="node">
<title>Node10</title>
<g id="a_Node000010"><a xlink:title=" ">
<polygon fill="#e0e0e0" stroke="#999999" points="608,-19 521,-19 521,0 608,0 608,-19"/>
<text text-anchor="middle" x="564.5" y="-7" font-family="Helvetica,sans-Serif" font-size="10.00">QMainWindow</text>
</a>
</g>
</g>
<!-- Node9&#45;&gt;Node10 -->
<g id="edge9_Node000009_Node000010" class="edge">
<title>Node9&#45;&gt;Node10</title>
<g id="a_edge9_Node000009_Node000010"><a xlink:title=" ">
<path fill="none" stroke="#63b8ff" d="M564.5,-54.75C564.5,-47.8 564.5,-37.85 564.5,-29.13"/>
<polygon fill="#63b8ff" stroke="#63b8ff" points="568,-29.09 564.5,-19.09 561,-29.09 568,-29.09"/>
</a>
</g>
</g>
</g>
</svg>
