<?xml version="1.0" encoding="UTF-8" standalone="no"?>
<!DOCTYPE svg PUBLIC "-//W3C//DTD SVG 1.1//EN"
 "http://www.w3.org/Graphics/SVG/1.1/DTD/svg11.dtd">
<!-- Generated by graphviz version 2.43.0 (0)
 -->
<!-- Title: src/main.cpp Pages: 1 -->
<svg width="1036pt" height="137pt"
 viewBox="0.00 0.00 1035.50 137.00" xmlns="http://www.w3.org/2000/svg" xmlns:xlink="http://www.w3.org/1999/xlink">
<g id="graph0" class="graph" transform="scale(1 1) rotate(0) translate(4 133)">
<title>src/main.cpp</title>
<!-- Node1 -->
<g id="Node000001" class="node">
<title>Node1</title>
<g id="a_Node000001"><a xlink:title=" ">
<polygon fill="#999999" stroke="#666666" points="553,-129 474,-129 474,-110 553,-110 553,-129"/>
<text text-anchor="middle" x="513.5" y="-117" font-family="Helvetica,sans-Serif" font-size="10.00">src/main.cpp</text>
</a>
</g>
</g>
<!-- Node2 -->
<g id="Node000002" class="node">
<title>Node2</title>
<g id="a_Node000002"><a xlink:href="appdir_8hpp.html" target="_top" xlink:title=" ">
<polygon fill="white" stroke="#666666" points="132.5,-74 64.5,-74 64.5,-55 132.5,-55 132.5,-74"/>
<text text-anchor="middle" x="98.5" y="-62" font-family="Helvetica,sans-Serif" font-size="10.00">appdir.hpp</text>
</a>
</g>
</g>
<!-- Node1&#45;&gt;Node2 -->
<g id="edge1_Node000001_Node000002" class="edge">
<title>Node1&#45;&gt;Node2</title>
<g id="a_edge1_Node000001_Node000002"><a xlink:title=" ">
<path fill="none" stroke="#63b8ff" d="M473.76,-114.4C406.32,-107.28 265.21,-91.69 146.5,-74 145.23,-73.81 143.94,-73.61 142.64,-73.41"/>
<polygon fill="#63b8ff" stroke="#63b8ff" points="142.98,-69.92 132.55,-71.77 141.86,-76.83 142.98,-69.92"/>
</a>
</g>
</g>
<!-- Node3 -->
<g id="Node000003" class="node">
<title>Node3</title>
<g id="a_Node000003"><a xlink:title=" ">
<polygon fill="#e0e0e0" stroke="#999999" points="79,-19 0,-19 0,0 79,0 79,-19"/>
<text text-anchor="middle" x="39.5" y="-7" font-family="Helvetica,sans-Serif" font-size="10.00">QApplication</text>
</a>
</g>
</g>
<!-- Node1&#45;&gt;Node3 -->
<g id="edge8_Node000001_Node000003" class="edge">
<title>Node1&#45;&gt;Node3</title>
<g id="a_edge8_Node000001_Node000003"><a xlink:title=" ">
<path fill="none" stroke="#63b8ff" d="M473.8,-117.22C368.3,-113.48 86.92,-101.03 55.5,-74 42.85,-63.12 39.45,-43.84 38.84,-29.37"/>
<polygon fill="#63b8ff" stroke="#63b8ff" points="42.34,-29.05 38.84,-19.05 35.34,-29.06 42.34,-29.05"/>
</a>
</g>
</g>
<!-- Node4 -->
<g id="Node000004" class="node">
<title>Node4</title>
<g id="a_Node000004"><a xlink:title=" ">
<polygon fill="#e0e0e0" stroke="#999999" points="139.5,-19 101.5,-19 101.5,0 139.5,0 139.5,-19"/>
<text text-anchor="middle" x="120.5" y="-7" font-family="Helvetica,sans-Serif" font-size="10.00">QDir</text>
</a>
</g>
</g>
<!-- Node1&#45;&gt;Node4 -->
<g id="edge9_Node000001_Node000004" class="edge">
<title>Node1&#45;&gt;Node4</title>
<g id="a_edge9_Node000001_Node000004"><a xlink:title=" ">
<path fill="none" stroke="#63b8ff" d="M473.96,-115.57C400.78,-109.72 247.22,-95.28 198.5,-74 173.39,-63.03 149.75,-41.65 135.22,-26.74"/>
<polygon fill="#63b8ff" stroke="#63b8ff" points="137.54,-24.1 128.13,-19.23 132.45,-28.91 137.54,-24.1"/>
</a>
</g>
</g>
<!-- Node5 -->
<g id="Node000005" class="node">
<title>Node5</title>
<g id="a_Node000005"><a xlink:title=" ">
<polygon fill="#e0e0e0" stroke="#999999" points="219.5,-19 159.5,-19 159.5,0 219.5,0 219.5,-19"/>
<text text-anchor="middle" x="189.5" y="-7" font-family="Helvetica,sans-Serif" font-size="10.00">QFileInfo</text>
</a>
</g>
</g>
<!-- Node1&#45;&gt;Node5 -->
<g id="edge11_Node000001_Node000005" class="edge">
<title>Node1&#45;&gt;Node5</title>
<g id="a_edge11_Node000001_Node000005"><a xlink:title=" ">
<path fill="none" stroke="#63b8ff" d="M473.85,-117.19C402.68,-114.1 256.99,-104.17 217.5,-74 203.31,-63.16 196.16,-43.59 192.66,-29.02"/>
<polygon fill="#63b8ff" stroke="#63b8ff" points="196.07,-28.2 190.64,-19.1 189.21,-29.59 196.07,-28.2"/>
</a>
</g>
</g>
<!-- Node6 -->
<g id="Node000006" class="node">
<title>Node6</title>
<g id="a_Node000006"><a xlink:href="console_8hpp.html" target="_top" xlink:title=" ">
<polygon fill="white" stroke="#666666" points="392.5,-74 226.5,-74 226.5,-55 392.5,-55 392.5,-74"/>
<text text-anchor="middle" x="309.5" y="-62" font-family="Helvetica,sans-Serif" font-size="10.00">platform/windows/console.hpp</text>
</a>
</g>
</g>
<!-- Node1&#45;&gt;Node6 -->
<g id="edge5_Node000001_Node000006" class="edge">
<title>Node1&#45;&gt;Node6</title>
<g id="a_edge5_Node000001_Node000006"><a xlink:title=" ">
<path fill="none" stroke="#63b8ff" d="M480.72,-109.98C445.88,-100.93 390.63,-86.58 352.36,-76.64"/>
<polygon fill="#63b8ff" stroke="#63b8ff" points="353.09,-73.21 342.53,-74.08 351.33,-79.98 353.09,-73.21"/>
</a>
</g>
</g>
<!-- Node7 -->
<g id="Node000007" class="node">
<title>Node7</title>
<g id="a_Node000007"><a xlink:href="mainwindow_8hpp.html" target="_top" xlink:title=" ">
<polygon fill="white" stroke="#666666" points="522,-74 411,-74 411,-55 522,-55 522,-74"/>
<text text-anchor="middle" x="466.5" y="-62" font-family="Helvetica,sans-Serif" font-size="10.00">ui/mainwindow.hpp</text>
</a>
</g>
</g>
<!-- Node1&#45;&gt;Node7 -->
<g id="edge6_Node000001_Node000007" class="edge">
<title>Node1&#45;&gt;Node7</title>
<g id="a_edge6_Node000001_Node000007"><a xlink:title=" ">
<path fill="none" stroke="#63b8ff" d="M505.74,-109.75C499.03,-102.18 489.16,-91.05 480.99,-81.84"/>
<polygon fill="#63b8ff" stroke="#63b8ff" points="483.37,-79.25 474.12,-74.09 478.13,-83.89 483.37,-79.25"/>
</a>
</g>
</g>
<!-- Node9 -->
<g id="Node000009" class="node">
<title>Node9</title>
<g id="a_Node000009"><a xlink:title=" ">
<polygon fill="#e0e0e0" stroke="#999999" points="581,-74 540,-74 540,-55 581,-55 581,-74"/>
<text text-anchor="middle" x="560.5" y="-62" font-family="Helvetica,sans-Serif" font-size="10.00">QFile</text>
</a>
</g>
</g>
<!-- Node1&#45;&gt;Node9 -->
<g id="edge10_Node000001_Node000009" class="edge">
<title>Node1&#45;&gt;Node9</title>
<g id="a_edge10_Node000001_Node000009"><a xlink:title=" ">
<path fill="none" stroke="#63b8ff" d="M521.26,-109.75C527.97,-102.18 537.84,-91.05 546.01,-81.84"/>
<polygon fill="#63b8ff" stroke="#63b8ff" points="548.87,-83.89 552.88,-74.09 543.63,-79.25 548.87,-83.89"/>
</a>
</g>
</g>
<!-- Node10 -->
<g id="Node000010" class="node">
<title>Node10</title>
<g id="a_Node000010"><a xlink:title=" ">
<polygon fill="#e0e0e0" stroke="#999999" points="663.5,-74 599.5,-74 599.5,-55 663.5,-55 663.5,-74"/>
<text text-anchor="middle" x="631.5" y="-62" font-family="Helvetica,sans-Serif" font-size="10.00">QLockFile</text>
</a>
</g>
</g>
<!-- Node1&#45;&gt;Node10 -->
<g id="edge12_Node000001_Node000010" class="edge">
<title>Node1&#45;&gt;Node10</title>
<g id="a_edge12_Node000001_Node000010"><a xlink:title=" ">
<path fill="none" stroke="#63b8ff" d="M532.46,-109.98C551.53,-101.42 581.16,-88.11 603.05,-78.28"/>
<polygon fill="#63b8ff" stroke="#63b8ff" points="604.51,-81.46 612.2,-74.17 601.64,-75.07 604.51,-81.46"/>
</a>
</g>
</g>
<!-- Node11 -->
<g id="Node000011" class="node">
<title>Node11</title>
<g id="a_Node000011"><a xlink:title=" ">
<polygon fill="#e0e0e0" stroke="#999999" points="737,-74 682,-74 682,-55 737,-55 737,-74"/>
<text text-anchor="middle" x="709.5" y="-62" font-family="Helvetica,sans-Serif" font-size="10.00">QMutex</text>
</a>
</g>
</g>
<!-- Node1&#45;&gt;Node11 -->
<g id="edge13_Node000001_Node000011" class="edge">
<title>Node1&#45;&gt;Node11</title>
<g id="a_edge13_Node000001_Node000011"><a xlink:title=" ">
<path fill="none" stroke="#63b8ff" d="M544.99,-109.98C579.61,-100.62 635.2,-85.59 672.03,-75.63"/>
<polygon fill="#63b8ff" stroke="#63b8ff" points="673.15,-78.96 681.89,-72.97 671.32,-72.2 673.15,-78.96"/>
</a>
</g>
</g>
<!-- Node12 -->
<g id="Node000012" class="node">
<title>Node12</title>
<g id="a_Node000012"><a xlink:title=" ">
<polygon fill="#e0e0e0" stroke="#999999" points="849.5,-74 755.5,-74 755.5,-55 849.5,-55 849.5,-74"/>
<text text-anchor="middle" x="802.5" y="-62" font-family="Helvetica,sans-Serif" font-size="10.00">QStandardPaths</text>
</a>
</g>
</g>
<!-- Node1&#45;&gt;Node12 -->
<g id="edge14_Node000001_Node000012" class="edge">
<title>Node1&#45;&gt;Node12</title>
<g id="a_edge14_Node000001_Node000012"><a xlink:title=" ">
<path fill="none" stroke="#63b8ff" d="M553.08,-111.24C602.95,-102.1 689.01,-86.31 745.85,-75.89"/>
<polygon fill="#63b8ff" stroke="#63b8ff" points="746.55,-79.32 755.75,-74.07 745.29,-72.43 746.55,-79.32"/>
</a>
</g>
</g>
<!-- Node13 -->
<g id="Node000013" class="node">
<title>Node13</title>
<g id="a_Node000013"><a xlink:title=" ">
<polygon fill="#e0e0e0" stroke="#999999" points="951.5,-74 867.5,-74 867.5,-55 951.5,-55 951.5,-74"/>
<text text-anchor="middle" x="909.5" y="-62" font-family="Helvetica,sans-Serif" font-size="10.00">QStyleFactory</text>
</a>
</g>
</g>
<!-- Node1&#45;&gt;Node13 -->
<g id="edge15_Node000001_Node000013" class="edge">
<title>Node1&#45;&gt;Node13</title>
<g id="a_edge15_Node000001_Node000013"><a xlink:title=" ">
<path fill="none" stroke="#63b8ff" d="M553.15,-113.87C615.56,-106.47 740.77,-91.21 857.33,-74.13"/>
<polygon fill="#63b8ff" stroke="#63b8ff" points="858.11,-77.55 867.49,-72.63 857.09,-70.62 858.11,-77.55"/>
</a>
</g>
</g>
<!-- Node14 -->
<g id="Node000014" class="node">
<title>Node14</title>
<g id="a_Node000014"><a xlink:title=" ">
<polygon fill="#e0e0e0" stroke="#999999" points="1027.5,-74 969.5,-74 969.5,-55 1027.5,-55 1027.5,-74"/>
<text text-anchor="middle" x="998.5" y="-62" font-family="Helvetica,sans-Serif" font-size="10.00">memory</text>
</a>
</g>
</g>
<!-- Node1&#45;&gt;Node14 -->
<g id="edge16_Node000001_Node000014" class="edge">
<title>Node1&#45;&gt;Node14</title>
<g id="a_edge16_Node000001_Node000014"><a xlink:title=" ">
<path fill="none" stroke="#63b8ff" d="M553.17,-116.17C629.76,-111.31 803.45,-98.61 958.9,-74.08"/>
<polygon fill="#63b8ff" stroke="#63b8ff" points="959.79,-77.48 969.11,-72.44 958.68,-70.57 959.79,-77.48"/>
</a>
</g>
</g>
<!-- Node2&#45;&gt;Node3 -->
<g id="edge2_Node000002_Node000003" class="edge">
<title>Node2&#45;&gt;Node3</title>
<g id="a_edge2_Node000002_Node000003"><a xlink:title=" ">
<path fill="none" stroke="#63b8ff" d="M89.02,-54.98C80.3,-47.15 67.16,-35.34 56.6,-25.86"/>
<polygon fill="#63b8ff" stroke="#63b8ff" points="58.93,-23.25 49.15,-19.17 54.25,-28.46 58.93,-23.25"/>
</a>
</g>
</g>
<!-- Node2&#45;&gt;Node4 -->
<g id="edge3_Node000002_Node000004" class="edge">
<title>Node2&#45;&gt;Node4</title>
<g id="a_edge3_Node000002_Node000004"><a xlink:title=" ">
<path fill="none" stroke="#63b8ff" d="M102.13,-54.75C105.08,-47.65 109.33,-37.4 113.01,-28.56"/>
<polygon fill="#63b8ff" stroke="#63b8ff" points="116.33,-29.67 116.93,-19.09 109.87,-26.98 116.33,-29.67"/>
</a>
</g>
</g>
<!-- Node2&#45;&gt;Node5 -->
<g id="edge4_Node000002_Node000005" class="edge">
<title>Node2&#45;&gt;Node5</title>
<g id="a_edge4_Node000002_Node000005"><a xlink:title=" ">
<path fill="none" stroke="#63b8ff" d="M113.12,-54.98C127.36,-46.69 149.25,-33.94 165.95,-24.22"/>
<polygon fill="#63b8ff" stroke="#63b8ff" points="167.73,-27.23 174.61,-19.17 164.21,-21.18 167.73,-27.23"/>
</a>
</g>
</g>
<!-- Node8 -->
<g id="Node000008" class="node">
<title>Node8</title>
<g id="a_Node000008"><a xlink:title=" ">
<polygon fill="#e0e0e0" stroke="#999999" points="510,-19 423,-19 423,0 510,0 510,-19"/>
<text text-anchor="middle" x="466.5" y="-7" font-family="Helvetica,sans-Serif" font-size="10.00">QMainWindow</text>
</a>
</g>
</g>
<!-- Node7&#45;&gt;Node8 -->
<g id="edge7_Node000007_Node000008" class="edge">
<title>Node7&#45;&gt;Node8</title>
<g id="a_edge7_Node000007_Node000008"><a xlink:title=" ">
<path fill="none" stroke="#63b8ff" d="M466.5,-54.75C466.5,-47.8 466.5,-37.85 466.5,-29.13"/>
<polygon fill="#63b8ff" stroke="#63b8ff" points="470,-29.09 466.5,-19.09 463,-29.09 470,-29.09"/>
</a>
</g>
</g>
</g>
</svg>
