<?xml version="1.0" encoding="UTF-8" standalone="no"?>
<!DOCTYPE svg PUBLIC "-//W3C//DTD SVG 1.1//EN"
 "http://www.w3.org/Graphics/SVG/1.1/DTD/svg11.dtd">
<!-- Generated by graphviz version 2.43.0 (0)
 -->
<!-- Title: src/ui/mainmenu.cpp Pages: 1 -->
<svg width="1276pt" height="324pt"
 viewBox="0.00 0.00 1275.50 324.00" xmlns="http://www.w3.org/2000/svg" xmlns:xlink="http://www.w3.org/1999/xlink">
<g id="graph0" class="graph" transform="scale(1 1) rotate(0) translate(4 320)">
<title>src/ui/mainmenu.cpp</title>
<!-- Node1 -->
<g id="Node000001" class="node">
<title>Node1</title>
<g id="a_Node000001"><a xlink:title=" ">
<polygon fill="#999999" stroke="#666666" points="375,-316 256,-316 256,-297 375,-297 375,-316"/>
<text text-anchor="middle" x="315.5" y="-304" font-family="Helvetica,sans-Serif" font-size="10.00">src/ui/mainmenu.cpp</text>
</a>
</g>
</g>
<!-- Node2 -->
<g id="Node000002" class="node">
<title>Node2</title>
<g id="a_Node000002"><a xlink:href="mainmenu_8hpp.html" target="_top" xlink:title=" ">
<polygon fill="white" stroke="#666666" points="166.5,-261 76.5,-261 76.5,-242 166.5,-242 166.5,-261"/>
<text text-anchor="middle" x="121.5" y="-249" font-family="Helvetica,sans-Serif" font-size="10.00">mainmenu.hpp</text>
</a>
</g>
</g>
<!-- Node1&#45;&gt;Node2 -->
<g id="edge1_Node000001_Node000002" class="edge">
<title>Node1&#45;&gt;Node2</title>
<g id="a_edge1_Node000001_Node000002"><a xlink:title=" ">
<path fill="none" stroke="#63b8ff" d="M284.33,-296.98C251.34,-287.97 199.1,-273.7 162.73,-263.76"/>
<polygon fill="#63b8ff" stroke="#63b8ff" points="163.48,-260.34 152.91,-261.08 161.64,-267.09 163.48,-260.34"/>
</a>
</g>
</g>
<!-- Node3 -->
<g id="Node000003" class="node">
<title>Node3</title>
<g id="a_Node000003"><a xlink:title=" ">
<polygon fill="#e0e0e0" stroke="#999999" points="97,-200.5 0,-200.5 0,-181.5 97,-181.5 97,-200.5"/>
<text text-anchor="middle" x="48.5" y="-188.5" font-family="Helvetica,sans-Serif" font-size="10.00">QStackedWidget</text>
</a>
</g>
</g>
<!-- Node1&#45;&gt;Node3 -->
<g id="edge50_Node000001_Node000003" class="edge">
<title>Node1&#45;&gt;Node3</title>
<g id="a_edge50_Node000001_Node000003"><a xlink:title=" ">
<path fill="none" stroke="#63b8ff" d="M255.91,-302.01C191.5,-297.02 94.44,-285.59 67.5,-261 53.62,-248.33 49.51,-226.54 48.47,-210.83"/>
<polygon fill="#63b8ff" stroke="#63b8ff" points="51.96,-210.57 48.16,-200.69 44.96,-210.79 51.96,-210.57"/>
</a>
</g>
</g>
<!-- Node5 -->
<g id="Node000005" class="node">
<title>Node5</title>
<g id="a_Node000005"><a xlink:href="server_8hpp.html" target="_top" xlink:title=" ">
<polygon fill="white" stroke="#666666" points="1003.5,-261 869.5,-261 869.5,-242 1003.5,-242 1003.5,-261"/>
<text text-anchor="middle" x="936.5" y="-249" font-family="Helvetica,sans-Serif" font-size="10.00">../networking/server.hpp</text>
</a>
</g>
</g>
<!-- Node1&#45;&gt;Node5 -->
<g id="edge4_Node000001_Node000005" class="edge">
<title>Node1&#45;&gt;Node5</title>
<g id="a_edge4_Node000001_Node000005"><a xlink:title=" ">
<path fill="none" stroke="#63b8ff" d="M375.04,-300.42C487.99,-290.78 733.25,-269.85 858.89,-259.12"/>
<polygon fill="#63b8ff" stroke="#63b8ff" points="859.53,-262.58 869.2,-258.24 858.94,-255.61 859.53,-262.58"/>
</a>
</g>
</g>
<!-- Node11 -->
<g id="Node000011" class="node">
<title>Node11</title>
<g id="a_Node000011"><a xlink:href="about_8hpp.html" target="_top" xlink:title=" ">
<polygon fill="white" stroke="#666666" points="250,-261 185,-261 185,-242 250,-242 250,-261"/>
<text text-anchor="middle" x="217.5" y="-249" font-family="Helvetica,sans-Serif" font-size="10.00">about.hpp</text>
</a>
</g>
</g>
<!-- Node1&#45;&gt;Node11 -->
<g id="edge10_Node000001_Node000011" class="edge">
<title>Node1&#45;&gt;Node11</title>
<g id="a_edge10_Node000001_Node000011"><a xlink:title=" ">
<path fill="none" stroke="#63b8ff" d="M299.75,-296.98C284.27,-288.61 260.41,-275.7 242.36,-265.95"/>
<polygon fill="#63b8ff" stroke="#63b8ff" points="243.99,-262.85 233.53,-261.17 240.66,-269.01 243.99,-262.85"/>
</a>
</g>
</g>
<!-- Node12 -->
<g id="Node000012" class="node">
<title>Node12</title>
<g id="a_Node000012"><a xlink:href="preferences_8hpp.html" target="_top" xlink:title=" ">
<polygon fill="white" stroke="#666666" points="363,-261 268,-261 268,-242 363,-242 363,-261"/>
<text text-anchor="middle" x="315.5" y="-249" font-family="Helvetica,sans-Serif" font-size="10.00">preferences.hpp</text>
</a>
</g>
</g>
<!-- Node1&#45;&gt;Node12 -->
<g id="edge13_Node000001_Node000012" class="edge">
<title>Node1&#45;&gt;Node12</title>
<g id="a_edge13_Node000001_Node000012"><a xlink:title=" ">
<path fill="none" stroke="#63b8ff" d="M315.5,-296.75C315.5,-289.8 315.5,-279.85 315.5,-271.13"/>
<polygon fill="#63b8ff" stroke="#63b8ff" points="319,-271.09 315.5,-261.09 312,-271.09 319,-271.09"/>
</a>
</g>
</g>
<!-- Node34 -->
<g id="Node000034" class="node">
<title>Node34</title>
<g id="a_Node000034"><a xlink:title=" ">
<polygon fill="#e0e0e0" stroke="#999999" points="1113.5,-261 1021.5,-261 1021.5,-242 1113.5,-242 1113.5,-261"/>
<text text-anchor="middle" x="1067.5" y="-249" font-family="Helvetica,sans-Serif" font-size="10.00">ui_mainmenu.h</text>
</a>
</g>
</g>
<!-- Node1&#45;&gt;Node34 -->
<g id="edge48_Node000001_Node000034" class="edge">
<title>Node1&#45;&gt;Node34</title>
<g id="a_edge48_Node000001_Node000034"><a xlink:title=" ">
<path fill="none" stroke="#63b8ff" d="M375.33,-303.49C494.42,-299.09 769.78,-286.95 1011.3,-261.03"/>
<polygon fill="#63b8ff" stroke="#63b8ff" points="1011.76,-264.5 1021.33,-259.94 1011.01,-257.54 1011.76,-264.5"/>
</a>
</g>
</g>
<!-- Node35 -->
<g id="Node000035" class="node">
<title>Node35</title>
<g id="a_Node000035"><a xlink:title=" ">
<polygon fill="#e0e0e0" stroke="#999999" points="1211.5,-261 1131.5,-261 1131.5,-242 1211.5,-242 1211.5,-261"/>
<text text-anchor="middle" x="1171.5" y="-249" font-family="Helvetica,sans-Serif" font-size="10.00">QPushButton</text>
</a>
</g>
</g>
<!-- Node1&#45;&gt;Node35 -->
<g id="edge49_Node000001_Node000035" class="edge">
<title>Node1&#45;&gt;Node35</title>
<g id="a_edge49_Node000001_Node000035"><a xlink:title=" ">
<path fill="none" stroke="#63b8ff" d="M375.18,-304.59C507.65,-302.05 836.37,-292.92 1121.33,-260.99"/>
<polygon fill="#63b8ff" stroke="#63b8ff" points="1121.9,-264.44 1131.44,-259.84 1121.11,-257.49 1121.9,-264.44"/>
</a>
</g>
</g>
<!-- Node2&#45;&gt;Node3 -->
<g id="edge2_Node000002_Node000003" class="edge">
<title>Node2&#45;&gt;Node3</title>
<g id="a_edge2_Node000002_Node000003"><a xlink:title=" ">
<path fill="none" stroke="#63b8ff" d="M110.73,-241.87C99.3,-232.71 81.02,-218.06 67.22,-207.01"/>
<polygon fill="#63b8ff" stroke="#63b8ff" points="69.31,-204.19 59.32,-200.67 64.93,-209.65 69.31,-204.19"/>
</a>
</g>
</g>
<!-- Node4 -->
<g id="Node000004" class="node">
<title>Node4</title>
<g id="a_Node000004"><a xlink:title=" ">
<polygon fill="#e0e0e0" stroke="#999999" points="174,-200.5 115,-200.5 115,-181.5 174,-181.5 174,-200.5"/>
<text text-anchor="middle" x="144.5" y="-188.5" font-family="Helvetica,sans-Serif" font-size="10.00">QWidget</text>
</a>
</g>
</g>
<!-- Node2&#45;&gt;Node4 -->
<g id="edge3_Node000002_Node000004" class="edge">
<title>Node2&#45;&gt;Node4</title>
<g id="a_edge3_Node000002_Node000004"><a xlink:title=" ">
<path fill="none" stroke="#63b8ff" d="M124.89,-241.87C128.16,-233.57 133.19,-220.78 137.34,-210.22"/>
<polygon fill="#63b8ff" stroke="#63b8ff" points="140.69,-211.25 141.09,-200.67 134.18,-208.69 140.69,-211.25"/>
</a>
</g>
</g>
<!-- Node6 -->
<g id="Node000006" class="node">
<title>Node6</title>
<g id="a_Node000006"><a xlink:title=" ">
<polygon fill="#e0e0e0" stroke="#999999" points="1013,-200.5 940,-200.5 940,-181.5 1013,-181.5 1013,-200.5"/>
<text text-anchor="middle" x="976.5" y="-188.5" font-family="Helvetica,sans-Serif" font-size="10.00">QByteArray</text>
</a>
</g>
</g>
<!-- Node5&#45;&gt;Node6 -->
<g id="edge5_Node000005_Node000006" class="edge">
<title>Node5&#45;&gt;Node6</title>
<g id="a_edge5_Node000005_Node000006"><a xlink:title=" ">
<path fill="none" stroke="#63b8ff" d="M942.4,-241.87C948.25,-233.31 957.37,-219.97 964.71,-209.24"/>
<polygon fill="#63b8ff" stroke="#63b8ff" points="967.82,-210.9 970.57,-200.67 962.04,-206.95 967.82,-210.9"/>
</a>
</g>
</g>
<!-- Node7 -->
<g id="Node000007" class="node">
<title>Node7</title>
<g id="a_Node000007"><a xlink:title=" ">
<polygon fill="#e0e0e0" stroke="#999999" points="1087.5,-200.5 1031.5,-200.5 1031.5,-181.5 1087.5,-181.5 1087.5,-200.5"/>
<text text-anchor="middle" x="1059.5" y="-188.5" font-family="Helvetica,sans-Serif" font-size="10.00">QDialog</text>
</a>
</g>
</g>
<!-- Node5&#45;&gt;Node7 -->
<g id="edge6_Node000005_Node000007" class="edge">
<title>Node5&#45;&gt;Node7</title>
<g id="a_edge6_Node000005_Node000007"><a xlink:title=" ">
<path fill="none" stroke="#63b8ff" d="M954.39,-241.99C974.88,-232.25 1008.69,-216.16 1032.42,-204.88"/>
<polygon fill="#63b8ff" stroke="#63b8ff" points="1034.07,-207.97 1041.59,-200.52 1031.06,-201.65 1034.07,-207.97"/>
</a>
</g>
</g>
<!-- Node8 -->
<g id="Node000008" class="node">
<title>Node8</title>
<g id="a_Node000008"><a xlink:title=" ">
<polygon fill="#e0e0e0" stroke="#999999" points="1177,-200.5 1106,-200.5 1106,-181.5 1177,-181.5 1177,-200.5"/>
<text text-anchor="middle" x="1141.5" y="-188.5" font-family="Helvetica,sans-Serif" font-size="10.00">QTcpServer</text>
</a>
</g>
</g>
<!-- Node5&#45;&gt;Node8 -->
<g id="edge7_Node000005_Node000008" class="edge">
<title>Node5&#45;&gt;Node8</title>
<g id="a_edge7_Node000005_Node000008"><a xlink:title=" ">
<path fill="none" stroke="#63b8ff" d="M968.46,-241.92C1000.81,-233.16 1052.25,-219.03 1096.5,-206 1099.13,-205.22 1101.85,-204.41 1104.58,-203.59"/>
<polygon fill="#63b8ff" stroke="#63b8ff" points="1105.88,-206.85 1114.41,-200.57 1103.83,-200.16 1105.88,-206.85"/>
</a>
</g>
</g>
<!-- Node9 -->
<g id="Node000009" class="node">
<title>Node9</title>
<g id="a_Node000009"><a xlink:title=" ">
<polygon fill="#e0e0e0" stroke="#999999" points="1267.5,-200.5 1195.5,-200.5 1195.5,-181.5 1267.5,-181.5 1267.5,-200.5"/>
<text text-anchor="middle" x="1231.5" y="-188.5" font-family="Helvetica,sans-Serif" font-size="10.00">QTcpSocket</text>
</a>
</g>
</g>
<!-- Node5&#45;&gt;Node9 -->
<g id="edge8_Node000005_Node000009" class="edge">
<title>Node5&#45;&gt;Node9</title>
<g id="a_edge8_Node000005_Node000009"><a xlink:title=" ">
<path fill="none" stroke="#63b8ff" d="M996.54,-241.98C1047.46,-234.24 1122.25,-221.65 1186.5,-206 1189.68,-205.23 1192.96,-204.35 1196.24,-203.43"/>
<polygon fill="#63b8ff" stroke="#63b8ff" points="1197.36,-206.75 1205.95,-200.56 1195.37,-200.04 1197.36,-206.75"/>
</a>
</g>
</g>
<!-- Node10 -->
<g id="Node000010" class="node">
<title>Node10</title>
<g id="a_Node000010"><a xlink:title=" ">
<polygon fill="#e0e0e0" stroke="#999999" points="922,-200.5 873,-200.5 873,-181.5 922,-181.5 922,-200.5"/>
<text text-anchor="middle" x="897.5" y="-188.5" font-family="Helvetica,sans-Serif" font-size="10.00">QTime</text>
</a>
</g>
</g>
<!-- Node5&#45;&gt;Node10 -->
<g id="edge9_Node000005_Node000010" class="edge">
<title>Node5&#45;&gt;Node10</title>
<g id="a_edge9_Node000005_Node000010"><a xlink:title=" ">
<path fill="none" stroke="#63b8ff" d="M930.75,-241.87C925.04,-233.31 916.15,-219.97 908.99,-209.24"/>
<polygon fill="#63b8ff" stroke="#63b8ff" points="911.74,-207.05 903.28,-200.67 905.91,-210.93 911.74,-207.05"/>
</a>
</g>
</g>
<!-- Node11&#45;&gt;Node3 -->
<g id="edge11_Node000011_Node000003" class="edge">
<title>Node11&#45;&gt;Node3</title>
<g id="a_edge11_Node000011_Node000003"><a xlink:title=" ">
<path fill="none" stroke="#63b8ff" d="M192.93,-241.99C163.89,-231.94 115.4,-215.16 82.7,-203.84"/>
<polygon fill="#63b8ff" stroke="#63b8ff" points="83.7,-200.48 73.1,-200.52 81.41,-207.1 83.7,-200.48"/>
</a>
</g>
</g>
<!-- Node11&#45;&gt;Node4 -->
<g id="edge12_Node000011_Node000004" class="edge">
<title>Node11&#45;&gt;Node4</title>
<g id="a_edge12_Node000011_Node000004"><a xlink:title=" ">
<path fill="none" stroke="#63b8ff" d="M206.73,-241.87C195.3,-232.71 177.02,-218.06 163.22,-207.01"/>
<polygon fill="#63b8ff" stroke="#63b8ff" points="165.31,-204.19 155.32,-200.67 160.93,-209.65 165.31,-204.19"/>
</a>
</g>
</g>
<!-- Node12&#45;&gt;Node4 -->
<g id="edge46_Node000012_Node000004" class="edge">
<title>Node12&#45;&gt;Node4</title>
<g id="a_edge46_Node000012_Node000004"><a xlink:title=" ">
<path fill="none" stroke="#63b8ff" d="M290.64,-241.99C261.25,-231.94 212.19,-215.16 179.11,-203.84"/>
<polygon fill="#63b8ff" stroke="#63b8ff" points="179.99,-200.44 169.39,-200.52 177.72,-207.07 179.99,-200.44"/>
</a>
</g>
</g>
<!-- Node13 -->
<g id="Node000013" class="node">
<title>Node13</title>
<g id="a_Node000013"><a xlink:href="input__types_8hpp.html" target="_top" xlink:title=" ">
<polygon fill="white" stroke="#666666" points="1002.5,-85 856.5,-85 856.5,-66 1002.5,-66 1002.5,-85"/>
<text text-anchor="middle" x="929.5" y="-73" font-family="Helvetica,sans-Serif" font-size="10.00">../settings/input_types.hpp</text>
</a>
</g>
</g>
<!-- Node12&#45;&gt;Node13 -->
<g id="edge14_Node000012_Node000013" class="edge">
<title>Node12&#45;&gt;Node13</title>
<g id="a_edge14_Node000012_Node000013"><a xlink:title=" ">
<path fill="none" stroke="#63b8ff" d="M363.44,-247.66C488.9,-239.29 822.71,-210.73 903.5,-140 916.51,-128.61 923.13,-109.71 926.42,-95.49"/>
<polygon fill="#63b8ff" stroke="#63b8ff" points="929.92,-95.8 928.4,-85.32 923.05,-94.46 929.92,-95.8"/>
</a>
</g>
</g>
<!-- Node15 -->
<g id="Node000015" class="node">
<title>Node15</title>
<g id="a_Node000015"><a xlink:title=" ">
<polygon fill="#e0e0e0" stroke="#999999" points="448,-24.5 371,-24.5 371,-5.5 448,-5.5 448,-24.5"/>
<text text-anchor="middle" x="409.5" y="-12.5" font-family="Helvetica,sans-Serif" font-size="10.00">minwindef.h</text>
</a>
</g>
</g>
<!-- Node12&#45;&gt;Node15 -->
<g id="edge47_Node000012_Node000015" class="edge">
<title>Node12&#45;&gt;Node15</title>
<g id="a_edge47_Node000012_Node000015"><a xlink:title=" ">
<path fill="none" stroke="#63b8ff" d="M299.97,-241.96C283.97,-233.12 258.36,-218.83 236.5,-206 212.24,-191.76 149.5,-158.71 128.5,-140 100.1,-114.69 60.74,-94.88 85.5,-66 120.36,-25.34 279.08,-17.44 360.7,-16.11"/>
<polygon fill="#63b8ff" stroke="#63b8ff" points="360.78,-19.61 370.73,-15.97 360.68,-12.61 360.78,-19.61"/>
</a>
</g>
</g>
<!-- Node17 -->
<g id="Node000017" class="node">
<title>Node17</title>
<g id="a_Node000017"><a xlink:href="settings__singleton_8hpp.html" target="_top" xlink:title=" ">
<polygon fill="white" stroke="#666666" points="643,-206 536,-206 536,-176 643,-176 643,-206"/>
<text text-anchor="start" x="544" y="-194" font-family="Helvetica,sans-Serif" font-size="10.00">../settings/settings</text>
<text text-anchor="middle" x="589.5" y="-183" font-family="Helvetica,sans-Serif" font-size="10.00">_singleton.hpp</text>
</a>
</g>
</g>
<!-- Node12&#45;&gt;Node17 -->
<g id="edge18_Node000012_Node000017" class="edge">
<title>Node12&#45;&gt;Node17</title>
<g id="a_edge18_Node000012_Node000017"><a xlink:title=" ">
<path fill="none" stroke="#63b8ff" d="M355.34,-241.99C400.1,-232.44 473.37,-216.79 526.03,-205.55"/>
<polygon fill="#63b8ff" stroke="#63b8ff" points="526.9,-208.95 535.94,-203.43 525.43,-202.1 526.9,-208.95"/>
</a>
</g>
</g>
<!-- Node22 -->
<g id="Node000022" class="node">
<title>Node22</title>
<g id="a_Node000022"><a xlink:title=" ">
<polygon fill="#e0e0e0" stroke="#999999" points="584,-85 531,-85 531,-66 584,-66 584,-85"/>
<text text-anchor="middle" x="557.5" y="-73" font-family="Helvetica,sans-Serif" font-size="10.00">QString</text>
</a>
</g>
</g>
<!-- Node12&#45;&gt;Node22 -->
<g id="edge45_Node000012_Node000022" class="edge">
<title>Node12&#45;&gt;Node22</title>
<g id="a_edge45_Node000012_Node000022"><a xlink:title=" ">
<path fill="none" stroke="#63b8ff" d="M316.15,-241.68C318.38,-218.18 327.82,-153.69 365.5,-121 416.94,-76.38 449.34,-99.01 520.89,-84.95"/>
<polygon fill="#63b8ff" stroke="#63b8ff" points="521.73,-88.35 530.77,-82.83 520.25,-81.51 521.73,-88.35"/>
</a>
</g>
</g>
<!-- Node29 -->
<g id="Node000029" class="node">
<title>Node29</title>
<g id="a_Node000029"><a xlink:href="buttoninputbox_8hpp.html" target="_top" xlink:title=" ">
<polygon fill="white" stroke="#666666" points="249.5,-140 137.5,-140 137.5,-121 249.5,-121 249.5,-140"/>
<text text-anchor="middle" x="193.5" y="-128" font-family="Helvetica,sans-Serif" font-size="10.00">buttoninputbox.hpp</text>
</a>
</g>
</g>
<!-- Node12&#45;&gt;Node29 -->
<g id="edge38_Node000012_Node000029" class="edge">
<title>Node12&#45;&gt;Node29</title>
<g id="a_edge38_Node000012_Node000029"><a xlink:title=" ">
<path fill="none" stroke="#63b8ff" d="M306.73,-241.94C286.43,-222.14 235.96,-172.91 209.8,-147.4"/>
<polygon fill="#63b8ff" stroke="#63b8ff" points="212.13,-144.78 202.52,-140.3 207.24,-149.79 212.13,-144.78"/>
</a>
</g>
</g>
<!-- Node14 -->
<g id="Node000014" class="node">
<title>Node14</title>
<g id="a_Node000014"><a xlink:href="GameButtons_8h.html" target="_top" xlink:title=" ">
<polygon fill="white" stroke="#666666" points="1098.5,-30 962.5,-30 962.5,0 1098.5,0 1098.5,-30"/>
<text text-anchor="start" x="970.5" y="-18" font-family="Helvetica,sans-Serif" font-size="10.00">../../VGP_Data_Exchange</text>
<text text-anchor="middle" x="1030.5" y="-7" font-family="Helvetica,sans-Serif" font-size="10.00">/C/GameButtons.h</text>
</a>
</g>
</g>
<!-- Node13&#45;&gt;Node14 -->
<g id="edge15_Node000013_Node000014" class="edge">
<title>Node13&#45;&gt;Node14</title>
<g id="a_edge15_Node000013_Node000014"><a xlink:title=" ">
<path fill="none" stroke="#63b8ff" d="M944.4,-65.87C958.23,-57.86 979.31,-45.65 997.15,-35.31"/>
<polygon fill="#63b8ff" stroke="#63b8ff" points="999.23,-38.16 1006.13,-30.11 995.72,-32.1 999.23,-38.16"/>
</a>
</g>
</g>
<!-- Node13&#45;&gt;Node15 -->
<g id="edge16_Node000013_Node000015" class="edge">
<title>Node13&#45;&gt;Node15</title>
<g id="a_edge16_Node000013_Node000015"><a xlink:title=" ">
<path fill="none" stroke="#63b8ff" d="M856.37,-66.27C748.63,-54.15 550.11,-31.82 458.35,-21.5"/>
<polygon fill="#63b8ff" stroke="#63b8ff" points="458.56,-18 448.23,-20.36 457.78,-24.95 458.56,-18"/>
</a>
</g>
</g>
<!-- Node16 -->
<g id="Node000016" class="node">
<title>Node16</title>
<g id="a_Node000016"><a xlink:title=" ">
<polygon fill="#e0e0e0" stroke="#999999" points="944,-24.5 885,-24.5 885,-5.5 944,-5.5 944,-24.5"/>
<text text-anchor="middle" x="914.5" y="-12.5" font-family="Helvetica,sans-Serif" font-size="10.00">qtypes.h</text>
</a>
</g>
</g>
<!-- Node13&#45;&gt;Node16 -->
<g id="edge17_Node000013_Node000016" class="edge">
<title>Node13&#45;&gt;Node16</title>
<g id="a_edge17_Node000013_Node000016"><a xlink:title=" ">
<path fill="none" stroke="#63b8ff" d="M927.29,-65.87C925.18,-57.66 921.95,-45.04 919.26,-34.55"/>
<polygon fill="#63b8ff" stroke="#63b8ff" points="922.6,-33.48 916.72,-24.67 915.82,-35.22 922.6,-33.48"/>
</a>
</g>
</g>
<!-- Node17&#45;&gt;Node13 -->
<g id="edge20_Node000017_Node000013" class="edge">
<title>Node17&#45;&gt;Node13</title>
<g id="a_edge20_Node000017_Node000013"><a xlink:title=" ">
<path fill="none" stroke="#63b8ff" d="M643.07,-185.28C715.34,-178.16 839.52,-162.98 878.5,-140 896.91,-129.15 911.36,-108.98 920.1,-94.28"/>
<polygon fill="#63b8ff" stroke="#63b8ff" points="923.38,-95.58 925.23,-85.15 917.28,-92.16 923.38,-95.58"/>
</a>
</g>
</g>
<!-- Node17&#45;&gt;Node14 -->
<g id="edge19_Node000017_Node000014" class="edge">
<title>Node17&#45;&gt;Node14</title>
<g id="a_edge19_Node000017_Node000014"><a xlink:title=" ">
<path fill="none" stroke="#63b8ff" d="M643.19,-186.58C706.68,-181.37 814.92,-168.81 903.5,-140 954.72,-123.34 977.45,-126.74 1011.5,-85 1021.76,-72.42 1026.5,-54.7 1028.68,-40.37"/>
<polygon fill="#63b8ff" stroke="#63b8ff" points="1032.18,-40.56 1029.89,-30.21 1025.23,-39.72 1032.18,-40.56"/>
</a>
</g>
</g>
<!-- Node18 -->
<g id="Node000018" class="node">
<title>Node18</title>
<g id="a_Node000018"><a xlink:href="keymap__profile_8hpp.html" target="_top" xlink:title=" ">
<polygon fill="white" stroke="#666666" points="837,-140 724,-140 724,-121 837,-121 837,-140"/>
<text text-anchor="middle" x="780.5" y="-128" font-family="Helvetica,sans-Serif" font-size="10.00">keymap_profile.hpp</text>
</a>
</g>
</g>
<!-- Node17&#45;&gt;Node18 -->
<g id="edge21_Node000017_Node000018" class="edge">
<title>Node17&#45;&gt;Node18</title>
<g id="a_edge21_Node000017_Node000018"><a xlink:title=" ">
<path fill="none" stroke="#63b8ff" d="M635.25,-175.99C668.07,-165.94 711.77,-152.55 742.63,-143.1"/>
<polygon fill="#63b8ff" stroke="#63b8ff" points="744.04,-146.33 752.57,-140.05 741.99,-139.64 744.04,-146.33"/>
</a>
</g>
</g>
<!-- Node20 -->
<g id="Node000020" class="node">
<title>Node20</title>
<g id="a_Node000020"><a xlink:title=" ">
<polygon fill="#e0e0e0" stroke="#999999" points="756.5,-85 700.5,-85 700.5,-66 756.5,-66 756.5,-85"/>
<text text-anchor="middle" x="728.5" y="-73" font-family="Helvetica,sans-Serif" font-size="10.00">QObject</text>
</a>
</g>
</g>
<!-- Node17&#45;&gt;Node20 -->
<g id="edge32_Node000017_Node000020" class="edge">
<title>Node17&#45;&gt;Node20</title>
<g id="a_edge32_Node000017_Node000020"><a xlink:title=" ">
<path fill="none" stroke="#63b8ff" d="M643.18,-187.3C710.56,-182.65 820.38,-170.5 845.5,-140 850.87,-133.48 850.29,-127.95 845.5,-121 836.16,-107.46 796.95,-94.37 766.47,-85.94"/>
<polygon fill="#63b8ff" stroke="#63b8ff" points="767.09,-82.48 756.52,-83.26 765.27,-89.24 767.09,-82.48"/>
</a>
</g>
</g>
<!-- Node21 -->
<g id="Node000021" class="node">
<title>Node21</title>
<g id="a_Node000021"><a xlink:title=" ">
<polygon fill="#e0e0e0" stroke="#999999" points="838.5,-85 774.5,-85 774.5,-66 838.5,-66 838.5,-85"/>
<text text-anchor="middle" x="806.5" y="-73" font-family="Helvetica,sans-Serif" font-size="10.00">QSettings</text>
</a>
</g>
</g>
<!-- Node17&#45;&gt;Node21 -->
<g id="edge33_Node000017_Node000021" class="edge">
<title>Node17&#45;&gt;Node21</title>
<g id="a_edge33_Node000017_Node000021"><a xlink:title=" ">
<path fill="none" stroke="#63b8ff" d="M643.15,-188C714.35,-184.09 834.27,-172.7 861.5,-140 875.97,-122.62 852.74,-103 832.16,-90.23"/>
<polygon fill="#63b8ff" stroke="#63b8ff" points="833.73,-87.09 823.33,-85.04 830.18,-93.12 833.73,-87.09"/>
</a>
</g>
</g>
<!-- Node17&#45;&gt;Node22 -->
<g id="edge34_Node000017_Node000022" class="edge">
<title>Node17&#45;&gt;Node22</title>
<g id="a_edge34_Node000017_Node000022"><a xlink:title=" ">
<path fill="none" stroke="#63b8ff" d="M535.82,-185.17C478.31,-178.76 392.54,-165.18 372.5,-140 367.24,-133.39 367.27,-127.63 372.5,-121 373.08,-120.26 467.08,-97.9 520.85,-85.17"/>
<polygon fill="#63b8ff" stroke="#63b8ff" points="521.78,-88.54 530.71,-82.83 520.17,-81.73 521.78,-88.54"/>
</a>
</g>
</g>
<!-- Node23 -->
<g id="Node000023" class="node">
<title>Node23</title>
<g id="a_Node000023"><a xlink:title=" ">
<polygon fill="#e0e0e0" stroke="#999999" points="512.5,-85 474.5,-85 474.5,-66 512.5,-66 512.5,-85"/>
<text text-anchor="middle" x="493.5" y="-73" font-family="Helvetica,sans-Serif" font-size="10.00">map</text>
</a>
</g>
</g>
<!-- Node17&#45;&gt;Node23 -->
<g id="edge36_Node000017_Node000023" class="edge">
<title>Node17&#45;&gt;Node23</title>
<g id="a_edge36_Node000017_Node000023"><a xlink:title=" ">
<path fill="none" stroke="#63b8ff" d="M535.98,-185.62C476.63,-179.53 386.46,-166.16 365.5,-140 360.22,-133.41 360.61,-127.88 365.5,-121 368.5,-116.78 427.85,-97.34 464.66,-85.59"/>
<polygon fill="#63b8ff" stroke="#63b8ff" points="465.92,-88.87 474.39,-82.5 463.8,-82.2 465.92,-88.87"/>
</a>
</g>
</g>
<!-- Node24 -->
<g id="Node000024" class="node">
<title>Node24</title>
<g id="a_Node000024"><a xlink:title=" ">
<polygon fill="#e0e0e0" stroke="#999999" points="419.5,-140 381.5,-140 381.5,-121 419.5,-121 419.5,-140"/>
<text text-anchor="middle" x="400.5" y="-128" font-family="Helvetica,sans-Serif" font-size="10.00">QDir</text>
</a>
</g>
</g>
<!-- Node17&#45;&gt;Node24 -->
<g id="edge29_Node000017_Node000024" class="edge">
<title>Node17&#45;&gt;Node24</title>
<g id="a_edge29_Node000017_Node000024"><a xlink:title=" ">
<path fill="none" stroke="#63b8ff" d="M544.23,-175.99C508.52,-164.93 459.79,-149.85 429.24,-140.4"/>
<polygon fill="#63b8ff" stroke="#63b8ff" points="430.21,-137.03 419.62,-137.42 428.14,-143.72 430.21,-137.03"/>
</a>
</g>
</g>
<!-- Node25 -->
<g id="Node000025" class="node">
<title>Node25</title>
<g id="a_Node000025"><a xlink:title=" ">
<polygon fill="#e0e0e0" stroke="#999999" points="479,-140 438,-140 438,-121 479,-121 479,-140"/>
<text text-anchor="middle" x="458.5" y="-128" font-family="Helvetica,sans-Serif" font-size="10.00">QList</text>
</a>
</g>
</g>
<!-- Node17&#45;&gt;Node25 -->
<g id="edge30_Node000017_Node000025" class="edge">
<title>Node17&#45;&gt;Node25</title>
<g id="a_edge30_Node000017_Node000025"><a xlink:title=" ">
<path fill="none" stroke="#63b8ff" d="M558.12,-175.99C536.56,-166.36 508.15,-153.67 487.19,-144.31"/>
<polygon fill="#63b8ff" stroke="#63b8ff" points="488.4,-141.02 477.85,-140.14 485.55,-147.41 488.4,-141.02"/>
</a>
</g>
</g>
<!-- Node26 -->
<g id="Node000026" class="node">
<title>Node26</title>
<g id="a_Node000026"><a xlink:title=" ">
<polygon fill="#e0e0e0" stroke="#999999" points="542,-140 497,-140 497,-121 542,-121 542,-140"/>
<text text-anchor="middle" x="519.5" y="-128" font-family="Helvetica,sans-Serif" font-size="10.00">QMap</text>
</a>
</g>
</g>
<!-- Node17&#45;&gt;Node26 -->
<g id="edge31_Node000017_Node000026" class="edge">
<title>Node17&#45;&gt;Node26</title>
<g id="a_edge31_Node000017_Node000026"><a xlink:title=" ">
<path fill="none" stroke="#63b8ff" d="M572.55,-175.84C562.08,-167.09 548.64,-155.85 537.91,-146.88"/>
<polygon fill="#63b8ff" stroke="#63b8ff" points="539.91,-143.99 529.99,-140.27 535.42,-149.36 539.91,-143.99"/>
</a>
</g>
</g>
<!-- Node27 -->
<g id="Node000027" class="node">
<title>Node27</title>
<g id="a_Node000027"><a xlink:title=" ">
<polygon fill="#e0e0e0" stroke="#999999" points="619,-140 560,-140 560,-121 619,-121 619,-140"/>
<text text-anchor="middle" x="589.5" y="-128" font-family="Helvetica,sans-Serif" font-size="10.00">QVariant</text>
</a>
</g>
</g>
<!-- Node17&#45;&gt;Node27 -->
<g id="edge35_Node000017_Node000027" class="edge">
<title>Node17&#45;&gt;Node27</title>
<g id="a_edge35_Node000017_Node000027"><a xlink:title=" ">
<path fill="none" stroke="#63b8ff" d="M589.5,-175.84C589.5,-168.21 589.5,-158.7 589.5,-150.45"/>
<polygon fill="#63b8ff" stroke="#63b8ff" points="593,-150.27 589.5,-140.27 586,-150.27 593,-150.27"/>
</a>
</g>
</g>
<!-- Node28 -->
<g id="Node000028" class="node">
<title>Node28</title>
<g id="a_Node000028"><a xlink:title=" ">
<polygon fill="#e0e0e0" stroke="#999999" points="705.5,-140 637.5,-140 637.5,-121 705.5,-121 705.5,-140"/>
<text text-anchor="middle" x="671.5" y="-128" font-family="Helvetica,sans-Serif" font-size="10.00">windows.h</text>
</a>
</g>
</g>
<!-- Node17&#45;&gt;Node28 -->
<g id="edge37_Node000017_Node000028" class="edge">
<title>Node17&#45;&gt;Node28</title>
<g id="a_edge37_Node000017_Node000028"><a xlink:title=" ">
<path fill="none" stroke="#63b8ff" d="M609.35,-175.84C621.98,-166.83 638.3,-155.18 651.05,-146.09"/>
<polygon fill="#63b8ff" stroke="#63b8ff" points="653.1,-148.92 659.21,-140.27 649.04,-143.22 653.1,-148.92"/>
</a>
</g>
</g>
<!-- Node18&#45;&gt;Node13 -->
<g id="edge22_Node000018_Node000013" class="edge">
<title>Node18&#45;&gt;Node13</title>
<g id="a_edge22_Node000018_Node000013"><a xlink:title=" ">
<path fill="none" stroke="#63b8ff" d="M804.44,-120.98C829.06,-112.23 867.62,-98.51 895.42,-88.62"/>
<polygon fill="#63b8ff" stroke="#63b8ff" points="896.88,-91.82 905.12,-85.17 894.53,-85.22 896.88,-91.82"/>
</a>
</g>
</g>
<!-- Node18&#45;&gt;Node15 -->
<g id="edge28_Node000018_Node000015" class="edge">
<title>Node18&#45;&gt;Node15</title>
<g id="a_edge28_Node000018_Node000015"><a xlink:title=" ">
<path fill="none" stroke="#63b8ff" d="M746.24,-120.97C715.69,-112.97 669.98,-100.01 631.5,-85 613.54,-78 610.54,-72.79 592.5,-66 547.98,-49.24 495.45,-35.48 458.12,-26.67"/>
<polygon fill="#63b8ff" stroke="#63b8ff" points="458.54,-23.17 448.01,-24.31 456.96,-29.99 458.54,-23.17"/>
</a>
</g>
</g>
<!-- Node19 -->
<g id="Node000019" class="node">
<title>Node19</title>
<g id="a_Node000019"><a xlink:title=" ">
<polygon fill="#e0e0e0" stroke="#999999" points="682,-85 641,-85 641,-66 682,-66 682,-85"/>
<text text-anchor="middle" x="661.5" y="-73" font-family="Helvetica,sans-Serif" font-size="10.00">QFile</text>
</a>
</g>
</g>
<!-- Node18&#45;&gt;Node19 -->
<g id="edge23_Node000018_Node000019" class="edge">
<title>Node18&#45;&gt;Node19</title>
<g id="a_edge23_Node000018_Node000019"><a xlink:title=" ">
<path fill="none" stroke="#63b8ff" d="M761.38,-120.98C742.15,-112.42 712.27,-99.11 690.19,-89.28"/>
<polygon fill="#63b8ff" stroke="#63b8ff" points="691.53,-86.04 680.97,-85.17 688.68,-92.44 691.53,-86.04"/>
</a>
</g>
</g>
<!-- Node18&#45;&gt;Node20 -->
<g id="edge24_Node000018_Node000020" class="edge">
<title>Node18&#45;&gt;Node20</title>
<g id="a_edge24_Node000018_Node000020"><a xlink:title=" ">
<path fill="none" stroke="#63b8ff" d="M771.91,-120.75C764.34,-113.03 753.12,-101.6 743.99,-92.28"/>
<polygon fill="#63b8ff" stroke="#63b8ff" points="746.43,-89.78 736.93,-85.09 741.43,-94.68 746.43,-89.78"/>
</a>
</g>
</g>
<!-- Node18&#45;&gt;Node21 -->
<g id="edge25_Node000018_Node000021" class="edge">
<title>Node18&#45;&gt;Node21</title>
<g id="a_edge25_Node000018_Node000021"><a xlink:title=" ">
<path fill="none" stroke="#63b8ff" d="M784.79,-120.75C788.31,-113.57 793.41,-103.18 797.78,-94.27"/>
<polygon fill="#63b8ff" stroke="#63b8ff" points="801.02,-95.61 802.29,-85.09 794.74,-92.53 801.02,-95.61"/>
</a>
</g>
</g>
<!-- Node18&#45;&gt;Node22 -->
<g id="edge26_Node000018_Node000022" class="edge">
<title>Node18&#45;&gt;Node22</title>
<g id="a_edge26_Node000018_Node000022"><a xlink:title=" ">
<path fill="none" stroke="#63b8ff" d="M744.67,-120.98C703.27,-111.14 635.51,-95.04 593.88,-85.15"/>
<polygon fill="#63b8ff" stroke="#63b8ff" points="594.68,-81.74 584.14,-82.83 593.06,-88.55 594.68,-81.74"/>
</a>
</g>
</g>
<!-- Node18&#45;&gt;Node23 -->
<g id="edge27_Node000018_Node000023" class="edge">
<title>Node18&#45;&gt;Node23</title>
<g id="a_edge27_Node000018_Node000023"><a xlink:title=" ">
<path fill="none" stroke="#63b8ff" d="M723.76,-121.83C673.27,-114.54 597.3,-102.41 522.73,-85.04"/>
<polygon fill="#63b8ff" stroke="#63b8ff" points="523.23,-81.57 512.69,-82.67 521.62,-88.38 523.23,-81.57"/>
</a>
</g>
</g>
<!-- Node29&#45;&gt;Node15 -->
<g id="edge44_Node000029_Node000015" class="edge">
<title>Node29&#45;&gt;Node15</title>
<g id="a_edge44_Node000029_Node000015"><a xlink:title=" ">
<path fill="none" stroke="#63b8ff" d="M195.49,-120.67C199.07,-106.88 207.9,-80.37 225.5,-66 263.95,-34.61 320.48,-22.84 360.73,-18.47"/>
<polygon fill="#63b8ff" stroke="#63b8ff" points="361.23,-21.94 370.84,-17.49 360.55,-14.97 361.23,-21.94"/>
</a>
</g>
</g>
<!-- Node29&#45;&gt;Node23 -->
<g id="edge43_Node000029_Node000023" class="edge">
<title>Node29&#45;&gt;Node23</title>
<g id="a_edge43_Node000029_Node000023"><a xlink:title=" ">
<path fill="none" stroke="#63b8ff" d="M249.68,-122.32C304.76,-114.8 390.93,-101.76 464.5,-85 464.6,-84.98 464.7,-84.95 464.8,-84.93"/>
<polygon fill="#63b8ff" stroke="#63b8ff" points="465.43,-88.38 474.24,-82.5 463.69,-81.6 465.43,-88.38"/>
</a>
</g>
</g>
<!-- Node30 -->
<g id="Node000030" class="node">
<title>Node30</title>
<g id="a_Node000030"><a xlink:title=" ">
<polygon fill="#e0e0e0" stroke="#999999" points="286.5,-85 234.5,-85 234.5,-66 286.5,-66 286.5,-85"/>
<text text-anchor="middle" x="260.5" y="-73" font-family="Helvetica,sans-Serif" font-size="10.00">QEvent</text>
</a>
</g>
</g>
<!-- Node29&#45;&gt;Node30 -->
<g id="edge39_Node000029_Node000030" class="edge">
<title>Node29&#45;&gt;Node30</title>
<g id="a_edge39_Node000029_Node000030"><a xlink:title=" ">
<path fill="none" stroke="#63b8ff" d="M204.26,-120.98C214.27,-113.07 229.39,-101.11 241.43,-91.58"/>
<polygon fill="#63b8ff" stroke="#63b8ff" points="243.87,-94.12 249.54,-85.17 239.53,-88.63 243.87,-94.12"/>
</a>
</g>
</g>
<!-- Node31 -->
<g id="Node000031" class="node">
<title>Node31</title>
<g id="a_Node000031"><a xlink:title=" ">
<polygon fill="#e0e0e0" stroke="#999999" points="374.5,-85 304.5,-85 304.5,-66 374.5,-66 374.5,-85"/>
<text text-anchor="middle" x="339.5" y="-73" font-family="Helvetica,sans-Serif" font-size="10.00">QKeyEvent</text>
</a>
</g>
</g>
<!-- Node29&#45;&gt;Node31 -->
<g id="edge40_Node000029_Node000031" class="edge">
<title>Node29&#45;&gt;Node31</title>
<g id="a_edge40_Node000029_Node000031"><a xlink:title=" ">
<path fill="none" stroke="#63b8ff" d="M216.96,-120.98C241.08,-112.23 278.87,-98.51 306.1,-88.62"/>
<polygon fill="#63b8ff" stroke="#63b8ff" points="307.41,-91.87 315.62,-85.17 305.02,-85.29 307.41,-91.87"/>
</a>
</g>
</g>
<!-- Node32 -->
<g id="Node000032" class="node">
<title>Node32</title>
<g id="a_Node000032"><a xlink:title=" ">
<polygon fill="#e0e0e0" stroke="#999999" points="456,-85 393,-85 393,-66 456,-66 456,-85"/>
<text text-anchor="middle" x="424.5" y="-73" font-family="Helvetica,sans-Serif" font-size="10.00">QLineEdit</text>
</a>
</g>
</g>
<!-- Node29&#45;&gt;Node32 -->
<g id="edge41_Node000029_Node000032" class="edge">
<title>Node29&#45;&gt;Node32</title>
<g id="a_edge41_Node000029_Node000032"><a xlink:title=" ">
<path fill="none" stroke="#63b8ff" d="M230.61,-120.98C272.17,-111.45 339.37,-96.03 382.74,-86.08"/>
<polygon fill="#63b8ff" stroke="#63b8ff" points="383.72,-89.45 392.68,-83.8 382.15,-82.62 383.72,-89.45"/>
</a>
</g>
</g>
<!-- Node33 -->
<g id="Node000033" class="node">
<title>Node33</title>
<g id="a_Node000033"><a xlink:title=" ">
<polygon fill="#e0e0e0" stroke="#999999" points="178.5,-85 94.5,-85 94.5,-66 178.5,-66 178.5,-85"/>
<text text-anchor="middle" x="136.5" y="-73" font-family="Helvetica,sans-Serif" font-size="10.00">QMouseEvent</text>
</a>
</g>
</g>
<!-- Node29&#45;&gt;Node33 -->
<g id="edge42_Node000029_Node000033" class="edge">
<title>Node29&#45;&gt;Node33</title>
<g id="a_edge42_Node000029_Node000033"><a xlink:title=" ">
<path fill="none" stroke="#63b8ff" d="M184.34,-120.98C176,-113.23 163.47,-101.58 153.32,-92.14"/>
<polygon fill="#63b8ff" stroke="#63b8ff" points="155.53,-89.42 145.82,-85.17 150.76,-94.54 155.53,-89.42"/>
</a>
</g>
</g>
</g>
</svg>
