<?xml version="1.0" encoding="UTF-8" standalone="no"?>
<!DOCTYPE svg PUBLIC "-//W3C//DTD SVG 1.1//EN"
 "http://www.w3.org/Graphics/SVG/1.1/DTD/svg11.dtd">
<!-- Generated by graphviz version 2.43.0 (0)
 -->
<!-- Title: src/ui/mainmenu.cpp Pages: 1 -->
<svg width="1044pt" height="269pt"
 viewBox="0.00 0.00 1044.00 269.00" xmlns="http://www.w3.org/2000/svg" xmlns:xlink="http://www.w3.org/1999/xlink">
<g id="graph0" class="graph" transform="scale(1 1) rotate(0) translate(4 265)">
<title>src/ui/mainmenu.cpp</title>
<!-- Node1 -->
<g id="Node000001" class="node">
<title>Node1</title>
<g id="a_Node000001"><a xlink:title=" ">
<polygon fill="#999999" stroke="#666666" points="638.5,-261 519.5,-261 519.5,-242 638.5,-242 638.5,-261"/>
<text text-anchor="middle" x="579" y="-249" font-family="Helvetica,sans-Serif" font-size="10.00">src/ui/mainmenu.cpp</text>
</a>
</g>
</g>
<!-- Node2 -->
<g id="Node000002" class="node">
<title>Node2</title>
<g id="a_Node000002"><a xlink:href="mainmenu_8hpp.html" target="_top" xlink:title=" ">
<polygon fill="white" stroke="#666666" points="297,-206 207,-206 207,-187 297,-187 297,-206"/>
<text text-anchor="middle" x="252" y="-194" font-family="Helvetica,sans-Serif" font-size="10.00">mainmenu.hpp</text>
</a>
</g>
</g>
<!-- Node1&#45;&gt;Node2 -->
<g id="edge1_Node000001_Node000002" class="edge">
<title>Node1&#45;&gt;Node2</title>
<g id="a_edge1_Node000001_Node000002"><a xlink:title=" ">
<path fill="none" stroke="#63b8ff" d="M526.46,-241.98C466.39,-232.25 368.47,-216.38 307.28,-206.46"/>
<polygon fill="#63b8ff" stroke="#63b8ff" points="307.47,-202.94 297.04,-204.8 306.35,-209.85 307.47,-202.94"/>
</a>
</g>
</g>
<!-- Node3 -->
<g id="Node000003" class="node">
<title>Node3</title>
<g id="a_Node000003"><a xlink:title=" ">
<polygon fill="#e0e0e0" stroke="#999999" points="272.5,-151 175.5,-151 175.5,-132 272.5,-132 272.5,-151"/>
<text text-anchor="middle" x="224" y="-139" font-family="Helvetica,sans-Serif" font-size="10.00">QStackedWidget</text>
</a>
</g>
</g>
<!-- Node1&#45;&gt;Node3 -->
<g id="edge39_Node000001_Node000003" class="edge">
<title>Node1&#45;&gt;Node3</title>
<g id="a_edge39_Node000001_Node000003"><a xlink:title=" ">
<path fill="none" stroke="#63b8ff" d="M519.48,-247.82C417.66,-242.63 218.98,-229.57 198,-206 186.06,-192.59 197.19,-172.96 208.37,-159.08"/>
<polygon fill="#63b8ff" stroke="#63b8ff" points="211.22,-161.14 215.13,-151.29 205.93,-156.55 211.22,-161.14"/>
</a>
</g>
</g>
<!-- Node5 -->
<g id="Node000005" class="node">
<title>Node5</title>
<g id="a_Node000005"><a xlink:href="server_8hpp.html" target="_top" xlink:title=" ">
<polygon fill="white" stroke="#666666" points="646,-206 512,-206 512,-187 646,-187 646,-206"/>
<text text-anchor="middle" x="579" y="-194" font-family="Helvetica,sans-Serif" font-size="10.00">../networking/server.hpp</text>
</a>
</g>
</g>
<!-- Node1&#45;&gt;Node5 -->
<g id="edge4_Node000001_Node000005" class="edge">
<title>Node1&#45;&gt;Node5</title>
<g id="a_edge4_Node000001_Node000005"><a xlink:title=" ">
<path fill="none" stroke="#63b8ff" d="M579,-241.75C579,-234.8 579,-224.85 579,-216.13"/>
<polygon fill="#63b8ff" stroke="#63b8ff" points="582.5,-216.09 579,-206.09 575.5,-216.09 582.5,-216.09"/>
</a>
</g>
</g>
<!-- Node28 -->
<g id="Node000028" class="node">
<title>Node28</title>
<g id="a_Node000028"><a xlink:href="about_8hpp.html" target="_top" xlink:title=" ">
<polygon fill="white" stroke="#666666" points="380.5,-206 315.5,-206 315.5,-187 380.5,-187 380.5,-206"/>
<text text-anchor="middle" x="348" y="-194" font-family="Helvetica,sans-Serif" font-size="10.00">about.hpp</text>
</a>
</g>
</g>
<!-- Node1&#45;&gt;Node28 -->
<g id="edge29_Node000001_Node000028" class="edge">
<title>Node1&#45;&gt;Node28</title>
<g id="a_edge29_Node000001_Node000028"><a xlink:title=" ">
<path fill="none" stroke="#63b8ff" d="M541.89,-241.98C500.56,-232.5 433.89,-217.21 390.5,-207.25"/>
<polygon fill="#63b8ff" stroke="#63b8ff" points="391.07,-203.79 380.54,-204.97 389.51,-210.61 391.07,-203.79"/>
</a>
</g>
</g>
<!-- Node29 -->
<g id="Node000029" class="node">
<title>Node29</title>
<g id="a_Node000029"><a xlink:href="preferences_8hpp.html" target="_top" xlink:title=" ">
<polygon fill="white" stroke="#666666" points="493.5,-206 398.5,-206 398.5,-187 493.5,-187 493.5,-206"/>
<text text-anchor="middle" x="446" y="-194" font-family="Helvetica,sans-Serif" font-size="10.00">preferences.hpp</text>
</a>
</g>
</g>
<!-- Node1&#45;&gt;Node29 -->
<g id="edge32_Node000001_Node000029" class="edge">
<title>Node1&#45;&gt;Node29</title>
<g id="a_edge32_Node000001_Node000029"><a xlink:title=" ">
<path fill="none" stroke="#63b8ff" d="M557.63,-241.98C535.85,-233.3 501.84,-219.75 477.08,-209.88"/>
<polygon fill="#63b8ff" stroke="#63b8ff" points="478.34,-206.62 467.76,-206.17 475.75,-213.12 478.34,-206.62"/>
</a>
</g>
</g>
<!-- Node30 -->
<g id="Node000030" class="node">
<title>Node30</title>
<g id="a_Node000030"><a xlink:title=" ">
<polygon fill="#e0e0e0" stroke="#999999" points="756,-206 664,-206 664,-187 756,-187 756,-206"/>
<text text-anchor="middle" x="710" y="-194" font-family="Helvetica,sans-Serif" font-size="10.00">ui_mainmenu.h</text>
</a>
</g>
</g>
<!-- Node1&#45;&gt;Node30 -->
<g id="edge35_Node000001_Node000030" class="edge">
<title>Node1&#45;&gt;Node30</title>
<g id="a_edge35_Node000001_Node000030"><a xlink:title=" ">
<path fill="none" stroke="#63b8ff" d="M600.05,-241.98C621.41,-233.34 654.7,-219.87 679.06,-210.02"/>
<polygon fill="#63b8ff" stroke="#63b8ff" points="680.61,-213.17 688.57,-206.17 677.99,-206.68 680.61,-213.17"/>
</a>
</g>
</g>
<!-- Node31 -->
<g id="Node000031" class="node">
<title>Node31</title>
<g id="a_Node000031"><a xlink:title=" ">
<polygon fill="#e0e0e0" stroke="#999999" points="860,-206 774,-206 774,-187 860,-187 860,-206"/>
<text text-anchor="middle" x="817" y="-194" font-family="Helvetica,sans-Serif" font-size="10.00">QMessageBox</text>
</a>
</g>
</g>
<!-- Node1&#45;&gt;Node31 -->
<g id="edge36_Node000001_Node000031" class="edge">
<title>Node1&#45;&gt;Node31</title>
<g id="a_edge36_Node000001_Node000031"><a xlink:title=" ">
<path fill="none" stroke="#63b8ff" d="M617.24,-241.98C658.41,-232.82 723.99,-218.21 768.7,-208.26"/>
<polygon fill="#63b8ff" stroke="#63b8ff" points="769.46,-211.67 778.46,-206.08 767.94,-204.84 769.46,-211.67"/>
</a>
</g>
</g>
<!-- Node32 -->
<g id="Node000032" class="node">
<title>Node32</title>
<g id="a_Node000032"><a xlink:title=" ">
<polygon fill="#e0e0e0" stroke="#999999" points="937.5,-206 878.5,-206 878.5,-187 937.5,-187 937.5,-206"/>
<text text-anchor="middle" x="908" y="-194" font-family="Helvetica,sans-Serif" font-size="10.00">QPointer</text>
</a>
</g>
</g>
<!-- Node1&#45;&gt;Node32 -->
<g id="edge37_Node000001_Node000032" class="edge">
<title>Node1&#45;&gt;Node32</title>
<g id="a_edge37_Node000001_Node000032"><a xlink:title=" ">
<path fill="none" stroke="#63b8ff" d="M638.61,-242.46C695.19,-234.58 782.82,-221.72 868.35,-206.02"/>
<polygon fill="#63b8ff" stroke="#63b8ff" points="869.03,-209.45 878.23,-204.19 867.76,-202.57 869.03,-209.45"/>
</a>
</g>
</g>
<!-- Node33 -->
<g id="Node000033" class="node">
<title>Node33</title>
<g id="a_Node000033"><a xlink:title=" ">
<polygon fill="#e0e0e0" stroke="#999999" points="1036,-206 956,-206 956,-187 1036,-187 1036,-206"/>
<text text-anchor="middle" x="996" y="-194" font-family="Helvetica,sans-Serif" font-size="10.00">QPushButton</text>
</a>
</g>
</g>
<!-- Node1&#45;&gt;Node33 -->
<g id="edge38_Node000001_Node000033" class="edge">
<title>Node1&#45;&gt;Node33</title>
<g id="a_edge38_Node000001_Node000033"><a xlink:title=" ">
<path fill="none" stroke="#63b8ff" d="M638.72,-244.23C709.56,-236.59 831.45,-222.76 945.93,-206.09"/>
<polygon fill="#63b8ff" stroke="#63b8ff" points="946.53,-209.54 955.92,-204.63 945.51,-202.61 946.53,-209.54"/>
</a>
</g>
</g>
<!-- Node2&#45;&gt;Node3 -->
<g id="edge2_Node000002_Node000003" class="edge">
<title>Node2&#45;&gt;Node3</title>
<g id="a_edge2_Node000002_Node000003"><a xlink:title=" ">
<path fill="none" stroke="#63b8ff" d="M247.38,-186.75C243.54,-179.49 237.98,-168.95 233.24,-159.98"/>
<polygon fill="#63b8ff" stroke="#63b8ff" points="236.3,-158.3 228.54,-151.09 230.11,-161.57 236.3,-158.3"/>
</a>
</g>
</g>
<!-- Node4 -->
<g id="Node000004" class="node">
<title>Node4</title>
<g id="a_Node000004"><a xlink:title=" ">
<polygon fill="#e0e0e0" stroke="#999999" points="349.5,-151 290.5,-151 290.5,-132 349.5,-132 349.5,-151"/>
<text text-anchor="middle" x="320" y="-139" font-family="Helvetica,sans-Serif" font-size="10.00">QWidget</text>
</a>
</g>
</g>
<!-- Node2&#45;&gt;Node4 -->
<g id="edge3_Node000002_Node000004" class="edge">
<title>Node2&#45;&gt;Node4</title>
<g id="a_edge3_Node000002_Node000004"><a xlink:title=" ">
<path fill="none" stroke="#63b8ff" d="M262.93,-186.98C273.08,-179.07 288.42,-167.11 300.65,-157.58"/>
<polygon fill="#63b8ff" stroke="#63b8ff" points="303.14,-160.08 308.88,-151.17 298.84,-154.56 303.14,-160.08"/>
</a>
</g>
</g>
<!-- Node6 -->
<g id="Node000006" class="node">
<title>Node6</title>
<g id="a_Node000006"><a xlink:href="executor_8hpp.html" target="_top" xlink:title=" ">
<polygon fill="white" stroke="#666666" points="806.5,-151 727.5,-151 727.5,-132 806.5,-132 806.5,-151"/>
<text text-anchor="middle" x="767" y="-139" font-family="Helvetica,sans-Serif" font-size="10.00">executor.hpp</text>
</a>
</g>
</g>
<!-- Node5&#45;&gt;Node6 -->
<g id="edge5_Node000005_Node000006" class="edge">
<title>Node5&#45;&gt;Node6</title>
<g id="a_edge5_Node000005_Node000006"><a xlink:title=" ">
<path fill="none" stroke="#63b8ff" d="M609.21,-186.98C641.04,-178.01 691.36,-163.82 726.6,-153.89"/>
<polygon fill="#63b8ff" stroke="#63b8ff" points="727.88,-157.16 736.56,-151.08 725.98,-150.43 727.88,-157.16"/>
</a>
</g>
</g>
<!-- Node22 -->
<g id="Node000022" class="node">
<title>Node22</title>
<g id="a_Node000022"><a xlink:title=" ">
<polygon fill="#e0e0e0" stroke="#999999" points="954,-90.5 896,-90.5 896,-71.5 954,-71.5 954,-90.5"/>
<text text-anchor="middle" x="925" y="-78.5" font-family="Helvetica,sans-Serif" font-size="10.00">memory</text>
</a>
</g>
</g>
<!-- Node5&#45;&gt;Node22 -->
<g id="edge28_Node000005_Node000022" class="edge">
<title>Node5&#45;&gt;Node22</title>
<g id="a_edge28_Node000005_Node000022"><a xlink:title=" ">
<path fill="none" stroke="#63b8ff" d="M638.36,-186.97C697.65,-177.99 784.4,-163.44 816,-151 850.46,-137.43 885.89,-112.6 906.65,-96.72"/>
<polygon fill="#63b8ff" stroke="#63b8ff" points="908.87,-99.43 914.6,-90.52 904.56,-93.91 908.87,-99.43"/>
</a>
</g>
</g>
<!-- Node23 -->
<g id="Node000023" class="node">
<title>Node23</title>
<g id="a_Node000023"><a xlink:title=" ">
<polygon fill="#e0e0e0" stroke="#999999" points="936.5,-151 863.5,-151 863.5,-132 936.5,-132 936.5,-151"/>
<text text-anchor="middle" x="900" y="-139" font-family="Helvetica,sans-Serif" font-size="10.00">QByteArray</text>
</a>
</g>
</g>
<!-- Node5&#45;&gt;Node23 -->
<g id="edge23_Node000005_Node000023" class="edge">
<title>Node5&#45;&gt;Node23</title>
<g id="a_edge23_Node000005_Node000023"><a xlink:title=" ">
<path fill="none" stroke="#63b8ff" d="M630.77,-187C685.12,-178.06 773.07,-163.58 849,-151 850.3,-150.79 851.61,-150.57 852.93,-150.35"/>
<polygon fill="#63b8ff" stroke="#63b8ff" points="853.94,-153.73 863.23,-148.64 852.79,-146.82 853.94,-153.73"/>
</a>
</g>
</g>
<!-- Node24 -->
<g id="Node000024" class="node">
<title>Node24</title>
<g id="a_Node000024"><a xlink:title=" ">
<polygon fill="#e0e0e0" stroke="#999999" points="462,-151 406,-151 406,-132 462,-132 462,-151"/>
<text text-anchor="middle" x="434" y="-139" font-family="Helvetica,sans-Serif" font-size="10.00">QDialog</text>
</a>
</g>
</g>
<!-- Node5&#45;&gt;Node24 -->
<g id="edge24_Node000005_Node000024" class="edge">
<title>Node5&#45;&gt;Node24</title>
<g id="a_edge24_Node000005_Node000024"><a xlink:title=" ">
<path fill="none" stroke="#63b8ff" d="M555.7,-186.98C531.75,-178.23 494.22,-164.51 467.17,-154.62"/>
<polygon fill="#63b8ff" stroke="#63b8ff" points="468.31,-151.32 457.72,-151.17 465.91,-157.89 468.31,-151.32"/>
</a>
</g>
</g>
<!-- Node25 -->
<g id="Node000025" class="node">
<title>Node25</title>
<g id="a_Node000025"><a xlink:title=" ">
<polygon fill="#e0e0e0" stroke="#999999" points="551.5,-151 480.5,-151 480.5,-132 551.5,-132 551.5,-151"/>
<text text-anchor="middle" x="516" y="-139" font-family="Helvetica,sans-Serif" font-size="10.00">QTcpServer</text>
</a>
</g>
</g>
<!-- Node5&#45;&gt;Node25 -->
<g id="edge25_Node000005_Node000025" class="edge">
<title>Node5&#45;&gt;Node25</title>
<g id="a_edge25_Node000005_Node000025"><a xlink:title=" ">
<path fill="none" stroke="#63b8ff" d="M568.88,-186.98C559.56,-179.15 545.53,-167.34 534.26,-157.86"/>
<polygon fill="#63b8ff" stroke="#63b8ff" points="536.21,-154.93 526.31,-151.17 531.71,-160.29 536.21,-154.93"/>
</a>
</g>
</g>
<!-- Node26 -->
<g id="Node000026" class="node">
<title>Node26</title>
<g id="a_Node000026"><a xlink:title=" ">
<polygon fill="#e0e0e0" stroke="#999999" points="642,-151 570,-151 570,-132 642,-132 642,-151"/>
<text text-anchor="middle" x="606" y="-139" font-family="Helvetica,sans-Serif" font-size="10.00">QTcpSocket</text>
</a>
</g>
</g>
<!-- Node5&#45;&gt;Node26 -->
<g id="edge26_Node000005_Node000026" class="edge">
<title>Node5&#45;&gt;Node26</title>
<g id="a_edge26_Node000005_Node000026"><a xlink:title=" ">
<path fill="none" stroke="#63b8ff" d="M583.46,-186.75C587.12,-179.57 592.41,-169.18 596.95,-160.27"/>
<polygon fill="#63b8ff" stroke="#63b8ff" points="600.2,-161.59 601.62,-151.09 593.97,-158.41 600.2,-161.59"/>
</a>
</g>
</g>
<!-- Node27 -->
<g id="Node000027" class="node">
<title>Node27</title>
<g id="a_Node000027"><a xlink:title=" ">
<polygon fill="#e0e0e0" stroke="#999999" points="709.5,-151 660.5,-151 660.5,-132 709.5,-132 709.5,-151"/>
<text text-anchor="middle" x="685" y="-139" font-family="Helvetica,sans-Serif" font-size="10.00">QTime</text>
</a>
</g>
</g>
<!-- Node5&#45;&gt;Node27 -->
<g id="edge27_Node000005_Node000027" class="edge">
<title>Node5&#45;&gt;Node27</title>
<g id="a_edge27_Node000005_Node000027"><a xlink:title=" ">
<path fill="none" stroke="#63b8ff" d="M596.03,-186.98C612.93,-178.54 639.06,-165.47 658.64,-155.68"/>
<polygon fill="#63b8ff" stroke="#63b8ff" points="660.28,-158.77 667.66,-151.17 657.15,-152.51 660.28,-158.77"/>
</a>
</g>
</g>
<!-- Node7 -->
<g id="Node000007" class="node">
<title>Node7</title>
<g id="a_Node000007"><a xlink:href="Colfer_8h.html" target="_top" xlink:title=" ">
<polygon fill="white" stroke="#666666" points="878,-96 742,-96 742,-66 878,-66 878,-96"/>
<text text-anchor="start" x="750" y="-84" font-family="Helvetica,sans-Serif" font-size="10.00">../../VGP_Data_Exchange</text>
<text text-anchor="middle" x="810" y="-73" font-family="Helvetica,sans-Serif" font-size="10.00">/C/Colfer.h</text>
</a>
</g>
</g>
<!-- Node6&#45;&gt;Node7 -->
<g id="edge6_Node000006_Node000007" class="edge">
<title>Node6&#45;&gt;Node7</title>
<g id="a_edge6_Node000006_Node000007"><a xlink:title=" ">
<path fill="none" stroke="#63b8ff" d="M773.34,-131.87C778.69,-124.59 786.59,-113.85 793.68,-104.2"/>
<polygon fill="#63b8ff" stroke="#63b8ff" points="796.52,-106.25 799.63,-96.11 790.88,-102.1 796.52,-106.25"/>
</a>
</g>
</g>
<!-- Node11 -->
<g id="Node000011" class="node">
<title>Node11</title>
<g id="a_Node000011"><a xlink:href="input__types_8hpp.html" target="_top" xlink:title=" ">
<polygon fill="white" stroke="#666666" points="724,-90.5 578,-90.5 578,-71.5 724,-71.5 724,-90.5"/>
<text text-anchor="middle" x="651" y="-78.5" font-family="Helvetica,sans-Serif" font-size="10.00">../settings/input_types.hpp</text>
</a>
</g>
</g>
<!-- Node6&#45;&gt;Node11 -->
<g id="edge10_Node000006_Node000011" class="edge">
<title>Node6&#45;&gt;Node11</title>
<g id="a_edge10_Node000006_Node000011"><a xlink:title=" ">
<path fill="none" stroke="#63b8ff" d="M749.88,-131.87C730.78,-122.23 699.63,-106.53 677.4,-95.31"/>
<polygon fill="#63b8ff" stroke="#63b8ff" points="678.69,-92.05 668.19,-90.67 675.54,-98.3 678.69,-92.05"/>
</a>
</g>
</g>
<!-- Node15 -->
<g id="Node000015" class="node">
<title>Node15</title>
<g id="a_Node000015"><a xlink:href="gamepadSim_8hpp.html" target="_top" xlink:title=" ">
<polygon fill="white" stroke="#666666" points="166,-90.5 0,-90.5 0,-71.5 166,-71.5 166,-90.5"/>
<text text-anchor="middle" x="83" y="-78.5" font-family="Helvetica,sans-Serif" font-size="10.00">../simulation/gamepadSim.hpp</text>
</a>
</g>
</g>
<!-- Node6&#45;&gt;Node15 -->
<g id="edge14_Node000006_Node000015" class="edge">
<title>Node6&#45;&gt;Node15</title>
<g id="a_edge14_Node000006_Node000015"><a xlink:title=" ">
<path fill="none" stroke="#63b8ff" d="M727.5,-133.15C724.63,-132.73 721.77,-132.34 719,-132 478.46,-102.83 415.88,-122.25 175,-96 165,-94.91 154.43,-93.52 144.15,-92.05"/>
<polygon fill="#63b8ff" stroke="#63b8ff" points="144.4,-88.55 133.99,-90.55 143.38,-95.47 144.4,-88.55"/>
</a>
</g>
</g>
<!-- Node18 -->
<g id="Node000018" class="node">
<title>Node18</title>
<g id="a_Node000018"><a xlink:href="keyboardSim_8hpp.html" target="_top" xlink:title="Simulates keyboard input across platforms.">
<polygon fill="white" stroke="#666666" points="349.5,-90.5 184.5,-90.5 184.5,-71.5 349.5,-71.5 349.5,-90.5"/>
<text text-anchor="middle" x="267" y="-78.5" font-family="Helvetica,sans-Serif" font-size="10.00">../simulation/keyboardSim.hpp</text>
</a>
</g>
</g>
<!-- Node6&#45;&gt;Node18 -->
<g id="edge17_Node000006_Node000018" class="edge">
<title>Node6&#45;&gt;Node18</title>
<g id="a_edge17_Node000006_Node000018"><a xlink:title=" ">
<path fill="none" stroke="#63b8ff" d="M727.48,-133.29C724.61,-132.83 721.76,-132.4 719,-132 701.27,-129.45 481.57,-105.39 355.14,-91.6"/>
<polygon fill="#63b8ff" stroke="#63b8ff" points="355.4,-88.11 345.08,-90.5 354.64,-95.07 355.4,-88.11"/>
</a>
</g>
</g>
<!-- Node21 -->
<g id="Node000021" class="node">
<title>Node21</title>
<g id="a_Node000021"><a xlink:href="mouseSim_8hpp.html" target="_top" xlink:title="Simulates mouse input across platforms.">
<polygon fill="white" stroke="#666666" points="559.5,-90.5 406.5,-90.5 406.5,-71.5 559.5,-71.5 559.5,-90.5"/>
<text text-anchor="middle" x="483" y="-78.5" font-family="Helvetica,sans-Serif" font-size="10.00">../simulation/mouseSim.hpp</text>
</a>
</g>
</g>
<!-- Node6&#45;&gt;Node21 -->
<g id="edge21_Node000006_Node000021" class="edge">
<title>Node6&#45;&gt;Node21</title>
<g id="a_edge21_Node000006_Node000021"><a xlink:title=" ">
<path fill="none" stroke="#63b8ff" d="M727.21,-132.3C676.77,-121.91 589.72,-103.98 534.32,-92.57"/>
<polygon fill="#63b8ff" stroke="#63b8ff" points="534.86,-89.11 524.36,-90.52 533.45,-95.97 534.86,-89.11"/>
</a>
</g>
</g>
<!-- Node6&#45;&gt;Node22 -->
<g id="edge22_Node000006_Node000022" class="edge">
<title>Node6&#45;&gt;Node22</title>
<g id="a_edge22_Node000006_Node000022"><a xlink:title=" ">
<path fill="none" stroke="#63b8ff" d="M789.97,-131.99C816.89,-122.03 861.67,-105.45 892.23,-94.13"/>
<polygon fill="#63b8ff" stroke="#63b8ff" points="893.84,-97.27 902,-90.52 891.4,-90.71 893.84,-97.27"/>
</a>
</g>
</g>
<!-- Node8 -->
<g id="Node000008" class="node">
<title>Node8</title>
<g id="a_Node000008"><a xlink:title=" ">
<polygon fill="#e0e0e0" stroke="#999999" points="907.5,-24.5 854.5,-24.5 854.5,-5.5 907.5,-5.5 907.5,-24.5"/>
<text text-anchor="middle" x="881" y="-12.5" font-family="Helvetica,sans-Serif" font-size="10.00">limits.h</text>
</a>
</g>
</g>
<!-- Node7&#45;&gt;Node8 -->
<g id="edge7_Node000007_Node000008" class="edge">
<title>Node7&#45;&gt;Node8</title>
<g id="a_edge7_Node000007_Node000008"><a xlink:title=" ">
<path fill="none" stroke="#63b8ff" d="M825.76,-65.8C836.93,-55.72 851.94,-42.19 863.49,-31.78"/>
<polygon fill="#63b8ff" stroke="#63b8ff" points="866.1,-34.14 871.19,-24.84 861.42,-28.94 866.1,-34.14"/>
</a>
</g>
</g>
<!-- Node9 -->
<g id="Node000009" class="node">
<title>Node9</title>
<g id="a_Node000009"><a xlink:title=" ">
<polygon fill="#e0e0e0" stroke="#999999" points="765.5,-24.5 712.5,-24.5 712.5,-5.5 765.5,-5.5 765.5,-24.5"/>
<text text-anchor="middle" x="739" y="-12.5" font-family="Helvetica,sans-Serif" font-size="10.00">stdint.h</text>
</a>
</g>
</g>
<!-- Node7&#45;&gt;Node9 -->
<g id="edge8_Node000007_Node000009" class="edge">
<title>Node7&#45;&gt;Node9</title>
<g id="a_edge8_Node000007_Node000009"><a xlink:title=" ">
<path fill="none" stroke="#63b8ff" d="M794.24,-65.8C783.07,-55.72 768.06,-42.19 756.51,-31.78"/>
<polygon fill="#63b8ff" stroke="#63b8ff" points="758.58,-28.94 748.81,-24.84 753.9,-34.14 758.58,-28.94"/>
</a>
</g>
</g>
<!-- Node10 -->
<g id="Node000010" class="node">
<title>Node10</title>
<g id="a_Node000010"><a xlink:title=" ">
<polygon fill="#e0e0e0" stroke="#999999" points="836.5,-24.5 783.5,-24.5 783.5,-5.5 836.5,-5.5 836.5,-24.5"/>
<text text-anchor="middle" x="810" y="-12.5" font-family="Helvetica,sans-Serif" font-size="10.00">string.h</text>
</a>
</g>
</g>
<!-- Node7&#45;&gt;Node10 -->
<g id="edge9_Node000007_Node000010" class="edge">
<title>Node7&#45;&gt;Node10</title>
<g id="a_edge9_Node000007_Node000010"><a xlink:title=" ">
<path fill="none" stroke="#63b8ff" d="M810,-65.8C810,-56.7 810,-44.79 810,-34.9"/>
<polygon fill="#63b8ff" stroke="#63b8ff" points="813.5,-34.84 810,-24.84 806.5,-34.84 813.5,-34.84"/>
</a>
</g>
</g>
<!-- Node12 -->
<g id="Node000012" class="node">
<title>Node12</title>
<g id="a_Node000012"><a xlink:href="GameButtons_8h.html" target="_top" xlink:title=" ">
<polygon fill="white" stroke="#666666" points="632,-30 496,-30 496,0 632,0 632,-30"/>
<text text-anchor="start" x="504" y="-18" font-family="Helvetica,sans-Serif" font-size="10.00">../../VGP_Data_Exchange</text>
<text text-anchor="middle" x="564" y="-7" font-family="Helvetica,sans-Serif" font-size="10.00">/C/GameButtons.h</text>
</a>
</g>
</g>
<!-- Node11&#45;&gt;Node12 -->
<g id="edge11_Node000011_Node000012" class="edge">
<title>Node11&#45;&gt;Node12</title>
<g id="a_edge11_Node000011_Node000012"><a xlink:title=" ">
<path fill="none" stroke="#63b8ff" d="M639.27,-71.37C627.02,-62.36 607.4,-47.92 591.25,-36.05"/>
<polygon fill="#63b8ff" stroke="#63b8ff" points="593.32,-33.22 583.19,-30.12 589.17,-38.86 593.32,-33.22"/>
</a>
</g>
</g>
<!-- Node13 -->
<g id="Node000013" class="node">
<title>Node13</title>
<g id="a_Node000013"><a xlink:title=" ">
<polygon fill="#e0e0e0" stroke="#999999" points="404.5,-24.5 351.5,-24.5 351.5,-5.5 404.5,-5.5 404.5,-24.5"/>
<text text-anchor="middle" x="378" y="-12.5" font-family="Helvetica,sans-Serif" font-size="10.00">QString</text>
</a>
</g>
</g>
<!-- Node11&#45;&gt;Node13 -->
<g id="edge12_Node000011_Node000013" class="edge">
<title>Node11&#45;&gt;Node13</title>
<g id="a_edge12_Node000011_Node000013"><a xlink:title=" ">
<path fill="none" stroke="#63b8ff" d="M614.47,-71.44C562.3,-59.2 467,-36.86 414.73,-24.61"/>
<polygon fill="#63b8ff" stroke="#63b8ff" points="415.41,-21.17 404.87,-22.3 413.81,-27.99 415.41,-21.17"/>
</a>
</g>
</g>
<!-- Node14 -->
<g id="Node000014" class="node">
<title>Node14</title>
<g id="a_Node000014"><a xlink:title=" ">
<polygon fill="#e0e0e0" stroke="#999999" points="679.5,-24.5 650.5,-24.5 650.5,-5.5 679.5,-5.5 679.5,-24.5"/>
<text text-anchor="middle" x="665" y="-12.5" font-family="Helvetica,sans-Serif" font-size="10.00">Qt</text>
</a>
</g>
</g>
<!-- Node11&#45;&gt;Node14 -->
<g id="edge13_Node000011_Node000014" class="edge">
<title>Node11&#45;&gt;Node14</title>
<g id="a_edge13_Node000011_Node000014"><a xlink:title=" ">
<path fill="none" stroke="#63b8ff" d="M652.89,-71.37C654.92,-62.07 658.22,-46.98 660.87,-34.9"/>
<polygon fill="#63b8ff" stroke="#63b8ff" points="664.33,-35.42 663.05,-24.91 657.5,-33.93 664.33,-35.42"/>
</a>
</g>
</g>
<!-- Node16 -->
<g id="Node000016" class="node">
<title>Node16</title>
<g id="a_Node000016"><a xlink:title=" ">
<polygon fill="#e0e0e0" stroke="#999999" points="76,-24.5 20,-24.5 20,-5.5 76,-5.5 76,-24.5"/>
<text text-anchor="middle" x="48" y="-12.5" font-family="Helvetica,sans-Serif" font-size="10.00">QDebug</text>
</a>
</g>
</g>
<!-- Node15&#45;&gt;Node16 -->
<g id="edge15_Node000015_Node000016" class="edge">
<title>Node15&#45;&gt;Node16</title>
<g id="a_edge15_Node000015_Node000016"><a xlink:title=" ">
<path fill="none" stroke="#63b8ff" d="M78.28,-71.37C73.04,-61.78 64.43,-46.05 57.73,-33.8"/>
<polygon fill="#63b8ff" stroke="#63b8ff" points="60.74,-32 52.87,-24.91 54.6,-35.36 60.74,-32"/>
</a>
</g>
</g>
<!-- Node17 -->
<g id="Node000017" class="node">
<title>Node17</title>
<g id="a_Node000017"><a xlink:title=" ">
<polygon fill="#e0e0e0" stroke="#999999" points="141.5,-24.5 94.5,-24.5 94.5,-5.5 141.5,-5.5 141.5,-24.5"/>
<text text-anchor="middle" x="118" y="-12.5" font-family="Helvetica,sans-Serif" font-size="10.00">cmath</text>
</a>
</g>
</g>
<!-- Node15&#45;&gt;Node17 -->
<g id="edge16_Node000015_Node000017" class="edge">
<title>Node15&#45;&gt;Node17</title>
<g id="a_edge16_Node000015_Node000017"><a xlink:title=" ">
<path fill="none" stroke="#63b8ff" d="M87.72,-71.37C92.96,-61.78 101.57,-46.05 108.27,-33.8"/>
<polygon fill="#63b8ff" stroke="#63b8ff" points="111.4,-35.36 113.13,-24.91 105.26,-32 111.4,-35.36"/>
</a>
</g>
</g>
<!-- Node18&#45;&gt;Node13 -->
<g id="edge18_Node000018_Node000013" class="edge">
<title>Node18&#45;&gt;Node13</title>
<g id="a_edge18_Node000018_Node000013"><a xlink:title=" ">
<path fill="none" stroke="#63b8ff" d="M281.97,-71.37C300.51,-60.68 332.31,-42.35 354.2,-29.72"/>
<polygon fill="#63b8ff" stroke="#63b8ff" points="356,-32.73 362.91,-24.7 352.5,-26.66 356,-32.73"/>
</a>
</g>
</g>
<!-- Node19 -->
<g id="Node000019" class="node">
<title>Node19</title>
<g id="a_Node000019"><a xlink:title=" ">
<polygon fill="#e0e0e0" stroke="#999999" points="311,-24.5 267,-24.5 267,-5.5 311,-5.5 311,-24.5"/>
<text text-anchor="middle" x="289" y="-12.5" font-family="Helvetica,sans-Serif" font-size="10.00">string</text>
</a>
</g>
</g>
<!-- Node18&#45;&gt;Node19 -->
<g id="edge19_Node000018_Node000019" class="edge">
<title>Node18&#45;&gt;Node19</title>
<g id="a_edge19_Node000018_Node000019"><a xlink:title=" ">
<path fill="none" stroke="#63b8ff" d="M269.97,-71.37C273.2,-61.97 278.46,-46.67 282.63,-34.53"/>
<polygon fill="#63b8ff" stroke="#63b8ff" points="286,-35.5 285.94,-24.91 279.38,-33.22 286,-35.5"/>
</a>
</g>
</g>
<!-- Node20 -->
<g id="Node000020" class="node">
<title>Node20</title>
<g id="a_Node000020"><a xlink:title=" ">
<polygon fill="#e0e0e0" stroke="#999999" points="248.5,-24.5 201.5,-24.5 201.5,-5.5 248.5,-5.5 248.5,-24.5"/>
<text text-anchor="middle" x="225" y="-12.5" font-family="Helvetica,sans-Serif" font-size="10.00">vector</text>
</a>
</g>
</g>
<!-- Node18&#45;&gt;Node20 -->
<g id="edge20_Node000018_Node000020" class="edge">
<title>Node18&#45;&gt;Node20</title>
<g id="a_edge20_Node000018_Node000020"><a xlink:title=" ">
<path fill="none" stroke="#63b8ff" d="M261.34,-71.37C254.98,-61.69 244.52,-45.74 236.44,-33.44"/>
<polygon fill="#63b8ff" stroke="#63b8ff" points="239.26,-31.35 230.84,-24.91 233.4,-35.19 239.26,-31.35"/>
</a>
</g>
</g>
<!-- Node28&#45;&gt;Node3 -->
<g id="edge30_Node000028_Node000003" class="edge">
<title>Node28&#45;&gt;Node3</title>
<g id="a_edge30_Node000028_Node000003"><a xlink:title=" ">
<path fill="none" stroke="#63b8ff" d="M328.08,-186.98C307.95,-178.38 276.62,-164.99 253.59,-155.15"/>
<polygon fill="#63b8ff" stroke="#63b8ff" points="254.86,-151.88 244.29,-151.17 252.1,-158.32 254.86,-151.88"/>
</a>
</g>
</g>
<!-- Node28&#45;&gt;Node4 -->
<g id="edge31_Node000028_Node000004" class="edge">
<title>Node28&#45;&gt;Node4</title>
<g id="a_edge31_Node000028_Node000004"><a xlink:title=" ">
<path fill="none" stroke="#63b8ff" d="M343.38,-186.75C339.54,-179.49 333.98,-168.95 329.24,-159.98"/>
<polygon fill="#63b8ff" stroke="#63b8ff" points="332.3,-158.3 324.54,-151.09 326.11,-161.57 332.3,-158.3"/>
</a>
</g>
</g>
<!-- Node29&#45;&gt;Node4 -->
<g id="edge34_Node000029_Node000004" class="edge">
<title>Node29&#45;&gt;Node4</title>
<g id="a_edge34_Node000029_Node000004"><a xlink:title=" ">
<path fill="none" stroke="#63b8ff" d="M425.76,-186.98C405.3,-178.38 373.47,-164.99 350.07,-155.15"/>
<polygon fill="#63b8ff" stroke="#63b8ff" points="351.19,-151.82 340.61,-151.17 348.47,-158.27 351.19,-151.82"/>
</a>
</g>
</g>
<!-- Node29&#45;&gt;Node13 -->
<g id="edge33_Node000029_Node000013" class="edge">
<title>Node29&#45;&gt;Node13</title>
<g id="a_edge33_Node000029_Node000013"><a xlink:title=" ">
<path fill="none" stroke="#63b8ff" d="M431.9,-186.77C420.5,-178.9 405.06,-166.24 397,-151 377.05,-113.29 375.77,-61.76 376.77,-34.56"/>
<polygon fill="#63b8ff" stroke="#63b8ff" points="380.26,-34.67 377.28,-24.51 373.27,-34.31 380.26,-34.67"/>
</a>
</g>
</g>
</g>
</svg>
