<?xml version="1.0" encoding="UTF-8" standalone="no"?>
<!DOCTYPE svg PUBLIC "-//W3C//DTD SVG 1.1//EN"
 "http://www.w3.org/Graphics/SVG/1.1/DTD/svg11.dtd">
<!-- Generated by graphviz version 2.43.0 (0)
 -->
<!-- Title: src/ui/mainwindow.cpp Pages: 1 -->
<svg width="917pt" height="269pt"
 viewBox="0.00 0.00 917.35 269.00" xmlns="http://www.w3.org/2000/svg" xmlns:xlink="http://www.w3.org/1999/xlink">
<g id="graph0" class="graph" transform="scale(1 1) rotate(0) translate(4 265)">
<title>src/ui/mainwindow.cpp</title>
<!-- Node1 -->
<g id="Node000001" class="node">
<title>Node1</title>
<g id="a_Node000001"><a xlink:title=" ">
<polygon fill="#999999" stroke="#666666" points="675.5,-261 547.5,-261 547.5,-242 675.5,-242 675.5,-261"/>
<text text-anchor="middle" x="611.5" y="-249" font-family="Helvetica,sans-Serif" font-size="10.00">src/ui/mainwindow.cpp</text>
</a>
</g>
</g>
<!-- Node2 -->
<g id="Node000002" class="node">
<title>Node2</title>
<g id="a_Node000002"><a xlink:href="mainwindow_8hpp.html" target="_top" xlink:title=" ">
<polygon fill="white" stroke="#666666" points="253,-200.5 154,-200.5 154,-181.5 253,-181.5 253,-200.5"/>
<text text-anchor="middle" x="203.5" y="-188.5" font-family="Helvetica,sans-Serif" font-size="10.00">mainwindow.hpp</text>
</a>
</g>
</g>
<!-- Node1&#45;&gt;Node2 -->
<g id="edge1_Node000001_Node000002" class="edge">
<title>Node1&#45;&gt;Node2</title>
<g id="a_edge1_Node000001_Node000002"><a xlink:title=" ">
<path fill="none" stroke="#63b8ff" d="M552.17,-241.99C474.97,-230.92 340.81,-211.69 263.35,-200.58"/>
<polygon fill="#63b8ff" stroke="#63b8ff" points="263.67,-197.09 253.27,-199.14 262.67,-204.02 263.67,-197.09"/>
</a>
</g>
</g>
<!-- Node7 -->
<g id="Node000007" class="node">
<title>Node7</title>
<g id="a_Node000007"><a xlink:href="settings__singleton_8hpp.html" target="_top" xlink:title=" ">
<polygon fill="white" stroke="#666666" points="665,-206 558,-206 558,-176 665,-176 665,-206"/>
<text text-anchor="start" x="566" y="-194" font-family="Helvetica,sans-Serif" font-size="10.00">../settings/settings</text>
<text text-anchor="middle" x="611.5" y="-183" font-family="Helvetica,sans-Serif" font-size="10.00">_singleton.hpp</text>
</a>
</g>
</g>
<!-- Node1&#45;&gt;Node7 -->
<g id="edge6_Node000001_Node000007" class="edge">
<title>Node1&#45;&gt;Node7</title>
<g id="a_edge6_Node000001_Node000007"><a xlink:title=" ">
<path fill="none" stroke="#63b8ff" d="M611.5,-241.87C611.5,-235.11 611.5,-225.35 611.5,-216.26"/>
<polygon fill="#63b8ff" stroke="#63b8ff" points="615,-216.11 611.5,-206.11 608,-216.11 615,-216.11"/>
</a>
</g>
</g>
<!-- Node23 -->
<g id="Node000023" class="node">
<title>Node23</title>
<g id="a_Node000023"><a xlink:title=" ">
<polygon fill="#e0e0e0" stroke="#999999" points="784,-200.5 683,-200.5 683,-181.5 784,-181.5 784,-200.5"/>
<text text-anchor="middle" x="733.5" y="-188.5" font-family="Helvetica,sans-Serif" font-size="10.00">ui_mainwindow.h</text>
</a>
</g>
</g>
<!-- Node1&#45;&gt;Node23 -->
<g id="edge29_Node000001_Node000023" class="edge">
<title>Node1&#45;&gt;Node23</title>
<g id="a_edge29_Node000001_Node000023"><a xlink:title=" ">
<path fill="none" stroke="#63b8ff" d="M629.24,-241.99C649.57,-232.25 683.11,-216.16 706.64,-204.88"/>
<polygon fill="#63b8ff" stroke="#63b8ff" points="708.24,-208 715.74,-200.52 705.21,-201.68 708.24,-208"/>
</a>
</g>
</g>
<!-- Node3 -->
<g id="Node000003" class="node">
<title>Node3</title>
<g id="a_Node000003"><a xlink:href="mainmenu_8hpp.html" target="_top" xlink:title=" ">
<polygon fill="white" stroke="#666666" points="141.5,-140 51.5,-140 51.5,-121 141.5,-121 141.5,-140"/>
<text text-anchor="middle" x="96.5" y="-128" font-family="Helvetica,sans-Serif" font-size="10.00">mainmenu.hpp</text>
</a>
</g>
</g>
<!-- Node2&#45;&gt;Node3 -->
<g id="edge2_Node000002_Node000003" class="edge">
<title>Node2&#45;&gt;Node3</title>
<g id="a_edge2_Node000002_Node000003"><a xlink:title=" ">
<path fill="none" stroke="#63b8ff" d="M187.71,-181.37C170.17,-171.78 141.62,-156.17 121.13,-144.97"/>
<polygon fill="#63b8ff" stroke="#63b8ff" points="122.81,-141.89 112.35,-140.17 119.45,-148.04 122.81,-141.89"/>
</a>
</g>
</g>
<!-- Node6 -->
<g id="Node000006" class="node">
<title>Node6</title>
<g id="a_Node000006"><a xlink:title=" ">
<polygon fill="#e0e0e0" stroke="#999999" points="247,-140 160,-140 160,-121 247,-121 247,-140"/>
<text text-anchor="middle" x="203.5" y="-128" font-family="Helvetica,sans-Serif" font-size="10.00">QMainWindow</text>
</a>
</g>
</g>
<!-- Node2&#45;&gt;Node6 -->
<g id="edge5_Node000002_Node000006" class="edge">
<title>Node2&#45;&gt;Node6</title>
<g id="a_edge5_Node000002_Node000006"><a xlink:title=" ">
<path fill="none" stroke="#63b8ff" d="M203.5,-181.37C203.5,-173.25 203.5,-160.81 203.5,-150.39"/>
<polygon fill="#63b8ff" stroke="#63b8ff" points="207,-150.17 203.5,-140.17 200,-150.17 207,-150.17"/>
</a>
</g>
</g>
<!-- Node4 -->
<g id="Node000004" class="node">
<title>Node4</title>
<g id="a_Node000004"><a xlink:title=" ">
<polygon fill="#e0e0e0" stroke="#999999" points="97,-85 0,-85 0,-66 97,-66 97,-85"/>
<text text-anchor="middle" x="48.5" y="-73" font-family="Helvetica,sans-Serif" font-size="10.00">QStackedWidget</text>
</a>
</g>
</g>
<!-- Node3&#45;&gt;Node4 -->
<g id="edge3_Node000003_Node000004" class="edge">
<title>Node3&#45;&gt;Node4</title>
<g id="a_edge3_Node000003_Node000004"><a xlink:title=" ">
<path fill="none" stroke="#63b8ff" d="M88.57,-120.75C81.65,-113.11 71.43,-101.82 63.05,-92.56"/>
<polygon fill="#63b8ff" stroke="#63b8ff" points="65.59,-90.15 56.28,-85.09 60.4,-94.85 65.59,-90.15"/>
</a>
</g>
</g>
<!-- Node5 -->
<g id="Node000005" class="node">
<title>Node5</title>
<g id="a_Node000005"><a xlink:title=" ">
<polygon fill="#e0e0e0" stroke="#999999" points="174,-85 115,-85 115,-66 174,-66 174,-85"/>
<text text-anchor="middle" x="144.5" y="-73" font-family="Helvetica,sans-Serif" font-size="10.00">QWidget</text>
</a>
</g>
</g>
<!-- Node3&#45;&gt;Node5 -->
<g id="edge4_Node000003_Node000005" class="edge">
<title>Node3&#45;&gt;Node5</title>
<g id="a_edge4_Node000003_Node000005"><a xlink:title=" ">
<path fill="none" stroke="#63b8ff" d="M104.43,-120.75C111.35,-113.11 121.57,-101.82 129.95,-92.56"/>
<polygon fill="#63b8ff" stroke="#63b8ff" points="132.6,-94.85 136.72,-85.09 127.41,-90.15 132.6,-94.85"/>
</a>
</g>
</g>
<!-- Node8 -->
<g id="Node000008" class="node">
<title>Node8</title>
<g id="a_Node000008"><a xlink:href="GameButtons_8h.html" target="_top" xlink:title=" ">
<polygon fill="white" stroke="#666666" points="851.5,-30 715.5,-30 715.5,0 851.5,0 851.5,-30"/>
<text text-anchor="start" x="723.5" y="-18" font-family="Helvetica,sans-Serif" font-size="10.00">../../VGP_Data_Exchange</text>
<text text-anchor="middle" x="783.5" y="-7" font-family="Helvetica,sans-Serif" font-size="10.00">/C/GameButtons.h</text>
</a>
</g>
</g>
<!-- Node7&#45;&gt;Node8 -->
<g id="edge7_Node000007_Node000008" class="edge">
<title>Node7&#45;&gt;Node8</title>
<g id="a_edge7_Node000007_Node000008"><a xlink:title=" ">
<path fill="none" stroke="#63b8ff" d="M665.1,-177.99C668.28,-177.31 671.43,-176.64 674.5,-176 782.92,-153.35 867.61,-188.71 906.5,-85 916.58,-58.11 891.6,-41.37 861.57,-31.13"/>
<polygon fill="#63b8ff" stroke="#63b8ff" points="862.27,-27.68 851.68,-28.03 860.18,-34.36 862.27,-27.68"/>
</a>
</g>
</g>
<!-- Node9 -->
<g id="Node000009" class="node">
<title>Node9</title>
<g id="a_Node000009"><a xlink:href="input__types_8hpp.html" target="_top" xlink:title=" ">
<polygon fill="white" stroke="#666666" points="657,-85 562,-85 562,-66 657,-66 657,-85"/>
<text text-anchor="middle" x="609.5" y="-73" font-family="Helvetica,sans-Serif" font-size="10.00">input_types.hpp</text>
</a>
</g>
</g>
<!-- Node7&#45;&gt;Node9 -->
<g id="edge8_Node000007_Node000009" class="edge">
<title>Node7&#45;&gt;Node9</title>
<g id="a_edge8_Node000007_Node000009"><a xlink:title=" ">
<path fill="none" stroke="#63b8ff" d="M665.21,-177.93C721.38,-165.05 802.05,-145.73 806.5,-140 811.68,-133.33 811.77,-127.6 806.5,-121 789.31,-99.5 719.09,-87.63 667.36,-81.67"/>
<polygon fill="#63b8ff" stroke="#63b8ff" points="667.6,-78.17 657.28,-80.55 666.83,-85.13 667.6,-78.17"/>
</a>
</g>
</g>
<!-- Node12 -->
<g id="Node000012" class="node">
<title>Node12</title>
<g id="a_Node000012"><a xlink:href="keymap__profile_8hpp.html" target="_top" xlink:title=" ">
<polygon fill="white" stroke="#666666" points="455,-140 342,-140 342,-121 455,-121 455,-140"/>
<text text-anchor="middle" x="398.5" y="-128" font-family="Helvetica,sans-Serif" font-size="10.00">keymap_profile.hpp</text>
</a>
</g>
</g>
<!-- Node7&#45;&gt;Node12 -->
<g id="edge12_Node000007_Node000012" class="edge">
<title>Node7&#45;&gt;Node12</title>
<g id="a_edge12_Node000007_Node000012"><a xlink:title=" ">
<path fill="none" stroke="#63b8ff" d="M560.48,-175.99C523.4,-165.8 473.88,-152.2 439.39,-142.73"/>
<polygon fill="#63b8ff" stroke="#63b8ff" points="440.21,-139.33 429.64,-140.05 438.36,-146.08 440.21,-139.33"/>
</a>
</g>
</g>
<!-- Node14 -->
<g id="Node000014" class="node">
<title>Node14</title>
<g id="a_Node000014"><a xlink:title=" ">
<polygon fill="#e0e0e0" stroke="#999999" points="787.5,-85 731.5,-85 731.5,-66 787.5,-66 787.5,-85"/>
<text text-anchor="middle" x="759.5" y="-73" font-family="Helvetica,sans-Serif" font-size="10.00">QObject</text>
</a>
</g>
</g>
<!-- Node7&#45;&gt;Node14 -->
<g id="edge23_Node000007_Node000014" class="edge">
<title>Node7&#45;&gt;Node14</title>
<g id="a_edge23_Node000007_Node000014"><a xlink:title=" ">
<path fill="none" stroke="#63b8ff" d="M665.03,-178.1C726.42,-164.33 819.02,-143.14 821.5,-140 836.19,-121.4 810.85,-102.23 788.27,-89.89"/>
<polygon fill="#63b8ff" stroke="#63b8ff" points="789.7,-86.69 779.21,-85.19 786.48,-92.9 789.7,-86.69"/>
</a>
</g>
</g>
<!-- Node15 -->
<g id="Node000015" class="node">
<title>Node15</title>
<g id="a_Node000015"><a xlink:title=" ">
<polygon fill="#e0e0e0" stroke="#999999" points="897.5,-85 833.5,-85 833.5,-66 897.5,-66 897.5,-85"/>
<text text-anchor="middle" x="865.5" y="-73" font-family="Helvetica,sans-Serif" font-size="10.00">QSettings</text>
</a>
</g>
</g>
<!-- Node7&#45;&gt;Node15 -->
<g id="edge24_Node000007_Node000015" class="edge">
<title>Node7&#45;&gt;Node15</title>
<g id="a_edge24_Node000007_Node000015"><a xlink:title=" ">
<path fill="none" stroke="#63b8ff" d="M665.12,-178.08C668.29,-177.38 671.44,-176.68 674.5,-176 746.93,-159.95 780.11,-187.02 837.5,-140 851.16,-128.8 858.36,-109.6 862.02,-95.24"/>
<polygon fill="#63b8ff" stroke="#63b8ff" points="865.45,-95.93 864.17,-85.41 858.61,-94.43 865.45,-95.93"/>
</a>
</g>
</g>
<!-- Node16 -->
<g id="Node000016" class="node">
<title>Node16</title>
<g id="a_Node000016"><a xlink:title=" ">
<polygon fill="#e0e0e0" stroke="#999999" points="305,-85 252,-85 252,-66 305,-66 305,-85"/>
<text text-anchor="middle" x="278.5" y="-73" font-family="Helvetica,sans-Serif" font-size="10.00">QString</text>
</a>
</g>
</g>
<!-- Node7&#45;&gt;Node16 -->
<g id="edge25_Node000007_Node000016" class="edge">
<title>Node7&#45;&gt;Node16</title>
<g id="a_edge25_Node000007_Node000016"><a xlink:title=" ">
<path fill="none" stroke="#63b8ff" d="M557.92,-185.59C485.66,-178.82 361.64,-164.08 323.5,-140 306.23,-129.1 293.67,-108.94 286.28,-94.25"/>
<polygon fill="#63b8ff" stroke="#63b8ff" points="289.41,-92.7 281.99,-85.14 283.08,-95.68 289.41,-92.7"/>
</a>
</g>
</g>
<!-- Node17 -->
<g id="Node000017" class="node">
<title>Node17</title>
<g id="a_Node000017"><a xlink:title=" ">
<polygon fill="#e0e0e0" stroke="#999999" points="364.5,-85 326.5,-85 326.5,-66 364.5,-66 364.5,-85"/>
<text text-anchor="middle" x="345.5" y="-73" font-family="Helvetica,sans-Serif" font-size="10.00">map</text>
</a>
</g>
</g>
<!-- Node7&#45;&gt;Node17 -->
<g id="edge27_Node000007_Node000017" class="edge">
<title>Node7&#45;&gt;Node17</title>
<g id="a_edge27_Node000007_Node000017"><a xlink:title=" ">
<path fill="none" stroke="#63b8ff" d="M557.71,-188.27C484.86,-184.67 360.64,-173.64 332.5,-140 321.92,-127.36 327.7,-108.4 334.59,-94.49"/>
<polygon fill="#63b8ff" stroke="#63b8ff" points="337.82,-95.86 339.57,-85.41 331.69,-92.49 337.82,-95.86"/>
</a>
</g>
</g>
<!-- Node18 -->
<g id="Node000018" class="node">
<title>Node18</title>
<g id="a_Node000018"><a xlink:title=" ">
<polygon fill="#e0e0e0" stroke="#999999" points="511.5,-140 473.5,-140 473.5,-121 511.5,-121 511.5,-140"/>
<text text-anchor="middle" x="492.5" y="-128" font-family="Helvetica,sans-Serif" font-size="10.00">QDir</text>
</a>
</g>
</g>
<!-- Node7&#45;&gt;Node18 -->
<g id="edge20_Node000007_Node000018" class="edge">
<title>Node7&#45;&gt;Node18</title>
<g id="a_edge20_Node000007_Node000018"><a xlink:title=" ">
<path fill="none" stroke="#63b8ff" d="M583,-175.99C563.59,-166.45 538.07,-153.9 519.08,-144.57"/>
<polygon fill="#63b8ff" stroke="#63b8ff" points="520.59,-141.41 510.07,-140.14 517.5,-147.69 520.59,-141.41"/>
</a>
</g>
</g>
<!-- Node19 -->
<g id="Node000019" class="node">
<title>Node19</title>
<g id="a_Node000019"><a xlink:title=" ">
<polygon fill="#e0e0e0" stroke="#999999" points="571,-140 530,-140 530,-121 571,-121 571,-140"/>
<text text-anchor="middle" x="550.5" y="-128" font-family="Helvetica,sans-Serif" font-size="10.00">QList</text>
</a>
</g>
</g>
<!-- Node7&#45;&gt;Node19 -->
<g id="edge21_Node000007_Node000019" class="edge">
<title>Node7&#45;&gt;Node19</title>
<g id="a_edge21_Node000007_Node000019"><a xlink:title=" ">
<path fill="none" stroke="#63b8ff" d="M596.73,-175.84C587.79,-167.26 576.36,-156.3 567.1,-147.42"/>
<polygon fill="#63b8ff" stroke="#63b8ff" points="569.28,-144.66 559.64,-140.27 564.44,-149.71 569.28,-144.66"/>
</a>
</g>
</g>
<!-- Node20 -->
<g id="Node000020" class="node">
<title>Node20</title>
<g id="a_Node000020"><a xlink:title=" ">
<polygon fill="#e0e0e0" stroke="#999999" points="634,-140 589,-140 589,-121 634,-121 634,-140"/>
<text text-anchor="middle" x="611.5" y="-128" font-family="Helvetica,sans-Serif" font-size="10.00">QMap</text>
</a>
</g>
</g>
<!-- Node7&#45;&gt;Node20 -->
<g id="edge22_Node000007_Node000020" class="edge">
<title>Node7&#45;&gt;Node20</title>
<g id="a_edge22_Node000007_Node000020"><a xlink:title=" ">
<path fill="none" stroke="#63b8ff" d="M611.5,-175.84C611.5,-168.21 611.5,-158.7 611.5,-150.45"/>
<polygon fill="#63b8ff" stroke="#63b8ff" points="615,-150.27 611.5,-140.27 608,-150.27 615,-150.27"/>
</a>
</g>
</g>
<!-- Node21 -->
<g id="Node000021" class="node">
<title>Node21</title>
<g id="a_Node000021"><a xlink:title=" ">
<polygon fill="#e0e0e0" stroke="#999999" points="711,-140 652,-140 652,-121 711,-121 711,-140"/>
<text text-anchor="middle" x="681.5" y="-128" font-family="Helvetica,sans-Serif" font-size="10.00">QVariant</text>
</a>
</g>
</g>
<!-- Node7&#45;&gt;Node21 -->
<g id="edge26_Node000007_Node000021" class="edge">
<title>Node7&#45;&gt;Node21</title>
<g id="a_edge26_Node000007_Node000021"><a xlink:title=" ">
<path fill="none" stroke="#63b8ff" d="M628.45,-175.84C638.92,-167.09 652.36,-155.85 663.09,-146.88"/>
<polygon fill="#63b8ff" stroke="#63b8ff" points="665.58,-149.36 671.01,-140.27 661.09,-143.99 665.58,-149.36"/>
</a>
</g>
</g>
<!-- Node22 -->
<g id="Node000022" class="node">
<title>Node22</title>
<g id="a_Node000022"><a xlink:title=" ">
<polygon fill="#e0e0e0" stroke="#999999" points="797.5,-140 729.5,-140 729.5,-121 797.5,-121 797.5,-140"/>
<text text-anchor="middle" x="763.5" y="-128" font-family="Helvetica,sans-Serif" font-size="10.00">windows.h</text>
</a>
</g>
</g>
<!-- Node7&#45;&gt;Node22 -->
<g id="edge28_Node000007_Node000022" class="edge">
<title>Node7&#45;&gt;Node22</title>
<g id="a_edge28_Node000007_Node000022"><a xlink:title=" ">
<path fill="none" stroke="#63b8ff" d="M647.91,-175.99C673.38,-166.18 707.09,-153.21 731.53,-143.81"/>
<polygon fill="#63b8ff" stroke="#63b8ff" points="732.98,-147 741.05,-140.14 730.46,-140.46 732.98,-147"/>
</a>
</g>
</g>
<!-- Node9&#45;&gt;Node8 -->
<g id="edge9_Node000009_Node000008" class="edge">
<title>Node9&#45;&gt;Node8</title>
<g id="a_edge9_Node000009_Node000008"><a xlink:title=" ">
<path fill="none" stroke="#63b8ff" d="M634.8,-65.99C660.17,-57.46 699.96,-44.09 732,-33.32"/>
<polygon fill="#63b8ff" stroke="#63b8ff" points="733.3,-36.57 741.67,-30.06 731.07,-29.93 733.3,-36.57"/>
</a>
</g>
</g>
<!-- Node10 -->
<g id="Node000010" class="node">
<title>Node10</title>
<g id="a_Node000010"><a xlink:title=" ">
<polygon fill="#e0e0e0" stroke="#999999" points="451,-24.5 374,-24.5 374,-5.5 451,-5.5 451,-24.5"/>
<text text-anchor="middle" x="412.5" y="-12.5" font-family="Helvetica,sans-Serif" font-size="10.00">minwindef.h</text>
</a>
</g>
</g>
<!-- Node9&#45;&gt;Node10 -->
<g id="edge10_Node000009_Node000010" class="edge">
<title>Node9&#45;&gt;Node10</title>
<g id="a_edge10_Node000009_Node000010"><a xlink:title=" ">
<path fill="none" stroke="#63b8ff" d="M580.85,-65.99C546.57,-55.81 489.02,-38.72 450.9,-27.4"/>
<polygon fill="#63b8ff" stroke="#63b8ff" points="451.76,-24.01 441.18,-24.52 449.77,-30.72 451.76,-24.01"/>
</a>
</g>
</g>
<!-- Node11 -->
<g id="Node000011" class="node">
<title>Node11</title>
<g id="a_Node000011"><a xlink:title=" ">
<polygon fill="#e0e0e0" stroke="#999999" points="639,-24.5 580,-24.5 580,-5.5 639,-5.5 639,-24.5"/>
<text text-anchor="middle" x="609.5" y="-12.5" font-family="Helvetica,sans-Serif" font-size="10.00">qtypes.h</text>
</a>
</g>
</g>
<!-- Node9&#45;&gt;Node11 -->
<g id="edge11_Node000009_Node000011" class="edge">
<title>Node9&#45;&gt;Node11</title>
<g id="a_edge11_Node000009_Node000011"><a xlink:title=" ">
<path fill="none" stroke="#63b8ff" d="M609.5,-65.87C609.5,-57.75 609.5,-45.31 609.5,-34.89"/>
<polygon fill="#63b8ff" stroke="#63b8ff" points="613,-34.67 609.5,-24.67 606,-34.67 613,-34.67"/>
</a>
</g>
</g>
<!-- Node12&#45;&gt;Node9 -->
<g id="edge13_Node000012_Node000009" class="edge">
<title>Node12&#45;&gt;Node9</title>
<g id="a_edge13_Node000012_Node000009"><a xlink:title=" ">
<path fill="none" stroke="#63b8ff" d="M432.4,-120.98C468.52,-111.91 525.82,-97.52 565.42,-87.57"/>
<polygon fill="#63b8ff" stroke="#63b8ff" points="566.49,-90.91 575.33,-85.08 564.78,-84.12 566.49,-90.91"/>
</a>
</g>
</g>
<!-- Node12&#45;&gt;Node10 -->
<g id="edge19_Node000012_Node000010" class="edge">
<title>Node12&#45;&gt;Node10</title>
<g id="a_edge19_Node000012_Node000010"><a xlink:title=" ">
<path fill="none" stroke="#63b8ff" d="M399.55,-120.97C401.8,-102.73 407.13,-59.57 410.2,-34.64"/>
<polygon fill="#63b8ff" stroke="#63b8ff" points="413.68,-34.98 411.44,-24.63 406.74,-34.13 413.68,-34.98"/>
</a>
</g>
</g>
<!-- Node13 -->
<g id="Node000013" class="node">
<title>Node13</title>
<g id="a_Node000013"><a xlink:title=" ">
<polygon fill="#e0e0e0" stroke="#999999" points="468,-85 427,-85 427,-66 468,-66 468,-85"/>
<text text-anchor="middle" x="447.5" y="-73" font-family="Helvetica,sans-Serif" font-size="10.00">QFile</text>
</a>
</g>
</g>
<!-- Node12&#45;&gt;Node13 -->
<g id="edge14_Node000012_Node000013" class="edge">
<title>Node12&#45;&gt;Node13</title>
<g id="a_edge14_Node000012_Node000013"><a xlink:title=" ">
<path fill="none" stroke="#63b8ff" d="M406.59,-120.75C413.66,-113.11 424.09,-101.82 432.65,-92.56"/>
<polygon fill="#63b8ff" stroke="#63b8ff" points="435.34,-94.81 439.56,-85.09 430.2,-90.06 435.34,-94.81"/>
</a>
</g>
</g>
<!-- Node12&#45;&gt;Node14 -->
<g id="edge15_Node000012_Node000014" class="edge">
<title>Node12&#45;&gt;Node14</title>
<g id="a_edge15_Node000012_Node000014"><a xlink:title=" ">
<path fill="none" stroke="#63b8ff" d="M455.3,-121.16C529.6,-110.25 657.77,-91.44 721.39,-82.1"/>
<polygon fill="#63b8ff" stroke="#63b8ff" points="722.01,-85.54 731.39,-80.63 720.99,-78.62 722.01,-85.54"/>
</a>
</g>
</g>
<!-- Node12&#45;&gt;Node15 -->
<g id="edge16_Node000012_Node000015" class="edge">
<title>Node12&#45;&gt;Node15</title>
<g id="a_edge16_Node000012_Node000015"><a xlink:title=" ">
<path fill="none" stroke="#63b8ff" d="M455.02,-122.15C458.22,-121.75 461.4,-121.37 464.5,-121 611.89,-103.52 649.06,-102.07 796.5,-85 805.12,-84 814.34,-82.89 823.14,-81.82"/>
<polygon fill="#63b8ff" stroke="#63b8ff" points="823.72,-85.27 833.22,-80.58 822.86,-78.32 823.72,-85.27"/>
</a>
</g>
</g>
<!-- Node12&#45;&gt;Node16 -->
<g id="edge17_Node000012_Node000016" class="edge">
<title>Node12&#45;&gt;Node16</title>
<g id="a_edge17_Node000012_Node000016"><a xlink:title=" ">
<path fill="none" stroke="#63b8ff" d="M379.22,-120.98C359.83,-112.42 329.69,-99.11 307.43,-89.28"/>
<polygon fill="#63b8ff" stroke="#63b8ff" points="308.69,-86.01 298.13,-85.17 305.86,-92.41 308.69,-86.01"/>
</a>
</g>
</g>
<!-- Node12&#45;&gt;Node17 -->
<g id="edge18_Node000012_Node000017" class="edge">
<title>Node12&#45;&gt;Node17</title>
<g id="a_edge18_Node000012_Node000017"><a xlink:title=" ">
<path fill="none" stroke="#63b8ff" d="M389.75,-120.75C382.03,-113.03 370.6,-101.6 361.28,-92.28"/>
<polygon fill="#63b8ff" stroke="#63b8ff" points="363.64,-89.69 354.09,-85.09 358.69,-94.64 363.64,-89.69"/>
</a>
</g>
</g>
</g>
</svg>
