<?xml version="1.0" encoding="UTF-8" standalone="no"?>
<!DOCTYPE svg PUBLIC "-//W3C//DTD SVG 1.1//EN"
 "http://www.w3.org/Graphics/SVG/1.1/DTD/svg11.dtd">
<!-- Generated by graphviz version 2.43.0 (0)
 -->
<!-- Title: src/ui/mainwindow.cpp Pages: 1 -->
<svg width="866pt" height="269pt"
 viewBox="0.00 0.00 866.00 269.00" xmlns="http://www.w3.org/2000/svg" xmlns:xlink="http://www.w3.org/1999/xlink">
<g id="graph0" class="graph" transform="scale(1 1) rotate(0) translate(4 265)">
<title>src/ui/mainwindow.cpp</title>
<!-- Node1 -->
<g id="Node000001" class="node">
<title>Node1</title>
<g id="a_Node000001"><a xlink:title=" ">
<polygon fill="#999999" stroke="#666666" points="531.5,-261 403.5,-261 403.5,-242 531.5,-242 531.5,-261"/>
<text text-anchor="middle" x="467.5" y="-249" font-family="Helvetica,sans-Serif" font-size="10.00">src/ui/mainwindow.cpp</text>
</a>
</g>
</g>
<!-- Node2 -->
<g id="Node000002" class="node">
<title>Node2</title>
<g id="a_Node000002"><a xlink:href="mainwindow_8hpp.html" target="_top" xlink:title=" ">
<polygon fill="white" stroke="#666666" points="216,-200.5 117,-200.5 117,-181.5 216,-181.5 216,-200.5"/>
<text text-anchor="middle" x="166.5" y="-188.5" font-family="Helvetica,sans-Serif" font-size="10.00">mainwindow.hpp</text>
</a>
</g>
</g>
<!-- Node1&#45;&gt;Node2 -->
<g id="edge1_Node000001_Node000002" class="edge">
<title>Node1&#45;&gt;Node2</title>
<g id="a_edge1_Node000001_Node000002"><a xlink:title=" ">
<path fill="none" stroke="#63b8ff" d="M423.73,-241.99C369.9,-231.53 278.52,-213.77 220.41,-202.48"/>
<polygon fill="#63b8ff" stroke="#63b8ff" points="220.8,-198.99 210.32,-200.52 219.47,-205.86 220.8,-198.99"/>
</a>
</g>
</g>
<!-- Node4 -->
<g id="Node000004" class="node">
<title>Node4</title>
<g id="a_Node000004"><a xlink:href="settings__singleton_8hpp.html" target="_top" xlink:title=" ">
<polygon fill="white" stroke="#666666" points="463,-206 356,-206 356,-176 463,-176 463,-206"/>
<text text-anchor="start" x="364" y="-194" font-family="Helvetica,sans-Serif" font-size="10.00">../settings/settings</text>
<text text-anchor="middle" x="409.5" y="-183" font-family="Helvetica,sans-Serif" font-size="10.00">_singleton.hpp</text>
</a>
</g>
</g>
<!-- Node1&#45;&gt;Node4 -->
<g id="edge3_Node000001_Node000004" class="edge">
<title>Node1&#45;&gt;Node4</title>
<g id="a_edge3_Node000001_Node000004"><a xlink:title=" ">
<path fill="none" stroke="#63b8ff" d="M458.94,-241.87C451.51,-234.37 440.43,-223.2 430.64,-213.33"/>
<polygon fill="#63b8ff" stroke="#63b8ff" points="433.02,-210.75 423.49,-206.11 428.05,-215.68 433.02,-210.75"/>
</a>
</g>
</g>
<!-- Node18 -->
<g id="Node000018" class="node">
<title>Node18</title>
<g id="a_Node000018"><a xlink:href="mainmenu_8hpp.html" target="_top" xlink:title=" ">
<polygon fill="white" stroke="#666666" points="674.5,-200.5 584.5,-200.5 584.5,-181.5 674.5,-181.5 674.5,-200.5"/>
<text text-anchor="middle" x="629.5" y="-188.5" font-family="Helvetica,sans-Serif" font-size="10.00">mainmenu.hpp</text>
</a>
</g>
</g>
<!-- Node1&#45;&gt;Node18 -->
<g id="edge23_Node000001_Node000018" class="edge">
<title>Node1&#45;&gt;Node18</title>
<g id="a_edge23_Node000001_Node000018"><a xlink:title=" ">
<path fill="none" stroke="#63b8ff" d="M491.06,-241.99C518.77,-231.99 564.97,-215.3 596.31,-203.99"/>
<polygon fill="#63b8ff" stroke="#63b8ff" points="597.7,-207.21 605.92,-200.52 595.32,-200.62 597.7,-207.21"/>
</a>
</g>
</g>
<!-- Node21 -->
<g id="Node000021" class="node">
<title>Node21</title>
<g id="a_Node000021"><a xlink:title=" ">
<polygon fill="#e0e0e0" stroke="#999999" points="794,-200.5 693,-200.5 693,-181.5 794,-181.5 794,-200.5"/>
<text text-anchor="middle" x="743.5" y="-188.5" font-family="Helvetica,sans-Serif" font-size="10.00">ui_mainwindow.h</text>
</a>
</g>
</g>
<!-- Node1&#45;&gt;Node21 -->
<g id="edge26_Node000001_Node000021" class="edge">
<title>Node1&#45;&gt;Node21</title>
<g id="a_edge26_Node000001_Node000021"><a xlink:title=" ">
<path fill="none" stroke="#63b8ff" d="M510.6,-241.96C554.25,-233.24 623.67,-219.14 683.5,-206 688.15,-204.98 693,-203.89 697.84,-202.78"/>
<polygon fill="#63b8ff" stroke="#63b8ff" points="698.72,-206.17 707.68,-200.52 697.15,-199.35 698.72,-206.17"/>
</a>
</g>
</g>
<!-- Node3 -->
<g id="Node000003" class="node">
<title>Node3</title>
<g id="a_Node000003"><a xlink:title=" ">
<polygon fill="#e0e0e0" stroke="#999999" points="87,-140 0,-140 0,-121 87,-121 87,-140"/>
<text text-anchor="middle" x="43.5" y="-128" font-family="Helvetica,sans-Serif" font-size="10.00">QMainWindow</text>
</a>
</g>
</g>
<!-- Node2&#45;&gt;Node3 -->
<g id="edge2_Node000002_Node000003" class="edge">
<title>Node2&#45;&gt;Node3</title>
<g id="a_edge2_Node000002_Node000003"><a xlink:title=" ">
<path fill="none" stroke="#63b8ff" d="M148.61,-181.49C128.12,-171.75 94.31,-155.66 70.58,-144.38"/>
<polygon fill="#63b8ff" stroke="#63b8ff" points="71.94,-141.15 61.41,-140.02 68.93,-147.47 71.94,-141.15"/>
</a>
</g>
</g>
<!-- Node5 -->
<g id="Node000005" class="node">
<title>Node5</title>
<g id="a_Node000005"><a xlink:href="GameButtons_8h.html" target="_top" xlink:title=" ">
<polygon fill="white" stroke="#666666" points="359.5,-30 223.5,-30 223.5,0 359.5,0 359.5,-30"/>
<text text-anchor="start" x="231.5" y="-18" font-family="Helvetica,sans-Serif" font-size="10.00">../../VGP_Data_Exchange</text>
<text text-anchor="middle" x="291.5" y="-7" font-family="Helvetica,sans-Serif" font-size="10.00">/C/GameButtons.h</text>
</a>
</g>
</g>
<!-- Node4&#45;&gt;Node5 -->
<g id="edge4_Node000004_Node000005" class="edge">
<title>Node4&#45;&gt;Node5</title>
<g id="a_edge4_Node000004_Node000005"><a xlink:title=" ">
<path fill="none" stroke="#63b8ff" d="M398.34,-175.9C386.94,-161.71 368.55,-139.34 351.5,-121 335.88,-104.2 326.7,-104.43 314.5,-85 305.84,-71.19 300.06,-53.76 296.46,-39.88"/>
<polygon fill="#63b8ff" stroke="#63b8ff" points="299.85,-38.99 294.13,-30.07 293.04,-40.61 299.85,-38.99"/>
</a>
</g>
</g>
<!-- Node6 -->
<g id="Node000006" class="node">
<title>Node6</title>
<g id="a_Node000006"><a xlink:href="input__types_8hpp.html" target="_top" xlink:title=" ">
<polygon fill="white" stroke="#666666" points="419,-85 324,-85 324,-66 419,-66 419,-85"/>
<text text-anchor="middle" x="371.5" y="-73" font-family="Helvetica,sans-Serif" font-size="10.00">input_types.hpp</text>
</a>
</g>
</g>
<!-- Node4&#45;&gt;Node6 -->
<g id="edge5_Node000004_Node000006" class="edge">
<title>Node4&#45;&gt;Node6</title>
<g id="a_edge5_Node000004_Node000006"><a xlink:title=" ">
<path fill="none" stroke="#63b8ff" d="M404.69,-175.63C397.82,-155.12 385.22,-117.47 377.67,-94.93"/>
<polygon fill="#63b8ff" stroke="#63b8ff" points="380.92,-93.6 374.42,-85.23 374.28,-95.82 380.92,-93.6"/>
</a>
</g>
</g>
<!-- Node7 -->
<g id="Node000007" class="node">
<title>Node7</title>
<g id="a_Node000007"><a xlink:title=" ">
<polygon fill="#e0e0e0" stroke="#999999" points="478,-24.5 425,-24.5 425,-5.5 478,-5.5 478,-24.5"/>
<text text-anchor="middle" x="451.5" y="-12.5" font-family="Helvetica,sans-Serif" font-size="10.00">QString</text>
</a>
</g>
</g>
<!-- Node4&#45;&gt;Node7 -->
<g id="edge21_Node000004_Node000007" class="edge">
<title>Node4&#45;&gt;Node7</title>
<g id="a_edge21_Node000004_Node000007"><a xlink:title=" ">
<path fill="none" stroke="#63b8ff" d="M412.94,-175.76C420.5,-144.41 438.6,-69.46 447.03,-34.52"/>
<polygon fill="#63b8ff" stroke="#63b8ff" points="450.46,-35.23 449.4,-24.68 443.65,-33.58 450.46,-35.23"/>
</a>
</g>
</g>
<!-- Node9 -->
<g id="Node000009" class="node">
<title>Node9</title>
<g id="a_Node000009"><a xlink:href="keymap__profile_8hpp.html" target="_top" xlink:title=" ">
<polygon fill="white" stroke="#666666" points="589,-140 476,-140 476,-121 589,-121 589,-140"/>
<text text-anchor="middle" x="532.5" y="-128" font-family="Helvetica,sans-Serif" font-size="10.00">keymap_profile.hpp</text>
</a>
</g>
</g>
<!-- Node4&#45;&gt;Node9 -->
<g id="edge9_Node000004_Node000009" class="edge">
<title>Node4&#45;&gt;Node9</title>
<g id="a_edge9_Node000004_Node000009"><a xlink:title=" ">
<path fill="none" stroke="#63b8ff" d="M438.96,-175.99C459.12,-166.4 485.64,-153.79 505.3,-144.44"/>
<polygon fill="#63b8ff" stroke="#63b8ff" points="506.81,-147.6 514.34,-140.14 503.8,-141.27 506.81,-147.6"/>
</a>
</g>
</g>
<!-- Node11 -->
<g id="Node000011" class="node">
<title>Node11</title>
<g id="a_Node000011"><a xlink:title=" ">
<polygon fill="#e0e0e0" stroke="#999999" points="685.5,-85 629.5,-85 629.5,-66 685.5,-66 685.5,-85"/>
<text text-anchor="middle" x="657.5" y="-73" font-family="Helvetica,sans-Serif" font-size="10.00">QObject</text>
</a>
</g>
</g>
<!-- Node4&#45;&gt;Node11 -->
<g id="edge19_Node000004_Node000011" class="edge">
<title>Node4&#45;&gt;Node11</title>
<g id="a_edge19_Node000004_Node000011"><a xlink:title=" ">
<path fill="none" stroke="#63b8ff" d="M463.21,-183.74C502.58,-177.32 556.14,-164.61 597.5,-140 617.36,-128.18 634.83,-107.93 645.73,-93.48"/>
<polygon fill="#63b8ff" stroke="#63b8ff" points="648.58,-95.51 651.62,-85.36 642.92,-91.4 648.58,-95.51"/>
</a>
</g>
</g>
<!-- Node12 -->
<g id="Node000012" class="node">
<title>Node12</title>
<g id="a_Node000012"><a xlink:title=" ">
<polygon fill="#e0e0e0" stroke="#999999" points="767.5,-85 703.5,-85 703.5,-66 767.5,-66 767.5,-85"/>
<text text-anchor="middle" x="735.5" y="-73" font-family="Helvetica,sans-Serif" font-size="10.00">QSettings</text>
</a>
</g>
</g>
<!-- Node4&#45;&gt;Node12 -->
<g id="edge20_Node000004_Node000012" class="edge">
<title>Node4&#45;&gt;Node12</title>
<g id="a_edge20_Node000004_Node000012"><a xlink:title=" ">
<path fill="none" stroke="#63b8ff" d="M463.1,-181.87C507.17,-174.15 570.73,-160.63 623.5,-140 657.02,-126.9 692.67,-105.16 714.52,-90.83"/>
<polygon fill="#63b8ff" stroke="#63b8ff" points="716.61,-93.65 723,-85.19 712.73,-87.82 716.61,-93.65"/>
</a>
</g>
</g>
<!-- Node14 -->
<g id="Node000014" class="node">
<title>Node14</title>
<g id="a_Node000014"><a xlink:title=" ">
<polygon fill="#e0e0e0" stroke="#999999" points="143.5,-140 105.5,-140 105.5,-121 143.5,-121 143.5,-140"/>
<text text-anchor="middle" x="124.5" y="-128" font-family="Helvetica,sans-Serif" font-size="10.00">QDir</text>
</a>
</g>
</g>
<!-- Node4&#45;&gt;Node14 -->
<g id="edge16_Node000004_Node000014" class="edge">
<title>Node4&#45;&gt;Node14</title>
<g id="a_edge16_Node000004_Node000014"><a xlink:title=" ">
<path fill="none" stroke="#63b8ff" d="M355.99,-181.24C306.01,-172.68 229.16,-158.59 153.84,-140.13"/>
<polygon fill="#63b8ff" stroke="#63b8ff" points="154.26,-136.62 143.71,-137.61 152.57,-143.42 154.26,-136.62"/>
</a>
</g>
</g>
<!-- Node15 -->
<g id="Node000015" class="node">
<title>Node15</title>
<g id="a_Node000015"><a xlink:title=" ">
<polygon fill="#e0e0e0" stroke="#999999" points="203,-140 162,-140 162,-121 203,-121 203,-140"/>
<text text-anchor="middle" x="182.5" y="-128" font-family="Helvetica,sans-Serif" font-size="10.00">QList</text>
</a>
</g>
</g>
<!-- Node4&#45;&gt;Node15 -->
<g id="edge17_Node000004_Node000015" class="edge">
<title>Node4&#45;&gt;Node15</title>
<g id="a_edge17_Node000004_Node000015"><a xlink:title=" ">
<path fill="none" stroke="#63b8ff" d="M355.99,-177.07C318.33,-167.83 266.52,-154.86 212.77,-140.28"/>
<polygon fill="#63b8ff" stroke="#63b8ff" points="213.64,-136.89 203.07,-137.63 211.8,-143.64 213.64,-136.89"/>
</a>
</g>
</g>
<!-- Node16 -->
<g id="Node000016" class="node">
<title>Node16</title>
<g id="a_Node000016"><a xlink:title=" ">
<polygon fill="#e0e0e0" stroke="#999999" points="266,-140 221,-140 221,-121 266,-121 266,-140"/>
<text text-anchor="middle" x="243.5" y="-128" font-family="Helvetica,sans-Serif" font-size="10.00">QMap</text>
</a>
</g>
</g>
<!-- Node4&#45;&gt;Node16 -->
<g id="edge18_Node000004_Node000016" class="edge">
<title>Node4&#45;&gt;Node16</title>
<g id="a_edge18_Node000004_Node000016"><a xlink:title=" ">
<path fill="none" stroke="#63b8ff" d="M369.74,-175.99C340.99,-165.86 302.64,-152.34 275.78,-142.88"/>
<polygon fill="#63b8ff" stroke="#63b8ff" points="276.69,-139.49 266.1,-139.46 274.36,-146.09 276.69,-139.49"/>
</a>
</g>
</g>
<!-- Node17 -->
<g id="Node000017" class="node">
<title>Node17</title>
<g id="a_Node000017"><a xlink:title=" ">
<polygon fill="#e0e0e0" stroke="#999999" points="343,-140 284,-140 284,-121 343,-121 343,-140"/>
<text text-anchor="middle" x="313.5" y="-128" font-family="Helvetica,sans-Serif" font-size="10.00">QVariant</text>
</a>
</g>
</g>
<!-- Node4&#45;&gt;Node17 -->
<g id="edge22_Node000004_Node000017" class="edge">
<title>Node4&#45;&gt;Node17</title>
<g id="a_edge22_Node000004_Node000017"><a xlink:title=" ">
<path fill="none" stroke="#63b8ff" d="M386.26,-175.84C371.1,-166.6 351.39,-154.59 336.31,-145.4"/>
<polygon fill="#63b8ff" stroke="#63b8ff" points="337.96,-142.31 327.6,-140.09 334.32,-148.29 337.96,-142.31"/>
</a>
</g>
</g>
<!-- Node6&#45;&gt;Node5 -->
<g id="edge6_Node000006_Node000005" class="edge">
<title>Node6&#45;&gt;Node5</title>
<g id="a_edge6_Node000006_Node000005"><a xlink:title=" ">
<path fill="none" stroke="#63b8ff" d="M359.7,-65.87C349.04,-58.08 332.96,-46.32 319.09,-36.17"/>
<polygon fill="#63b8ff" stroke="#63b8ff" points="320.94,-33.19 310.8,-30.11 316.81,-38.84 320.94,-33.19"/>
</a>
</g>
</g>
<!-- Node6&#45;&gt;Node7 -->
<g id="edge7_Node000006_Node000007" class="edge">
<title>Node6&#45;&gt;Node7</title>
<g id="a_edge7_Node000006_Node000007"><a xlink:title=" ">
<path fill="none" stroke="#63b8ff" d="M383.3,-65.87C395.95,-56.62 416.24,-41.78 431.41,-30.69"/>
<polygon fill="#63b8ff" stroke="#63b8ff" points="433.64,-33.4 439.65,-24.67 429.51,-27.74 433.64,-33.4"/>
</a>
</g>
</g>
<!-- Node8 -->
<g id="Node000008" class="node">
<title>Node8</title>
<g id="a_Node000008"><a xlink:title=" ">
<polygon fill="#e0e0e0" stroke="#999999" points="407,-24.5 378,-24.5 378,-5.5 407,-5.5 407,-24.5"/>
<text text-anchor="middle" x="392.5" y="-12.5" font-family="Helvetica,sans-Serif" font-size="10.00">Qt</text>
</a>
</g>
</g>
<!-- Node6&#45;&gt;Node8 -->
<g id="edge8_Node000006_Node000008" class="edge">
<title>Node6&#45;&gt;Node8</title>
<g id="a_edge8_Node000006_Node000008"><a xlink:title=" ">
<path fill="none" stroke="#63b8ff" d="M374.6,-65.87C377.58,-57.57 382.17,-44.78 385.96,-34.22"/>
<polygon fill="#63b8ff" stroke="#63b8ff" points="389.3,-35.26 389.39,-24.67 382.72,-32.9 389.3,-35.26"/>
</a>
</g>
</g>
<!-- Node9&#45;&gt;Node6 -->
<g id="edge10_Node000009_Node000006" class="edge">
<title>Node9&#45;&gt;Node6</title>
<g id="a_edge10_Node000009_Node000006"><a xlink:title=" ">
<path fill="none" stroke="#63b8ff" d="M506.63,-120.98C479.72,-112.13 437.38,-98.19 407.27,-88.28"/>
<polygon fill="#63b8ff" stroke="#63b8ff" points="408.16,-84.88 397.57,-85.08 405.97,-91.53 408.16,-84.88"/>
</a>
</g>
</g>
<!-- Node9&#45;&gt;Node7 -->
<g id="edge14_Node000009_Node000007" class="edge">
<title>Node9&#45;&gt;Node7</title>
<g id="a_edge14_Node000009_Node000007"><a xlink:title=" ">
<path fill="none" stroke="#63b8ff" d="M547.87,-120.93C567.29,-108.98 596.59,-86.45 582.5,-66 561.47,-35.47 519.11,-23.57 488.23,-18.94"/>
<polygon fill="#63b8ff" stroke="#63b8ff" points="488.62,-15.46 478.25,-17.63 487.71,-22.4 488.62,-15.46"/>
</a>
</g>
</g>
<!-- Node10 -->
<g id="Node000010" class="node">
<title>Node10</title>
<g id="a_Node000010"><a xlink:title=" ">
<polygon fill="#e0e0e0" stroke="#999999" points="517,-85 476,-85 476,-66 517,-66 517,-85"/>
<text text-anchor="middle" x="496.5" y="-73" font-family="Helvetica,sans-Serif" font-size="10.00">QFile</text>
</a>
</g>
</g>
<!-- Node9&#45;&gt;Node10 -->
<g id="edge11_Node000009_Node000010" class="edge">
<title>Node9&#45;&gt;Node10</title>
<g id="a_edge11_Node000009_Node000010"><a xlink:title=" ">
<path fill="none" stroke="#63b8ff" d="M526.56,-120.75C521.52,-113.34 514.16,-102.5 507.99,-93.41"/>
<polygon fill="#63b8ff" stroke="#63b8ff" points="510.85,-91.39 502.33,-85.09 505.06,-95.33 510.85,-91.39"/>
</a>
</g>
</g>
<!-- Node9&#45;&gt;Node11 -->
<g id="edge12_Node000009_Node000011" class="edge">
<title>Node9&#45;&gt;Node11</title>
<g id="a_edge12_Node000009_Node000011"><a xlink:title=" ">
<path fill="none" stroke="#63b8ff" d="M552.58,-120.98C572.87,-112.38 604.46,-98.99 627.67,-89.15"/>
<polygon fill="#63b8ff" stroke="#63b8ff" points="629.21,-92.3 637.05,-85.17 626.48,-85.85 629.21,-92.3"/>
</a>
</g>
</g>
<!-- Node9&#45;&gt;Node12 -->
<g id="edge13_Node000009_Node000012" class="edge">
<title>Node9&#45;&gt;Node12</title>
<g id="a_edge13_Node000009_Node000012"><a xlink:title=" ">
<path fill="none" stroke="#63b8ff" d="M565.12,-120.98C599.99,-111.88 655.42,-97.41 693.53,-87.46"/>
<polygon fill="#63b8ff" stroke="#63b8ff" points="694.51,-90.82 703.3,-84.91 692.74,-84.05 694.51,-90.82"/>
</a>
</g>
</g>
<!-- Node13 -->
<g id="Node000013" class="node">
<title>Node13</title>
<g id="a_Node000013"><a xlink:title=" ">
<polygon fill="#e0e0e0" stroke="#999999" points="573.5,-85 535.5,-85 535.5,-66 573.5,-66 573.5,-85"/>
<text text-anchor="middle" x="554.5" y="-73" font-family="Helvetica,sans-Serif" font-size="10.00">map</text>
</a>
</g>
</g>
<!-- Node9&#45;&gt;Node13 -->
<g id="edge15_Node000009_Node000013" class="edge">
<title>Node9&#45;&gt;Node13</title>
<g id="a_edge15_Node000009_Node000013"><a xlink:title=" ">
<path fill="none" stroke="#63b8ff" d="M536.13,-120.75C539.08,-113.65 543.33,-103.4 547.01,-94.56"/>
<polygon fill="#63b8ff" stroke="#63b8ff" points="550.33,-95.67 550.93,-85.09 543.87,-92.98 550.33,-95.67"/>
</a>
</g>
</g>
<!-- Node19 -->
<g id="Node000019" class="node">
<title>Node19</title>
<g id="a_Node000019"><a xlink:title=" ">
<polygon fill="#e0e0e0" stroke="#999999" points="781,-140 684,-140 684,-121 781,-121 781,-140"/>
<text text-anchor="middle" x="732.5" y="-128" font-family="Helvetica,sans-Serif" font-size="10.00">QStackedWidget</text>
</a>
</g>
</g>
<!-- Node18&#45;&gt;Node19 -->
<g id="edge24_Node000018_Node000019" class="edge">
<title>Node18&#45;&gt;Node19</title>
<g id="a_edge24_Node000018_Node000019"><a xlink:title=" ">
<path fill="none" stroke="#63b8ff" d="M644.7,-181.37C661.51,-171.82 688.82,-156.31 708.52,-145.12"/>
<polygon fill="#63b8ff" stroke="#63b8ff" points="710.27,-148.15 717.24,-140.17 706.82,-142.06 710.27,-148.15"/>
</a>
</g>
</g>
<!-- Node20 -->
<g id="Node000020" class="node">
<title>Node20</title>
<g id="a_Node000020"><a xlink:title=" ">
<polygon fill="#e0e0e0" stroke="#999999" points="858,-140 799,-140 799,-121 858,-121 858,-140"/>
<text text-anchor="middle" x="828.5" y="-128" font-family="Helvetica,sans-Serif" font-size="10.00">QWidget</text>
</a>
</g>
</g>
<!-- Node18&#45;&gt;Node20 -->
<g id="edge25_Node000018_Node000020" class="edge">
<title>Node18&#45;&gt;Node20</title>
<g id="a_edge25_Node000018_Node000020"><a xlink:title=" ">
<path fill="none" stroke="#63b8ff" d="M658.44,-181.49C693.07,-171.31 751.2,-154.22 789.71,-142.9"/>
<polygon fill="#63b8ff" stroke="#63b8ff" points="790.92,-146.2 799.53,-140.02 788.95,-139.48 790.92,-146.2"/>
</a>
</g>
</g>
</g>
</svg>
