<?xml version="1.0" encoding="UTF-8" standalone="no"?>
<!DOCTYPE svg PUBLIC "-//W3C//DTD SVG 1.1//EN"
 "http://www.w3.org/Graphics/SVG/1.1/DTD/svg11.dtd">
<!-- Generated by graphviz version 2.43.0 (0)
 -->
<!-- Title: src/ui/mainmenu.cpp Pages: 1 -->
<svg width="1332pt" height="324pt"
 viewBox="0.00 0.00 1332.09 324.00" xmlns="http://www.w3.org/2000/svg" xmlns:xlink="http://www.w3.org/1999/xlink">
<g id="graph0" class="graph" transform="scale(1 1) rotate(0) translate(4 320)">
<title>src/ui/mainmenu.cpp</title>
<!-- Node1 -->
<g id="Node000001" class="node">
<title>Node1</title>
<g id="a_Node000001"><a xlink:title=" ">
<polygon fill="#999999" stroke="#666666" points="815.59,-316 696.59,-316 696.59,-297 815.59,-297 815.59,-316"/>
<text text-anchor="middle" x="756.09" y="-304" font-family="Helvetica,sans-Serif" font-size="10.00">src/ui/mainmenu.cpp</text>
</a>
</g>
</g>
<!-- Node2 -->
<g id="Node000002" class="node">
<title>Node2</title>
<g id="a_Node000002"><a xlink:href="mainmenu_8hpp.html" target="_top" xlink:title=" ">
<polygon fill="white" stroke="#666666" points="208.09,-261 118.09,-261 118.09,-242 208.09,-242 208.09,-261"/>
<text text-anchor="middle" x="163.09" y="-249" font-family="Helvetica,sans-Serif" font-size="10.00">mainmenu.hpp</text>
</a>
</g>
</g>
<!-- Node1&#45;&gt;Node2 -->
<g id="edge1_Node000001_Node000002" class="edge">
<title>Node1&#45;&gt;Node2</title>
<g id="a_edge1_Node000001_Node000002"><a xlink:title=" ">
<path fill="none" stroke="#63b8ff" d="M696.52,-300.18C581.45,-289.89 330.16,-267.43 218.49,-257.45"/>
<polygon fill="#63b8ff" stroke="#63b8ff" points="218.72,-253.96 208.44,-256.55 218.09,-260.93 218.72,-253.96"/>
</a>
</g>
</g>
<!-- Node3 -->
<g id="Node000003" class="node">
<title>Node3</title>
<g id="a_Node000003"><a xlink:title=" ">
<polygon fill="#e0e0e0" stroke="#999999" points="115.59,-200.5 18.59,-200.5 18.59,-181.5 115.59,-181.5 115.59,-200.5"/>
<text text-anchor="middle" x="67.09" y="-188.5" font-family="Helvetica,sans-Serif" font-size="10.00">QStackedWidget</text>
</a>
</g>
</g>
<!-- Node1&#45;&gt;Node3 -->
<g id="edge45_Node000001_Node000003" class="edge">
<title>Node1&#45;&gt;Node3</title>
<g id="a_edge45_Node000001_Node000003"><a xlink:title=" ">
<path fill="none" stroke="#63b8ff" d="M696.54,-304.5C545.98,-301.54 158.55,-291.07 109.09,-261 90.42,-249.64 78.91,-226.54 72.77,-210.2"/>
<polygon fill="#63b8ff" stroke="#63b8ff" points="76.04,-208.96 69.49,-200.63 69.42,-211.23 76.04,-208.96"/>
</a>
</g>
</g>
<!-- Node5 -->
<g id="Node000005" class="node">
<title>Node5</title>
<g id="a_Node000005"><a xlink:href="server_8hpp.html" target="_top" xlink:title=" ">
<polygon fill="white" stroke="#666666" points="1036.09,-261 902.09,-261 902.09,-242 1036.09,-242 1036.09,-261"/>
<text text-anchor="middle" x="969.09" y="-249" font-family="Helvetica,sans-Serif" font-size="10.00">../networking/server.hpp</text>
</a>
</g>
</g>
<!-- Node1&#45;&gt;Node5 -->
<g id="edge4_Node000001_Node000005" class="edge">
<title>Node1&#45;&gt;Node5</title>
<g id="a_edge4_Node000001_Node000005"><a xlink:title=" ">
<path fill="none" stroke="#63b8ff" d="M790.31,-296.98C826.85,-287.89 884.87,-273.46 924.85,-263.51"/>
<polygon fill="#63b8ff" stroke="#63b8ff" points="925.74,-266.89 934.6,-261.08 924.05,-260.1 925.74,-266.89"/>
</a>
</g>
</g>
<!-- Node9 -->
<g id="Node000009" class="node">
<title>Node9</title>
<g id="a_Node000009"><a xlink:href="preferences_8hpp.html" target="_top" xlink:title=" ">
<polygon fill="white" stroke="#666666" points="737.59,-261 642.59,-261 642.59,-242 737.59,-242 737.59,-261"/>
<text text-anchor="middle" x="690.09" y="-249" font-family="Helvetica,sans-Serif" font-size="10.00">preferences.hpp</text>
</a>
</g>
</g>
<!-- Node1&#45;&gt;Node9 -->
<g id="edge8_Node000001_Node000009" class="edge">
<title>Node1&#45;&gt;Node9</title>
<g id="a_edge8_Node000001_Node000009"><a xlink:title=" ">
<path fill="none" stroke="#63b8ff" d="M745.49,-296.98C735.64,-289.07 720.74,-277.11 708.88,-267.58"/>
<polygon fill="#63b8ff" stroke="#63b8ff" points="710.88,-264.7 700.89,-261.17 706.49,-270.16 710.88,-264.7"/>
</a>
</g>
</g>
<!-- Node31 -->
<g id="Node000031" class="node">
<title>Node31</title>
<g id="a_Node000031"><a xlink:title=" ">
<polygon fill="#e0e0e0" stroke="#999999" points="1146.09,-261 1054.09,-261 1054.09,-242 1146.09,-242 1146.09,-261"/>
<text text-anchor="middle" x="1100.09" y="-249" font-family="Helvetica,sans-Serif" font-size="10.00">ui_mainmenu.h</text>
</a>
</g>
</g>
<!-- Node1&#45;&gt;Node31 -->
<g id="edge43_Node000001_Node000031" class="edge">
<title>Node1&#45;&gt;Node31</title>
<g id="a_edge43_Node000001_Node000031"><a xlink:title=" ">
<path fill="none" stroke="#63b8ff" d="M811.5,-296.98C867.51,-288.36 956.88,-274.61 1043.84,-261.19"/>
<polygon fill="#63b8ff" stroke="#63b8ff" points="1044.53,-264.63 1053.88,-259.64 1043.46,-257.71 1044.53,-264.63"/>
</a>
</g>
</g>
<!-- Node32 -->
<g id="Node000032" class="node">
<title>Node32</title>
<g id="a_Node000032"><a xlink:title=" ">
<polygon fill="#e0e0e0" stroke="#999999" points="1244.09,-261 1164.09,-261 1164.09,-242 1244.09,-242 1244.09,-261"/>
<text text-anchor="middle" x="1204.09" y="-249" font-family="Helvetica,sans-Serif" font-size="10.00">QPushButton</text>
</a>
</g>
</g>
<!-- Node1&#45;&gt;Node32 -->
<g id="edge44_Node000001_Node000032" class="edge">
<title>Node1&#45;&gt;Node32</title>
<g id="a_edge44_Node000001_Node000032"><a xlink:title=" ">
<path fill="none" stroke="#63b8ff" d="M815.72,-299.99C891.79,-292.71 1027.62,-278.85 1153.79,-261.11"/>
<polygon fill="#63b8ff" stroke="#63b8ff" points="1154.6,-264.53 1164.01,-259.66 1153.62,-257.6 1154.6,-264.53"/>
</a>
</g>
</g>
<!-- Node2&#45;&gt;Node3 -->
<g id="edge2_Node000002_Node000003" class="edge">
<title>Node2&#45;&gt;Node3</title>
<g id="a_edge2_Node000002_Node000003"><a xlink:title=" ">
<path fill="none" stroke="#63b8ff" d="M148.93,-241.87C133.4,-232.41 108.26,-217.09 89.94,-205.92"/>
<polygon fill="#63b8ff" stroke="#63b8ff" points="91.68,-202.88 81.32,-200.67 88.03,-208.86 91.68,-202.88"/>
</a>
</g>
</g>
<!-- Node4 -->
<g id="Node000004" class="node">
<title>Node4</title>
<g id="a_Node000004"><a xlink:title=" ">
<polygon fill="#e0e0e0" stroke="#999999" points="192.59,-200.5 133.59,-200.5 133.59,-181.5 192.59,-181.5 192.59,-200.5"/>
<text text-anchor="middle" x="163.09" y="-188.5" font-family="Helvetica,sans-Serif" font-size="10.00">QWidget</text>
</a>
</g>
</g>
<!-- Node2&#45;&gt;Node4 -->
<g id="edge3_Node000002_Node000004" class="edge">
<title>Node2&#45;&gt;Node4</title>
<g id="a_edge3_Node000002_Node000004"><a xlink:title=" ">
<path fill="none" stroke="#63b8ff" d="M163.09,-241.87C163.09,-233.75 163.09,-221.31 163.09,-210.89"/>
<polygon fill="#63b8ff" stroke="#63b8ff" points="166.59,-210.67 163.09,-200.67 159.59,-210.67 166.59,-210.67"/>
</a>
</g>
</g>
<!-- Node6 -->
<g id="Node000006" class="node">
<title>Node6</title>
<g id="a_Node000006"><a xlink:title=" ">
<polygon fill="#e0e0e0" stroke="#999999" points="1144.09,-200.5 1088.09,-200.5 1088.09,-181.5 1144.09,-181.5 1144.09,-200.5"/>
<text text-anchor="middle" x="1116.09" y="-188.5" font-family="Helvetica,sans-Serif" font-size="10.00">QDialog</text>
</a>
</g>
</g>
<!-- Node5&#45;&gt;Node6 -->
<g id="edge5_Node000005_Node000006" class="edge">
<title>Node5&#45;&gt;Node6</title>
<g id="a_edge5_Node000005_Node000006"><a xlink:title=" ">
<path fill="none" stroke="#63b8ff" d="M990.47,-241.99C1015.4,-232.07 1056.81,-215.59 1085.23,-204.28"/>
<polygon fill="#63b8ff" stroke="#63b8ff" points="1086.69,-207.47 1094.69,-200.52 1084.11,-200.96 1086.69,-207.47"/>
</a>
</g>
</g>
<!-- Node7 -->
<g id="Node000007" class="node">
<title>Node7</title>
<g id="a_Node000007"><a xlink:title=" ">
<polygon fill="#e0e0e0" stroke="#999999" points="1233.59,-200.5 1162.59,-200.5 1162.59,-181.5 1233.59,-181.5 1233.59,-200.5"/>
<text text-anchor="middle" x="1198.09" y="-188.5" font-family="Helvetica,sans-Serif" font-size="10.00">QTcpServer</text>
</a>
</g>
</g>
<!-- Node5&#45;&gt;Node7 -->
<g id="edge6_Node000005_Node000007" class="edge">
<title>Node5&#45;&gt;Node7</title>
<g id="a_edge6_Node000005_Node000007"><a xlink:title=" ">
<path fill="none" stroke="#63b8ff" d="M1007.69,-241.93C1045.05,-233.45 1103.2,-219.78 1153.09,-206 1155.9,-205.22 1158.8,-204.39 1161.71,-203.54"/>
<polygon fill="#63b8ff" stroke="#63b8ff" points="1162.96,-206.82 1171.53,-200.58 1160.94,-200.11 1162.96,-206.82"/>
</a>
</g>
</g>
<!-- Node8 -->
<g id="Node000008" class="node">
<title>Node8</title>
<g id="a_Node000008"><a xlink:title=" ">
<polygon fill="#e0e0e0" stroke="#999999" points="1324.09,-200.5 1252.09,-200.5 1252.09,-181.5 1324.09,-181.5 1324.09,-200.5"/>
<text text-anchor="middle" x="1288.09" y="-188.5" font-family="Helvetica,sans-Serif" font-size="10.00">QTcpSocket</text>
</a>
</g>
</g>
<!-- Node5&#45;&gt;Node8 -->
<g id="edge7_Node000005_Node000008" class="edge">
<title>Node5&#45;&gt;Node8</title>
<g id="a_edge7_Node000005_Node000008"><a xlink:title=" ">
<path fill="none" stroke="#63b8ff" d="M1036.33,-242.27C1092.12,-234.79 1173.31,-222.43 1243.09,-206 1246.28,-205.25 1249.57,-204.39 1252.85,-203.48"/>
<polygon fill="#63b8ff" stroke="#63b8ff" points="1253.96,-206.8 1262.56,-200.63 1251.98,-200.09 1253.96,-206.8"/>
</a>
</g>
</g>
<!-- Node9&#45;&gt;Node4 -->
<g id="edge41_Node000009_Node000004" class="edge">
<title>Node9&#45;&gt;Node4</title>
<g id="a_edge41_Node000009_Node000004"><a xlink:title=" ">
<path fill="none" stroke="#63b8ff" d="M642.29,-249.51C555,-246.95 364.31,-237.86 207.09,-206 203.61,-205.29 200.01,-204.41 196.44,-203.44"/>
<polygon fill="#63b8ff" stroke="#63b8ff" points="197.18,-200 186.59,-200.51 195.18,-206.71 197.18,-200"/>
</a>
</g>
</g>
<!-- Node10 -->
<g id="Node000010" class="node">
<title>Node10</title>
<g id="a_Node000010"><a xlink:href="input__types_8hpp.html" target="_top" xlink:title=" ">
<polygon fill="white" stroke="#666666" points="966.09,-85 820.09,-85 820.09,-66 966.09,-66 966.09,-85"/>
<text text-anchor="middle" x="893.09" y="-73" font-family="Helvetica,sans-Serif" font-size="10.00">../settings/input_types.hpp</text>
</a>
</g>
</g>
<!-- Node9&#45;&gt;Node10 -->
<g id="edge9_Node000009_Node000010" class="edge">
<title>Node9&#45;&gt;Node10</title>
<g id="a_edge9_Node000009_Node000010"><a xlink:title=" ">
<path fill="none" stroke="#63b8ff" d="M737.8,-251.27C790.94,-250.13 877.81,-242.15 942.09,-206 976.13,-186.86 986.32,-176.54 1000.09,-140 1010.2,-113.19 981.11,-97.11 950.72,-87.85"/>
<polygon fill="#63b8ff" stroke="#63b8ff" points="951.43,-84.41 940.86,-85.07 949.54,-91.15 951.43,-84.41"/>
</a>
</g>
</g>
<!-- Node12 -->
<g id="Node000012" class="node">
<title>Node12</title>
<g id="a_Node000012"><a xlink:title=" ">
<polygon fill="#e0e0e0" stroke="#999999" points="528.59,-24.5 451.59,-24.5 451.59,-5.5 528.59,-5.5 528.59,-24.5"/>
<text text-anchor="middle" x="490.09" y="-12.5" font-family="Helvetica,sans-Serif" font-size="10.00">minwindef.h</text>
</a>
</g>
</g>
<!-- Node9&#45;&gt;Node12 -->
<g id="edge42_Node000009_Node000012" class="edge">
<title>Node9&#45;&gt;Node12</title>
<g id="a_edge42_Node000009_Node000012"><a xlink:title=" ">
<path fill="none" stroke="#63b8ff" d="M642.41,-244.51C587.66,-237.23 495.32,-223.68 417.09,-206 323.81,-184.92 61.33,-161.61 4.09,-85 -0.96,-78.24 -1.57,-72.27 4.09,-66 33.05,-33.91 324.05,-21.22 441.41,-17.38"/>
<polygon fill="#63b8ff" stroke="#63b8ff" points="441.66,-20.88 451.55,-17.06 441.44,-13.88 441.66,-20.88"/>
</a>
</g>
</g>
<!-- Node14 -->
<g id="Node000014" class="node">
<title>Node14</title>
<g id="a_Node000014"><a xlink:href="settings__singleton_8hpp.html" target="_top" xlink:title=" ">
<polygon fill="white" stroke="#666666" points="743.59,-206 636.59,-206 636.59,-176 743.59,-176 743.59,-206"/>
<text text-anchor="start" x="644.59" y="-194" font-family="Helvetica,sans-Serif" font-size="10.00">../settings/settings</text>
<text text-anchor="middle" x="690.09" y="-183" font-family="Helvetica,sans-Serif" font-size="10.00">_singleton.hpp</text>
</a>
</g>
</g>
<!-- Node9&#45;&gt;Node14 -->
<g id="edge13_Node000009_Node000014" class="edge">
<title>Node9&#45;&gt;Node14</title>
<g id="a_edge13_Node000009_Node000014"><a xlink:title=" ">
<path fill="none" stroke="#63b8ff" d="M690.09,-241.87C690.09,-235.11 690.09,-225.35 690.09,-216.26"/>
<polygon fill="#63b8ff" stroke="#63b8ff" points="693.59,-216.11 690.09,-206.11 686.59,-216.11 693.59,-216.11"/>
</a>
</g>
</g>
<!-- Node19 -->
<g id="Node000019" class="node">
<title>Node19</title>
<g id="a_Node000019"><a xlink:title=" ">
<polygon fill="#e0e0e0" stroke="#999999" points="755.59,-85 702.59,-85 702.59,-66 755.59,-66 755.59,-85"/>
<text text-anchor="middle" x="729.09" y="-73" font-family="Helvetica,sans-Serif" font-size="10.00">QString</text>
</a>
</g>
</g>
<!-- Node9&#45;&gt;Node19 -->
<g id="edge40_Node000009_Node000019" class="edge">
<title>Node9&#45;&gt;Node19</title>
<g id="a_edge40_Node000009_Node000019"><a xlink:title=" ">
<path fill="none" stroke="#63b8ff" d="M737.67,-248.4C805.57,-242.54 928.22,-220.69 984.09,-140 988.9,-133.06 989.53,-127.46 984.09,-121 970.2,-104.47 833.41,-87.67 766.11,-80.33"/>
<polygon fill="#63b8ff" stroke="#63b8ff" points="766.25,-76.83 755.93,-79.24 765.5,-83.79 766.25,-76.83"/>
</a>
</g>
</g>
<!-- Node26 -->
<g id="Node000026" class="node">
<title>Node26</title>
<g id="a_Node000026"><a xlink:href="buttoninputbox_8hpp.html" target="_top" xlink:title=" ">
<polygon fill="white" stroke="#666666" points="311.09,-140 199.09,-140 199.09,-121 311.09,-121 311.09,-140"/>
<text text-anchor="middle" x="255.09" y="-128" font-family="Helvetica,sans-Serif" font-size="10.00">buttoninputbox.hpp</text>
</a>
</g>
</g>
<!-- Node9&#45;&gt;Node26 -->
<g id="edge33_Node000009_Node000026" class="edge">
<title>Node9&#45;&gt;Node26</title>
<g id="a_edge33_Node000009_Node000026"><a xlink:title=" ">
<path fill="none" stroke="#63b8ff" d="M658.81,-241.94C581.7,-220.85 382.52,-166.36 296.1,-142.72"/>
<polygon fill="#63b8ff" stroke="#63b8ff" points="296.95,-139.32 286.38,-140.06 295.11,-146.08 296.95,-139.32"/>
</a>
</g>
</g>
<!-- Node11 -->
<g id="Node000011" class="node">
<title>Node11</title>
<g id="a_Node000011"><a xlink:href="GameButtons_8h.html" target="_top" xlink:title=" ">
<polygon fill="white" stroke="#666666" points="852.09,-30 716.09,-30 716.09,0 852.09,0 852.09,-30"/>
<text text-anchor="start" x="724.09" y="-18" font-family="Helvetica,sans-Serif" font-size="10.00">../../VGP_Data_Exchange</text>
<text text-anchor="middle" x="784.09" y="-7" font-family="Helvetica,sans-Serif" font-size="10.00">/C/GameButtons.h</text>
</a>
</g>
</g>
<!-- Node10&#45;&gt;Node11 -->
<g id="edge10_Node000010_Node000011" class="edge">
<title>Node10&#45;&gt;Node11</title>
<g id="a_edge10_Node000010_Node000011"><a xlink:title=" ">
<path fill="none" stroke="#63b8ff" d="M877.01,-65.87C861.88,-57.75 838.7,-45.31 819.29,-34.89"/>
<polygon fill="#63b8ff" stroke="#63b8ff" points="820.86,-31.76 810.39,-30.11 817.55,-37.93 820.86,-31.76"/>
</a>
</g>
</g>
<!-- Node10&#45;&gt;Node12 -->
<g id="edge11_Node000010_Node000012" class="edge">
<title>Node10&#45;&gt;Node12</title>
<g id="a_edge11_Node000010_Node000012"><a xlink:title=" ">
<path fill="none" stroke="#63b8ff" d="M834.49,-65.99C754.64,-54.4 613.09,-33.86 538.77,-23.07"/>
<polygon fill="#63b8ff" stroke="#63b8ff" points="539.14,-19.58 528.74,-21.61 538.13,-26.51 539.14,-19.58"/>
</a>
</g>
</g>
<!-- Node13 -->
<g id="Node000013" class="node">
<title>Node13</title>
<g id="a_Node000013"><a xlink:title=" ">
<polygon fill="#e0e0e0" stroke="#999999" points="929.59,-24.5 870.59,-24.5 870.59,-5.5 929.59,-5.5 929.59,-24.5"/>
<text text-anchor="middle" x="900.09" y="-12.5" font-family="Helvetica,sans-Serif" font-size="10.00">qtypes.h</text>
</a>
</g>
</g>
<!-- Node10&#45;&gt;Node13 -->
<g id="edge12_Node000010_Node000013" class="edge">
<title>Node10&#45;&gt;Node13</title>
<g id="a_edge12_Node000010_Node000013"><a xlink:title=" ">
<path fill="none" stroke="#63b8ff" d="M894.13,-65.87C895.1,-57.75 896.59,-45.31 897.83,-34.89"/>
<polygon fill="#63b8ff" stroke="#63b8ff" points="901.34,-35.01 899.06,-24.67 894.39,-34.18 901.34,-35.01"/>
</a>
</g>
</g>
<!-- Node14&#45;&gt;Node10 -->
<g id="edge15_Node000014_Node000010" class="edge">
<title>Node14&#45;&gt;Node10</title>
<g id="a_edge15_Node000014_Node000010"><a xlink:title=" ">
<path fill="none" stroke="#63b8ff" d="M743.86,-188.83C820.15,-185.92 953.95,-175.7 984.09,-140 1003.01,-117.59 967.24,-99.37 935.14,-88.29"/>
<polygon fill="#63b8ff" stroke="#63b8ff" points="935.95,-84.88 925.36,-85.09 933.77,-91.53 935.95,-84.88"/>
</a>
</g>
</g>
<!-- Node14&#45;&gt;Node11 -->
<g id="edge14_Node000014_Node000011" class="edge">
<title>Node14&#45;&gt;Node11</title>
<g id="a_edge14_Node000014_Node000011"><a xlink:title=" ">
<path fill="none" stroke="#63b8ff" d="M696.44,-175.82C703.25,-161.36 714.87,-138.6 728.09,-121 741.68,-102.91 752.58,-104.48 764.09,-85 772.2,-71.27 777.2,-54.05 780.17,-40.25"/>
<polygon fill="#63b8ff" stroke="#63b8ff" points="783.68,-40.52 782.14,-30.04 776.81,-39.2 783.68,-40.52"/>
</a>
</g>
</g>
<!-- Node15 -->
<g id="Node000015" class="node">
<title>Node15</title>
<g id="a_Node000015"><a xlink:href="keymap__profile_8hpp.html" target="_top" xlink:title=" ">
<polygon fill="white" stroke="#666666" points="642.59,-140 529.59,-140 529.59,-121 642.59,-121 642.59,-140"/>
<text text-anchor="middle" x="586.09" y="-128" font-family="Helvetica,sans-Serif" font-size="10.00">keymap_profile.hpp</text>
</a>
</g>
</g>
<!-- Node14&#45;&gt;Node15 -->
<g id="edge16_Node000014_Node000015" class="edge">
<title>Node14&#45;&gt;Node15</title>
<g id="a_edge16_Node000014_Node000015"><a xlink:title=" ">
<path fill="none" stroke="#63b8ff" d="M665.18,-175.99C648.6,-166.66 626.93,-154.47 610.47,-145.21"/>
<polygon fill="#63b8ff" stroke="#63b8ff" points="611.88,-141.99 601.45,-140.14 608.45,-148.09 611.88,-141.99"/>
</a>
</g>
</g>
<!-- Node17 -->
<g id="Node000017" class="node">
<title>Node17</title>
<g id="a_Node000017"><a xlink:title=" ">
<polygon fill="#e0e0e0" stroke="#999999" points="505.09,-85 449.09,-85 449.09,-66 505.09,-66 505.09,-85"/>
<text text-anchor="middle" x="477.09" y="-73" font-family="Helvetica,sans-Serif" font-size="10.00">QObject</text>
</a>
</g>
</g>
<!-- Node14&#45;&gt;Node17 -->
<g id="edge27_Node000014_Node000017" class="edge">
<title>Node14&#45;&gt;Node17</title>
<g id="a_edge27_Node000014_Node000017"><a xlink:title=" ">
<path fill="none" stroke="#63b8ff" d="M636.48,-185.88C598.31,-180.52 547.68,-168.22 512.09,-140 497.63,-128.53 488.25,-109.37 482.88,-95.09"/>
<polygon fill="#63b8ff" stroke="#63b8ff" points="486.09,-93.65 479.53,-85.33 479.47,-95.92 486.09,-93.65"/>
</a>
</g>
</g>
<!-- Node18 -->
<g id="Node000018" class="node">
<title>Node18</title>
<g id="a_Node000018"><a xlink:title=" ">
<polygon fill="#e0e0e0" stroke="#999999" points="587.09,-85 523.09,-85 523.09,-66 587.09,-66 587.09,-85"/>
<text text-anchor="middle" x="555.09" y="-73" font-family="Helvetica,sans-Serif" font-size="10.00">QSettings</text>
</a>
</g>
</g>
<!-- Node14&#45;&gt;Node18 -->
<g id="edge28_Node000014_Node000018" class="edge">
<title>Node14&#45;&gt;Node18</title>
<g id="a_edge28_Node000014_Node000018"><a xlink:title=" ">
<path fill="none" stroke="#63b8ff" d="M636.53,-181.38C592.16,-173.02 534.19,-158.84 520.09,-140 508.74,-124.83 522.83,-105.56 536.37,-92.24"/>
<polygon fill="#63b8ff" stroke="#63b8ff" points="539.08,-94.51 544.08,-85.17 534.35,-89.35 539.08,-94.51"/>
</a>
</g>
</g>
<!-- Node14&#45;&gt;Node19 -->
<g id="edge29_Node000014_Node000019" class="edge">
<title>Node14&#45;&gt;Node19</title>
<g id="a_edge29_Node000014_Node000019"><a xlink:title=" ">
<path fill="none" stroke="#63b8ff" d="M688.8,-175.75C688.03,-161.43 688.28,-138.97 695.09,-121 699.08,-110.47 706.42,-100.37 713.26,-92.45"/>
<polygon fill="#63b8ff" stroke="#63b8ff" points="715.85,-94.8 720.04,-85.07 710.7,-90.07 715.85,-94.8"/>
</a>
</g>
</g>
<!-- Node20 -->
<g id="Node000020" class="node">
<title>Node20</title>
<g id="a_Node000020"><a xlink:title=" ">
<polygon fill="#e0e0e0" stroke="#999999" points="431.09,-85 393.09,-85 393.09,-66 431.09,-66 431.09,-85"/>
<text text-anchor="middle" x="412.09" y="-73" font-family="Helvetica,sans-Serif" font-size="10.00">map</text>
</a>
</g>
</g>
<!-- Node14&#45;&gt;Node20 -->
<g id="edge31_Node000014_Node000020" class="edge">
<title>Node14&#45;&gt;Node20</title>
<g id="a_edge31_Node000014_Node000020"><a xlink:title=" ">
<path fill="none" stroke="#63b8ff" d="M636.58,-182.6C595.72,-175.52 538.85,-162.49 493.09,-140 468.19,-127.77 443.71,-107.02 428.29,-92.58"/>
<polygon fill="#63b8ff" stroke="#63b8ff" points="430.34,-89.7 420.71,-85.3 425.5,-94.75 430.34,-89.7"/>
</a>
</g>
</g>
<!-- Node21 -->
<g id="Node000021" class="node">
<title>Node21</title>
<g id="a_Node000021"><a xlink:title=" ">
<polygon fill="#e0e0e0" stroke="#999999" points="775.09,-140 737.09,-140 737.09,-121 775.09,-121 775.09,-140"/>
<text text-anchor="middle" x="756.09" y="-128" font-family="Helvetica,sans-Serif" font-size="10.00">QDir</text>
</a>
</g>
</g>
<!-- Node14&#45;&gt;Node21 -->
<g id="edge24_Node000014_Node000021" class="edge">
<title>Node14&#45;&gt;Node21</title>
<g id="a_edge24_Node000014_Node000021"><a xlink:title=" ">
<path fill="none" stroke="#63b8ff" d="M706.07,-175.84C715.84,-167.17 728.37,-156.08 738.43,-147.15"/>
<polygon fill="#63b8ff" stroke="#63b8ff" points="741.04,-149.52 746.2,-140.27 736.4,-144.28 741.04,-149.52"/>
</a>
</g>
</g>
<!-- Node22 -->
<g id="Node000022" class="node">
<title>Node22</title>
<g id="a_Node000022"><a xlink:title=" ">
<polygon fill="#e0e0e0" stroke="#999999" points="834.59,-140 793.59,-140 793.59,-121 834.59,-121 834.59,-140"/>
<text text-anchor="middle" x="814.09" y="-128" font-family="Helvetica,sans-Serif" font-size="10.00">QList</text>
</a>
</g>
</g>
<!-- Node14&#45;&gt;Node22 -->
<g id="edge25_Node000014_Node000022" class="edge">
<title>Node14&#45;&gt;Node22</title>
<g id="a_edge25_Node000014_Node000022"><a xlink:title=" ">
<path fill="none" stroke="#63b8ff" d="M719.79,-175.99C740.11,-166.4 766.85,-153.79 786.67,-144.44"/>
<polygon fill="#63b8ff" stroke="#63b8ff" points="788.23,-147.57 795.78,-140.14 785.24,-141.24 788.23,-147.57"/>
</a>
</g>
</g>
<!-- Node23 -->
<g id="Node000023" class="node">
<title>Node23</title>
<g id="a_Node000023"><a xlink:title=" ">
<polygon fill="#e0e0e0" stroke="#999999" points="897.59,-140 852.59,-140 852.59,-121 897.59,-121 897.59,-140"/>
<text text-anchor="middle" x="875.09" y="-128" font-family="Helvetica,sans-Serif" font-size="10.00">QMap</text>
</a>
</g>
</g>
<!-- Node14&#45;&gt;Node23 -->
<g id="edge26_Node000014_Node000023" class="edge">
<title>Node14&#45;&gt;Node23</title>
<g id="a_edge26_Node000014_Node000023"><a xlink:title=" ">
<path fill="none" stroke="#63b8ff" d="M734.4,-175.99C767.83,-165.42 812.89,-151.17 842.92,-141.67"/>
<polygon fill="#63b8ff" stroke="#63b8ff" points="844.01,-145 852.49,-138.65 841.9,-138.33 844.01,-145"/>
</a>
</g>
</g>
<!-- Node24 -->
<g id="Node000024" class="node">
<title>Node24</title>
<g id="a_Node000024"><a xlink:title=" ">
<polygon fill="#e0e0e0" stroke="#999999" points="974.59,-140 915.59,-140 915.59,-121 974.59,-121 974.59,-140"/>
<text text-anchor="middle" x="945.09" y="-128" font-family="Helvetica,sans-Serif" font-size="10.00">QVariant</text>
</a>
</g>
</g>
<!-- Node14&#45;&gt;Node24 -->
<g id="edge30_Node000014_Node000024" class="edge">
<title>Node14&#45;&gt;Node24</title>
<g id="a_edge30_Node000014_Node000024"><a xlink:title=" ">
<path fill="none" stroke="#63b8ff" d="M743.86,-177.67C792.15,-166.59 861.95,-150.57 905.37,-140.61"/>
<polygon fill="#63b8ff" stroke="#63b8ff" points="906.31,-143.99 915.27,-138.34 904.74,-137.17 906.31,-143.99"/>
</a>
</g>
</g>
<!-- Node25 -->
<g id="Node000025" class="node">
<title>Node25</title>
<g id="a_Node000025"><a xlink:title=" ">
<polygon fill="#e0e0e0" stroke="#999999" points="397.09,-140 329.09,-140 329.09,-121 397.09,-121 397.09,-140"/>
<text text-anchor="middle" x="363.09" y="-128" font-family="Helvetica,sans-Serif" font-size="10.00">windows.h</text>
</a>
</g>
</g>
<!-- Node14&#45;&gt;Node25 -->
<g id="edge32_Node000014_Node000025" class="edge">
<title>Node14&#45;&gt;Node25</title>
<g id="a_edge32_Node000014_Node000025"><a xlink:title=" ">
<path fill="none" stroke="#63b8ff" d="M636.46,-180.41C572.53,-168.97 466.9,-150.07 407.4,-139.43"/>
<polygon fill="#63b8ff" stroke="#63b8ff" points="407.66,-135.92 397.2,-137.6 406.42,-142.81 407.66,-135.92"/>
</a>
</g>
</g>
<!-- Node15&#45;&gt;Node10 -->
<g id="edge17_Node000015_Node000010" class="edge">
<title>Node15&#45;&gt;Node10</title>
<g id="a_edge17_Node000015_Node000010"><a xlink:title=" ">
<path fill="none" stroke="#63b8ff" d="M635.42,-120.98C689.38,-111.67 775.87,-96.74 833.57,-86.78"/>
<polygon fill="#63b8ff" stroke="#63b8ff" points="834.38,-90.19 843.64,-85.04 833.19,-83.29 834.38,-90.19"/>
</a>
</g>
</g>
<!-- Node15&#45;&gt;Node12 -->
<g id="edge23_Node000015_Node000012" class="edge">
<title>Node15&#45;&gt;Node12</title>
<g id="a_edge23_Node000015_Node000012"><a xlink:title=" ">
<path fill="none" stroke="#63b8ff" d="M590.84,-120.95C597.33,-108.01 606.97,-83.15 596.09,-66 583.29,-45.81 559.91,-33.62 538.36,-26.34"/>
<polygon fill="#63b8ff" stroke="#63b8ff" points="539.21,-22.94 528.63,-23.33 537.15,-29.63 539.21,-22.94"/>
</a>
</g>
</g>
<!-- Node16 -->
<g id="Node000016" class="node">
<title>Node16</title>
<g id="a_Node000016"><a xlink:title=" ">
<polygon fill="#e0e0e0" stroke="#999999" points="684.59,-85 643.59,-85 643.59,-66 684.59,-66 684.59,-85"/>
<text text-anchor="middle" x="664.09" y="-73" font-family="Helvetica,sans-Serif" font-size="10.00">QFile</text>
</a>
</g>
</g>
<!-- Node15&#45;&gt;Node16 -->
<g id="edge18_Node000015_Node000016" class="edge">
<title>Node15&#45;&gt;Node16</title>
<g id="a_edge18_Node000015_Node000016"><a xlink:title=" ">
<path fill="none" stroke="#63b8ff" d="M598.62,-120.98C610.49,-112.92 628.56,-100.65 642.7,-91.03"/>
<polygon fill="#63b8ff" stroke="#63b8ff" points="645.03,-93.69 651.33,-85.17 641.09,-87.9 645.03,-93.69"/>
</a>
</g>
</g>
<!-- Node15&#45;&gt;Node17 -->
<g id="edge19_Node000015_Node000017" class="edge">
<title>Node15&#45;&gt;Node17</title>
<g id="a_edge19_Node000015_Node000017"><a xlink:title=" ">
<path fill="none" stroke="#63b8ff" d="M568.58,-120.98C551.12,-112.5 524.08,-99.35 503.92,-89.54"/>
<polygon fill="#63b8ff" stroke="#63b8ff" points="505.45,-86.4 494.92,-85.17 502.39,-92.69 505.45,-86.4"/>
</a>
</g>
</g>
<!-- Node15&#45;&gt;Node18 -->
<g id="edge20_Node000015_Node000018" class="edge">
<title>Node15&#45;&gt;Node18</title>
<g id="a_edge20_Node000015_Node000018"><a xlink:title=" ">
<path fill="none" stroke="#63b8ff" d="M580.97,-120.75C576.73,-113.49 570.57,-102.95 565.32,-93.98"/>
<polygon fill="#63b8ff" stroke="#63b8ff" points="568.19,-91.95 560.12,-85.09 562.14,-95.49 568.19,-91.95"/>
</a>
</g>
</g>
<!-- Node15&#45;&gt;Node19 -->
<g id="edge21_Node000015_Node000019" class="edge">
<title>Node15&#45;&gt;Node19</title>
<g id="a_edge21_Node000015_Node000019"><a xlink:title=" ">
<path fill="none" stroke="#63b8ff" d="M609.07,-120.98C632.59,-112.27 669.38,-98.63 696.03,-88.75"/>
<polygon fill="#63b8ff" stroke="#63b8ff" points="697.54,-91.93 705.7,-85.17 695.11,-85.36 697.54,-91.93"/>
</a>
</g>
</g>
<!-- Node15&#45;&gt;Node20 -->
<g id="edge22_Node000015_Node000020" class="edge">
<title>Node15&#45;&gt;Node20</title>
<g id="a_edge22_Node000015_Node000020"><a xlink:title=" ">
<path fill="none" stroke="#63b8ff" d="M558.14,-120.98C526.06,-111.22 473.72,-95.27 441.18,-85.36"/>
<polygon fill="#63b8ff" stroke="#63b8ff" points="441.95,-81.93 431.36,-82.37 439.91,-88.63 441.95,-81.93"/>
</a>
</g>
</g>
<!-- Node26&#45;&gt;Node12 -->
<g id="edge39_Node000026_Node000012" class="edge">
<title>Node26&#45;&gt;Node12</title>
<g id="a_edge39_Node000026_Node000012"><a xlink:title=" ">
<path fill="none" stroke="#63b8ff" d="M272.9,-120.85C291.26,-111.92 320.71,-97.55 346.09,-85 363.02,-76.63 367.11,-74.25 384.09,-66 410.6,-53.12 441.04,-38.82 462.48,-28.82"/>
<polygon fill="#63b8ff" stroke="#63b8ff" points="464.06,-31.94 471.65,-24.54 461.11,-25.59 464.06,-31.94"/>
</a>
</g>
</g>
<!-- Node26&#45;&gt;Node20 -->
<g id="edge38_Node000026_Node000020" class="edge">
<title>Node26&#45;&gt;Node20</title>
<g id="a_edge38_Node000026_Node000020"><a xlink:title=" ">
<path fill="none" stroke="#63b8ff" d="M280.32,-120.98C308.39,-111.51 353.66,-96.23 383.15,-86.27"/>
<polygon fill="#63b8ff" stroke="#63b8ff" points="384.51,-89.5 392.87,-82.99 382.27,-82.87 384.51,-89.5"/>
</a>
</g>
</g>
<!-- Node27 -->
<g id="Node000027" class="node">
<title>Node27</title>
<g id="a_Node000027"><a xlink:title=" ">
<polygon fill="#e0e0e0" stroke="#999999" points="65.09,-85 13.09,-85 13.09,-66 65.09,-66 65.09,-85"/>
<text text-anchor="middle" x="39.09" y="-73" font-family="Helvetica,sans-Serif" font-size="10.00">QEvent</text>
</a>
</g>
</g>
<!-- Node26&#45;&gt;Node27 -->
<g id="edge34_Node000026_Node000027" class="edge">
<title>Node26&#45;&gt;Node27</title>
<g id="a_edge34_Node000026_Node000027"><a xlink:title=" ">
<path fill="none" stroke="#63b8ff" d="M220.39,-120.98C180.57,-111.21 115.57,-95.27 75.18,-85.35"/>
<polygon fill="#63b8ff" stroke="#63b8ff" points="75.77,-81.89 65.22,-82.91 74.1,-88.69 75.77,-81.89"/>
</a>
</g>
</g>
<!-- Node28 -->
<g id="Node000028" class="node">
<title>Node28</title>
<g id="a_Node000028"><a xlink:title=" ">
<polygon fill="#e0e0e0" stroke="#999999" points="153.09,-85 83.09,-85 83.09,-66 153.09,-66 153.09,-85"/>
<text text-anchor="middle" x="118.09" y="-73" font-family="Helvetica,sans-Serif" font-size="10.00">QKeyEvent</text>
</a>
</g>
</g>
<!-- Node26&#45;&gt;Node28 -->
<g id="edge35_Node000026_Node000028" class="edge">
<title>Node26&#45;&gt;Node28</title>
<g id="a_edge35_Node000026_Node000028"><a xlink:title=" ">
<path fill="none" stroke="#63b8ff" d="M233.08,-120.98C210.64,-112.3 175.61,-98.75 150.11,-88.88"/>
<polygon fill="#63b8ff" stroke="#63b8ff" points="151.09,-85.51 140.5,-85.17 148.57,-92.04 151.09,-85.51"/>
</a>
</g>
</g>
<!-- Node29 -->
<g id="Node000029" class="node">
<title>Node29</title>
<g id="a_Node000029"><a xlink:title=" ">
<polygon fill="#e0e0e0" stroke="#999999" points="234.59,-85 171.59,-85 171.59,-66 234.59,-66 234.59,-85"/>
<text text-anchor="middle" x="203.09" y="-73" font-family="Helvetica,sans-Serif" font-size="10.00">QLineEdit</text>
</a>
</g>
</g>
<!-- Node26&#45;&gt;Node29 -->
<g id="edge36_Node000026_Node000029" class="edge">
<title>Node26&#45;&gt;Node29</title>
<g id="a_edge36_Node000026_Node000029"><a xlink:title=" ">
<path fill="none" stroke="#63b8ff" d="M246.51,-120.75C238.93,-113.03 227.71,-101.6 218.58,-92.28"/>
<polygon fill="#63b8ff" stroke="#63b8ff" points="221.02,-89.78 211.52,-85.09 216.02,-94.68 221.02,-89.78"/>
</a>
</g>
</g>
<!-- Node30 -->
<g id="Node000030" class="node">
<title>Node30</title>
<g id="a_Node000030"><a xlink:title=" ">
<polygon fill="#e0e0e0" stroke="#999999" points="337.09,-85 253.09,-85 253.09,-66 337.09,-66 337.09,-85"/>
<text text-anchor="middle" x="295.09" y="-73" font-family="Helvetica,sans-Serif" font-size="10.00">QMouseEvent</text>
</a>
</g>
</g>
<!-- Node26&#45;&gt;Node30 -->
<g id="edge37_Node000026_Node000030" class="edge">
<title>Node26&#45;&gt;Node30</title>
<g id="a_edge37_Node000026_Node000030"><a xlink:title=" ">
<path fill="none" stroke="#63b8ff" d="M261.7,-120.75C267.35,-113.26 275.64,-102.28 282.54,-93.13"/>
<polygon fill="#63b8ff" stroke="#63b8ff" points="285.38,-95.18 288.61,-85.09 279.79,-90.96 285.38,-95.18"/>
</a>
</g>
</g>
</g>
</svg>
