<?xml version="1.0" encoding="UTF-8" standalone="no"?>
<!DOCTYPE svg PUBLIC "-//W3C//DTD SVG 1.1//EN"
 "http://www.w3.org/Graphics/SVG/1.1/DTD/svg11.dtd">
<!-- Generated by graphviz version 2.43.0 (0)
 -->
<!-- Title: src/ui/mainmenu.cpp Pages: 1 -->
<svg width="1508pt" height="324pt"
 viewBox="0.00 0.00 1508.00 324.00" xmlns="http://www.w3.org/2000/svg" xmlns:xlink="http://www.w3.org/1999/xlink">
<g id="graph0" class="graph" transform="scale(1 1) rotate(0) translate(4 320)">
<title>src/ui/mainmenu.cpp</title>
<!-- Node1 -->
<g id="Node000001" class="node">
<title>Node1</title>
<g id="a_Node000001"><a xlink:title=" ">
<polygon fill="#999999" stroke="#666666" points="828.5,-316 709.5,-316 709.5,-297 828.5,-297 828.5,-316"/>
<text text-anchor="middle" x="769" y="-304" font-family="Helvetica,sans-Serif" font-size="10.00">src/ui/mainmenu.cpp</text>
</a>
</g>
</g>
<!-- Node2 -->
<g id="Node000002" class="node">
<title>Node2</title>
<g id="a_Node000002"><a xlink:href="mainmenu_8hpp.html" target="_top" xlink:title=" ">
<polygon fill="white" stroke="#666666" points="702,-261 612,-261 612,-242 702,-242 702,-261"/>
<text text-anchor="middle" x="657" y="-249" font-family="Helvetica,sans-Serif" font-size="10.00">mainmenu.hpp</text>
</a>
</g>
</g>
<!-- Node1&#45;&gt;Node2 -->
<g id="edge1_Node000001_Node000002" class="edge">
<title>Node1&#45;&gt;Node2</title>
<g id="a_edge1_Node000001_Node000002"><a xlink:title=" ">
<path fill="none" stroke="#63b8ff" d="M751.01,-296.98C733.07,-288.5 705.28,-275.35 684.57,-265.54"/>
<polygon fill="#63b8ff" stroke="#63b8ff" points="685.86,-262.28 675.32,-261.17 682.86,-268.61 685.86,-262.28"/>
</a>
</g>
</g>
<!-- Node3 -->
<g id="Node000003" class="node">
<title>Node3</title>
<g id="a_Node000003"><a xlink:title=" ">
<polygon fill="#e0e0e0" stroke="#999999" points="546.5,-200.5 449.5,-200.5 449.5,-181.5 546.5,-181.5 546.5,-200.5"/>
<text text-anchor="middle" x="498" y="-188.5" font-family="Helvetica,sans-Serif" font-size="10.00">QStackedWidget</text>
</a>
</g>
</g>
<!-- Node1&#45;&gt;Node3 -->
<g id="edge49_Node000001_Node000003" class="edge">
<title>Node1&#45;&gt;Node3</title>
<g id="a_edge49_Node000001_Node000003"><a xlink:title=" ">
<path fill="none" stroke="#63b8ff" d="M709.34,-301.96C644.53,-296.92 546.53,-285.43 519,-261 504.83,-248.43 500.07,-226.62 498.55,-210.88"/>
<polygon fill="#63b8ff" stroke="#63b8ff" points="502.04,-210.48 497.93,-200.71 495.05,-210.91 502.04,-210.48"/>
</a>
</g>
</g>
<!-- Node5 -->
<g id="Node000005" class="node">
<title>Node5</title>
<g id="a_Node000005"><a xlink:href="server_8hpp.html" target="_top" xlink:title=" ">
<polygon fill="white" stroke="#666666" points="1288,-261 1154,-261 1154,-242 1288,-242 1288,-261"/>
<text text-anchor="middle" x="1221" y="-249" font-family="Helvetica,sans-Serif" font-size="10.00">../networking/server.hpp</text>
</a>
</g>
</g>
<!-- Node1&#45;&gt;Node5 -->
<g id="edge4_Node000001_Node000005" class="edge">
<title>Node1&#45;&gt;Node5</title>
<g id="a_edge4_Node000001_Node000005"><a xlink:title=" ">
<path fill="none" stroke="#63b8ff" d="M828.56,-298.52C909.58,-289.02 1054.64,-272.01 1143.89,-261.54"/>
<polygon fill="#63b8ff" stroke="#63b8ff" points="1144.43,-265 1153.95,-260.36 1143.61,-258.05 1144.43,-265"/>
</a>
</g>
</g>
<!-- Node10 -->
<g id="Node000010" class="node">
<title>Node10</title>
<g id="a_Node000010"><a xlink:href="about_8hpp.html" target="_top" xlink:title=" ">
<polygon fill="white" stroke="#666666" points="593.5,-261 528.5,-261 528.5,-242 593.5,-242 593.5,-261"/>
<text text-anchor="middle" x="561" y="-249" font-family="Helvetica,sans-Serif" font-size="10.00">about.hpp</text>
</a>
</g>
</g>
<!-- Node1&#45;&gt;Node10 -->
<g id="edge9_Node000001_Node000010" class="edge">
<title>Node1&#45;&gt;Node10</title>
<g id="a_edge9_Node000001_Node000010"><a xlink:title=" ">
<path fill="none" stroke="#63b8ff" d="M735.58,-296.98C699.74,-287.85 642.72,-273.32 603.66,-263.37"/>
<polygon fill="#63b8ff" stroke="#63b8ff" points="604.2,-259.9 593.65,-260.82 602.48,-266.68 604.2,-259.9"/>
</a>
</g>
</g>
<!-- Node11 -->
<g id="Node000011" class="node">
<title>Node11</title>
<g id="a_Node000011"><a xlink:href="preferences_8hpp.html" target="_top" xlink:title=" ">
<polygon fill="white" stroke="#666666" points="816.5,-261 721.5,-261 721.5,-242 816.5,-242 816.5,-261"/>
<text text-anchor="middle" x="769" y="-249" font-family="Helvetica,sans-Serif" font-size="10.00">preferences.hpp</text>
</a>
</g>
</g>
<!-- Node1&#45;&gt;Node11 -->
<g id="edge12_Node000001_Node000011" class="edge">
<title>Node1&#45;&gt;Node11</title>
<g id="a_edge12_Node000001_Node000011"><a xlink:title=" ">
<path fill="none" stroke="#63b8ff" d="M769,-296.75C769,-289.8 769,-279.85 769,-271.13"/>
<polygon fill="#63b8ff" stroke="#63b8ff" points="772.5,-271.09 769,-261.09 765.5,-271.09 772.5,-271.09"/>
</a>
</g>
</g>
<!-- Node33 -->
<g id="Node000033" class="node">
<title>Node33</title>
<g id="a_Node000033"><a xlink:title=" ">
<polygon fill="#e0e0e0" stroke="#999999" points="1398,-261 1306,-261 1306,-242 1398,-242 1398,-261"/>
<text text-anchor="middle" x="1352" y="-249" font-family="Helvetica,sans-Serif" font-size="10.00">ui_mainmenu.h</text>
</a>
</g>
</g>
<!-- Node1&#45;&gt;Node33 -->
<g id="edge47_Node000001_Node000033" class="edge">
<title>Node1&#45;&gt;Node33</title>
<g id="a_edge47_Node000001_Node000033"><a xlink:title=" ">
<path fill="none" stroke="#63b8ff" d="M828.52,-301.83C924.63,-295.61 1120.13,-281.74 1295.87,-261.05"/>
<polygon fill="#63b8ff" stroke="#63b8ff" points="1296.3,-264.53 1305.82,-259.87 1295.48,-257.58 1296.3,-264.53"/>
</a>
</g>
</g>
<!-- Node34 -->
<g id="Node000034" class="node">
<title>Node34</title>
<g id="a_Node000034"><a xlink:title=" ">
<polygon fill="#e0e0e0" stroke="#999999" points="1496,-261 1416,-261 1416,-242 1496,-242 1496,-261"/>
<text text-anchor="middle" x="1456" y="-249" font-family="Helvetica,sans-Serif" font-size="10.00">QPushButton</text>
</a>
</g>
</g>
<!-- Node1&#45;&gt;Node34 -->
<g id="edge48_Node000001_Node000034" class="edge">
<title>Node1&#45;&gt;Node34</title>
<g id="a_edge48_Node000001_Node000034"><a xlink:title=" ">
<path fill="none" stroke="#63b8ff" d="M828.56,-303.38C939.94,-298.97 1187.45,-287.07 1405.89,-261"/>
<polygon fill="#63b8ff" stroke="#63b8ff" points="1406.43,-264.46 1415.94,-259.79 1405.59,-257.51 1406.43,-264.46"/>
</a>
</g>
</g>
<!-- Node2&#45;&gt;Node3 -->
<g id="edge2_Node000002_Node000003" class="edge">
<title>Node2&#45;&gt;Node3</title>
<g id="a_edge2_Node000002_Node000003"><a xlink:title=" ">
<path fill="none" stroke="#63b8ff" d="M633.88,-241.99C606.68,-231.99 561.33,-215.3 530.58,-203.99"/>
<polygon fill="#63b8ff" stroke="#63b8ff" points="531.74,-200.68 521.15,-200.52 529.32,-207.25 531.74,-200.68"/>
</a>
</g>
</g>
<!-- Node4 -->
<g id="Node000004" class="node">
<title>Node4</title>
<g id="a_Node000004"><a xlink:title=" ">
<polygon fill="#e0e0e0" stroke="#999999" points="623.5,-200.5 564.5,-200.5 564.5,-181.5 623.5,-181.5 623.5,-200.5"/>
<text text-anchor="middle" x="594" y="-188.5" font-family="Helvetica,sans-Serif" font-size="10.00">QWidget</text>
</a>
</g>
</g>
<!-- Node2&#45;&gt;Node4 -->
<g id="edge3_Node000002_Node000004" class="edge">
<title>Node2&#45;&gt;Node4</title>
<g id="a_edge3_Node000002_Node000004"><a xlink:title=" ">
<path fill="none" stroke="#63b8ff" d="M647.7,-241.87C638.03,-232.88 622.66,-218.61 610.84,-207.64"/>
<polygon fill="#63b8ff" stroke="#63b8ff" points="613.04,-204.91 603.33,-200.67 608.28,-210.04 613.04,-204.91"/>
</a>
</g>
</g>
<!-- Node6 -->
<g id="Node000006" class="node">
<title>Node6</title>
<g id="a_Node000006"><a xlink:title=" ">
<polygon fill="#e0e0e0" stroke="#999999" points="1320,-200.5 1264,-200.5 1264,-181.5 1320,-181.5 1320,-200.5"/>
<text text-anchor="middle" x="1292" y="-188.5" font-family="Helvetica,sans-Serif" font-size="10.00">QDialog</text>
</a>
</g>
</g>
<!-- Node5&#45;&gt;Node6 -->
<g id="edge5_Node000005_Node000006" class="edge">
<title>Node5&#45;&gt;Node6</title>
<g id="a_edge5_Node000005_Node000006"><a xlink:title=" ">
<path fill="none" stroke="#63b8ff" d="M1231.48,-241.87C1242.49,-232.8 1260.04,-218.34 1273.41,-207.32"/>
<polygon fill="#63b8ff" stroke="#63b8ff" points="1275.99,-209.73 1281.48,-200.67 1271.54,-204.33 1275.99,-209.73"/>
</a>
</g>
</g>
<!-- Node7 -->
<g id="Node000007" class="node">
<title>Node7</title>
<g id="a_Node000007"><a xlink:title=" ">
<polygon fill="#e0e0e0" stroke="#999999" points="1409.5,-200.5 1338.5,-200.5 1338.5,-181.5 1409.5,-181.5 1409.5,-200.5"/>
<text text-anchor="middle" x="1374" y="-188.5" font-family="Helvetica,sans-Serif" font-size="10.00">QTcpServer</text>
</a>
</g>
</g>
<!-- Node5&#45;&gt;Node7 -->
<g id="edge6_Node000005_Node000007" class="edge">
<title>Node5&#45;&gt;Node7</title>
<g id="a_edge6_Node000005_Node000007"><a xlink:title=" ">
<path fill="none" stroke="#63b8ff" d="M1243.25,-241.99C1269.31,-232.03 1312.68,-215.45 1342.27,-204.13"/>
<polygon fill="#63b8ff" stroke="#63b8ff" points="1343.64,-207.36 1351.73,-200.52 1341.14,-200.82 1343.64,-207.36"/>
</a>
</g>
</g>
<!-- Node8 -->
<g id="Node000008" class="node">
<title>Node8</title>
<g id="a_Node000008"><a xlink:title=" ">
<polygon fill="#e0e0e0" stroke="#999999" points="1500,-200.5 1428,-200.5 1428,-181.5 1500,-181.5 1500,-200.5"/>
<text text-anchor="middle" x="1464" y="-188.5" font-family="Helvetica,sans-Serif" font-size="10.00">QTcpSocket</text>
</a>
</g>
</g>
<!-- Node5&#45;&gt;Node8 -->
<g id="edge7_Node000005_Node000008" class="edge">
<title>Node5&#45;&gt;Node8</title>
<g id="a_edge7_Node000005_Node000008"><a xlink:title=" ">
<path fill="none" stroke="#63b8ff" d="M1263.73,-241.94C1303.99,-233.62 1365.9,-220.2 1419,-206 1421.99,-205.2 1425.07,-204.33 1428.16,-203.43"/>
<polygon fill="#63b8ff" stroke="#63b8ff" points="1429.36,-206.73 1437.93,-200.5 1427.34,-200.02 1429.36,-206.73"/>
</a>
</g>
</g>
<!-- Node9 -->
<g id="Node000009" class="node">
<title>Node9</title>
<g id="a_Node000009"><a xlink:title=" ">
<polygon fill="#e0e0e0" stroke="#999999" points="1245.5,-200.5 1196.5,-200.5 1196.5,-181.5 1245.5,-181.5 1245.5,-200.5"/>
<text text-anchor="middle" x="1221" y="-188.5" font-family="Helvetica,sans-Serif" font-size="10.00">QTime</text>
</a>
</g>
</g>
<!-- Node5&#45;&gt;Node9 -->
<g id="edge8_Node000005_Node000009" class="edge">
<title>Node5&#45;&gt;Node9</title>
<g id="a_edge8_Node000005_Node000009"><a xlink:title=" ">
<path fill="none" stroke="#63b8ff" d="M1221,-241.87C1221,-233.75 1221,-221.31 1221,-210.89"/>
<polygon fill="#63b8ff" stroke="#63b8ff" points="1224.5,-210.67 1221,-200.67 1217.5,-210.67 1224.5,-210.67"/>
</a>
</g>
</g>
<!-- Node10&#45;&gt;Node3 -->
<g id="edge10_Node000010_Node000003" class="edge">
<title>Node10&#45;&gt;Node3</title>
<g id="a_edge10_Node000010_Node000003"><a xlink:title=" ">
<path fill="none" stroke="#63b8ff" d="M551.7,-241.87C542.03,-232.88 526.66,-218.61 514.84,-207.64"/>
<polygon fill="#63b8ff" stroke="#63b8ff" points="517.04,-204.91 507.33,-200.67 512.28,-210.04 517.04,-204.91"/>
</a>
</g>
</g>
<!-- Node10&#45;&gt;Node4 -->
<g id="edge11_Node000010_Node000004" class="edge">
<title>Node10&#45;&gt;Node4</title>
<g id="a_edge11_Node000010_Node000004"><a xlink:title=" ">
<path fill="none" stroke="#63b8ff" d="M565.87,-241.87C570.65,-233.4 578.07,-220.24 584.09,-209.57"/>
<polygon fill="#63b8ff" stroke="#63b8ff" points="587.25,-211.1 589.11,-200.67 581.15,-207.66 587.25,-211.1"/>
</a>
</g>
</g>
<!-- Node11&#45;&gt;Node4 -->
<g id="edge45_Node000011_Node000004" class="edge">
<title>Node11&#45;&gt;Node4</title>
<g id="a_edge45_Node000011_Node000004"><a xlink:title=" ">
<path fill="none" stroke="#63b8ff" d="M743.55,-241.99C713.36,-231.9 662.84,-215.01 628.98,-203.69"/>
<polygon fill="#63b8ff" stroke="#63b8ff" points="630.07,-200.37 619.48,-200.52 627.85,-207.01 630.07,-200.37"/>
</a>
</g>
</g>
<!-- Node12 -->
<g id="Node000012" class="node">
<title>Node12</title>
<g id="a_Node000012"><a xlink:href="input__types_8hpp.html" target="_top" xlink:title=" ">
<polygon fill="white" stroke="#666666" points="1228,-85 1082,-85 1082,-66 1228,-66 1228,-85"/>
<text text-anchor="middle" x="1155" y="-73" font-family="Helvetica,sans-Serif" font-size="10.00">../settings/input_types.hpp</text>
</a>
</g>
</g>
<!-- Node11&#45;&gt;Node12 -->
<g id="edge13_Node000011_Node000012" class="edge">
<title>Node11&#45;&gt;Node12</title>
<g id="a_edge13_Node000011_Node000012"><a xlink:title=" ">
<path fill="none" stroke="#63b8ff" d="M816.7,-245.71C859.37,-240.15 922.9,-228.66 974,-206 1041.15,-176.22 1108.39,-119.25 1138.55,-91.9"/>
<polygon fill="#63b8ff" stroke="#63b8ff" points="1141.05,-94.36 1146.04,-85.01 1136.31,-89.2 1141.05,-94.36"/>
</a>
</g>
</g>
<!-- Node14 -->
<g id="Node000014" class="node">
<title>Node14</title>
<g id="a_Node000014"><a xlink:title=" ">
<polygon fill="#e0e0e0" stroke="#999999" points="512.5,-24.5 435.5,-24.5 435.5,-5.5 512.5,-5.5 512.5,-24.5"/>
<text text-anchor="middle" x="474" y="-12.5" font-family="Helvetica,sans-Serif" font-size="10.00">minwindef.h</text>
</a>
</g>
</g>
<!-- Node11&#45;&gt;Node14 -->
<g id="edge46_Node000011_Node000014" class="edge">
<title>Node11&#45;&gt;Node14</title>
<g id="a_edge46_Node000011_Node000014"><a xlink:title=" ">
<path fill="none" stroke="#63b8ff" d="M757.19,-241.74C730.8,-222.16 669.26,-176.53 668,-176 579.21,-138.34 537.42,-188.41 454,-140 420.71,-120.68 392,-100.53 409,-66 416.79,-50.18 432.26,-37.96 446.15,-29.57"/>
<polygon fill="#63b8ff" stroke="#63b8ff" points="447.97,-32.56 454.96,-24.6 444.53,-26.46 447.97,-32.56"/>
</a>
</g>
</g>
<!-- Node16 -->
<g id="Node000016" class="node">
<title>Node16</title>
<g id="a_Node000016"><a xlink:href="settings__singleton_8hpp.html" target="_top" xlink:title=" ">
<polygon fill="white" stroke="#666666" points="825.5,-206 718.5,-206 718.5,-176 825.5,-176 825.5,-206"/>
<text text-anchor="start" x="726.5" y="-194" font-family="Helvetica,sans-Serif" font-size="10.00">../settings/settings</text>
<text text-anchor="middle" x="772" y="-183" font-family="Helvetica,sans-Serif" font-size="10.00">_singleton.hpp</text>
</a>
</g>
</g>
<!-- Node11&#45;&gt;Node16 -->
<g id="edge17_Node000011_Node000016" class="edge">
<title>Node11&#45;&gt;Node16</title>
<g id="a_edge17_Node000011_Node000016"><a xlink:title=" ">
<path fill="none" stroke="#63b8ff" d="M769.44,-241.87C769.79,-235.11 770.29,-225.35 770.76,-216.26"/>
<polygon fill="#63b8ff" stroke="#63b8ff" points="774.26,-216.28 771.28,-206.11 767.27,-215.92 774.26,-216.28"/>
</a>
</g>
</g>
<!-- Node21 -->
<g id="Node000021" class="node">
<title>Node21</title>
<g id="a_Node000021"><a xlink:title=" ">
<polygon fill="#e0e0e0" stroke="#999999" points="1025.5,-85 972.5,-85 972.5,-66 1025.5,-66 1025.5,-85"/>
<text text-anchor="middle" x="999" y="-73" font-family="Helvetica,sans-Serif" font-size="10.00">QString</text>
</a>
</g>
</g>
<!-- Node11&#45;&gt;Node21 -->
<g id="edge44_Node000011_Node000021" class="edge">
<title>Node11&#45;&gt;Node21</title>
<g id="a_edge44_Node000011_Node000021"><a xlink:title=" ">
<path fill="none" stroke="#63b8ff" d="M816.69,-244.5C874.96,-234.33 971.19,-207.71 1015,-140 1023.95,-126.17 1017.65,-107.67 1010.49,-94.2"/>
<polygon fill="#63b8ff" stroke="#63b8ff" points="1013.42,-92.27 1005.33,-85.42 1007.38,-95.82 1013.42,-92.27"/>
</a>
</g>
</g>
<!-- Node28 -->
<g id="Node000028" class="node">
<title>Node28</title>
<g id="a_Node000028"><a xlink:href="buttoninputbox_8hpp.html" target="_top" xlink:title=" ">
<polygon fill="white" stroke="#666666" points="338,-140 226,-140 226,-121 338,-121 338,-140"/>
<text text-anchor="middle" x="282" y="-128" font-family="Helvetica,sans-Serif" font-size="10.00">buttoninputbox.hpp</text>
</a>
</g>
</g>
<!-- Node11&#45;&gt;Node28 -->
<g id="edge37_Node000011_Node000028" class="edge">
<title>Node11&#45;&gt;Node28</title>
<g id="a_edge37_Node000011_Node000028"><a xlink:title=" ">
<path fill="none" stroke="#63b8ff" d="M748.96,-241.97C729.81,-233.58 700.35,-220.02 676,-206 655.49,-194.19 654.13,-184.39 632,-176 606.1,-166.18 442.02,-148.02 347.99,-138.2"/>
<polygon fill="#63b8ff" stroke="#63b8ff" points="348.31,-134.72 338,-137.17 347.59,-141.68 348.31,-134.72"/>
</a>
</g>
</g>
<!-- Node13 -->
<g id="Node000013" class="node">
<title>Node13</title>
<g id="a_Node000013"><a xlink:href="GameButtons_8h.html" target="_top" xlink:title=" ">
<polygon fill="white" stroke="#666666" points="1122,-30 986,-30 986,0 1122,0 1122,-30"/>
<text text-anchor="start" x="994" y="-18" font-family="Helvetica,sans-Serif" font-size="10.00">../../VGP_Data_Exchange</text>
<text text-anchor="middle" x="1054" y="-7" font-family="Helvetica,sans-Serif" font-size="10.00">/C/GameButtons.h</text>
</a>
</g>
</g>
<!-- Node12&#45;&gt;Node13 -->
<g id="edge14_Node000012_Node000013" class="edge">
<title>Node12&#45;&gt;Node13</title>
<g id="a_edge14_Node000012_Node000013"><a xlink:title=" ">
<path fill="none" stroke="#63b8ff" d="M1140.1,-65.87C1126.27,-57.86 1105.19,-45.65 1087.35,-35.31"/>
<polygon fill="#63b8ff" stroke="#63b8ff" points="1088.78,-32.1 1078.37,-30.11 1085.27,-38.16 1088.78,-32.1"/>
</a>
</g>
</g>
<!-- Node12&#45;&gt;Node14 -->
<g id="edge15_Node000012_Node000014" class="edge">
<title>Node12&#45;&gt;Node14</title>
<g id="a_edge15_Node000012_Node000014"><a xlink:title=" ">
<path fill="none" stroke="#63b8ff" d="M1081.8,-68.21C942.08,-56.21 640.79,-30.33 522.8,-20.19"/>
<polygon fill="#63b8ff" stroke="#63b8ff" points="522.89,-16.69 512.63,-19.32 522.29,-23.66 522.89,-16.69"/>
</a>
</g>
</g>
<!-- Node15 -->
<g id="Node000015" class="node">
<title>Node15</title>
<g id="a_Node000015"><a xlink:title=" ">
<polygon fill="#e0e0e0" stroke="#999999" points="1199.5,-24.5 1140.5,-24.5 1140.5,-5.5 1199.5,-5.5 1199.5,-24.5"/>
<text text-anchor="middle" x="1170" y="-12.5" font-family="Helvetica,sans-Serif" font-size="10.00">qtypes.h</text>
</a>
</g>
</g>
<!-- Node12&#45;&gt;Node15 -->
<g id="edge16_Node000012_Node000015" class="edge">
<title>Node12&#45;&gt;Node15</title>
<g id="a_edge16_Node000012_Node000015"><a xlink:title=" ">
<path fill="none" stroke="#63b8ff" d="M1157.21,-65.87C1159.32,-57.66 1162.55,-45.04 1165.24,-34.55"/>
<polygon fill="#63b8ff" stroke="#63b8ff" points="1168.68,-35.22 1167.78,-24.67 1161.9,-33.48 1168.68,-35.22"/>
</a>
</g>
</g>
<!-- Node16&#45;&gt;Node12 -->
<g id="edge19_Node000016_Node000012" class="edge">
<title>Node16&#45;&gt;Node12</title>
<g id="a_edge19_Node000016_Node000012"><a xlink:title=" ">
<path fill="none" stroke="#63b8ff" d="M825.65,-188.31C886.58,-184.75 987.92,-173.76 1068,-140 1095.29,-128.5 1122.12,-106.92 1138.6,-92.14"/>
<polygon fill="#63b8ff" stroke="#63b8ff" points="1141.24,-94.46 1146.23,-85.12 1136.5,-89.31 1141.24,-94.46"/>
</a>
</g>
</g>
<!-- Node16&#45;&gt;Node13 -->
<g id="edge18_Node000016_Node000013" class="edge">
<title>Node16&#45;&gt;Node13</title>
<g id="a_edge18_Node000016_Node000013"><a xlink:title=" ">
<path fill="none" stroke="#63b8ff" d="M825.7,-185.13C888.49,-178.4 987.37,-164.26 1015,-140 1043.74,-114.76 1051.52,-68.58 1053.5,-40.26"/>
<polygon fill="#63b8ff" stroke="#63b8ff" points="1057,-40.18 1054.01,-30.01 1050.01,-39.83 1057,-40.18"/>
</a>
</g>
</g>
<!-- Node17 -->
<g id="Node000017" class="node">
<title>Node17</title>
<g id="a_Node000017"><a xlink:href="keymap__profile_8hpp.html" target="_top" xlink:title=" ">
<polygon fill="white" stroke="#666666" points="607.5,-140 494.5,-140 494.5,-121 607.5,-121 607.5,-140"/>
<text text-anchor="middle" x="551" y="-128" font-family="Helvetica,sans-Serif" font-size="10.00">keymap_profile.hpp</text>
</a>
</g>
</g>
<!-- Node16&#45;&gt;Node17 -->
<g id="edge20_Node000016_Node000017" class="edge">
<title>Node16&#45;&gt;Node17</title>
<g id="a_edge20_Node000016_Node000017"><a xlink:title=" ">
<path fill="none" stroke="#63b8ff" d="M719.06,-175.99C680.59,-165.8 629.21,-152.2 593.43,-142.73"/>
<polygon fill="#63b8ff" stroke="#63b8ff" points="593.88,-139.23 583.31,-140.05 592.09,-146 593.88,-139.23"/>
</a>
</g>
</g>
<!-- Node19 -->
<g id="Node000019" class="node">
<title>Node19</title>
<g id="a_Node000019"><a xlink:title=" ">
<polygon fill="#e0e0e0" stroke="#999999" points="530,-85 474,-85 474,-66 530,-66 530,-85"/>
<text text-anchor="middle" x="502" y="-73" font-family="Helvetica,sans-Serif" font-size="10.00">QObject</text>
</a>
</g>
</g>
<!-- Node16&#45;&gt;Node19 -->
<g id="edge31_Node000016_Node000019" class="edge">
<title>Node16&#45;&gt;Node19</title>
<g id="a_edge31_Node000016_Node000019"><a xlink:title=" ">
<path fill="none" stroke="#63b8ff" d="M718.22,-178.72C713.41,-177.78 708.62,-176.86 704,-176 655.5,-167.03 516.92,-177.6 485,-140 474.08,-127.14 481.45,-107.95 489.62,-94.03"/>
<polygon fill="#63b8ff" stroke="#63b8ff" points="492.72,-95.68 495.19,-85.38 486.83,-91.89 492.72,-95.68"/>
</a>
</g>
</g>
<!-- Node20 -->
<g id="Node000020" class="node">
<title>Node20</title>
<g id="a_Node000020"><a xlink:title=" ">
<polygon fill="#e0e0e0" stroke="#999999" points="710,-85 646,-85 646,-66 710,-66 710,-85"/>
<text text-anchor="middle" x="678" y="-73" font-family="Helvetica,sans-Serif" font-size="10.00">QSettings</text>
</a>
</g>
</g>
<!-- Node16&#45;&gt;Node20 -->
<g id="edge32_Node000016_Node000020" class="edge">
<title>Node16&#45;&gt;Node20</title>
<g id="a_edge32_Node000016_Node000020"><a xlink:title=" ">
<path fill="none" stroke="#63b8ff" d="M718.27,-180.77C694.68,-173.76 669.18,-161.48 655,-140 645.55,-125.69 654.41,-107 663.73,-93.61"/>
<polygon fill="#63b8ff" stroke="#63b8ff" points="666.78,-95.39 670.05,-85.31 661.21,-91.15 666.78,-95.39"/>
</a>
</g>
</g>
<!-- Node16&#45;&gt;Node21 -->
<g id="edge33_Node000016_Node000021" class="edge">
<title>Node16&#45;&gt;Node21</title>
<g id="a_edge33_Node000016_Node000021"><a xlink:title=" ">
<path fill="none" stroke="#63b8ff" d="M825.62,-185.54C885.09,-179.37 975.53,-165.92 997,-140 1007.22,-127.67 1006.49,-108.9 1003.94,-94.96"/>
<polygon fill="#63b8ff" stroke="#63b8ff" points="1007.32,-94.01 1001.69,-85.03 1000.49,-95.56 1007.32,-94.01"/>
</a>
</g>
</g>
<!-- Node22 -->
<g id="Node000022" class="node">
<title>Node22</title>
<g id="a_Node000022"><a xlink:title=" ">
<polygon fill="#e0e0e0" stroke="#999999" points="456,-85 418,-85 418,-66 456,-66 456,-85"/>
<text text-anchor="middle" x="437" y="-73" font-family="Helvetica,sans-Serif" font-size="10.00">map</text>
</a>
</g>
</g>
<!-- Node16&#45;&gt;Node22 -->
<g id="edge35_Node000016_Node000022" class="edge">
<title>Node16&#45;&gt;Node22</title>
<g id="a_edge35_Node000016_Node000022"><a xlink:title=" ">
<path fill="none" stroke="#63b8ff" d="M718.22,-178.69C713.42,-177.75 708.62,-176.84 704,-176 603.07,-157.65 561.34,-196.93 476,-140 459.89,-129.25 449.29,-109.37 443.26,-94.7"/>
<polygon fill="#63b8ff" stroke="#63b8ff" points="446.46,-93.28 439.66,-85.15 439.91,-95.74 446.46,-93.28"/>
</a>
</g>
</g>
<!-- Node23 -->
<g id="Node000023" class="node">
<title>Node23</title>
<g id="a_Node000023"><a xlink:title=" ">
<polygon fill="#e0e0e0" stroke="#999999" points="702,-140 664,-140 664,-121 702,-121 702,-140"/>
<text text-anchor="middle" x="683" y="-128" font-family="Helvetica,sans-Serif" font-size="10.00">QDir</text>
</a>
</g>
</g>
<!-- Node16&#45;&gt;Node23 -->
<g id="edge28_Node000016_Node000023" class="edge">
<title>Node16&#45;&gt;Node23</title>
<g id="a_edge28_Node000016_Node000023"><a xlink:title=" ">
<path fill="none" stroke="#63b8ff" d="M750.46,-175.84C736.53,-166.68 718.47,-154.82 704.55,-145.66"/>
<polygon fill="#63b8ff" stroke="#63b8ff" points="706.35,-142.66 696.08,-140.09 702.51,-148.51 706.35,-142.66"/>
</a>
</g>
</g>
<!-- Node24 -->
<g id="Node000024" class="node">
<title>Node24</title>
<g id="a_Node000024"><a xlink:title=" ">
<polygon fill="#e0e0e0" stroke="#999999" points="761.5,-140 720.5,-140 720.5,-121 761.5,-121 761.5,-140"/>
<text text-anchor="middle" x="741" y="-128" font-family="Helvetica,sans-Serif" font-size="10.00">QList</text>
</a>
</g>
</g>
<!-- Node16&#45;&gt;Node24 -->
<g id="edge29_Node000016_Node000024" class="edge">
<title>Node16&#45;&gt;Node24</title>
<g id="a_edge29_Node000016_Node000024"><a xlink:title=" ">
<path fill="none" stroke="#63b8ff" d="M764.5,-175.84C760.27,-167.87 754.96,-157.84 750.45,-149.33"/>
<polygon fill="#63b8ff" stroke="#63b8ff" points="753.42,-147.46 745.65,-140.27 747.23,-150.74 753.42,-147.46"/>
</a>
</g>
</g>
<!-- Node25 -->
<g id="Node000025" class="node">
<title>Node25</title>
<g id="a_Node000025"><a xlink:title=" ">
<polygon fill="#e0e0e0" stroke="#999999" points="824.5,-140 779.5,-140 779.5,-121 824.5,-121 824.5,-140"/>
<text text-anchor="middle" x="802" y="-128" font-family="Helvetica,sans-Serif" font-size="10.00">QMap</text>
</a>
</g>
</g>
<!-- Node16&#45;&gt;Node25 -->
<g id="edge30_Node000016_Node000025" class="edge">
<title>Node16&#45;&gt;Node25</title>
<g id="a_edge30_Node000016_Node000025"><a xlink:title=" ">
<path fill="none" stroke="#63b8ff" d="M779.26,-175.84C783.35,-167.87 788.49,-157.84 792.86,-149.33"/>
<polygon fill="#63b8ff" stroke="#63b8ff" points="796.06,-150.76 797.5,-140.27 789.83,-147.57 796.06,-150.76"/>
</a>
</g>
</g>
<!-- Node26 -->
<g id="Node000026" class="node">
<title>Node26</title>
<g id="a_Node000026"><a xlink:title=" ">
<polygon fill="#e0e0e0" stroke="#999999" points="901.5,-140 842.5,-140 842.5,-121 901.5,-121 901.5,-140"/>
<text text-anchor="middle" x="872" y="-128" font-family="Helvetica,sans-Serif" font-size="10.00">QVariant</text>
</a>
</g>
</g>
<!-- Node16&#45;&gt;Node26 -->
<g id="edge34_Node000016_Node000026" class="edge">
<title>Node16&#45;&gt;Node26</title>
<g id="a_edge34_Node000016_Node000026"><a xlink:title=" ">
<path fill="none" stroke="#63b8ff" d="M795.95,-175.99C811.89,-166.66 832.73,-154.47 848.56,-145.21"/>
<polygon fill="#63b8ff" stroke="#63b8ff" points="850.37,-148.21 857.23,-140.14 846.83,-142.17 850.37,-148.21"/>
</a>
</g>
</g>
<!-- Node27 -->
<g id="Node000027" class="node">
<title>Node27</title>
<g id="a_Node000027"><a xlink:title=" ">
<polygon fill="#e0e0e0" stroke="#999999" points="988,-140 920,-140 920,-121 988,-121 988,-140"/>
<text text-anchor="middle" x="954" y="-128" font-family="Helvetica,sans-Serif" font-size="10.00">windows.h</text>
</a>
</g>
</g>
<!-- Node16&#45;&gt;Node27 -->
<g id="edge36_Node000016_Node000027" class="edge">
<title>Node16&#45;&gt;Node27</title>
<g id="a_edge36_Node000016_Node000027"><a xlink:title=" ">
<path fill="none" stroke="#63b8ff" d="M815.59,-175.99C846.73,-165.98 888.14,-152.67 917.53,-143.22"/>
<polygon fill="#63b8ff" stroke="#63b8ff" points="918.94,-146.45 927.39,-140.05 916.8,-139.78 918.94,-146.45"/>
</a>
</g>
</g>
<!-- Node17&#45;&gt;Node12 -->
<g id="edge21_Node000017_Node000012" class="edge">
<title>Node17&#45;&gt;Node12</title>
<g id="a_edge21_Node000017_Node000012"><a xlink:title=" ">
<path fill="none" stroke="#63b8ff" d="M607.55,-124.54C714.38,-115.16 946.29,-94.81 1071.24,-83.85"/>
<polygon fill="#63b8ff" stroke="#63b8ff" points="1071.86,-87.31 1081.52,-82.95 1071.25,-80.34 1071.86,-87.31"/>
</a>
</g>
</g>
<!-- Node17&#45;&gt;Node14 -->
<g id="edge27_Node000017_Node000014" class="edge">
<title>Node17&#45;&gt;Node14</title>
<g id="a_edge27_Node000017_Node000014"><a xlink:title=" ">
<path fill="none" stroke="#63b8ff" d="M551.25,-120.58C551.21,-107.61 549.57,-83.21 539,-66 529.58,-50.68 513.63,-38.3 499.89,-29.69"/>
<polygon fill="#63b8ff" stroke="#63b8ff" points="501.66,-26.67 491.27,-24.59 498.09,-32.7 501.66,-26.67"/>
</a>
</g>
</g>
<!-- Node18 -->
<g id="Node000018" class="node">
<title>Node18</title>
<g id="a_Node000018"><a xlink:title=" ">
<polygon fill="#e0e0e0" stroke="#999999" points="627.5,-85 586.5,-85 586.5,-66 627.5,-66 627.5,-85"/>
<text text-anchor="middle" x="607" y="-73" font-family="Helvetica,sans-Serif" font-size="10.00">QFile</text>
</a>
</g>
</g>
<!-- Node17&#45;&gt;Node18 -->
<g id="edge22_Node000017_Node000018" class="edge">
<title>Node17&#45;&gt;Node18</title>
<g id="a_edge22_Node000017_Node000018"><a xlink:title=" ">
<path fill="none" stroke="#63b8ff" d="M560,-120.98C568.19,-113.23 580.51,-101.58 590.47,-92.14"/>
<polygon fill="#63b8ff" stroke="#63b8ff" points="592.98,-94.59 597.84,-85.17 588.17,-89.5 592.98,-94.59"/>
</a>
</g>
</g>
<!-- Node17&#45;&gt;Node19 -->
<g id="edge23_Node000017_Node000019" class="edge">
<title>Node17&#45;&gt;Node19</title>
<g id="a_edge23_Node000017_Node000019"><a xlink:title=" ">
<path fill="none" stroke="#63b8ff" d="M542.91,-120.75C535.84,-113.11 525.41,-101.82 516.85,-92.56"/>
<polygon fill="#63b8ff" stroke="#63b8ff" points="519.3,-90.06 509.94,-85.09 514.16,-94.81 519.3,-90.06"/>
</a>
</g>
</g>
<!-- Node17&#45;&gt;Node20 -->
<g id="edge24_Node000017_Node000020" class="edge">
<title>Node17&#45;&gt;Node20</title>
<g id="a_edge24_Node000017_Node000020"><a xlink:title=" ">
<path fill="none" stroke="#63b8ff" d="M571.4,-120.98C592.02,-112.38 624.11,-98.99 647.69,-89.15"/>
<polygon fill="#63b8ff" stroke="#63b8ff" points="649.34,-92.25 657.22,-85.17 646.65,-85.79 649.34,-92.25"/>
</a>
</g>
</g>
<!-- Node17&#45;&gt;Node21 -->
<g id="edge25_Node000017_Node000021" class="edge">
<title>Node17&#45;&gt;Node21</title>
<g id="a_edge25_Node000017_Node000021"><a xlink:title=" ">
<path fill="none" stroke="#63b8ff" d="M607.74,-122.79C700.95,-111.76 883.93,-90.11 962.14,-80.86"/>
<polygon fill="#63b8ff" stroke="#63b8ff" points="962.94,-84.29 972.46,-79.64 962.11,-77.34 962.94,-84.29"/>
</a>
</g>
</g>
<!-- Node17&#45;&gt;Node22 -->
<g id="edge26_Node000017_Node000022" class="edge">
<title>Node17&#45;&gt;Node22</title>
<g id="a_edge26_Node000017_Node000022"><a xlink:title=" ">
<path fill="none" stroke="#63b8ff" d="M532.68,-120.98C514.34,-112.46 485.89,-99.23 464.77,-89.41"/>
<polygon fill="#63b8ff" stroke="#63b8ff" points="466.19,-86.21 455.65,-85.17 463.24,-92.56 466.19,-86.21"/>
</a>
</g>
</g>
<!-- Node28&#45;&gt;Node14 -->
<g id="edge43_Node000028_Node000014" class="edge">
<title>Node28&#45;&gt;Node14</title>
<g id="a_edge43_Node000028_Node000014"><a xlink:title=" ">
<path fill="none" stroke="#63b8ff" d="M293.86,-120.8C311.4,-108.09 345.47,-84.01 376,-66 399.19,-52.32 426.55,-38.55 446.46,-28.93"/>
<polygon fill="#63b8ff" stroke="#63b8ff" points="448.07,-32.04 455.58,-24.56 445.05,-25.73 448.07,-32.04"/>
</a>
</g>
</g>
<!-- Node28&#45;&gt;Node22 -->
<g id="edge42_Node000028_Node000022" class="edge">
<title>Node28&#45;&gt;Node22</title>
<g id="a_edge42_Node000028_Node000022"><a xlink:title=" ">
<path fill="none" stroke="#63b8ff" d="M306.9,-120.98C334.46,-111.56 378.82,-96.39 407.94,-86.44"/>
<polygon fill="#63b8ff" stroke="#63b8ff" points="409.23,-89.7 417.56,-83.15 406.96,-83.07 409.23,-89.7"/>
</a>
</g>
</g>
<!-- Node29 -->
<g id="Node000029" class="node">
<title>Node29</title>
<g id="a_Node000029"><a xlink:title=" ">
<polygon fill="#e0e0e0" stroke="#999999" points="52,-85 0,-85 0,-66 52,-66 52,-85"/>
<text text-anchor="middle" x="26" y="-73" font-family="Helvetica,sans-Serif" font-size="10.00">QEvent</text>
</a>
</g>
</g>
<!-- Node28&#45;&gt;Node29 -->
<g id="edge38_Node000028_Node000029" class="edge">
<title>Node28&#45;&gt;Node29</title>
<g id="a_edge38_Node000028_Node000029"><a xlink:title=" ">
<path fill="none" stroke="#63b8ff" d="M237.02,-120.98C194.39,-112.79 128.31,-99.78 62.11,-85.18"/>
<polygon fill="#63b8ff" stroke="#63b8ff" points="62.87,-81.76 52.35,-83.02 61.35,-88.6 62.87,-81.76"/>
</a>
</g>
</g>
<!-- Node30 -->
<g id="Node000030" class="node">
<title>Node30</title>
<g id="a_Node000030"><a xlink:title=" ">
<polygon fill="#e0e0e0" stroke="#999999" points="140,-85 70,-85 70,-66 140,-66 140,-85"/>
<text text-anchor="middle" x="105" y="-73" font-family="Helvetica,sans-Serif" font-size="10.00">QKeyEvent</text>
</a>
</g>
</g>
<!-- Node28&#45;&gt;Node30 -->
<g id="edge39_Node000028_Node000030" class="edge">
<title>Node28&#45;&gt;Node30</title>
<g id="a_edge39_Node000028_Node000030"><a xlink:title=" ">
<path fill="none" stroke="#63b8ff" d="M253.56,-120.98C223.72,-112.05 176.62,-97.94 143.47,-88.02"/>
<polygon fill="#63b8ff" stroke="#63b8ff" points="144.24,-84.6 133.66,-85.08 142.24,-91.3 144.24,-84.6"/>
</a>
</g>
</g>
<!-- Node31 -->
<g id="Node000031" class="node">
<title>Node31</title>
<g id="a_Node000031"><a xlink:title=" ">
<polygon fill="#e0e0e0" stroke="#999999" points="221.5,-85 158.5,-85 158.5,-66 221.5,-66 221.5,-85"/>
<text text-anchor="middle" x="190" y="-73" font-family="Helvetica,sans-Serif" font-size="10.00">QLineEdit</text>
</a>
</g>
</g>
<!-- Node28&#45;&gt;Node31 -->
<g id="edge40_Node000028_Node000031" class="edge">
<title>Node28&#45;&gt;Node31</title>
<g id="a_edge40_Node000028_Node000031"><a xlink:title=" ">
<path fill="none" stroke="#63b8ff" d="M267.22,-120.98C252.82,-112.69 230.69,-99.94 213.81,-90.22"/>
<polygon fill="#63b8ff" stroke="#63b8ff" points="215.46,-87.13 205.05,-85.17 211.97,-93.19 215.46,-87.13"/>
</a>
</g>
</g>
<!-- Node32 -->
<g id="Node000032" class="node">
<title>Node32</title>
<g id="a_Node000032"><a xlink:title=" ">
<polygon fill="#e0e0e0" stroke="#999999" points="324,-85 240,-85 240,-66 324,-66 324,-85"/>
<text text-anchor="middle" x="282" y="-73" font-family="Helvetica,sans-Serif" font-size="10.00">QMouseEvent</text>
</a>
</g>
</g>
<!-- Node28&#45;&gt;Node32 -->
<g id="edge41_Node000028_Node000032" class="edge">
<title>Node28&#45;&gt;Node32</title>
<g id="a_edge41_Node000028_Node000032"><a xlink:title=" ">
<path fill="none" stroke="#63b8ff" d="M282,-120.75C282,-113.8 282,-103.85 282,-95.13"/>
<polygon fill="#63b8ff" stroke="#63b8ff" points="285.5,-95.09 282,-85.09 278.5,-95.09 285.5,-95.09"/>
</a>
</g>
</g>
</g>
</svg>
