<?xml version="1.0" encoding="UTF-8" standalone="no"?>
<!DOCTYPE svg PUBLIC "-//W3C//DTD SVG 1.1//EN"
 "http://www.w3.org/Graphics/SVG/1.1/DTD/svg11.dtd">
<!-- Generated by graphviz version 2.43.0 (0)
 -->
<!-- Title: src/ui/mainwindow.cpp Pages: 1 -->
<svg width="529pt" height="192pt"
 viewBox="0.00 0.00 529.00 192.00" xmlns="http://www.w3.org/2000/svg" xmlns:xlink="http://www.w3.org/1999/xlink">
<g id="graph0" class="graph" transform="scale(1 1) rotate(0) translate(4 188)">
<title>src/ui/mainwindow.cpp</title>
<!-- Node1 -->
<g id="Node000001" class="node">
<title>Node1</title>
<g id="a_Node000001"><a xlink:title=" ">
<polygon fill="#999999" stroke="#666666" points="345.5,-184 217.5,-184 217.5,-165 345.5,-165 345.5,-184"/>
<text text-anchor="middle" x="281.5" y="-172" font-family="Helvetica,sans-Serif" font-size="10.00">src/ui/mainwindow.cpp</text>
</a>
</g>
</g>
<!-- Node2 -->
<g id="Node000002" class="node">
<title>Node2</title>
<g id="a_Node000002"><a xlink:href="mainwindow_8hpp.html" target="_top" xlink:title=" ">
<polygon fill="white" stroke="#666666" points="213,-129 114,-129 114,-110 213,-110 213,-129"/>
<text text-anchor="middle" x="163.5" y="-117" font-family="Helvetica,sans-Serif" font-size="10.00">mainwindow.hpp</text>
</a>
</g>
</g>
<!-- Node1&#45;&gt;Node2 -->
<g id="edge1_Node000001_Node000002" class="edge">
<title>Node1&#45;&gt;Node2</title>
<g id="a_edge1_Node000001_Node000002"><a xlink:title=" ">
<path fill="none" stroke="#63b8ff" d="M262.54,-164.98C243.47,-156.42 213.84,-143.11 191.95,-133.28"/>
<polygon fill="#63b8ff" stroke="#63b8ff" points="193.36,-130.07 182.8,-129.17 190.49,-136.46 193.36,-130.07"/>
</a>
</g>
</g>
<!-- Node7 -->
<g id="Node000007" class="node">
<title>Node7</title>
<g id="a_Node000007"><a xlink:title=" ">
<polygon fill="#e0e0e0" stroke="#999999" points="332,-129 231,-129 231,-110 332,-110 332,-129"/>
<text text-anchor="middle" x="281.5" y="-117" font-family="Helvetica,sans-Serif" font-size="10.00">ui_mainwindow.h</text>
</a>
</g>
</g>
<!-- Node1&#45;&gt;Node7 -->
<g id="edge6_Node000001_Node000007" class="edge">
<title>Node1&#45;&gt;Node7</title>
<g id="a_edge6_Node000001_Node000007"><a xlink:title=" ">
<path fill="none" stroke="#63b8ff" d="M281.5,-164.75C281.5,-157.8 281.5,-147.85 281.5,-139.13"/>
<polygon fill="#63b8ff" stroke="#63b8ff" points="285,-139.09 281.5,-129.09 278,-139.09 285,-139.09"/>
</a>
</g>
</g>
<!-- Node8 -->
<g id="Node000008" class="node">
<title>Node8</title>
<g id="a_Node000008"><a xlink:href="settings_8hpp.html" target="_top" xlink:title=" ">
<polygon fill="white" stroke="#666666" points="436.5,-129 350.5,-129 350.5,-110 436.5,-110 436.5,-129"/>
<text text-anchor="middle" x="393.5" y="-117" font-family="Helvetica,sans-Serif" font-size="10.00">../settings.hpp</text>
</a>
</g>
</g>
<!-- Node1&#45;&gt;Node8 -->
<g id="edge7_Node000001_Node000008" class="edge">
<title>Node1&#45;&gt;Node8</title>
<g id="a_edge7_Node000001_Node000008"><a xlink:title=" ">
<path fill="none" stroke="#63b8ff" d="M299.49,-164.98C317.43,-156.5 345.22,-143.35 365.93,-133.54"/>
<polygon fill="#63b8ff" stroke="#63b8ff" points="367.64,-136.61 375.18,-129.17 364.64,-130.28 367.64,-136.61"/>
</a>
</g>
</g>
<!-- Node3 -->
<g id="Node000003" class="node">
<title>Node3</title>
<g id="a_Node000003"><a xlink:href="mainmenu_8hpp.html" target="_top" xlink:title=" ">
<polygon fill="white" stroke="#666666" points="141.5,-74 51.5,-74 51.5,-55 141.5,-55 141.5,-74"/>
<text text-anchor="middle" x="96.5" y="-62" font-family="Helvetica,sans-Serif" font-size="10.00">mainmenu.hpp</text>
</a>
</g>
</g>
<!-- Node2&#45;&gt;Node3 -->
<g id="edge2_Node000002_Node000003" class="edge">
<title>Node2&#45;&gt;Node3</title>
<g id="a_edge2_Node000002_Node000003"><a xlink:title=" ">
<path fill="none" stroke="#63b8ff" d="M152.74,-109.98C142.73,-102.07 127.61,-90.11 115.57,-80.58"/>
<polygon fill="#63b8ff" stroke="#63b8ff" points="117.47,-77.63 107.46,-74.17 113.13,-83.12 117.47,-77.63"/>
</a>
</g>
</g>
<!-- Node6 -->
<g id="Node000006" class="node">
<title>Node6</title>
<g id="a_Node000006"><a xlink:title=" ">
<polygon fill="#e0e0e0" stroke="#999999" points="247,-74 160,-74 160,-55 247,-55 247,-74"/>
<text text-anchor="middle" x="203.5" y="-62" font-family="Helvetica,sans-Serif" font-size="10.00">QMainWindow</text>
</a>
</g>
</g>
<!-- Node2&#45;&gt;Node6 -->
<g id="edge5_Node000002_Node000006" class="edge">
<title>Node2&#45;&gt;Node6</title>
<g id="a_edge5_Node000002_Node000006"><a xlink:title=" ">
<path fill="none" stroke="#63b8ff" d="M170.11,-109.75C175.76,-102.26 184.04,-91.28 190.95,-82.13"/>
<polygon fill="#63b8ff" stroke="#63b8ff" points="193.79,-84.18 197.02,-74.09 188.2,-79.96 193.79,-84.18"/>
</a>
</g>
</g>
<!-- Node4 -->
<g id="Node000004" class="node">
<title>Node4</title>
<g id="a_Node000004"><a xlink:title=" ">
<polygon fill="#e0e0e0" stroke="#999999" points="97,-19 0,-19 0,0 97,0 97,-19"/>
<text text-anchor="middle" x="48.5" y="-7" font-family="Helvetica,sans-Serif" font-size="10.00">QStackedWidget</text>
</a>
</g>
</g>
<!-- Node3&#45;&gt;Node4 -->
<g id="edge3_Node000003_Node000004" class="edge">
<title>Node3&#45;&gt;Node4</title>
<g id="a_edge3_Node000003_Node000004"><a xlink:title=" ">
<path fill="none" stroke="#63b8ff" d="M88.57,-54.75C81.65,-47.11 71.43,-35.82 63.05,-26.56"/>
<polygon fill="#63b8ff" stroke="#63b8ff" points="65.59,-24.15 56.28,-19.09 60.4,-28.85 65.59,-24.15"/>
</a>
</g>
</g>
<!-- Node5 -->
<g id="Node000005" class="node">
<title>Node5</title>
<g id="a_Node000005"><a xlink:title=" ">
<polygon fill="#e0e0e0" stroke="#999999" points="174,-19 115,-19 115,0 174,0 174,-19"/>
<text text-anchor="middle" x="144.5" y="-7" font-family="Helvetica,sans-Serif" font-size="10.00">QWidget</text>
</a>
</g>
</g>
<!-- Node3&#45;&gt;Node5 -->
<g id="edge4_Node000003_Node000005" class="edge">
<title>Node3&#45;&gt;Node5</title>
<g id="a_edge4_Node000003_Node000005"><a xlink:title=" ">
<path fill="none" stroke="#63b8ff" d="M104.43,-54.75C111.35,-47.11 121.57,-35.82 129.95,-26.56"/>
<polygon fill="#63b8ff" stroke="#63b8ff" points="132.6,-28.85 136.72,-19.09 127.41,-24.15 132.6,-28.85"/>
</a>
</g>
</g>
<!-- Node9 -->
<g id="Node000009" class="node">
<title>Node9</title>
<g id="a_Node000009"><a xlink:title=" ">
<polygon fill="#e0e0e0" stroke="#999999" points="343.5,-74 305.5,-74 305.5,-55 343.5,-55 343.5,-74"/>
<text text-anchor="middle" x="324.5" y="-62" font-family="Helvetica,sans-Serif" font-size="10.00">QDir</text>
</a>
</g>
</g>
<!-- Node8&#45;&gt;Node9 -->
<g id="edge8_Node000008_Node000009" class="edge">
<title>Node8&#45;&gt;Node9</title>
<g id="a_edge8_Node000008_Node000009"><a xlink:title=" ">
<path fill="none" stroke="#63b8ff" d="M382.41,-109.98C372.01,-102 356.24,-89.88 343.78,-80.31"/>
<polygon fill="#63b8ff" stroke="#63b8ff" points="345.85,-77.49 335.79,-74.17 341.59,-83.04 345.85,-77.49"/>
</a>
</g>
</g>
<!-- Node10 -->
<g id="Node000010" class="node">
<title>Node10</title>
<g id="a_Node000010"><a xlink:title=" ">
<polygon fill="#e0e0e0" stroke="#999999" points="425.5,-74 361.5,-74 361.5,-55 425.5,-55 425.5,-74"/>
<text text-anchor="middle" x="393.5" y="-62" font-family="Helvetica,sans-Serif" font-size="10.00">QSettings</text>
</a>
</g>
</g>
<!-- Node8&#45;&gt;Node10 -->
<g id="edge9_Node000008_Node000010" class="edge">
<title>Node8&#45;&gt;Node10</title>
<g id="a_edge9_Node000008_Node000010"><a xlink:title=" ">
<path fill="none" stroke="#63b8ff" d="M393.5,-109.75C393.5,-102.8 393.5,-92.85 393.5,-84.13"/>
<polygon fill="#63b8ff" stroke="#63b8ff" points="397,-84.09 393.5,-74.09 390,-84.09 397,-84.09"/>
</a>
</g>
</g>
<!-- Node11 -->
<g id="Node000011" class="node">
<title>Node11</title>
<g id="a_Node000011"><a xlink:title=" ">
<polygon fill="#e0e0e0" stroke="#999999" points="521,-74 444,-74 444,-55 521,-55 521,-74"/>
<text text-anchor="middle" x="482.5" y="-62" font-family="Helvetica,sans-Serif" font-size="10.00">minwindef.h</text>
</a>
</g>
</g>
<!-- Node8&#45;&gt;Node11 -->
<g id="edge10_Node000008_Node000011" class="edge">
<title>Node8&#45;&gt;Node11</title>
<g id="a_edge10_Node000008_Node000011"><a xlink:title=" ">
<path fill="none" stroke="#63b8ff" d="M407.8,-109.98C421.6,-101.77 442.74,-89.18 459.01,-79.49"/>
<polygon fill="#63b8ff" stroke="#63b8ff" points="461.14,-82.29 467.94,-74.17 457.56,-76.28 461.14,-82.29"/>
</a>
</g>
</g>
</g>
</svg>
