<?xml version="1.0" encoding="UTF-8" standalone="no"?>
<!DOCTYPE svg PUBLIC "-//W3C//DTD SVG 1.1//EN"
 "http://www.w3.org/Graphics/SVG/1.1/DTD/svg11.dtd">
<!-- Generated by graphviz version 2.43.0 (0)
 -->
<!-- Title: src/simulation/mouseSim.hpp Pages: 1 -->
<svg width="471pt" height="192pt"
 viewBox="0.00 0.00 470.50 192.00" xmlns="http://www.w3.org/2000/svg" xmlns:xlink="http://www.w3.org/1999/xlink">
<g id="graph0" class="graph" transform="scale(1 1) rotate(0) translate(4 188)">
<title>src/simulation/mouseSim.hpp</title>
<!-- Node1 -->
<g id="Node000001" class="node">
<title>Node1</title>
<g id="a_Node000001"><a xlink:title="Simulates mouse input in Windows.">
<polygon fill="#999999" stroke="#666666" points="266,-184 105,-184 105,-165 266,-165 266,-184"/>
<text text-anchor="middle" x="185.5" y="-172" font-family="Helvetica,sans-Serif" font-size="10.00">src/simulation/mouseSim.hpp</text>
</a>
</g>
</g>
<!-- Node2 -->
<g id="Node000002" class="node">
<title>Node2</title>
<g id="a_Node000002"><a xlink:href="executor_8cpp.html" target="_top" xlink:title=" ">
<polygon fill="white" stroke="#666666" points="153,-19 0,-19 0,0 153,0 153,-19"/>
<text text-anchor="middle" x="76.5" y="-7" font-family="Helvetica,sans-Serif" font-size="10.00">src/networking/executor.cpp</text>
</a>
</g>
</g>
<!-- Node1&#45;&gt;Node2 -->
<g id="edge1_Node000001_Node000002" class="edge">
<title>Node1&#45;&gt;Node2</title>
<g id="a_edge1_Node000001_Node000002"><a xlink:title=" ">
<path fill="none" stroke="#63b8ff" d="M141.16,-161.24C124.38,-154.41 106.65,-144.13 95.5,-129 70.4,-94.96 73.16,-40.39 75.38,-19.26"/>
<polygon fill="#63b8ff" stroke="#63b8ff" points="140.29,-164.65 150.88,-164.87 142.74,-158.09 140.29,-164.65"/>
</a>
</g>
</g>
<!-- Node3 -->
<g id="Node000003" class="node">
<title>Node3</title>
<g id="a_Node000003"><a xlink:href="mouseSim_8cpp.html" target="_top" xlink:title=" ">
<polygon fill="white" stroke="#666666" points="266,-129 105,-129 105,-110 266,-110 266,-129"/>
<text text-anchor="middle" x="185.5" y="-117" font-family="Helvetica,sans-Serif" font-size="10.00">src/simulation/mouseSim.cpp</text>
</a>
</g>
</g>
<!-- Node1&#45;&gt;Node3 -->
<g id="edge2_Node000001_Node000003" class="edge">
<title>Node1&#45;&gt;Node3</title>
<g id="a_edge2_Node000001_Node000003"><a xlink:title=" ">
<path fill="none" stroke="#63b8ff" d="M185.5,-154.66C185.5,-145.93 185.5,-135.99 185.5,-129.09"/>
<polygon fill="#63b8ff" stroke="#63b8ff" points="182,-154.75 185.5,-164.75 189,-154.75 182,-154.75"/>
</a>
</g>
</g>
<!-- Node4 -->
<g id="Node000004" class="node">
<title>Node4</title>
<g id="a_Node000004"><a xlink:href="simulate_8hpp.html" target="_top" xlink:title=" ">
<polygon fill="white" stroke="#666666" points="436.5,-129 284.5,-129 284.5,-110 436.5,-110 436.5,-129"/>
<text text-anchor="middle" x="360.5" y="-117" font-family="Helvetica,sans-Serif" font-size="10.00">src/simulation/simulate.hpp</text>
</a>
</g>
</g>
<!-- Node1&#45;&gt;Node4 -->
<g id="edge3_Node000001_Node000004" class="edge">
<title>Node1&#45;&gt;Node4</title>
<g id="a_edge3_Node000001_Node000004"><a xlink:title=" ">
<path fill="none" stroke="#63b8ff" d="M223.29,-162.06C256,-152.15 302.57,-138.04 332.16,-129.08"/>
<polygon fill="#63b8ff" stroke="#63b8ff" points="222.17,-158.74 213.62,-164.98 224.2,-165.44 222.17,-158.74"/>
</a>
</g>
</g>
<!-- Node5 -->
<g id="Node000005" class="node">
<title>Node5</title>
<g id="a_Node000005"><a xlink:href="executor_8hpp.html" target="_top" xlink:title=" ">
<polygon fill="white" stroke="#666666" points="292.5,-74 138.5,-74 138.5,-55 292.5,-55 292.5,-74"/>
<text text-anchor="middle" x="215.5" y="-62" font-family="Helvetica,sans-Serif" font-size="10.00">src/networking/executor.hpp</text>
</a>
</g>
</g>
<!-- Node4&#45;&gt;Node5 -->
<g id="edge4_Node000004_Node000005" class="edge">
<title>Node4&#45;&gt;Node5</title>
<g id="a_edge4_Node000004_Node000005"><a xlink:title=" ">
<path fill="none" stroke="#63b8ff" d="M327.81,-106.55C300.88,-96.71 263.34,-82.98 239.22,-74.17"/>
<polygon fill="#63b8ff" stroke="#63b8ff" points="326.61,-109.84 337.2,-109.98 329.01,-103.26 326.61,-109.84"/>
</a>
</g>
</g>
<!-- Node7 -->
<g id="Node000007" class="node">
<title>Node7</title>
<g id="a_Node000007"><a xlink:href="simulate_8cpp.html" target="_top" xlink:title=" ">
<polygon fill="white" stroke="#666666" points="462.5,-74 310.5,-74 310.5,-55 462.5,-55 462.5,-74"/>
<text text-anchor="middle" x="386.5" y="-62" font-family="Helvetica,sans-Serif" font-size="10.00">src/simulation/simulate.cpp</text>
</a>
</g>
</g>
<!-- Node4&#45;&gt;Node7 -->
<g id="edge7_Node000004_Node000007" class="edge">
<title>Node4&#45;&gt;Node7</title>
<g id="a_edge7_Node000004_Node000007"><a xlink:title=" ">
<path fill="none" stroke="#63b8ff" d="M369.32,-100.53C373.7,-91.6 378.79,-81.22 382.29,-74.09"/>
<polygon fill="#63b8ff" stroke="#63b8ff" points="366.06,-99.23 364.79,-109.75 372.34,-102.31 366.06,-99.23"/>
</a>
</g>
</g>
<!-- Node5&#45;&gt;Node2 -->
<g id="edge5_Node000005_Node000002" class="edge">
<title>Node5&#45;&gt;Node2</title>
<g id="a_edge5_Node000005_Node000002"><a xlink:title=" ">
<path fill="none" stroke="#63b8ff" d="M183.82,-51.42C158.03,-41.59 122.26,-27.95 99.24,-19.17"/>
<polygon fill="#63b8ff" stroke="#63b8ff" points="182.58,-54.69 193.17,-54.98 185.07,-48.15 182.58,-54.69"/>
</a>
</g>
</g>
<!-- Node6 -->
<g id="Node000006" class="node">
<title>Node6</title>
<g id="a_Node000006"><a xlink:href="server_8cpp.html" target="_top" xlink:title=" ">
<polygon fill="white" stroke="#666666" points="313.5,-19 171.5,-19 171.5,0 313.5,0 313.5,-19"/>
<text text-anchor="middle" x="242.5" y="-7" font-family="Helvetica,sans-Serif" font-size="10.00">src/networking/server.cpp</text>
</a>
</g>
</g>
<!-- Node5&#45;&gt;Node6 -->
<g id="edge6_Node000005_Node000006" class="edge">
<title>Node5&#45;&gt;Node6</title>
<g id="a_edge6_Node000005_Node000006"><a xlink:title=" ">
<path fill="none" stroke="#63b8ff" d="M224.51,-45.82C229.09,-36.82 234.45,-26.29 238.12,-19.09"/>
<polygon fill="#63b8ff" stroke="#63b8ff" points="221.38,-44.25 219.96,-54.75 227.62,-47.43 221.38,-44.25"/>
</a>
</g>
</g>
</g>
</svg>
