<?xml version="1.0" encoding="UTF-8" standalone="no"?>
<!DOCTYPE svg PUBLIC "-//W3C//DTD SVG 1.1//EN"
 "http://www.w3.org/Graphics/SVG/1.1/DTD/svg11.dtd">
<!-- Generated by graphviz version 2.43.0 (0)
 -->
<!-- Title: src/simulation/mouseSim.hpp Pages: 1 -->
<svg width="425pt" height="192pt"
 viewBox="0.00 0.00 424.50 192.00" xmlns="http://www.w3.org/2000/svg" xmlns:xlink="http://www.w3.org/1999/xlink">
<g id="graph0" class="graph" transform="scale(1 1) rotate(0) translate(4 188)">
<title>src/simulation/mouseSim.hpp</title>
<!-- Node1 -->
<g id="Node000001" class="node">
<title>Node1</title>
<g id="a_Node000001"><a xlink:title="Simulates mouse input in Windows.">
<polygon fill="#999999" stroke="#666666" points="248,-184 87,-184 87,-165 248,-165 248,-184"/>
<text text-anchor="middle" x="167.5" y="-172" font-family="Helvetica,sans-Serif" font-size="10.00">src/simulation/mouseSim.hpp</text>
</a>
</g>
</g>
<!-- Node2 -->
<g id="Node000002" class="node">
<title>Node2</title>
<g id="a_Node000002"><a xlink:href="mouseSim_8cpp.html" target="_top" xlink:title=" ">
<polygon fill="white" stroke="#666666" points="161,-129 0,-129 0,-110 161,-110 161,-129"/>
<text text-anchor="middle" x="80.5" y="-117" font-family="Helvetica,sans-Serif" font-size="10.00">src/simulation/mouseSim.cpp</text>
</a>
</g>
</g>
<!-- Node1&#45;&gt;Node2 -->
<g id="edge1_Node000001_Node000002" class="edge">
<title>Node1&#45;&gt;Node2</title>
<g id="a_edge1_Node000001_Node000002"><a xlink:title=" ">
<path fill="none" stroke="#63b8ff" d="M144.84,-159.7C128.99,-150.04 108.31,-137.44 94.73,-129.17"/>
<polygon fill="#63b8ff" stroke="#63b8ff" points="143.16,-162.77 153.52,-164.98 146.8,-156.79 143.16,-162.77"/>
</a>
</g>
</g>
<!-- Node3 -->
<g id="Node000003" class="node">
<title>Node3</title>
<g id="a_Node000003"><a xlink:href="simulate_8hpp.html" target="_top" xlink:title=" ">
<polygon fill="white" stroke="#666666" points="331.5,-129 179.5,-129 179.5,-110 331.5,-110 331.5,-129"/>
<text text-anchor="middle" x="255.5" y="-117" font-family="Helvetica,sans-Serif" font-size="10.00">src/simulation/simulate.hpp</text>
</a>
</g>
</g>
<!-- Node1&#45;&gt;Node3 -->
<g id="edge2_Node000001_Node000003" class="edge">
<title>Node1&#45;&gt;Node3</title>
<g id="a_edge2_Node000001_Node000003"><a xlink:title=" ">
<path fill="none" stroke="#63b8ff" d="M190.42,-159.7C206.45,-150.04 227.37,-137.44 241.1,-129.17"/>
<polygon fill="#63b8ff" stroke="#63b8ff" points="188.4,-156.83 181.64,-164.98 192.01,-162.82 188.4,-156.83"/>
</a>
</g>
</g>
<!-- Node4 -->
<g id="Node000004" class="node">
<title>Node4</title>
<g id="a_Node000004"><a xlink:href="executor_8hpp.html" target="_top" xlink:title=" ">
<polygon fill="white" stroke="#666666" points="246.5,-74 92.5,-74 92.5,-55 246.5,-55 246.5,-74"/>
<text text-anchor="middle" x="169.5" y="-62" font-family="Helvetica,sans-Serif" font-size="10.00">src/networking/executor.hpp</text>
</a>
</g>
</g>
<!-- Node3&#45;&gt;Node4 -->
<g id="edge3_Node000003_Node000004" class="edge">
<title>Node3&#45;&gt;Node4</title>
<g id="a_edge3_Node000003_Node000004"><a xlink:title=" ">
<path fill="none" stroke="#63b8ff" d="M233.1,-104.7C217.43,-95.04 196.99,-82.44 183.57,-74.17"/>
<polygon fill="#63b8ff" stroke="#63b8ff" points="231.33,-107.72 241.68,-109.98 235.01,-101.76 231.33,-107.72"/>
</a>
</g>
</g>
<!-- Node7 -->
<g id="Node000007" class="node">
<title>Node7</title>
<g id="a_Node000007"><a xlink:href="simulate_8cpp.html" target="_top" xlink:title=" ">
<polygon fill="white" stroke="#666666" points="416.5,-74 264.5,-74 264.5,-55 416.5,-55 416.5,-74"/>
<text text-anchor="middle" x="340.5" y="-62" font-family="Helvetica,sans-Serif" font-size="10.00">src/simulation/simulate.cpp</text>
</a>
</g>
</g>
<!-- Node3&#45;&gt;Node7 -->
<g id="edge6_Node000003_Node000007" class="edge">
<title>Node3&#45;&gt;Node7</title>
<g id="a_edge6_Node000003_Node000007"><a xlink:title=" ">
<path fill="none" stroke="#63b8ff" d="M278.07,-104.42C293.5,-94.81 313.45,-82.37 326.59,-74.17"/>
<polygon fill="#63b8ff" stroke="#63b8ff" points="275.79,-101.72 269.16,-109.98 279.49,-107.66 275.79,-101.72"/>
</a>
</g>
</g>
<!-- Node5 -->
<g id="Node000005" class="node">
<title>Node5</title>
<g id="a_Node000005"><a xlink:href="executor_8cpp.html" target="_top" xlink:title=" ">
<polygon fill="white" stroke="#666666" points="163,-19 10,-19 10,0 163,0 163,-19"/>
<text text-anchor="middle" x="86.5" y="-7" font-family="Helvetica,sans-Serif" font-size="10.00">src/networking/executor.cpp</text>
</a>
</g>
</g>
<!-- Node4&#45;&gt;Node5 -->
<g id="edge4_Node000004_Node000005" class="edge">
<title>Node4&#45;&gt;Node5</title>
<g id="a_edge4_Node000004_Node000005"><a xlink:title=" ">
<path fill="none" stroke="#63b8ff" d="M147.46,-49.42C132.39,-39.81 112.91,-27.37 100.08,-19.17"/>
<polygon fill="#63b8ff" stroke="#63b8ff" points="145.85,-52.55 156.16,-54.98 149.62,-46.65 145.85,-52.55"/>
</a>
</g>
</g>
<!-- Node6 -->
<g id="Node000006" class="node">
<title>Node6</title>
<g id="a_Node000006"><a xlink:href="server_8cpp.html" target="_top" xlink:title=" ">
<polygon fill="white" stroke="#666666" points="323.5,-19 181.5,-19 181.5,0 323.5,0 323.5,-19"/>
<text text-anchor="middle" x="252.5" y="-7" font-family="Helvetica,sans-Serif" font-size="10.00">src/networking/server.cpp</text>
</a>
</g>
</g>
<!-- Node4&#45;&gt;Node6 -->
<g id="edge5_Node000004_Node000006" class="edge">
<title>Node4&#45;&gt;Node6</title>
<g id="a_edge5_Node000004_Node000006"><a xlink:title=" ">
<path fill="none" stroke="#63b8ff" d="M191.54,-49.42C206.61,-39.81 226.09,-27.37 238.92,-19.17"/>
<polygon fill="#63b8ff" stroke="#63b8ff" points="189.38,-46.65 182.84,-54.98 193.15,-52.55 189.38,-46.65"/>
</a>
</g>
</g>
</g>
</svg>
