<?xml version="1.0" encoding="UTF-8" standalone="no"?>
<!DOCTYPE svg PUBLIC "-//W3C//DTD SVG 1.1//EN"
 "http://www.w3.org/Graphics/SVG/1.1/DTD/svg11.dtd">
<!-- Generated by graphviz version 2.43.0 (0)
 -->
<!-- Title: src/ui/preferences.hpp Pages: 1 -->
<svg width="249pt" height="82pt"
 viewBox="0.00 0.00 248.50 82.00" xmlns="http://www.w3.org/2000/svg" xmlns:xlink="http://www.w3.org/1999/xlink">
<g id="graph0" class="graph" transform="scale(1 1) rotate(0) translate(4 78)">
<title>src/ui/preferences.hpp</title>
<!-- Node1 -->
<g id="Node000001" class="node">
<title>Node1</title>
<g id="a_Node000001"><a xlink:title=" ">
<polygon fill="#999999" stroke="#666666" points="178,-74 53,-74 53,-55 178,-55 178,-74"/>
<text text-anchor="middle" x="115.5" y="-62" font-family="Helvetica,sans-Serif" font-size="10.00">src/ui/preferences.hpp</text>
</a>
</g>
</g>
<!-- Node2 -->
<g id="Node000002" class="node">
<title>Node2</title>
<g id="a_Node000002"><a xlink:title=" ">
<polygon fill="#e0e0e0" stroke="#999999" points="59,-19 0,-19 0,0 59,0 59,-19"/>
<text text-anchor="middle" x="29.5" y="-7" font-family="Helvetica,sans-Serif" font-size="10.00">QWidget</text>
</a>
</g>
</g>
<!-- Node1&#45;&gt;Node2 -->
<g id="edge1_Node000001_Node000002" class="edge">
<title>Node1&#45;&gt;Node2</title>
<g id="a_edge1_Node000001_Node000002"><a xlink:title=" ">
<path fill="none" stroke="#63b8ff" d="M101.68,-54.98C88.35,-46.77 67.92,-34.18 52.19,-24.49"/>
<polygon fill="#63b8ff" stroke="#63b8ff" points="53.92,-21.44 43.57,-19.17 50.25,-27.4 53.92,-21.44"/>
</a>
</g>
</g>
<!-- Node3 -->
<g id="Node000003" class="node">
<title>Node3</title>
<g id="a_Node000003"><a xlink:title=" ">
<polygon fill="#e0e0e0" stroke="#999999" points="154,-19 77,-19 77,0 154,0 154,-19"/>
<text text-anchor="middle" x="115.5" y="-7" font-family="Helvetica,sans-Serif" font-size="10.00">minwindef.h</text>
</a>
</g>
</g>
<!-- Node1&#45;&gt;Node3 -->
<g id="edge2_Node000001_Node000003" class="edge">
<title>Node1&#45;&gt;Node3</title>
<g id="a_edge2_Node000001_Node000003"><a xlink:title=" ">
<path fill="none" stroke="#63b8ff" d="M115.5,-54.75C115.5,-47.8 115.5,-37.85 115.5,-29.13"/>
<polygon fill="#63b8ff" stroke="#63b8ff" points="119,-29.09 115.5,-19.09 112,-29.09 119,-29.09"/>
</a>
</g>
</g>
<!-- Node4 -->
<g id="Node000004" class="node">
<title>Node4</title>
<g id="a_Node000004"><a xlink:title=" ">
<polygon fill="#e0e0e0" stroke="#999999" points="240.5,-19 172.5,-19 172.5,0 240.5,0 240.5,-19"/>
<text text-anchor="middle" x="206.5" y="-7" font-family="Helvetica,sans-Serif" font-size="10.00">windows.h</text>
</a>
</g>
</g>
<!-- Node1&#45;&gt;Node4 -->
<g id="edge3_Node000001_Node000004" class="edge">
<title>Node1&#45;&gt;Node4</title>
<g id="a_edge3_Node000001_Node000004"><a xlink:title=" ">
<path fill="none" stroke="#63b8ff" d="M130.12,-54.98C144.36,-46.69 166.25,-33.94 182.95,-24.22"/>
<polygon fill="#63b8ff" stroke="#63b8ff" points="184.73,-27.23 191.61,-19.17 181.21,-21.18 184.73,-27.23"/>
</a>
</g>
</g>
</g>
</svg>
