<?xml version="1.0" encoding="UTF-8" standalone="no"?>
<!DOCTYPE svg PUBLIC "-//W3C//DTD SVG 1.1//EN"
 "http://www.w3.org/Graphics/SVG/1.1/DTD/svg11.dtd">
<!-- Generated by graphviz version 2.43.0 (0)
 -->
<!-- Title: src/preferences.cpp Pages: 1 -->
<svg width="1447pt" height="148pt"
 viewBox="0.00 0.00 1447.00 148.00" xmlns="http://www.w3.org/2000/svg" xmlns:xlink="http://www.w3.org/1999/xlink">
<g id="graph0" class="graph" transform="scale(1 1) rotate(0) translate(4 144)">
<title>src/preferences.cpp</title>
<!-- Node1 -->
<g id="Node000001" class="node">
<title>Node1</title>
<g id="a_Node000001"><a xlink:title=" ">
<polygon fill="#999999" stroke="#666666" points="942,-140 830,-140 830,-121 942,-121 942,-140"/>
<text text-anchor="middle" x="886" y="-128" font-family="Helvetica,sans-Serif" font-size="10.00">src/preferences.cpp</text>
</a>
</g>
</g>
<!-- Node2 -->
<g id="Node000002" class="node">
<title>Node2</title>
<g id="a_Node000002"><a xlink:href="preferences_8h.html" target="_top" xlink:title=" ">
<polygon fill="white" stroke="#666666" points="198.5,-85 115.5,-85 115.5,-66 198.5,-66 198.5,-85"/>
<text text-anchor="middle" x="157" y="-73" font-family="Helvetica,sans-Serif" font-size="10.00">preferences.h</text>
</a>
</g>
</g>
<!-- Node1&#45;&gt;Node2 -->
<g id="edge1_Node000001_Node000002" class="edge">
<title>Node1&#45;&gt;Node2</title>
<g id="a_edge1_Node000001_Node000002"><a xlink:title=" ">
<path fill="none" stroke="#63b8ff" d="M829.8,-126.11C718.24,-119.27 460.95,-102.92 245,-85 233.29,-84.03 220.71,-82.88 208.83,-81.74"/>
<polygon fill="#63b8ff" stroke="#63b8ff" points="208.9,-78.23 198.61,-80.75 208.23,-85.2 208.9,-78.23"/>
</a>
</g>
</g>
<!-- Node6 -->
<g id="Node000006" class="node">
<title>Node6</title>
<g id="a_Node000006"><a xlink:href="settings_8h.html" target="_top" xlink:title=" ">
<polygon fill="white" stroke="#666666" points="319.5,-85 254.5,-85 254.5,-66 319.5,-66 319.5,-85"/>
<text text-anchor="middle" x="287" y="-73" font-family="Helvetica,sans-Serif" font-size="10.00">settings.h</text>
</a>
</g>
</g>
<!-- Node1&#45;&gt;Node6 -->
<g id="edge5_Node000001_Node000006" class="edge">
<title>Node1&#45;&gt;Node6</title>
<g id="a_edge5_Node000001_Node000006"><a xlink:title=" ">
<path fill="none" stroke="#63b8ff" d="M829.65,-124.77C735.48,-116.82 540.16,-100.17 375,-85 360.24,-83.64 344.1,-82.1 329.71,-80.71"/>
<polygon fill="#63b8ff" stroke="#63b8ff" points="329.88,-77.21 319.59,-79.72 329.2,-84.17 329.88,-77.21"/>
</a>
</g>
</g>
<!-- Node9 -->
<g id="Node000009" class="node">
<title>Node9</title>
<g id="a_Node000009"><a xlink:href="settings__key__variables_8h.html" target="_top" xlink:title=" ">
<polygon fill="white" stroke="#666666" points="521.5,-85 384.5,-85 384.5,-66 521.5,-66 521.5,-85"/>
<text text-anchor="middle" x="453" y="-73" font-family="Helvetica,sans-Serif" font-size="10.00">settings_key_variables.h</text>
</a>
</g>
</g>
<!-- Node1&#45;&gt;Node9 -->
<g id="edge9_Node000001_Node000009" class="edge">
<title>Node1&#45;&gt;Node9</title>
<g id="a_edge9_Node000001_Node000009"><a xlink:title=" ">
<path fill="none" stroke="#63b8ff" d="M829.84,-122.63C753.79,-113.32 617.69,-96.66 531.54,-86.11"/>
<polygon fill="#63b8ff" stroke="#63b8ff" points="531.9,-82.63 521.55,-84.89 531.05,-89.58 531.9,-82.63"/>
</a>
</g>
</g>
<!-- Node14 -->
<g id="Node000014" class="node">
<title>Node14</title>
<g id="a_Node000014"><a xlink:title=" ">
<polygon fill="#e0e0e0" stroke="#999999" points="638,-85 540,-85 540,-66 638,-66 638,-85"/>
<text text-anchor="middle" x="589" y="-73" font-family="Helvetica,sans-Serif" font-size="10.00">ui_preferences.h</text>
</a>
</g>
</g>
<!-- Node1&#45;&gt;Node14 -->
<g id="edge14_Node000001_Node000014" class="edge">
<title>Node1&#45;&gt;Node14</title>
<g id="a_edge14_Node000001_Node000014"><a xlink:title=" ">
<path fill="none" stroke="#63b8ff" d="M838.28,-120.98C786.26,-111.7 703,-96.84 647.18,-86.88"/>
<polygon fill="#63b8ff" stroke="#63b8ff" points="647.55,-83.39 637.09,-85.08 646.32,-90.28 647.55,-83.39"/>
</a>
</g>
</g>
<!-- Node15 -->
<g id="Node000015" class="node">
<title>Node15</title>
<g id="a_Node000015"><a xlink:title=" ">
<polygon fill="#e0e0e0" stroke="#999999" points="719.5,-85 656.5,-85 656.5,-66 719.5,-66 719.5,-85"/>
<text text-anchor="middle" x="688" y="-73" font-family="Helvetica,sans-Serif" font-size="10.00">winuser.h</text>
</a>
</g>
</g>
<!-- Node1&#45;&gt;Node15 -->
<g id="edge15_Node000001_Node000015" class="edge">
<title>Node1&#45;&gt;Node15</title>
<g id="a_edge15_Node000001_Node000015"><a xlink:title=" ">
<path fill="none" stroke="#63b8ff" d="M854.19,-120.98C820.41,-111.94 766.89,-97.62 729.74,-87.67"/>
<polygon fill="#63b8ff" stroke="#63b8ff" points="730.3,-84.2 719.73,-84.99 728.49,-90.96 730.3,-84.2"/>
</a>
</g>
</g>
<!-- Node16 -->
<g id="Node000016" class="node">
<title>Node16</title>
<g id="a_Node000016"><a xlink:title=" ">
<polygon fill="#e0e0e0" stroke="#999999" points="794,-85 738,-85 738,-66 794,-66 794,-85"/>
<text text-anchor="middle" x="766" y="-73" font-family="Helvetica,sans-Serif" font-size="10.00">QDebug</text>
</a>
</g>
</g>
<!-- Node1&#45;&gt;Node16 -->
<g id="edge16_Node000001_Node000016" class="edge">
<title>Node1&#45;&gt;Node16</title>
<g id="a_edge16_Node000001_Node000016"><a xlink:title=" ">
<path fill="none" stroke="#63b8ff" d="M866.72,-120.98C847.33,-112.42 817.19,-99.11 794.93,-89.28"/>
<polygon fill="#63b8ff" stroke="#63b8ff" points="796.19,-86.01 785.63,-85.17 793.36,-92.41 796.19,-86.01"/>
</a>
</g>
</g>
<!-- Node17 -->
<g id="Node000017" class="node">
<title>Node17</title>
<g id="a_Node000017"><a xlink:title=" ">
<polygon fill="#e0e0e0" stroke="#999999" points="882,-85 812,-85 812,-66 882,-66 882,-85"/>
<text text-anchor="middle" x="847" y="-73" font-family="Helvetica,sans-Serif" font-size="10.00">QKeyEvent</text>
</a>
</g>
</g>
<!-- Node1&#45;&gt;Node17 -->
<g id="edge17_Node000001_Node000017" class="edge">
<title>Node1&#45;&gt;Node17</title>
<g id="a_edge17_Node000001_Node000017"><a xlink:title=" ">
<path fill="none" stroke="#63b8ff" d="M879.56,-120.75C874.11,-113.34 866.14,-102.5 859.44,-93.41"/>
<polygon fill="#63b8ff" stroke="#63b8ff" points="862.07,-91.07 853.32,-85.09 856.43,-95.22 862.07,-91.07"/>
</a>
</g>
</g>
<!-- Node18 -->
<g id="Node000018" class="node">
<title>Node18</title>
<g id="a_Node000018"><a xlink:title=" ">
<polygon fill="#e0e0e0" stroke="#999999" points="950,-85 900,-85 900,-66 950,-66 950,-85"/>
<text text-anchor="middle" x="925" y="-73" font-family="Helvetica,sans-Serif" font-size="10.00">QLabel</text>
</a>
</g>
</g>
<!-- Node1&#45;&gt;Node18 -->
<g id="edge18_Node000001_Node000018" class="edge">
<title>Node1&#45;&gt;Node18</title>
<g id="a_edge18_Node000001_Node000018"><a xlink:title=" ">
<path fill="none" stroke="#63b8ff" d="M892.44,-120.75C897.89,-113.34 905.86,-102.5 912.56,-93.41"/>
<polygon fill="#63b8ff" stroke="#63b8ff" points="915.57,-95.22 918.68,-85.09 909.93,-91.07 915.57,-95.22"/>
</a>
</g>
</g>
<!-- Node19 -->
<g id="Node000019" class="node">
<title>Node19</title>
<g id="a_Node000019"><a xlink:title=" ">
<polygon fill="#e0e0e0" stroke="#999999" points="1025.5,-85 968.5,-85 968.5,-66 1025.5,-66 1025.5,-85"/>
<text text-anchor="middle" x="997" y="-73" font-family="Helvetica,sans-Serif" font-size="10.00">QLayout</text>
</a>
</g>
</g>
<!-- Node1&#45;&gt;Node19 -->
<g id="edge19_Node000001_Node000019" class="edge">
<title>Node1&#45;&gt;Node19</title>
<g id="a_edge19_Node000001_Node000019"><a xlink:title=" ">
<path fill="none" stroke="#63b8ff" d="M903.83,-120.98C921.61,-112.5 949.15,-99.35 969.68,-89.54"/>
<polygon fill="#63b8ff" stroke="#63b8ff" points="971.33,-92.64 978.84,-85.17 968.31,-86.32 971.33,-92.64"/>
</a>
</g>
</g>
<!-- Node20 -->
<g id="Node000020" class="node">
<title>Node20</title>
<g id="a_Node000020"><a xlink:title=" ">
<polygon fill="#e0e0e0" stroke="#999999" points="1106.5,-85 1043.5,-85 1043.5,-66 1106.5,-66 1106.5,-85"/>
<text text-anchor="middle" x="1075" y="-73" font-family="Helvetica,sans-Serif" font-size="10.00">QLineEdit</text>
</a>
</g>
</g>
<!-- Node1&#45;&gt;Node20 -->
<g id="edge20_Node000001_Node000020" class="edge">
<title>Node1&#45;&gt;Node20</title>
<g id="a_edge20_Node000001_Node000020"><a xlink:title=" ">
<path fill="none" stroke="#63b8ff" d="M916.37,-120.98C948.37,-112.01 998.96,-97.82 1034.38,-87.89"/>
<polygon fill="#63b8ff" stroke="#63b8ff" points="1035.71,-91.15 1044.4,-85.08 1033.82,-84.41 1035.71,-91.15"/>
</a>
</g>
</g>
<!-- Node21 -->
<g id="Node000021" class="node">
<title>Node21</title>
<g id="a_Node000021"><a xlink:title=" ">
<polygon fill="#e0e0e0" stroke="#999999" points="1209,-85 1125,-85 1125,-66 1209,-66 1209,-85"/>
<text text-anchor="middle" x="1167" y="-73" font-family="Helvetica,sans-Serif" font-size="10.00">QMouseEvent</text>
</a>
</g>
</g>
<!-- Node1&#45;&gt;Node21 -->
<g id="edge21_Node000001_Node000021" class="edge">
<title>Node1&#45;&gt;Node21</title>
<g id="a_edge21_Node000001_Node000021"><a xlink:title=" ">
<path fill="none" stroke="#63b8ff" d="M931.15,-120.98C981.28,-111.53 1062.09,-96.29 1114.88,-86.33"/>
<polygon fill="#63b8ff" stroke="#63b8ff" points="1115.54,-89.77 1124.72,-84.47 1114.25,-82.89 1115.54,-89.77"/>
</a>
</g>
</g>
<!-- Node22 -->
<g id="Node000022" class="node">
<title>Node22</title>
<g id="a_Node000022"><a xlink:title=" ">
<polygon fill="#e0e0e0" stroke="#999999" points="1288.5,-85 1227.5,-85 1227.5,-66 1288.5,-66 1288.5,-85"/>
<text text-anchor="middle" x="1258" y="-73" font-family="Helvetica,sans-Serif" font-size="10.00">QPixmap</text>
</a>
</g>
</g>
<!-- Node1&#45;&gt;Node22 -->
<g id="edge22_Node000001_Node000022" class="edge">
<title>Node1&#45;&gt;Node22</title>
<g id="a_edge22_Node000001_Node000022"><a xlink:title=" ">
<path fill="none" stroke="#63b8ff" d="M942,-123.31C1006.09,-115.94 1114.41,-102.57 1217.51,-84.96"/>
<polygon fill="#63b8ff" stroke="#63b8ff" points="1218.21,-88.39 1227.47,-83.24 1217.02,-81.49 1218.21,-88.39"/>
</a>
</g>
</g>
<!-- Node23 -->
<g id="Node000023" class="node">
<title>Node23</title>
<g id="a_Node000023"><a xlink:title=" ">
<polygon fill="#e0e0e0" stroke="#999999" points="1369,-85 1307,-85 1307,-66 1369,-66 1369,-85"/>
<text text-anchor="middle" x="1338" y="-73" font-family="Helvetica,sans-Serif" font-size="10.00">QProcess</text>
</a>
</g>
</g>
<!-- Node1&#45;&gt;Node23 -->
<g id="edge23_Node000001_Node000023" class="edge">
<title>Node1&#45;&gt;Node23</title>
<g id="a_edge23_Node000001_Node000023"><a xlink:title=" ">
<path fill="none" stroke="#63b8ff" d="M942.22,-125.25C1019.81,-118.99 1164.27,-105.87 1296.7,-85.06"/>
<polygon fill="#63b8ff" stroke="#63b8ff" points="1297.29,-88.51 1306.61,-83.49 1296.19,-81.6 1297.29,-88.51"/>
</a>
</g>
</g>
<!-- Node24 -->
<g id="Node000024" class="node">
<title>Node24</title>
<g id="a_Node000024"><a xlink:title=" ">
<polygon fill="#e0e0e0" stroke="#999999" points="1439,-85 1387,-85 1387,-66 1439,-66 1439,-85"/>
<text text-anchor="middle" x="1413" y="-73" font-family="Helvetica,sans-Serif" font-size="10.00">QSlider</text>
</a>
</g>
</g>
<!-- Node1&#45;&gt;Node24 -->
<g id="edge24_Node000001_Node000024" class="edge">
<title>Node1&#45;&gt;Node24</title>
<g id="a_edge24_Node000001_Node000024"><a xlink:title=" ">
<path fill="none" stroke="#63b8ff" d="M942.05,-127.13C1031.85,-122.75 1213.61,-111.45 1376.51,-85.01"/>
<polygon fill="#63b8ff" stroke="#63b8ff" points="1377.41,-88.4 1386.71,-83.33 1376.28,-81.5 1377.41,-88.4"/>
</a>
</g>
</g>
<!-- Node3 -->
<g id="Node000003" class="node">
<title>Node3</title>
<g id="a_Node000003"><a xlink:title=" ">
<polygon fill="#e0e0e0" stroke="#999999" points="56,-24.5 0,-24.5 0,-5.5 56,-5.5 56,-24.5"/>
<text text-anchor="middle" x="28" y="-12.5" font-family="Helvetica,sans-Serif" font-size="10.00">QDialog</text>
</a>
</g>
</g>
<!-- Node2&#45;&gt;Node3 -->
<g id="edge2_Node000002_Node000003" class="edge">
<title>Node2&#45;&gt;Node3</title>
<g id="a_edge2_Node000002_Node000003"><a xlink:title=" ">
<path fill="none" stroke="#63b8ff" d="M138.24,-65.99C116.65,-56.2 80.97,-40.02 56.07,-28.73"/>
<polygon fill="#63b8ff" stroke="#63b8ff" points="57.33,-25.46 46.78,-24.52 54.44,-31.83 57.33,-25.46"/>
</a>
</g>
</g>
<!-- Node4 -->
<g id="Node000004" class="node">
<title>Node4</title>
<g id="a_Node000004"><a xlink:title=" ">
<polygon fill="#e0e0e0" stroke="#999999" points="144,-24.5 74,-24.5 74,-5.5 144,-5.5 144,-24.5"/>
<text text-anchor="middle" x="109" y="-12.5" font-family="Helvetica,sans-Serif" font-size="10.00">Windows.h</text>
</a>
</g>
</g>
<!-- Node2&#45;&gt;Node4 -->
<g id="edge3_Node000002_Node000004" class="edge">
<title>Node2&#45;&gt;Node4</title>
<g id="a_edge3_Node000002_Node000004"><a xlink:title=" ">
<path fill="none" stroke="#63b8ff" d="M149.92,-65.87C142.76,-57.14 131.51,-43.43 122.61,-32.59"/>
<polygon fill="#63b8ff" stroke="#63b8ff" points="125.16,-30.18 116.11,-24.67 119.75,-34.62 125.16,-30.18"/>
</a>
</g>
</g>
<!-- Node5 -->
<g id="Node000005" class="node">
<title>Node5</title>
<g id="a_Node000005"><a xlink:title=" ">
<polygon fill="#e0e0e0" stroke="#999999" points="239.5,-24.5 162.5,-24.5 162.5,-5.5 239.5,-5.5 239.5,-24.5"/>
<text text-anchor="middle" x="201" y="-12.5" font-family="Helvetica,sans-Serif" font-size="10.00">minwindef.h</text>
</a>
</g>
</g>
<!-- Node2&#45;&gt;Node5 -->
<g id="edge4_Node000002_Node000005" class="edge">
<title>Node2&#45;&gt;Node5</title>
<g id="a_edge4_Node000002_Node000005"><a xlink:title=" ">
<path fill="none" stroke="#63b8ff" d="M163.49,-65.87C169.99,-57.23 180.16,-43.7 188.28,-32.92"/>
<polygon fill="#63b8ff" stroke="#63b8ff" points="191.27,-34.76 194.48,-24.67 185.67,-30.56 191.27,-34.76"/>
</a>
</g>
</g>
<!-- Node6&#45;&gt;Node5 -->
<g id="edge8_Node000006_Node000005" class="edge">
<title>Node6&#45;&gt;Node5</title>
<g id="a_edge8_Node000006_Node000005"><a xlink:title=" ">
<path fill="none" stroke="#63b8ff" d="M274.31,-65.87C260.59,-56.54 238.5,-41.51 222.15,-30.38"/>
<polygon fill="#63b8ff" stroke="#63b8ff" points="223.98,-27.4 213.74,-24.67 220.04,-33.19 223.98,-27.4"/>
</a>
</g>
</g>
<!-- Node7 -->
<g id="Node000007" class="node">
<title>Node7</title>
<g id="a_Node000007"><a xlink:title=" ">
<polygon fill="#e0e0e0" stroke="#999999" points="296,-24.5 258,-24.5 258,-5.5 296,-5.5 296,-24.5"/>
<text text-anchor="middle" x="277" y="-12.5" font-family="Helvetica,sans-Serif" font-size="10.00">QDir</text>
</a>
</g>
</g>
<!-- Node6&#45;&gt;Node7 -->
<g id="edge6_Node000006_Node000007" class="edge">
<title>Node6&#45;&gt;Node7</title>
<g id="a_edge6_Node000006_Node000007"><a xlink:title=" ">
<path fill="none" stroke="#63b8ff" d="M285.52,-65.87C284.12,-57.66 281.96,-45.04 280.17,-34.55"/>
<polygon fill="#63b8ff" stroke="#63b8ff" points="283.62,-33.93 278.48,-24.67 276.72,-35.11 283.62,-33.93"/>
</a>
</g>
</g>
<!-- Node8 -->
<g id="Node000008" class="node">
<title>Node8</title>
<g id="a_Node000008"><a xlink:title=" ">
<polygon fill="#e0e0e0" stroke="#999999" points="378,-24.5 314,-24.5 314,-5.5 378,-5.5 378,-24.5"/>
<text text-anchor="middle" x="346" y="-12.5" font-family="Helvetica,sans-Serif" font-size="10.00">QSettings</text>
</a>
</g>
</g>
<!-- Node6&#45;&gt;Node8 -->
<g id="edge7_Node000006_Node000008" class="edge">
<title>Node6&#45;&gt;Node8</title>
<g id="a_edge7_Node000006_Node000008"><a xlink:title=" ">
<path fill="none" stroke="#63b8ff" d="M295.71,-65.87C304.68,-56.97 318.88,-42.89 329.91,-31.95"/>
<polygon fill="#63b8ff" stroke="#63b8ff" points="332.62,-34.19 337.26,-24.67 327.69,-29.22 332.62,-34.19"/>
</a>
</g>
</g>
<!-- Node10 -->
<g id="Node000010" class="node">
<title>Node10</title>
<g id="a_Node000010"><a xlink:title=" ">
<polygon fill="#e0e0e0" stroke="#999999" points="437.5,-24.5 396.5,-24.5 396.5,-5.5 437.5,-5.5 437.5,-24.5"/>
<text text-anchor="middle" x="417" y="-12.5" font-family="Helvetica,sans-Serif" font-size="10.00">QList</text>
</a>
</g>
</g>
<!-- Node9&#45;&gt;Node10 -->
<g id="edge10_Node000009_Node000010" class="edge">
<title>Node9&#45;&gt;Node10</title>
<g id="a_edge10_Node000009_Node000010"><a xlink:title=" ">
<path fill="none" stroke="#63b8ff" d="M447.69,-65.87C442.42,-57.31 434.21,-43.97 427.61,-33.24"/>
<polygon fill="#63b8ff" stroke="#63b8ff" points="430.56,-31.35 422.33,-24.67 424.59,-35.02 430.56,-31.35"/>
</a>
</g>
</g>
<!-- Node11 -->
<g id="Node000011" class="node">
<title>Node11</title>
<g id="a_Node000011"><a xlink:title=" ">
<polygon fill="#e0e0e0" stroke="#999999" points="524,-24.5 456,-24.5 456,-5.5 524,-5.5 524,-24.5"/>
<text text-anchor="middle" x="490" y="-12.5" font-family="Helvetica,sans-Serif" font-size="10.00">windows.h</text>
</a>
</g>
</g>
<!-- Node9&#45;&gt;Node11 -->
<g id="edge11_Node000009_Node000011" class="edge">
<title>Node9&#45;&gt;Node11</title>
<g id="a_edge11_Node000009_Node000011"><a xlink:title=" ">
<path fill="none" stroke="#63b8ff" d="M458.46,-65.87C463.87,-57.31 472.31,-43.97 479.1,-33.24"/>
<polygon fill="#63b8ff" stroke="#63b8ff" points="482.13,-34.99 484.52,-24.67 476.21,-31.25 482.13,-34.99"/>
</a>
</g>
</g>
<!-- Node12 -->
<g id="Node000012" class="node">
<title>Node12</title>
<g id="a_Node000012"><a xlink:href="GameButtons_8h.html" target="_top" xlink:title=" ">
<polygon fill="white" stroke="#666666" points="669.5,-30 542.5,-30 542.5,0 669.5,0 669.5,-30"/>
<text text-anchor="start" x="550.5" y="-18" font-family="Helvetica,sans-Serif" font-size="10.00">../VGP_Data_Exchange</text>
<text text-anchor="middle" x="606" y="-7" font-family="Helvetica,sans-Serif" font-size="10.00">/C/GameButtons.h</text>
</a>
</g>
</g>
<!-- Node9&#45;&gt;Node12 -->
<g id="edge12_Node000009_Node000012" class="edge">
<title>Node9&#45;&gt;Node12</title>
<g id="a_edge12_Node000009_Node000012"><a xlink:title=" ">
<path fill="none" stroke="#63b8ff" d="M475.25,-65.99C497.27,-57.57 531.64,-44.43 559.62,-33.73"/>
<polygon fill="#63b8ff" stroke="#63b8ff" points="561.13,-36.9 569.22,-30.06 558.63,-30.37 561.13,-36.9"/>
</a>
</g>
</g>
<!-- Node13 -->
<g id="Node000013" class="node">
<title>Node13</title>
<g id="a_Node000013"><a xlink:title=" ">
<polygon fill="#e0e0e0" stroke="#999999" points="726,-24.5 688,-24.5 688,-5.5 726,-5.5 726,-24.5"/>
<text text-anchor="middle" x="707" y="-12.5" font-family="Helvetica,sans-Serif" font-size="10.00">map</text>
</a>
</g>
</g>
<!-- Node9&#45;&gt;Node13 -->
<g id="edge13_Node000009_Node000013" class="edge">
<title>Node9&#45;&gt;Node13</title>
<g id="a_edge13_Node000009_Node000013"><a xlink:title=" ">
<path fill="none" stroke="#63b8ff" d="M520.99,-65.99C566.52,-59.12 627.34,-47.64 679,-30 680.05,-29.64 681.12,-29.25 682.19,-28.83"/>
<polygon fill="#63b8ff" stroke="#63b8ff" points="683.92,-31.89 691.62,-24.62 681.07,-25.5 683.92,-31.89"/>
</a>
</g>
</g>
</g>
</svg>
