<?xml version="1.0" encoding="UTF-8" standalone="no"?>
<!DOCTYPE svg PUBLIC "-//W3C//DTD SVG 1.1//EN"
 "http://www.w3.org/Graphics/SVG/1.1/DTD/svg11.dtd">
<!-- Generated by graphviz version 2.43.0 (0)
 -->
<!-- Title: src/preferences.cpp Pages: 1 -->
<svg width="1123pt" height="148pt"
 viewBox="0.00 0.00 1123.00 148.00" xmlns="http://www.w3.org/2000/svg" xmlns:xlink="http://www.w3.org/1999/xlink">
<g id="graph0" class="graph" transform="scale(1 1) rotate(0) translate(4 144)">
<title>src/preferences.cpp</title>
<!-- Node1 -->
<g id="Node000001" class="node">
<title>Node1</title>
<g id="a_Node000001"><a xlink:title=" ">
<polygon fill="#999999" stroke="#666666" points="786,-140 674,-140 674,-121 786,-121 786,-140"/>
<text text-anchor="middle" x="730" y="-128" font-family="Helvetica,sans-Serif" font-size="10.00">src/preferences.cpp</text>
</a>
</g>
</g>
<!-- Node2 -->
<g id="Node000002" class="node">
<title>Node2</title>
<g id="a_Node000002"><a xlink:href="preferences_8h.html" target="_top" xlink:title=" ">
<polygon fill="white" stroke="#666666" points="198.5,-85 115.5,-85 115.5,-66 198.5,-66 198.5,-85"/>
<text text-anchor="middle" x="157" y="-73" font-family="Helvetica,sans-Serif" font-size="10.00">preferences.h</text>
</a>
</g>
</g>
<!-- Node1&#45;&gt;Node2 -->
<g id="edge1_Node000001_Node000002" class="edge">
<title>Node1&#45;&gt;Node2</title>
<g id="a_edge1_Node000001_Node000002"><a xlink:title=" ">
<path fill="none" stroke="#63b8ff" d="M673.98,-124.45C583.67,-116.28 400.32,-99.63 245,-85 233.3,-83.9 220.73,-82.69 208.85,-81.55"/>
<polygon fill="#63b8ff" stroke="#63b8ff" points="208.92,-78.04 198.63,-80.56 208.24,-85.01 208.92,-78.04"/>
</a>
</g>
</g>
<!-- Node6 -->
<g id="Node000006" class="node">
<title>Node6</title>
<g id="a_Node000006"><a xlink:href="settings_8h.html" target="_top" xlink:title=" ">
<polygon fill="white" stroke="#666666" points="319.5,-85 254.5,-85 254.5,-66 319.5,-66 319.5,-85"/>
<text text-anchor="middle" x="287" y="-73" font-family="Helvetica,sans-Serif" font-size="10.00">settings.h</text>
</a>
</g>
</g>
<!-- Node1&#45;&gt;Node6 -->
<g id="edge5_Node000001_Node000006" class="edge">
<title>Node1&#45;&gt;Node6</title>
<g id="a_edge5_Node000001_Node000006"><a xlink:title=" ">
<path fill="none" stroke="#63b8ff" d="M673.89,-122.79C584.21,-112.06 410.48,-91.27 329.93,-81.64"/>
<polygon fill="#63b8ff" stroke="#63b8ff" points="330.01,-78.12 319.66,-80.41 329.17,-85.07 330.01,-78.12"/>
</a>
</g>
</g>
<!-- Node9 -->
<g id="Node000009" class="node">
<title>Node9</title>
<g id="a_Node000009"><a xlink:href="settings__key__variables_8h.html" target="_top" xlink:title=" ">
<polygon fill="white" stroke="#666666" points="521.5,-85 384.5,-85 384.5,-66 521.5,-66 521.5,-85"/>
<text text-anchor="middle" x="453" y="-73" font-family="Helvetica,sans-Serif" font-size="10.00">settings_key_variables.h</text>
</a>
</g>
</g>
<!-- Node1&#45;&gt;Node9 -->
<g id="edge9_Node000001_Node000009" class="edge">
<title>Node1&#45;&gt;Node9</title>
<g id="a_edge9_Node000001_Node000009"><a xlink:title=" ">
<path fill="none" stroke="#63b8ff" d="M685.5,-120.98C637.18,-111.74 559.96,-96.97 507.91,-87.01"/>
<polygon fill="#63b8ff" stroke="#63b8ff" points="508.33,-83.52 497.85,-85.08 507.02,-90.4 508.33,-83.52"/>
</a>
</g>
</g>
<!-- Node14 -->
<g id="Node000014" class="node">
<title>Node14</title>
<g id="a_Node000014"><a xlink:title=" ">
<polygon fill="#e0e0e0" stroke="#999999" points="638,-85 540,-85 540,-66 638,-66 638,-85"/>
<text text-anchor="middle" x="589" y="-73" font-family="Helvetica,sans-Serif" font-size="10.00">ui_preferences.h</text>
</a>
</g>
</g>
<!-- Node1&#45;&gt;Node14 -->
<g id="edge14_Node000001_Node000014" class="edge">
<title>Node1&#45;&gt;Node14</title>
<g id="a_edge14_Node000001_Node000014"><a xlink:title=" ">
<path fill="none" stroke="#63b8ff" d="M707.35,-120.98C684.15,-112.27 647.88,-98.63 621.6,-88.75"/>
<polygon fill="#63b8ff" stroke="#63b8ff" points="622.66,-85.41 612.07,-85.17 620.2,-91.97 622.66,-85.41"/>
</a>
</g>
</g>
<!-- Node15 -->
<g id="Node000015" class="node">
<title>Node15</title>
<g id="a_Node000015"><a xlink:title=" ">
<polygon fill="#e0e0e0" stroke="#999999" points="719.5,-85 656.5,-85 656.5,-66 719.5,-66 719.5,-85"/>
<text text-anchor="middle" x="688" y="-73" font-family="Helvetica,sans-Serif" font-size="10.00">winuser.h</text>
</a>
</g>
</g>
<!-- Node1&#45;&gt;Node15 -->
<g id="edge15_Node000001_Node000015" class="edge">
<title>Node1&#45;&gt;Node15</title>
<g id="a_edge15_Node000001_Node000015"><a xlink:title=" ">
<path fill="none" stroke="#63b8ff" d="M723.06,-120.75C717.13,-113.26 708.43,-102.28 701.18,-93.13"/>
<polygon fill="#63b8ff" stroke="#63b8ff" points="703.76,-90.75 694.81,-85.09 698.27,-95.1 703.76,-90.75"/>
</a>
</g>
</g>
<!-- Node16 -->
<g id="Node000016" class="node">
<title>Node16</title>
<g id="a_Node000016"><a xlink:title=" ">
<polygon fill="#e0e0e0" stroke="#999999" points="808,-85 738,-85 738,-66 808,-66 808,-85"/>
<text text-anchor="middle" x="773" y="-73" font-family="Helvetica,sans-Serif" font-size="10.00">QKeyEvent</text>
</a>
</g>
</g>
<!-- Node1&#45;&gt;Node16 -->
<g id="edge16_Node000001_Node000016" class="edge">
<title>Node1&#45;&gt;Node16</title>
<g id="a_edge16_Node000001_Node000016"><a xlink:title=" ">
<path fill="none" stroke="#63b8ff" d="M737.1,-120.75C743.17,-113.26 752.09,-102.28 759.51,-93.13"/>
<polygon fill="#63b8ff" stroke="#63b8ff" points="762.45,-95.06 766.03,-85.09 757.01,-90.65 762.45,-95.06"/>
</a>
</g>
</g>
<!-- Node17 -->
<g id="Node000017" class="node">
<title>Node17</title>
<g id="a_Node000017"><a xlink:title=" ">
<polygon fill="#e0e0e0" stroke="#999999" points="883.5,-85 826.5,-85 826.5,-66 883.5,-66 883.5,-85"/>
<text text-anchor="middle" x="855" y="-73" font-family="Helvetica,sans-Serif" font-size="10.00">QLayout</text>
</a>
</g>
</g>
<!-- Node1&#45;&gt;Node17 -->
<g id="edge17_Node000001_Node000017" class="edge">
<title>Node1&#45;&gt;Node17</title>
<g id="a_edge17_Node000001_Node000017"><a xlink:title=" ">
<path fill="none" stroke="#63b8ff" d="M750.08,-120.98C770.37,-112.38 801.96,-98.99 825.17,-89.15"/>
<polygon fill="#63b8ff" stroke="#63b8ff" points="826.71,-92.3 834.55,-85.17 823.98,-85.85 826.71,-92.3"/>
</a>
</g>
</g>
<!-- Node18 -->
<g id="Node000018" class="node">
<title>Node18</title>
<g id="a_Node000018"><a xlink:title=" ">
<polygon fill="#e0e0e0" stroke="#999999" points="964.5,-85 901.5,-85 901.5,-66 964.5,-66 964.5,-85"/>
<text text-anchor="middle" x="933" y="-73" font-family="Helvetica,sans-Serif" font-size="10.00">QLineEdit</text>
</a>
</g>
</g>
<!-- Node1&#45;&gt;Node18 -->
<g id="edge18_Node000001_Node000018" class="edge">
<title>Node1&#45;&gt;Node18</title>
<g id="a_edge18_Node000001_Node000018"><a xlink:title=" ">
<path fill="none" stroke="#63b8ff" d="M762.62,-120.98C797.7,-111.82 853.57,-97.24 891.7,-87.28"/>
<polygon fill="#63b8ff" stroke="#63b8ff" points="892.68,-90.65 901.47,-84.73 890.91,-83.87 892.68,-90.65"/>
</a>
</g>
</g>
<!-- Node19 -->
<g id="Node000019" class="node">
<title>Node19</title>
<g id="a_Node000019"><a xlink:title=" ">
<polygon fill="#e0e0e0" stroke="#999999" points="1045,-85 983,-85 983,-66 1045,-66 1045,-85"/>
<text text-anchor="middle" x="1014" y="-73" font-family="Helvetica,sans-Serif" font-size="10.00">QProcess</text>
</a>
</g>
</g>
<!-- Node1&#45;&gt;Node19 -->
<g id="edge19_Node000001_Node000019" class="edge">
<title>Node1&#45;&gt;Node19</title>
<g id="a_edge19_Node000001_Node000019"><a xlink:title=" ">
<path fill="none" stroke="#63b8ff" d="M779.15,-120.97C826.27,-112.69 899.66,-99.55 972.33,-85.29"/>
<polygon fill="#63b8ff" stroke="#63b8ff" points="973.44,-88.64 982.57,-83.27 972.09,-81.77 973.44,-88.64"/>
</a>
</g>
</g>
<!-- Node20 -->
<g id="Node000020" class="node">
<title>Node20</title>
<g id="a_Node000020"><a xlink:title=" ">
<polygon fill="#e0e0e0" stroke="#999999" points="1115,-85 1063,-85 1063,-66 1115,-66 1115,-85"/>
<text text-anchor="middle" x="1089" y="-73" font-family="Helvetica,sans-Serif" font-size="10.00">QSlider</text>
</a>
</g>
</g>
<!-- Node1&#45;&gt;Node20 -->
<g id="edge20_Node000001_Node000020" class="edge">
<title>Node1&#45;&gt;Node20</title>
<g id="a_edge20_Node000001_Node000020"><a xlink:title=" ">
<path fill="none" stroke="#63b8ff" d="M786.18,-123.54C848.93,-116.49 953.68,-103.56 1052.81,-85.06"/>
<polygon fill="#63b8ff" stroke="#63b8ff" points="1053.51,-88.49 1062.69,-83.19 1052.21,-81.61 1053.51,-88.49"/>
</a>
</g>
</g>
<!-- Node3 -->
<g id="Node000003" class="node">
<title>Node3</title>
<g id="a_Node000003"><a xlink:title=" ">
<polygon fill="#e0e0e0" stroke="#999999" points="56,-24.5 0,-24.5 0,-5.5 56,-5.5 56,-24.5"/>
<text text-anchor="middle" x="28" y="-12.5" font-family="Helvetica,sans-Serif" font-size="10.00">QDialog</text>
</a>
</g>
</g>
<!-- Node2&#45;&gt;Node3 -->
<g id="edge2_Node000002_Node000003" class="edge">
<title>Node2&#45;&gt;Node3</title>
<g id="a_edge2_Node000002_Node000003"><a xlink:title=" ">
<path fill="none" stroke="#63b8ff" d="M138.24,-65.99C116.65,-56.2 80.97,-40.02 56.07,-28.73"/>
<polygon fill="#63b8ff" stroke="#63b8ff" points="57.33,-25.46 46.78,-24.52 54.44,-31.83 57.33,-25.46"/>
</a>
</g>
</g>
<!-- Node4 -->
<g id="Node000004" class="node">
<title>Node4</title>
<g id="a_Node000004"><a xlink:title=" ">
<polygon fill="#e0e0e0" stroke="#999999" points="144,-24.5 74,-24.5 74,-5.5 144,-5.5 144,-24.5"/>
<text text-anchor="middle" x="109" y="-12.5" font-family="Helvetica,sans-Serif" font-size="10.00">Windows.h</text>
</a>
</g>
</g>
<!-- Node2&#45;&gt;Node4 -->
<g id="edge3_Node000002_Node000004" class="edge">
<title>Node2&#45;&gt;Node4</title>
<g id="a_edge3_Node000002_Node000004"><a xlink:title=" ">
<path fill="none" stroke="#63b8ff" d="M149.92,-65.87C142.76,-57.14 131.51,-43.43 122.61,-32.59"/>
<polygon fill="#63b8ff" stroke="#63b8ff" points="125.16,-30.18 116.11,-24.67 119.75,-34.62 125.16,-30.18"/>
</a>
</g>
</g>
<!-- Node5 -->
<g id="Node000005" class="node">
<title>Node5</title>
<g id="a_Node000005"><a xlink:title=" ">
<polygon fill="#e0e0e0" stroke="#999999" points="239.5,-24.5 162.5,-24.5 162.5,-5.5 239.5,-5.5 239.5,-24.5"/>
<text text-anchor="middle" x="201" y="-12.5" font-family="Helvetica,sans-Serif" font-size="10.00">minwindef.h</text>
</a>
</g>
</g>
<!-- Node2&#45;&gt;Node5 -->
<g id="edge4_Node000002_Node000005" class="edge">
<title>Node2&#45;&gt;Node5</title>
<g id="a_edge4_Node000002_Node000005"><a xlink:title=" ">
<path fill="none" stroke="#63b8ff" d="M163.49,-65.87C169.99,-57.23 180.16,-43.7 188.28,-32.92"/>
<polygon fill="#63b8ff" stroke="#63b8ff" points="191.27,-34.76 194.48,-24.67 185.67,-30.56 191.27,-34.76"/>
</a>
</g>
</g>
<!-- Node6&#45;&gt;Node5 -->
<g id="edge8_Node000006_Node000005" class="edge">
<title>Node6&#45;&gt;Node5</title>
<g id="a_edge8_Node000006_Node000005"><a xlink:title=" ">
<path fill="none" stroke="#63b8ff" d="M274.31,-65.87C260.59,-56.54 238.5,-41.51 222.15,-30.38"/>
<polygon fill="#63b8ff" stroke="#63b8ff" points="223.98,-27.4 213.74,-24.67 220.04,-33.19 223.98,-27.4"/>
</a>
</g>
</g>
<!-- Node7 -->
<g id="Node000007" class="node">
<title>Node7</title>
<g id="a_Node000007"><a xlink:title=" ">
<polygon fill="#e0e0e0" stroke="#999999" points="296,-24.5 258,-24.5 258,-5.5 296,-5.5 296,-24.5"/>
<text text-anchor="middle" x="277" y="-12.5" font-family="Helvetica,sans-Serif" font-size="10.00">QDir</text>
</a>
</g>
</g>
<!-- Node6&#45;&gt;Node7 -->
<g id="edge6_Node000006_Node000007" class="edge">
<title>Node6&#45;&gt;Node7</title>
<g id="a_edge6_Node000006_Node000007"><a xlink:title=" ">
<path fill="none" stroke="#63b8ff" d="M285.52,-65.87C284.12,-57.66 281.96,-45.04 280.17,-34.55"/>
<polygon fill="#63b8ff" stroke="#63b8ff" points="283.62,-33.93 278.48,-24.67 276.72,-35.11 283.62,-33.93"/>
</a>
</g>
</g>
<!-- Node8 -->
<g id="Node000008" class="node">
<title>Node8</title>
<g id="a_Node000008"><a xlink:title=" ">
<polygon fill="#e0e0e0" stroke="#999999" points="378,-24.5 314,-24.5 314,-5.5 378,-5.5 378,-24.5"/>
<text text-anchor="middle" x="346" y="-12.5" font-family="Helvetica,sans-Serif" font-size="10.00">QSettings</text>
</a>
</g>
</g>
<!-- Node6&#45;&gt;Node8 -->
<g id="edge7_Node000006_Node000008" class="edge">
<title>Node6&#45;&gt;Node8</title>
<g id="a_edge7_Node000006_Node000008"><a xlink:title=" ">
<path fill="none" stroke="#63b8ff" d="M295.71,-65.87C304.68,-56.97 318.88,-42.89 329.91,-31.95"/>
<polygon fill="#63b8ff" stroke="#63b8ff" points="332.62,-34.19 337.26,-24.67 327.69,-29.22 332.62,-34.19"/>
</a>
</g>
</g>
<!-- Node10 -->
<g id="Node000010" class="node">
<title>Node10</title>
<g id="a_Node000010"><a xlink:title=" ">
<polygon fill="#e0e0e0" stroke="#999999" points="437.5,-24.5 396.5,-24.5 396.5,-5.5 437.5,-5.5 437.5,-24.5"/>
<text text-anchor="middle" x="417" y="-12.5" font-family="Helvetica,sans-Serif" font-size="10.00">QList</text>
</a>
</g>
</g>
<!-- Node9&#45;&gt;Node10 -->
<g id="edge10_Node000009_Node000010" class="edge">
<title>Node9&#45;&gt;Node10</title>
<g id="a_edge10_Node000009_Node000010"><a xlink:title=" ">
<path fill="none" stroke="#63b8ff" d="M447.69,-65.87C442.42,-57.31 434.21,-43.97 427.61,-33.24"/>
<polygon fill="#63b8ff" stroke="#63b8ff" points="430.56,-31.35 422.33,-24.67 424.59,-35.02 430.56,-31.35"/>
</a>
</g>
</g>
<!-- Node11 -->
<g id="Node000011" class="node">
<title>Node11</title>
<g id="a_Node000011"><a xlink:title=" ">
<polygon fill="#e0e0e0" stroke="#999999" points="524,-24.5 456,-24.5 456,-5.5 524,-5.5 524,-24.5"/>
<text text-anchor="middle" x="490" y="-12.5" font-family="Helvetica,sans-Serif" font-size="10.00">windows.h</text>
</a>
</g>
</g>
<!-- Node9&#45;&gt;Node11 -->
<g id="edge11_Node000009_Node000011" class="edge">
<title>Node9&#45;&gt;Node11</title>
<g id="a_edge11_Node000009_Node000011"><a xlink:title=" ">
<path fill="none" stroke="#63b8ff" d="M458.46,-65.87C463.87,-57.31 472.31,-43.97 479.1,-33.24"/>
<polygon fill="#63b8ff" stroke="#63b8ff" points="482.13,-34.99 484.52,-24.67 476.21,-31.25 482.13,-34.99"/>
</a>
</g>
</g>
<!-- Node12 -->
<g id="Node000012" class="node">
<title>Node12</title>
<g id="a_Node000012"><a xlink:href="GameButtons_8h.html" target="_top" xlink:title=" ">
<polygon fill="white" stroke="#666666" points="669.5,-30 542.5,-30 542.5,0 669.5,0 669.5,-30"/>
<text text-anchor="start" x="550.5" y="-18" font-family="Helvetica,sans-Serif" font-size="10.00">../VGP_Data_Exchange</text>
<text text-anchor="middle" x="606" y="-7" font-family="Helvetica,sans-Serif" font-size="10.00">/C/GameButtons.h</text>
</a>
</g>
</g>
<!-- Node9&#45;&gt;Node12 -->
<g id="edge12_Node000009_Node000012" class="edge">
<title>Node9&#45;&gt;Node12</title>
<g id="a_edge12_Node000009_Node000012"><a xlink:title=" ">
<path fill="none" stroke="#63b8ff" d="M475.25,-65.99C497.27,-57.57 531.64,-44.43 559.62,-33.73"/>
<polygon fill="#63b8ff" stroke="#63b8ff" points="561.13,-36.9 569.22,-30.06 558.63,-30.37 561.13,-36.9"/>
</a>
</g>
</g>
<!-- Node13 -->
<g id="Node000013" class="node">
<title>Node13</title>
<g id="a_Node000013"><a xlink:title=" ">
<polygon fill="#e0e0e0" stroke="#999999" points="726,-24.5 688,-24.5 688,-5.5 726,-5.5 726,-24.5"/>
<text text-anchor="middle" x="707" y="-12.5" font-family="Helvetica,sans-Serif" font-size="10.00">map</text>
</a>
</g>
</g>
<!-- Node9&#45;&gt;Node13 -->
<g id="edge13_Node000009_Node000013" class="edge">
<title>Node9&#45;&gt;Node13</title>
<g id="a_edge13_Node000009_Node000013"><a xlink:title=" ">
<path fill="none" stroke="#63b8ff" d="M520.99,-65.99C566.52,-59.12 627.34,-47.64 679,-30 680.05,-29.64 681.12,-29.25 682.19,-28.83"/>
<polygon fill="#63b8ff" stroke="#63b8ff" points="683.92,-31.89 691.62,-24.62 681.07,-25.5 683.92,-31.89"/>
</a>
</g>
</g>
</g>
</svg>
