<?xml version="1.0" encoding="UTF-8" standalone="no"?>
<!DOCTYPE svg PUBLIC "-//W3C//DTD SVG 1.1//EN"
 "http://www.w3.org/Graphics/SVG/1.1/DTD/svg11.dtd">
<!-- Generated by graphviz version 2.43.0 (0)
 -->
<!-- Title: src/ui/preferences.cpp Pages: 1 -->
<svg width="1701pt" height="324pt"
 viewBox="0.00 0.00 1701.00 324.00" xmlns="http://www.w3.org/2000/svg" xmlns:xlink="http://www.w3.org/1999/xlink">
<g id="graph0" class="graph" transform="scale(1 1) rotate(0) translate(4 320)">
<title>src/ui/preferences.cpp</title>
<!-- Node1 -->
<g id="Node000001" class="node">
<title>Node1</title>
<g id="a_Node000001"><a xlink:title=" ">
<polygon fill="#999999" stroke="#666666" points="1166,-316 1042,-316 1042,-297 1166,-297 1166,-316"/>
<text text-anchor="middle" x="1104" y="-304" font-family="Helvetica,sans-Serif" font-size="10.00">src/ui/preferences.cpp</text>
</a>
</g>
</g>
<!-- Node2 -->
<g id="Node000002" class="node">
<title>Node2</title>
<g id="a_Node000002"><a xlink:href="preferences_8hpp.html" target="_top" xlink:title=" ">
<polygon fill="white" stroke="#666666" points="591.5,-261 496.5,-261 496.5,-242 591.5,-242 591.5,-261"/>
<text text-anchor="middle" x="544" y="-249" font-family="Helvetica,sans-Serif" font-size="10.00">preferences.hpp</text>
</a>
</g>
</g>
<!-- Node1&#45;&gt;Node2 -->
<g id="edge1_Node000001_Node000002" class="edge">
<title>Node1&#45;&gt;Node2</title>
<g id="a_edge1_Node000001_Node000002"><a xlink:title=" ">
<path fill="none" stroke="#63b8ff" d="M1041.93,-299.63C932.8,-289.3 708.06,-268.03 601.93,-257.98"/>
<polygon fill="#63b8ff" stroke="#63b8ff" points="602.02,-254.48 591.73,-257.02 601.36,-261.44 602.02,-254.48"/>
</a>
</g>
</g>
<!-- Node7 -->
<g id="Node000007" class="node">
<title>Node7</title>
<g id="a_Node000007"><a xlink:href="settings__singleton_8hpp.html" target="_top" xlink:title=" ">
<polygon fill="white" stroke="#666666" points="960.5,-206 853.5,-206 853.5,-176 960.5,-176 960.5,-206"/>
<text text-anchor="start" x="861.5" y="-194" font-family="Helvetica,sans-Serif" font-size="10.00">../settings/settings</text>
<text text-anchor="middle" x="907" y="-183" font-family="Helvetica,sans-Serif" font-size="10.00">_singleton.hpp</text>
</a>
</g>
</g>
<!-- Node1&#45;&gt;Node7 -->
<g id="edge39_Node000001_Node000007" class="edge">
<title>Node1&#45;&gt;Node7</title>
<g id="a_edge39_Node000001_Node000007"><a xlink:title=" ">
<path fill="none" stroke="#63b8ff" d="M1041.97,-302.86C978,-298.67 884.49,-288 862,-261 849.34,-245.8 863.51,-226.87 879.2,-212.69"/>
<polygon fill="#63b8ff" stroke="#63b8ff" points="881.56,-215.28 886.92,-206.14 877.03,-209.94 881.56,-215.28"/>
</a>
</g>
</g>
<!-- Node9 -->
<g id="Node000009" class="node">
<title>Node9</title>
<g id="a_Node000009"><a xlink:title=" ">
<polygon fill="#e0e0e0" stroke="#999999" points="624.5,-85 583.5,-85 583.5,-66 624.5,-66 624.5,-85"/>
<text text-anchor="middle" x="604" y="-73" font-family="Helvetica,sans-Serif" font-size="10.00">QFile</text>
</a>
</g>
</g>
<!-- Node1&#45;&gt;Node9 -->
<g id="edge45_Node000001_Node000009" class="edge">
<title>Node1&#45;&gt;Node9</title>
<g id="a_edge45_Node000001_Node000009"><a xlink:title=" ">
<path fill="none" stroke="#63b8ff" d="M1041.87,-301.09C990.17,-295.87 915.39,-284.68 854,-261 759.54,-224.57 738.46,-205.19 661,-140 644.26,-125.91 627.87,-106.95 616.99,-93.43"/>
<polygon fill="#63b8ff" stroke="#63b8ff" points="619.63,-91.12 610.69,-85.43 614.13,-95.45 619.63,-91.12"/>
</a>
</g>
</g>
<!-- Node14 -->
<g id="Node000014" class="node">
<title>Node14</title>
<g id="a_Node000014"><a xlink:title=" ">
<polygon fill="#e0e0e0" stroke="#999999" points="1316,-140 1278,-140 1278,-121 1316,-121 1316,-140"/>
<text text-anchor="middle" x="1297" y="-128" font-family="Helvetica,sans-Serif" font-size="10.00">QDir</text>
</a>
</g>
</g>
<!-- Node1&#45;&gt;Node14 -->
<g id="edge44_Node000001_Node000014" class="edge">
<title>Node1&#45;&gt;Node14</title>
<g id="a_edge44_Node000001_Node000014"><a xlink:title=" ">
<path fill="none" stroke="#63b8ff" d="M1085.59,-296.83C1063.7,-285.27 1031.81,-263.76 1046,-242 1059.03,-222.03 1205.31,-165.67 1268.36,-142.09"/>
<polygon fill="#63b8ff" stroke="#63b8ff" points="1269.58,-145.37 1277.73,-138.59 1267.14,-138.81 1269.58,-145.37"/>
</a>
</g>
</g>
<!-- Node19 -->
<g id="Node000019" class="node">
<title>Node19</title>
<g id="a_Node000019"><a xlink:href="buttoninputbox_8hpp.html" target="_top" xlink:title=" ">
<polygon fill="white" stroke="#666666" points="341,-200.5 229,-200.5 229,-181.5 341,-181.5 341,-200.5"/>
<text text-anchor="middle" x="285" y="-188.5" font-family="Helvetica,sans-Serif" font-size="10.00">buttoninputbox.hpp</text>
</a>
</g>
</g>
<!-- Node1&#45;&gt;Node19 -->
<g id="edge40_Node000001_Node000019" class="edge">
<title>Node1&#45;&gt;Node19</title>
<g id="a_edge40_Node000001_Node000019"><a xlink:title=" ">
<path fill="none" stroke="#63b8ff" d="M1041.99,-306.26C929.98,-306.48 686.96,-301.65 487,-261 423.66,-248.12 352.86,-220.76 314.17,-204.63"/>
<polygon fill="#63b8ff" stroke="#63b8ff" points="315.17,-201.26 304.6,-200.6 312.45,-207.71 315.17,-201.26"/>
</a>
</g>
</g>
<!-- Node25 -->
<g id="Node000025" class="node">
<title>Node25</title>
<g id="a_Node000025"><a xlink:href="settings_8hpp.html" target="_top" xlink:title=" ">
<polygon fill="white" stroke="#666666" points="999,-261 871,-261 871,-242 999,-242 999,-261"/>
<text text-anchor="middle" x="935" y="-249" font-family="Helvetica,sans-Serif" font-size="10.00">../settings/settings.hpp</text>
</a>
</g>
</g>
<!-- Node1&#45;&gt;Node25 -->
<g id="edge36_Node000001_Node000025" class="edge">
<title>Node1&#45;&gt;Node25</title>
<g id="a_edge36_Node000001_Node000025"><a xlink:title=" ">
<path fill="none" stroke="#63b8ff" d="M1076.85,-296.98C1048.47,-288.09 1003.77,-274.07 972.14,-264.15"/>
<polygon fill="#63b8ff" stroke="#63b8ff" points="972.95,-260.73 962.37,-261.08 970.86,-267.41 972.95,-260.73"/>
</a>
</g>
</g>
<!-- Node26 -->
<g id="Node000026" class="node">
<title>Node26</title>
<g id="a_Node000026"><a xlink:title=" ">
<polygon fill="#e0e0e0" stroke="#999999" points="1153,-261 1055,-261 1055,-242 1153,-242 1153,-261"/>
<text text-anchor="middle" x="1104" y="-249" font-family="Helvetica,sans-Serif" font-size="10.00">ui_preferences.h</text>
</a>
</g>
</g>
<!-- Node1&#45;&gt;Node26 -->
<g id="edge41_Node000001_Node000026" class="edge">
<title>Node1&#45;&gt;Node26</title>
<g id="a_edge41_Node000001_Node000026"><a xlink:title=" ">
<path fill="none" stroke="#63b8ff" d="M1104,-296.75C1104,-289.8 1104,-279.85 1104,-271.13"/>
<polygon fill="#63b8ff" stroke="#63b8ff" points="1107.5,-271.09 1104,-261.09 1100.5,-271.09 1107.5,-271.09"/>
</a>
</g>
</g>
<!-- Node27 -->
<g id="Node000027" class="node">
<title>Node27</title>
<g id="a_Node000027"><a xlink:title=" ">
<polygon fill="#e0e0e0" stroke="#999999" points="1234.5,-261 1171.5,-261 1171.5,-242 1234.5,-242 1234.5,-261"/>
<text text-anchor="middle" x="1203" y="-249" font-family="Helvetica,sans-Serif" font-size="10.00">winuser.h</text>
</a>
</g>
</g>
<!-- Node1&#45;&gt;Node27 -->
<g id="edge42_Node000001_Node000027" class="edge">
<title>Node1&#45;&gt;Node27</title>
<g id="a_edge42_Node000001_Node000027"><a xlink:title=" ">
<path fill="none" stroke="#63b8ff" d="M1119.91,-296.98C1135.55,-288.61 1159.66,-275.7 1177.88,-265.95"/>
<polygon fill="#63b8ff" stroke="#63b8ff" points="1179.64,-268.98 1186.8,-261.17 1176.34,-262.8 1179.64,-268.98"/>
</a>
</g>
</g>
<!-- Node28 -->
<g id="Node000028" class="node">
<title>Node28</title>
<g id="a_Node000028"><a xlink:title=" ">
<polygon fill="#e0e0e0" stroke="#999999" points="1309,-261 1253,-261 1253,-242 1309,-242 1309,-261"/>
<text text-anchor="middle" x="1281" y="-249" font-family="Helvetica,sans-Serif" font-size="10.00">QDebug</text>
</a>
</g>
</g>
<!-- Node1&#45;&gt;Node28 -->
<g id="edge43_Node000001_Node000028" class="edge">
<title>Node1&#45;&gt;Node28</title>
<g id="a_edge43_Node000001_Node000028"><a xlink:title=" ">
<path fill="none" stroke="#63b8ff" d="M1132.44,-296.98C1162.46,-287.99 1209.94,-273.78 1243.12,-263.84"/>
<polygon fill="#63b8ff" stroke="#63b8ff" points="1244.35,-267.13 1252.92,-260.91 1242.34,-260.42 1244.35,-267.13"/>
</a>
</g>
</g>
<!-- Node29 -->
<g id="Node000029" class="node">
<title>Node29</title>
<g id="a_Node000029"><a xlink:title=" ">
<polygon fill="#e0e0e0" stroke="#999999" points="1407,-261 1327,-261 1327,-242 1407,-242 1407,-261"/>
<text text-anchor="middle" x="1367" y="-249" font-family="Helvetica,sans-Serif" font-size="10.00">QInputDialog</text>
</a>
</g>
</g>
<!-- Node1&#45;&gt;Node29 -->
<g id="edge46_Node000001_Node000029" class="edge">
<title>Node1&#45;&gt;Node29</title>
<g id="a_edge46_Node000001_Node000029"><a xlink:title=" ">
<path fill="none" stroke="#63b8ff" d="M1146.26,-296.98C1192.71,-287.62 1267.31,-272.59 1316.74,-262.63"/>
<polygon fill="#63b8ff" stroke="#63b8ff" points="1317.47,-266.05 1326.58,-260.65 1316.08,-259.19 1317.47,-266.05"/>
</a>
</g>
</g>
<!-- Node30 -->
<g id="Node000030" class="node">
<title>Node30</title>
<g id="a_Node000030"><a xlink:title=" ">
<polygon fill="#e0e0e0" stroke="#999999" points="1511,-261 1425,-261 1425,-242 1511,-242 1511,-261"/>
<text text-anchor="middle" x="1468" y="-249" font-family="Helvetica,sans-Serif" font-size="10.00">QMessageBox</text>
</a>
</g>
</g>
<!-- Node1&#45;&gt;Node30 -->
<g id="edge47_Node000001_Node000030" class="edge">
<title>Node1&#45;&gt;Node30</title>
<g id="a_edge47_Node000001_Node000030"><a xlink:title=" ">
<path fill="none" stroke="#63b8ff" d="M1166.21,-297.01C1227.01,-288.62 1322.46,-275.23 1414.8,-261.16"/>
<polygon fill="#63b8ff" stroke="#63b8ff" points="1415.52,-264.59 1424.88,-259.62 1414.47,-257.67 1415.52,-264.59"/>
</a>
</g>
</g>
<!-- Node31 -->
<g id="Node000031" class="node">
<title>Node31</title>
<g id="a_Node000031"><a xlink:title=" ">
<polygon fill="#e0e0e0" stroke="#999999" points="1581,-261 1529,-261 1529,-242 1581,-242 1581,-261"/>
<text text-anchor="middle" x="1555" y="-249" font-family="Helvetica,sans-Serif" font-size="10.00">QSlider</text>
</a>
</g>
</g>
<!-- Node1&#45;&gt;Node31 -->
<g id="edge48_Node000001_Node000031" class="edge">
<title>Node1&#45;&gt;Node31</title>
<g id="a_edge48_Node000001_Node000031"><a xlink:title=" ">
<path fill="none" stroke="#63b8ff" d="M1166.03,-301.43C1245.56,-295.64 1387.85,-283.36 1518.52,-261.04"/>
<polygon fill="#63b8ff" stroke="#63b8ff" points="1519.45,-264.43 1528.7,-259.28 1518.25,-257.54 1519.45,-264.43"/>
</a>
</g>
</g>
<!-- Node32 -->
<g id="Node000032" class="node">
<title>Node32</title>
<g id="a_Node000032"><a xlink:title=" ">
<polygon fill="#e0e0e0" stroke="#999999" points="1693,-261 1599,-261 1599,-242 1693,-242 1693,-261"/>
<text text-anchor="middle" x="1646" y="-249" font-family="Helvetica,sans-Serif" font-size="10.00">QStandardPaths</text>
</a>
</g>
</g>
<!-- Node1&#45;&gt;Node32 -->
<g id="edge49_Node000001_Node000032" class="edge">
<title>Node1&#45;&gt;Node32</title>
<g id="a_edge49_Node000001_Node000032"><a xlink:title=" ">
<path fill="none" stroke="#63b8ff" d="M1166.27,-300.99C1256.86,-294.16 1430.52,-280.08 1588.59,-261.1"/>
<polygon fill="#63b8ff" stroke="#63b8ff" points="1589.47,-264.52 1598.97,-259.84 1588.63,-257.57 1589.47,-264.52"/>
</a>
</g>
</g>
<!-- Node3 -->
<g id="Node000003" class="node">
<title>Node3</title>
<g id="a_Node000003"><a xlink:href="input__types_8hpp.html" target="_top" xlink:title=" ">
<polygon fill="white" stroke="#666666" points="827,-85 681,-85 681,-66 827,-66 827,-85"/>
<text text-anchor="middle" x="754" y="-73" font-family="Helvetica,sans-Serif" font-size="10.00">../settings/input_types.hpp</text>
</a>
</g>
</g>
<!-- Node2&#45;&gt;Node3 -->
<g id="edge2_Node000002_Node000003" class="edge">
<title>Node2&#45;&gt;Node3</title>
<g id="a_edge2_Node000002_Node000003"><a xlink:title=" ">
<path fill="none" stroke="#63b8ff" d="M591.56,-244.71C650.23,-234.74 747.66,-208.3 792,-140 802.57,-123.73 787.44,-104.55 773.26,-91.56"/>
<polygon fill="#63b8ff" stroke="#63b8ff" points="775.52,-88.89 765.64,-85.04 770.96,-94.21 775.52,-88.89"/>
</a>
</g>
</g>
<!-- Node5 -->
<g id="Node000005" class="node">
<title>Node5</title>
<g id="a_Node000005"><a xlink:title=" ">
<polygon fill="#e0e0e0" stroke="#999999" points="579.5,-24.5 502.5,-24.5 502.5,-5.5 579.5,-5.5 579.5,-24.5"/>
<text text-anchor="middle" x="541" y="-12.5" font-family="Helvetica,sans-Serif" font-size="10.00">minwindef.h</text>
</a>
</g>
</g>
<!-- Node2&#45;&gt;Node5 -->
<g id="edge35_Node000002_Node000005" class="edge">
<title>Node2&#45;&gt;Node5</title>
<g id="a_edge35_Node000002_Node000005"><a xlink:title=" ">
<path fill="none" stroke="#63b8ff" d="M500.87,-241.93C480.88,-235.57 458.95,-224.64 447,-206 413.41,-153.63 414.96,-119.34 447,-66 457.99,-47.7 478.2,-35.74 497.07,-28.12"/>
<polygon fill="#63b8ff" stroke="#63b8ff" points="498.31,-31.39 506.46,-24.61 495.87,-24.83 498.31,-31.39"/>
</a>
</g>
</g>
<!-- Node2&#45;&gt;Node7 -->
<g id="edge6_Node000002_Node000007" class="edge">
<title>Node2&#45;&gt;Node7</title>
<g id="a_edge6_Node000002_Node000007"><a xlink:title=" ">
<path fill="none" stroke="#63b8ff" d="M591.83,-242.79C656.33,-232.4 771.36,-213.86 843.18,-202.28"/>
<polygon fill="#63b8ff" stroke="#63b8ff" points="844.14,-205.68 853.45,-200.63 843.02,-198.77 844.14,-205.68"/>
</a>
</g>
</g>
<!-- Node12 -->
<g id="Node000012" class="node">
<title>Node12</title>
<g id="a_Node000012"><a xlink:title=" ">
<polygon fill="#e0e0e0" stroke="#999999" points="565.5,-85 512.5,-85 512.5,-66 565.5,-66 565.5,-85"/>
<text text-anchor="middle" x="539" y="-73" font-family="Helvetica,sans-Serif" font-size="10.00">QString</text>
</a>
</g>
</g>
<!-- Node2&#45;&gt;Node12 -->
<g id="edge33_Node000002_Node000012" class="edge">
<title>Node2&#45;&gt;Node12</title>
<g id="a_edge33_Node000002_Node000012"><a xlink:title=" ">
<path fill="none" stroke="#63b8ff" d="M543.75,-241.63C542.97,-214.64 540.62,-133.03 539.55,-95.61"/>
<polygon fill="#63b8ff" stroke="#63b8ff" points="543.03,-95.04 539.25,-85.14 536.04,-95.24 543.03,-95.04"/>
</a>
</g>
</g>
<!-- Node2&#45;&gt;Node19 -->
<g id="edge26_Node000002_Node000019" class="edge">
<title>Node2&#45;&gt;Node19</title>
<g id="a_edge26_Node000002_Node000019"><a xlink:title=" ">
<path fill="none" stroke="#63b8ff" d="M506.34,-241.99C460.4,-231.62 382.69,-214.07 332.64,-202.76"/>
<polygon fill="#63b8ff" stroke="#63b8ff" points="333.23,-199.31 322.71,-200.52 331.69,-206.13 333.23,-199.31"/>
</a>
</g>
</g>
<!-- Node24 -->
<g id="Node000024" class="node">
<title>Node24</title>
<g id="a_Node000024"><a xlink:title=" ">
<polygon fill="#e0e0e0" stroke="#999999" points="515.5,-200.5 456.5,-200.5 456.5,-181.5 515.5,-181.5 515.5,-200.5"/>
<text text-anchor="middle" x="486" y="-188.5" font-family="Helvetica,sans-Serif" font-size="10.00">QWidget</text>
</a>
</g>
</g>
<!-- Node2&#45;&gt;Node24 -->
<g id="edge34_Node000002_Node000024" class="edge">
<title>Node2&#45;&gt;Node24</title>
<g id="a_edge34_Node000002_Node000024"><a xlink:title=" ">
<path fill="none" stroke="#63b8ff" d="M535.44,-241.87C526.62,-232.97 512.66,-218.89 501.82,-207.95"/>
<polygon fill="#63b8ff" stroke="#63b8ff" points="504.12,-205.3 494.59,-200.67 499.15,-210.23 504.12,-205.3"/>
</a>
</g>
</g>
<!-- Node4 -->
<g id="Node000004" class="node">
<title>Node4</title>
<g id="a_Node000004"><a xlink:href="GameButtons_8h.html" target="_top" xlink:title=" ">
<polygon fill="white" stroke="#666666" points="1008,-30 872,-30 872,0 1008,0 1008,-30"/>
<text text-anchor="start" x="880" y="-18" font-family="Helvetica,sans-Serif" font-size="10.00">../../VGP_Data_Exchange</text>
<text text-anchor="middle" x="940" y="-7" font-family="Helvetica,sans-Serif" font-size="10.00">/C/GameButtons.h</text>
</a>
</g>
</g>
<!-- Node3&#45;&gt;Node4 -->
<g id="edge3_Node000003_Node000004" class="edge">
<title>Node3&#45;&gt;Node4</title>
<g id="a_edge3_Node000003_Node000004"><a xlink:title=" ">
<path fill="none" stroke="#63b8ff" d="M781.05,-65.99C808.28,-57.43 851.07,-43.97 885.39,-33.18"/>
<polygon fill="#63b8ff" stroke="#63b8ff" points="886.79,-36.4 895.28,-30.06 884.69,-29.73 886.79,-36.4"/>
</a>
</g>
</g>
<!-- Node3&#45;&gt;Node5 -->
<g id="edge4_Node000003_Node000005" class="edge">
<title>Node3&#45;&gt;Node5</title>
<g id="a_edge4_Node000003_Node000005"><a xlink:title=" ">
<path fill="none" stroke="#63b8ff" d="M723.03,-65.99C685.72,-55.75 622.94,-38.5 581.73,-27.19"/>
<polygon fill="#63b8ff" stroke="#63b8ff" points="582.58,-23.79 572.01,-24.52 580.73,-30.54 582.58,-23.79"/>
</a>
</g>
</g>
<!-- Node6 -->
<g id="Node000006" class="node">
<title>Node6</title>
<g id="a_Node000006"><a xlink:title=" ">
<polygon fill="#e0e0e0" stroke="#999999" points="783.5,-24.5 724.5,-24.5 724.5,-5.5 783.5,-5.5 783.5,-24.5"/>
<text text-anchor="middle" x="754" y="-12.5" font-family="Helvetica,sans-Serif" font-size="10.00">qtypes.h</text>
</a>
</g>
</g>
<!-- Node3&#45;&gt;Node6 -->
<g id="edge5_Node000003_Node000006" class="edge">
<title>Node3&#45;&gt;Node6</title>
<g id="a_edge5_Node000003_Node000006"><a xlink:title=" ">
<path fill="none" stroke="#63b8ff" d="M754,-65.87C754,-57.75 754,-45.31 754,-34.89"/>
<polygon fill="#63b8ff" stroke="#63b8ff" points="757.5,-34.67 754,-24.67 750.5,-34.67 757.5,-34.67"/>
</a>
</g>
</g>
<!-- Node7&#45;&gt;Node3 -->
<g id="edge8_Node000007_Node000003" class="edge">
<title>Node7&#45;&gt;Node3</title>
<g id="a_edge8_Node000007_Node000003"><a xlink:title=" ">
<path fill="none" stroke="#63b8ff" d="M891.75,-175.78C875.88,-161.29 850.04,-138.51 826,-121 810.61,-109.79 792.34,-98.52 778.06,-90.13"/>
<polygon fill="#63b8ff" stroke="#63b8ff" points="779.73,-87.05 769.33,-85.06 776.22,-93.11 779.73,-87.05"/>
</a>
</g>
</g>
<!-- Node7&#45;&gt;Node4 -->
<g id="edge7_Node000007_Node000004" class="edge">
<title>Node7&#45;&gt;Node4</title>
<g id="a_edge7_Node000007_Node000004"><a xlink:title=" ">
<path fill="none" stroke="#63b8ff" d="M924.1,-175.79C944.79,-157.35 978.54,-123.03 992,-85 998.52,-66.58 984.94,-49.03 970.02,-36.25"/>
<polygon fill="#63b8ff" stroke="#63b8ff" points="972.2,-33.51 962.2,-30.01 967.84,-38.98 972.2,-33.51"/>
</a>
</g>
</g>
<!-- Node8 -->
<g id="Node000008" class="node">
<title>Node8</title>
<g id="a_Node000008"><a xlink:href="keymap__profile_8hpp.html" target="_top" xlink:title=" ">
<polygon fill="white" stroke="#666666" points="783.5,-140 670.5,-140 670.5,-121 783.5,-121 783.5,-140"/>
<text text-anchor="middle" x="727" y="-128" font-family="Helvetica,sans-Serif" font-size="10.00">keymap_profile.hpp</text>
</a>
</g>
</g>
<!-- Node7&#45;&gt;Node8 -->
<g id="edge9_Node000007_Node000008" class="edge">
<title>Node7&#45;&gt;Node8</title>
<g id="a_edge9_Node000007_Node000008"><a xlink:title=" ">
<path fill="none" stroke="#63b8ff" d="M863.89,-175.99C833.09,-165.98 792.13,-152.67 763.07,-143.22"/>
<polygon fill="#63b8ff" stroke="#63b8ff" points="763.91,-139.82 753.32,-140.05 761.75,-146.47 763.91,-139.82"/>
</a>
</g>
</g>
<!-- Node10 -->
<g id="Node000010" class="node">
<title>Node10</title>
<g id="a_Node000010"><a xlink:title=" ">
<polygon fill="#e0e0e0" stroke="#999999" points="901,-85 845,-85 845,-66 901,-66 901,-85"/>
<text text-anchor="middle" x="873" y="-73" font-family="Helvetica,sans-Serif" font-size="10.00">QObject</text>
</a>
</g>
</g>
<!-- Node7&#45;&gt;Node10 -->
<g id="edge20_Node000007_Node000010" class="edge">
<title>Node7&#45;&gt;Node10</title>
<g id="a_edge20_Node000007_Node000010"><a xlink:title=" ">
<path fill="none" stroke="#63b8ff" d="M902.69,-175.63C896.55,-155.12 885.27,-117.47 878.52,-94.93"/>
<polygon fill="#63b8ff" stroke="#63b8ff" points="881.84,-93.8 875.61,-85.23 875.13,-95.81 881.84,-93.8"/>
</a>
</g>
</g>
<!-- Node11 -->
<g id="Node000011" class="node">
<title>Node11</title>
<g id="a_Node000011"><a xlink:title=" ">
<polygon fill="#e0e0e0" stroke="#999999" points="983,-85 919,-85 919,-66 983,-66 983,-85"/>
<text text-anchor="middle" x="951" y="-73" font-family="Helvetica,sans-Serif" font-size="10.00">QSettings</text>
</a>
</g>
</g>
<!-- Node7&#45;&gt;Node11 -->
<g id="edge21_Node000007_Node000011" class="edge">
<title>Node7&#45;&gt;Node11</title>
<g id="a_edge21_Node000007_Node000011"><a xlink:title=" ">
<path fill="none" stroke="#63b8ff" d="M912.57,-175.63C920.56,-155.03 935.25,-117.12 943.97,-94.63"/>
<polygon fill="#63b8ff" stroke="#63b8ff" points="947.26,-95.82 947.62,-85.23 940.74,-93.29 947.26,-95.82"/>
</a>
</g>
</g>
<!-- Node7&#45;&gt;Node12 -->
<g id="edge22_Node000007_Node000012" class="edge">
<title>Node7&#45;&gt;Node12</title>
<g id="a_edge22_Node000007_Node000012"><a xlink:title=" ">
<path fill="none" stroke="#63b8ff" d="M853.05,-183.46C802.42,-176.29 725.09,-162.69 661,-140 624.24,-126.99 584.73,-104.73 560.94,-90.33"/>
<polygon fill="#63b8ff" stroke="#63b8ff" points="562.69,-87.29 552.34,-85.04 559.03,-93.26 562.69,-87.29"/>
</a>
</g>
</g>
<!-- Node13 -->
<g id="Node000013" class="node">
<title>Node13</title>
<g id="a_Node000013"><a xlink:title=" ">
<polygon fill="#e0e0e0" stroke="#999999" points="494,-85 456,-85 456,-66 494,-66 494,-85"/>
<text text-anchor="middle" x="475" y="-73" font-family="Helvetica,sans-Serif" font-size="10.00">map</text>
</a>
</g>
</g>
<!-- Node7&#45;&gt;Node13 -->
<g id="edge24_Node000007_Node000013" class="edge">
<title>Node7&#45;&gt;Node13</title>
<g id="a_edge24_Node000007_Node000013"><a xlink:title=" ">
<path fill="none" stroke="#63b8ff" d="M853.49,-184.91C794.39,-178.35 696.89,-164.72 616,-140 573.51,-127.01 527.03,-104.28 499.48,-89.83"/>
<polygon fill="#63b8ff" stroke="#63b8ff" points="501.03,-86.69 490.56,-85.09 497.75,-92.87 501.03,-86.69"/>
</a>
</g>
</g>
<!-- Node7&#45;&gt;Node14 -->
<g id="edge17_Node000007_Node000014" class="edge">
<title>Node7&#45;&gt;Node14</title>
<g id="a_edge17_Node000007_Node000014"><a xlink:title=" ">
<path fill="none" stroke="#63b8ff" d="M960.75,-178.51C965.56,-177.61 970.36,-176.76 975,-176 1101.74,-155.23 1138.42,-166.63 1267.93,-139.88"/>
<polygon fill="#63b8ff" stroke="#63b8ff" points="1268.77,-143.28 1277.83,-137.8 1267.33,-136.43 1268.77,-143.28"/>
</a>
</g>
</g>
<!-- Node15 -->
<g id="Node000015" class="node">
<title>Node15</title>
<g id="a_Node000015"><a xlink:title=" ">
<polygon fill="#e0e0e0" stroke="#999999" points="1033.5,-140 992.5,-140 992.5,-121 1033.5,-121 1033.5,-140"/>
<text text-anchor="middle" x="1013" y="-128" font-family="Helvetica,sans-Serif" font-size="10.00">QList</text>
</a>
</g>
</g>
<!-- Node7&#45;&gt;Node15 -->
<g id="edge18_Node000007_Node000015" class="edge">
<title>Node7&#45;&gt;Node15</title>
<g id="a_edge18_Node000007_Node000015"><a xlink:title=" ">
<path fill="none" stroke="#63b8ff" d="M932.39,-175.99C949.29,-166.66 971.38,-154.47 988.16,-145.21"/>
<polygon fill="#63b8ff" stroke="#63b8ff" points="990.28,-148.04 997.35,-140.14 986.9,-141.91 990.28,-148.04"/>
</a>
</g>
</g>
<!-- Node16 -->
<g id="Node000016" class="node">
<title>Node16</title>
<g id="a_Node000016"><a xlink:title=" ">
<polygon fill="#e0e0e0" stroke="#999999" points="1096.5,-140 1051.5,-140 1051.5,-121 1096.5,-121 1096.5,-140"/>
<text text-anchor="middle" x="1074" y="-128" font-family="Helvetica,sans-Serif" font-size="10.00">QMap</text>
</a>
</g>
</g>
<!-- Node7&#45;&gt;Node16 -->
<g id="edge19_Node000007_Node000016" class="edge">
<title>Node7&#45;&gt;Node16</title>
<g id="a_edge19_Node000007_Node000016"><a xlink:title=" ">
<path fill="none" stroke="#63b8ff" d="M947,-175.99C975.92,-165.86 1014.5,-152.34 1041.52,-142.88"/>
<polygon fill="#63b8ff" stroke="#63b8ff" points="1042.99,-146.07 1051.27,-139.46 1040.67,-139.47 1042.99,-146.07"/>
</a>
</g>
</g>
<!-- Node17 -->
<g id="Node000017" class="node">
<title>Node17</title>
<g id="a_Node000017"><a xlink:title=" ">
<polygon fill="#e0e0e0" stroke="#999999" points="1173.5,-140 1114.5,-140 1114.5,-121 1173.5,-121 1173.5,-140"/>
<text text-anchor="middle" x="1144" y="-128" font-family="Helvetica,sans-Serif" font-size="10.00">QVariant</text>
</a>
</g>
</g>
<!-- Node7&#45;&gt;Node17 -->
<g id="edge23_Node000007_Node000017" class="edge">
<title>Node7&#45;&gt;Node17</title>
<g id="a_edge23_Node000007_Node000017"><a xlink:title=" ">
<path fill="none" stroke="#63b8ff" d="M960.78,-176.73C1004.5,-165.93 1065.18,-150.96 1104.51,-141.25"/>
<polygon fill="#63b8ff" stroke="#63b8ff" points="1105.41,-144.63 1114.28,-138.84 1103.73,-137.84 1105.41,-144.63"/>
</a>
</g>
</g>
<!-- Node18 -->
<g id="Node000018" class="node">
<title>Node18</title>
<g id="a_Node000018"><a xlink:title=" ">
<polygon fill="#e0e0e0" stroke="#999999" points="1260,-140 1192,-140 1192,-121 1260,-121 1260,-140"/>
<text text-anchor="middle" x="1226" y="-128" font-family="Helvetica,sans-Serif" font-size="10.00">windows.h</text>
</a>
</g>
</g>
<!-- Node7&#45;&gt;Node18 -->
<g id="edge25_Node000007_Node000018" class="edge">
<title>Node7&#45;&gt;Node18</title>
<g id="a_edge25_Node000007_Node000018"><a xlink:title=" ">
<path fill="none" stroke="#63b8ff" d="M960.79,-178.76C965.59,-177.81 970.38,-176.87 975,-176 1064.03,-159.14 1089.06,-157.22 1181.66,-140.21"/>
<polygon fill="#63b8ff" stroke="#63b8ff" points="1182.55,-143.61 1191.75,-138.35 1181.28,-136.72 1182.55,-143.61"/>
</a>
</g>
</g>
<!-- Node8&#45;&gt;Node3 -->
<g id="edge10_Node000008_Node000003" class="edge">
<title>Node8&#45;&gt;Node3</title>
<g id="a_edge10_Node000008_Node000003"><a xlink:title=" ">
<path fill="none" stroke="#63b8ff" d="M731.46,-120.75C735.12,-113.57 740.41,-103.18 744.95,-94.27"/>
<polygon fill="#63b8ff" stroke="#63b8ff" points="748.2,-95.59 749.62,-85.09 741.97,-92.41 748.2,-95.59"/>
</a>
</g>
</g>
<!-- Node8&#45;&gt;Node5 -->
<g id="edge16_Node000008_Node000005" class="edge">
<title>Node8&#45;&gt;Node5</title>
<g id="a_edge16_Node000008_Node000005"><a xlink:title=" ">
<path fill="none" stroke="#63b8ff" d="M715.08,-120.9C697.46,-108.32 663.3,-84.41 633,-66 611.17,-52.74 585.59,-38.97 566.95,-29.25"/>
<polygon fill="#63b8ff" stroke="#63b8ff" points="568.38,-26.05 557.89,-24.56 565.16,-32.27 568.38,-26.05"/>
</a>
</g>
</g>
<!-- Node8&#45;&gt;Node9 -->
<g id="edge11_Node000008_Node000009" class="edge">
<title>Node8&#45;&gt;Node9</title>
<g id="a_edge11_Node000008_Node000009"><a xlink:title=" ">
<path fill="none" stroke="#63b8ff" d="M707.24,-120.98C687.27,-112.38 656.2,-98.99 633.35,-89.15"/>
<polygon fill="#63b8ff" stroke="#63b8ff" points="634.69,-85.91 624.12,-85.17 631.92,-92.34 634.69,-85.91"/>
</a>
</g>
</g>
<!-- Node8&#45;&gt;Node10 -->
<g id="edge12_Node000008_Node000010" class="edge">
<title>Node8&#45;&gt;Node10</title>
<g id="a_edge12_Node000008_Node000010"><a xlink:title=" ">
<path fill="none" stroke="#63b8ff" d="M750.46,-120.98C774.58,-112.23 812.37,-98.51 839.6,-88.62"/>
<polygon fill="#63b8ff" stroke="#63b8ff" points="840.91,-91.87 849.12,-85.17 838.52,-85.29 840.91,-91.87"/>
</a>
</g>
</g>
<!-- Node8&#45;&gt;Node11 -->
<g id="edge13_Node000008_Node000011" class="edge">
<title>Node8&#45;&gt;Node11</title>
<g id="a_edge13_Node000008_Node000011"><a xlink:title=" ">
<path fill="none" stroke="#63b8ff" d="M762.99,-120.98C802.75,-111.58 866.71,-96.44 908.8,-86.49"/>
<polygon fill="#63b8ff" stroke="#63b8ff" points="909.81,-89.84 918.73,-84.13 908.2,-83.03 909.81,-89.84"/>
</a>
</g>
</g>
<!-- Node8&#45;&gt;Node12 -->
<g id="edge14_Node000008_Node000012" class="edge">
<title>Node8&#45;&gt;Node12</title>
<g id="a_edge14_Node000008_Node000012"><a xlink:title=" ">
<path fill="none" stroke="#63b8ff" d="M696.79,-120.98C663.82,-111.69 611.03,-96.81 575.7,-86.85"/>
<polygon fill="#63b8ff" stroke="#63b8ff" points="576.36,-83.39 565.78,-84.05 574.46,-90.13 576.36,-83.39"/>
</a>
</g>
</g>
<!-- Node8&#45;&gt;Node13 -->
<g id="edge15_Node000008_Node000013" class="edge">
<title>Node8&#45;&gt;Node13</title>
<g id="a_edge15_Node000008_Node000013"><a xlink:title=" ">
<path fill="none" stroke="#63b8ff" d="M676.42,-120.92C633.04,-113.23 568.7,-101.05 504.15,-85.09"/>
<polygon fill="#63b8ff" stroke="#63b8ff" points="504.76,-81.64 494.21,-82.6 503.06,-88.43 504.76,-81.64"/>
</a>
</g>
</g>
<!-- Node19&#45;&gt;Node5 -->
<g id="edge32_Node000019_Node000005" class="edge">
<title>Node19&#45;&gt;Node5</title>
<g id="a_edge32_Node000019_Node000005"><a xlink:title=" ">
<path fill="none" stroke="#63b8ff" d="M278.88,-181.12C270.07,-167.14 256.2,-139.66 269,-121 319.17,-47.85 428.12,-25.64 491.85,-18.92"/>
<polygon fill="#63b8ff" stroke="#63b8ff" points="492.44,-22.37 502.06,-17.93 491.77,-15.41 492.44,-22.37"/>
</a>
</g>
</g>
<!-- Node19&#45;&gt;Node13 -->
<g id="edge31_Node000019_Node000013" class="edge">
<title>Node19&#45;&gt;Node13</title>
<g id="a_edge31_Node000019_Node000013"><a xlink:title=" ">
<path fill="none" stroke="#63b8ff" d="M299.97,-181.43C317.18,-171.54 346.22,-154.76 371,-140 399.34,-123.11 431.74,-103.24 452.74,-90.28"/>
<polygon fill="#63b8ff" stroke="#63b8ff" points="454.59,-93.25 461.26,-85.02 450.92,-87.3 454.59,-93.25"/>
</a>
</g>
</g>
<!-- Node20 -->
<g id="Node000020" class="node">
<title>Node20</title>
<g id="a_Node000020"><a xlink:title=" ">
<polygon fill="#e0e0e0" stroke="#999999" points="52,-140 0,-140 0,-121 52,-121 52,-140"/>
<text text-anchor="middle" x="26" y="-128" font-family="Helvetica,sans-Serif" font-size="10.00">QEvent</text>
</a>
</g>
</g>
<!-- Node19&#45;&gt;Node20 -->
<g id="edge27_Node000019_Node000020" class="edge">
<title>Node19&#45;&gt;Node20</title>
<g id="a_edge27_Node000019_Node000020"><a xlink:title=" ">
<path fill="none" stroke="#63b8ff" d="M245.7,-181.46C202.94,-172.12 132.32,-156.54 62.24,-140.26"/>
<polygon fill="#63b8ff" stroke="#63b8ff" points="62.89,-136.82 52.36,-137.96 61.31,-143.63 62.89,-136.82"/>
</a>
</g>
</g>
<!-- Node21 -->
<g id="Node000021" class="node">
<title>Node21</title>
<g id="a_Node000021"><a xlink:title=" ">
<polygon fill="#e0e0e0" stroke="#999999" points="140,-140 70,-140 70,-121 140,-121 140,-140"/>
<text text-anchor="middle" x="105" y="-128" font-family="Helvetica,sans-Serif" font-size="10.00">QKeyEvent</text>
</a>
</g>
</g>
<!-- Node19&#45;&gt;Node21 -->
<g id="edge28_Node000019_Node000021" class="edge">
<title>Node19&#45;&gt;Node21</title>
<g id="a_edge28_Node000019_Node000021"><a xlink:title=" ">
<path fill="none" stroke="#63b8ff" d="M258.83,-181.49C227.77,-171.4 175.81,-154.51 140.98,-143.19"/>
<polygon fill="#63b8ff" stroke="#63b8ff" points="141.8,-139.78 131.21,-140.02 139.63,-146.44 141.8,-139.78"/>
</a>
</g>
</g>
<!-- Node22 -->
<g id="Node000022" class="node">
<title>Node22</title>
<g id="a_Node000022"><a xlink:title=" ">
<polygon fill="#e0e0e0" stroke="#999999" points="221.5,-140 158.5,-140 158.5,-121 221.5,-121 221.5,-140"/>
<text text-anchor="middle" x="190" y="-128" font-family="Helvetica,sans-Serif" font-size="10.00">QLineEdit</text>
</a>
</g>
</g>
<!-- Node19&#45;&gt;Node22 -->
<g id="edge29_Node000019_Node000022" class="edge">
<title>Node19&#45;&gt;Node22</title>
<g id="a_edge29_Node000019_Node000022"><a xlink:title=" ">
<path fill="none" stroke="#63b8ff" d="M270.98,-181.37C255.69,-171.95 230.97,-156.73 212.86,-145.58"/>
<polygon fill="#63b8ff" stroke="#63b8ff" points="214.43,-142.43 204.08,-140.17 210.75,-148.39 214.43,-142.43"/>
</a>
</g>
</g>
<!-- Node23 -->
<g id="Node000023" class="node">
<title>Node23</title>
<g id="a_Node000023"><a xlink:title=" ">
<polygon fill="#e0e0e0" stroke="#999999" points="362,-140 278,-140 278,-121 362,-121 362,-140"/>
<text text-anchor="middle" x="320" y="-128" font-family="Helvetica,sans-Serif" font-size="10.00">QMouseEvent</text>
</a>
</g>
</g>
<!-- Node19&#45;&gt;Node23 -->
<g id="edge30_Node000019_Node000023" class="edge">
<title>Node19&#45;&gt;Node23</title>
<g id="a_edge30_Node000019_Node000023"><a xlink:title=" ">
<path fill="none" stroke="#63b8ff" d="M290.16,-181.37C295.23,-172.9 303.1,-159.74 309.49,-149.07"/>
<polygon fill="#63b8ff" stroke="#63b8ff" points="312.68,-150.55 314.81,-140.17 306.68,-146.95 312.68,-150.55"/>
</a>
</g>
</g>
<!-- Node25&#45;&gt;Node7 -->
<g id="edge37_Node000025_Node000007" class="edge">
<title>Node25&#45;&gt;Node7</title>
<g id="a_edge37_Node000025_Node000007"><a xlink:title=" ">
<path fill="none" stroke="#63b8ff" d="M930.87,-241.87C927.53,-234.89 922.66,-224.71 918.19,-215.38"/>
<polygon fill="#63b8ff" stroke="#63b8ff" points="921.23,-213.62 913.76,-206.11 914.92,-216.65 921.23,-213.62"/>
</a>
</g>
</g>
<!-- Node25&#45;&gt;Node14 -->
<g id="edge38_Node000025_Node000014" class="edge">
<title>Node25&#45;&gt;Node14</title>
<g id="a_edge38_Node000025_Node000014"><a xlink:title=" ">
<path fill="none" stroke="#63b8ff" d="M941.12,-241.8C952.95,-225.74 980.64,-191.67 1013,-176 1113.48,-127.33 1154.46,-162.63 1267.73,-139.89"/>
<polygon fill="#63b8ff" stroke="#63b8ff" points="1268.77,-143.25 1277.82,-137.75 1267.32,-136.4 1268.77,-143.25"/>
</a>
</g>
</g>
</g>
</svg>
