<?xml version="1.0" encoding="UTF-8" standalone="no"?>
<!DOCTYPE svg PUBLIC "-//W3C//DTD SVG 1.1//EN"
 "http://www.w3.org/Graphics/SVG/1.1/DTD/svg11.dtd">
<!-- Generated by graphviz version 2.43.0 (0)
 -->
<!-- Title: src/ui/preferences.hpp Pages: 1 -->
<svg width="1204pt" height="269pt"
 viewBox="0.00 0.00 1203.62 269.00" xmlns="http://www.w3.org/2000/svg" xmlns:xlink="http://www.w3.org/1999/xlink">
<g id="graph0" class="graph" transform="scale(1 1) rotate(0) translate(4 265)">
<title>src/ui/preferences.hpp</title>
<!-- Node1 -->
<g id="Node000001" class="node">
<title>Node1</title>
<g id="a_Node000001"><a xlink:title=" ">
<polygon fill="#999999" stroke="#666666" points="947.62,-261 822.62,-261 822.62,-242 947.62,-242 947.62,-261"/>
<text text-anchor="middle" x="885.12" y="-249" font-family="Helvetica,sans-Serif" font-size="10.00">src/ui/preferences.hpp</text>
</a>
</g>
</g>
<!-- Node2 -->
<g id="Node000002" class="node">
<title>Node2</title>
<g id="a_Node000002"><a xlink:href="input__types_8hpp.html" target="_top" xlink:title=" ">
<polygon fill="white" stroke="#666666" points="966.12,-85 820.12,-85 820.12,-66 966.12,-66 966.12,-85"/>
<text text-anchor="middle" x="893.12" y="-73" font-family="Helvetica,sans-Serif" font-size="10.00">../settings/input_types.hpp</text>
</a>
</g>
</g>
<!-- Node1&#45;&gt;Node2 -->
<g id="edge1_Node000001_Node000002" class="edge">
<title>Node1&#45;&gt;Node2</title>
<g id="a_edge1_Node000001_Node000002"><a xlink:title=" ">
<path fill="none" stroke="#63b8ff" d="M943.35,-241.94C984.12,-234.62 1033.48,-222.61 1046.12,-206 1060.57,-187.02 1032.65,-123.6 1030.12,-121 1014.27,-104.65 992.37,-94.3 970.72,-87.75"/>
<polygon fill="#63b8ff" stroke="#63b8ff" points="971.38,-84.31 960.81,-85.01 969.51,-91.05 971.38,-84.31"/>
</a>
</g>
</g>
<!-- Node4 -->
<g id="Node000004" class="node">
<title>Node4</title>
<g id="a_Node000004"><a xlink:title=" ">
<polygon fill="#e0e0e0" stroke="#999999" points="528.62,-24.5 451.62,-24.5 451.62,-5.5 528.62,-5.5 528.62,-24.5"/>
<text text-anchor="middle" x="490.12" y="-12.5" font-family="Helvetica,sans-Serif" font-size="10.00">minwindef.h</text>
</a>
</g>
</g>
<!-- Node1&#45;&gt;Node4 -->
<g id="edge34_Node000001_Node000004" class="edge">
<title>Node1&#45;&gt;Node4</title>
<g id="a_edge34_Node000001_Node000004"><a xlink:title=" ">
<path fill="none" stroke="#63b8ff" d="M822.36,-248.98C638.02,-243.02 104.81,-214.69 4.12,-85 -1.06,-78.33 -1.53,-72.27 4.12,-66 33.08,-33.91 324.08,-21.22 441.44,-17.38"/>
<polygon fill="#63b8ff" stroke="#63b8ff" points="441.69,-20.88 451.58,-17.06 441.47,-13.88 441.69,-20.88"/>
</a>
</g>
</g>
<!-- Node6 -->
<g id="Node000006" class="node">
<title>Node6</title>
<g id="a_Node000006"><a xlink:href="settings__singleton_8hpp.html" target="_top" xlink:title=" ">
<polygon fill="white" stroke="#666666" points="791.62,-206 684.62,-206 684.62,-176 791.62,-176 791.62,-206"/>
<text text-anchor="start" x="692.62" y="-194" font-family="Helvetica,sans-Serif" font-size="10.00">../settings/settings</text>
<text text-anchor="middle" x="738.12" y="-183" font-family="Helvetica,sans-Serif" font-size="10.00">_singleton.hpp</text>
</a>
</g>
</g>
<!-- Node1&#45;&gt;Node6 -->
<g id="edge5_Node000001_Node000006" class="edge">
<title>Node1&#45;&gt;Node6</title>
<g id="a_edge5_Node000001_Node000006"><a xlink:title=" ">
<path fill="none" stroke="#63b8ff" d="M863.75,-241.99C842.69,-233.61 809.86,-220.55 783.04,-209.87"/>
<polygon fill="#63b8ff" stroke="#63b8ff" points="784.05,-206.51 773.46,-206.06 781.46,-213.01 784.05,-206.51"/>
</a>
</g>
</g>
<!-- Node11 -->
<g id="Node000011" class="node">
<title>Node11</title>
<g id="a_Node000011"><a xlink:title=" ">
<polygon fill="#e0e0e0" stroke="#999999" points="755.62,-85 702.62,-85 702.62,-66 755.62,-66 755.62,-85"/>
<text text-anchor="middle" x="729.12" y="-73" font-family="Helvetica,sans-Serif" font-size="10.00">QString</text>
</a>
</g>
</g>
<!-- Node1&#45;&gt;Node11 -->
<g id="edge32_Node000001_Node000011" class="edge">
<title>Node1&#45;&gt;Node11</title>
<g id="a_edge32_Node000001_Node000011"><a xlink:title=" ">
<path fill="none" stroke="#63b8ff" d="M905.69,-241.97C951.45,-221.84 1054.53,-169.4 1013.12,-121 1005.12,-111.64 840.49,-90.24 765.62,-80.95"/>
<polygon fill="#63b8ff" stroke="#63b8ff" points="766.04,-77.47 755.68,-79.72 765.18,-84.42 766.04,-77.47"/>
</a>
</g>
</g>
<!-- Node18 -->
<g id="Node000018" class="node">
<title>Node18</title>
<g id="a_Node000018"><a xlink:href="buttoninputbox_8hpp.html" target="_top" xlink:title=" ">
<polygon fill="white" stroke="#666666" points="340.12,-140 228.12,-140 228.12,-121 340.12,-121 340.12,-140"/>
<text text-anchor="middle" x="284.12" y="-128" font-family="Helvetica,sans-Serif" font-size="10.00">buttoninputbox.hpp</text>
</a>
</g>
</g>
<!-- Node1&#45;&gt;Node18 -->
<g id="edge25_Node000001_Node000018" class="edge">
<title>Node1&#45;&gt;Node18</title>
<g id="a_edge25_Node000001_Node000018"><a xlink:title=" ">
<path fill="none" stroke="#63b8ff" d="M841.9,-241.94C734.28,-220.63 454.57,-165.25 337.2,-142.01"/>
<polygon fill="#63b8ff" stroke="#63b8ff" points="337.85,-138.57 327.36,-140.06 336.49,-145.44 337.85,-138.57"/>
</a>
</g>
</g>
<!-- Node23 -->
<g id="Node000023" class="node">
<title>Node23</title>
<g id="a_Node000023"><a xlink:title=" ">
<polygon fill="#e0e0e0" stroke="#999999" points="1195.62,-200.5 1136.62,-200.5 1136.62,-181.5 1195.62,-181.5 1195.62,-200.5"/>
<text text-anchor="middle" x="1166.12" y="-188.5" font-family="Helvetica,sans-Serif" font-size="10.00">QWidget</text>
</a>
</g>
</g>
<!-- Node1&#45;&gt;Node23 -->
<g id="edge33_Node000001_Node000023" class="edge">
<title>Node1&#45;&gt;Node23</title>
<g id="a_edge33_Node000001_Node000023"><a xlink:title=" ">
<path fill="none" stroke="#63b8ff" d="M941.09,-241.98C989.38,-234.15 1060.82,-221.45 1122.12,-206 1125.14,-205.24 1128.24,-204.39 1131.35,-203.5"/>
<polygon fill="#63b8ff" stroke="#63b8ff" points="1132.59,-206.78 1141.15,-200.53 1130.56,-200.08 1132.59,-206.78"/>
</a>
</g>
</g>
<!-- Node3 -->
<g id="Node000003" class="node">
<title>Node3</title>
<g id="a_Node000003"><a xlink:href="GameButtons_8h.html" target="_top" xlink:title=" ">
<polygon fill="white" stroke="#666666" points="852.12,-30 716.12,-30 716.12,0 852.12,0 852.12,-30"/>
<text text-anchor="start" x="724.12" y="-18" font-family="Helvetica,sans-Serif" font-size="10.00">../../VGP_Data_Exchange</text>
<text text-anchor="middle" x="784.12" y="-7" font-family="Helvetica,sans-Serif" font-size="10.00">/C/GameButtons.h</text>
</a>
</g>
</g>
<!-- Node2&#45;&gt;Node3 -->
<g id="edge2_Node000002_Node000003" class="edge">
<title>Node2&#45;&gt;Node3</title>
<g id="a_edge2_Node000002_Node000003"><a xlink:title=" ">
<path fill="none" stroke="#63b8ff" d="M877.04,-65.87C861.91,-57.75 838.74,-45.31 819.32,-34.89"/>
<polygon fill="#63b8ff" stroke="#63b8ff" points="820.89,-31.76 810.42,-30.11 817.58,-37.93 820.89,-31.76"/>
</a>
</g>
</g>
<!-- Node2&#45;&gt;Node4 -->
<g id="edge3_Node000002_Node000004" class="edge">
<title>Node2&#45;&gt;Node4</title>
<g id="a_edge3_Node000002_Node000004"><a xlink:title=" ">
<path fill="none" stroke="#63b8ff" d="M834.52,-65.99C754.67,-54.4 613.13,-33.86 538.8,-23.07"/>
<polygon fill="#63b8ff" stroke="#63b8ff" points="539.17,-19.58 528.77,-21.61 538.17,-26.51 539.17,-19.58"/>
</a>
</g>
</g>
<!-- Node5 -->
<g id="Node000005" class="node">
<title>Node5</title>
<g id="a_Node000005"><a xlink:title=" ">
<polygon fill="#e0e0e0" stroke="#999999" points="929.62,-24.5 870.62,-24.5 870.62,-5.5 929.62,-5.5 929.62,-24.5"/>
<text text-anchor="middle" x="900.12" y="-12.5" font-family="Helvetica,sans-Serif" font-size="10.00">qtypes.h</text>
</a>
</g>
</g>
<!-- Node2&#45;&gt;Node5 -->
<g id="edge4_Node000002_Node000005" class="edge">
<title>Node2&#45;&gt;Node5</title>
<g id="a_edge4_Node000002_Node000005"><a xlink:title=" ">
<path fill="none" stroke="#63b8ff" d="M894.16,-65.87C895.13,-57.75 896.62,-45.31 897.86,-34.89"/>
<polygon fill="#63b8ff" stroke="#63b8ff" points="901.37,-35.01 899.09,-24.67 894.42,-34.18 901.37,-35.01"/>
</a>
</g>
</g>
<!-- Node6&#45;&gt;Node2 -->
<g id="edge7_Node000006_Node000002" class="edge">
<title>Node6&#45;&gt;Node2</title>
<g id="a_edge7_Node000006_Node000002"><a xlink:title=" ">
<path fill="none" stroke="#63b8ff" d="M791.75,-188.12C863.65,-184.35 985.49,-173.11 1013.12,-140 1034.89,-113.92 994.12,-97.08 954.32,-87.34"/>
<polygon fill="#63b8ff" stroke="#63b8ff" points="955.07,-83.92 944.53,-85.08 953.49,-90.74 955.07,-83.92"/>
</a>
</g>
</g>
<!-- Node6&#45;&gt;Node3 -->
<g id="edge6_Node000006_Node000003" class="edge">
<title>Node6&#45;&gt;Node3</title>
<g id="a_edge6_Node000006_Node000003"><a xlink:title=" ">
<path fill="none" stroke="#63b8ff" d="M741.89,-175.76C749.74,-146.06 767.94,-77.23 777.69,-40.35"/>
<polygon fill="#63b8ff" stroke="#63b8ff" points="781.13,-41 780.31,-30.44 774.37,-39.21 781.13,-41"/>
</a>
</g>
</g>
<!-- Node7 -->
<g id="Node000007" class="node">
<title>Node7</title>
<g id="a_Node000007"><a xlink:href="keymap__profile_8hpp.html" target="_top" xlink:title=" ">
<polygon fill="white" stroke="#666666" points="671.62,-140 558.62,-140 558.62,-121 671.62,-121 671.62,-140"/>
<text text-anchor="middle" x="615.12" y="-128" font-family="Helvetica,sans-Serif" font-size="10.00">keymap_profile.hpp</text>
</a>
</g>
</g>
<!-- Node6&#45;&gt;Node7 -->
<g id="edge8_Node000006_Node000007" class="edge">
<title>Node6&#45;&gt;Node7</title>
<g id="a_edge8_Node000006_Node000007"><a xlink:title=" ">
<path fill="none" stroke="#63b8ff" d="M708.66,-175.99C688.51,-166.4 661.98,-153.79 642.33,-144.44"/>
<polygon fill="#63b8ff" stroke="#63b8ff" points="643.82,-141.27 633.29,-140.14 640.82,-147.6 643.82,-141.27"/>
</a>
</g>
</g>
<!-- Node9 -->
<g id="Node000009" class="node">
<title>Node9</title>
<g id="a_Node000009"><a xlink:title=" ">
<polygon fill="#e0e0e0" stroke="#999999" points="505.12,-85 449.12,-85 449.12,-66 505.12,-66 505.12,-85"/>
<text text-anchor="middle" x="477.12" y="-73" font-family="Helvetica,sans-Serif" font-size="10.00">QObject</text>
</a>
</g>
</g>
<!-- Node6&#45;&gt;Node9 -->
<g id="edge19_Node000006_Node000009" class="edge">
<title>Node6&#45;&gt;Node9</title>
<g id="a_edge19_Node000006_Node000009"><a xlink:title=" ">
<path fill="none" stroke="#63b8ff" d="M684.45,-184.6C642.6,-178.54 584.21,-165.92 539.12,-140 518.77,-128.3 500.68,-108.03 489.37,-93.54"/>
<polygon fill="#63b8ff" stroke="#63b8ff" points="492.05,-91.28 483.25,-85.39 486.46,-95.49 492.05,-91.28"/>
</a>
</g>
</g>
<!-- Node10 -->
<g id="Node000010" class="node">
<title>Node10</title>
<g id="a_Node000010"><a xlink:title=" ">
<polygon fill="#e0e0e0" stroke="#999999" points="587.12,-85 523.12,-85 523.12,-66 587.12,-66 587.12,-85"/>
<text text-anchor="middle" x="555.12" y="-73" font-family="Helvetica,sans-Serif" font-size="10.00">QSettings</text>
</a>
</g>
</g>
<!-- Node6&#45;&gt;Node10 -->
<g id="edge20_Node000006_Node000010" class="edge">
<title>Node6&#45;&gt;Node10</title>
<g id="a_edge20_Node000006_Node000010"><a xlink:title=" ">
<path fill="none" stroke="#63b8ff" d="M684.18,-183C634.62,-175.33 566.44,-161.22 550.12,-140 540.35,-127.29 543.25,-108.6 547.61,-94.78"/>
<polygon fill="#63b8ff" stroke="#63b8ff" points="550.91,-95.94 551.04,-85.35 544.33,-93.55 550.91,-95.94"/>
</a>
</g>
</g>
<!-- Node6&#45;&gt;Node11 -->
<g id="edge21_Node000006_Node000011" class="edge">
<title>Node6&#45;&gt;Node11</title>
<g id="a_edge21_Node000006_Node000011"><a xlink:title=" ">
<path fill="none" stroke="#63b8ff" d="M733.02,-175.78C729.75,-165.89 725.82,-152.32 724.12,-140 722.97,-131.63 723.65,-129.43 724.12,-121 724.6,-112.45 725.59,-103.03 726.57,-95.06"/>
<polygon fill="#63b8ff" stroke="#63b8ff" points="730.06,-95.38 727.88,-85.01 723.12,-94.47 730.06,-95.38"/>
</a>
</g>
</g>
<!-- Node12 -->
<g id="Node000012" class="node">
<title>Node12</title>
<g id="a_Node000012"><a xlink:title=" ">
<polygon fill="#e0e0e0" stroke="#999999" points="431.12,-85 393.12,-85 393.12,-66 431.12,-66 431.12,-85"/>
<text text-anchor="middle" x="412.12" y="-73" font-family="Helvetica,sans-Serif" font-size="10.00">map</text>
</a>
</g>
</g>
<!-- Node6&#45;&gt;Node12 -->
<g id="edge23_Node000006_Node000012" class="edge">
<title>Node6&#45;&gt;Node12</title>
<g id="a_edge23_Node000006_Node000012"><a xlink:title=" ">
<path fill="none" stroke="#63b8ff" d="M684.22,-183.6C637.18,-176.74 567.77,-163.52 511.12,-140 481.01,-127.49 449.94,-105.88 430.82,-91.39"/>
<polygon fill="#63b8ff" stroke="#63b8ff" points="432.75,-88.45 422.69,-85.1 428.46,-93.99 432.75,-88.45"/>
</a>
</g>
</g>
<!-- Node13 -->
<g id="Node000013" class="node">
<title>Node13</title>
<g id="a_Node000013"><a xlink:title=" ">
<polygon fill="#e0e0e0" stroke="#999999" points="804.12,-140 766.12,-140 766.12,-121 804.12,-121 804.12,-140"/>
<text text-anchor="middle" x="785.12" y="-128" font-family="Helvetica,sans-Serif" font-size="10.00">QDir</text>
</a>
</g>
</g>
<!-- Node6&#45;&gt;Node13 -->
<g id="edge16_Node000006_Node000013" class="edge">
<title>Node6&#45;&gt;Node13</title>
<g id="a_edge16_Node000006_Node000013"><a xlink:title=" ">
<path fill="none" stroke="#63b8ff" d="M749.5,-175.84C756.18,-167.52 764.67,-156.96 771.68,-148.23"/>
<polygon fill="#63b8ff" stroke="#63b8ff" points="774.55,-150.25 778.08,-140.27 769.09,-145.87 774.55,-150.25"/>
</a>
</g>
</g>
<!-- Node14 -->
<g id="Node000014" class="node">
<title>Node14</title>
<g id="a_Node000014"><a xlink:title=" ">
<polygon fill="#e0e0e0" stroke="#999999" points="863.62,-140 822.62,-140 822.62,-121 863.62,-121 863.62,-140"/>
<text text-anchor="middle" x="843.12" y="-128" font-family="Helvetica,sans-Serif" font-size="10.00">QList</text>
</a>
</g>
</g>
<!-- Node6&#45;&gt;Node14 -->
<g id="edge17_Node000006_Node000014" class="edge">
<title>Node6&#45;&gt;Node14</title>
<g id="a_edge17_Node000006_Node000014"><a xlink:title=" ">
<path fill="none" stroke="#63b8ff" d="M763.27,-175.99C780.01,-166.66 801.89,-154.47 818.52,-145.21"/>
<polygon fill="#63b8ff" stroke="#63b8ff" points="820.58,-148.06 827.62,-140.14 817.18,-141.95 820.58,-148.06"/>
</a>
</g>
</g>
<!-- Node15 -->
<g id="Node000015" class="node">
<title>Node15</title>
<g id="a_Node000015"><a xlink:title=" ">
<polygon fill="#e0e0e0" stroke="#999999" points="926.62,-140 881.62,-140 881.62,-121 926.62,-121 926.62,-140"/>
<text text-anchor="middle" x="904.12" y="-128" font-family="Helvetica,sans-Serif" font-size="10.00">QMap</text>
</a>
</g>
</g>
<!-- Node6&#45;&gt;Node15 -->
<g id="edge18_Node000006_Node000015" class="edge">
<title>Node6&#45;&gt;Node15</title>
<g id="a_edge18_Node000006_Node000015"><a xlink:title=" ">
<path fill="none" stroke="#63b8ff" d="M777.88,-175.99C806.63,-165.86 844.98,-152.34 871.84,-142.88"/>
<polygon fill="#63b8ff" stroke="#63b8ff" points="873.26,-146.09 881.53,-139.46 870.93,-139.49 873.26,-146.09"/>
</a>
</g>
</g>
<!-- Node16 -->
<g id="Node000016" class="node">
<title>Node16</title>
<g id="a_Node000016"><a xlink:title=" ">
<polygon fill="#e0e0e0" stroke="#999999" points="1003.62,-140 944.62,-140 944.62,-121 1003.62,-121 1003.62,-140"/>
<text text-anchor="middle" x="974.12" y="-128" font-family="Helvetica,sans-Serif" font-size="10.00">QVariant</text>
</a>
</g>
</g>
<!-- Node6&#45;&gt;Node16 -->
<g id="edge22_Node000006_Node000016" class="edge">
<title>Node6&#45;&gt;Node16</title>
<g id="a_edge22_Node000006_Node000016"><a xlink:title=" ">
<path fill="none" stroke="#63b8ff" d="M791.68,-176.73C835.21,-165.93 895.63,-150.96 934.8,-141.25"/>
<polygon fill="#63b8ff" stroke="#63b8ff" points="935.66,-144.64 944.52,-138.84 933.98,-137.85 935.66,-144.64"/>
</a>
</g>
</g>
<!-- Node17 -->
<g id="Node000017" class="node">
<title>Node17</title>
<g id="a_Node000017"><a xlink:title=" ">
<polygon fill="#e0e0e0" stroke="#999999" points="426.12,-140 358.12,-140 358.12,-121 426.12,-121 426.12,-140"/>
<text text-anchor="middle" x="392.12" y="-128" font-family="Helvetica,sans-Serif" font-size="10.00">windows.h</text>
</a>
</g>
</g>
<!-- Node6&#45;&gt;Node17 -->
<g id="edge24_Node000006_Node000017" class="edge">
<title>Node6&#45;&gt;Node17</title>
<g id="a_edge24_Node000006_Node000017"><a xlink:title=" ">
<path fill="none" stroke="#63b8ff" d="M684.54,-181.16C624.86,-171.28 525.55,-154.73 440.12,-140 438.86,-139.78 437.57,-139.56 436.27,-139.33"/>
<polygon fill="#63b8ff" stroke="#63b8ff" points="436.66,-135.85 426.21,-137.57 435.45,-142.74 436.66,-135.85"/>
</a>
</g>
</g>
<!-- Node7&#45;&gt;Node2 -->
<g id="edge9_Node000007_Node000002" class="edge">
<title>Node7&#45;&gt;Node2</title>
<g id="a_edge9_Node000007_Node000002"><a xlink:title=" ">
<path fill="none" stroke="#63b8ff" d="M659.79,-120.98C708.28,-111.74 785.77,-96.97 838.01,-87.01"/>
<polygon fill="#63b8ff" stroke="#63b8ff" points="838.94,-90.39 848.11,-85.08 837.63,-83.52 838.94,-90.39"/>
</a>
</g>
</g>
<!-- Node7&#45;&gt;Node4 -->
<g id="edge15_Node000007_Node000004" class="edge">
<title>Node7&#45;&gt;Node4</title>
<g id="a_edge15_Node000007_Node000004"><a xlink:title=" ">
<path fill="none" stroke="#63b8ff" d="M614.7,-120.63C613.62,-107.27 609.78,-81.88 596.12,-66 580.24,-47.54 556.05,-35.41 534.78,-27.73"/>
<polygon fill="#63b8ff" stroke="#63b8ff" points="535.85,-24.4 525.25,-24.51 533.6,-31.03 535.85,-24.4"/>
</a>
</g>
</g>
<!-- Node8 -->
<g id="Node000008" class="node">
<title>Node8</title>
<g id="a_Node000008"><a xlink:title=" ">
<polygon fill="#e0e0e0" stroke="#999999" points="684.62,-85 643.62,-85 643.62,-66 684.62,-66 684.62,-85"/>
<text text-anchor="middle" x="664.12" y="-73" font-family="Helvetica,sans-Serif" font-size="10.00">QFile</text>
</a>
</g>
</g>
<!-- Node7&#45;&gt;Node8 -->
<g id="edge10_Node000007_Node000008" class="edge">
<title>Node7&#45;&gt;Node8</title>
<g id="a_edge10_Node000007_Node000008"><a xlink:title=" ">
<path fill="none" stroke="#63b8ff" d="M623.21,-120.75C630.28,-113.11 640.71,-101.82 649.27,-92.56"/>
<polygon fill="#63b8ff" stroke="#63b8ff" points="651.96,-94.81 656.18,-85.09 646.82,-90.06 651.96,-94.81"/>
</a>
</g>
</g>
<!-- Node7&#45;&gt;Node9 -->
<g id="edge11_Node000007_Node000009" class="edge">
<title>Node7&#45;&gt;Node9</title>
<g id="a_edge11_Node000007_Node000009"><a xlink:title=" ">
<path fill="none" stroke="#63b8ff" d="M592.95,-120.98C570.35,-112.3 535.06,-98.75 509.37,-88.88"/>
<polygon fill="#63b8ff" stroke="#63b8ff" points="510.29,-85.49 499.7,-85.17 507.78,-92.02 510.29,-85.49"/>
</a>
</g>
</g>
<!-- Node7&#45;&gt;Node10 -->
<g id="edge12_Node000007_Node000010" class="edge">
<title>Node7&#45;&gt;Node10</title>
<g id="a_edge12_Node000007_Node000010"><a xlink:title=" ">
<path fill="none" stroke="#63b8ff" d="M605.48,-120.98C596.61,-113.15 583.25,-101.34 572.52,-91.86"/>
<polygon fill="#63b8ff" stroke="#63b8ff" points="574.75,-89.17 564.94,-85.17 570.12,-94.41 574.75,-89.17"/>
</a>
</g>
</g>
<!-- Node7&#45;&gt;Node11 -->
<g id="edge13_Node000007_Node000011" class="edge">
<title>Node7&#45;&gt;Node11</title>
<g id="a_edge13_Node000007_Node000011"><a xlink:title=" ">
<path fill="none" stroke="#63b8ff" d="M633.44,-120.98C651.78,-112.46 680.23,-99.23 701.35,-89.41"/>
<polygon fill="#63b8ff" stroke="#63b8ff" points="702.88,-92.56 710.47,-85.17 699.93,-86.21 702.88,-92.56"/>
</a>
</g>
</g>
<!-- Node7&#45;&gt;Node12 -->
<g id="edge14_Node000007_Node000012" class="edge">
<title>Node7&#45;&gt;Node12</title>
<g id="a_edge14_Node000007_Node000012"><a xlink:title=" ">
<path fill="none" stroke="#63b8ff" d="M579.47,-120.94C546.02,-112.8 494.4,-99.95 441,-85.15"/>
<polygon fill="#63b8ff" stroke="#63b8ff" points="441.94,-81.78 431.37,-82.47 440.06,-88.52 441.94,-81.78"/>
</a>
</g>
</g>
<!-- Node18&#45;&gt;Node4 -->
<g id="edge31_Node000018_Node000004" class="edge">
<title>Node18&#45;&gt;Node4</title>
<g id="a_edge31_Node000018_Node000004"><a xlink:title=" ">
<path fill="none" stroke="#63b8ff" d="M296.45,-120.97C315.03,-108.26 351.51,-83.95 384.12,-66 409.32,-52.13 439.01,-38.33 460.55,-28.76"/>
<polygon fill="#63b8ff" stroke="#63b8ff" points="462.08,-31.9 469.82,-24.67 459.26,-25.5 462.08,-31.9"/>
</a>
</g>
</g>
<!-- Node18&#45;&gt;Node12 -->
<g id="edge30_Node000018_Node000012" class="edge">
<title>Node18&#45;&gt;Node12</title>
<g id="a_edge30_Node000018_Node000012"><a xlink:title=" ">
<path fill="none" stroke="#63b8ff" d="M304.69,-120.98C326.06,-112.14 359.65,-98.23 383.58,-88.32"/>
<polygon fill="#63b8ff" stroke="#63b8ff" points="384.96,-91.53 392.87,-84.47 382.29,-85.07 384.96,-91.53"/>
</a>
</g>
</g>
<!-- Node19 -->
<g id="Node000019" class="node">
<title>Node19</title>
<g id="a_Node000019"><a xlink:title=" ">
<polygon fill="#e0e0e0" stroke="#999999" points="65.12,-85 13.12,-85 13.12,-66 65.12,-66 65.12,-85"/>
<text text-anchor="middle" x="39.12" y="-73" font-family="Helvetica,sans-Serif" font-size="10.00">QEvent</text>
</a>
</g>
</g>
<!-- Node18&#45;&gt;Node19 -->
<g id="edge26_Node000018_Node000019" class="edge">
<title>Node18&#45;&gt;Node19</title>
<g id="a_edge26_Node000018_Node000019"><a xlink:title=" ">
<path fill="none" stroke="#63b8ff" d="M242.21,-121C201.84,-112.72 138.8,-99.58 75.26,-85.21"/>
<polygon fill="#63b8ff" stroke="#63b8ff" points="76,-81.79 65.48,-82.99 74.45,-88.62 76,-81.79"/>
</a>
</g>
</g>
<!-- Node20 -->
<g id="Node000020" class="node">
<title>Node20</title>
<g id="a_Node000020"><a xlink:title=" ">
<polygon fill="#e0e0e0" stroke="#999999" points="153.12,-85 83.12,-85 83.12,-66 153.12,-66 153.12,-85"/>
<text text-anchor="middle" x="118.12" y="-73" font-family="Helvetica,sans-Serif" font-size="10.00">QKeyEvent</text>
</a>
</g>
</g>
<!-- Node18&#45;&gt;Node20 -->
<g id="edge27_Node000018_Node000020" class="edge">
<title>Node18&#45;&gt;Node20</title>
<g id="a_edge27_Node000018_Node000020"><a xlink:title=" ">
<path fill="none" stroke="#63b8ff" d="M257.45,-120.98C229.58,-112.09 185.67,-98.07 154.6,-88.15"/>
<polygon fill="#63b8ff" stroke="#63b8ff" points="155.59,-84.79 145,-85.08 153.46,-91.46 155.59,-84.79"/>
</a>
</g>
</g>
<!-- Node21 -->
<g id="Node000021" class="node">
<title>Node21</title>
<g id="a_Node000021"><a xlink:title=" ">
<polygon fill="#e0e0e0" stroke="#999999" points="234.62,-85 171.62,-85 171.62,-66 234.62,-66 234.62,-85"/>
<text text-anchor="middle" x="203.12" y="-73" font-family="Helvetica,sans-Serif" font-size="10.00">QLineEdit</text>
</a>
</g>
</g>
<!-- Node18&#45;&gt;Node21 -->
<g id="edge28_Node000018_Node000021" class="edge">
<title>Node18&#45;&gt;Node21</title>
<g id="a_edge28_Node000018_Node000021"><a xlink:title=" ">
<path fill="none" stroke="#63b8ff" d="M271.11,-120.98C258.67,-112.84 239.67,-100.41 224.91,-90.76"/>
<polygon fill="#63b8ff" stroke="#63b8ff" points="226.66,-87.72 216.37,-85.17 222.83,-93.57 226.66,-87.72"/>
</a>
</g>
</g>
<!-- Node22 -->
<g id="Node000022" class="node">
<title>Node22</title>
<g id="a_Node000022"><a xlink:title=" ">
<polygon fill="#e0e0e0" stroke="#999999" points="337.12,-85 253.12,-85 253.12,-66 337.12,-66 337.12,-85"/>
<text text-anchor="middle" x="295.12" y="-73" font-family="Helvetica,sans-Serif" font-size="10.00">QMouseEvent</text>
</a>
</g>
</g>
<!-- Node18&#45;&gt;Node22 -->
<g id="edge29_Node000018_Node000022" class="edge">
<title>Node18&#45;&gt;Node22</title>
<g id="a_edge29_Node000018_Node000022"><a xlink:title=" ">
<path fill="none" stroke="#63b8ff" d="M285.94,-120.75C287.38,-113.8 289.45,-103.85 291.26,-95.13"/>
<polygon fill="#63b8ff" stroke="#63b8ff" points="294.74,-95.59 293.34,-85.09 287.88,-94.17 294.74,-95.59"/>
</a>
</g>
</g>
</g>
</svg>
