<?xml version="1.0" encoding="UTF-8" standalone="no"?>
<!DOCTYPE svg PUBLIC "-//W3C//DTD SVG 1.1//EN"
 "http://www.w3.org/Graphics/SVG/1.1/DTD/svg11.dtd">
<!-- Generated by graphviz version 2.43.0 (0)
 -->
<!-- Title: src/ui/preferences.cpp Pages: 1 -->
<svg width="1463pt" height="313pt"
 viewBox="0.00 0.00 1462.50 313.00" xmlns="http://www.w3.org/2000/svg" xmlns:xlink="http://www.w3.org/1999/xlink">
<g id="graph0" class="graph" transform="scale(1 1) rotate(0) translate(4 309)">
<title>src/ui/preferences.cpp</title>
<!-- Node1 -->
<g id="Node000001" class="node">
<title>Node1</title>
<g id="a_Node000001"><a xlink:title=" ">
<polygon fill="#999999" stroke="#666666" points="886.5,-305 762.5,-305 762.5,-286 886.5,-286 886.5,-305"/>
<text text-anchor="middle" x="824.5" y="-293" font-family="Helvetica,sans-Serif" font-size="10.00">src/ui/preferences.cpp</text>
</a>
</g>
</g>
<!-- Node2 -->
<g id="Node000002" class="node">
<title>Node2</title>
<g id="a_Node000002"><a xlink:href="preferences_8hpp.html" target="_top" xlink:title=" ">
<polygon fill="white" stroke="#666666" points="750,-250 655,-250 655,-231 750,-231 750,-250"/>
<text text-anchor="middle" x="702.5" y="-238" font-family="Helvetica,sans-Serif" font-size="10.00">preferences.hpp</text>
</a>
</g>
</g>
<!-- Node1&#45;&gt;Node2 -->
<g id="edge1_Node000001_Node000002" class="edge">
<title>Node1&#45;&gt;Node2</title>
<g id="a_edge1_Node000001_Node000002"><a xlink:title=" ">
<path fill="none" stroke="#63b8ff" d="M804.9,-285.98C785.18,-277.42 754.55,-264.11 731.92,-254.28"/>
<polygon fill="#63b8ff" stroke="#63b8ff" points="733.02,-250.94 722.46,-250.17 730.24,-257.37 733.02,-250.94"/>
</a>
</g>
</g>
<!-- Node5 -->
<g id="Node000005" class="node">
<title>Node5</title>
<g id="a_Node000005"><a xlink:href="input__types_8hpp.html" target="_top" xlink:title=" ">
<polygon fill="white" stroke="#666666" points="612.5,-85 466.5,-85 466.5,-66 612.5,-66 612.5,-85"/>
<text text-anchor="middle" x="539.5" y="-73" font-family="Helvetica,sans-Serif" font-size="10.00">../settings/input_types.hpp</text>
</a>
</g>
</g>
<!-- Node1&#45;&gt;Node5 -->
<g id="edge4_Node000001_Node000005" class="edge">
<title>Node1&#45;&gt;Node5</title>
<g id="a_edge4_Node000001_Node000005"><a xlink:title=" ">
<path fill="none" stroke="#63b8ff" d="M762.46,-293.71C721.36,-290.18 668.42,-279.53 631.5,-250 581.83,-210.26 601.14,-176.18 569.5,-121 564.11,-111.6 557.43,-101.56 551.74,-93.4"/>
<polygon fill="#63b8ff" stroke="#63b8ff" points="554.51,-91.25 545.86,-85.12 548.8,-95.3 554.51,-91.25"/>
</a>
</g>
</g>
<!-- Node8 -->
<g id="Node000008" class="node">
<title>Node8</title>
<g id="a_Node000008"><a xlink:href="settings_8hpp.html" target="_top" xlink:title=" ">
<polygon fill="white" stroke="#666666" points="522.5,-250 394.5,-250 394.5,-231 522.5,-231 522.5,-250"/>
<text text-anchor="middle" x="458.5" y="-238" font-family="Helvetica,sans-Serif" font-size="10.00">../settings/settings.hpp</text>
</a>
</g>
</g>
<!-- Node1&#45;&gt;Node8 -->
<g id="edge8_Node000001_Node000008" class="edge">
<title>Node1&#45;&gt;Node8</title>
<g id="a_edge8_Node000001_Node000008"><a xlink:title=" ">
<path fill="none" stroke="#63b8ff" d="M765.7,-285.98C700.83,-276.59 596.54,-261.49 527.76,-251.53"/>
<polygon fill="#63b8ff" stroke="#63b8ff" points="527.86,-248.01 517.46,-250.04 526.86,-254.94 527.86,-248.01"/>
</a>
</g>
</g>
<!-- Node9 -->
<g id="Node000009" class="node">
<title>Node9</title>
<g id="a_Node000009"><a xlink:href="settings__singleton_8hpp.html" target="_top" xlink:title=" ">
<polygon fill="white" stroke="#666666" points="353,-195 226,-195 226,-176 353,-176 353,-195"/>
<text text-anchor="middle" x="289.5" y="-183" font-family="Helvetica,sans-Serif" font-size="10.00">settings_singleton.hpp</text>
</a>
</g>
</g>
<!-- Node1&#45;&gt;Node9 -->
<g id="edge27_Node000001_Node000009" class="edge">
<title>Node1&#45;&gt;Node9</title>
<g id="a_edge27_Node000001_Node000009"><a xlink:title=" ">
<path fill="none" stroke="#63b8ff" d="M762.39,-291.87C658.29,-286.85 453.32,-274.2 385.5,-250 355.25,-239.21 325.15,-216.94 306.93,-201.86"/>
<polygon fill="#63b8ff" stroke="#63b8ff" points="308.88,-198.92 298.99,-195.12 304.35,-204.26 308.88,-198.92"/>
</a>
</g>
</g>
<!-- Node11 -->
<g id="Node000011" class="node">
<title>Node11</title>
<g id="a_Node000011"><a xlink:title=" ">
<polygon fill="#e0e0e0" stroke="#999999" points="672,-85 631,-85 631,-66 672,-66 672,-85"/>
<text text-anchor="middle" x="651.5" y="-73" font-family="Helvetica,sans-Serif" font-size="10.00">QFile</text>
</a>
</g>
</g>
<!-- Node1&#45;&gt;Node11 -->
<g id="edge37_Node000001_Node000011" class="edge">
<title>Node1&#45;&gt;Node11</title>
<g id="a_edge37_Node000001_Node000011"><a xlink:title=" ">
<path fill="none" stroke="#63b8ff" d="M762.08,-287.06C716.69,-280.22 660.81,-268.33 646.5,-250 610.86,-204.35 631.55,-129.45 644.08,-94.95"/>
<polygon fill="#63b8ff" stroke="#63b8ff" points="647.49,-95.85 647.78,-85.26 640.95,-93.35 647.49,-95.85"/>
</a>
</g>
</g>
<!-- Node15 -->
<g id="Node000015" class="node">
<title>Node15</title>
<g id="a_Node000015"><a xlink:title=" ">
<polygon fill="#e0e0e0" stroke="#999999" points="560.5,-140 522.5,-140 522.5,-121 560.5,-121 560.5,-140"/>
<text text-anchor="middle" x="541.5" y="-128" font-family="Helvetica,sans-Serif" font-size="10.00">QDir</text>
</a>
</g>
</g>
<!-- Node1&#45;&gt;Node15 -->
<g id="edge36_Node000001_Node000015" class="edge">
<title>Node1&#45;&gt;Node15</title>
<g id="a_edge36_Node000001_Node000015"><a xlink:title=" ">
<path fill="none" stroke="#63b8ff" d="M762.39,-290.9C697.49,-285.88 601.42,-274.46 574.5,-250 546.28,-224.35 541.37,-176.83 540.99,-150.42"/>
<polygon fill="#63b8ff" stroke="#63b8ff" points="544.49,-150.25 541.05,-140.23 537.49,-150.21 544.49,-150.25"/>
</a>
</g>
</g>
<!-- Node19 -->
<g id="Node000019" class="node">
<title>Node19</title>
<g id="a_Node000019"><a xlink:href="buttoninputbox_8hpp.html" target="_top" xlink:title=" ">
<polygon fill="white" stroke="#666666" points="880.5,-250 768.5,-250 768.5,-231 880.5,-231 880.5,-250"/>
<text text-anchor="middle" x="824.5" y="-238" font-family="Helvetica,sans-Serif" font-size="10.00">buttoninputbox.hpp</text>
</a>
</g>
</g>
<!-- Node1&#45;&gt;Node19 -->
<g id="edge28_Node000001_Node000019" class="edge">
<title>Node1&#45;&gt;Node19</title>
<g id="a_edge28_Node000001_Node000019"><a xlink:title=" ">
<path fill="none" stroke="#63b8ff" d="M824.5,-285.75C824.5,-278.8 824.5,-268.85 824.5,-260.13"/>
<polygon fill="#63b8ff" stroke="#63b8ff" points="828,-260.09 824.5,-250.09 821,-260.09 828,-260.09"/>
</a>
</g>
</g>
<!-- Node24 -->
<g id="Node000024" class="node">
<title>Node24</title>
<g id="a_Node000024"><a xlink:title=" ">
<polygon fill="#e0e0e0" stroke="#999999" points="996.5,-250 898.5,-250 898.5,-231 996.5,-231 996.5,-250"/>
<text text-anchor="middle" x="947.5" y="-238" font-family="Helvetica,sans-Serif" font-size="10.00">ui_preferences.h</text>
</a>
</g>
</g>
<!-- Node1&#45;&gt;Node24 -->
<g id="edge34_Node000001_Node000024" class="edge">
<title>Node1&#45;&gt;Node24</title>
<g id="a_edge34_Node000001_Node000024"><a xlink:title=" ">
<path fill="none" stroke="#63b8ff" d="M844.26,-285.98C864.23,-277.38 895.3,-263.99 918.15,-254.15"/>
<polygon fill="#63b8ff" stroke="#63b8ff" points="919.58,-257.34 927.38,-250.17 916.81,-250.91 919.58,-257.34"/>
</a>
</g>
</g>
<!-- Node25 -->
<g id="Node000025" class="node">
<title>Node25</title>
<g id="a_Node000025"><a xlink:title=" ">
<polygon fill="#e0e0e0" stroke="#999999" points="1070.5,-250 1014.5,-250 1014.5,-231 1070.5,-231 1070.5,-250"/>
<text text-anchor="middle" x="1042.5" y="-238" font-family="Helvetica,sans-Serif" font-size="10.00">QDebug</text>
</a>
</g>
</g>
<!-- Node1&#45;&gt;Node25 -->
<g id="edge35_Node000001_Node000025" class="edge">
<title>Node1&#45;&gt;Node25</title>
<g id="a_edge35_Node000001_Node000025"><a xlink:title=" ">
<path fill="none" stroke="#63b8ff" d="M859.53,-285.98C899.25,-276.33 963.79,-260.64 1004.64,-250.7"/>
<polygon fill="#63b8ff" stroke="#63b8ff" points="1005.6,-254.07 1014.49,-248.31 1003.95,-247.27 1005.6,-254.07"/>
</a>
</g>
</g>
<!-- Node26 -->
<g id="Node000026" class="node">
<title>Node26</title>
<g id="a_Node000026"><a xlink:title=" ">
<polygon fill="#e0e0e0" stroke="#999999" points="1168.5,-250 1088.5,-250 1088.5,-231 1168.5,-231 1168.5,-250"/>
<text text-anchor="middle" x="1128.5" y="-238" font-family="Helvetica,sans-Serif" font-size="10.00">QInputDialog</text>
</a>
</g>
</g>
<!-- Node1&#45;&gt;Node26 -->
<g id="edge38_Node000001_Node000026" class="edge">
<title>Node1&#45;&gt;Node26</title>
<g id="a_edge38_Node000001_Node000026"><a xlink:title=" ">
<path fill="none" stroke="#63b8ff" d="M873.34,-285.98C929.43,-276.21 1021.01,-260.24 1077.85,-250.33"/>
<polygon fill="#63b8ff" stroke="#63b8ff" points="1078.79,-253.72 1088.05,-248.55 1077.59,-246.82 1078.79,-253.72"/>
</a>
</g>
</g>
<!-- Node27 -->
<g id="Node000027" class="node">
<title>Node27</title>
<g id="a_Node000027"><a xlink:title=" ">
<polygon fill="#e0e0e0" stroke="#999999" points="1272.5,-250 1186.5,-250 1186.5,-231 1272.5,-231 1272.5,-250"/>
<text text-anchor="middle" x="1229.5" y="-238" font-family="Helvetica,sans-Serif" font-size="10.00">QMessageBox</text>
</a>
</g>
</g>
<!-- Node1&#45;&gt;Node27 -->
<g id="edge39_Node000001_Node000027" class="edge">
<title>Node1&#45;&gt;Node27</title>
<g id="a_edge39_Node000001_Node000027"><a xlink:title=" ">
<path fill="none" stroke="#63b8ff" d="M886.76,-287.35C955.23,-279.33 1068.74,-265.57 1176.33,-250.12"/>
<polygon fill="#63b8ff" stroke="#63b8ff" points="1176.99,-253.56 1186.39,-248.67 1175.99,-246.64 1176.99,-253.56"/>
</a>
</g>
</g>
<!-- Node28 -->
<g id="Node000028" class="node">
<title>Node28</title>
<g id="a_Node000028"><a xlink:title=" ">
<polygon fill="#e0e0e0" stroke="#999999" points="1342.5,-250 1290.5,-250 1290.5,-231 1342.5,-231 1342.5,-250"/>
<text text-anchor="middle" x="1316.5" y="-238" font-family="Helvetica,sans-Serif" font-size="10.00">QSlider</text>
</a>
</g>
</g>
<!-- Node1&#45;&gt;Node28 -->
<g id="edge40_Node000001_Node000028" class="edge">
<title>Node1&#45;&gt;Node28</title>
<g id="a_edge40_Node000001_Node000028"><a xlink:title=" ">
<path fill="none" stroke="#63b8ff" d="M886.59,-291.24C972.86,-286.1 1133.96,-274.26 1280.16,-250"/>
<polygon fill="#63b8ff" stroke="#63b8ff" points="1280.93,-253.42 1290.21,-248.31 1279.77,-246.51 1280.93,-253.42"/>
</a>
</g>
</g>
<!-- Node29 -->
<g id="Node000029" class="node">
<title>Node29</title>
<g id="a_Node000029"><a xlink:title=" ">
<polygon fill="#e0e0e0" stroke="#999999" points="1454.5,-250 1360.5,-250 1360.5,-231 1454.5,-231 1454.5,-250"/>
<text text-anchor="middle" x="1407.5" y="-238" font-family="Helvetica,sans-Serif" font-size="10.00">QStandardPaths</text>
</a>
</g>
</g>
<!-- Node1&#45;&gt;Node29 -->
<g id="edge41_Node000001_Node000029" class="edge">
<title>Node1&#45;&gt;Node29</title>
<g id="a_edge41_Node000001_Node000029"><a xlink:title=" ">
<path fill="none" stroke="#63b8ff" d="M886.7,-290.59C983.53,-284.21 1176.42,-270.31 1350.37,-250.06"/>
<polygon fill="#63b8ff" stroke="#63b8ff" points="1350.95,-253.51 1360.48,-248.87 1350.14,-246.56 1350.95,-253.51"/>
</a>
</g>
</g>
<!-- Node3 -->
<g id="Node000003" class="node">
<title>Node3</title>
<g id="a_Node000003"><a xlink:title=" ">
<polygon fill="#e0e0e0" stroke="#999999" points="515,-24.5 462,-24.5 462,-5.5 515,-5.5 515,-24.5"/>
<text text-anchor="middle" x="488.5" y="-12.5" font-family="Helvetica,sans-Serif" font-size="10.00">QString</text>
</a>
</g>
</g>
<!-- Node2&#45;&gt;Node3 -->
<g id="edge2_Node000002_Node000003" class="edge">
<title>Node2&#45;&gt;Node3</title>
<g id="a_edge2_Node000002_Node000003"><a xlink:title=" ">
<path fill="none" stroke="#63b8ff" d="M708.08,-230.72C713.24,-222.03 720.55,-208.17 723.5,-195 734.93,-143.98 693.34,-76.59 681.5,-66 637.98,-27.07 568,-17.73 525.34,-15.9"/>
<polygon fill="#63b8ff" stroke="#63b8ff" points="525.22,-12.39 515.11,-15.58 525,-19.39 525.22,-12.39"/>
</a>
</g>
</g>
<!-- Node4 -->
<g id="Node000004" class="node">
<title>Node4</title>
<g id="a_Node000004"><a xlink:title=" ">
<polygon fill="#e0e0e0" stroke="#999999" points="714,-195 655,-195 655,-176 714,-176 714,-195"/>
<text text-anchor="middle" x="684.5" y="-183" font-family="Helvetica,sans-Serif" font-size="10.00">QWidget</text>
</a>
</g>
</g>
<!-- Node2&#45;&gt;Node4 -->
<g id="edge3_Node000002_Node000004" class="edge">
<title>Node2&#45;&gt;Node4</title>
<g id="a_edge3_Node000002_Node000004"><a xlink:title=" ">
<path fill="none" stroke="#63b8ff" d="M699.53,-230.75C697.14,-223.72 693.71,-213.62 690.73,-204.84"/>
<polygon fill="#63b8ff" stroke="#63b8ff" points="693.95,-203.43 687.42,-195.09 687.32,-205.68 693.95,-203.43"/>
</a>
</g>
</g>
<!-- Node5&#45;&gt;Node3 -->
<g id="edge6_Node000005_Node000003" class="edge">
<title>Node5&#45;&gt;Node3</title>
<g id="a_edge6_Node000005_Node000003"><a xlink:title=" ">
<path fill="none" stroke="#63b8ff" d="M531.97,-65.87C524.29,-57.05 512.18,-43.16 502.69,-32.27"/>
<polygon fill="#63b8ff" stroke="#63b8ff" points="505.27,-29.91 496.06,-24.67 499.99,-34.51 505.27,-29.91"/>
</a>
</g>
</g>
<!-- Node6 -->
<g id="Node000006" class="node">
<title>Node6</title>
<g id="a_Node000006"><a xlink:href="GameButtons_8h.html" target="_top" xlink:title=" ">
<polygon fill="white" stroke="#666666" points="375.5,-30 239.5,-30 239.5,0 375.5,0 375.5,-30"/>
<text text-anchor="start" x="247.5" y="-18" font-family="Helvetica,sans-Serif" font-size="10.00">../../VGP_Data_Exchange</text>
<text text-anchor="middle" x="307.5" y="-7" font-family="Helvetica,sans-Serif" font-size="10.00">/C/GameButtons.h</text>
</a>
</g>
</g>
<!-- Node5&#45;&gt;Node6 -->
<g id="edge5_Node000005_Node000006" class="edge">
<title>Node5&#45;&gt;Node6</title>
<g id="a_edge5_Node000005_Node000006"><a xlink:title=" ">
<path fill="none" stroke="#63b8ff" d="M505.77,-65.99C471.14,-57.26 416.36,-43.45 373.15,-32.55"/>
<polygon fill="#63b8ff" stroke="#63b8ff" points="373.83,-29.12 363.28,-30.06 372.12,-35.9 373.83,-29.12"/>
</a>
</g>
</g>
<!-- Node7 -->
<g id="Node000007" class="node">
<title>Node7</title>
<g id="a_Node000007"><a xlink:title=" ">
<polygon fill="#e0e0e0" stroke="#999999" points="725,-24.5 696,-24.5 696,-5.5 725,-5.5 725,-24.5"/>
<text text-anchor="middle" x="710.5" y="-12.5" font-family="Helvetica,sans-Serif" font-size="10.00">Qt</text>
</a>
</g>
</g>
<!-- Node5&#45;&gt;Node7 -->
<g id="edge7_Node000005_Node000007" class="edge">
<title>Node5&#45;&gt;Node7</title>
<g id="a_edge7_Node000005_Node000007"><a xlink:title=" ">
<path fill="none" stroke="#63b8ff" d="M564.36,-65.99C596.96,-54.84 653.79,-35.4 686.14,-24.34"/>
<polygon fill="#63b8ff" stroke="#63b8ff" points="687.39,-27.61 695.72,-21.06 685.12,-20.98 687.39,-27.61"/>
</a>
</g>
</g>
<!-- Node8&#45;&gt;Node9 -->
<g id="edge9_Node000008_Node000009" class="edge">
<title>Node8&#45;&gt;Node9</title>
<g id="a_edge9_Node000008_Node000009"><a xlink:title=" ">
<path fill="none" stroke="#63b8ff" d="M431.35,-230.98C402.97,-222.09 358.27,-208.07 326.64,-198.15"/>
<polygon fill="#63b8ff" stroke="#63b8ff" points="327.45,-194.73 316.87,-195.08 325.36,-201.41 327.45,-194.73"/>
</a>
</g>
</g>
<!-- Node8&#45;&gt;Node15 -->
<g id="edge26_Node000008_Node000015" class="edge">
<title>Node8&#45;&gt;Node15</title>
<g id="a_edge26_Node000008_Node000015"><a xlink:title=" ">
<path fill="none" stroke="#63b8ff" d="M465.29,-230.66C479.1,-212.69 510.65,-171.64 528.52,-148.38"/>
<polygon fill="#63b8ff" stroke="#63b8ff" points="531.53,-150.22 534.85,-140.16 525.98,-145.95 531.53,-150.22"/>
</a>
</g>
</g>
<!-- Node9&#45;&gt;Node3 -->
<g id="edge24_Node000009_Node000003" class="edge">
<title>Node9&#45;&gt;Node3</title>
<g id="a_edge24_Node000009_Node000003"><a xlink:title=" ">
<path fill="none" stroke="#63b8ff" d="M275.3,-175.78C244.17,-155.61 175.21,-104.55 207.5,-66 215.33,-56.66 377.22,-32.12 451.65,-21.28"/>
<polygon fill="#63b8ff" stroke="#63b8ff" points="452.57,-24.69 461.97,-19.79 451.57,-17.76 452.57,-24.69"/>
</a>
</g>
</g>
<!-- Node9&#45;&gt;Node5 -->
<g id="edge11_Node000009_Node000005" class="edge">
<title>Node9&#45;&gt;Node5</title>
<g id="a_edge11_Node000009_Node000005"><a xlink:title=" ">
<path fill="none" stroke="#63b8ff" d="M316.71,-175.93C342.29,-167.61 381.49,-154.19 414.5,-140 424.37,-135.76 480.09,-107.16 513.72,-89.82"/>
<polygon fill="#63b8ff" stroke="#63b8ff" points="515.68,-92.74 522.96,-85.05 512.47,-86.52 515.68,-92.74"/>
</a>
</g>
</g>
<!-- Node9&#45;&gt;Node6 -->
<g id="edge10_Node000009_Node000006" class="edge">
<title>Node9&#45;&gt;Node6</title>
<g id="a_edge10_Node000009_Node000006"><a xlink:title=" ">
<path fill="none" stroke="#63b8ff" d="M275.22,-175.79C245.39,-156.46 181.33,-108.35 207.5,-66 216.2,-51.92 230.21,-41.67 245.02,-34.26"/>
<polygon fill="#63b8ff" stroke="#63b8ff" points="246.67,-37.35 254.3,-30.01 243.75,-30.99 246.67,-37.35"/>
</a>
</g>
</g>
<!-- Node10 -->
<g id="Node000010" class="node">
<title>Node10</title>
<g id="a_Node000010"><a xlink:href="keymap__profile_8hpp.html" target="_top" xlink:title=" ">
<polygon fill="white" stroke="#666666" points="406,-140 293,-140 293,-121 406,-121 406,-140"/>
<text text-anchor="middle" x="349.5" y="-128" font-family="Helvetica,sans-Serif" font-size="10.00">keymap_profile.hpp</text>
</a>
</g>
</g>
<!-- Node9&#45;&gt;Node10 -->
<g id="edge12_Node000009_Node000010" class="edge">
<title>Node9&#45;&gt;Node10</title>
<g id="a_edge12_Node000009_Node000010"><a xlink:title=" ">
<path fill="none" stroke="#63b8ff" d="M299.14,-175.98C308.01,-168.15 321.37,-156.34 332.11,-146.86"/>
<polygon fill="#63b8ff" stroke="#63b8ff" points="334.51,-149.41 339.68,-140.17 329.87,-144.17 334.51,-149.41"/>
</a>
</g>
</g>
<!-- Node12 -->
<g id="Node000012" class="node">
<title>Node12</title>
<g id="a_Node000012"><a xlink:title=" ">
<polygon fill="#e0e0e0" stroke="#999999" points="272.5,-85 216.5,-85 216.5,-66 272.5,-66 272.5,-85"/>
<text text-anchor="middle" x="244.5" y="-73" font-family="Helvetica,sans-Serif" font-size="10.00">QObject</text>
</a>
</g>
</g>
<!-- Node9&#45;&gt;Node12 -->
<g id="edge22_Node000009_Node000012" class="edge">
<title>Node9&#45;&gt;Node12</title>
<g id="a_edge22_Node000009_Node000012"><a xlink:title=" ">
<path fill="none" stroke="#63b8ff" d="M285.82,-175.66C278.46,-158.01 261.83,-118.09 252.06,-94.64"/>
<polygon fill="#63b8ff" stroke="#63b8ff" points="255.18,-93.04 248.11,-85.16 248.72,-95.74 255.18,-93.04"/>
</a>
</g>
</g>
<!-- Node13 -->
<g id="Node000013" class="node">
<title>Node13</title>
<g id="a_Node000013"><a xlink:title=" ">
<polygon fill="#e0e0e0" stroke="#999999" points="354.5,-85 290.5,-85 290.5,-66 354.5,-66 354.5,-85"/>
<text text-anchor="middle" x="322.5" y="-73" font-family="Helvetica,sans-Serif" font-size="10.00">QSettings</text>
</a>
</g>
</g>
<!-- Node9&#45;&gt;Node13 -->
<g id="edge23_Node000009_Node000013" class="edge">
<title>Node9&#45;&gt;Node13</title>
<g id="a_edge23_Node000009_Node000013"><a xlink:title=" ">
<path fill="none" stroke="#63b8ff" d="M286.37,-175.97C282.3,-163.47 276.48,-139.66 283.5,-121 287.68,-109.89 296.02,-99.75 303.93,-91.96"/>
<polygon fill="#63b8ff" stroke="#63b8ff" points="306.51,-94.35 311.51,-85.01 301.78,-89.19 306.51,-94.35"/>
</a>
</g>
</g>
<!-- Node9&#45;&gt;Node15 -->
<g id="edge19_Node000009_Node000015" class="edge">
<title>Node9&#45;&gt;Node15</title>
<g id="a_edge19_Node000009_Node000015"><a xlink:title=" ">
<path fill="none" stroke="#63b8ff" d="M338.94,-175.93C384.31,-167.75 453.27,-154.56 512.5,-140 512.6,-139.98 512.7,-139.95 512.8,-139.93"/>
<polygon fill="#63b8ff" stroke="#63b8ff" points="513.46,-143.37 522.22,-137.41 511.66,-136.61 513.46,-143.37"/>
</a>
</g>
</g>
<!-- Node16 -->
<g id="Node000016" class="node">
<title>Node16</title>
<g id="a_Node000016"><a xlink:title=" ">
<polygon fill="#e0e0e0" stroke="#999999" points="504,-140 463,-140 463,-121 504,-121 504,-140"/>
<text text-anchor="middle" x="483.5" y="-128" font-family="Helvetica,sans-Serif" font-size="10.00">QList</text>
</a>
</g>
</g>
<!-- Node9&#45;&gt;Node16 -->
<g id="edge20_Node000009_Node000016" class="edge">
<title>Node9&#45;&gt;Node16</title>
<g id="a_edge20_Node000009_Node000016"><a xlink:title=" ">
<path fill="none" stroke="#63b8ff" d="M320.67,-175.98C357.03,-166.05 416.76,-149.73 452.88,-139.86"/>
<polygon fill="#63b8ff" stroke="#63b8ff" points="454.12,-143.15 462.85,-137.14 452.28,-136.4 454.12,-143.15"/>
</a>
</g>
</g>
<!-- Node17 -->
<g id="Node000017" class="node">
<title>Node17</title>
<g id="a_Node000017"><a xlink:title=" ">
<polygon fill="#e0e0e0" stroke="#999999" points="45,-140 0,-140 0,-121 45,-121 45,-140"/>
<text text-anchor="middle" x="22.5" y="-128" font-family="Helvetica,sans-Serif" font-size="10.00">QMap</text>
</a>
</g>
</g>
<!-- Node9&#45;&gt;Node17 -->
<g id="edge21_Node000009_Node000017" class="edge">
<title>Node9&#45;&gt;Node17</title>
<g id="a_edge21_Node000009_Node000017"><a xlink:title=" ">
<path fill="none" stroke="#63b8ff" d="M237.69,-175.98C191.95,-168.17 123.28,-155.77 55.17,-140.25"/>
<polygon fill="#63b8ff" stroke="#63b8ff" points="55.66,-136.77 45.13,-137.93 54.09,-143.59 55.66,-136.77"/>
</a>
</g>
</g>
<!-- Node18 -->
<g id="Node000018" class="node">
<title>Node18</title>
<g id="a_Node000018"><a xlink:title=" ">
<polygon fill="#e0e0e0" stroke="#999999" points="122,-140 63,-140 63,-121 122,-121 122,-140"/>
<text text-anchor="middle" x="92.5" y="-128" font-family="Helvetica,sans-Serif" font-size="10.00">QVariant</text>
</a>
</g>
</g>
<!-- Node9&#45;&gt;Node18 -->
<g id="edge25_Node000009_Node000018" class="edge">
<title>Node9&#45;&gt;Node18</title>
<g id="a_edge25_Node000009_Node000018"><a xlink:title=" ">
<path fill="none" stroke="#63b8ff" d="M257.85,-175.98C223.65,-166.78 169.09,-152.11 132.08,-142.15"/>
<polygon fill="#63b8ff" stroke="#63b8ff" points="132.71,-138.69 122.14,-139.47 130.89,-145.45 132.71,-138.69"/>
</a>
</g>
</g>
<!-- Node10&#45;&gt;Node3 -->
<g id="edge17_Node000010_Node000003" class="edge">
<title>Node10&#45;&gt;Node3</title>
<g id="a_edge17_Node000010_Node000003"><a xlink:title=" ">
<path fill="none" stroke="#63b8ff" d="M365.18,-120.87C379.81,-112.5 401.97,-99.05 419.5,-85 439.83,-68.7 460.64,-47.08 474.01,-32.41"/>
<polygon fill="#63b8ff" stroke="#63b8ff" points="476.89,-34.45 480.97,-24.68 471.68,-29.77 476.89,-34.45"/>
</a>
</g>
</g>
<!-- Node10&#45;&gt;Node5 -->
<g id="edge13_Node000010_Node000005" class="edge">
<title>Node10&#45;&gt;Node5</title>
<g id="a_edge13_Node000010_Node000005"><a xlink:title=" ">
<path fill="none" stroke="#63b8ff" d="M380.03,-120.98C412.2,-112.01 463.06,-97.82 498.67,-87.89"/>
<polygon fill="#63b8ff" stroke="#63b8ff" points="500.04,-91.14 508.73,-85.08 498.16,-84.4 500.04,-91.14"/>
</a>
</g>
</g>
<!-- Node10&#45;&gt;Node11 -->
<g id="edge14_Node000010_Node000011" class="edge">
<title>Node10&#45;&gt;Node11</title>
<g id="a_edge14_Node000010_Node000011"><a xlink:title=" ">
<path fill="none" stroke="#63b8ff" d="M406.12,-122.15C459.23,-114.83 541.01,-102.45 621.16,-84.84"/>
<polygon fill="#63b8ff" stroke="#63b8ff" points="621.92,-88.25 630.92,-82.66 620.4,-81.42 621.92,-88.25"/>
</a>
</g>
</g>
<!-- Node10&#45;&gt;Node12 -->
<g id="edge15_Node000010_Node000012" class="edge">
<title>Node10&#45;&gt;Node12</title>
<g id="a_edge15_Node000010_Node000012"><a xlink:title=" ">
<path fill="none" stroke="#63b8ff" d="M332.63,-120.98C315.89,-112.54 290,-99.47 270.61,-89.68"/>
<polygon fill="#63b8ff" stroke="#63b8ff" points="272.18,-86.55 261.68,-85.17 269.03,-92.8 272.18,-86.55"/>
</a>
</g>
</g>
<!-- Node10&#45;&gt;Node13 -->
<g id="edge16_Node000010_Node000013" class="edge">
<title>Node10&#45;&gt;Node13</title>
<g id="a_edge16_Node000010_Node000013"><a xlink:title=" ">
<path fill="none" stroke="#63b8ff" d="M345.04,-120.75C341.38,-113.57 336.09,-103.18 331.55,-94.27"/>
<polygon fill="#63b8ff" stroke="#63b8ff" points="334.53,-92.41 326.88,-85.09 328.3,-95.59 334.53,-92.41"/>
</a>
</g>
</g>
<!-- Node14 -->
<g id="Node000014" class="node">
<title>Node14</title>
<g id="a_Node000014"><a xlink:title=" ">
<polygon fill="#e0e0e0" stroke="#999999" points="410.5,-85 372.5,-85 372.5,-66 410.5,-66 410.5,-85"/>
<text text-anchor="middle" x="391.5" y="-73" font-family="Helvetica,sans-Serif" font-size="10.00">map</text>
</a>
</g>
</g>
<!-- Node10&#45;&gt;Node14 -->
<g id="edge18_Node000010_Node000014" class="edge">
<title>Node10&#45;&gt;Node14</title>
<g id="a_edge18_Node000010_Node000014"><a xlink:title=" ">
<path fill="none" stroke="#63b8ff" d="M356.44,-120.75C362.37,-113.26 371.07,-102.28 378.32,-93.13"/>
<polygon fill="#63b8ff" stroke="#63b8ff" points="381.23,-95.1 384.69,-85.09 375.74,-90.75 381.23,-95.1"/>
</a>
</g>
</g>
<!-- Node19&#45;&gt;Node7 -->
<g id="edge33_Node000019_Node000007" class="edge">
<title>Node19&#45;&gt;Node7</title>
<g id="a_edge33_Node000019_Node000007"><a xlink:title=" ">
<path fill="none" stroke="#63b8ff" d="M836.03,-230.96C850.37,-219.22 871.98,-197.13 863.5,-176 836.85,-109.57 768.01,-55.13 732.47,-30.38"/>
<polygon fill="#63b8ff" stroke="#63b8ff" points="734.43,-27.48 724.19,-24.74 730.48,-33.26 734.43,-27.48"/>
</a>
</g>
</g>
<!-- Node20 -->
<g id="Node000020" class="node">
<title>Node20</title>
<g id="a_Node000020"><a xlink:title=" ">
<polygon fill="#e0e0e0" stroke="#999999" points="962.5,-195 910.5,-195 910.5,-176 962.5,-176 962.5,-195"/>
<text text-anchor="middle" x="936.5" y="-183" font-family="Helvetica,sans-Serif" font-size="10.00">QEvent</text>
</a>
</g>
</g>
<!-- Node19&#45;&gt;Node20 -->
<g id="edge29_Node000019_Node000020" class="edge">
<title>Node19&#45;&gt;Node20</title>
<g id="a_edge29_Node000019_Node000020"><a xlink:title=" ">
<path fill="none" stroke="#63b8ff" d="M842.49,-230.98C860.43,-222.5 888.22,-209.35 908.93,-199.54"/>
<polygon fill="#63b8ff" stroke="#63b8ff" points="910.64,-202.61 918.18,-195.17 907.64,-196.28 910.64,-202.61"/>
</a>
</g>
</g>
<!-- Node21 -->
<g id="Node000021" class="node">
<title>Node21</title>
<g id="a_Node000021"><a xlink:title=" ">
<polygon fill="#e0e0e0" stroke="#999999" points="1050.5,-195 980.5,-195 980.5,-176 1050.5,-176 1050.5,-195"/>
<text text-anchor="middle" x="1015.5" y="-183" font-family="Helvetica,sans-Serif" font-size="10.00">QKeyEvent</text>
</a>
</g>
</g>
<!-- Node19&#45;&gt;Node21 -->
<g id="edge30_Node000019_Node000021" class="edge">
<title>Node19&#45;&gt;Node21</title>
<g id="a_edge30_Node000019_Node000021"><a xlink:title=" ">
<path fill="none" stroke="#63b8ff" d="M855.19,-230.98C887.67,-221.97 939.1,-207.7 974.91,-197.76"/>
<polygon fill="#63b8ff" stroke="#63b8ff" points="975.87,-201.13 984.57,-195.08 974,-194.38 975.87,-201.13"/>
</a>
</g>
</g>
<!-- Node22 -->
<g id="Node000022" class="node">
<title>Node22</title>
<g id="a_Node000022"><a xlink:title=" ">
<polygon fill="#e0e0e0" stroke="#999999" points="1132,-195 1069,-195 1069,-176 1132,-176 1132,-195"/>
<text text-anchor="middle" x="1100.5" y="-183" font-family="Helvetica,sans-Serif" font-size="10.00">QLineEdit</text>
</a>
</g>
</g>
<!-- Node19&#45;&gt;Node22 -->
<g id="edge31_Node000019_Node000022" class="edge">
<title>Node19&#45;&gt;Node22</title>
<g id="a_edge31_Node000019_Node000022"><a xlink:title=" ">
<path fill="none" stroke="#63b8ff" d="M870.92,-230.95C916.22,-222.56 987.38,-209.23 1058.67,-195.14"/>
<polygon fill="#63b8ff" stroke="#63b8ff" points="1059.6,-198.52 1068.73,-193.14 1058.24,-191.65 1059.6,-198.52"/>
</a>
</g>
</g>
<!-- Node23 -->
<g id="Node000023" class="node">
<title>Node23</title>
<g id="a_Node000023"><a xlink:title=" ">
<polygon fill="#e0e0e0" stroke="#999999" points="854.5,-195 770.5,-195 770.5,-176 854.5,-176 854.5,-195"/>
<text text-anchor="middle" x="812.5" y="-183" font-family="Helvetica,sans-Serif" font-size="10.00">QMouseEvent</text>
</a>
</g>
</g>
<!-- Node19&#45;&gt;Node23 -->
<g id="edge32_Node000019_Node000023" class="edge">
<title>Node19&#45;&gt;Node23</title>
<g id="a_edge32_Node000019_Node000023"><a xlink:title=" ">
<path fill="none" stroke="#63b8ff" d="M822.52,-230.75C820.93,-223.72 818.64,-213.62 816.65,-204.84"/>
<polygon fill="#63b8ff" stroke="#63b8ff" points="820.07,-204.07 814.44,-195.09 813.24,-205.62 820.07,-204.07"/>
</a>
</g>
</g>
</g>
</svg>
