<?xml version="1.0" encoding="UTF-8" standalone="no"?>
<!DOCTYPE svg PUBLIC "-//W3C//DTD SVG 1.1//EN"
 "http://www.w3.org/Graphics/SVG/1.1/DTD/svg11.dtd">
<!-- Generated by graphviz version 2.43.0 (0)
 -->
<!-- Title: src/ui/preferences.cpp Pages: 1 -->
<svg width="1085pt" height="148pt"
 viewBox="0.00 0.00 1084.50 148.00" xmlns="http://www.w3.org/2000/svg" xmlns:xlink="http://www.w3.org/1999/xlink">
<g id="graph0" class="graph" transform="scale(1 1) rotate(0) translate(4 144)">
<title>src/ui/preferences.cpp</title>
<!-- Node1 -->
<g id="Node000001" class="node">
<title>Node1</title>
<g id="a_Node000001"><a xlink:title=" ">
<polygon fill="#999999" stroke="#666666" points="753.5,-140 629.5,-140 629.5,-121 753.5,-121 753.5,-140"/>
<text text-anchor="middle" x="691.5" y="-128" font-family="Helvetica,sans-Serif" font-size="10.00">src/ui/preferences.cpp</text>
</a>
</g>
</g>
<!-- Node2 -->
<g id="Node000002" class="node">
<title>Node2</title>
<g id="a_Node000002"><a xlink:href="preferences_8hpp.html" target="_top" xlink:title=" ">
<polygon fill="white" stroke="#666666" points="181,-85 86,-85 86,-66 181,-66 181,-85"/>
<text text-anchor="middle" x="133.5" y="-73" font-family="Helvetica,sans-Serif" font-size="10.00">preferences.hpp</text>
</a>
</g>
</g>
<!-- Node1&#45;&gt;Node2 -->
<g id="edge1_Node000001_Node000002" class="edge">
<title>Node1&#45;&gt;Node2</title>
<g id="a_edge1_Node000001_Node000002"><a xlink:title=" ">
<path fill="none" stroke="#63b8ff" d="M629.29,-124.63C535.86,-117.15 353.81,-101.91 199.5,-85 196.79,-84.7 194.03,-84.39 191.23,-84.06"/>
<polygon fill="#63b8ff" stroke="#63b8ff" points="191.41,-80.56 181.06,-82.84 190.57,-87.51 191.41,-80.56"/>
</a>
</g>
</g>
<!-- Node6 -->
<g id="Node000006" class="node">
<title>Node6</title>
<g id="a_Node000006"><a xlink:href="settings_8hpp.html" target="_top" xlink:title=" ">
<polygon fill="white" stroke="#666666" points="294.5,-85 208.5,-85 208.5,-66 294.5,-66 294.5,-85"/>
<text text-anchor="middle" x="251.5" y="-73" font-family="Helvetica,sans-Serif" font-size="10.00">../settings.hpp</text>
</a>
</g>
</g>
<!-- Node1&#45;&gt;Node6 -->
<g id="edge5_Node000001_Node000006" class="edge">
<title>Node1&#45;&gt;Node6</title>
<g id="a_edge5_Node000001_Node000006"><a xlink:title=" ">
<path fill="none" stroke="#63b8ff" d="M629.43,-122.36C555.04,-113.76 426.61,-98.73 316.5,-85 312.78,-84.54 308.94,-84.05 305.08,-83.56"/>
<polygon fill="#63b8ff" stroke="#63b8ff" points="305.21,-80.05 294.85,-82.24 304.32,-86.99 305.21,-80.05"/>
</a>
</g>
</g>
<!-- Node9 -->
<g id="Node000009" class="node">
<title>Node9</title>
<g id="a_Node000009"><a xlink:href="settings__key__variables_8hpp.html" target="_top" xlink:title=" ">
<polygon fill="white" stroke="#666666" points="483.5,-85 325.5,-85 325.5,-66 483.5,-66 483.5,-85"/>
<text text-anchor="middle" x="404.5" y="-73" font-family="Helvetica,sans-Serif" font-size="10.00">../settings_key_variables.hpp</text>
</a>
</g>
</g>
<!-- Node1&#45;&gt;Node9 -->
<g id="edge9_Node000001_Node000009" class="edge">
<title>Node1&#45;&gt;Node9</title>
<g id="a_edge9_Node000001_Node000009"><a xlink:title=" ">
<path fill="none" stroke="#63b8ff" d="M645.39,-120.98C595.22,-111.72 514.99,-96.9 461.06,-86.94"/>
<polygon fill="#63b8ff" stroke="#63b8ff" points="461.44,-83.46 450.97,-85.08 460.17,-90.34 461.44,-83.46"/>
</a>
</g>
</g>
<!-- Node13 -->
<g id="Node000013" class="node">
<title>Node13</title>
<g id="a_Node000013"><a xlink:title=" ">
<polygon fill="#e0e0e0" stroke="#999999" points="599.5,-85 501.5,-85 501.5,-66 599.5,-66 599.5,-85"/>
<text text-anchor="middle" x="550.5" y="-73" font-family="Helvetica,sans-Serif" font-size="10.00">ui_preferences.h</text>
</a>
</g>
</g>
<!-- Node1&#45;&gt;Node13 -->
<g id="edge14_Node000001_Node000013" class="edge">
<title>Node1&#45;&gt;Node13</title>
<g id="a_edge14_Node000001_Node000013"><a xlink:title=" ">
<path fill="none" stroke="#63b8ff" d="M668.85,-120.98C645.65,-112.27 609.38,-98.63 583.1,-88.75"/>
<polygon fill="#63b8ff" stroke="#63b8ff" points="584.16,-85.41 573.57,-85.17 581.7,-91.97 584.16,-85.41"/>
</a>
</g>
</g>
<!-- Node14 -->
<g id="Node000014" class="node">
<title>Node14</title>
<g id="a_Node000014"><a xlink:title=" ">
<polygon fill="#e0e0e0" stroke="#999999" points="681,-85 618,-85 618,-66 681,-66 681,-85"/>
<text text-anchor="middle" x="649.5" y="-73" font-family="Helvetica,sans-Serif" font-size="10.00">winuser.h</text>
</a>
</g>
</g>
<!-- Node1&#45;&gt;Node14 -->
<g id="edge15_Node000001_Node000014" class="edge">
<title>Node1&#45;&gt;Node14</title>
<g id="a_edge15_Node000001_Node000014"><a xlink:title=" ">
<path fill="none" stroke="#63b8ff" d="M684.56,-120.75C678.63,-113.26 669.93,-102.28 662.68,-93.13"/>
<polygon fill="#63b8ff" stroke="#63b8ff" points="665.26,-90.75 656.31,-85.09 659.77,-95.1 665.26,-90.75"/>
</a>
</g>
</g>
<!-- Node15 -->
<g id="Node000015" class="node">
<title>Node15</title>
<g id="a_Node000015"><a xlink:title=" ">
<polygon fill="#e0e0e0" stroke="#999999" points="769.5,-85 699.5,-85 699.5,-66 769.5,-66 769.5,-85"/>
<text text-anchor="middle" x="734.5" y="-73" font-family="Helvetica,sans-Serif" font-size="10.00">QKeyEvent</text>
</a>
</g>
</g>
<!-- Node1&#45;&gt;Node15 -->
<g id="edge16_Node000001_Node000015" class="edge">
<title>Node1&#45;&gt;Node15</title>
<g id="a_edge16_Node000001_Node000015"><a xlink:title=" ">
<path fill="none" stroke="#63b8ff" d="M698.6,-120.75C704.67,-113.26 713.59,-102.28 721.01,-93.13"/>
<polygon fill="#63b8ff" stroke="#63b8ff" points="723.95,-95.06 727.53,-85.09 718.51,-90.65 723.95,-95.06"/>
</a>
</g>
</g>
<!-- Node16 -->
<g id="Node000016" class="node">
<title>Node16</title>
<g id="a_Node000016"><a xlink:title=" ">
<polygon fill="#e0e0e0" stroke="#999999" points="845,-85 788,-85 788,-66 845,-66 845,-85"/>
<text text-anchor="middle" x="816.5" y="-73" font-family="Helvetica,sans-Serif" font-size="10.00">QLayout</text>
</a>
</g>
</g>
<!-- Node1&#45;&gt;Node16 -->
<g id="edge17_Node000001_Node000016" class="edge">
<title>Node1&#45;&gt;Node16</title>
<g id="a_edge17_Node000001_Node000016"><a xlink:title=" ">
<path fill="none" stroke="#63b8ff" d="M711.58,-120.98C731.87,-112.38 763.46,-98.99 786.67,-89.15"/>
<polygon fill="#63b8ff" stroke="#63b8ff" points="788.21,-92.3 796.05,-85.17 785.48,-85.85 788.21,-92.3"/>
</a>
</g>
</g>
<!-- Node17 -->
<g id="Node000017" class="node">
<title>Node17</title>
<g id="a_Node000017"><a xlink:title=" ">
<polygon fill="#e0e0e0" stroke="#999999" points="926,-85 863,-85 863,-66 926,-66 926,-85"/>
<text text-anchor="middle" x="894.5" y="-73" font-family="Helvetica,sans-Serif" font-size="10.00">QLineEdit</text>
</a>
</g>
</g>
<!-- Node1&#45;&gt;Node17 -->
<g id="edge18_Node000001_Node000017" class="edge">
<title>Node1&#45;&gt;Node17</title>
<g id="a_edge18_Node000001_Node000017"><a xlink:title=" ">
<path fill="none" stroke="#63b8ff" d="M724.12,-120.98C759.2,-111.82 815.07,-97.24 853.2,-87.28"/>
<polygon fill="#63b8ff" stroke="#63b8ff" points="854.18,-90.65 862.97,-84.73 852.41,-83.87 854.18,-90.65"/>
</a>
</g>
</g>
<!-- Node18 -->
<g id="Node000018" class="node">
<title>Node18</title>
<g id="a_Node000018"><a xlink:title=" ">
<polygon fill="#e0e0e0" stroke="#999999" points="1006.5,-85 944.5,-85 944.5,-66 1006.5,-66 1006.5,-85"/>
<text text-anchor="middle" x="975.5" y="-73" font-family="Helvetica,sans-Serif" font-size="10.00">QProcess</text>
</a>
</g>
</g>
<!-- Node1&#45;&gt;Node18 -->
<g id="edge19_Node000001_Node000018" class="edge">
<title>Node1&#45;&gt;Node18</title>
<g id="a_edge19_Node000001_Node000018"><a xlink:title=" ">
<path fill="none" stroke="#63b8ff" d="M740.65,-120.97C787.77,-112.69 861.16,-99.55 933.83,-85.29"/>
<polygon fill="#63b8ff" stroke="#63b8ff" points="934.94,-88.64 944.07,-83.27 933.59,-81.77 934.94,-88.64"/>
</a>
</g>
</g>
<!-- Node19 -->
<g id="Node000019" class="node">
<title>Node19</title>
<g id="a_Node000019"><a xlink:title=" ">
<polygon fill="#e0e0e0" stroke="#999999" points="1076.5,-85 1024.5,-85 1024.5,-66 1076.5,-66 1076.5,-85"/>
<text text-anchor="middle" x="1050.5" y="-73" font-family="Helvetica,sans-Serif" font-size="10.00">QSlider</text>
</a>
</g>
</g>
<!-- Node1&#45;&gt;Node19 -->
<g id="edge20_Node000001_Node000019" class="edge">
<title>Node1&#45;&gt;Node19</title>
<g id="a_edge20_Node000001_Node000019"><a xlink:title=" ">
<path fill="none" stroke="#63b8ff" d="M753.62,-122.87C816.89,-115.69 918,-103.04 1014.29,-85.06"/>
<polygon fill="#63b8ff" stroke="#63b8ff" points="1015.01,-88.49 1024.19,-83.19 1013.71,-81.61 1015.01,-88.49"/>
</a>
</g>
</g>
<!-- Node3 -->
<g id="Node000003" class="node">
<title>Node3</title>
<g id="a_Node000003"><a xlink:title=" ">
<polygon fill="#e0e0e0" stroke="#999999" points="59,-24.5 0,-24.5 0,-5.5 59,-5.5 59,-24.5"/>
<text text-anchor="middle" x="29.5" y="-12.5" font-family="Helvetica,sans-Serif" font-size="10.00">QWidget</text>
</a>
</g>
</g>
<!-- Node2&#45;&gt;Node3 -->
<g id="edge2_Node000002_Node000003" class="edge">
<title>Node2&#45;&gt;Node3</title>
<g id="a_edge2_Node000002_Node000003"><a xlink:title=" ">
<path fill="none" stroke="#63b8ff" d="M118.15,-65.87C101.18,-56.32 73.6,-40.81 53.71,-29.62"/>
<polygon fill="#63b8ff" stroke="#63b8ff" points="55.34,-26.52 44.91,-24.67 51.91,-32.62 55.34,-26.52"/>
</a>
</g>
</g>
<!-- Node4 -->
<g id="Node000004" class="node">
<title>Node4</title>
<g id="a_Node000004"><a xlink:title=" ">
<polygon fill="#e0e0e0" stroke="#999999" points="154,-24.5 77,-24.5 77,-5.5 154,-5.5 154,-24.5"/>
<text text-anchor="middle" x="115.5" y="-12.5" font-family="Helvetica,sans-Serif" font-size="10.00">minwindef.h</text>
</a>
</g>
</g>
<!-- Node2&#45;&gt;Node4 -->
<g id="edge3_Node000002_Node000004" class="edge">
<title>Node2&#45;&gt;Node4</title>
<g id="a_edge3_Node000002_Node000004"><a xlink:title=" ">
<path fill="none" stroke="#63b8ff" d="M130.84,-65.87C128.32,-57.66 124.44,-45.04 121.21,-34.55"/>
<polygon fill="#63b8ff" stroke="#63b8ff" points="124.45,-33.2 118.17,-24.67 117.76,-35.25 124.45,-33.2"/>
</a>
</g>
</g>
<!-- Node5 -->
<g id="Node000005" class="node">
<title>Node5</title>
<g id="a_Node000005"><a xlink:title=" ">
<polygon fill="#e0e0e0" stroke="#999999" points="378.5,-24.5 310.5,-24.5 310.5,-5.5 378.5,-5.5 378.5,-24.5"/>
<text text-anchor="middle" x="344.5" y="-12.5" font-family="Helvetica,sans-Serif" font-size="10.00">windows.h</text>
</a>
</g>
</g>
<!-- Node2&#45;&gt;Node5 -->
<g id="edge4_Node000002_Node000005" class="edge">
<title>Node2&#45;&gt;Node5</title>
<g id="a_edge4_Node000002_Node000005"><a xlink:title=" ">
<path fill="none" stroke="#63b8ff" d="M168.08,-65.94C202.16,-57.36 255.63,-43.53 301.5,-30 304.09,-29.24 306.77,-28.42 309.45,-27.59"/>
<polygon fill="#63b8ff" stroke="#63b8ff" points="310.63,-30.89 319.11,-24.53 308.52,-24.21 310.63,-30.89"/>
</a>
</g>
</g>
<!-- Node6&#45;&gt;Node4 -->
<g id="edge8_Node000006_Node000004" class="edge">
<title>Node6&#45;&gt;Node4</title>
<g id="a_edge8_Node000006_Node000004"><a xlink:title=" ">
<path fill="none" stroke="#63b8ff" d="M231.72,-65.99C208.86,-56.16 171.01,-39.88 144.74,-28.58"/>
<polygon fill="#63b8ff" stroke="#63b8ff" points="145.87,-25.25 135.3,-24.52 143.1,-31.68 145.87,-25.25"/>
</a>
</g>
</g>
<!-- Node7 -->
<g id="Node000007" class="node">
<title>Node7</title>
<g id="a_Node000007"><a xlink:title=" ">
<polygon fill="#e0e0e0" stroke="#999999" points="210.5,-24.5 172.5,-24.5 172.5,-5.5 210.5,-5.5 210.5,-24.5"/>
<text text-anchor="middle" x="191.5" y="-12.5" font-family="Helvetica,sans-Serif" font-size="10.00">QDir</text>
</a>
</g>
</g>
<!-- Node6&#45;&gt;Node7 -->
<g id="edge6_Node000006_Node000007" class="edge">
<title>Node6&#45;&gt;Node7</title>
<g id="a_edge6_Node000006_Node000007"><a xlink:title=" ">
<path fill="none" stroke="#63b8ff" d="M242.65,-65.87C233.52,-56.97 219.08,-42.89 207.86,-31.95"/>
<polygon fill="#63b8ff" stroke="#63b8ff" points="209.99,-29.14 200.39,-24.67 205.11,-34.15 209.99,-29.14"/>
</a>
</g>
</g>
<!-- Node8 -->
<g id="Node000008" class="node">
<title>Node8</title>
<g id="a_Node000008"><a xlink:title=" ">
<polygon fill="#e0e0e0" stroke="#999999" points="292.5,-24.5 228.5,-24.5 228.5,-5.5 292.5,-5.5 292.5,-24.5"/>
<text text-anchor="middle" x="260.5" y="-12.5" font-family="Helvetica,sans-Serif" font-size="10.00">QSettings</text>
</a>
</g>
</g>
<!-- Node6&#45;&gt;Node8 -->
<g id="edge7_Node000006_Node000008" class="edge">
<title>Node6&#45;&gt;Node8</title>
<g id="a_edge7_Node000006_Node000008"><a xlink:title=" ">
<path fill="none" stroke="#63b8ff" d="M252.83,-65.87C254.09,-57.66 256.03,-45.04 257.65,-34.55"/>
<polygon fill="#63b8ff" stroke="#63b8ff" points="261.11,-35.08 259.17,-24.67 254.19,-34.02 261.11,-35.08"/>
</a>
</g>
</g>
<!-- Node9&#45;&gt;Node5 -->
<g id="edge11_Node000009_Node000005" class="edge">
<title>Node9&#45;&gt;Node5</title>
<g id="a_edge11_Node000009_Node000005"><a xlink:title=" ">
<path fill="none" stroke="#63b8ff" d="M395.65,-65.87C386.52,-56.97 372.08,-42.89 360.86,-31.95"/>
<polygon fill="#63b8ff" stroke="#63b8ff" points="362.99,-29.14 353.39,-24.67 358.11,-34.15 362.99,-29.14"/>
</a>
</g>
</g>
<!-- Node10 -->
<g id="Node000010" class="node">
<title>Node10</title>
<g id="a_Node000010"><a xlink:title=" ">
<polygon fill="#e0e0e0" stroke="#999999" points="438,-24.5 397,-24.5 397,-5.5 438,-5.5 438,-24.5"/>
<text text-anchor="middle" x="417.5" y="-12.5" font-family="Helvetica,sans-Serif" font-size="10.00">QList</text>
</a>
</g>
</g>
<!-- Node9&#45;&gt;Node10 -->
<g id="edge10_Node000009_Node000010" class="edge">
<title>Node9&#45;&gt;Node10</title>
<g id="a_edge10_Node000009_Node000010"><a xlink:title=" ">
<path fill="none" stroke="#63b8ff" d="M406.42,-65.87C408.24,-57.66 411.05,-45.04 413.38,-34.55"/>
<polygon fill="#63b8ff" stroke="#63b8ff" points="416.82,-35.19 415.57,-24.67 409.99,-33.67 416.82,-35.19"/>
</a>
</g>
</g>
<!-- Node11 -->
<g id="Node000011" class="node">
<title>Node11</title>
<g id="a_Node000011"><a xlink:href="GameButtons_8h.html" target="_top" xlink:title=" ">
<polygon fill="white" stroke="#666666" points="583,-30 456,-30 456,0 583,0 583,-30"/>
<text text-anchor="start" x="464" y="-18" font-family="Helvetica,sans-Serif" font-size="10.00">../VGP_Data_Exchange</text>
<text text-anchor="middle" x="519.5" y="-7" font-family="Helvetica,sans-Serif" font-size="10.00">/C/GameButtons.h</text>
</a>
</g>
</g>
<!-- Node9&#45;&gt;Node11 -->
<g id="edge12_Node000009_Node000011" class="edge">
<title>Node9&#45;&gt;Node11</title>
<g id="a_edge12_Node000009_Node000011"><a xlink:title=" ">
<path fill="none" stroke="#63b8ff" d="M421.47,-65.87C437.51,-57.71 462.1,-45.2 482.65,-34.75"/>
<polygon fill="#63b8ff" stroke="#63b8ff" points="484.43,-37.77 491.75,-30.11 481.25,-31.53 484.43,-37.77"/>
</a>
</g>
</g>
<!-- Node12 -->
<g id="Node000012" class="node">
<title>Node12</title>
<g id="a_Node000012"><a xlink:title=" ">
<polygon fill="#e0e0e0" stroke="#999999" points="639.5,-24.5 601.5,-24.5 601.5,-5.5 639.5,-5.5 639.5,-24.5"/>
<text text-anchor="middle" x="620.5" y="-12.5" font-family="Helvetica,sans-Serif" font-size="10.00">map</text>
</a>
</g>
</g>
<!-- Node9&#45;&gt;Node12 -->
<g id="edge13_Node000009_Node000012" class="edge">
<title>Node9&#45;&gt;Node12</title>
<g id="a_edge13_Node000009_Node000012"><a xlink:title=" ">
<path fill="none" stroke="#63b8ff" d="M454.5,-65.94C492.91,-58.58 546.94,-46.53 592.5,-30 593.55,-29.62 594.61,-29.21 595.67,-28.78"/>
<polygon fill="#63b8ff" stroke="#63b8ff" points="597.43,-31.83 605.08,-24.5 594.53,-25.45 597.43,-31.83"/>
</a>
</g>
</g>
</g>
</svg>
