<?xml version="1.0" encoding="UTF-8" standalone="no"?>
<!DOCTYPE svg PUBLIC "-//W3C//DTD SVG 1.1//EN"
 "http://www.w3.org/Graphics/SVG/1.1/DTD/svg11.dtd">
<!-- Generated by graphviz version 2.43.0 (0)
 -->
<!-- Title: src/ui/preferences.cpp Pages: 1 -->
<svg width="2013pt" height="324pt"
 viewBox="0.00 0.00 2012.50 324.00" xmlns="http://www.w3.org/2000/svg" xmlns:xlink="http://www.w3.org/1999/xlink">
<g id="graph0" class="graph" transform="scale(1 1) rotate(0) translate(4 320)">
<title>src/ui/preferences.cpp</title>
<!-- Node1 -->
<g id="Node000001" class="node">
<title>Node1</title>
<g id="a_Node000001"><a xlink:title=" ">
<polygon fill="#999999" stroke="#666666" points="1477.5,-316 1353.5,-316 1353.5,-297 1477.5,-297 1477.5,-316"/>
<text text-anchor="middle" x="1415.5" y="-304" font-family="Helvetica,sans-Serif" font-size="10.00">src/ui/preferences.cpp</text>
</a>
</g>
</g>
<!-- Node2 -->
<g id="Node000002" class="node">
<title>Node2</title>
<g id="a_Node000002"><a xlink:href="preferences_8hpp.html" target="_top" xlink:title=" ">
<polygon fill="white" stroke="#666666" points="676,-261 581,-261 581,-242 676,-242 676,-261"/>
<text text-anchor="middle" x="628.5" y="-249" font-family="Helvetica,sans-Serif" font-size="10.00">preferences.hpp</text>
</a>
</g>
</g>
<!-- Node1&#45;&gt;Node2 -->
<g id="edge1_Node000001_Node000002" class="edge">
<title>Node1&#45;&gt;Node2</title>
<g id="a_edge1_Node000001_Node000002"><a xlink:title=" ">
<path fill="none" stroke="#63b8ff" d="M1353.42,-301.32C1204.87,-291.32 830.63,-266.11 686.41,-256.4"/>
<polygon fill="#63b8ff" stroke="#63b8ff" points="686.24,-252.88 676.02,-255.7 685.77,-259.86 686.24,-252.88"/>
</a>
</g>
</g>
<!-- Node7 -->
<g id="Node000007" class="node">
<title>Node7</title>
<g id="a_Node000007"><a xlink:href="settings__singleton_8hpp.html" target="_top" xlink:title=" ">
<polygon fill="white" stroke="#666666" points="888,-206 781,-206 781,-176 888,-176 888,-206"/>
<text text-anchor="start" x="789" y="-194" font-family="Helvetica,sans-Serif" font-size="10.00">../settings/settings</text>
<text text-anchor="middle" x="834.5" y="-183" font-family="Helvetica,sans-Serif" font-size="10.00">_singleton.hpp</text>
</a>
</g>
</g>
<!-- Node1&#45;&gt;Node7 -->
<g id="edge39_Node000001_Node000007" class="edge">
<title>Node1&#45;&gt;Node7</title>
<g id="a_edge39_Node000001_Node000007"><a xlink:title=" ">
<path fill="none" stroke="#63b8ff" d="M1353.47,-304.18C1272,-301.24 1125.04,-291.72 1003.5,-261 956.38,-249.09 905.06,-226.69 871.49,-210.64"/>
<polygon fill="#63b8ff" stroke="#63b8ff" points="872.62,-207.29 862.09,-206.09 869.57,-213.59 872.62,-207.29"/>
</a>
</g>
</g>
<!-- Node9 -->
<g id="Node000009" class="node">
<title>Node9</title>
<g id="a_Node000009"><a xlink:title=" ">
<polygon fill="#e0e0e0" stroke="#999999" points="1205,-85 1164,-85 1164,-66 1205,-66 1205,-85"/>
<text text-anchor="middle" x="1184.5" y="-73" font-family="Helvetica,sans-Serif" font-size="10.00">QFile</text>
</a>
</g>
</g>
<!-- Node1&#45;&gt;Node9 -->
<g id="edge45_Node000001_Node000009" class="edge">
<title>Node1&#45;&gt;Node9</title>
<g id="a_edge45_Node000001_Node000009"><a xlink:title=" ">
<path fill="none" stroke="#63b8ff" d="M1353.32,-298.02C1305.32,-290.97 1244.19,-278.82 1226.5,-261 1203.29,-237.61 1190.66,-137.58 1186.29,-95.39"/>
<polygon fill="#63b8ff" stroke="#63b8ff" points="1189.76,-94.95 1185.29,-85.35 1182.8,-95.65 1189.76,-94.95"/>
</a>
</g>
</g>
<!-- Node14 -->
<g id="Node000014" class="node">
<title>Node14</title>
<g id="a_Node000014"><a xlink:title=" ">
<polygon fill="#e0e0e0" stroke="#999999" points="1178.5,-140 1140.5,-140 1140.5,-121 1178.5,-121 1178.5,-140"/>
<text text-anchor="middle" x="1159.5" y="-128" font-family="Helvetica,sans-Serif" font-size="10.00">QDir</text>
</a>
</g>
</g>
<!-- Node1&#45;&gt;Node14 -->
<g id="edge44_Node000001_Node000014" class="edge">
<title>Node1&#45;&gt;Node14</title>
<g id="a_edge44_Node000001_Node000014"><a xlink:title=" ">
<path fill="none" stroke="#63b8ff" d="M1353.25,-300.45C1295.52,-294.5 1215.23,-282.57 1192.5,-261 1161.88,-231.95 1158.11,-178.78 1158.5,-150.45"/>
<polygon fill="#63b8ff" stroke="#63b8ff" points="1162,-150.39 1158.83,-140.28 1155.01,-150.16 1162,-150.39"/>
</a>
</g>
</g>
<!-- Node25 -->
<g id="Node000025" class="node">
<title>Node25</title>
<g id="a_Node000025"><a xlink:href="settings_8hpp.html" target="_top" xlink:title=" ">
<polygon fill="white" stroke="#666666" points="1140.5,-261 1012.5,-261 1012.5,-242 1140.5,-242 1140.5,-261"/>
<text text-anchor="middle" x="1076.5" y="-249" font-family="Helvetica,sans-Serif" font-size="10.00">../settings/settings.hpp</text>
</a>
</g>
</g>
<!-- Node1&#45;&gt;Node25 -->
<g id="edge36_Node000001_Node000025" class="edge">
<title>Node1&#45;&gt;Node25</title>
<g id="a_edge36_Node000001_Node000025"><a xlink:title=" ">
<path fill="none" stroke="#63b8ff" d="M1361.03,-296.98C1301.07,-287.61 1204.75,-272.55 1141.05,-262.59"/>
<polygon fill="#63b8ff" stroke="#63b8ff" points="1141.53,-259.12 1131.11,-261.04 1140.45,-266.04 1141.53,-259.12"/>
</a>
</g>
</g>
<!-- Node26 -->
<g id="Node000026" class="node">
<title>Node26</title>
<g id="a_Node000026"><a xlink:title=" ">
<polygon fill="#e0e0e0" stroke="#999999" points="1348,-261 1235,-261 1235,-242 1348,-242 1348,-261"/>
<text text-anchor="middle" x="1291.5" y="-249" font-family="Helvetica,sans-Serif" font-size="10.00">ButtonInputBox.hpp</text>
</a>
</g>
</g>
<!-- Node1&#45;&gt;Node26 -->
<g id="edge40_Node000001_Node000026" class="edge">
<title>Node1&#45;&gt;Node26</title>
<g id="a_edge40_Node000001_Node000026"><a xlink:title=" ">
<path fill="none" stroke="#63b8ff" d="M1395.58,-296.98C1375.45,-288.38 1344.12,-274.99 1321.09,-265.15"/>
<polygon fill="#63b8ff" stroke="#63b8ff" points="1322.36,-261.88 1311.79,-261.17 1319.6,-268.32 1322.36,-261.88"/>
</a>
</g>
</g>
<!-- Node27 -->
<g id="Node000027" class="node">
<title>Node27</title>
<g id="a_Node000027"><a xlink:title=" ">
<polygon fill="#e0e0e0" stroke="#999999" points="1464.5,-261 1366.5,-261 1366.5,-242 1464.5,-242 1464.5,-261"/>
<text text-anchor="middle" x="1415.5" y="-249" font-family="Helvetica,sans-Serif" font-size="10.00">ui_preferences.h</text>
</a>
</g>
</g>
<!-- Node1&#45;&gt;Node27 -->
<g id="edge41_Node000001_Node000027" class="edge">
<title>Node1&#45;&gt;Node27</title>
<g id="a_edge41_Node000001_Node000027"><a xlink:title=" ">
<path fill="none" stroke="#63b8ff" d="M1415.5,-296.75C1415.5,-289.8 1415.5,-279.85 1415.5,-271.13"/>
<polygon fill="#63b8ff" stroke="#63b8ff" points="1419,-271.09 1415.5,-261.09 1412,-271.09 1419,-271.09"/>
</a>
</g>
</g>
<!-- Node28 -->
<g id="Node000028" class="node">
<title>Node28</title>
<g id="a_Node000028"><a xlink:title=" ">
<polygon fill="#e0e0e0" stroke="#999999" points="1546,-261 1483,-261 1483,-242 1546,-242 1546,-261"/>
<text text-anchor="middle" x="1514.5" y="-249" font-family="Helvetica,sans-Serif" font-size="10.00">winuser.h</text>
</a>
</g>
</g>
<!-- Node1&#45;&gt;Node28 -->
<g id="edge42_Node000001_Node000028" class="edge">
<title>Node1&#45;&gt;Node28</title>
<g id="a_edge42_Node000001_Node000028"><a xlink:title=" ">
<path fill="none" stroke="#63b8ff" d="M1431.41,-296.98C1447.05,-288.61 1471.16,-275.7 1489.38,-265.95"/>
<polygon fill="#63b8ff" stroke="#63b8ff" points="1491.14,-268.98 1498.3,-261.17 1487.84,-262.8 1491.14,-268.98"/>
</a>
</g>
</g>
<!-- Node29 -->
<g id="Node000029" class="node">
<title>Node29</title>
<g id="a_Node000029"><a xlink:title=" ">
<polygon fill="#e0e0e0" stroke="#999999" points="1620.5,-261 1564.5,-261 1564.5,-242 1620.5,-242 1620.5,-261"/>
<text text-anchor="middle" x="1592.5" y="-249" font-family="Helvetica,sans-Serif" font-size="10.00">QDebug</text>
</a>
</g>
</g>
<!-- Node1&#45;&gt;Node29 -->
<g id="edge43_Node000001_Node000029" class="edge">
<title>Node1&#45;&gt;Node29</title>
<g id="a_edge43_Node000001_Node000029"><a xlink:title=" ">
<path fill="none" stroke="#63b8ff" d="M1443.94,-296.98C1473.96,-287.99 1521.44,-273.78 1554.62,-263.84"/>
<polygon fill="#63b8ff" stroke="#63b8ff" points="1555.85,-267.13 1564.42,-260.91 1553.84,-260.42 1555.85,-267.13"/>
</a>
</g>
</g>
<!-- Node30 -->
<g id="Node000030" class="node">
<title>Node30</title>
<g id="a_Node000030"><a xlink:title=" ">
<polygon fill="#e0e0e0" stroke="#999999" points="1718.5,-261 1638.5,-261 1638.5,-242 1718.5,-242 1718.5,-261"/>
<text text-anchor="middle" x="1678.5" y="-249" font-family="Helvetica,sans-Serif" font-size="10.00">QInputDialog</text>
</a>
</g>
</g>
<!-- Node1&#45;&gt;Node30 -->
<g id="edge46_Node000001_Node000030" class="edge">
<title>Node1&#45;&gt;Node30</title>
<g id="a_edge46_Node000001_Node000030"><a xlink:title=" ">
<path fill="none" stroke="#63b8ff" d="M1457.76,-296.98C1504.21,-287.62 1578.81,-272.59 1628.24,-262.63"/>
<polygon fill="#63b8ff" stroke="#63b8ff" points="1628.97,-266.05 1638.08,-260.65 1627.58,-259.19 1628.97,-266.05"/>
</a>
</g>
</g>
<!-- Node31 -->
<g id="Node000031" class="node">
<title>Node31</title>
<g id="a_Node000031"><a xlink:title=" ">
<polygon fill="#e0e0e0" stroke="#999999" points="1822.5,-261 1736.5,-261 1736.5,-242 1822.5,-242 1822.5,-261"/>
<text text-anchor="middle" x="1779.5" y="-249" font-family="Helvetica,sans-Serif" font-size="10.00">QMessageBox</text>
</a>
</g>
</g>
<!-- Node1&#45;&gt;Node31 -->
<g id="edge47_Node000001_Node000031" class="edge">
<title>Node1&#45;&gt;Node31</title>
<g id="a_edge47_Node000001_Node000031"><a xlink:title=" ">
<path fill="none" stroke="#63b8ff" d="M1477.71,-297.01C1538.51,-288.62 1633.96,-275.23 1726.3,-261.16"/>
<polygon fill="#63b8ff" stroke="#63b8ff" points="1727.02,-264.59 1736.38,-259.62 1725.97,-257.67 1727.02,-264.59"/>
</a>
</g>
</g>
<!-- Node32 -->
<g id="Node000032" class="node">
<title>Node32</title>
<g id="a_Node000032"><a xlink:title=" ">
<polygon fill="#e0e0e0" stroke="#999999" points="1892.5,-261 1840.5,-261 1840.5,-242 1892.5,-242 1892.5,-261"/>
<text text-anchor="middle" x="1866.5" y="-249" font-family="Helvetica,sans-Serif" font-size="10.00">QSlider</text>
</a>
</g>
</g>
<!-- Node1&#45;&gt;Node32 -->
<g id="edge48_Node000001_Node000032" class="edge">
<title>Node1&#45;&gt;Node32</title>
<g id="a_edge48_Node000001_Node000032"><a xlink:title=" ">
<path fill="none" stroke="#63b8ff" d="M1477.53,-301.43C1557.06,-295.64 1699.35,-283.36 1830.02,-261.04"/>
<polygon fill="#63b8ff" stroke="#63b8ff" points="1830.95,-264.43 1840.2,-259.28 1829.75,-257.54 1830.95,-264.43"/>
</a>
</g>
</g>
<!-- Node33 -->
<g id="Node000033" class="node">
<title>Node33</title>
<g id="a_Node000033"><a xlink:title=" ">
<polygon fill="#e0e0e0" stroke="#999999" points="2004.5,-261 1910.5,-261 1910.5,-242 2004.5,-242 2004.5,-261"/>
<text text-anchor="middle" x="1957.5" y="-249" font-family="Helvetica,sans-Serif" font-size="10.00">QStandardPaths</text>
</a>
</g>
</g>
<!-- Node1&#45;&gt;Node33 -->
<g id="edge49_Node000001_Node000033" class="edge">
<title>Node1&#45;&gt;Node33</title>
<g id="a_edge49_Node000001_Node000033"><a xlink:title=" ">
<path fill="none" stroke="#63b8ff" d="M1477.77,-300.99C1568.36,-294.16 1742.02,-280.08 1900.09,-261.1"/>
<polygon fill="#63b8ff" stroke="#63b8ff" points="1900.97,-264.52 1910.47,-259.84 1900.13,-257.57 1900.97,-264.52"/>
</a>
</g>
</g>
<!-- Node3 -->
<g id="Node000003" class="node">
<title>Node3</title>
<g id="a_Node000003"><a xlink:href="input__types_8hpp.html" target="_top" xlink:title=" ">
<polygon fill="white" stroke="#666666" points="945.5,-85 799.5,-85 799.5,-66 945.5,-66 945.5,-85"/>
<text text-anchor="middle" x="872.5" y="-73" font-family="Helvetica,sans-Serif" font-size="10.00">../settings/input_types.hpp</text>
</a>
</g>
</g>
<!-- Node2&#45;&gt;Node3 -->
<g id="edge2_Node000002_Node000003" class="edge">
<title>Node2&#45;&gt;Node3</title>
<g id="a_edge2_Node000002_Node000003"><a xlink:title=" ">
<path fill="none" stroke="#63b8ff" d="M676.29,-245.93C778.64,-234.99 1013.19,-203.37 1055.5,-140 1083.4,-98.21 1016.38,-83.57 955.74,-78.62"/>
<polygon fill="#63b8ff" stroke="#63b8ff" points="955.92,-75.13 945.69,-77.88 955.41,-82.11 955.92,-75.13"/>
</a>
</g>
</g>
<!-- Node5 -->
<g id="Node000005" class="node">
<title>Node5</title>
<g id="a_Node000005"><a xlink:title=" ">
<polygon fill="#e0e0e0" stroke="#999999" points="513,-24.5 436,-24.5 436,-5.5 513,-5.5 513,-24.5"/>
<text text-anchor="middle" x="474.5" y="-12.5" font-family="Helvetica,sans-Serif" font-size="10.00">minwindef.h</text>
</a>
</g>
</g>
<!-- Node2&#45;&gt;Node5 -->
<g id="edge35_Node000002_Node000005" class="edge">
<title>Node2&#45;&gt;Node5</title>
<g id="a_edge35_Node000002_Node000005"><a xlink:title=" ">
<path fill="none" stroke="#63b8ff" d="M601.77,-241.87C580.54,-234.3 550.68,-222.01 527.5,-206 465.43,-163.14 437.07,-154.81 408.5,-85 398.99,-61.78 423.81,-41.89 445.68,-29.52"/>
<polygon fill="#63b8ff" stroke="#63b8ff" points="447.57,-32.47 454.76,-24.69 444.29,-26.29 447.57,-32.47"/>
</a>
</g>
</g>
<!-- Node2&#45;&gt;Node7 -->
<g id="edge6_Node000002_Node000007" class="edge">
<title>Node2&#45;&gt;Node7</title>
<g id="a_edge6_Node000002_Node000007"><a xlink:title=" ">
<path fill="none" stroke="#63b8ff" d="M658.45,-241.99C688.88,-233.35 736.82,-219.74 774.99,-208.9"/>
<polygon fill="#63b8ff" stroke="#63b8ff" points="776.31,-212.16 784.97,-206.06 774.4,-205.43 776.31,-212.16"/>
</a>
</g>
</g>
<!-- Node12 -->
<g id="Node000012" class="node">
<title>Node12</title>
<g id="a_Node000012"><a xlink:title=" ">
<polygon fill="#e0e0e0" stroke="#999999" points="530,-85 477,-85 477,-66 530,-66 530,-85"/>
<text text-anchor="middle" x="503.5" y="-73" font-family="Helvetica,sans-Serif" font-size="10.00">QString</text>
</a>
</g>
</g>
<!-- Node2&#45;&gt;Node12 -->
<g id="edge33_Node000002_Node000012" class="edge">
<title>Node2&#45;&gt;Node12</title>
<g id="a_edge33_Node000002_Node000012"><a xlink:title=" ">
<path fill="none" stroke="#63b8ff" d="M612.54,-241.79C585.06,-225.8 529.55,-188.84 506.5,-140 499.94,-126.11 499.63,-108.54 500.71,-95.41"/>
<polygon fill="#63b8ff" stroke="#63b8ff" points="504.22,-95.55 501.89,-85.22 497.26,-94.75 504.22,-95.55"/>
</a>
</g>
</g>
<!-- Node19 -->
<g id="Node000019" class="node">
<title>Node19</title>
<g id="a_Node000019"><a xlink:href="buttoninputbox_8hpp.html" target="_top" xlink:title=" ">
<polygon fill="white" stroke="#666666" points="303.5,-140 191.5,-140 191.5,-121 303.5,-121 303.5,-140"/>
<text text-anchor="middle" x="247.5" y="-128" font-family="Helvetica,sans-Serif" font-size="10.00">buttoninputbox.hpp</text>
</a>
</g>
</g>
<!-- Node2&#45;&gt;Node19 -->
<g id="edge26_Node000002_Node000019" class="edge">
<title>Node2&#45;&gt;Node19</title>
<g id="a_edge26_Node000002_Node000019"><a xlink:title=" ">
<path fill="none" stroke="#63b8ff" d="M580.57,-247.12C528.7,-242.32 444.19,-231.12 375.5,-206 334.6,-191.04 291.8,-163.27 267.51,-146.18"/>
<polygon fill="#63b8ff" stroke="#63b8ff" points="269.32,-143.18 259.15,-140.21 265.25,-148.87 269.32,-143.18"/>
</a>
</g>
</g>
<!-- Node24 -->
<g id="Node000024" class="node">
<title>Node24</title>
<g id="a_Node000024"><a xlink:title=" ">
<polygon fill="#e0e0e0" stroke="#999999" points="658,-200.5 599,-200.5 599,-181.5 658,-181.5 658,-200.5"/>
<text text-anchor="middle" x="628.5" y="-188.5" font-family="Helvetica,sans-Serif" font-size="10.00">QWidget</text>
</a>
</g>
</g>
<!-- Node2&#45;&gt;Node24 -->
<g id="edge34_Node000002_Node000024" class="edge">
<title>Node2&#45;&gt;Node24</title>
<g id="a_edge34_Node000002_Node000024"><a xlink:title=" ">
<path fill="none" stroke="#63b8ff" d="M628.5,-241.87C628.5,-233.75 628.5,-221.31 628.5,-210.89"/>
<polygon fill="#63b8ff" stroke="#63b8ff" points="632,-210.67 628.5,-200.67 625,-210.67 632,-210.67"/>
</a>
</g>
</g>
<!-- Node4 -->
<g id="Node000004" class="node">
<title>Node4</title>
<g id="a_Node000004"><a xlink:href="GameButtons_8h.html" target="_top" xlink:title=" ">
<polygon fill="white" stroke="#666666" points="1118.5,-30 982.5,-30 982.5,0 1118.5,0 1118.5,-30"/>
<text text-anchor="start" x="990.5" y="-18" font-family="Helvetica,sans-Serif" font-size="10.00">../../VGP_Data_Exchange</text>
<text text-anchor="middle" x="1050.5" y="-7" font-family="Helvetica,sans-Serif" font-size="10.00">/C/GameButtons.h</text>
</a>
</g>
</g>
<!-- Node3&#45;&gt;Node4 -->
<g id="edge3_Node000003_Node000004" class="edge">
<title>Node3&#45;&gt;Node4</title>
<g id="a_edge3_Node000003_Node000004"><a xlink:title=" ">
<path fill="none" stroke="#63b8ff" d="M898.38,-65.99C924.34,-57.46 965.04,-44.09 997.81,-33.32"/>
<polygon fill="#63b8ff" stroke="#63b8ff" points="999.3,-36.51 1007.71,-30.06 997.11,-29.86 999.3,-36.51"/>
</a>
</g>
</g>
<!-- Node3&#45;&gt;Node5 -->
<g id="edge4_Node000003_Node000005" class="edge">
<title>Node3&#45;&gt;Node5</title>
<g id="a_edge4_Node000003_Node000005"><a xlink:title=" ">
<path fill="none" stroke="#63b8ff" d="M814.63,-65.99C735.97,-54.43 596.71,-33.96 523.15,-23.15"/>
<polygon fill="#63b8ff" stroke="#63b8ff" points="523.62,-19.68 513.22,-21.69 522.6,-26.61 523.62,-19.68"/>
</a>
</g>
</g>
<!-- Node6 -->
<g id="Node000006" class="node">
<title>Node6</title>
<g id="a_Node000006"><a xlink:title=" ">
<polygon fill="#e0e0e0" stroke="#999999" points="902,-24.5 843,-24.5 843,-5.5 902,-5.5 902,-24.5"/>
<text text-anchor="middle" x="872.5" y="-12.5" font-family="Helvetica,sans-Serif" font-size="10.00">qtypes.h</text>
</a>
</g>
</g>
<!-- Node3&#45;&gt;Node6 -->
<g id="edge5_Node000003_Node000006" class="edge">
<title>Node3&#45;&gt;Node6</title>
<g id="a_edge5_Node000003_Node000006"><a xlink:title=" ">
<path fill="none" stroke="#63b8ff" d="M872.5,-65.87C872.5,-57.75 872.5,-45.31 872.5,-34.89"/>
<polygon fill="#63b8ff" stroke="#63b8ff" points="876,-34.67 872.5,-24.67 869,-34.67 876,-34.67"/>
</a>
</g>
</g>
<!-- Node7&#45;&gt;Node3 -->
<g id="edge8_Node000007_Node000003" class="edge">
<title>Node7&#45;&gt;Node3</title>
<g id="a_edge8_Node000007_Node000003"><a xlink:title=" ">
<path fill="none" stroke="#63b8ff" d="M839.31,-175.63C846.18,-155.12 858.78,-117.47 866.33,-94.93"/>
<polygon fill="#63b8ff" stroke="#63b8ff" points="869.72,-95.82 869.58,-85.23 863.08,-93.6 869.72,-95.82"/>
</a>
</g>
</g>
<!-- Node7&#45;&gt;Node4 -->
<g id="edge7_Node000007_Node000004" class="edge">
<title>Node7&#45;&gt;Node4</title>
<g id="a_edge7_Node000007_Node000004"><a xlink:title=" ">
<path fill="none" stroke="#63b8ff" d="M888.1,-185.43C946.67,-179.2 1034.93,-165.74 1055.5,-140 1078.16,-111.64 1068.83,-66.9 1059.8,-39.63"/>
<polygon fill="#63b8ff" stroke="#63b8ff" points="1063.06,-38.35 1056.42,-30.1 1056.46,-40.69 1063.06,-38.35"/>
</a>
</g>
</g>
<!-- Node8 -->
<g id="Node000008" class="node">
<title>Node8</title>
<g id="a_Node000008"><a xlink:href="keymap__profile_8hpp.html" target="_top" xlink:title=" ">
<polygon fill="white" stroke="#666666" points="645,-140 532,-140 532,-121 645,-121 645,-140"/>
<text text-anchor="middle" x="588.5" y="-128" font-family="Helvetica,sans-Serif" font-size="10.00">keymap_profile.hpp</text>
</a>
</g>
</g>
<!-- Node7&#45;&gt;Node8 -->
<g id="edge9_Node000007_Node000008" class="edge">
<title>Node7&#45;&gt;Node8</title>
<g id="a_edge9_Node000007_Node000008"><a xlink:title=" ">
<path fill="none" stroke="#63b8ff" d="M780.82,-177.23C737.07,-166.83 675.94,-152.29 634.43,-142.42"/>
<polygon fill="#63b8ff" stroke="#63b8ff" points="635.12,-138.99 624.58,-140.08 633.5,-145.8 635.12,-138.99"/>
</a>
</g>
</g>
<!-- Node10 -->
<g id="Node000010" class="node">
<title>Node10</title>
<g id="a_Node000010"><a xlink:title=" ">
<polygon fill="#e0e0e0" stroke="#999999" points="780.5,-85 724.5,-85 724.5,-66 780.5,-66 780.5,-85"/>
<text text-anchor="middle" x="752.5" y="-73" font-family="Helvetica,sans-Serif" font-size="10.00">QObject</text>
</a>
</g>
</g>
<!-- Node7&#45;&gt;Node10 -->
<g id="edge20_Node000007_Node000010" class="edge">
<title>Node7&#45;&gt;Node10</title>
<g id="a_edge20_Node000007_Node000010"><a xlink:title=" ">
<path fill="none" stroke="#63b8ff" d="M833.14,-175.87C831.13,-161.04 826.23,-137.6 814.5,-121 805.48,-108.24 791.61,-97.79 779.28,-90.23"/>
<polygon fill="#63b8ff" stroke="#63b8ff" points="780.66,-86.99 770.25,-85.03 777.17,-93.05 780.66,-86.99"/>
</a>
</g>
</g>
<!-- Node11 -->
<g id="Node000011" class="node">
<title>Node11</title>
<g id="a_Node000011"><a xlink:title=" ">
<polygon fill="#e0e0e0" stroke="#999999" points="685.5,-85 621.5,-85 621.5,-66 685.5,-66 685.5,-85"/>
<text text-anchor="middle" x="653.5" y="-73" font-family="Helvetica,sans-Serif" font-size="10.00">QSettings</text>
</a>
</g>
</g>
<!-- Node7&#45;&gt;Node11 -->
<g id="edge21_Node000007_Node000011" class="edge">
<title>Node7&#45;&gt;Node11</title>
<g id="a_edge21_Node000007_Node000011"><a xlink:title=" ">
<path fill="none" stroke="#63b8ff" d="M780.97,-180.24C752.37,-172.93 717.92,-160.52 692.5,-140 677.6,-127.97 666.89,-108.61 660.5,-94.43"/>
<polygon fill="#63b8ff" stroke="#63b8ff" points="663.73,-93.06 656.62,-85.19 657.27,-95.77 663.73,-93.06"/>
</a>
</g>
</g>
<!-- Node7&#45;&gt;Node12 -->
<g id="edge22_Node000007_Node000012" class="edge">
<title>Node7&#45;&gt;Node12</title>
<g id="a_edge22_Node000007_Node000012"><a xlink:title=" ">
<path fill="none" stroke="#63b8ff" d="M780.9,-184.53C696.86,-175.49 541.63,-156.77 522.5,-140 509.93,-128.99 505.51,-110.04 504.03,-95.7"/>
<polygon fill="#63b8ff" stroke="#63b8ff" points="507.51,-95.19 503.38,-85.43 500.52,-95.63 507.51,-95.19"/>
</a>
</g>
</g>
<!-- Node13 -->
<g id="Node000013" class="node">
<title>Node13</title>
<g id="a_Node000013"><a xlink:title=" ">
<polygon fill="#e0e0e0" stroke="#999999" points="455.5,-85 417.5,-85 417.5,-66 455.5,-66 455.5,-85"/>
<text text-anchor="middle" x="436.5" y="-73" font-family="Helvetica,sans-Serif" font-size="10.00">map</text>
</a>
</g>
</g>
<!-- Node7&#45;&gt;Node13 -->
<g id="edge24_Node000007_Node000013" class="edge">
<title>Node7&#45;&gt;Node13</title>
<g id="a_edge24_Node000007_Node000013"><a xlink:title=" ">
<path fill="none" stroke="#63b8ff" d="M780.98,-185.62C700.85,-178.42 554.03,-162.61 506.5,-140 483.46,-129.04 462.59,-107.97 449.75,-93.11"/>
<polygon fill="#63b8ff" stroke="#63b8ff" points="452.25,-90.65 443.16,-85.21 446.87,-95.13 452.25,-90.65"/>
</a>
</g>
</g>
<!-- Node7&#45;&gt;Node14 -->
<g id="edge17_Node000007_Node000014" class="edge">
<title>Node7&#45;&gt;Node14</title>
<g id="a_edge17_Node000007_Node000014"><a xlink:title=" ">
<path fill="none" stroke="#63b8ff" d="M888.04,-182.19C946.79,-173.3 1043.77,-157.71 1126.5,-140 1127.77,-139.73 1129.06,-139.44 1130.37,-139.14"/>
<polygon fill="#63b8ff" stroke="#63b8ff" points="1131.48,-142.47 1140.37,-136.71 1129.82,-135.67 1131.48,-142.47"/>
</a>
</g>
</g>
<!-- Node15 -->
<g id="Node000015" class="node">
<title>Node15</title>
<g id="a_Node000015"><a xlink:title=" ">
<polygon fill="#e0e0e0" stroke="#999999" points="743,-140 702,-140 702,-121 743,-121 743,-140"/>
<text text-anchor="middle" x="722.5" y="-128" font-family="Helvetica,sans-Serif" font-size="10.00">QList</text>
</a>
</g>
</g>
<!-- Node7&#45;&gt;Node15 -->
<g id="edge18_Node000007_Node000015" class="edge">
<title>Node7&#45;&gt;Node15</title>
<g id="a_edge18_Node000007_Node000015"><a xlink:title=" ">
<path fill="none" stroke="#63b8ff" d="M807.67,-175.99C789.65,-166.58 766.04,-154.24 748.25,-144.95"/>
<polygon fill="#63b8ff" stroke="#63b8ff" points="749.52,-141.67 739.04,-140.14 746.28,-147.87 749.52,-141.67"/>
</a>
</g>
</g>
<!-- Node16 -->
<g id="Node000016" class="node">
<title>Node16</title>
<g id="a_Node000016"><a xlink:title=" ">
<polygon fill="#e0e0e0" stroke="#999999" points="806,-140 761,-140 761,-121 806,-121 806,-140"/>
<text text-anchor="middle" x="783.5" y="-128" font-family="Helvetica,sans-Serif" font-size="10.00">QMap</text>
</a>
</g>
</g>
<!-- Node7&#45;&gt;Node16 -->
<g id="edge19_Node000007_Node000016" class="edge">
<title>Node7&#45;&gt;Node16</title>
<g id="a_edge19_Node000007_Node000016"><a xlink:title=" ">
<path fill="none" stroke="#63b8ff" d="M822.15,-175.84C814.83,-167.43 805.5,-156.74 797.85,-147.96"/>
<polygon fill="#63b8ff" stroke="#63b8ff" points="800.35,-145.5 791.14,-140.27 795.08,-150.1 800.35,-145.5"/>
</a>
</g>
</g>
<!-- Node17 -->
<g id="Node000017" class="node">
<title>Node17</title>
<g id="a_Node000017"><a xlink:title=" ">
<polygon fill="#e0e0e0" stroke="#999999" points="960,-140 901,-140 901,-121 960,-121 960,-140"/>
<text text-anchor="middle" x="930.5" y="-128" font-family="Helvetica,sans-Serif" font-size="10.00">QVariant</text>
</a>
</g>
</g>
<!-- Node7&#45;&gt;Node17 -->
<g id="edge23_Node000007_Node000017" class="edge">
<title>Node7&#45;&gt;Node17</title>
<g id="a_edge23_Node000007_Node000017"><a xlink:title=" ">
<path fill="none" stroke="#63b8ff" d="M857.74,-175.84C872.9,-166.6 892.61,-154.59 907.69,-145.4"/>
<polygon fill="#63b8ff" stroke="#63b8ff" points="909.68,-148.29 916.4,-140.09 906.04,-142.31 909.68,-148.29"/>
</a>
</g>
</g>
<!-- Node18 -->
<g id="Node000018" class="node">
<title>Node18</title>
<g id="a_Node000018"><a xlink:title=" ">
<polygon fill="#e0e0e0" stroke="#999999" points="1046.5,-140 978.5,-140 978.5,-121 1046.5,-121 1046.5,-140"/>
<text text-anchor="middle" x="1012.5" y="-128" font-family="Helvetica,sans-Serif" font-size="10.00">windows.h</text>
</a>
</g>
</g>
<!-- Node7&#45;&gt;Node18 -->
<g id="edge25_Node000007_Node000018" class="edge">
<title>Node7&#45;&gt;Node18</title>
<g id="a_edge25_Node000007_Node000018"><a xlink:title=" ">
<path fill="none" stroke="#63b8ff" d="M877.14,-175.99C907.59,-165.98 948.09,-152.67 976.83,-143.22"/>
<polygon fill="#63b8ff" stroke="#63b8ff" points="978.07,-146.5 986.47,-140.05 975.88,-139.85 978.07,-146.5"/>
</a>
</g>
</g>
<!-- Node8&#45;&gt;Node3 -->
<g id="edge10_Node000008_Node000003" class="edge">
<title>Node8&#45;&gt;Node3</title>
<g id="a_edge10_Node000008_Node000003"><a xlink:title=" ">
<path fill="none" stroke="#63b8ff" d="M634.13,-120.98C683.77,-111.72 763.16,-96.9 816.53,-86.94"/>
<polygon fill="#63b8ff" stroke="#63b8ff" points="817.32,-90.36 826.51,-85.08 816.04,-83.48 817.32,-90.36"/>
</a>
</g>
</g>
<!-- Node8&#45;&gt;Node5 -->
<g id="edge16_Node000008_Node000005" class="edge">
<title>Node8&#45;&gt;Node5</title>
<g id="a_edge16_Node000008_Node000005"><a xlink:title=" ">
<path fill="none" stroke="#63b8ff" d="M582.63,-120.75C573.84,-107.98 556.39,-83.83 538.5,-66 525.35,-52.9 508.81,-40.05 495.83,-30.66"/>
<polygon fill="#63b8ff" stroke="#63b8ff" points="497.68,-27.69 487.5,-24.75 493.63,-33.4 497.68,-27.69"/>
</a>
</g>
</g>
<!-- Node8&#45;&gt;Node9 -->
<g id="edge11_Node000008_Node000009" class="edge">
<title>Node8&#45;&gt;Node9</title>
<g id="a_edge11_Node000008_Node000009"><a xlink:title=" ">
<path fill="none" stroke="#63b8ff" d="M645.11,-124.47C768.63,-113.48 1058.89,-87.67 1153.85,-79.23"/>
<polygon fill="#63b8ff" stroke="#63b8ff" points="1154.28,-82.7 1163.93,-78.33 1153.66,-75.73 1154.28,-82.7"/>
</a>
</g>
</g>
<!-- Node8&#45;&gt;Node10 -->
<g id="edge12_Node000008_Node000010" class="edge">
<title>Node8&#45;&gt;Node10</title>
<g id="a_edge12_Node000008_Node000010"><a xlink:title=" ">
<path fill="none" stroke="#63b8ff" d="M614.85,-120.98C642.26,-112.13 685.39,-98.19 716.06,-88.28"/>
<polygon fill="#63b8ff" stroke="#63b8ff" points="717.5,-91.49 725.94,-85.08 715.35,-84.83 717.5,-91.49"/>
</a>
</g>
</g>
<!-- Node8&#45;&gt;Node11 -->
<g id="edge13_Node000008_Node000011" class="edge">
<title>Node8&#45;&gt;Node11</title>
<g id="a_edge13_Node000008_Node000011"><a xlink:title=" ">
<path fill="none" stroke="#63b8ff" d="M598.94,-120.98C608.65,-113.07 623.32,-101.11 635,-91.58"/>
<polygon fill="#63b8ff" stroke="#63b8ff" points="637.33,-94.2 642.87,-85.17 632.9,-88.78 637.33,-94.2"/>
</a>
</g>
</g>
<!-- Node8&#45;&gt;Node12 -->
<g id="edge14_Node000008_Node000012" class="edge">
<title>Node8&#45;&gt;Node12</title>
<g id="a_edge14_Node000008_Node000012"><a xlink:title=" ">
<path fill="none" stroke="#63b8ff" d="M574.84,-120.98C561.66,-112.77 541.47,-100.18 525.93,-90.49"/>
<polygon fill="#63b8ff" stroke="#63b8ff" points="527.74,-87.49 517.41,-85.17 524.04,-93.43 527.74,-87.49"/>
</a>
</g>
</g>
<!-- Node8&#45;&gt;Node13 -->
<g id="edge15_Node000008_Node000013" class="edge">
<title>Node8&#45;&gt;Node13</title>
<g id="a_edge15_Node000008_Node000013"><a xlink:title=" ">
<path fill="none" stroke="#63b8ff" d="M564.08,-120.98C537.17,-111.6 493.93,-96.53 465.37,-86.57"/>
<polygon fill="#63b8ff" stroke="#63b8ff" points="466.16,-83.14 455.57,-83.15 463.86,-89.75 466.16,-83.14"/>
</a>
</g>
</g>
<!-- Node19&#45;&gt;Node5 -->
<g id="edge32_Node000019_Node000005" class="edge">
<title>Node19&#45;&gt;Node5</title>
<g id="a_edge32_Node000019_Node000005"><a xlink:title=" ">
<path fill="none" stroke="#63b8ff" d="M236.26,-120.65C221.23,-107.76 198.06,-83.46 212.5,-66 239.03,-33.93 357.5,-22.24 425.7,-18.13"/>
<polygon fill="#63b8ff" stroke="#63b8ff" points="426,-21.62 435.79,-17.55 425.6,-14.63 426,-21.62"/>
</a>
</g>
</g>
<!-- Node19&#45;&gt;Node13 -->
<g id="edge31_Node000019_Node000013" class="edge">
<title>Node19&#45;&gt;Node13</title>
<g id="a_edge31_Node000019_Node000013"><a xlink:title=" ">
<path fill="none" stroke="#63b8ff" d="M277.87,-120.98C313.67,-110.94 372.73,-94.38 407.8,-84.55"/>
<polygon fill="#63b8ff" stroke="#63b8ff" points="408.75,-87.92 417.43,-81.85 406.86,-81.18 408.75,-87.92"/>
</a>
</g>
</g>
<!-- Node20 -->
<g id="Node000020" class="node">
<title>Node20</title>
<g id="a_Node000020"><a xlink:title=" ">
<polygon fill="#e0e0e0" stroke="#999999" points="273.5,-85 221.5,-85 221.5,-66 273.5,-66 273.5,-85"/>
<text text-anchor="middle" x="247.5" y="-73" font-family="Helvetica,sans-Serif" font-size="10.00">QEvent</text>
</a>
</g>
</g>
<!-- Node19&#45;&gt;Node20 -->
<g id="edge27_Node000019_Node000020" class="edge">
<title>Node19&#45;&gt;Node20</title>
<g id="a_edge27_Node000019_Node000020"><a xlink:title=" ">
<path fill="none" stroke="#63b8ff" d="M247.5,-120.75C247.5,-113.8 247.5,-103.85 247.5,-95.13"/>
<polygon fill="#63b8ff" stroke="#63b8ff" points="251,-95.09 247.5,-85.09 244,-95.09 251,-95.09"/>
</a>
</g>
</g>
<!-- Node21 -->
<g id="Node000021" class="node">
<title>Node21</title>
<g id="a_Node000021"><a xlink:title=" ">
<polygon fill="#e0e0e0" stroke="#999999" points="361.5,-85 291.5,-85 291.5,-66 361.5,-66 361.5,-85"/>
<text text-anchor="middle" x="326.5" y="-73" font-family="Helvetica,sans-Serif" font-size="10.00">QKeyEvent</text>
</a>
</g>
</g>
<!-- Node19&#45;&gt;Node21 -->
<g id="edge28_Node000019_Node000021" class="edge">
<title>Node19&#45;&gt;Node21</title>
<g id="a_edge28_Node000019_Node000021"><a xlink:title=" ">
<path fill="none" stroke="#63b8ff" d="M260.19,-120.98C272.33,-112.84 290.86,-100.41 305.25,-90.76"/>
<polygon fill="#63b8ff" stroke="#63b8ff" points="307.22,-93.65 313.58,-85.17 303.32,-87.84 307.22,-93.65"/>
</a>
</g>
</g>
<!-- Node22 -->
<g id="Node000022" class="node">
<title>Node22</title>
<g id="a_Node000022"><a xlink:title=" ">
<polygon fill="#e0e0e0" stroke="#999999" points="63,-85 0,-85 0,-66 63,-66 63,-85"/>
<text text-anchor="middle" x="31.5" y="-73" font-family="Helvetica,sans-Serif" font-size="10.00">QLineEdit</text>
</a>
</g>
</g>
<!-- Node19&#45;&gt;Node22 -->
<g id="edge29_Node000019_Node000022" class="edge">
<title>Node19&#45;&gt;Node22</title>
<g id="a_edge29_Node000019_Node000022"><a xlink:title=" ">
<path fill="none" stroke="#63b8ff" d="M212.8,-120.98C174.76,-111.65 113.75,-96.68 73.16,-86.72"/>
<polygon fill="#63b8ff" stroke="#63b8ff" points="73.85,-83.29 63.3,-84.3 72.18,-90.09 73.85,-83.29"/>
</a>
</g>
</g>
<!-- Node23 -->
<g id="Node000023" class="node">
<title>Node23</title>
<g id="a_Node000023"><a xlink:title=" ">
<polygon fill="#e0e0e0" stroke="#999999" points="165.5,-85 81.5,-85 81.5,-66 165.5,-66 165.5,-85"/>
<text text-anchor="middle" x="123.5" y="-73" font-family="Helvetica,sans-Serif" font-size="10.00">QMouseEvent</text>
</a>
</g>
</g>
<!-- Node19&#45;&gt;Node23 -->
<g id="edge30_Node000019_Node000023" class="edge">
<title>Node19&#45;&gt;Node23</title>
<g id="a_edge30_Node000019_Node000023"><a xlink:title=" ">
<path fill="none" stroke="#63b8ff" d="M227.58,-120.98C207.45,-112.38 176.12,-98.99 153.09,-89.15"/>
<polygon fill="#63b8ff" stroke="#63b8ff" points="154.36,-85.88 143.79,-85.17 151.6,-92.32 154.36,-85.88"/>
</a>
</g>
</g>
<!-- Node25&#45;&gt;Node7 -->
<g id="edge37_Node000025_Node000007" class="edge">
<title>Node25&#45;&gt;Node7</title>
<g id="a_edge37_Node000025_Node000007"><a xlink:title=" ">
<path fill="none" stroke="#63b8ff" d="M1041.31,-241.99C1003.82,-232.93 943.68,-218.39 897.89,-207.32"/>
<polygon fill="#63b8ff" stroke="#63b8ff" points="898.6,-203.89 888.06,-204.95 896.96,-210.7 898.6,-203.89"/>
</a>
</g>
</g>
<!-- Node25&#45;&gt;Node14 -->
<g id="edge38_Node000025_Node000014" class="edge">
<title>Node25&#45;&gt;Node14</title>
<g id="a_edge38_Node000025_Node000014"><a xlink:title=" ">
<path fill="none" stroke="#63b8ff" d="M1082.47,-241.94C1096.04,-222.48 1129.44,-174.6 1147.48,-148.74"/>
<polygon fill="#63b8ff" stroke="#63b8ff" points="1150.51,-150.51 1153.36,-140.3 1144.77,-146.5 1150.51,-150.51"/>
</a>
</g>
</g>
</g>
</svg>
