<?xml version="1.0" encoding="UTF-8" standalone="no"?>
<!DOCTYPE svg PUBLIC "-//W3C//DTD SVG 1.1//EN"
 "http://www.w3.org/Graphics/SVG/1.1/DTD/svg11.dtd">
<!-- Generated by graphviz version 2.43.0 (0)
 -->
<!-- Title: src/preferences.cpp Pages: 1 -->
<svg width="1128pt" height="148pt"
 viewBox="0.00 0.00 1128.00 148.00" xmlns="http://www.w3.org/2000/svg" xmlns:xlink="http://www.w3.org/1999/xlink">
<g id="graph0" class="graph" transform="scale(1 1) rotate(0) translate(4 144)">
<title>src/preferences.cpp</title>
<!-- Node1 -->
<g id="Node000001" class="node">
<title>Node1</title>
<g id="a_Node000001"><a xlink:title=" ">
<polygon fill="#999999" stroke="#666666" points="791,-140 679,-140 679,-121 791,-121 791,-140"/>
<text text-anchor="middle" x="735" y="-128" font-family="Helvetica,sans-Serif" font-size="10.00">src/preferences.cpp</text>
</a>
</g>
</g>
<!-- Node2 -->
<g id="Node000002" class="node">
<title>Node2</title>
<g id="a_Node000002"><a xlink:href="preferences_8hpp.html" target="_top" xlink:title=" ">
<polygon fill="white" stroke="#666666" points="192.5,-85 97.5,-85 97.5,-66 192.5,-66 192.5,-85"/>
<text text-anchor="middle" x="145" y="-73" font-family="Helvetica,sans-Serif" font-size="10.00">preferences.hpp</text>
</a>
</g>
</g>
<!-- Node1&#45;&gt;Node2 -->
<g id="edge1_Node000001_Node000002" class="edge">
<title>Node1&#45;&gt;Node2</title>
<g id="a_edge1_Node000001_Node000002"><a xlink:title=" ">
<path fill="none" stroke="#63b8ff" d="M678.9,-124.67C586.11,-116.65 394.83,-99.99 233,-85 223.36,-84.11 213.12,-83.14 203.18,-82.18"/>
<polygon fill="#63b8ff" stroke="#63b8ff" points="203.24,-78.67 192.95,-81.2 202.57,-85.64 203.24,-78.67"/>
</a>
</g>
</g>
<!-- Node6 -->
<g id="Node000006" class="node">
<title>Node6</title>
<g id="a_Node000006"><a xlink:href="settings_8hpp.html" target="_top" xlink:title=" ">
<polygon fill="white" stroke="#666666" points="319.5,-85 242.5,-85 242.5,-66 319.5,-66 319.5,-85"/>
<text text-anchor="middle" x="281" y="-73" font-family="Helvetica,sans-Serif" font-size="10.00">settings.hpp</text>
</a>
</g>
</g>
<!-- Node1&#45;&gt;Node6 -->
<g id="edge5_Node000001_Node000006" class="edge">
<title>Node1&#45;&gt;Node6</title>
<g id="a_edge5_Node000001_Node000006"><a xlink:title=" ">
<path fill="none" stroke="#63b8ff" d="M678.88,-122.95C589.14,-112.47 414.86,-92.13 329.91,-82.21"/>
<polygon fill="#63b8ff" stroke="#63b8ff" points="330.1,-78.71 319.76,-81.03 329.29,-85.66 330.1,-78.71"/>
</a>
</g>
</g>
<!-- Node9 -->
<g id="Node000009" class="node">
<title>Node9</title>
<g id="a_Node000009"><a xlink:href="settings__key__variables_8hpp.html" target="_top" xlink:title=" ">
<polygon fill="white" stroke="#666666" points="527.5,-85 378.5,-85 378.5,-66 527.5,-66 527.5,-85"/>
<text text-anchor="middle" x="453" y="-73" font-family="Helvetica,sans-Serif" font-size="10.00">settings_key_variables.hpp</text>
</a>
</g>
</g>
<!-- Node1&#45;&gt;Node9 -->
<g id="edge9_Node000001_Node000009" class="edge">
<title>Node1&#45;&gt;Node9</title>
<g id="a_edge9_Node000001_Node000009"><a xlink:title=" ">
<path fill="none" stroke="#63b8ff" d="M689.69,-120.98C640.4,-111.72 561.57,-96.9 508.57,-86.94"/>
<polygon fill="#63b8ff" stroke="#63b8ff" points="509.14,-83.49 498.66,-85.08 507.84,-90.37 509.14,-83.49"/>
</a>
</g>
</g>
<!-- Node14 -->
<g id="Node000014" class="node">
<title>Node14</title>
<g id="a_Node000014"><a xlink:title=" ">
<polygon fill="#e0e0e0" stroke="#999999" points="643,-85 545,-85 545,-66 643,-66 643,-85"/>
<text text-anchor="middle" x="594" y="-73" font-family="Helvetica,sans-Serif" font-size="10.00">ui_preferences.h</text>
</a>
</g>
</g>
<!-- Node1&#45;&gt;Node14 -->
<g id="edge14_Node000001_Node000014" class="edge">
<title>Node1&#45;&gt;Node14</title>
<g id="a_edge14_Node000001_Node000014"><a xlink:title=" ">
<path fill="none" stroke="#63b8ff" d="M712.35,-120.98C689.15,-112.27 652.88,-98.63 626.6,-88.75"/>
<polygon fill="#63b8ff" stroke="#63b8ff" points="627.66,-85.41 617.07,-85.17 625.2,-91.97 627.66,-85.41"/>
</a>
</g>
</g>
<!-- Node15 -->
<g id="Node000015" class="node">
<title>Node15</title>
<g id="a_Node000015"><a xlink:title=" ">
<polygon fill="#e0e0e0" stroke="#999999" points="724.5,-85 661.5,-85 661.5,-66 724.5,-66 724.5,-85"/>
<text text-anchor="middle" x="693" y="-73" font-family="Helvetica,sans-Serif" font-size="10.00">winuser.h</text>
</a>
</g>
</g>
<!-- Node1&#45;&gt;Node15 -->
<g id="edge15_Node000001_Node000015" class="edge">
<title>Node1&#45;&gt;Node15</title>
<g id="a_edge15_Node000001_Node000015"><a xlink:title=" ">
<path fill="none" stroke="#63b8ff" d="M728.06,-120.75C722.13,-113.26 713.43,-102.28 706.18,-93.13"/>
<polygon fill="#63b8ff" stroke="#63b8ff" points="708.76,-90.75 699.81,-85.09 703.27,-95.1 708.76,-90.75"/>
</a>
</g>
</g>
<!-- Node16 -->
<g id="Node000016" class="node">
<title>Node16</title>
<g id="a_Node000016"><a xlink:title=" ">
<polygon fill="#e0e0e0" stroke="#999999" points="813,-85 743,-85 743,-66 813,-66 813,-85"/>
<text text-anchor="middle" x="778" y="-73" font-family="Helvetica,sans-Serif" font-size="10.00">QKeyEvent</text>
</a>
</g>
</g>
<!-- Node1&#45;&gt;Node16 -->
<g id="edge16_Node000001_Node000016" class="edge">
<title>Node1&#45;&gt;Node16</title>
<g id="a_edge16_Node000001_Node000016"><a xlink:title=" ">
<path fill="none" stroke="#63b8ff" d="M742.1,-120.75C748.17,-113.26 757.09,-102.28 764.51,-93.13"/>
<polygon fill="#63b8ff" stroke="#63b8ff" points="767.45,-95.06 771.03,-85.09 762.01,-90.65 767.45,-95.06"/>
</a>
</g>
</g>
<!-- Node17 -->
<g id="Node000017" class="node">
<title>Node17</title>
<g id="a_Node000017"><a xlink:title=" ">
<polygon fill="#e0e0e0" stroke="#999999" points="888.5,-85 831.5,-85 831.5,-66 888.5,-66 888.5,-85"/>
<text text-anchor="middle" x="860" y="-73" font-family="Helvetica,sans-Serif" font-size="10.00">QLayout</text>
</a>
</g>
</g>
<!-- Node1&#45;&gt;Node17 -->
<g id="edge17_Node000001_Node000017" class="edge">
<title>Node1&#45;&gt;Node17</title>
<g id="a_edge17_Node000001_Node000017"><a xlink:title=" ">
<path fill="none" stroke="#63b8ff" d="M755.08,-120.98C775.37,-112.38 806.96,-98.99 830.17,-89.15"/>
<polygon fill="#63b8ff" stroke="#63b8ff" points="831.71,-92.3 839.55,-85.17 828.98,-85.85 831.71,-92.3"/>
</a>
</g>
</g>
<!-- Node18 -->
<g id="Node000018" class="node">
<title>Node18</title>
<g id="a_Node000018"><a xlink:title=" ">
<polygon fill="#e0e0e0" stroke="#999999" points="969.5,-85 906.5,-85 906.5,-66 969.5,-66 969.5,-85"/>
<text text-anchor="middle" x="938" y="-73" font-family="Helvetica,sans-Serif" font-size="10.00">QLineEdit</text>
</a>
</g>
</g>
<!-- Node1&#45;&gt;Node18 -->
<g id="edge18_Node000001_Node000018" class="edge">
<title>Node1&#45;&gt;Node18</title>
<g id="a_edge18_Node000001_Node000018"><a xlink:title=" ">
<path fill="none" stroke="#63b8ff" d="M767.62,-120.98C802.7,-111.82 858.57,-97.24 896.7,-87.28"/>
<polygon fill="#63b8ff" stroke="#63b8ff" points="897.68,-90.65 906.47,-84.73 895.91,-83.87 897.68,-90.65"/>
</a>
</g>
</g>
<!-- Node19 -->
<g id="Node000019" class="node">
<title>Node19</title>
<g id="a_Node000019"><a xlink:title=" ">
<polygon fill="#e0e0e0" stroke="#999999" points="1050,-85 988,-85 988,-66 1050,-66 1050,-85"/>
<text text-anchor="middle" x="1019" y="-73" font-family="Helvetica,sans-Serif" font-size="10.00">QProcess</text>
</a>
</g>
</g>
<!-- Node1&#45;&gt;Node19 -->
<g id="edge19_Node000001_Node000019" class="edge">
<title>Node1&#45;&gt;Node19</title>
<g id="a_edge19_Node000001_Node000019"><a xlink:title=" ">
<path fill="none" stroke="#63b8ff" d="M784.15,-120.97C831.27,-112.69 904.66,-99.55 977.33,-85.29"/>
<polygon fill="#63b8ff" stroke="#63b8ff" points="978.44,-88.64 987.57,-83.27 977.09,-81.77 978.44,-88.64"/>
</a>
</g>
</g>
<!-- Node20 -->
<g id="Node000020" class="node">
<title>Node20</title>
<g id="a_Node000020"><a xlink:title=" ">
<polygon fill="#e0e0e0" stroke="#999999" points="1120,-85 1068,-85 1068,-66 1120,-66 1120,-85"/>
<text text-anchor="middle" x="1094" y="-73" font-family="Helvetica,sans-Serif" font-size="10.00">QSlider</text>
</a>
</g>
</g>
<!-- Node1&#45;&gt;Node20 -->
<g id="edge20_Node000001_Node000020" class="edge">
<title>Node1&#45;&gt;Node20</title>
<g id="a_edge20_Node000001_Node000020"><a xlink:title=" ">
<path fill="none" stroke="#63b8ff" d="M791.18,-123.54C853.93,-116.49 958.68,-103.56 1057.81,-85.06"/>
<polygon fill="#63b8ff" stroke="#63b8ff" points="1058.51,-88.49 1067.69,-83.19 1057.21,-81.61 1058.51,-88.49"/>
</a>
</g>
</g>
<!-- Node3 -->
<g id="Node000003" class="node">
<title>Node3</title>
<g id="a_Node000003"><a xlink:title=" ">
<polygon fill="#e0e0e0" stroke="#999999" points="56,-24.5 0,-24.5 0,-5.5 56,-5.5 56,-24.5"/>
<text text-anchor="middle" x="28" y="-12.5" font-family="Helvetica,sans-Serif" font-size="10.00">QDialog</text>
</a>
</g>
</g>
<!-- Node2&#45;&gt;Node3 -->
<g id="edge2_Node000002_Node000003" class="edge">
<title>Node2&#45;&gt;Node3</title>
<g id="a_edge2_Node000002_Node000003"><a xlink:title=" ">
<path fill="none" stroke="#63b8ff" d="M127.99,-65.99C108.58,-56.29 76.61,-40.31 54.06,-29.03"/>
<polygon fill="#63b8ff" stroke="#63b8ff" points="55.54,-25.86 45.03,-24.52 52.41,-32.12 55.54,-25.86"/>
</a>
</g>
</g>
<!-- Node4 -->
<g id="Node000004" class="node">
<title>Node4</title>
<g id="a_Node000004"><a xlink:title=" ">
<polygon fill="#e0e0e0" stroke="#999999" points="144,-24.5 74,-24.5 74,-5.5 144,-5.5 144,-24.5"/>
<text text-anchor="middle" x="109" y="-12.5" font-family="Helvetica,sans-Serif" font-size="10.00">Windows.h</text>
</a>
</g>
</g>
<!-- Node2&#45;&gt;Node4 -->
<g id="edge3_Node000002_Node000004" class="edge">
<title>Node2&#45;&gt;Node4</title>
<g id="a_edge3_Node000002_Node000004"><a xlink:title=" ">
<path fill="none" stroke="#63b8ff" d="M139.69,-65.87C134.42,-57.31 126.21,-43.97 119.61,-33.24"/>
<polygon fill="#63b8ff" stroke="#63b8ff" points="122.56,-31.35 114.33,-24.67 116.59,-35.02 122.56,-31.35"/>
</a>
</g>
</g>
<!-- Node5 -->
<g id="Node000005" class="node">
<title>Node5</title>
<g id="a_Node000005"><a xlink:title=" ">
<polygon fill="#e0e0e0" stroke="#999999" points="239.5,-24.5 162.5,-24.5 162.5,-5.5 239.5,-5.5 239.5,-24.5"/>
<text text-anchor="middle" x="201" y="-12.5" font-family="Helvetica,sans-Serif" font-size="10.00">minwindef.h</text>
</a>
</g>
</g>
<!-- Node2&#45;&gt;Node5 -->
<g id="edge4_Node000002_Node000005" class="edge">
<title>Node2&#45;&gt;Node5</title>
<g id="a_edge4_Node000002_Node000005"><a xlink:title=" ">
<path fill="none" stroke="#63b8ff" d="M153.26,-65.87C161.78,-56.97 175.26,-42.89 185.73,-31.95"/>
<polygon fill="#63b8ff" stroke="#63b8ff" points="188.32,-34.31 192.7,-24.67 183.26,-29.47 188.32,-34.31"/>
</a>
</g>
</g>
<!-- Node6&#45;&gt;Node5 -->
<g id="edge8_Node000006_Node000005" class="edge">
<title>Node6&#45;&gt;Node5</title>
<g id="a_edge8_Node000006_Node000005"><a xlink:title=" ">
<path fill="none" stroke="#63b8ff" d="M269.2,-65.87C256.55,-56.62 236.26,-41.78 221.09,-30.69"/>
<polygon fill="#63b8ff" stroke="#63b8ff" points="222.99,-27.74 212.85,-24.67 218.86,-33.4 222.99,-27.74"/>
</a>
</g>
</g>
<!-- Node7 -->
<g id="Node000007" class="node">
<title>Node7</title>
<g id="a_Node000007"><a xlink:title=" ">
<polygon fill="#e0e0e0" stroke="#999999" points="296,-24.5 258,-24.5 258,-5.5 296,-5.5 296,-24.5"/>
<text text-anchor="middle" x="277" y="-12.5" font-family="Helvetica,sans-Serif" font-size="10.00">QDir</text>
</a>
</g>
</g>
<!-- Node6&#45;&gt;Node7 -->
<g id="edge6_Node000006_Node000007" class="edge">
<title>Node6&#45;&gt;Node7</title>
<g id="a_edge6_Node000006_Node000007"><a xlink:title=" ">
<path fill="none" stroke="#63b8ff" d="M280.41,-65.87C279.85,-57.75 279,-45.31 278.29,-34.89"/>
<polygon fill="#63b8ff" stroke="#63b8ff" points="281.77,-34.41 277.59,-24.67 274.78,-34.88 281.77,-34.41"/>
</a>
</g>
</g>
<!-- Node8 -->
<g id="Node000008" class="node">
<title>Node8</title>
<g id="a_Node000008"><a xlink:title=" ">
<polygon fill="#e0e0e0" stroke="#999999" points="378,-24.5 314,-24.5 314,-5.5 378,-5.5 378,-24.5"/>
<text text-anchor="middle" x="346" y="-12.5" font-family="Helvetica,sans-Serif" font-size="10.00">QSettings</text>
</a>
</g>
</g>
<!-- Node6&#45;&gt;Node8 -->
<g id="edge7_Node000006_Node000008" class="edge">
<title>Node6&#45;&gt;Node8</title>
<g id="a_edge7_Node000006_Node000008"><a xlink:title=" ">
<path fill="none" stroke="#63b8ff" d="M290.59,-65.87C300.58,-56.88 316.43,-42.61 328.63,-31.64"/>
<polygon fill="#63b8ff" stroke="#63b8ff" points="331.28,-33.96 336.37,-24.67 326.6,-28.76 331.28,-33.96"/>
</a>
</g>
</g>
<!-- Node10 -->
<g id="Node000010" class="node">
<title>Node10</title>
<g id="a_Node000010"><a xlink:title=" ">
<polygon fill="#e0e0e0" stroke="#999999" points="437.5,-24.5 396.5,-24.5 396.5,-5.5 437.5,-5.5 437.5,-24.5"/>
<text text-anchor="middle" x="417" y="-12.5" font-family="Helvetica,sans-Serif" font-size="10.00">QList</text>
</a>
</g>
</g>
<!-- Node9&#45;&gt;Node10 -->
<g id="edge10_Node000009_Node000010" class="edge">
<title>Node9&#45;&gt;Node10</title>
<g id="a_edge10_Node000009_Node000010"><a xlink:title=" ">
<path fill="none" stroke="#63b8ff" d="M447.69,-65.87C442.42,-57.31 434.21,-43.97 427.61,-33.24"/>
<polygon fill="#63b8ff" stroke="#63b8ff" points="430.56,-31.35 422.33,-24.67 424.59,-35.02 430.56,-31.35"/>
</a>
</g>
</g>
<!-- Node11 -->
<g id="Node000011" class="node">
<title>Node11</title>
<g id="a_Node000011"><a xlink:title=" ">
<polygon fill="#e0e0e0" stroke="#999999" points="524,-24.5 456,-24.5 456,-5.5 524,-5.5 524,-24.5"/>
<text text-anchor="middle" x="490" y="-12.5" font-family="Helvetica,sans-Serif" font-size="10.00">windows.h</text>
</a>
</g>
</g>
<!-- Node9&#45;&gt;Node11 -->
<g id="edge11_Node000009_Node000011" class="edge">
<title>Node9&#45;&gt;Node11</title>
<g id="a_edge11_Node000009_Node000011"><a xlink:title=" ">
<path fill="none" stroke="#63b8ff" d="M458.46,-65.87C463.87,-57.31 472.31,-43.97 479.1,-33.24"/>
<polygon fill="#63b8ff" stroke="#63b8ff" points="482.13,-34.99 484.52,-24.67 476.21,-31.25 482.13,-34.99"/>
</a>
</g>
</g>
<!-- Node12 -->
<g id="Node000012" class="node">
<title>Node12</title>
<g id="a_Node000012"><a xlink:href="GameButtons_8h.html" target="_top" xlink:title=" ">
<polygon fill="white" stroke="#666666" points="669.5,-30 542.5,-30 542.5,0 669.5,0 669.5,-30"/>
<text text-anchor="start" x="550.5" y="-18" font-family="Helvetica,sans-Serif" font-size="10.00">../VGP_Data_Exchange</text>
<text text-anchor="middle" x="606" y="-7" font-family="Helvetica,sans-Serif" font-size="10.00">/C/GameButtons.h</text>
</a>
</g>
</g>
<!-- Node9&#45;&gt;Node12 -->
<g id="edge12_Node000009_Node000012" class="edge">
<title>Node9&#45;&gt;Node12</title>
<g id="a_edge12_Node000009_Node000012"><a xlink:title=" ">
<path fill="none" stroke="#63b8ff" d="M475.25,-65.99C497.27,-57.57 531.64,-44.43 559.62,-33.73"/>
<polygon fill="#63b8ff" stroke="#63b8ff" points="561.13,-36.9 569.22,-30.06 558.63,-30.37 561.13,-36.9"/>
</a>
</g>
</g>
<!-- Node13 -->
<g id="Node000013" class="node">
<title>Node13</title>
<g id="a_Node000013"><a xlink:title=" ">
<polygon fill="#e0e0e0" stroke="#999999" points="726,-24.5 688,-24.5 688,-5.5 726,-5.5 726,-24.5"/>
<text text-anchor="middle" x="707" y="-12.5" font-family="Helvetica,sans-Serif" font-size="10.00">map</text>
</a>
</g>
</g>
<!-- Node9&#45;&gt;Node13 -->
<g id="edge13_Node000009_Node000013" class="edge">
<title>Node9&#45;&gt;Node13</title>
<g id="a_edge13_Node000009_Node000013"><a xlink:title=" ">
<path fill="none" stroke="#63b8ff" d="M520.99,-65.99C566.52,-59.12 627.34,-47.64 679,-30 680.05,-29.64 681.12,-29.25 682.19,-28.83"/>
<polygon fill="#63b8ff" stroke="#63b8ff" points="683.92,-31.89 691.62,-24.62 681.07,-25.5 683.92,-31.89"/>
</a>
</g>
</g>
</g>
</svg>
