<?xml version="1.0" encoding="UTF-8" standalone="no"?>
<!DOCTYPE svg PUBLIC "-//W3C//DTD SVG 1.1//EN"
 "http://www.w3.org/Graphics/SVG/1.1/DTD/svg11.dtd">
<!-- Generated by graphviz version 2.43.0 (0)
 -->
<!-- Title: src/networking/server.cpp Pages: 1 -->
<svg width="1567pt" height="280pt"
 viewBox="0.00 0.00 1567.00 280.00" xmlns="http://www.w3.org/2000/svg" xmlns:xlink="http://www.w3.org/1999/xlink">
<g id="graph0" class="graph" transform="scale(1 1) rotate(0) translate(4 276)">
<title>src/networking/server.cpp</title>
<!-- Node1 -->
<g id="Node000001" class="node">
<title>Node1</title>
<g id="a_Node000001"><a xlink:title=" ">
<polygon fill="#999999" stroke="#666666" points="1035,-272 893,-272 893,-253 1035,-253 1035,-272"/>
<text text-anchor="middle" x="964" y="-260" font-family="Helvetica,sans-Serif" font-size="10.00">src/networking/server.cpp</text>
</a>
</g>
</g>
<!-- Node2 -->
<g id="Node000002" class="node">
<title>Node2</title>
<g id="a_Node000002"><a xlink:href="server_8hpp.html" target="_top" xlink:title=" ">
<polygon fill="white" stroke="#666666" points="189,-217 121,-217 121,-198 189,-198 189,-217"/>
<text text-anchor="middle" x="155" y="-205" font-family="Helvetica,sans-Serif" font-size="10.00">server.hpp</text>
</a>
</g>
</g>
<!-- Node1&#45;&gt;Node2 -->
<g id="edge1_Node000001_Node000002" class="edge">
<title>Node1&#45;&gt;Node2</title>
<g id="a_edge1_Node000001_Node000002"><a xlink:title=" ">
<path fill="none" stroke="#63b8ff" d="M892.92,-256.84C729.8,-246.16 332.46,-220.13 199.31,-211.4"/>
<polygon fill="#63b8ff" stroke="#63b8ff" points="199.3,-207.89 189.09,-210.73 198.84,-214.88 199.3,-207.89"/>
</a>
</g>
</g>
<!-- Node6 -->
<g id="Node000006" class="node">
<title>Node6</title>
<g id="a_Node000006"><a xlink:href="executor_8hpp.html" target="_top" xlink:title=" ">
<polygon fill="white" stroke="#666666" points="519.5,-217 440.5,-217 440.5,-198 519.5,-198 519.5,-217"/>
<text text-anchor="middle" x="480" y="-205" font-family="Helvetica,sans-Serif" font-size="10.00">executor.hpp</text>
</a>
</g>
</g>
<!-- Node1&#45;&gt;Node6 -->
<g id="edge5_Node000001_Node000006" class="edge">
<title>Node1&#45;&gt;Node6</title>
<g id="a_edge5_Node000001_Node000006"><a xlink:title=" ">
<path fill="none" stroke="#63b8ff" d="M892.84,-253.71C793.61,-242.84 616.16,-223.41 529.86,-213.96"/>
<polygon fill="#63b8ff" stroke="#63b8ff" points="530.12,-210.47 519.8,-212.86 529.36,-217.43 530.12,-210.47"/>
</a>
</g>
</g>
<!-- Node17 -->
<g id="Node000017" class="node">
<title>Node17</title>
<g id="a_Node000017"><a xlink:title=" ">
<polygon fill="#e0e0e0" stroke="#999999" points="954,-217 884,-217 884,-198 954,-198 954,-217"/>
<text text-anchor="middle" x="919" y="-205" font-family="Helvetica,sans-Serif" font-size="10.00">ui_server.h</text>
</a>
</g>
</g>
<!-- Node1&#45;&gt;Node17 -->
<g id="edge17_Node000001_Node000017" class="edge">
<title>Node1&#45;&gt;Node17</title>
<g id="a_edge17_Node000001_Node000017"><a xlink:title=" ">
<path fill="none" stroke="#63b8ff" d="M956.57,-252.75C950.15,-245.18 940.69,-234.05 932.88,-224.84"/>
<polygon fill="#63b8ff" stroke="#63b8ff" points="935.43,-222.45 926.29,-217.09 930.1,-226.98 935.43,-222.45"/>
</a>
</g>
</g>
<!-- Node18 -->
<g id="Node000018" class="node">
<title>Node18</title>
<g id="a_Node000018"><a xlink:href="qrcodegen_8hpp.html" target="_top" xlink:title=" ">
<polygon fill="white" stroke="#666666" points="935,-96 801,-96 801,-55 935,-55 935,-96"/>
<text text-anchor="start" x="809" y="-84" font-family="Helvetica,sans-Serif" font-size="10.00">../../third&#45;party&#45;libs</text>
<text text-anchor="start" x="809" y="-73" font-family="Helvetica,sans-Serif" font-size="10.00">/QR&#45;Code&#45;generator/cpp</text>
<text text-anchor="middle" x="868" y="-62" font-family="Helvetica,sans-Serif" font-size="10.00">/qrcodegen.hpp</text>
</a>
</g>
</g>
<!-- Node1&#45;&gt;Node18 -->
<g id="edge18_Node000001_Node000018" class="edge">
<title>Node1&#45;&gt;Node18</title>
<g id="a_edge18_Node000001_Node000018"><a xlink:title=" ">
<path fill="none" stroke="#63b8ff" d="M928.12,-252.98C908.99,-246.47 887,-235.37 875,-217 863.53,-199.44 864.3,-142.21 866.05,-106.44"/>
<polygon fill="#63b8ff" stroke="#63b8ff" points="869.56,-106.27 866.61,-96.09 862.57,-105.89 869.56,-106.27"/>
</a>
</g>
</g>
<!-- Node22 -->
<g id="Node000022" class="node">
<title>Node22</title>
<g id="a_Node000022"><a xlink:href="settings__key__variables_8h.html" target="_top" xlink:title=" ">
<polygon fill="white" stroke="#666666" points="805,-217 659,-217 659,-198 805,-198 805,-217"/>
<text text-anchor="middle" x="732" y="-205" font-family="Helvetica,sans-Serif" font-size="10.00">../settings_key_variables.h</text>
</a>
</g>
</g>
<!-- Node1&#45;&gt;Node22 -->
<g id="edge24_Node000001_Node000022" class="edge">
<title>Node1&#45;&gt;Node22</title>
<g id="a_edge24_Node000001_Node000022"><a xlink:title=" ">
<path fill="none" stroke="#63b8ff" d="M926.73,-252.98C886.68,-243.84 822.93,-229.27 779.36,-219.32"/>
<polygon fill="#63b8ff" stroke="#63b8ff" points="780.1,-215.9 769.57,-217.08 778.54,-222.72 780.1,-215.9"/>
</a>
</g>
</g>
<!-- Node23 -->
<g id="Node000023" class="node">
<title>Node23</title>
<g id="a_Node000023"><a xlink:title=" ">
<polygon fill="#e0e0e0" stroke="#999999" points="611.5,-156.5 570.5,-156.5 570.5,-137.5 611.5,-137.5 611.5,-156.5"/>
<text text-anchor="middle" x="591" y="-144.5" font-family="Helvetica,sans-Serif" font-size="10.00">QList</text>
</a>
</g>
</g>
<!-- Node1&#45;&gt;Node23 -->
<g id="edge32_Node000001_Node000023" class="edge">
<title>Node1&#45;&gt;Node23</title>
<g id="a_edge32_Node000001_Node000023"><a xlink:title=" ">
<path fill="none" stroke="#63b8ff" d="M892.92,-257.26C813.47,-251.5 690.6,-239.29 650,-217 628.26,-205.07 610.96,-181.74 600.85,-165.53"/>
<polygon fill="#63b8ff" stroke="#63b8ff" points="603.62,-163.34 595.51,-156.52 597.6,-166.91 603.62,-163.34"/>
</a>
</g>
</g>
<!-- Node26 -->
<g id="Node000026" class="node">
<title>Node26</title>
<g id="a_Node000026"><a xlink:title=" ">
<polygon fill="#e0e0e0" stroke="#999999" points="1045.5,-217 972.5,-217 972.5,-198 1045.5,-198 1045.5,-217"/>
<text text-anchor="middle" x="1009" y="-205" font-family="Helvetica,sans-Serif" font-size="10.00">QByteArray</text>
</a>
</g>
</g>
<!-- Node1&#45;&gt;Node26 -->
<g id="edge29_Node000001_Node000026" class="edge">
<title>Node1&#45;&gt;Node26</title>
<g id="a_edge29_Node000001_Node000026"><a xlink:title=" ">
<path fill="none" stroke="#63b8ff" d="M971.43,-252.75C977.85,-245.18 987.31,-234.05 995.12,-224.84"/>
<polygon fill="#63b8ff" stroke="#63b8ff" points="997.9,-226.98 1001.71,-217.09 992.57,-222.45 997.9,-226.98"/>
</a>
</g>
</g>
<!-- Node27 -->
<g id="Node000027" class="node">
<title>Node27</title>
<g id="a_Node000027"><a xlink:title=" ">
<polygon fill="#e0e0e0" stroke="#999999" points="1146.5,-217 1063.5,-217 1063.5,-198 1146.5,-198 1146.5,-217"/>
<text text-anchor="middle" x="1105" y="-205" font-family="Helvetica,sans-Serif" font-size="10.00">QDataStream</text>
</a>
</g>
</g>
<!-- Node1&#45;&gt;Node27 -->
<g id="edge30_Node000001_Node000027" class="edge">
<title>Node1&#45;&gt;Node27</title>
<g id="a_edge30_Node000001_Node000027"><a xlink:title=" ">
<path fill="none" stroke="#63b8ff" d="M986.65,-252.98C1009.85,-244.27 1046.12,-230.63 1072.4,-220.75"/>
<polygon fill="#63b8ff" stroke="#63b8ff" points="1073.8,-223.97 1081.93,-217.17 1071.34,-217.41 1073.8,-223.97"/>
</a>
</g>
</g>
<!-- Node28 -->
<g id="Node000028" class="node">
<title>Node28</title>
<g id="a_Node000028"><a xlink:title=" ">
<polygon fill="#e0e0e0" stroke="#999999" points="1251,-217 1165,-217 1165,-198 1251,-198 1251,-217"/>
<text text-anchor="middle" x="1208" y="-205" font-family="Helvetica,sans-Serif" font-size="10.00">QHostAddress</text>
</a>
</g>
</g>
<!-- Node1&#45;&gt;Node28 -->
<g id="edge31_Node000001_Node000028" class="edge">
<title>Node1&#45;&gt;Node28</title>
<g id="a_edge31_Node000001_Node000028"><a xlink:title=" ">
<path fill="none" stroke="#63b8ff" d="M1003.2,-252.98C1045.41,-243.82 1112.65,-229.21 1158.48,-219.26"/>
<polygon fill="#63b8ff" stroke="#63b8ff" points="1159.46,-222.63 1168.49,-217.08 1157.97,-215.78 1159.46,-222.63"/>
</a>
</g>
</g>
<!-- Node29 -->
<g id="Node000029" class="node">
<title>Node29</title>
<g id="a_Node000029"><a xlink:title=" ">
<polygon fill="#e0e0e0" stroke="#999999" points="1355,-217 1269,-217 1269,-198 1355,-198 1355,-217"/>
<text text-anchor="middle" x="1312" y="-205" font-family="Helvetica,sans-Serif" font-size="10.00">QMessageBox</text>
</a>
</g>
</g>
<!-- Node1&#45;&gt;Node29 -->
<g id="edge33_Node000001_Node000029" class="edge">
<title>Node1&#45;&gt;Node29</title>
<g id="a_edge33_Node000001_Node000029"><a xlink:title=" ">
<path fill="none" stroke="#63b8ff" d="M1022.16,-252.98C1079.72,-244.5 1170.61,-230.97 1258.95,-217.15"/>
<polygon fill="#63b8ff" stroke="#63b8ff" points="1259.54,-220.6 1268.88,-215.59 1258.46,-213.68 1259.54,-220.6"/>
</a>
</g>
</g>
<!-- Node30 -->
<g id="Node000030" class="node">
<title>Node30</title>
<g id="a_Node000030"><a xlink:title=" ">
<polygon fill="#e0e0e0" stroke="#999999" points="1482.5,-217 1373.5,-217 1373.5,-198 1482.5,-198 1482.5,-217"/>
<text text-anchor="middle" x="1428" y="-205" font-family="Helvetica,sans-Serif" font-size="10.00">QNetworkInterface</text>
</a>
</g>
</g>
<!-- Node1&#45;&gt;Node30 -->
<g id="edge34_Node000001_Node000030" class="edge">
<title>Node1&#45;&gt;Node30</title>
<g id="a_edge34_Node000001_Node000030"><a xlink:title=" ">
<path fill="none" stroke="#63b8ff" d="M1035.23,-254.04C1113.07,-245.78 1241.76,-231.82 1362.99,-217.1"/>
<polygon fill="#63b8ff" stroke="#63b8ff" points="1363.69,-220.54 1373.2,-215.86 1362.85,-213.59 1363.69,-220.54"/>
</a>
</g>
</g>
<!-- Node31 -->
<g id="Node000031" class="node">
<title>Node31</title>
<g id="a_Node000031"><a xlink:title=" ">
<polygon fill="#e0e0e0" stroke="#999999" points="1559,-217 1501,-217 1501,-198 1559,-198 1559,-217"/>
<text text-anchor="middle" x="1530" y="-205" font-family="Helvetica,sans-Serif" font-size="10.00">QThread</text>
</a>
</g>
</g>
<!-- Node1&#45;&gt;Node31 -->
<g id="edge35_Node000001_Node000031" class="edge">
<title>Node1&#45;&gt;Node31</title>
<g id="a_edge35_Node000001_Node000031"><a xlink:title=" ">
<path fill="none" stroke="#63b8ff" d="M1035.25,-258.57C1135.04,-253.79 1322.2,-242.33 1490.58,-217.02"/>
<polygon fill="#63b8ff" stroke="#63b8ff" points="1491.26,-220.45 1500.62,-215.49 1490.2,-213.53 1491.26,-220.45"/>
</a>
</g>
</g>
<!-- Node3 -->
<g id="Node000003" class="node">
<title>Node3</title>
<g id="a_Node000003"><a xlink:title=" ">
<polygon fill="#e0e0e0" stroke="#999999" points="56,-156.5 0,-156.5 0,-137.5 56,-137.5 56,-156.5"/>
<text text-anchor="middle" x="28" y="-144.5" font-family="Helvetica,sans-Serif" font-size="10.00">QDialog</text>
</a>
</g>
</g>
<!-- Node2&#45;&gt;Node3 -->
<g id="edge2_Node000002_Node000003" class="edge">
<title>Node2&#45;&gt;Node3</title>
<g id="a_edge2_Node000002_Node000003"><a xlink:title=" ">
<path fill="none" stroke="#63b8ff" d="M136.53,-197.99C115.28,-188.2 80.15,-172.02 55.63,-160.73"/>
<polygon fill="#63b8ff" stroke="#63b8ff" points="57.04,-157.52 46.49,-156.52 54.11,-163.88 57.04,-157.52"/>
</a>
</g>
</g>
<!-- Node4 -->
<g id="Node000004" class="node">
<title>Node4</title>
<g id="a_Node000004"><a xlink:title=" ">
<polygon fill="#e0e0e0" stroke="#999999" points="145.5,-156.5 74.5,-156.5 74.5,-137.5 145.5,-137.5 145.5,-156.5"/>
<text text-anchor="middle" x="110" y="-144.5" font-family="Helvetica,sans-Serif" font-size="10.00">QTcpServer</text>
</a>
</g>
</g>
<!-- Node2&#45;&gt;Node4 -->
<g id="edge3_Node000002_Node000004" class="edge">
<title>Node2&#45;&gt;Node4</title>
<g id="a_edge3_Node000002_Node000004"><a xlink:title=" ">
<path fill="none" stroke="#63b8ff" d="M148.36,-197.87C141.71,-189.23 131.31,-175.7 123.01,-164.92"/>
<polygon fill="#63b8ff" stroke="#63b8ff" points="125.54,-162.46 116.67,-156.67 119.99,-166.73 125.54,-162.46"/>
</a>
</g>
</g>
<!-- Node5 -->
<g id="Node000005" class="node">
<title>Node5</title>
<g id="a_Node000005"><a xlink:title=" ">
<polygon fill="#e0e0e0" stroke="#999999" points="236,-156.5 164,-156.5 164,-137.5 236,-137.5 236,-156.5"/>
<text text-anchor="middle" x="200" y="-144.5" font-family="Helvetica,sans-Serif" font-size="10.00">QTcpSocket</text>
</a>
</g>
</g>
<!-- Node2&#45;&gt;Node5 -->
<g id="edge4_Node000002_Node000005" class="edge">
<title>Node2&#45;&gt;Node5</title>
<g id="a_edge4_Node000002_Node000005"><a xlink:title=" ">
<path fill="none" stroke="#63b8ff" d="M161.64,-197.87C168.29,-189.23 178.69,-175.7 186.99,-164.92"/>
<polygon fill="#63b8ff" stroke="#63b8ff" points="190.01,-166.73 193.33,-156.67 184.46,-162.46 190.01,-166.73"/>
</a>
</g>
</g>
<!-- Node7 -->
<g id="Node000007" class="node">
<title>Node7</title>
<g id="a_Node000007"><a xlink:href="Colfer_8h.html" target="_top" xlink:title=" ">
<polygon fill="white" stroke="#666666" points="390,-162 254,-162 254,-132 390,-132 390,-162"/>
<text text-anchor="start" x="262" y="-150" font-family="Helvetica,sans-Serif" font-size="10.00">../../VGP_Data_Exchange</text>
<text text-anchor="middle" x="322" y="-139" font-family="Helvetica,sans-Serif" font-size="10.00">/C/Colfer.h</text>
</a>
</g>
</g>
<!-- Node6&#45;&gt;Node7 -->
<g id="edge6_Node000006_Node000007" class="edge">
<title>Node6&#45;&gt;Node7</title>
<g id="a_edge6_Node000006_Node000007"><a xlink:title=" ">
<path fill="none" stroke="#63b8ff" d="M457.03,-197.99C434.19,-189.54 398.48,-176.32 369.52,-165.59"/>
<polygon fill="#63b8ff" stroke="#63b8ff" points="370.58,-162.25 359.99,-162.06 368.15,-168.82 370.58,-162.25"/>
</a>
</g>
</g>
<!-- Node11 -->
<g id="Node000011" class="node">
<title>Node11</title>
<g id="a_Node000011"><a xlink:href="simulate_8hpp.html" target="_top" xlink:title=" ">
<polygon fill="white" stroke="#666666" points="552,-156.5 408,-156.5 408,-137.5 552,-137.5 552,-156.5"/>
<text text-anchor="middle" x="480" y="-144.5" font-family="Helvetica,sans-Serif" font-size="10.00">../simulation/simulate.hpp</text>
</a>
</g>
</g>
<!-- Node6&#45;&gt;Node11 -->
<g id="edge10_Node000006_Node000011" class="edge">
<title>Node6&#45;&gt;Node11</title>
<g id="a_edge10_Node000006_Node000011"><a xlink:title=" ">
<path fill="none" stroke="#63b8ff" d="M480,-197.87C480,-189.75 480,-177.31 480,-166.89"/>
<polygon fill="#63b8ff" stroke="#63b8ff" points="483.5,-166.67 480,-156.67 476.5,-166.67 483.5,-166.67"/>
</a>
</g>
</g>
<!-- Node8 -->
<g id="Node000008" class="node">
<title>Node8</title>
<g id="a_Node000008"><a xlink:title=" ">
<polygon fill="#e0e0e0" stroke="#999999" points="277.5,-85 224.5,-85 224.5,-66 277.5,-66 277.5,-85"/>
<text text-anchor="middle" x="251" y="-73" font-family="Helvetica,sans-Serif" font-size="10.00">limits.h</text>
</a>
</g>
</g>
<!-- Node7&#45;&gt;Node8 -->
<g id="edge7_Node000007_Node000008" class="edge">
<title>Node7&#45;&gt;Node8</title>
<g id="a_edge7_Node000007_Node000008"><a xlink:title=" ">
<path fill="none" stroke="#63b8ff" d="M307.63,-131.94C295.93,-120.48 279.42,-104.32 267.24,-92.4"/>
<polygon fill="#63b8ff" stroke="#63b8ff" points="269.55,-89.76 259.96,-85.27 264.65,-94.76 269.55,-89.76"/>
</a>
</g>
</g>
<!-- Node9 -->
<g id="Node000009" class="node">
<title>Node9</title>
<g id="a_Node000009"><a xlink:title=" ">
<polygon fill="#e0e0e0" stroke="#999999" points="348.5,-85 295.5,-85 295.5,-66 348.5,-66 348.5,-85"/>
<text text-anchor="middle" x="322" y="-73" font-family="Helvetica,sans-Serif" font-size="10.00">stdint.h</text>
</a>
</g>
</g>
<!-- Node7&#45;&gt;Node9 -->
<g id="edge8_Node000007_Node000009" class="edge">
<title>Node7&#45;&gt;Node9</title>
<g id="a_edge8_Node000007_Node000009"><a xlink:title=" ">
<path fill="none" stroke="#63b8ff" d="M322,-131.94C322,-121.46 322,-107.05 322,-95.55"/>
<polygon fill="#63b8ff" stroke="#63b8ff" points="325.5,-95.27 322,-85.27 318.5,-95.27 325.5,-95.27"/>
</a>
</g>
</g>
<!-- Node10 -->
<g id="Node000010" class="node">
<title>Node10</title>
<g id="a_Node000010"><a xlink:title=" ">
<polygon fill="#e0e0e0" stroke="#999999" points="419.5,-85 366.5,-85 366.5,-66 419.5,-66 419.5,-85"/>
<text text-anchor="middle" x="393" y="-73" font-family="Helvetica,sans-Serif" font-size="10.00">string.h</text>
</a>
</g>
</g>
<!-- Node7&#45;&gt;Node10 -->
<g id="edge9_Node000007_Node000010" class="edge">
<title>Node7&#45;&gt;Node10</title>
<g id="a_edge9_Node000007_Node000010"><a xlink:title=" ">
<path fill="none" stroke="#63b8ff" d="M336.37,-131.94C348.07,-120.48 364.58,-104.32 376.76,-92.4"/>
<polygon fill="#63b8ff" stroke="#63b8ff" points="379.35,-94.76 384.04,-85.27 374.45,-89.76 379.35,-94.76"/>
</a>
</g>
</g>
<!-- Node12 -->
<g id="Node000012" class="node">
<title>Node12</title>
<g id="a_Node000012"><a xlink:href="keyboardSim_8hpp.html" target="_top" xlink:title="Simulates keyboard input in Windows.">
<polygon fill="white" stroke="#666666" points="769.5,-85 668.5,-85 668.5,-66 769.5,-66 769.5,-85"/>
<text text-anchor="middle" x="719" y="-73" font-family="Helvetica,sans-Serif" font-size="10.00">keyboardSim.hpp</text>
</a>
</g>
</g>
<!-- Node11&#45;&gt;Node12 -->
<g id="edge11_Node000011_Node000012" class="edge">
<title>Node11&#45;&gt;Node12</title>
<g id="a_edge11_Node000011_Node000012"><a xlink:title=" ">
<path fill="none" stroke="#63b8ff" d="M509.31,-137.48C552.13,-125.02 631.9,-101.83 679.75,-87.91"/>
<polygon fill="#63b8ff" stroke="#63b8ff" points="680.83,-91.24 689.45,-85.09 678.87,-84.52 680.83,-91.24"/>
</a>
</g>
</g>
<!-- Node16 -->
<g id="Node000016" class="node">
<title>Node16</title>
<g id="a_Node000016"><a xlink:href="mouseSim_8hpp.html" target="_top" xlink:title="Simulates mouse input in Windows.">
<polygon fill="white" stroke="#666666" points="569.5,-85 480.5,-85 480.5,-66 569.5,-66 569.5,-85"/>
<text text-anchor="middle" x="525" y="-73" font-family="Helvetica,sans-Serif" font-size="10.00">mouseSim.hpp</text>
</a>
</g>
</g>
<!-- Node11&#45;&gt;Node16 -->
<g id="edge15_Node000011_Node000016" class="edge">
<title>Node11&#45;&gt;Node16</title>
<g id="a_edge15_Node000011_Node000016"><a xlink:title=" ">
<path fill="none" stroke="#63b8ff" d="M485.52,-137.48C492.54,-126.64 504.82,-107.66 513.83,-93.75"/>
<polygon fill="#63b8ff" stroke="#63b8ff" points="516.94,-95.39 519.44,-85.09 511.06,-91.58 516.94,-95.39"/>
</a>
</g>
</g>
<!-- Node13 -->
<g id="Node000013" class="node">
<title>Node13</title>
<g id="a_Node000013"><a xlink:title=" ">
<polygon fill="#e0e0e0" stroke="#999999" points="674,-19 606,-19 606,0 674,0 674,-19"/>
<text text-anchor="middle" x="640" y="-7" font-family="Helvetica,sans-Serif" font-size="10.00">windows.h</text>
</a>
</g>
</g>
<!-- Node12&#45;&gt;Node13 -->
<g id="edge12_Node000012_Node000013" class="edge">
<title>Node12&#45;&gt;Node13</title>
<g id="a_edge12_Node000012_Node000013"><a xlink:title=" ">
<path fill="none" stroke="#63b8ff" d="M708.35,-65.87C695.62,-55.56 674.12,-38.15 658.63,-25.59"/>
<polygon fill="#63b8ff" stroke="#63b8ff" points="660.71,-22.77 650.74,-19.2 656.3,-28.21 660.71,-22.77"/>
</a>
</g>
</g>
<!-- Node14 -->
<g id="Node000014" class="node">
<title>Node14</title>
<g id="a_Node000014"><a xlink:title=" ">
<polygon fill="#e0e0e0" stroke="#999999" points="805,-19 761,-19 761,0 805,0 805,-19"/>
<text text-anchor="middle" x="783" y="-7" font-family="Helvetica,sans-Serif" font-size="10.00">string</text>
</a>
</g>
</g>
<!-- Node12&#45;&gt;Node14 -->
<g id="edge13_Node000012_Node000014" class="edge">
<title>Node12&#45;&gt;Node14</title>
<g id="a_edge13_Node000012_Node000014"><a xlink:title=" ">
<path fill="none" stroke="#63b8ff" d="M727.63,-65.87C737.69,-55.81 754.52,-38.98 766.99,-26.51"/>
<polygon fill="#63b8ff" stroke="#63b8ff" points="769.5,-28.95 774.09,-19.41 764.55,-24 769.5,-28.95"/>
</a>
</g>
</g>
<!-- Node15 -->
<g id="Node000015" class="node">
<title>Node15</title>
<g id="a_Node000015"><a xlink:title=" ">
<polygon fill="#e0e0e0" stroke="#999999" points="742.5,-19 695.5,-19 695.5,0 742.5,0 742.5,-19"/>
<text text-anchor="middle" x="719" y="-7" font-family="Helvetica,sans-Serif" font-size="10.00">vector</text>
</a>
</g>
</g>
<!-- Node12&#45;&gt;Node15 -->
<g id="edge14_Node000012_Node000015" class="edge">
<title>Node12&#45;&gt;Node15</title>
<g id="a_edge14_Node000012_Node000015"><a xlink:title=" ">
<path fill="none" stroke="#63b8ff" d="M719,-65.87C719,-56.66 719,-41.79 719,-29.77"/>
<polygon fill="#63b8ff" stroke="#63b8ff" points="722.5,-29.41 719,-19.41 715.5,-29.41 722.5,-29.41"/>
</a>
</g>
</g>
<!-- Node16&#45;&gt;Node13 -->
<g id="edge16_Node000016_Node000013" class="edge">
<title>Node16&#45;&gt;Node13</title>
<g id="a_edge16_Node000016_Node000013"><a xlink:title=" ">
<path fill="none" stroke="#63b8ff" d="M540.51,-65.87C559.71,-55.18 592.66,-36.85 615.35,-24.22"/>
<polygon fill="#63b8ff" stroke="#63b8ff" points="617.33,-27.12 624.37,-19.2 613.93,-21 617.33,-27.12"/>
</a>
</g>
</g>
<!-- Node18&#45;&gt;Node14 -->
<g id="edge22_Node000018_Node000014" class="edge">
<title>Node18&#45;&gt;Node14</title>
<g id="a_edge22_Node000018_Node000014"><a xlink:title=" ">
<path fill="none" stroke="#63b8ff" d="M842.04,-54.95C829.43,-45.46 814.53,-34.24 802.85,-25.44"/>
<polygon fill="#63b8ff" stroke="#63b8ff" points="804.73,-22.48 794.64,-19.26 800.52,-28.07 804.73,-22.48"/>
</a>
</g>
</g>
<!-- Node18&#45;&gt;Node15 -->
<g id="edge23_Node000018_Node000015" class="edge">
<title>Node18&#45;&gt;Node15</title>
<g id="a_edge23_Node000018_Node000015"><a xlink:title=" ">
<path fill="none" stroke="#63b8ff" d="M822.49,-54.95C798.4,-44.6 769.53,-32.2 748.4,-23.13"/>
<polygon fill="#63b8ff" stroke="#63b8ff" points="749.57,-19.82 739,-19.09 746.81,-26.25 749.57,-19.82"/>
</a>
</g>
</g>
<!-- Node19 -->
<g id="Node000019" class="node">
<title>Node19</title>
<g id="a_Node000019"><a xlink:title=" ">
<polygon fill="#e0e0e0" stroke="#999999" points="865,-19 823,-19 823,0 865,0 865,-19"/>
<text text-anchor="middle" x="844" y="-7" font-family="Helvetica,sans-Serif" font-size="10.00">array</text>
</a>
</g>
</g>
<!-- Node18&#45;&gt;Node19 -->
<g id="edge19_Node000018_Node000019" class="edge">
<title>Node18&#45;&gt;Node19</title>
<g id="a_edge19_Node000018_Node000019"><a xlink:title=" ">
<path fill="none" stroke="#63b8ff" d="M860.67,-54.95C857.53,-46.58 853.88,-36.85 850.8,-28.64"/>
<polygon fill="#63b8ff" stroke="#63b8ff" points="854.07,-27.39 847.29,-19.26 847.52,-29.85 854.07,-27.39"/>
</a>
</g>
</g>
<!-- Node20 -->
<g id="Node000020" class="node">
<title>Node20</title>
<g id="a_Node000020"><a xlink:title=" ">
<polygon fill="#e0e0e0" stroke="#999999" points="933,-19 883,-19 883,0 933,0 933,-19"/>
<text text-anchor="middle" x="908" y="-7" font-family="Helvetica,sans-Serif" font-size="10.00">cstdint</text>
</a>
</g>
</g>
<!-- Node18&#45;&gt;Node20 -->
<g id="edge20_Node000018_Node000020" class="edge">
<title>Node18&#45;&gt;Node20</title>
<g id="a_edge20_Node000018_Node000020"><a xlink:title=" ">
<path fill="none" stroke="#63b8ff" d="M880.22,-54.95C885.63,-46.3 891.94,-36.2 897.17,-27.82"/>
<polygon fill="#63b8ff" stroke="#63b8ff" points="900.19,-29.6 902.52,-19.26 894.26,-25.89 900.19,-29.6"/>
</a>
</g>
</g>
<!-- Node21 -->
<g id="Node000021" class="node">
<title>Node21</title>
<g id="a_Node000021"><a xlink:title=" ">
<polygon fill="#e0e0e0" stroke="#999999" points="1016.5,-19 951.5,-19 951.5,0 1016.5,0 1016.5,-19"/>
<text text-anchor="middle" x="984" y="-7" font-family="Helvetica,sans-Serif" font-size="10.00">stdexcept</text>
</a>
</g>
</g>
<!-- Node18&#45;&gt;Node21 -->
<g id="edge21_Node000018_Node000021" class="edge">
<title>Node18&#45;&gt;Node21</title>
<g id="a_edge21_Node000018_Node000021"><a xlink:title=" ">
<path fill="none" stroke="#63b8ff" d="M903.43,-54.95C921.59,-44.93 943.24,-32.99 959.53,-24"/>
<polygon fill="#63b8ff" stroke="#63b8ff" points="961.36,-26.99 968.43,-19.09 957.98,-20.86 961.36,-26.99"/>
</a>
</g>
</g>
<!-- Node22&#45;&gt;Node13 -->
<g id="edge26_Node000022_Node000013" class="edge">
<title>Node22&#45;&gt;Node13</title>
<g id="a_edge26_Node000022_Node000013"><a xlink:title=" ">
<path fill="none" stroke="#63b8ff" d="M707.21,-197.97C690.76,-190.95 670.2,-179.32 659,-162 632.32,-120.75 634.31,-59.83 637.44,-29.33"/>
<polygon fill="#63b8ff" stroke="#63b8ff" points="640.94,-29.58 638.64,-19.24 633.99,-28.76 640.94,-29.58"/>
</a>
</g>
</g>
<!-- Node22&#45;&gt;Node23 -->
<g id="edge25_Node000022_Node000023" class="edge">
<title>Node22&#45;&gt;Node23</title>
<g id="a_edge25_Node000022_Node000023"><a xlink:title=" ">
<path fill="none" stroke="#63b8ff" d="M711.5,-197.99C687.69,-188.12 648.21,-171.73 620.96,-160.43"/>
<polygon fill="#63b8ff" stroke="#63b8ff" points="622.11,-157.12 611.53,-156.52 619.42,-163.58 622.11,-157.12"/>
</a>
</g>
</g>
<!-- Node24 -->
<g id="Node000024" class="node">
<title>Node24</title>
<g id="a_Node000024"><a xlink:href="GameButtons_8h.html" target="_top" xlink:title=" ">
<polygon fill="white" stroke="#666666" points="795.5,-162 668.5,-162 668.5,-132 795.5,-132 795.5,-162"/>
<text text-anchor="start" x="676.5" y="-150" font-family="Helvetica,sans-Serif" font-size="10.00">../VGP_Data_Exchange</text>
<text text-anchor="middle" x="732" y="-139" font-family="Helvetica,sans-Serif" font-size="10.00">/C/GameButtons.h</text>
</a>
</g>
</g>
<!-- Node22&#45;&gt;Node24 -->
<g id="edge27_Node000022_Node000024" class="edge">
<title>Node22&#45;&gt;Node24</title>
<g id="a_edge27_Node000022_Node000024"><a xlink:title=" ">
<path fill="none" stroke="#63b8ff" d="M732,-197.87C732,-191.11 732,-181.35 732,-172.26"/>
<polygon fill="#63b8ff" stroke="#63b8ff" points="735.5,-172.11 732,-162.11 728.5,-172.11 735.5,-172.11"/>
</a>
</g>
</g>
<!-- Node25 -->
<g id="Node000025" class="node">
<title>Node25</title>
<g id="a_Node000025"><a xlink:title=" ">
<polygon fill="#e0e0e0" stroke="#999999" points="852,-156.5 814,-156.5 814,-137.5 852,-137.5 852,-156.5"/>
<text text-anchor="middle" x="833" y="-144.5" font-family="Helvetica,sans-Serif" font-size="10.00">map</text>
</a>
</g>
</g>
<!-- Node22&#45;&gt;Node25 -->
<g id="edge28_Node000022_Node000025" class="edge">
<title>Node22&#45;&gt;Node25</title>
<g id="a_edge28_Node000022_Node000025"><a xlink:title=" ">
<path fill="none" stroke="#63b8ff" d="M746.9,-197.87C763.31,-188.36 789.93,-172.95 809.23,-161.77"/>
<polygon fill="#63b8ff" stroke="#63b8ff" points="811.14,-164.71 818.04,-156.67 807.63,-158.65 811.14,-164.71"/>
</a>
</g>
</g>
</g>
</svg>
