<?xml version="1.0" encoding="UTF-8" standalone="no"?>
<!DOCTYPE svg PUBLIC "-//W3C//DTD SVG 1.1//EN"
 "http://www.w3.org/Graphics/SVG/1.1/DTD/svg11.dtd">
<!-- Generated by graphviz version 2.43.0 (0)
 -->
<!-- Title: src/networking/server.cpp Pages: 1 -->
<svg width="1547pt" height="280pt"
 viewBox="0.00 0.00 1547.00 280.00" xmlns="http://www.w3.org/2000/svg" xmlns:xlink="http://www.w3.org/1999/xlink">
<g id="graph0" class="graph" transform="scale(1 1) rotate(0) translate(4 276)">
<title>src/networking/server.cpp</title>
<!-- Node1 -->
<g id="Node000001" class="node">
<title>Node1</title>
<g id="a_Node000001"><a xlink:title=" ">
<polygon fill="#999999" stroke="#666666" points="970,-272 828,-272 828,-253 970,-253 970,-272"/>
<text text-anchor="middle" x="899" y="-260" font-family="Helvetica,sans-Serif" font-size="10.00">src/networking/server.cpp</text>
</a>
</g>
</g>
<!-- Node2 -->
<g id="Node000002" class="node">
<title>Node2</title>
<g id="a_Node000002"><a xlink:href="server_8hpp.html" target="_top" xlink:title=" ">
<polygon fill="white" stroke="#666666" points="189,-217 121,-217 121,-198 189,-198 189,-217"/>
<text text-anchor="middle" x="155" y="-205" font-family="Helvetica,sans-Serif" font-size="10.00">server.hpp</text>
</a>
</g>
</g>
<!-- Node1&#45;&gt;Node2 -->
<g id="edge1_Node000001_Node000002" class="edge">
<title>Node1&#45;&gt;Node2</title>
<g id="a_edge1_Node000001_Node000002"><a xlink:title=" ">
<path fill="none" stroke="#63b8ff" d="M828,-256.44C676.24,-245.63 323.98,-220.54 199.53,-211.67"/>
<polygon fill="#63b8ff" stroke="#63b8ff" points="199.46,-208.16 189.24,-210.94 198.97,-215.14 199.46,-208.16"/>
</a>
</g>
</g>
<!-- Node6 -->
<g id="Node000006" class="node">
<title>Node6</title>
<g id="a_Node000006"><a xlink:href="executor_8hpp.html" target="_top" xlink:title=" ">
<polygon fill="white" stroke="#666666" points="519.5,-217 440.5,-217 440.5,-198 519.5,-198 519.5,-217"/>
<text text-anchor="middle" x="480" y="-205" font-family="Helvetica,sans-Serif" font-size="10.00">executor.hpp</text>
</a>
</g>
</g>
<!-- Node1&#45;&gt;Node6 -->
<g id="edge5_Node000001_Node000006" class="edge">
<title>Node1&#45;&gt;Node6</title>
<g id="a_edge5_Node000001_Node000006"><a xlink:title=" ">
<path fill="none" stroke="#63b8ff" d="M831.68,-252.98C747.39,-242.32 604.97,-224.31 529.84,-214.8"/>
<polygon fill="#63b8ff" stroke="#63b8ff" points="530.05,-211.3 519.69,-213.52 529.18,-218.25 530.05,-211.3"/>
</a>
</g>
</g>
<!-- Node7 -->
<g id="Node000007" class="node">
<title>Node7</title>
<g id="a_Node000007"><a xlink:href="Colfer_8h.html" target="_top" xlink:title=" ">
<polygon fill="white" stroke="#666666" points="390,-162 254,-162 254,-132 390,-132 390,-162"/>
<text text-anchor="start" x="262" y="-150" font-family="Helvetica,sans-Serif" font-size="10.00">../../VGP_Data_Exchange</text>
<text text-anchor="middle" x="322" y="-139" font-family="Helvetica,sans-Serif" font-size="10.00">/C/Colfer.h</text>
</a>
</g>
</g>
<!-- Node1&#45;&gt;Node7 -->
<g id="edge18_Node000001_Node000007" class="edge">
<title>Node1&#45;&gt;Node7</title>
<g id="a_edge18_Node000001_Node000007"><a xlink:title=" ">
<path fill="none" stroke="#63b8ff" d="M827.91,-258.79C715.6,-253.83 502.53,-241.47 431,-217 399.52,-206.23 367.88,-184.73 346.86,-168.58"/>
<polygon fill="#63b8ff" stroke="#63b8ff" points="348.83,-165.67 338.8,-162.25 344.5,-171.18 348.83,-165.67"/>
</a>
</g>
</g>
<!-- Node17 -->
<g id="Node000017" class="node">
<title>Node17</title>
<g id="a_Node000017"><a xlink:title=" ">
<polygon fill="#e0e0e0" stroke="#999999" points="934,-217 864,-217 864,-198 934,-198 934,-217"/>
<text text-anchor="middle" x="899" y="-205" font-family="Helvetica,sans-Serif" font-size="10.00">ui_server.h</text>
</a>
</g>
</g>
<!-- Node1&#45;&gt;Node17 -->
<g id="edge17_Node000001_Node000017" class="edge">
<title>Node1&#45;&gt;Node17</title>
<g id="a_edge17_Node000001_Node000017"><a xlink:title=" ">
<path fill="none" stroke="#63b8ff" d="M899,-252.75C899,-245.8 899,-235.85 899,-227.13"/>
<polygon fill="#63b8ff" stroke="#63b8ff" points="902.5,-227.09 899,-217.09 895.5,-227.09 902.5,-227.09"/>
</a>
</g>
</g>
<!-- Node18 -->
<g id="Node000018" class="node">
<title>Node18</title>
<g id="a_Node000018"><a xlink:href="qrcodegen_8hpp.html" target="_top" xlink:title=" ">
<polygon fill="white" stroke="#666666" points="1124,-96 990,-96 990,-55 1124,-55 1124,-96"/>
<text text-anchor="start" x="998" y="-84" font-family="Helvetica,sans-Serif" font-size="10.00">../../third&#45;party&#45;libs</text>
<text text-anchor="start" x="998" y="-73" font-family="Helvetica,sans-Serif" font-size="10.00">/QR&#45;Code&#45;generator/cpp</text>
<text text-anchor="middle" x="1057" y="-62" font-family="Helvetica,sans-Serif" font-size="10.00">/qrcodegen.hpp</text>
</a>
</g>
</g>
<!-- Node1&#45;&gt;Node18 -->
<g id="edge19_Node000001_Node000018" class="edge">
<title>Node1&#45;&gt;Node18</title>
<g id="a_edge19_Node000001_Node000018"><a xlink:title=" ">
<path fill="none" stroke="#63b8ff" d="M885.68,-252.99C868.82,-241.11 843.31,-218.66 855,-198 882.33,-149.68 937.41,-118.45 983.17,-99.77"/>
<polygon fill="#63b8ff" stroke="#63b8ff" points="984.47,-103.02 992.48,-96.09 981.89,-96.51 984.47,-103.02"/>
</a>
</g>
</g>
<!-- Node22 -->
<g id="Node000022" class="node">
<title>Node22</title>
<g id="a_Node000022"><a xlink:href="settings__key__variables_8h.html" target="_top" xlink:title=" ">
<polygon fill="white" stroke="#666666" points="808,-217 662,-217 662,-198 808,-198 808,-217"/>
<text text-anchor="middle" x="735" y="-205" font-family="Helvetica,sans-Serif" font-size="10.00">../settings_key_variables.h</text>
</a>
</g>
</g>
<!-- Node1&#45;&gt;Node22 -->
<g id="edge25_Node000001_Node000022" class="edge">
<title>Node1&#45;&gt;Node22</title>
<g id="a_edge25_Node000001_Node000022"><a xlink:title=" ">
<path fill="none" stroke="#63b8ff" d="M872.65,-252.98C845.24,-244.13 802.11,-230.19 771.44,-220.28"/>
<polygon fill="#63b8ff" stroke="#63b8ff" points="772.15,-216.83 761.56,-217.08 770,-223.49 772.15,-216.83"/>
</a>
</g>
</g>
<!-- Node23 -->
<g id="Node000023" class="node">
<title>Node23</title>
<g id="a_Node000023"><a xlink:title=" ">
<polygon fill="#e0e0e0" stroke="#999999" points="611.5,-156.5 570.5,-156.5 570.5,-137.5 611.5,-137.5 611.5,-156.5"/>
<text text-anchor="middle" x="591" y="-144.5" font-family="Helvetica,sans-Serif" font-size="10.00">QList</text>
</a>
</g>
</g>
<!-- Node1&#45;&gt;Node23 -->
<g id="edge33_Node000001_Node000023" class="edge">
<title>Node1&#45;&gt;Node23</title>
<g id="a_edge33_Node000001_Node000023"><a xlink:title=" ">
<path fill="none" stroke="#63b8ff" d="M827.85,-260.73C776.38,-257.4 706.73,-246.97 653,-217 630.9,-204.67 612.57,-181.47 601.71,-165.4"/>
<polygon fill="#63b8ff" stroke="#63b8ff" points="604.57,-163.39 596.2,-156.9 598.7,-167.19 604.57,-163.39"/>
</a>
</g>
</g>
<!-- Node26 -->
<g id="Node000026" class="node">
<title>Node26</title>
<g id="a_Node000026"><a xlink:title=" ">
<polygon fill="#e0e0e0" stroke="#999999" points="1025.5,-217 952.5,-217 952.5,-198 1025.5,-198 1025.5,-217"/>
<text text-anchor="middle" x="989" y="-205" font-family="Helvetica,sans-Serif" font-size="10.00">QByteArray</text>
</a>
</g>
</g>
<!-- Node1&#45;&gt;Node26 -->
<g id="edge30_Node000001_Node000026" class="edge">
<title>Node1&#45;&gt;Node26</title>
<g id="a_edge30_Node000001_Node000026"><a xlink:title=" ">
<path fill="none" stroke="#63b8ff" d="M913.46,-252.98C927.42,-244.77 948.79,-232.18 965.25,-222.49"/>
<polygon fill="#63b8ff" stroke="#63b8ff" points="967.44,-225.26 974.28,-217.17 963.88,-219.23 967.44,-225.26"/>
</a>
</g>
</g>
<!-- Node27 -->
<g id="Node000027" class="node">
<title>Node27</title>
<g id="a_Node000027"><a xlink:title=" ">
<polygon fill="#e0e0e0" stroke="#999999" points="1126.5,-217 1043.5,-217 1043.5,-198 1126.5,-198 1126.5,-217"/>
<text text-anchor="middle" x="1085" y="-205" font-family="Helvetica,sans-Serif" font-size="10.00">QDataStream</text>
</a>
</g>
</g>
<!-- Node1&#45;&gt;Node27 -->
<g id="edge31_Node000001_Node000027" class="edge">
<title>Node1&#45;&gt;Node27</title>
<g id="a_edge31_Node000001_Node000027"><a xlink:title=" ">
<path fill="none" stroke="#63b8ff" d="M928.88,-252.98C960.38,-244.01 1010.17,-229.82 1045.03,-219.89"/>
<polygon fill="#63b8ff" stroke="#63b8ff" points="1046.22,-223.19 1054.88,-217.08 1044.31,-216.46 1046.22,-223.19"/>
</a>
</g>
</g>
<!-- Node28 -->
<g id="Node000028" class="node">
<title>Node28</title>
<g id="a_Node000028"><a xlink:title=" ">
<polygon fill="#e0e0e0" stroke="#999999" points="1231,-217 1145,-217 1145,-198 1231,-198 1231,-217"/>
<text text-anchor="middle" x="1188" y="-205" font-family="Helvetica,sans-Serif" font-size="10.00">QHostAddress</text>
</a>
</g>
</g>
<!-- Node1&#45;&gt;Node28 -->
<g id="edge32_Node000001_Node000028" class="edge">
<title>Node1&#45;&gt;Node28</title>
<g id="a_edge32_Node000001_Node000028"><a xlink:title=" ">
<path fill="none" stroke="#63b8ff" d="M945.43,-252.98C997.15,-243.5 1080.59,-228.2 1134.87,-218.24"/>
<polygon fill="#63b8ff" stroke="#63b8ff" points="1135.78,-221.64 1144.98,-216.39 1134.52,-214.75 1135.78,-221.64"/>
</a>
</g>
</g>
<!-- Node29 -->
<g id="Node000029" class="node">
<title>Node29</title>
<g id="a_Node000029"><a xlink:title=" ">
<polygon fill="#e0e0e0" stroke="#999999" points="1335,-217 1249,-217 1249,-198 1335,-198 1335,-217"/>
<text text-anchor="middle" x="1292" y="-205" font-family="Helvetica,sans-Serif" font-size="10.00">QMessageBox</text>
</a>
</g>
</g>
<!-- Node1&#45;&gt;Node29 -->
<g id="edge34_Node000001_Node000029" class="edge">
<title>Node1&#45;&gt;Node29</title>
<g id="a_edge34_Node000001_Node000029"><a xlink:title=" ">
<path fill="none" stroke="#63b8ff" d="M969.3,-253C1036.09,-244.77 1139.59,-231.62 1238.97,-217.11"/>
<polygon fill="#63b8ff" stroke="#63b8ff" points="1239.5,-220.57 1248.89,-215.66 1238.48,-213.65 1239.5,-220.57"/>
</a>
</g>
</g>
<!-- Node30 -->
<g id="Node000030" class="node">
<title>Node30</title>
<g id="a_Node000030"><a xlink:title=" ">
<polygon fill="#e0e0e0" stroke="#999999" points="1462.5,-217 1353.5,-217 1353.5,-198 1462.5,-198 1462.5,-217"/>
<text text-anchor="middle" x="1408" y="-205" font-family="Helvetica,sans-Serif" font-size="10.00">QNetworkInterface</text>
</a>
</g>
</g>
<!-- Node1&#45;&gt;Node30 -->
<g id="edge35_Node000001_Node000030" class="edge">
<title>Node1&#45;&gt;Node30</title>
<g id="a_edge35_Node000001_Node000030"><a xlink:title=" ">
<path fill="none" stroke="#63b8ff" d="M970.37,-255.08C1056.18,-247.2 1204.83,-233.04 1342.86,-217.1"/>
<polygon fill="#63b8ff" stroke="#63b8ff" points="1343.67,-220.53 1353.2,-215.9 1342.86,-213.57 1343.67,-220.53"/>
</a>
</g>
</g>
<!-- Node31 -->
<g id="Node000031" class="node">
<title>Node31</title>
<g id="a_Node000031"><a xlink:title=" ">
<polygon fill="#e0e0e0" stroke="#999999" points="1539,-217 1481,-217 1481,-198 1539,-198 1539,-217"/>
<text text-anchor="middle" x="1510" y="-205" font-family="Helvetica,sans-Serif" font-size="10.00">QThread</text>
</a>
</g>
</g>
<!-- Node1&#45;&gt;Node31 -->
<g id="edge36_Node000001_Node000031" class="edge">
<title>Node1&#45;&gt;Node31</title>
<g id="a_edge36_Node000001_Node000031"><a xlink:title=" ">
<path fill="none" stroke="#63b8ff" d="M970.39,-259.23C1077.24,-255.1 1285.18,-244.27 1470.68,-216.99"/>
<polygon fill="#63b8ff" stroke="#63b8ff" points="1471.24,-220.44 1480.62,-215.51 1470.21,-213.52 1471.24,-220.44"/>
</a>
</g>
</g>
<!-- Node3 -->
<g id="Node000003" class="node">
<title>Node3</title>
<g id="a_Node000003"><a xlink:title=" ">
<polygon fill="#e0e0e0" stroke="#999999" points="56,-156.5 0,-156.5 0,-137.5 56,-137.5 56,-156.5"/>
<text text-anchor="middle" x="28" y="-144.5" font-family="Helvetica,sans-Serif" font-size="10.00">QDialog</text>
</a>
</g>
</g>
<!-- Node2&#45;&gt;Node3 -->
<g id="edge2_Node000002_Node000003" class="edge">
<title>Node2&#45;&gt;Node3</title>
<g id="a_edge2_Node000002_Node000003"><a xlink:title=" ">
<path fill="none" stroke="#63b8ff" d="M136.53,-197.99C115.28,-188.2 80.15,-172.02 55.63,-160.73"/>
<polygon fill="#63b8ff" stroke="#63b8ff" points="57.04,-157.52 46.49,-156.52 54.11,-163.88 57.04,-157.52"/>
</a>
</g>
</g>
<!-- Node4 -->
<g id="Node000004" class="node">
<title>Node4</title>
<g id="a_Node000004"><a xlink:title=" ">
<polygon fill="#e0e0e0" stroke="#999999" points="145.5,-156.5 74.5,-156.5 74.5,-137.5 145.5,-137.5 145.5,-156.5"/>
<text text-anchor="middle" x="110" y="-144.5" font-family="Helvetica,sans-Serif" font-size="10.00">QTcpServer</text>
</a>
</g>
</g>
<!-- Node2&#45;&gt;Node4 -->
<g id="edge3_Node000002_Node000004" class="edge">
<title>Node2&#45;&gt;Node4</title>
<g id="a_edge3_Node000002_Node000004"><a xlink:title=" ">
<path fill="none" stroke="#63b8ff" d="M148.36,-197.87C141.71,-189.23 131.31,-175.7 123.01,-164.92"/>
<polygon fill="#63b8ff" stroke="#63b8ff" points="125.54,-162.46 116.67,-156.67 119.99,-166.73 125.54,-162.46"/>
</a>
</g>
</g>
<!-- Node5 -->
<g id="Node000005" class="node">
<title>Node5</title>
<g id="a_Node000005"><a xlink:title=" ">
<polygon fill="#e0e0e0" stroke="#999999" points="236,-156.5 164,-156.5 164,-137.5 236,-137.5 236,-156.5"/>
<text text-anchor="middle" x="200" y="-144.5" font-family="Helvetica,sans-Serif" font-size="10.00">QTcpSocket</text>
</a>
</g>
</g>
<!-- Node2&#45;&gt;Node5 -->
<g id="edge4_Node000002_Node000005" class="edge">
<title>Node2&#45;&gt;Node5</title>
<g id="a_edge4_Node000002_Node000005"><a xlink:title=" ">
<path fill="none" stroke="#63b8ff" d="M161.64,-197.87C168.29,-189.23 178.69,-175.7 186.99,-164.92"/>
<polygon fill="#63b8ff" stroke="#63b8ff" points="190.01,-166.73 193.33,-156.67 184.46,-162.46 190.01,-166.73"/>
</a>
</g>
</g>
<!-- Node6&#45;&gt;Node7 -->
<g id="edge6_Node000006_Node000007" class="edge">
<title>Node6&#45;&gt;Node7</title>
<g id="a_edge6_Node000006_Node000007"><a xlink:title=" ">
<path fill="none" stroke="#63b8ff" d="M457.03,-197.99C434.19,-189.54 398.48,-176.32 369.52,-165.59"/>
<polygon fill="#63b8ff" stroke="#63b8ff" points="370.58,-162.25 359.99,-162.06 368.15,-168.82 370.58,-162.25"/>
</a>
</g>
</g>
<!-- Node11 -->
<g id="Node000011" class="node">
<title>Node11</title>
<g id="a_Node000011"><a xlink:href="simulate_8hpp.html" target="_top" xlink:title=" ">
<polygon fill="white" stroke="#666666" points="552,-156.5 408,-156.5 408,-137.5 552,-137.5 552,-156.5"/>
<text text-anchor="middle" x="480" y="-144.5" font-family="Helvetica,sans-Serif" font-size="10.00">../simulation/simulate.hpp</text>
</a>
</g>
</g>
<!-- Node6&#45;&gt;Node11 -->
<g id="edge10_Node000006_Node000011" class="edge">
<title>Node6&#45;&gt;Node11</title>
<g id="a_edge10_Node000006_Node000011"><a xlink:title=" ">
<path fill="none" stroke="#63b8ff" d="M480,-197.87C480,-189.75 480,-177.31 480,-166.89"/>
<polygon fill="#63b8ff" stroke="#63b8ff" points="483.5,-166.67 480,-156.67 476.5,-166.67 483.5,-166.67"/>
</a>
</g>
</g>
<!-- Node8 -->
<g id="Node000008" class="node">
<title>Node8</title>
<g id="a_Node000008"><a xlink:title=" ">
<polygon fill="#e0e0e0" stroke="#999999" points="277.5,-85 224.5,-85 224.5,-66 277.5,-66 277.5,-85"/>
<text text-anchor="middle" x="251" y="-73" font-family="Helvetica,sans-Serif" font-size="10.00">limits.h</text>
</a>
</g>
</g>
<!-- Node7&#45;&gt;Node8 -->
<g id="edge7_Node000007_Node000008" class="edge">
<title>Node7&#45;&gt;Node8</title>
<g id="a_edge7_Node000007_Node000008"><a xlink:title=" ">
<path fill="none" stroke="#63b8ff" d="M307.63,-131.94C295.93,-120.48 279.42,-104.32 267.24,-92.4"/>
<polygon fill="#63b8ff" stroke="#63b8ff" points="269.55,-89.76 259.96,-85.27 264.65,-94.76 269.55,-89.76"/>
</a>
</g>
</g>
<!-- Node9 -->
<g id="Node000009" class="node">
<title>Node9</title>
<g id="a_Node000009"><a xlink:title=" ">
<polygon fill="#e0e0e0" stroke="#999999" points="348.5,-85 295.5,-85 295.5,-66 348.5,-66 348.5,-85"/>
<text text-anchor="middle" x="322" y="-73" font-family="Helvetica,sans-Serif" font-size="10.00">stdint.h</text>
</a>
</g>
</g>
<!-- Node7&#45;&gt;Node9 -->
<g id="edge8_Node000007_Node000009" class="edge">
<title>Node7&#45;&gt;Node9</title>
<g id="a_edge8_Node000007_Node000009"><a xlink:title=" ">
<path fill="none" stroke="#63b8ff" d="M322,-131.94C322,-121.46 322,-107.05 322,-95.55"/>
<polygon fill="#63b8ff" stroke="#63b8ff" points="325.5,-95.27 322,-85.27 318.5,-95.27 325.5,-95.27"/>
</a>
</g>
</g>
<!-- Node10 -->
<g id="Node000010" class="node">
<title>Node10</title>
<g id="a_Node000010"><a xlink:title=" ">
<polygon fill="#e0e0e0" stroke="#999999" points="419.5,-85 366.5,-85 366.5,-66 419.5,-66 419.5,-85"/>
<text text-anchor="middle" x="393" y="-73" font-family="Helvetica,sans-Serif" font-size="10.00">string.h</text>
</a>
</g>
</g>
<!-- Node7&#45;&gt;Node10 -->
<g id="edge9_Node000007_Node000010" class="edge">
<title>Node7&#45;&gt;Node10</title>
<g id="a_edge9_Node000007_Node000010"><a xlink:title=" ">
<path fill="none" stroke="#63b8ff" d="M336.37,-131.94C348.07,-120.48 364.58,-104.32 376.76,-92.4"/>
<polygon fill="#63b8ff" stroke="#63b8ff" points="379.35,-94.76 384.04,-85.27 374.45,-89.76 379.35,-94.76"/>
</a>
</g>
</g>
<!-- Node12 -->
<g id="Node000012" class="node">
<title>Node12</title>
<g id="a_Node000012"><a xlink:href="keyboardSim_8hpp.html" target="_top" xlink:title="Simulates keyboard input in Windows.">
<polygon fill="white" stroke="#666666" points="971.5,-85 870.5,-85 870.5,-66 971.5,-66 971.5,-85"/>
<text text-anchor="middle" x="921" y="-73" font-family="Helvetica,sans-Serif" font-size="10.00">keyboardSim.hpp</text>
</a>
</g>
</g>
<!-- Node11&#45;&gt;Node12 -->
<g id="edge11_Node000011_Node000012" class="edge">
<title>Node11&#45;&gt;Node12</title>
<g id="a_edge11_Node000011_Node000012"><a xlink:title=" ">
<path fill="none" stroke="#63b8ff" d="M528.38,-137.49C539.11,-135.64 550.44,-133.73 561,-132 665.99,-114.84 788.45,-96.26 860.09,-85.55"/>
<polygon fill="#63b8ff" stroke="#63b8ff" points="860.91,-88.96 870.28,-84.02 859.87,-82.04 860.91,-88.96"/>
</a>
</g>
</g>
<!-- Node16 -->
<g id="Node000016" class="node">
<title>Node16</title>
<g id="a_Node000016"><a xlink:href="mouseSim_8hpp.html" target="_top" xlink:title="Simulates mouse input in Windows.">
<polygon fill="white" stroke="#666666" points="670.5,-85 581.5,-85 581.5,-66 670.5,-66 670.5,-85"/>
<text text-anchor="middle" x="626" y="-73" font-family="Helvetica,sans-Serif" font-size="10.00">mouseSim.hpp</text>
</a>
</g>
</g>
<!-- Node11&#45;&gt;Node16 -->
<g id="edge15_Node000011_Node000016" class="edge">
<title>Node11&#45;&gt;Node16</title>
<g id="a_edge15_Node000011_Node000016"><a xlink:title=" ">
<path fill="none" stroke="#63b8ff" d="M497.9,-137.48C523.08,-125.49 569.16,-103.56 598.64,-89.52"/>
<polygon fill="#63b8ff" stroke="#63b8ff" points="600.43,-92.55 607.95,-85.09 597.42,-86.23 600.43,-92.55"/>
</a>
</g>
</g>
<!-- Node13 -->
<g id="Node000013" class="node">
<title>Node13</title>
<g id="a_Node000013"><a xlink:title=" ">
<polygon fill="#e0e0e0" stroke="#999999" points="876,-19 808,-19 808,0 876,0 876,-19"/>
<text text-anchor="middle" x="842" y="-7" font-family="Helvetica,sans-Serif" font-size="10.00">windows.h</text>
</a>
</g>
</g>
<!-- Node12&#45;&gt;Node13 -->
<g id="edge12_Node000012_Node000013" class="edge">
<title>Node12&#45;&gt;Node13</title>
<g id="a_edge12_Node000012_Node000013"><a xlink:title=" ">
<path fill="none" stroke="#63b8ff" d="M910.35,-65.87C897.62,-55.56 876.12,-38.15 860.63,-25.59"/>
<polygon fill="#63b8ff" stroke="#63b8ff" points="862.71,-22.77 852.74,-19.2 858.3,-28.21 862.71,-22.77"/>
</a>
</g>
</g>
<!-- Node14 -->
<g id="Node000014" class="node">
<title>Node14</title>
<g id="a_Node000014"><a xlink:title=" ">
<polygon fill="#e0e0e0" stroke="#999999" points="1007,-19 963,-19 963,0 1007,0 1007,-19"/>
<text text-anchor="middle" x="985" y="-7" font-family="Helvetica,sans-Serif" font-size="10.00">string</text>
</a>
</g>
</g>
<!-- Node12&#45;&gt;Node14 -->
<g id="edge13_Node000012_Node000014" class="edge">
<title>Node12&#45;&gt;Node14</title>
<g id="a_edge13_Node000012_Node000014"><a xlink:title=" ">
<path fill="none" stroke="#63b8ff" d="M929.63,-65.87C939.69,-55.81 956.52,-38.98 968.99,-26.51"/>
<polygon fill="#63b8ff" stroke="#63b8ff" points="971.5,-28.95 976.09,-19.41 966.55,-24 971.5,-28.95"/>
</a>
</g>
</g>
<!-- Node15 -->
<g id="Node000015" class="node">
<title>Node15</title>
<g id="a_Node000015"><a xlink:title=" ">
<polygon fill="#e0e0e0" stroke="#999999" points="944.5,-19 897.5,-19 897.5,0 944.5,0 944.5,-19"/>
<text text-anchor="middle" x="921" y="-7" font-family="Helvetica,sans-Serif" font-size="10.00">vector</text>
</a>
</g>
</g>
<!-- Node12&#45;&gt;Node15 -->
<g id="edge14_Node000012_Node000015" class="edge">
<title>Node12&#45;&gt;Node15</title>
<g id="a_edge14_Node000012_Node000015"><a xlink:title=" ">
<path fill="none" stroke="#63b8ff" d="M921,-65.87C921,-56.66 921,-41.79 921,-29.77"/>
<polygon fill="#63b8ff" stroke="#63b8ff" points="924.5,-29.41 921,-19.41 917.5,-29.41 924.5,-29.41"/>
</a>
</g>
</g>
<!-- Node16&#45;&gt;Node13 -->
<g id="edge16_Node000016_Node000013" class="edge">
<title>Node16&#45;&gt;Node13</title>
<g id="a_edge16_Node000016_Node000013"><a xlink:title=" ">
<path fill="none" stroke="#63b8ff" d="M655.13,-65.87C693.4,-54.53 760.73,-34.58 803.26,-21.98"/>
<polygon fill="#63b8ff" stroke="#63b8ff" points="804.39,-25.29 812.99,-19.1 802.4,-18.58 804.39,-25.29"/>
</a>
</g>
</g>
<!-- Node18&#45;&gt;Node14 -->
<g id="edge23_Node000018_Node000014" class="edge">
<title>Node18&#45;&gt;Node14</title>
<g id="a_edge23_Node000018_Node000014"><a xlink:title=" ">
<path fill="none" stroke="#63b8ff" d="M1035.01,-54.95C1024.54,-45.65 1012.2,-34.68 1002.4,-25.96"/>
<polygon fill="#63b8ff" stroke="#63b8ff" points="1004.66,-23.29 994.86,-19.26 1000,-28.52 1004.66,-23.29"/>
</a>
</g>
</g>
<!-- Node18&#45;&gt;Node15 -->
<g id="edge24_Node000018_Node000015" class="edge">
<title>Node18&#45;&gt;Node15</title>
<g id="a_edge24_Node000018_Node000015"><a xlink:title=" ">
<path fill="none" stroke="#63b8ff" d="M1015.46,-54.95C993.67,-44.7 967.59,-32.43 948.36,-23.38"/>
<polygon fill="#63b8ff" stroke="#63b8ff" points="949.8,-20.18 939.26,-19.09 946.82,-26.52 949.8,-20.18"/>
</a>
</g>
</g>
<!-- Node19 -->
<g id="Node000019" class="node">
<title>Node19</title>
<g id="a_Node000019"><a xlink:title=" ">
<polygon fill="#e0e0e0" stroke="#999999" points="1067,-19 1025,-19 1025,0 1067,0 1067,-19"/>
<text text-anchor="middle" x="1046" y="-7" font-family="Helvetica,sans-Serif" font-size="10.00">array</text>
</a>
</g>
</g>
<!-- Node18&#45;&gt;Node19 -->
<g id="edge20_Node000018_Node000019" class="edge">
<title>Node18&#45;&gt;Node19</title>
<g id="a_edge20_Node000018_Node000019"><a xlink:title=" ">
<path fill="none" stroke="#63b8ff" d="M1053.64,-54.95C1052.23,-46.76 1050.6,-37.28 1049.21,-29.19"/>
<polygon fill="#63b8ff" stroke="#63b8ff" points="1052.65,-28.52 1047.51,-19.26 1045.75,-29.71 1052.65,-28.52"/>
</a>
</g>
</g>
<!-- Node20 -->
<g id="Node000020" class="node">
<title>Node20</title>
<g id="a_Node000020"><a xlink:title=" ">
<polygon fill="#e0e0e0" stroke="#999999" points="1135,-19 1085,-19 1085,0 1135,0 1135,-19"/>
<text text-anchor="middle" x="1110" y="-7" font-family="Helvetica,sans-Serif" font-size="10.00">cstdint</text>
</a>
</g>
</g>
<!-- Node18&#45;&gt;Node20 -->
<g id="edge21_Node000018_Node000020" class="edge">
<title>Node18&#45;&gt;Node20</title>
<g id="a_edge21_Node000018_Node000020"><a xlink:title=" ">
<path fill="none" stroke="#63b8ff" d="M1073.19,-54.95C1080.59,-46.02 1089.25,-35.55 1096.32,-27.02"/>
<polygon fill="#63b8ff" stroke="#63b8ff" points="1099.06,-29.19 1102.75,-19.26 1093.67,-24.73 1099.06,-29.19"/>
</a>
</g>
</g>
<!-- Node21 -->
<g id="Node000021" class="node">
<title>Node21</title>
<g id="a_Node000021"><a xlink:title=" ">
<polygon fill="#e0e0e0" stroke="#999999" points="1218.5,-19 1153.5,-19 1153.5,0 1218.5,0 1218.5,-19"/>
<text text-anchor="middle" x="1186" y="-7" font-family="Helvetica,sans-Serif" font-size="10.00">stdexcept</text>
</a>
</g>
</g>
<!-- Node18&#45;&gt;Node21 -->
<g id="edge22_Node000018_Node000021" class="edge">
<title>Node18&#45;&gt;Node21</title>
<g id="a_edge22_Node000018_Node000021"><a xlink:title=" ">
<path fill="none" stroke="#63b8ff" d="M1096.41,-54.95C1116.79,-44.84 1141.13,-32.76 1159.29,-23.75"/>
<polygon fill="#63b8ff" stroke="#63b8ff" points="1161.28,-26.67 1168.68,-19.09 1158.17,-20.4 1161.28,-26.67"/>
</a>
</g>
</g>
<!-- Node22&#45;&gt;Node13 -->
<g id="edge27_Node000022_Node000013" class="edge">
<title>Node22&#45;&gt;Node13</title>
<g id="a_edge27_Node000022_Node000013"><a xlink:title=" ">
<path fill="none" stroke="#63b8ff" d="M768.24,-197.87C787.05,-191.21 809.28,-180.02 822,-162 850.49,-121.64 848.11,-59.84 844.7,-29.14"/>
<polygon fill="#63b8ff" stroke="#63b8ff" points="848.15,-28.48 843.41,-19.01 841.2,-29.37 848.15,-28.48"/>
</a>
</g>
</g>
<!-- Node22&#45;&gt;Node23 -->
<g id="edge26_Node000022_Node000023" class="edge">
<title>Node22&#45;&gt;Node23</title>
<g id="a_edge26_Node000022_Node000023"><a xlink:title=" ">
<path fill="none" stroke="#63b8ff" d="M711.68,-197.9C688.51,-189.24 652.06,-175.29 621,-162 620.14,-161.63 619.28,-161.26 618.4,-160.88"/>
<polygon fill="#63b8ff" stroke="#63b8ff" points="619.55,-157.55 609,-156.63 616.67,-163.93 619.55,-157.55"/>
</a>
</g>
</g>
<!-- Node24 -->
<g id="Node000024" class="node">
<title>Node24</title>
<g id="a_Node000024"><a xlink:href="GameButtons_8h.html" target="_top" xlink:title=" ">
<polygon fill="white" stroke="#666666" points="813.5,-162 686.5,-162 686.5,-132 813.5,-132 813.5,-162"/>
<text text-anchor="start" x="694.5" y="-150" font-family="Helvetica,sans-Serif" font-size="10.00">../VGP_Data_Exchange</text>
<text text-anchor="middle" x="750" y="-139" font-family="Helvetica,sans-Serif" font-size="10.00">/C/GameButtons.h</text>
</a>
</g>
</g>
<!-- Node22&#45;&gt;Node24 -->
<g id="edge28_Node000022_Node000024" class="edge">
<title>Node22&#45;&gt;Node24</title>
<g id="a_edge28_Node000022_Node000024"><a xlink:title=" ">
<path fill="none" stroke="#63b8ff" d="M737.21,-197.87C738.97,-191.03 741.5,-181.14 743.85,-171.97"/>
<polygon fill="#63b8ff" stroke="#63b8ff" points="747.29,-172.67 746.38,-162.11 740.51,-170.93 747.29,-172.67"/>
</a>
</g>
</g>
<!-- Node25 -->
<g id="Node000025" class="node">
<title>Node25</title>
<g id="a_Node000025"><a xlink:title=" ">
<polygon fill="#e0e0e0" stroke="#999999" points="668,-156.5 630,-156.5 630,-137.5 668,-137.5 668,-156.5"/>
<text text-anchor="middle" x="649" y="-144.5" font-family="Helvetica,sans-Serif" font-size="10.00">map</text>
</a>
</g>
</g>
<!-- Node22&#45;&gt;Node25 -->
<g id="edge29_Node000022_Node000025" class="edge">
<title>Node22&#45;&gt;Node25</title>
<g id="a_edge29_Node000022_Node000025"><a xlink:title=" ">
<path fill="none" stroke="#63b8ff" d="M722.31,-197.87C708.59,-188.54 686.5,-173.51 670.15,-162.38"/>
<polygon fill="#63b8ff" stroke="#63b8ff" points="671.98,-159.4 661.74,-156.67 668.04,-165.19 671.98,-159.4"/>
</a>
</g>
</g>
</g>
</svg>
