<?xml version="1.0" encoding="UTF-8" standalone="no"?>
<!DOCTYPE svg PUBLIC "-//W3C//DTD SVG 1.1//EN"
 "http://www.w3.org/Graphics/SVG/1.1/DTD/svg11.dtd">
<!-- Generated by graphviz version 2.43.0 (0)
 -->
<!-- Title: src/networking/server.cpp Pages: 1 -->
<svg width="2008pt" height="291pt"
 viewBox="0.00 0.00 2008.00 291.00" xmlns="http://www.w3.org/2000/svg" xmlns:xlink="http://www.w3.org/1999/xlink">
<g id="graph0" class="graph" transform="scale(1 1) rotate(0) translate(4 287)">
<title>src/networking/server.cpp</title>
<!-- Node1 -->
<g id="Node000001" class="node">
<title>Node1</title>
<g id="a_Node000001"><a xlink:title=" ">
<polygon fill="#999999" stroke="#666666" points="1569,-283 1427,-283 1427,-264 1569,-264 1569,-283"/>
<text text-anchor="middle" x="1498" y="-271" font-family="Helvetica,sans-Serif" font-size="10.00">src/networking/server.cpp</text>
</a>
</g>
</g>
<!-- Node2 -->
<g id="Node000002" class="node">
<title>Node2</title>
<g id="a_Node000002"><a xlink:href="server_8hpp.html" target="_top" xlink:title=" ">
<polygon fill="white" stroke="#666666" points="333,-222.5 265,-222.5 265,-203.5 333,-203.5 333,-222.5"/>
<text text-anchor="middle" x="299" y="-210.5" font-family="Helvetica,sans-Serif" font-size="10.00">server.hpp</text>
</a>
</g>
</g>
<!-- Node1&#45;&gt;Node2 -->
<g id="edge1_Node000001_Node000002" class="edge">
<title>Node1&#45;&gt;Node2</title>
<g id="a_edge1_Node000001_Node000002"><a xlink:title=" ">
<path fill="none" stroke="#63b8ff" d="M1426.59,-269.02C1203.54,-258.13 523.98,-224.98 343.44,-216.17"/>
<polygon fill="#63b8ff" stroke="#63b8ff" points="343.41,-212.66 333.25,-215.67 343.07,-219.65 343.41,-212.66"/>
</a>
</g>
</g>
<!-- Node25 -->
<g id="Node000025" class="node">
<title>Node25</title>
<g id="a_Node000025"><a xlink:href="qrcodegen_8hpp.html" target="_top" xlink:title=" ">
<polygon fill="white" stroke="#666666" points="906,-107 772,-107 772,-66 906,-66 906,-107"/>
<text text-anchor="start" x="780" y="-95" font-family="Helvetica,sans-Serif" font-size="10.00">../../third&#45;party&#45;libs</text>
<text text-anchor="start" x="780" y="-84" font-family="Helvetica,sans-Serif" font-size="10.00">/QR&#45;Code&#45;generator/cpp</text>
<text text-anchor="middle" x="839" y="-73" font-family="Helvetica,sans-Serif" font-size="10.00">/qrcodegen.hpp</text>
</a>
</g>
</g>
<!-- Node1&#45;&gt;Node25 -->
<g id="edge26_Node000001_Node000025" class="edge">
<title>Node1&#45;&gt;Node25</title>
<g id="a_edge26_Node000001_Node000025"><a xlink:title=" ">
<path fill="none" stroke="#63b8ff" d="M1433.21,-263.97C1381.54,-256.49 1307.54,-244.27 1244,-228 1155.77,-205.41 1136.05,-191.83 1050,-162 1000.79,-144.94 945.26,-125.32 903.52,-110.5"/>
<polygon fill="#63b8ff" stroke="#63b8ff" points="904.62,-107.17 894.03,-107.12 902.28,-113.77 904.62,-107.17"/>
</a>
</g>
</g>
<!-- Node29 -->
<g id="Node000029" class="node">
<title>Node29</title>
<g id="a_Node000029"><a xlink:href="settings__singleton_8hpp.html" target="_top" xlink:title=" ">
<polygon fill="white" stroke="#666666" points="1359.5,-228 1252.5,-228 1252.5,-198 1359.5,-198 1359.5,-228"/>
<text text-anchor="start" x="1260.5" y="-216" font-family="Helvetica,sans-Serif" font-size="10.00">../settings/settings</text>
<text text-anchor="middle" x="1306" y="-205" font-family="Helvetica,sans-Serif" font-size="10.00">_singleton.hpp</text>
</a>
</g>
</g>
<!-- Node1&#45;&gt;Node29 -->
<g id="edge32_Node000001_Node000029" class="edge">
<title>Node1&#45;&gt;Node29</title>
<g id="a_edge32_Node000001_Node000029"><a xlink:title=" ">
<path fill="none" stroke="#63b8ff" d="M1470.08,-263.99C1441.85,-255.39 1397.42,-241.86 1361.92,-231.04"/>
<polygon fill="#63b8ff" stroke="#63b8ff" points="1362.75,-227.63 1352.16,-228.06 1360.71,-234.33 1362.75,-227.63"/>
</a>
</g>
</g>
<!-- Node36 -->
<g id="Node000036" class="node">
<title>Node36</title>
<g id="a_Node000036"><a xlink:title=" ">
<polygon fill="#e0e0e0" stroke="#999999" points="1609.5,-162 1568.5,-162 1568.5,-143 1609.5,-143 1609.5,-162"/>
<text text-anchor="middle" x="1589" y="-150" font-family="Helvetica,sans-Serif" font-size="10.00">QList</text>
</a>
</g>
</g>
<!-- Node1&#45;&gt;Node36 -->
<g id="edge52_Node000001_Node000036" class="edge">
<title>Node1&#45;&gt;Node36</title>
<g id="a_edge52_Node000001_Node000036"><a xlink:title=" ">
<path fill="none" stroke="#63b8ff" d="M1459.58,-263.96C1440.26,-257.52 1418.55,-246.5 1407,-228 1399.94,-216.69 1398.72,-208.45 1407,-198 1448.42,-145.7 1488.67,-176.73 1558.4,-162.06"/>
<polygon fill="#63b8ff" stroke="#63b8ff" points="1559.52,-165.39 1568.44,-159.67 1557.9,-158.58 1559.52,-165.39"/>
</a>
</g>
</g>
<!-- Node39 -->
<g id="Node000039" class="node">
<title>Node39</title>
<g id="a_Node000039"><a xlink:title=" ">
<polygon fill="#e0e0e0" stroke="#999999" points="1486,-222.5 1416,-222.5 1416,-203.5 1486,-203.5 1486,-222.5"/>
<text text-anchor="middle" x="1451" y="-210.5" font-family="Helvetica,sans-Serif" font-size="10.00">ui_server.h</text>
</a>
</g>
</g>
<!-- Node1&#45;&gt;Node39 -->
<g id="edge49_Node000001_Node000039" class="edge">
<title>Node1&#45;&gt;Node39</title>
<g id="a_edge49_Node000001_Node000039"><a xlink:title=" ">
<path fill="none" stroke="#63b8ff" d="M1491.06,-263.87C1484.05,-255.14 1473.04,-241.43 1464.33,-230.59"/>
<polygon fill="#63b8ff" stroke="#63b8ff" points="1466.96,-228.27 1457.96,-222.67 1461.5,-232.66 1466.96,-228.27"/>
</a>
</g>
</g>
<!-- Node40 -->
<g id="Node000040" class="node">
<title>Node40</title>
<g id="a_Node000040"><a xlink:title=" ">
<polygon fill="#e0e0e0" stroke="#999999" points="1587.5,-222.5 1504.5,-222.5 1504.5,-203.5 1587.5,-203.5 1587.5,-222.5"/>
<text text-anchor="middle" x="1546" y="-210.5" font-family="Helvetica,sans-Serif" font-size="10.00">QDataStream</text>
</a>
</g>
</g>
<!-- Node1&#45;&gt;Node40 -->
<g id="edge50_Node000001_Node000040" class="edge">
<title>Node1&#45;&gt;Node40</title>
<g id="a_edge50_Node000001_Node000040"><a xlink:title=" ">
<path fill="none" stroke="#63b8ff" d="M1505.08,-263.87C1512.24,-255.14 1523.49,-241.43 1532.39,-230.59"/>
<polygon fill="#63b8ff" stroke="#63b8ff" points="1535.25,-232.62 1538.89,-222.67 1529.84,-228.18 1535.25,-232.62"/>
</a>
</g>
</g>
<!-- Node41 -->
<g id="Node000041" class="node">
<title>Node41</title>
<g id="a_Node000041"><a xlink:title=" ">
<polygon fill="#e0e0e0" stroke="#999999" points="1692,-222.5 1606,-222.5 1606,-203.5 1692,-203.5 1692,-222.5"/>
<text text-anchor="middle" x="1649" y="-210.5" font-family="Helvetica,sans-Serif" font-size="10.00">QHostAddress</text>
</a>
</g>
</g>
<!-- Node1&#45;&gt;Node41 -->
<g id="edge51_Node000001_Node000041" class="edge">
<title>Node1&#45;&gt;Node41</title>
<g id="a_edge51_Node000001_Node000041"><a xlink:title=" ">
<path fill="none" stroke="#63b8ff" d="M1519.96,-263.99C1545.68,-254.03 1588.48,-237.45 1617.68,-226.13"/>
<polygon fill="#63b8ff" stroke="#63b8ff" points="1618.96,-229.39 1627.02,-222.52 1616.43,-222.87 1618.96,-229.39"/>
</a>
</g>
</g>
<!-- Node42 -->
<g id="Node000042" class="node">
<title>Node42</title>
<g id="a_Node000042"><a xlink:title=" ">
<polygon fill="#e0e0e0" stroke="#999999" points="1796,-222.5 1710,-222.5 1710,-203.5 1796,-203.5 1796,-222.5"/>
<text text-anchor="middle" x="1753" y="-210.5" font-family="Helvetica,sans-Serif" font-size="10.00">QMessageBox</text>
</a>
</g>
</g>
<!-- Node1&#45;&gt;Node42 -->
<g id="edge53_Node000001_Node000042" class="edge">
<title>Node1&#45;&gt;Node42</title>
<g id="a_edge53_Node000001_Node000042"><a xlink:title=" ">
<path fill="none" stroke="#63b8ff" d="M1539.73,-263.95C1580.87,-255.39 1645.44,-241.56 1701,-228 1704.67,-227.1 1708.47,-226.14 1712.28,-225.16"/>
<polygon fill="#63b8ff" stroke="#63b8ff" points="1713.49,-228.46 1722.27,-222.53 1711.7,-221.69 1713.49,-228.46"/>
</a>
</g>
</g>
<!-- Node43 -->
<g id="Node000043" class="node">
<title>Node43</title>
<g id="a_Node000043"><a xlink:title=" ">
<polygon fill="#e0e0e0" stroke="#999999" points="1923.5,-222.5 1814.5,-222.5 1814.5,-203.5 1923.5,-203.5 1923.5,-222.5"/>
<text text-anchor="middle" x="1869" y="-210.5" font-family="Helvetica,sans-Serif" font-size="10.00">QNetworkInterface</text>
</a>
</g>
</g>
<!-- Node1&#45;&gt;Node43 -->
<g id="edge54_Node000001_Node000043" class="edge">
<title>Node1&#45;&gt;Node43</title>
<g id="a_edge54_Node000001_Node000043"><a xlink:title=" ">
<path fill="none" stroke="#63b8ff" d="M1566.51,-263.99C1628.88,-255.91 1723.4,-242.82 1805,-228 1810.53,-227 1816.3,-225.86 1822.02,-224.68"/>
<polygon fill="#63b8ff" stroke="#63b8ff" points="1823.14,-228.02 1832.2,-222.52 1821.69,-221.17 1823.14,-228.02"/>
</a>
</g>
</g>
<!-- Node44 -->
<g id="Node000044" class="node">
<title>Node44</title>
<g id="a_Node000044"><a xlink:title=" ">
<polygon fill="#e0e0e0" stroke="#999999" points="2000,-222.5 1942,-222.5 1942,-203.5 2000,-203.5 2000,-222.5"/>
<text text-anchor="middle" x="1971" y="-210.5" font-family="Helvetica,sans-Serif" font-size="10.00">QThread</text>
</a>
</g>
</g>
<!-- Node1&#45;&gt;Node44 -->
<g id="edge55_Node000001_Node000044" class="edge">
<title>Node1&#45;&gt;Node44</title>
<g id="a_edge55_Node000001_Node000044"><a xlink:title=" ">
<path fill="none" stroke="#63b8ff" d="M1569.34,-270.68C1656.26,-267.21 1807.08,-257.15 1933,-228 1935.67,-227.38 1938.41,-226.63 1941.13,-225.79"/>
<polygon fill="#63b8ff" stroke="#63b8ff" points="1942.43,-229.05 1950.78,-222.52 1940.18,-222.42 1942.43,-229.05"/>
</a>
</g>
</g>
<!-- Node3 -->
<g id="Node000003" class="node">
<title>Node3</title>
<g id="a_Node000003"><a xlink:href="executor_8hpp.html" target="_top" xlink:title=" ">
<polygon fill="white" stroke="#666666" points="544.5,-162 465.5,-162 465.5,-143 544.5,-143 544.5,-162"/>
<text text-anchor="middle" x="505" y="-150" font-family="Helvetica,sans-Serif" font-size="10.00">executor.hpp</text>
</a>
</g>
</g>
<!-- Node2&#45;&gt;Node3 -->
<g id="edge2_Node000002_Node000003" class="edge">
<title>Node2&#45;&gt;Node3</title>
<g id="a_edge2_Node000002_Node000003"><a xlink:title=" ">
<path fill="none" stroke="#63b8ff" d="M328.95,-203.49C364.96,-193.27 425.5,-176.08 465.35,-164.76"/>
<polygon fill="#63b8ff" stroke="#63b8ff" points="466.35,-168.12 475.01,-162.02 464.43,-161.38 466.35,-168.12"/>
</a>
</g>
</g>
<!-- Node19 -->
<g id="Node000019" class="node">
<title>Node19</title>
<g id="a_Node000019"><a xlink:title=" ">
<polygon fill="#e0e0e0" stroke="#999999" points="58,-96 0,-96 0,-77 58,-77 58,-96"/>
<text text-anchor="middle" x="29" y="-84" font-family="Helvetica,sans-Serif" font-size="10.00">memory</text>
</a>
</g>
</g>
<!-- Node2&#45;&gt;Node19 -->
<g id="edge25_Node000002_Node000019" class="edge">
<title>Node2&#45;&gt;Node19</title>
<g id="a_edge25_Node000002_Node000019"><a xlink:title=" ">
<path fill="none" stroke="#63b8ff" d="M264.74,-209.97C202.32,-205.55 73.63,-192.85 43,-162 28.69,-147.58 26.54,-123.46 27.1,-106.58"/>
<polygon fill="#63b8ff" stroke="#63b8ff" points="30.61,-106.48 27.8,-96.26 23.63,-106 30.61,-106.48"/>
</a>
</g>
</g>
<!-- Node20 -->
<g id="Node000020" class="node">
<title>Node20</title>
<g id="a_Node000020"><a xlink:title=" ">
<polygon fill="#e0e0e0" stroke="#999999" points="125.5,-162 52.5,-162 52.5,-143 125.5,-143 125.5,-162"/>
<text text-anchor="middle" x="89" y="-150" font-family="Helvetica,sans-Serif" font-size="10.00">QByteArray</text>
</a>
</g>
</g>
<!-- Node2&#45;&gt;Node20 -->
<g id="edge20_Node000002_Node000020" class="edge">
<title>Node2&#45;&gt;Node20</title>
<g id="a_edge20_Node000002_Node000020"><a xlink:title=" ">
<path fill="none" stroke="#63b8ff" d="M268.46,-203.49C231.76,-193.27 170.05,-176.08 129.42,-164.76"/>
<polygon fill="#63b8ff" stroke="#63b8ff" points="130.15,-161.33 119.57,-162.02 128.27,-168.07 130.15,-161.33"/>
</a>
</g>
</g>
<!-- Node21 -->
<g id="Node000021" class="node">
<title>Node21</title>
<g id="a_Node000021"><a xlink:title=" ">
<polygon fill="#e0e0e0" stroke="#999999" points="200,-162 144,-162 144,-143 200,-143 200,-162"/>
<text text-anchor="middle" x="172" y="-150" font-family="Helvetica,sans-Serif" font-size="10.00">QDialog</text>
</a>
</g>
</g>
<!-- Node2&#45;&gt;Node21 -->
<g id="edge21_Node000002_Node000021" class="edge">
<title>Node2&#45;&gt;Node21</title>
<g id="a_edge21_Node000002_Node000021"><a xlink:title=" ">
<path fill="none" stroke="#63b8ff" d="M280.53,-203.49C259.28,-193.7 224.15,-177.52 199.63,-166.23"/>
<polygon fill="#63b8ff" stroke="#63b8ff" points="201.04,-163.02 190.49,-162.02 198.11,-169.38 201.04,-163.02"/>
</a>
</g>
</g>
<!-- Node22 -->
<g id="Node000022" class="node">
<title>Node22</title>
<g id="a_Node000022"><a xlink:title=" ">
<polygon fill="#e0e0e0" stroke="#999999" points="289.5,-162 218.5,-162 218.5,-143 289.5,-143 289.5,-162"/>
<text text-anchor="middle" x="254" y="-150" font-family="Helvetica,sans-Serif" font-size="10.00">QTcpServer</text>
</a>
</g>
</g>
<!-- Node2&#45;&gt;Node22 -->
<g id="edge22_Node000002_Node000022" class="edge">
<title>Node2&#45;&gt;Node22</title>
<g id="a_edge22_Node000002_Node000022"><a xlink:title=" ">
<path fill="none" stroke="#63b8ff" d="M292.36,-203.37C285.71,-194.73 275.31,-181.2 267.01,-170.42"/>
<polygon fill="#63b8ff" stroke="#63b8ff" points="269.54,-167.96 260.67,-162.17 263.99,-172.23 269.54,-167.96"/>
</a>
</g>
</g>
<!-- Node23 -->
<g id="Node000023" class="node">
<title>Node23</title>
<g id="a_Node000023"><a xlink:title=" ">
<polygon fill="#e0e0e0" stroke="#999999" points="380,-162 308,-162 308,-143 380,-143 380,-162"/>
<text text-anchor="middle" x="344" y="-150" font-family="Helvetica,sans-Serif" font-size="10.00">QTcpSocket</text>
</a>
</g>
</g>
<!-- Node2&#45;&gt;Node23 -->
<g id="edge23_Node000002_Node000023" class="edge">
<title>Node2&#45;&gt;Node23</title>
<g id="a_edge23_Node000002_Node000023"><a xlink:title=" ">
<path fill="none" stroke="#63b8ff" d="M305.64,-203.37C312.29,-194.73 322.69,-181.2 330.99,-170.42"/>
<polygon fill="#63b8ff" stroke="#63b8ff" points="334.01,-172.23 337.33,-162.17 328.46,-167.96 334.01,-172.23"/>
</a>
</g>
</g>
<!-- Node24 -->
<g id="Node000024" class="node">
<title>Node24</title>
<g id="a_Node000024"><a xlink:title=" ">
<polygon fill="#e0e0e0" stroke="#999999" points="447.5,-162 398.5,-162 398.5,-143 447.5,-143 447.5,-162"/>
<text text-anchor="middle" x="423" y="-150" font-family="Helvetica,sans-Serif" font-size="10.00">QTime</text>
</a>
</g>
</g>
<!-- Node2&#45;&gt;Node24 -->
<g id="edge24_Node000002_Node000024" class="edge">
<title>Node2&#45;&gt;Node24</title>
<g id="a_edge24_Node000002_Node000024"><a xlink:title=" ">
<path fill="none" stroke="#63b8ff" d="M317.03,-203.49C337.69,-193.75 371.78,-177.66 395.7,-166.38"/>
<polygon fill="#63b8ff" stroke="#63b8ff" points="397.4,-169.45 404.95,-162.02 394.41,-163.12 397.4,-169.45"/>
</a>
</g>
</g>
<!-- Node4 -->
<g id="Node000004" class="node">
<title>Node4</title>
<g id="a_Node000004"><a xlink:href="Colfer_8h.html" target="_top" xlink:title=" ">
<polygon fill="white" stroke="#666666" points="570,-101.5 434,-101.5 434,-71.5 570,-71.5 570,-101.5"/>
<text text-anchor="start" x="442" y="-89.5" font-family="Helvetica,sans-Serif" font-size="10.00">../../VGP_Data_Exchange</text>
<text text-anchor="middle" x="502" y="-78.5" font-family="Helvetica,sans-Serif" font-size="10.00">/C/Colfer.h</text>
</a>
</g>
</g>
<!-- Node3&#45;&gt;Node4 -->
<g id="edge3_Node000003_Node000004" class="edge">
<title>Node3&#45;&gt;Node4</title>
<g id="a_edge3_Node000003_Node000004"><a xlink:title=" ">
<path fill="none" stroke="#63b8ff" d="M504.6,-142.87C504.23,-134.99 503.66,-122.95 503.15,-112.1"/>
<polygon fill="#63b8ff" stroke="#63b8ff" points="506.64,-111.69 502.67,-101.86 499.65,-112.01 506.64,-111.69"/>
</a>
</g>
</g>
<!-- Node8 -->
<g id="Node000008" class="node">
<title>Node8</title>
<g id="a_Node000008"><a xlink:href="input__types_8hpp.html" target="_top" xlink:title=" ">
<polygon fill="white" stroke="#666666" points="1070,-96 924,-96 924,-77 1070,-77 1070,-96"/>
<text text-anchor="middle" x="997" y="-84" font-family="Helvetica,sans-Serif" font-size="10.00">../settings/input_types.hpp</text>
</a>
</g>
</g>
<!-- Node3&#45;&gt;Node8 -->
<g id="edge7_Node000003_Node000008" class="edge">
<title>Node3&#45;&gt;Node8</title>
<g id="a_edge7_Node000003_Node000008"><a xlink:title=" ">
<path fill="none" stroke="#63b8ff" d="M544.52,-148.87C617.91,-143.61 780.06,-130.27 915,-107 928.2,-104.72 942.44,-101.58 955.3,-98.49"/>
<polygon fill="#63b8ff" stroke="#63b8ff" points="956.39,-101.82 965.26,-96.03 954.71,-95.02 956.39,-101.82"/>
</a>
</g>
</g>
<!-- Node12 -->
<g id="Node000012" class="node">
<title>Node12</title>
<g id="a_Node000012"><a xlink:href="gamepadSim_8hpp.html" target="_top" xlink:title=" ">
<polygon fill="white" stroke="#666666" points="416,-96 250,-96 250,-77 416,-77 416,-96"/>
<text text-anchor="middle" x="333" y="-84" font-family="Helvetica,sans-Serif" font-size="10.00">../simulation/gamepadSim.hpp</text>
</a>
</g>
</g>
<!-- Node3&#45;&gt;Node12 -->
<g id="edge11_Node000003_Node000012" class="edge">
<title>Node3&#45;&gt;Node12</title>
<g id="a_edge11_Node000003_Node000012"><a xlink:title=" ">
<path fill="none" stroke="#63b8ff" d="M481.8,-142.87C451.84,-131.72 399.52,-112.25 365.58,-99.62"/>
<polygon fill="#63b8ff" stroke="#63b8ff" points="366.7,-96.3 356.1,-96.1 364.25,-102.86 366.7,-96.3"/>
</a>
</g>
</g>
<!-- Node15 -->
<g id="Node000015" class="node">
<title>Node15</title>
<g id="a_Node000015"><a xlink:href="keyboardSim_8hpp.html" target="_top" xlink:title="Simulates keyboard input across platforms.">
<polygon fill="white" stroke="#666666" points="753.5,-96 588.5,-96 588.5,-77 753.5,-77 753.5,-96"/>
<text text-anchor="middle" x="671" y="-84" font-family="Helvetica,sans-Serif" font-size="10.00">../simulation/keyboardSim.hpp</text>
</a>
</g>
</g>
<!-- Node3&#45;&gt;Node15 -->
<g id="edge14_Node000003_Node000015" class="edge">
<title>Node3&#45;&gt;Node15</title>
<g id="a_edge14_Node000003_Node000015"><a xlink:title=" ">
<path fill="none" stroke="#63b8ff" d="M527.39,-142.87C556.18,-131.77 606.37,-112.42 639.14,-99.78"/>
<polygon fill="#63b8ff" stroke="#63b8ff" points="640.63,-102.96 648.7,-96.1 638.11,-96.43 640.63,-102.96"/>
</a>
</g>
</g>
<!-- Node18 -->
<g id="Node000018" class="node">
<title>Node18</title>
<g id="a_Node000018"><a xlink:href="mouseSim_8hpp.html" target="_top" xlink:title="Simulates mouse input across platforms.">
<polygon fill="white" stroke="#666666" points="231.5,-96 78.5,-96 78.5,-77 231.5,-77 231.5,-96"/>
<text text-anchor="middle" x="155" y="-84" font-family="Helvetica,sans-Serif" font-size="10.00">../simulation/mouseSim.hpp</text>
</a>
</g>
</g>
<!-- Node3&#45;&gt;Node18 -->
<g id="edge18_Node000003_Node000018" class="edge">
<title>Node3&#45;&gt;Node18</title>
<g id="a_edge18_Node000003_Node000018"><a xlink:title=" ">
<path fill="none" stroke="#63b8ff" d="M465.45,-144.46C462.59,-143.97 459.75,-143.47 457,-143 361.08,-126.51 336.5,-125.77 241,-107 227.71,-104.39 213.34,-101.25 200.22,-98.27"/>
<polygon fill="#63b8ff" stroke="#63b8ff" points="201,-94.86 190.47,-96.03 199.43,-101.68 201,-94.86"/>
</a>
</g>
</g>
<!-- Node3&#45;&gt;Node19 -->
<g id="edge19_Node000003_Node000019" class="edge">
<title>Node3&#45;&gt;Node19</title>
<g id="a_edge19_Node000003_Node000019"><a xlink:title=" ">
<path fill="none" stroke="#63b8ff" d="M465.49,-144.24C462.62,-143.79 459.77,-143.37 457,-143 285.36,-119.88 235.77,-153.7 69,-107 63.42,-105.44 57.68,-103.12 52.34,-100.62"/>
<polygon fill="#63b8ff" stroke="#63b8ff" points="53.82,-97.44 43.31,-96.05 50.66,-103.68 53.82,-97.44"/>
</a>
</g>
</g>
<!-- Node5 -->
<g id="Node000005" class="node">
<title>Node5</title>
<g id="a_Node000005"><a xlink:title=" ">
<polygon fill="#e0e0e0" stroke="#999999" points="599.5,-24.5 546.5,-24.5 546.5,-5.5 599.5,-5.5 599.5,-24.5"/>
<text text-anchor="middle" x="573" y="-12.5" font-family="Helvetica,sans-Serif" font-size="10.00">limits.h</text>
</a>
</g>
</g>
<!-- Node4&#45;&gt;Node5 -->
<g id="edge4_Node000004_Node000005" class="edge">
<title>Node4&#45;&gt;Node5</title>
<g id="a_edge4_Node000004_Node000005"><a xlink:title=" ">
<path fill="none" stroke="#63b8ff" d="M516.37,-71.44C528.07,-59.98 544.58,-43.82 556.76,-31.9"/>
<polygon fill="#63b8ff" stroke="#63b8ff" points="559.35,-34.26 564.04,-24.77 554.45,-29.26 559.35,-34.26"/>
</a>
</g>
</g>
<!-- Node6 -->
<g id="Node000006" class="node">
<title>Node6</title>
<g id="a_Node000006"><a xlink:title=" ">
<polygon fill="#e0e0e0" stroke="#999999" points="457.5,-24.5 404.5,-24.5 404.5,-5.5 457.5,-5.5 457.5,-24.5"/>
<text text-anchor="middle" x="431" y="-12.5" font-family="Helvetica,sans-Serif" font-size="10.00">stdint.h</text>
</a>
</g>
</g>
<!-- Node4&#45;&gt;Node6 -->
<g id="edge5_Node000004_Node000006" class="edge">
<title>Node4&#45;&gt;Node6</title>
<g id="a_edge5_Node000004_Node000006"><a xlink:title=" ">
<path fill="none" stroke="#63b8ff" d="M487.63,-71.44C475.93,-59.98 459.42,-43.82 447.24,-31.9"/>
<polygon fill="#63b8ff" stroke="#63b8ff" points="449.55,-29.26 439.96,-24.77 444.65,-34.26 449.55,-29.26"/>
</a>
</g>
</g>
<!-- Node7 -->
<g id="Node000007" class="node">
<title>Node7</title>
<g id="a_Node000007"><a xlink:title=" ">
<polygon fill="#e0e0e0" stroke="#999999" points="528.5,-24.5 475.5,-24.5 475.5,-5.5 528.5,-5.5 528.5,-24.5"/>
<text text-anchor="middle" x="502" y="-12.5" font-family="Helvetica,sans-Serif" font-size="10.00">string.h</text>
</a>
</g>
</g>
<!-- Node4&#45;&gt;Node7 -->
<g id="edge6_Node000004_Node000007" class="edge">
<title>Node4&#45;&gt;Node7</title>
<g id="a_edge6_Node000004_Node000007"><a xlink:title=" ">
<path fill="none" stroke="#63b8ff" d="M502,-71.44C502,-60.96 502,-46.55 502,-35.05"/>
<polygon fill="#63b8ff" stroke="#63b8ff" points="505.5,-34.77 502,-24.77 498.5,-34.77 505.5,-34.77"/>
</a>
</g>
</g>
<!-- Node9 -->
<g id="Node000009" class="node">
<title>Node9</title>
<g id="a_Node000009"><a xlink:href="GameButtons_8h.html" target="_top" xlink:title=" ">
<polygon fill="white" stroke="#666666" points="1153,-30 1017,-30 1017,0 1153,0 1153,-30"/>
<text text-anchor="start" x="1025" y="-18" font-family="Helvetica,sans-Serif" font-size="10.00">../../VGP_Data_Exchange</text>
<text text-anchor="middle" x="1085" y="-7" font-family="Helvetica,sans-Serif" font-size="10.00">/C/GameButtons.h</text>
</a>
</g>
</g>
<!-- Node8&#45;&gt;Node9 -->
<g id="edge8_Node000008_Node000009" class="edge">
<title>Node8&#45;&gt;Node9</title>
<g id="a_edge8_Node000008_Node000009"><a xlink:title=" ">
<path fill="none" stroke="#63b8ff" d="M1007.79,-76.98C1020.49,-66.95 1042.02,-49.95 1059.12,-36.44"/>
<polygon fill="#63b8ff" stroke="#63b8ff" points="1061.42,-39.08 1067.1,-30.14 1057.08,-33.59 1061.42,-39.08"/>
</a>
</g>
</g>
<!-- Node10 -->
<g id="Node000010" class="node">
<title>Node10</title>
<g id="a_Node000010"><a xlink:title=" ">
<polygon fill="#e0e0e0" stroke="#999999" points="1224.5,-24.5 1171.5,-24.5 1171.5,-5.5 1224.5,-5.5 1224.5,-24.5"/>
<text text-anchor="middle" x="1198" y="-12.5" font-family="Helvetica,sans-Serif" font-size="10.00">QString</text>
</a>
</g>
</g>
<!-- Node8&#45;&gt;Node10 -->
<g id="edge9_Node000008_Node000010" class="edge">
<title>Node8&#45;&gt;Node10</title>
<g id="a_edge9_Node000008_Node000010"><a xlink:title=" ">
<path fill="none" stroke="#63b8ff" d="M1023.71,-76.94C1056.45,-66.35 1113.55,-47.56 1162,-30 1163.6,-29.42 1165.24,-28.81 1166.9,-28.2"/>
<polygon fill="#63b8ff" stroke="#63b8ff" points="1168.25,-31.43 1176.36,-24.6 1165.77,-24.88 1168.25,-31.43"/>
</a>
</g>
</g>
<!-- Node11 -->
<g id="Node000011" class="node">
<title>Node11</title>
<g id="a_Node000011"><a xlink:title=" ">
<polygon fill="#e0e0e0" stroke="#999999" points="998.5,-24.5 969.5,-24.5 969.5,-5.5 998.5,-5.5 998.5,-24.5"/>
<text text-anchor="middle" x="984" y="-12.5" font-family="Helvetica,sans-Serif" font-size="10.00">Qt</text>
</a>
</g>
</g>
<!-- Node8&#45;&gt;Node11 -->
<g id="edge10_Node000008_Node000011" class="edge">
<title>Node8&#45;&gt;Node11</title>
<g id="a_edge10_Node000008_Node000011"><a xlink:title=" ">
<path fill="none" stroke="#63b8ff" d="M995.41,-76.98C993.44,-66.45 990.03,-48.25 987.45,-34.47"/>
<polygon fill="#63b8ff" stroke="#63b8ff" points="990.89,-33.78 985.61,-24.59 984.01,-35.06 990.89,-33.78"/>
</a>
</g>
</g>
<!-- Node13 -->
<g id="Node000013" class="node">
<title>Node13</title>
<g id="a_Node000013"><a xlink:title=" ">
<polygon fill="#e0e0e0" stroke="#999999" points="373,-24.5 317,-24.5 317,-5.5 373,-5.5 373,-24.5"/>
<text text-anchor="middle" x="345" y="-12.5" font-family="Helvetica,sans-Serif" font-size="10.00">QDebug</text>
</a>
</g>
</g>
<!-- Node12&#45;&gt;Node13 -->
<g id="edge12_Node000012_Node000013" class="edge">
<title>Node12&#45;&gt;Node13</title>
<g id="a_edge12_Node000012_Node000013"><a xlink:title=" ">
<path fill="none" stroke="#63b8ff" d="M334.47,-76.98C336.29,-66.45 339.43,-48.25 341.81,-34.47"/>
<polygon fill="#63b8ff" stroke="#63b8ff" points="345.26,-35.04 343.52,-24.59 338.37,-33.85 345.26,-35.04"/>
</a>
</g>
</g>
<!-- Node14 -->
<g id="Node000014" class="node">
<title>Node14</title>
<g id="a_Node000014"><a xlink:title=" ">
<polygon fill="#e0e0e0" stroke="#999999" points="298.5,-24.5 251.5,-24.5 251.5,-5.5 298.5,-5.5 298.5,-24.5"/>
<text text-anchor="middle" x="275" y="-12.5" font-family="Helvetica,sans-Serif" font-size="10.00">cmath</text>
</a>
</g>
</g>
<!-- Node12&#45;&gt;Node14 -->
<g id="edge13_Node000012_Node000014" class="edge">
<title>Node12&#45;&gt;Node14</title>
<g id="a_edge13_Node000012_Node000014"><a xlink:title=" ">
<path fill="none" stroke="#63b8ff" d="M325.89,-76.98C316.67,-65.93 300.4,-46.43 288.73,-32.46"/>
<polygon fill="#63b8ff" stroke="#63b8ff" points="291.26,-30.03 282.17,-24.59 285.89,-34.51 291.26,-30.03"/>
</a>
</g>
</g>
<!-- Node15&#45;&gt;Node10 -->
<g id="edge15_Node000015_Node000010" class="edge">
<title>Node15&#45;&gt;Node10</title>
<g id="a_edge15_Node000015_Node000010"><a xlink:title=" ">
<path fill="none" stroke="#63b8ff" d="M706.65,-76.91C723.63,-73.09 744.27,-68.82 763,-66 939.07,-39.49 988.65,-70.67 1162,-30 1164.37,-29.44 1166.79,-28.76 1169.2,-28.01"/>
<polygon fill="#63b8ff" stroke="#63b8ff" points="1170.63,-31.22 1178.89,-24.58 1168.29,-24.62 1170.63,-31.22"/>
</a>
</g>
</g>
<!-- Node16 -->
<g id="Node000016" class="node">
<title>Node16</title>
<g id="a_Node000016"><a xlink:title=" ">
<polygon fill="#e0e0e0" stroke="#999999" points="739,-24.5 695,-24.5 695,-5.5 739,-5.5 739,-24.5"/>
<text text-anchor="middle" x="717" y="-12.5" font-family="Helvetica,sans-Serif" font-size="10.00">string</text>
</a>
</g>
</g>
<!-- Node15&#45;&gt;Node16 -->
<g id="edge16_Node000015_Node000016" class="edge">
<title>Node15&#45;&gt;Node16</title>
<g id="a_edge16_Node000015_Node000016"><a xlink:title=" ">
<path fill="none" stroke="#63b8ff" d="M676.64,-76.98C683.81,-66.14 696.37,-47.16 705.58,-33.25"/>
<polygon fill="#63b8ff" stroke="#63b8ff" points="708.71,-34.86 711.31,-24.59 702.88,-31 708.71,-34.86"/>
</a>
</g>
</g>
<!-- Node17 -->
<g id="Node000017" class="node">
<title>Node17</title>
<g id="a_Node000017"><a xlink:title=" ">
<polygon fill="#e0e0e0" stroke="#999999" points="676.5,-24.5 629.5,-24.5 629.5,-5.5 676.5,-5.5 676.5,-24.5"/>
<text text-anchor="middle" x="653" y="-12.5" font-family="Helvetica,sans-Serif" font-size="10.00">vector</text>
</a>
</g>
</g>
<!-- Node15&#45;&gt;Node17 -->
<g id="edge17_Node000015_Node000017" class="edge">
<title>Node15&#45;&gt;Node17</title>
<g id="a_edge17_Node000015_Node000017"><a xlink:title=" ">
<path fill="none" stroke="#63b8ff" d="M668.79,-76.98C666.07,-66.45 661.35,-48.25 657.78,-34.47"/>
<polygon fill="#63b8ff" stroke="#63b8ff" points="661.12,-33.39 655.23,-24.59 654.34,-35.15 661.12,-33.39"/>
</a>
</g>
</g>
<!-- Node25&#45;&gt;Node16 -->
<g id="edge30_Node000025_Node000016" class="edge">
<title>Node25&#45;&gt;Node16</title>
<g id="a_edge30_Node000025_Node000016"><a xlink:title=" ">
<path fill="none" stroke="#63b8ff" d="M804.69,-65.96C784.29,-54.33 758.92,-39.88 740.72,-29.51"/>
<polygon fill="#63b8ff" stroke="#63b8ff" points="742.35,-26.41 731.93,-24.5 738.88,-32.49 742.35,-26.41"/>
</a>
</g>
</g>
<!-- Node25&#45;&gt;Node17 -->
<g id="edge31_Node000025_Node000017" class="edge">
<title>Node25&#45;&gt;Node17</title>
<g id="a_edge31_Node000025_Node000017"><a xlink:title=" ">
<path fill="none" stroke="#63b8ff" d="M782.78,-65.91C753.74,-55.59 717.82,-42.51 686,-30 684.79,-29.53 683.57,-29.04 682.33,-28.54"/>
<polygon fill="#63b8ff" stroke="#63b8ff" points="683.4,-25.19 672.82,-24.61 680.73,-31.66 683.4,-25.19"/>
</a>
</g>
</g>
<!-- Node26 -->
<g id="Node000026" class="node">
<title>Node26</title>
<g id="a_Node000026"><a xlink:title=" ">
<polygon fill="#e0e0e0" stroke="#999999" points="883,-24.5 841,-24.5 841,-5.5 883,-5.5 883,-24.5"/>
<text text-anchor="middle" x="862" y="-12.5" font-family="Helvetica,sans-Serif" font-size="10.00">array</text>
</a>
</g>
</g>
<!-- Node25&#45;&gt;Node26 -->
<g id="edge27_Node000025_Node000026" class="edge">
<title>Node25&#45;&gt;Node26</title>
<g id="a_edge27_Node000025_Node000026"><a xlink:title=" ">
<path fill="none" stroke="#63b8ff" d="M845.53,-65.77C848.77,-55.97 852.67,-44.2 855.85,-34.57"/>
<polygon fill="#63b8ff" stroke="#63b8ff" points="859.26,-35.41 859.08,-24.82 852.62,-33.21 859.26,-35.41"/>
</a>
</g>
</g>
<!-- Node27 -->
<g id="Node000027" class="node">
<title>Node27</title>
<g id="a_Node000027"><a xlink:title=" ">
<polygon fill="#e0e0e0" stroke="#999999" points="951,-24.5 901,-24.5 901,-5.5 951,-5.5 951,-24.5"/>
<text text-anchor="middle" x="926" y="-12.5" font-family="Helvetica,sans-Serif" font-size="10.00">cstdint</text>
</a>
</g>
</g>
<!-- Node25&#45;&gt;Node27 -->
<g id="edge28_Node000025_Node000027" class="edge">
<title>Node25&#45;&gt;Node27</title>
<g id="a_edge28_Node000025_Node000027"><a xlink:title=" ">
<path fill="none" stroke="#63b8ff" d="M863.7,-65.77C877.41,-54.81 894.21,-41.39 906.91,-31.25"/>
<polygon fill="#63b8ff" stroke="#63b8ff" points="909.33,-33.8 914.96,-24.82 904.96,-28.33 909.33,-33.8"/>
</a>
</g>
</g>
<!-- Node28 -->
<g id="Node000028" class="node">
<title>Node28</title>
<g id="a_Node000028"><a xlink:title=" ">
<polygon fill="#e0e0e0" stroke="#999999" points="822.5,-24.5 757.5,-24.5 757.5,-5.5 822.5,-5.5 822.5,-24.5"/>
<text text-anchor="middle" x="790" y="-12.5" font-family="Helvetica,sans-Serif" font-size="10.00">stdexcept</text>
</a>
</g>
</g>
<!-- Node25&#45;&gt;Node28 -->
<g id="edge29_Node000025_Node000028" class="edge">
<title>Node25&#45;&gt;Node28</title>
<g id="a_edge29_Node000025_Node000028"><a xlink:title=" ">
<path fill="none" stroke="#63b8ff" d="M825.09,-65.77C817.81,-55.45 808.99,-42.93 802.01,-33.04"/>
<polygon fill="#63b8ff" stroke="#63b8ff" points="804.84,-30.98 796.22,-24.82 799.12,-35.01 804.84,-30.98"/>
</a>
</g>
</g>
<!-- Node29&#45;&gt;Node8 -->
<g id="edge34_Node000029_Node000008" class="edge">
<title>Node29&#45;&gt;Node8</title>
<g id="a_edge34_Node000029_Node000008"><a xlink:title=" ">
<path fill="none" stroke="#63b8ff" d="M1252.43,-207.28C1205.88,-201.5 1137.68,-188.92 1084,-162 1054.82,-147.37 1027.3,-120.87 1011.3,-103.74"/>
<polygon fill="#63b8ff" stroke="#63b8ff" points="1013.73,-101.22 1004.41,-96.18 1008.55,-105.93 1013.73,-101.22"/>
</a>
</g>
</g>
<!-- Node29&#45;&gt;Node9 -->
<g id="edge33_Node000029_Node000009" class="edge">
<title>Node29&#45;&gt;Node9</title>
<g id="a_edge33_Node000029_Node000009"><a xlink:title=" ">
<path fill="none" stroke="#63b8ff" d="M1252.42,-207.86C1216.83,-202.47 1171.24,-190.14 1141,-162 1106,-129.44 1092.65,-72.59 1087.73,-40.28"/>
<polygon fill="#63b8ff" stroke="#63b8ff" points="1091.19,-39.76 1086.37,-30.33 1084.26,-40.71 1091.19,-39.76"/>
</a>
</g>
</g>
<!-- Node29&#45;&gt;Node10 -->
<g id="edge47_Node000029_Node000010" class="edge">
<title>Node29&#45;&gt;Node10</title>
<g id="a_edge47_Node000029_Node000010"><a xlink:title=" ">
<path fill="none" stroke="#63b8ff" d="M1252.41,-209.3C1218.8,-204.5 1177.83,-192.29 1156,-162 1131.05,-127.39 1141.4,-106.09 1156,-66 1160.8,-52.82 1170.78,-40.7 1179.8,-31.69"/>
<polygon fill="#63b8ff" stroke="#63b8ff" points="1182.43,-34.02 1187.33,-24.63 1177.64,-28.92 1182.43,-34.02"/>
</a>
</g>
</g>
<!-- Node30 -->
<g id="Node000030" class="node">
<title>Node30</title>
<g id="a_Node000030"><a xlink:href="keymap__profile_8hpp.html" target="_top" xlink:title=" ">
<polygon fill="white" stroke="#666666" points="1277.5,-162 1164.5,-162 1164.5,-143 1277.5,-143 1277.5,-162"/>
<text text-anchor="middle" x="1221" y="-150" font-family="Helvetica,sans-Serif" font-size="10.00">keymap_profile.hpp</text>
</a>
</g>
</g>
<!-- Node29&#45;&gt;Node30 -->
<g id="edge35_Node000029_Node000030" class="edge">
<title>Node29&#45;&gt;Node30</title>
<g id="a_edge35_Node000029_Node000030"><a xlink:title=" ">
<path fill="none" stroke="#63b8ff" d="M1285.42,-197.84C1272.33,-188.83 1255.41,-177.18 1242.2,-168.09"/>
<polygon fill="#63b8ff" stroke="#63b8ff" points="1243.96,-165.05 1233.74,-162.27 1239.99,-170.82 1243.96,-165.05"/>
</a>
</g>
</g>
<!-- Node32 -->
<g id="Node000032" class="node">
<title>Node32</title>
<g id="a_Node000032"><a xlink:title=" ">
<polygon fill="#e0e0e0" stroke="#999999" points="1374,-96 1318,-96 1318,-77 1374,-77 1374,-96"/>
<text text-anchor="middle" x="1346" y="-84" font-family="Helvetica,sans-Serif" font-size="10.00">QObject</text>
</a>
</g>
</g>
<!-- Node29&#45;&gt;Node32 -->
<g id="edge45_Node000029_Node000032" class="edge">
<title>Node29&#45;&gt;Node32</title>
<g id="a_edge45_Node000029_Node000032"><a xlink:title=" ">
<path fill="none" stroke="#63b8ff" d="M1310.59,-197.72C1317.88,-175.02 1332.11,-130.72 1340.14,-105.75"/>
<polygon fill="#63b8ff" stroke="#63b8ff" points="1343.52,-106.66 1343.25,-96.07 1336.86,-104.52 1343.52,-106.66"/>
</a>
</g>
</g>
<!-- Node33 -->
<g id="Node000033" class="node">
<title>Node33</title>
<g id="a_Node000033"><a xlink:title=" ">
<polygon fill="#e0e0e0" stroke="#999999" points="1456,-96 1392,-96 1392,-77 1456,-77 1456,-96"/>
<text text-anchor="middle" x="1424" y="-84" font-family="Helvetica,sans-Serif" font-size="10.00">QSettings</text>
</a>
</g>
</g>
<!-- Node29&#45;&gt;Node33 -->
<g id="edge46_Node000029_Node000033" class="edge">
<title>Node29&#45;&gt;Node33</title>
<g id="a_edge46_Node000029_Node000033"><a xlink:title=" ">
<path fill="none" stroke="#63b8ff" d="M1316.8,-197.76C1327.87,-183.45 1345.85,-160.99 1363,-143 1376.65,-128.69 1393.32,-113.66 1405.79,-102.86"/>
<polygon fill="#63b8ff" stroke="#63b8ff" points="1408.34,-105.28 1413.66,-96.12 1403.79,-99.97 1408.34,-105.28"/>
</a>
</g>
</g>
<!-- Node35 -->
<g id="Node000035" class="node">
<title>Node35</title>
<g id="a_Node000035"><a xlink:title=" ">
<polygon fill="#e0e0e0" stroke="#999999" points="1410,-162 1372,-162 1372,-143 1410,-143 1410,-162"/>
<text text-anchor="middle" x="1391" y="-150" font-family="Helvetica,sans-Serif" font-size="10.00">QDir</text>
</a>
</g>
</g>
<!-- Node29&#45;&gt;Node35 -->
<g id="edge42_Node000029_Node000035" class="edge">
<title>Node29&#45;&gt;Node35</title>
<g id="a_edge42_Node000029_Node000035"><a xlink:title=" ">
<path fill="none" stroke="#63b8ff" d="M1326.58,-197.84C1339.67,-188.83 1356.59,-177.18 1369.8,-168.09"/>
<polygon fill="#63b8ff" stroke="#63b8ff" points="1372.01,-170.82 1378.26,-162.27 1368.04,-165.05 1372.01,-170.82"/>
</a>
</g>
</g>
<!-- Node29&#45;&gt;Node36 -->
<g id="edge43_Node000029_Node000036" class="edge">
<title>Node29&#45;&gt;Node36</title>
<g id="a_edge43_Node000029_Node000036"><a xlink:title=" ">
<path fill="none" stroke="#63b8ff" d="M1359.81,-200.86C1364.61,-199.89 1369.39,-198.92 1374,-198 1453.51,-182.12 1476.49,-181.86 1558.69,-162.14"/>
<polygon fill="#63b8ff" stroke="#63b8ff" points="1559.57,-165.53 1568.47,-159.78 1557.93,-158.73 1559.57,-165.53"/>
</a>
</g>
</g>
<!-- Node37 -->
<g id="Node000037" class="node">
<title>Node37</title>
<g id="a_Node000037"><a xlink:title=" ">
<polygon fill="#e0e0e0" stroke="#999999" points="1473.5,-162 1428.5,-162 1428.5,-143 1473.5,-143 1473.5,-162"/>
<text text-anchor="middle" x="1451" y="-150" font-family="Helvetica,sans-Serif" font-size="10.00">QMap</text>
</a>
</g>
</g>
<!-- Node29&#45;&gt;Node37 -->
<g id="edge44_Node000029_Node000037" class="edge">
<title>Node29&#45;&gt;Node37</title>
<g id="a_edge44_Node000029_Node000037"><a xlink:title=" ">
<path fill="none" stroke="#63b8ff" d="M1340.73,-197.99C1364.92,-188.23 1396.9,-175.33 1420.19,-165.93"/>
<polygon fill="#63b8ff" stroke="#63b8ff" points="1421.62,-169.13 1429.59,-162.14 1419,-162.63 1421.62,-169.13"/>
</a>
</g>
</g>
<!-- Node38 -->
<g id="Node000038" class="node">
<title>Node38</title>
<g id="a_Node000038"><a xlink:title=" ">
<polygon fill="#e0e0e0" stroke="#999999" points="1550.5,-162 1491.5,-162 1491.5,-143 1550.5,-143 1550.5,-162"/>
<text text-anchor="middle" x="1521" y="-150" font-family="Helvetica,sans-Serif" font-size="10.00">QVariant</text>
</a>
</g>
</g>
<!-- Node29&#45;&gt;Node38 -->
<g id="edge48_Node000029_Node000038" class="edge">
<title>Node29&#45;&gt;Node38</title>
<g id="a_edge48_Node000029_Node000038"><a xlink:title=" ">
<path fill="none" stroke="#63b8ff" d="M1357.5,-197.99C1395.6,-187.62 1446.73,-173.71 1481.6,-164.22"/>
<polygon fill="#63b8ff" stroke="#63b8ff" points="1482.7,-167.55 1491.43,-161.55 1480.86,-160.79 1482.7,-167.55"/>
</a>
</g>
</g>
<!-- Node30&#45;&gt;Node8 -->
<g id="edge36_Node000030_Node000008" class="edge">
<title>Node30&#45;&gt;Node8</title>
<g id="a_edge36_Node000030_Node000008"><a xlink:title=" ">
<path fill="none" stroke="#63b8ff" d="M1190.79,-142.87C1151.02,-131.5 1080.99,-111.5 1036.89,-98.9"/>
<polygon fill="#63b8ff" stroke="#63b8ff" points="1037.66,-95.48 1027.09,-96.1 1035.74,-102.21 1037.66,-95.48"/>
</a>
</g>
</g>
<!-- Node30&#45;&gt;Node10 -->
<g id="edge40_Node000030_Node000010" class="edge">
<title>Node30&#45;&gt;Node10</title>
<g id="a_edge40_Node000030_Node000010"><a xlink:title=" ">
<path fill="none" stroke="#63b8ff" d="M1236.43,-142.8C1248.35,-135.11 1263.96,-122.69 1271,-107 1278.46,-90.37 1279.5,-82.12 1271,-66 1262.28,-49.46 1245.35,-37.34 1229.98,-29.18"/>
<polygon fill="#63b8ff" stroke="#63b8ff" points="1231.22,-25.89 1220.71,-24.61 1228.13,-32.17 1231.22,-25.89"/>
</a>
</g>
</g>
<!-- Node31 -->
<g id="Node000031" class="node">
<title>Node31</title>
<g id="a_Node000031"><a xlink:title=" ">
<polygon fill="#e0e0e0" stroke="#999999" points="1205.5,-96 1164.5,-96 1164.5,-77 1205.5,-77 1205.5,-96"/>
<text text-anchor="middle" x="1185" y="-84" font-family="Helvetica,sans-Serif" font-size="10.00">QFile</text>
</a>
</g>
</g>
<!-- Node30&#45;&gt;Node31 -->
<g id="edge37_Node000030_Node000031" class="edge">
<title>Node30&#45;&gt;Node31</title>
<g id="a_edge37_Node000030_Node000031"><a xlink:title=" ">
<path fill="none" stroke="#63b8ff" d="M1216.14,-142.87C1210.75,-133.28 1201.9,-117.55 1195.01,-105.3"/>
<polygon fill="#63b8ff" stroke="#63b8ff" points="1197.96,-103.41 1190.01,-96.41 1191.86,-106.84 1197.96,-103.41"/>
</a>
</g>
</g>
<!-- Node30&#45;&gt;Node32 -->
<g id="edge38_Node000030_Node000032" class="edge">
<title>Node30&#45;&gt;Node32</title>
<g id="a_edge38_Node000030_Node000032"><a xlink:title=" ">
<path fill="none" stroke="#63b8ff" d="M1237.86,-142.87C1258.92,-132.09 1295.18,-113.52 1319.86,-100.88"/>
<polygon fill="#63b8ff" stroke="#63b8ff" points="1321.7,-103.87 1329.01,-96.2 1318.51,-97.64 1321.7,-103.87"/>
</a>
</g>
</g>
<!-- Node30&#45;&gt;Node33 -->
<g id="edge39_Node000030_Node000033" class="edge">
<title>Node30&#45;&gt;Node33</title>
<g id="a_edge39_Node000030_Node000033"><a xlink:title=" ">
<path fill="none" stroke="#63b8ff" d="M1259.57,-142.93C1292.78,-135.07 1341.72,-122.35 1383,-107 1388.04,-105.13 1393.31,-102.86 1398.32,-100.56"/>
<polygon fill="#63b8ff" stroke="#63b8ff" points="1400.02,-103.62 1407.53,-96.15 1397,-97.31 1400.02,-103.62"/>
</a>
</g>
</g>
<!-- Node34 -->
<g id="Node000034" class="node">
<title>Node34</title>
<g id="a_Node000034"><a xlink:title=" ">
<polygon fill="#e0e0e0" stroke="#999999" points="1262,-96 1224,-96 1224,-77 1262,-77 1262,-96"/>
<text text-anchor="middle" x="1243" y="-84" font-family="Helvetica,sans-Serif" font-size="10.00">map</text>
</a>
</g>
</g>
<!-- Node30&#45;&gt;Node34 -->
<g id="edge41_Node000030_Node000034" class="edge">
<title>Node30&#45;&gt;Node34</title>
<g id="a_edge41_Node000030_Node000034"><a xlink:title=" ">
<path fill="none" stroke="#63b8ff" d="M1223.97,-142.87C1227.2,-133.47 1232.46,-118.17 1236.63,-106.03"/>
<polygon fill="#63b8ff" stroke="#63b8ff" points="1240,-107 1239.94,-96.41 1233.38,-104.72 1240,-107"/>
</a>
</g>
</g>
</g>
</svg>
