<?xml version="1.0" encoding="UTF-8" standalone="no"?>
<!DOCTYPE svg PUBLIC "-//W3C//DTD SVG 1.1//EN"
 "http://www.w3.org/Graphics/SVG/1.1/DTD/svg11.dtd">
<!-- Generated by graphviz version 2.43.0 (0)
 -->
<!-- Title: src/networking/server.cpp Pages: 1 -->
<svg width="1644pt" height="302pt"
 viewBox="0.00 0.00 1644.00 302.00" xmlns="http://www.w3.org/2000/svg" xmlns:xlink="http://www.w3.org/1999/xlink">
<g id="graph0" class="graph" transform="scale(1 1) rotate(0) translate(4 298)">
<title>src/networking/server.cpp</title>
<!-- Node1 -->
<g id="Node000001" class="node">
<title>Node1</title>
<g id="a_Node000001"><a xlink:title=" ">
<polygon fill="#999999" stroke="#666666" points="1112,-294 970,-294 970,-275 1112,-275 1112,-294"/>
<text text-anchor="middle" x="1041" y="-282" font-family="Helvetica,sans-Serif" font-size="10.00">src/networking/server.cpp</text>
</a>
</g>
</g>
<!-- Node2 -->
<g id="Node000002" class="node">
<title>Node2</title>
<g id="a_Node000002"><a xlink:href="server_8hpp.html" target="_top" xlink:title=" ">
<polygon fill="white" stroke="#666666" points="189,-233.5 121,-233.5 121,-214.5 189,-214.5 189,-233.5"/>
<text text-anchor="middle" x="155" y="-221.5" font-family="Helvetica,sans-Serif" font-size="10.00">server.hpp</text>
</a>
</g>
</g>
<!-- Node1&#45;&gt;Node2 -->
<g id="edge1_Node000001_Node000002" class="edge">
<title>Node1&#45;&gt;Node2</title>
<g id="a_edge1_Node000001_Node000002"><a xlink:title=" ">
<path fill="none" stroke="#63b8ff" d="M969.93,-281.65C831.21,-277.56 514.78,-265.9 250,-239 233.4,-237.31 215.26,-234.81 199.32,-232.38"/>
<polygon fill="#63b8ff" stroke="#63b8ff" points="199.62,-228.88 189.21,-230.8 198.55,-235.8 199.62,-228.88"/>
</a>
</g>
</g>
<!-- Node6 -->
<g id="Node000006" class="node">
<title>Node6</title>
<g id="a_Node000006"><a xlink:href="qrcodegen_8hpp.html" target="_top" xlink:title=" ">
<polygon fill="white" stroke="#666666" points="228,-107 94,-107 94,-66 228,-66 228,-107"/>
<text text-anchor="start" x="102" y="-95" font-family="Helvetica,sans-Serif" font-size="10.00">../../third&#45;party&#45;libs</text>
<text text-anchor="start" x="102" y="-84" font-family="Helvetica,sans-Serif" font-size="10.00">/QR&#45;Code&#45;generator/cpp</text>
<text text-anchor="middle" x="161" y="-73" font-family="Helvetica,sans-Serif" font-size="10.00">/qrcodegen.hpp</text>
</a>
</g>
</g>
<!-- Node1&#45;&gt;Node6 -->
<g id="edge5_Node000001_Node000006" class="edge">
<title>Node1&#45;&gt;Node6</title>
<g id="a_edge5_Node000001_Node000006"><a xlink:title=" ">
<path fill="none" stroke="#63b8ff" d="M969.91,-283.68C861.7,-282.67 649.68,-275.62 474,-239 386.08,-220.67 361.8,-216.1 283,-173 264.12,-162.67 262.44,-155.61 245,-143 230.81,-132.74 214.86,-122.01 200.7,-112.74"/>
<polygon fill="#63b8ff" stroke="#63b8ff" points="202.44,-109.7 192.14,-107.18 198.62,-115.57 202.44,-109.7"/>
</a>
</g>
</g>
<!-- Node12 -->
<g id="Node000012" class="node">
<title>Node12</title>
<g id="a_Node000012"><a xlink:href="settings__singleton_8hpp.html" target="_top" xlink:title=" ">
<polygon fill="white" stroke="#666666" points="904.5,-239 797.5,-239 797.5,-209 904.5,-209 904.5,-239"/>
<text text-anchor="start" x="805.5" y="-227" font-family="Helvetica,sans-Serif" font-size="10.00">../settings/settings</text>
<text text-anchor="middle" x="851" y="-216" font-family="Helvetica,sans-Serif" font-size="10.00">_singleton.hpp</text>
</a>
</g>
</g>
<!-- Node1&#45;&gt;Node12 -->
<g id="edge11_Node000001_Node000012" class="edge">
<title>Node1&#45;&gt;Node12</title>
<g id="a_edge11_Node000001_Node000012"><a xlink:title=" ">
<path fill="none" stroke="#63b8ff" d="M1013.37,-274.99C985.43,-266.39 941.47,-252.86 906.33,-242.04"/>
<polygon fill="#63b8ff" stroke="#63b8ff" points="907.27,-238.66 896.68,-239.06 905.21,-245.35 907.27,-238.66"/>
</a>
</g>
</g>
<!-- Node24 -->
<g id="Node000024" class="node">
<title>Node24</title>
<g id="a_Node000024"><a xlink:title=" ">
<polygon fill="#e0e0e0" stroke="#999999" points="1266.5,-167.5 1225.5,-167.5 1225.5,-148.5 1266.5,-148.5 1266.5,-167.5"/>
<text text-anchor="middle" x="1246" y="-155.5" font-family="Helvetica,sans-Serif" font-size="10.00">QList</text>
</a>
</g>
</g>
<!-- Node1&#45;&gt;Node24 -->
<g id="edge50_Node000001_Node000024" class="edge">
<title>Node1&#45;&gt;Node24</title>
<g id="a_edge50_Node000001_Node000024"><a xlink:title=" ">
<path fill="none" stroke="#63b8ff" d="M1003.85,-274.9C984.84,-268.41 963.35,-257.37 952,-239 944.99,-227.66 943.23,-219.04 952,-209 991.09,-164.24 1160.09,-190.13 1217,-173 1218.26,-172.62 1219.54,-172.19 1220.82,-171.72"/>
<polygon fill="#63b8ff" stroke="#63b8ff" points="1222.58,-174.78 1230.41,-167.63 1219.84,-168.34 1222.58,-174.78"/>
</a>
</g>
</g>
<!-- Node28 -->
<g id="Node000028" class="node">
<title>Node28</title>
<g id="a_Node000028"><a xlink:href="executor_8hpp.html" target="_top" xlink:title=" ">
<polygon fill="white" stroke="#666666" points="561.5,-233.5 482.5,-233.5 482.5,-214.5 561.5,-214.5 561.5,-233.5"/>
<text text-anchor="middle" x="522" y="-221.5" font-family="Helvetica,sans-Serif" font-size="10.00">executor.hpp</text>
</a>
</g>
</g>
<!-- Node1&#45;&gt;Node28 -->
<g id="edge34_Node000001_Node000028" class="edge">
<title>Node1&#45;&gt;Node28</title>
<g id="a_edge34_Node000001_Node000028"><a xlink:title=" ">
<path fill="none" stroke="#63b8ff" d="M969.92,-275.49C863.16,-263.45 664.06,-241.01 571.58,-230.59"/>
<polygon fill="#63b8ff" stroke="#63b8ff" points="571.97,-227.11 561.64,-229.47 571.18,-234.07 571.97,-227.11"/>
</a>
</g>
</g>
<!-- Node36 -->
<g id="Node000036" class="node">
<title>Node36</title>
<g id="a_Node000036"><a xlink:title=" ">
<polygon fill="#e0e0e0" stroke="#999999" points="1031,-233.5 961,-233.5 961,-214.5 1031,-214.5 1031,-233.5"/>
<text text-anchor="middle" x="996" y="-221.5" font-family="Helvetica,sans-Serif" font-size="10.00">ui_server.h</text>
</a>
</g>
</g>
<!-- Node1&#45;&gt;Node36 -->
<g id="edge46_Node000001_Node000036" class="edge">
<title>Node1&#45;&gt;Node36</title>
<g id="a_edge46_Node000001_Node000036"><a xlink:title=" ">
<path fill="none" stroke="#63b8ff" d="M1034.36,-274.87C1027.71,-266.23 1017.31,-252.7 1009.01,-241.92"/>
<polygon fill="#63b8ff" stroke="#63b8ff" points="1011.54,-239.46 1002.67,-233.67 1005.99,-243.73 1011.54,-239.46"/>
</a>
</g>
</g>
<!-- Node37 -->
<g id="Node000037" class="node">
<title>Node37</title>
<g id="a_Node000037"><a xlink:title=" ">
<polygon fill="#e0e0e0" stroke="#999999" points="1122.5,-233.5 1049.5,-233.5 1049.5,-214.5 1122.5,-214.5 1122.5,-233.5"/>
<text text-anchor="middle" x="1086" y="-221.5" font-family="Helvetica,sans-Serif" font-size="10.00">QByteArray</text>
</a>
</g>
</g>
<!-- Node1&#45;&gt;Node37 -->
<g id="edge47_Node000001_Node000037" class="edge">
<title>Node1&#45;&gt;Node37</title>
<g id="a_edge47_Node000001_Node000037"><a xlink:title=" ">
<path fill="none" stroke="#63b8ff" d="M1047.64,-274.87C1054.29,-266.23 1064.69,-252.7 1072.99,-241.92"/>
<polygon fill="#63b8ff" stroke="#63b8ff" points="1076.01,-243.73 1079.33,-233.67 1070.46,-239.46 1076.01,-243.73"/>
</a>
</g>
</g>
<!-- Node38 -->
<g id="Node000038" class="node">
<title>Node38</title>
<g id="a_Node000038"><a xlink:title=" ">
<polygon fill="#e0e0e0" stroke="#999999" points="1223.5,-233.5 1140.5,-233.5 1140.5,-214.5 1223.5,-214.5 1223.5,-233.5"/>
<text text-anchor="middle" x="1182" y="-221.5" font-family="Helvetica,sans-Serif" font-size="10.00">QDataStream</text>
</a>
</g>
</g>
<!-- Node1&#45;&gt;Node38 -->
<g id="edge48_Node000001_Node000038" class="edge">
<title>Node1&#45;&gt;Node38</title>
<g id="a_edge48_Node000001_Node000038"><a xlink:title=" ">
<path fill="none" stroke="#63b8ff" d="M1061.5,-274.99C1085.31,-265.12 1124.79,-248.73 1152.04,-237.43"/>
<polygon fill="#63b8ff" stroke="#63b8ff" points="1153.58,-240.58 1161.47,-233.52 1150.89,-234.12 1153.58,-240.58"/>
</a>
</g>
</g>
<!-- Node39 -->
<g id="Node000039" class="node">
<title>Node39</title>
<g id="a_Node000039"><a xlink:title=" ">
<polygon fill="#e0e0e0" stroke="#999999" points="1328,-233.5 1242,-233.5 1242,-214.5 1328,-214.5 1328,-233.5"/>
<text text-anchor="middle" x="1285" y="-221.5" font-family="Helvetica,sans-Serif" font-size="10.00">QHostAddress</text>
</a>
</g>
</g>
<!-- Node1&#45;&gt;Node39 -->
<g id="edge49_Node000001_Node000039" class="edge">
<title>Node1&#45;&gt;Node39</title>
<g id="a_edge49_Node000001_Node000039"><a xlink:title=" ">
<path fill="none" stroke="#63b8ff" d="M1079.71,-274.95C1118.56,-266.27 1180.06,-252.26 1233,-239 1236.61,-238.1 1240.36,-237.13 1244.12,-236.15"/>
<polygon fill="#63b8ff" stroke="#63b8ff" points="1245.2,-239.49 1253.98,-233.54 1243.41,-232.72 1245.2,-239.49"/>
</a>
</g>
</g>
<!-- Node40 -->
<g id="Node000040" class="node">
<title>Node40</title>
<g id="a_Node000040"><a xlink:title=" ">
<polygon fill="#e0e0e0" stroke="#999999" points="1432,-233.5 1346,-233.5 1346,-214.5 1432,-214.5 1432,-233.5"/>
<text text-anchor="middle" x="1389" y="-221.5" font-family="Helvetica,sans-Serif" font-size="10.00">QMessageBox</text>
</a>
</g>
</g>
<!-- Node1&#45;&gt;Node40 -->
<g id="edge51_Node000001_Node000040" class="edge">
<title>Node1&#45;&gt;Node40</title>
<g id="a_edge51_Node000001_Node000040"><a xlink:title=" ">
<path fill="none" stroke="#63b8ff" d="M1112.28,-275.1C1172.49,-267.45 1260.83,-254.93 1337,-239 1341.17,-238.13 1345.5,-237.12 1349.81,-236.06"/>
<polygon fill="#63b8ff" stroke="#63b8ff" points="1350.9,-239.39 1359.72,-233.51 1349.16,-232.61 1350.9,-239.39"/>
</a>
</g>
</g>
<!-- Node41 -->
<g id="Node000041" class="node">
<title>Node41</title>
<g id="a_Node000041"><a xlink:title=" ">
<polygon fill="#e0e0e0" stroke="#999999" points="1559.5,-233.5 1450.5,-233.5 1450.5,-214.5 1559.5,-214.5 1559.5,-233.5"/>
<text text-anchor="middle" x="1505" y="-221.5" font-family="Helvetica,sans-Serif" font-size="10.00">QNetworkInterface</text>
</a>
</g>
</g>
<!-- Node1&#45;&gt;Node41 -->
<g id="edge52_Node000001_Node000041" class="edge">
<title>Node1&#45;&gt;Node41</title>
<g id="a_edge52_Node000001_Node000041"><a xlink:title=" ">
<path fill="none" stroke="#63b8ff" d="M1112.12,-277.85C1192.34,-270.95 1326.55,-257.83 1441,-239 1446.9,-238.03 1453.07,-236.87 1459.15,-235.64"/>
<polygon fill="#63b8ff" stroke="#63b8ff" points="1460.18,-239 1469.25,-233.51 1458.74,-232.14 1460.18,-239"/>
</a>
</g>
</g>
<!-- Node42 -->
<g id="Node000042" class="node">
<title>Node42</title>
<g id="a_Node000042"><a xlink:title=" ">
<polygon fill="#e0e0e0" stroke="#999999" points="1636,-233.5 1578,-233.5 1578,-214.5 1636,-214.5 1636,-233.5"/>
<text text-anchor="middle" x="1607" y="-221.5" font-family="Helvetica,sans-Serif" font-size="10.00">QThread</text>
</a>
</g>
</g>
<!-- Node1&#45;&gt;Node42 -->
<g id="edge53_Node000001_Node000042" class="edge">
<title>Node1&#45;&gt;Node42</title>
<g id="a_edge53_Node000001_Node000042"><a xlink:title=" ">
<path fill="none" stroke="#63b8ff" d="M1112.37,-283.53C1214.7,-282.21 1408.48,-274.65 1569,-239 1571.67,-238.41 1574.42,-237.67 1577.14,-236.84"/>
<polygon fill="#63b8ff" stroke="#63b8ff" points="1578.44,-240.1 1586.79,-233.59 1576.2,-233.47 1578.44,-240.1"/>
</a>
</g>
</g>
<!-- Node3 -->
<g id="Node000003" class="node">
<title>Node3</title>
<g id="a_Node000003"><a xlink:title=" ">
<polygon fill="#e0e0e0" stroke="#999999" points="56,-167.5 0,-167.5 0,-148.5 56,-148.5 56,-167.5"/>
<text text-anchor="middle" x="28" y="-155.5" font-family="Helvetica,sans-Serif" font-size="10.00">QDialog</text>
</a>
</g>
</g>
<!-- Node2&#45;&gt;Node3 -->
<g id="edge2_Node000002_Node000003" class="edge">
<title>Node2&#45;&gt;Node3</title>
<g id="a_edge2_Node000002_Node000003"><a xlink:title=" ">
<path fill="none" stroke="#63b8ff" d="M137.87,-214.37C116.38,-203.54 79.3,-184.85 54.23,-172.22"/>
<polygon fill="#63b8ff" stroke="#63b8ff" points="55.77,-169.07 45.26,-167.7 52.62,-175.32 55.77,-169.07"/>
</a>
</g>
</g>
<!-- Node4 -->
<g id="Node000004" class="node">
<title>Node4</title>
<g id="a_Node000004"><a xlink:title=" ">
<polygon fill="#e0e0e0" stroke="#999999" points="145.5,-167.5 74.5,-167.5 74.5,-148.5 145.5,-148.5 145.5,-167.5"/>
<text text-anchor="middle" x="110" y="-155.5" font-family="Helvetica,sans-Serif" font-size="10.00">QTcpServer</text>
</a>
</g>
</g>
<!-- Node2&#45;&gt;Node4 -->
<g id="edge3_Node000002_Node000004" class="edge">
<title>Node2&#45;&gt;Node4</title>
<g id="a_edge3_Node000002_Node000004"><a xlink:title=" ">
<path fill="none" stroke="#63b8ff" d="M148.93,-214.37C142.13,-204.69 130.91,-188.74 122.26,-176.44"/>
<polygon fill="#63b8ff" stroke="#63b8ff" points="124.88,-174.07 116.26,-167.91 119.15,-178.1 124.88,-174.07"/>
</a>
</g>
</g>
<!-- Node5 -->
<g id="Node000005" class="node">
<title>Node5</title>
<g id="a_Node000005"><a xlink:title=" ">
<polygon fill="#e0e0e0" stroke="#999999" points="236,-167.5 164,-167.5 164,-148.5 236,-148.5 236,-167.5"/>
<text text-anchor="middle" x="200" y="-155.5" font-family="Helvetica,sans-Serif" font-size="10.00">QTcpSocket</text>
</a>
</g>
</g>
<!-- Node2&#45;&gt;Node5 -->
<g id="edge4_Node000002_Node000005" class="edge">
<title>Node2&#45;&gt;Node5</title>
<g id="a_edge4_Node000002_Node000005"><a xlink:title=" ">
<path fill="none" stroke="#63b8ff" d="M161.07,-214.37C167.87,-204.69 179.09,-188.74 187.74,-176.44"/>
<polygon fill="#63b8ff" stroke="#63b8ff" points="190.85,-178.1 193.74,-167.91 185.12,-174.07 190.85,-178.1"/>
</a>
</g>
</g>
<!-- Node7 -->
<g id="Node000007" class="node">
<title>Node7</title>
<g id="a_Node000007"><a xlink:title=" ">
<polygon fill="#e0e0e0" stroke="#999999" points="42,-24.5 0,-24.5 0,-5.5 42,-5.5 42,-24.5"/>
<text text-anchor="middle" x="21" y="-12.5" font-family="Helvetica,sans-Serif" font-size="10.00">array</text>
</a>
</g>
</g>
<!-- Node6&#45;&gt;Node7 -->
<g id="edge6_Node000006_Node000007" class="edge">
<title>Node6&#45;&gt;Node7</title>
<g id="a_edge6_Node000006_Node000007"><a xlink:title=" ">
<path fill="none" stroke="#63b8ff" d="M121.63,-65.96C97.89,-54.17 68.3,-39.48 47.37,-29.09"/>
<polygon fill="#63b8ff" stroke="#63b8ff" points="48.64,-25.82 38.13,-24.5 45.53,-32.09 48.64,-25.82"/>
</a>
</g>
</g>
<!-- Node8 -->
<g id="Node000008" class="node">
<title>Node8</title>
<g id="a_Node000008"><a xlink:title=" ">
<polygon fill="#e0e0e0" stroke="#999999" points="110,-24.5 60,-24.5 60,-5.5 110,-5.5 110,-24.5"/>
<text text-anchor="middle" x="85" y="-12.5" font-family="Helvetica,sans-Serif" font-size="10.00">cstdint</text>
</a>
</g>
</g>
<!-- Node6&#45;&gt;Node8 -->
<g id="edge7_Node000006_Node000008" class="edge">
<title>Node6&#45;&gt;Node8</title>
<g id="a_edge7_Node000006_Node000008"><a xlink:title=" ">
<path fill="none" stroke="#63b8ff" d="M139.42,-65.77C127.67,-55.02 113.33,-41.91 102.32,-31.84"/>
<polygon fill="#63b8ff" stroke="#63b8ff" points="104.39,-28.99 94.64,-24.82 99.66,-34.15 104.39,-28.99"/>
</a>
</g>
</g>
<!-- Node9 -->
<g id="Node000009" class="node">
<title>Node9</title>
<g id="a_Node000009"><a xlink:title=" ">
<polygon fill="#e0e0e0" stroke="#999999" points="193.5,-24.5 128.5,-24.5 128.5,-5.5 193.5,-5.5 193.5,-24.5"/>
<text text-anchor="middle" x="161" y="-12.5" font-family="Helvetica,sans-Serif" font-size="10.00">stdexcept</text>
</a>
</g>
</g>
<!-- Node6&#45;&gt;Node9 -->
<g id="edge8_Node000006_Node000009" class="edge">
<title>Node6&#45;&gt;Node9</title>
<g id="a_edge8_Node000006_Node000009"><a xlink:title=" ">
<path fill="none" stroke="#63b8ff" d="M161,-65.77C161,-56.08 161,-44.46 161,-34.88"/>
<polygon fill="#63b8ff" stroke="#63b8ff" points="164.5,-34.82 161,-24.82 157.5,-34.82 164.5,-34.82"/>
</a>
</g>
</g>
<!-- Node10 -->
<g id="Node000010" class="node">
<title>Node10</title>
<g id="a_Node000010"><a xlink:title=" ">
<polygon fill="#e0e0e0" stroke="#999999" points="256,-24.5 212,-24.5 212,-5.5 256,-5.5 256,-24.5"/>
<text text-anchor="middle" x="234" y="-12.5" font-family="Helvetica,sans-Serif" font-size="10.00">string</text>
</a>
</g>
</g>
<!-- Node6&#45;&gt;Node10 -->
<g id="edge9_Node000006_Node000010" class="edge">
<title>Node6&#45;&gt;Node10</title>
<g id="a_edge9_Node000006_Node000010"><a xlink:title=" ">
<path fill="none" stroke="#63b8ff" d="M181.72,-65.77C193.01,-55.02 206.79,-41.91 217.37,-31.84"/>
<polygon fill="#63b8ff" stroke="#63b8ff" points="219.91,-34.25 224.74,-24.82 215.08,-29.18 219.91,-34.25"/>
</a>
</g>
</g>
<!-- Node11 -->
<g id="Node000011" class="node">
<title>Node11</title>
<g id="a_Node000011"><a xlink:title=" ">
<polygon fill="#e0e0e0" stroke="#999999" points="321.5,-24.5 274.5,-24.5 274.5,-5.5 321.5,-5.5 321.5,-24.5"/>
<text text-anchor="middle" x="298" y="-12.5" font-family="Helvetica,sans-Serif" font-size="10.00">vector</text>
</a>
</g>
</g>
<!-- Node6&#45;&gt;Node11 -->
<g id="edge10_Node000006_Node000011" class="edge">
<title>Node6&#45;&gt;Node11</title>
<g id="a_edge10_Node000006_Node000011"><a xlink:title=" ">
<path fill="none" stroke="#63b8ff" d="M199.53,-65.96C222.76,-54.17 251.71,-39.48 272.2,-29.09"/>
<polygon fill="#63b8ff" stroke="#63b8ff" points="273.9,-32.15 281.24,-24.5 270.74,-25.91 273.9,-32.15"/>
</a>
</g>
</g>
<!-- Node13 -->
<g id="Node000013" class="node">
<title>Node13</title>
<g id="a_Node000013"><a xlink:href="GameButtons_8h.html" target="_top" xlink:title=" ">
<polygon fill="white" stroke="#666666" points="810,-30 674,-30 674,0 810,0 810,-30"/>
<text text-anchor="start" x="682" y="-18" font-family="Helvetica,sans-Serif" font-size="10.00">../../VGP_Data_Exchange</text>
<text text-anchor="middle" x="742" y="-7" font-family="Helvetica,sans-Serif" font-size="10.00">/C/GameButtons.h</text>
</a>
</g>
</g>
<!-- Node12&#45;&gt;Node13 -->
<g id="edge12_Node000012_Node000013" class="edge">
<title>Node12&#45;&gt;Node13</title>
<g id="a_edge12_Node000012_Node000013"><a xlink:title=" ">
<path fill="none" stroke="#63b8ff" d="M833.88,-208.99C810.9,-189.05 770.9,-150.09 753,-107 744.12,-85.62 741.78,-59.16 741.41,-40.29"/>
<polygon fill="#63b8ff" stroke="#63b8ff" points="744.91,-40.15 741.39,-30.16 737.91,-40.17 744.91,-40.15"/>
</a>
</g>
</g>
<!-- Node14 -->
<g id="Node000014" class="node">
<title>Node14</title>
<g id="a_Node000014"><a xlink:href="input__types_8hpp.html" target="_top" xlink:title=" ">
<polygon fill="white" stroke="#666666" points="913.5,-96 818.5,-96 818.5,-77 913.5,-77 913.5,-96"/>
<text text-anchor="middle" x="866" y="-84" font-family="Helvetica,sans-Serif" font-size="10.00">input_types.hpp</text>
</a>
</g>
</g>
<!-- Node12&#45;&gt;Node14 -->
<g id="edge13_Node000012_Node000014" class="edge">
<title>Node12&#45;&gt;Node14</title>
<g id="a_edge13_Node000012_Node000014"><a xlink:title=" ">
<path fill="none" stroke="#63b8ff" d="M851.39,-208.79C851.95,-192.76 853.23,-165.93 856,-143 857.5,-130.59 859.99,-116.76 862.11,-106.01"/>
<polygon fill="#63b8ff" stroke="#63b8ff" points="865.56,-106.6 864.13,-96.11 858.7,-105.2 865.56,-106.6"/>
</a>
</g>
</g>
<!-- Node17 -->
<g id="Node000017" class="node">
<title>Node17</title>
<g id="a_Node000017"><a xlink:href="keymap__profile_8hpp.html" target="_top" xlink:title=" ">
<polygon fill="white" stroke="#666666" points="1011.5,-167.5 898.5,-167.5 898.5,-148.5 1011.5,-148.5 1011.5,-167.5"/>
<text text-anchor="middle" x="955" y="-155.5" font-family="Helvetica,sans-Serif" font-size="10.00">keymap_profile.hpp</text>
</a>
</g>
</g>
<!-- Node12&#45;&gt;Node17 -->
<g id="edge17_Node000012_Node000017" class="edge">
<title>Node12&#45;&gt;Node17</title>
<g id="a_edge17_Node000012_Node000017"><a xlink:title=" ">
<path fill="none" stroke="#63b8ff" d="M873.82,-208.95C891.18,-198.27 914.94,-183.65 932.27,-172.98"/>
<polygon fill="#63b8ff" stroke="#63b8ff" points="934.48,-175.74 941.16,-167.52 930.81,-169.78 934.48,-175.74"/>
</a>
</g>
</g>
<!-- Node19 -->
<g id="Node000019" class="node">
<title>Node19</title>
<g id="a_Node000019"><a xlink:title=" ">
<polygon fill="#e0e0e0" stroke="#999999" points="988,-96 932,-96 932,-77 988,-77 988,-96"/>
<text text-anchor="middle" x="960" y="-84" font-family="Helvetica,sans-Serif" font-size="10.00">QObject</text>
</a>
</g>
</g>
<!-- Node12&#45;&gt;Node19 -->
<g id="edge28_Node000012_Node000019" class="edge">
<title>Node12&#45;&gt;Node19</title>
<g id="a_edge28_Node000012_Node000019"><a xlink:title=" ">
<path fill="none" stroke="#63b8ff" d="M855.68,-208.91C861.75,-192.03 873.54,-163.47 890,-143 903.2,-126.58 922.09,-111.96 936.93,-101.86"/>
<polygon fill="#63b8ff" stroke="#63b8ff" points="939.13,-104.6 945.55,-96.17 935.27,-98.75 939.13,-104.6"/>
</a>
</g>
</g>
<!-- Node20 -->
<g id="Node000020" class="node">
<title>Node20</title>
<g id="a_Node000020"><a xlink:title=" ">
<polygon fill="#e0e0e0" stroke="#999999" points="1168,-96 1104,-96 1104,-77 1168,-77 1168,-96"/>
<text text-anchor="middle" x="1136" y="-84" font-family="Helvetica,sans-Serif" font-size="10.00">QSettings</text>
</a>
</g>
</g>
<!-- Node12&#45;&gt;Node20 -->
<g id="edge29_Node000012_Node000020" class="edge">
<title>Node12&#45;&gt;Node20</title>
<g id="a_edge29_Node000012_Node000020"><a xlink:title=" ">
<path fill="none" stroke="#63b8ff" d="M904.51,-212.38C938.93,-204.33 983.97,-191.47 1021,-173 1031.28,-167.87 1086.63,-125.61 1116.63,-102.49"/>
<polygon fill="#63b8ff" stroke="#63b8ff" points="1118.93,-105.13 1124.71,-96.25 1114.65,-99.59 1118.93,-105.13"/>
</a>
</g>
</g>
<!-- Node21 -->
<g id="Node000021" class="node">
<title>Node21</title>
<g id="a_Node000021"><a xlink:title=" ">
<polygon fill="#e0e0e0" stroke="#999999" points="1239.5,-96 1186.5,-96 1186.5,-77 1239.5,-77 1239.5,-96"/>
<text text-anchor="middle" x="1213" y="-84" font-family="Helvetica,sans-Serif" font-size="10.00">QString</text>
</a>
</g>
</g>
<!-- Node12&#45;&gt;Node21 -->
<g id="edge30_Node000012_Node000021" class="edge">
<title>Node12&#45;&gt;Node21</title>
<g id="a_edge30_Node000012_Node000021"><a xlink:title=" ">
<path fill="none" stroke="#63b8ff" d="M904.83,-215.54C947.07,-208.35 1006.61,-195.21 1055,-173 1075.85,-163.43 1077.11,-154.43 1097,-143 1130.81,-123.57 1142.06,-124.3 1177,-107 1180.87,-105.08 1184.93,-102.98 1188.87,-100.88"/>
<polygon fill="#63b8ff" stroke="#63b8ff" points="1190.58,-103.94 1197.71,-96.1 1187.25,-97.78 1190.58,-103.94"/>
</a>
</g>
</g>
<!-- Node22 -->
<g id="Node000022" class="node">
<title>Node22</title>
<g id="a_Node000022"><a xlink:title=" ">
<polygon fill="#e0e0e0" stroke="#999999" points="800,-96 762,-96 762,-77 800,-77 800,-96"/>
<text text-anchor="middle" x="781" y="-84" font-family="Helvetica,sans-Serif" font-size="10.00">map</text>
</a>
</g>
</g>
<!-- Node12&#45;&gt;Node22 -->
<g id="edge32_Node000012_Node000022" class="edge">
<title>Node12&#45;&gt;Node22</title>
<g id="a_edge32_Node000012_Node000022"><a xlink:title=" ">
<path fill="none" stroke="#63b8ff" d="M843.64,-208.76C830.76,-183.81 804.14,-132.3 790.12,-105.14"/>
<polygon fill="#63b8ff" stroke="#63b8ff" points="793.11,-103.31 785.41,-96.03 786.89,-106.53 793.11,-103.31"/>
</a>
</g>
</g>
<!-- Node23 -->
<g id="Node000023" class="node">
<title>Node23</title>
<g id="a_Node000023"><a xlink:title=" ">
<polygon fill="#e0e0e0" stroke="#999999" points="1144,-167.5 1106,-167.5 1106,-148.5 1144,-148.5 1144,-167.5"/>
<text text-anchor="middle" x="1125" y="-155.5" font-family="Helvetica,sans-Serif" font-size="10.00">QDir</text>
</a>
</g>
</g>
<!-- Node12&#45;&gt;Node23 -->
<g id="edge25_Node000012_Node000023" class="edge">
<title>Node12&#45;&gt;Node23</title>
<g id="a_edge25_Node000012_Node000023"><a xlink:title=" ">
<path fill="none" stroke="#63b8ff" d="M904.74,-211.92C975.08,-197.4 1089.74,-173.71 1092,-173 1093.67,-172.48 1095.38,-171.9 1097.09,-171.29"/>
<polygon fill="#63b8ff" stroke="#63b8ff" points="1098.71,-174.41 1106.74,-167.5 1096.15,-167.89 1098.71,-174.41"/>
</a>
</g>
</g>
<!-- Node12&#45;&gt;Node24 -->
<g id="edge26_Node000012_Node000024" class="edge">
<title>Node12&#45;&gt;Node24</title>
<g id="a_edge26_Node000012_Node000024"><a xlink:title=" ">
<path fill="none" stroke="#63b8ff" d="M904.75,-211.51C909.56,-210.61 914.36,-209.76 919,-209 1050.67,-187.53 1088.97,-210.51 1217,-173 1218.44,-172.58 1219.9,-172.09 1221.36,-171.55"/>
<polygon fill="#63b8ff" stroke="#63b8ff" points="1222.92,-174.69 1230.72,-167.53 1220.15,-168.26 1222.92,-174.69"/>
</a>
</g>
</g>
<!-- Node25 -->
<g id="Node000025" class="node">
<title>Node25</title>
<g id="a_Node000025"><a xlink:title=" ">
<polygon fill="#e0e0e0" stroke="#999999" points="1207.5,-167.5 1162.5,-167.5 1162.5,-148.5 1207.5,-148.5 1207.5,-167.5"/>
<text text-anchor="middle" x="1185" y="-155.5" font-family="Helvetica,sans-Serif" font-size="10.00">QMap</text>
</a>
</g>
</g>
<!-- Node12&#45;&gt;Node25 -->
<g id="edge27_Node000012_Node000025" class="edge">
<title>Node12&#45;&gt;Node25</title>
<g id="a_edge27_Node000012_Node000025"><a xlink:title=" ">
<path fill="none" stroke="#63b8ff" d="M904.77,-211.67C909.58,-210.73 914.37,-209.83 919,-209 1022.56,-190.38 1051.95,-202.33 1153,-173 1154.68,-172.51 1156.39,-171.96 1158.1,-171.35"/>
<polygon fill="#63b8ff" stroke="#63b8ff" points="1159.7,-174.49 1167.7,-167.54 1157.11,-167.98 1159.7,-174.49"/>
</a>
</g>
</g>
<!-- Node26 -->
<g id="Node000026" class="node">
<title>Node26</title>
<g id="a_Node000026"><a xlink:title=" ">
<polygon fill="#e0e0e0" stroke="#999999" points="667.5,-167.5 608.5,-167.5 608.5,-148.5 667.5,-148.5 667.5,-167.5"/>
<text text-anchor="middle" x="638" y="-155.5" font-family="Helvetica,sans-Serif" font-size="10.00">QVariant</text>
</a>
</g>
</g>
<!-- Node12&#45;&gt;Node26 -->
<g id="edge31_Node000012_Node000026" class="edge">
<title>Node12&#45;&gt;Node26</title>
<g id="a_edge31_Node000012_Node000026"><a xlink:title=" ">
<path fill="none" stroke="#63b8ff" d="M802.48,-208.93C768.65,-199.05 722.51,-185.44 682,-173 679.43,-172.21 676.78,-171.39 674.11,-170.56"/>
<polygon fill="#63b8ff" stroke="#63b8ff" points="675.09,-167.19 664.5,-167.53 672.98,-173.87 675.09,-167.19"/>
</a>
</g>
</g>
<!-- Node27 -->
<g id="Node000027" class="node">
<title>Node27</title>
<g id="a_Node000027"><a xlink:title=" ">
<polygon fill="#e0e0e0" stroke="#999999" points="444,-24.5 376,-24.5 376,-5.5 444,-5.5 444,-24.5"/>
<text text-anchor="middle" x="410" y="-12.5" font-family="Helvetica,sans-Serif" font-size="10.00">windows.h</text>
</a>
</g>
</g>
<!-- Node12&#45;&gt;Node27 -->
<g id="edge33_Node000012_Node000027" class="edge">
<title>Node12&#45;&gt;Node27</title>
<g id="a_edge33_Node000012_Node000027"><a xlink:title=" ">
<path fill="none" stroke="#63b8ff" d="M823.73,-208.9C807.32,-199.78 786.5,-187.02 770,-173 721.98,-132.21 731.67,-97.32 677,-66 606.46,-25.59 509.85,-16.93 454.26,-15.58"/>
<polygon fill="#63b8ff" stroke="#63b8ff" points="454.11,-12.08 444.05,-15.41 453.98,-19.08 454.11,-12.08"/>
</a>
</g>
</g>
<!-- Node14&#45;&gt;Node13 -->
<g id="edge14_Node000014_Node000013" class="edge">
<title>Node14&#45;&gt;Node13</title>
<g id="a_edge14_Node000014_Node000013"><a xlink:title=" ">
<path fill="none" stroke="#63b8ff" d="M850.8,-76.98C832.33,-66.63 800.63,-48.86 776.19,-35.16"/>
<polygon fill="#63b8ff" stroke="#63b8ff" points="777.66,-31.97 767.22,-30.14 774.24,-38.08 777.66,-31.97"/>
</a>
</g>
</g>
<!-- Node15 -->
<g id="Node000015" class="node">
<title>Node15</title>
<g id="a_Node000015"><a xlink:title=" ">
<polygon fill="#e0e0e0" stroke="#999999" points="1022.5,-24.5 945.5,-24.5 945.5,-5.5 1022.5,-5.5 1022.5,-24.5"/>
<text text-anchor="middle" x="984" y="-12.5" font-family="Helvetica,sans-Serif" font-size="10.00">minwindef.h</text>
</a>
</g>
</g>
<!-- Node14&#45;&gt;Node15 -->
<g id="edge15_Node000014_Node000015" class="edge">
<title>Node14&#45;&gt;Node15</title>
<g id="a_edge15_Node000014_Node000015"><a xlink:title=" ">
<path fill="none" stroke="#63b8ff" d="M880.47,-76.98C900.46,-65.2 936.77,-43.82 960.63,-29.76"/>
<polygon fill="#63b8ff" stroke="#63b8ff" points="962.57,-32.68 969.41,-24.59 959.02,-26.65 962.57,-32.68"/>
</a>
</g>
</g>
<!-- Node16 -->
<g id="Node000016" class="node">
<title>Node16</title>
<g id="a_Node000016"><a xlink:title=" ">
<polygon fill="#e0e0e0" stroke="#999999" points="895.5,-24.5 836.5,-24.5 836.5,-5.5 895.5,-5.5 895.5,-24.5"/>
<text text-anchor="middle" x="866" y="-12.5" font-family="Helvetica,sans-Serif" font-size="10.00">qtypes.h</text>
</a>
</g>
</g>
<!-- Node14&#45;&gt;Node16 -->
<g id="edge16_Node000014_Node000016" class="edge">
<title>Node14&#45;&gt;Node16</title>
<g id="a_edge16_Node000014_Node000016"><a xlink:title=" ">
<path fill="none" stroke="#63b8ff" d="M866,-76.98C866,-66.56 866,-48.61 866,-34.88"/>
<polygon fill="#63b8ff" stroke="#63b8ff" points="869.5,-34.59 866,-24.59 862.5,-34.59 869.5,-34.59"/>
</a>
</g>
</g>
<!-- Node17&#45;&gt;Node14 -->
<g id="edge18_Node000017_Node000014" class="edge">
<title>Node17&#45;&gt;Node14</title>
<g id="a_edge18_Node000017_Node000014"><a xlink:title=" ">
<path fill="none" stroke="#63b8ff" d="M944.09,-148.48C929.41,-137.01 903.07,-116.45 885.08,-102.4"/>
<polygon fill="#63b8ff" stroke="#63b8ff" points="887.04,-99.49 877,-96.09 882.73,-105.01 887.04,-99.49"/>
</a>
</g>
</g>
<!-- Node17&#45;&gt;Node15 -->
<g id="edge24_Node000017_Node000015" class="edge">
<title>Node17&#45;&gt;Node15</title>
<g id="a_edge24_Node000017_Node000015"><a xlink:title=" ">
<path fill="none" stroke="#63b8ff" d="M965.67,-148.37C975.94,-139.31 990.79,-124.04 997,-107 1005.81,-82.82 998.36,-53 991.64,-34.23"/>
<polygon fill="#63b8ff" stroke="#63b8ff" points="994.87,-32.88 988,-24.82 988.35,-35.41 994.87,-32.88"/>
</a>
</g>
</g>
<!-- Node18 -->
<g id="Node000018" class="node">
<title>Node18</title>
<g id="a_Node000018"><a xlink:title=" ">
<polygon fill="#e0e0e0" stroke="#999999" points="1085.5,-96 1044.5,-96 1044.5,-77 1085.5,-77 1085.5,-96"/>
<text text-anchor="middle" x="1065" y="-84" font-family="Helvetica,sans-Serif" font-size="10.00">QFile</text>
</a>
</g>
</g>
<!-- Node17&#45;&gt;Node18 -->
<g id="edge19_Node000017_Node000018" class="edge">
<title>Node17&#45;&gt;Node18</title>
<g id="a_edge19_Node000017_Node000018"><a xlink:title=" ">
<path fill="none" stroke="#63b8ff" d="M968.49,-148.48C987.04,-136.75 1020.67,-115.51 1042.92,-101.45"/>
<polygon fill="#63b8ff" stroke="#63b8ff" points="1044.82,-104.39 1051.4,-96.09 1041.08,-98.47 1044.82,-104.39"/>
</a>
</g>
</g>
<!-- Node17&#45;&gt;Node19 -->
<g id="edge20_Node000017_Node000019" class="edge">
<title>Node17&#45;&gt;Node19</title>
<g id="a_edge20_Node000017_Node000019"><a xlink:title=" ">
<path fill="none" stroke="#63b8ff" d="M955.61,-148.48C956.36,-138.06 957.65,-120.11 958.64,-106.38"/>
<polygon fill="#63b8ff" stroke="#63b8ff" points="962.16,-106.32 959.38,-96.09 955.17,-105.81 962.16,-106.32"/>
</a>
</g>
</g>
<!-- Node17&#45;&gt;Node20 -->
<g id="edge21_Node000017_Node000020" class="edge">
<title>Node17&#45;&gt;Node20</title>
<g id="a_edge21_Node000017_Node000020"><a xlink:title=" ">
<path fill="none" stroke="#63b8ff" d="M981.36,-148.47C1009.73,-139.09 1056.03,-123.18 1095,-107 1099.88,-104.97 1105.01,-102.67 1109.94,-100.38"/>
<polygon fill="#63b8ff" stroke="#63b8ff" points="1111.5,-103.51 1119.02,-96.05 1108.49,-97.19 1111.5,-103.51"/>
</a>
</g>
</g>
<!-- Node17&#45;&gt;Node21 -->
<g id="edge22_Node000017_Node000021" class="edge">
<title>Node17&#45;&gt;Node21</title>
<g id="a_edge22_Node000017_Node000021"><a xlink:title=" ">
<path fill="none" stroke="#63b8ff" d="M1011.89,-148.62C1057.5,-140.86 1122.63,-127.4 1177,-107 1181.46,-105.33 1186.06,-103.19 1190.41,-100.95"/>
<polygon fill="#63b8ff" stroke="#63b8ff" points="1192.32,-103.9 1199.4,-96.02 1188.95,-97.76 1192.32,-103.9"/>
</a>
</g>
</g>
<!-- Node17&#45;&gt;Node22 -->
<g id="edge23_Node000017_Node000022" class="edge">
<title>Node17&#45;&gt;Node22</title>
<g id="a_edge23_Node000017_Node000022"><a xlink:title=" ">
<path fill="none" stroke="#63b8ff" d="M922.64,-148.47C892.6,-139.94 847.07,-125.46 810,-107 806.96,-105.49 803.86,-103.7 800.88,-101.84"/>
<polygon fill="#63b8ff" stroke="#63b8ff" points="802.69,-98.84 792.43,-96.19 798.8,-104.66 802.69,-98.84"/>
</a>
</g>
</g>
<!-- Node29 -->
<g id="Node000029" class="node">
<title>Node29</title>
<g id="a_Node000029"><a xlink:href="Colfer_8h.html" target="_top" xlink:title=" ">
<polygon fill="white" stroke="#666666" points="590,-173 454,-173 454,-143 590,-143 590,-173"/>
<text text-anchor="start" x="462" y="-161" font-family="Helvetica,sans-Serif" font-size="10.00">../../VGP_Data_Exchange</text>
<text text-anchor="middle" x="522" y="-150" font-family="Helvetica,sans-Serif" font-size="10.00">/C/Colfer.h</text>
</a>
</g>
</g>
<!-- Node28&#45;&gt;Node29 -->
<g id="edge35_Node000028_Node000029" class="edge">
<title>Node28&#45;&gt;Node29</title>
<g id="a_edge35_Node000028_Node000029"><a xlink:title=" ">
<path fill="none" stroke="#63b8ff" d="M522,-214.37C522,-206.49 522,-194.45 522,-183.6"/>
<polygon fill="#63b8ff" stroke="#63b8ff" points="525.5,-183.36 522,-173.36 518.5,-183.36 525.5,-183.36"/>
</a>
</g>
</g>
<!-- Node33 -->
<g id="Node000033" class="node">
<title>Node33</title>
<g id="a_Node000033"><a xlink:href="simulate_8hpp.html" target="_top" xlink:title=" ">
<polygon fill="white" stroke="#666666" points="436,-167.5 292,-167.5 292,-148.5 436,-148.5 436,-167.5"/>
<text text-anchor="middle" x="364" y="-155.5" font-family="Helvetica,sans-Serif" font-size="10.00">../simulation/simulate.hpp</text>
</a>
</g>
</g>
<!-- Node28&#45;&gt;Node33 -->
<g id="edge39_Node000028_Node000033" class="edge">
<title>Node28&#45;&gt;Node33</title>
<g id="a_edge39_Node000028_Node000033"><a xlink:title=" ">
<path fill="none" stroke="#63b8ff" d="M500.69,-214.37C473.4,-203.32 425.93,-184.08 394.73,-171.45"/>
<polygon fill="#63b8ff" stroke="#63b8ff" points="395.81,-168.11 385.22,-167.6 393.18,-174.59 395.81,-168.11"/>
</a>
</g>
</g>
<!-- Node30 -->
<g id="Node000030" class="node">
<title>Node30</title>
<g id="a_Node000030"><a xlink:title=" ">
<polygon fill="#e0e0e0" stroke="#999999" points="525.5,-96 472.5,-96 472.5,-77 525.5,-77 525.5,-96"/>
<text text-anchor="middle" x="499" y="-84" font-family="Helvetica,sans-Serif" font-size="10.00">limits.h</text>
</a>
</g>
</g>
<!-- Node29&#45;&gt;Node30 -->
<g id="edge36_Node000029_Node000030" class="edge">
<title>Node29&#45;&gt;Node30</title>
<g id="a_edge36_Node000029_Node000030"><a xlink:title=" ">
<path fill="none" stroke="#63b8ff" d="M517.35,-142.94C513.81,-132.25 508.91,-117.45 505.07,-105.83"/>
<polygon fill="#63b8ff" stroke="#63b8ff" points="508.37,-104.66 501.9,-96.27 501.72,-106.86 508.37,-104.66"/>
</a>
</g>
</g>
<!-- Node31 -->
<g id="Node000031" class="node">
<title>Node31</title>
<g id="a_Node000031"><a xlink:title=" ">
<polygon fill="#e0e0e0" stroke="#999999" points="596.5,-96 543.5,-96 543.5,-77 596.5,-77 596.5,-96"/>
<text text-anchor="middle" x="570" y="-84" font-family="Helvetica,sans-Serif" font-size="10.00">stdint.h</text>
</a>
</g>
</g>
<!-- Node29&#45;&gt;Node31 -->
<g id="edge37_Node000029_Node000031" class="edge">
<title>Node29&#45;&gt;Node31</title>
<g id="a_edge37_Node000029_Node000031"><a xlink:title=" ">
<path fill="none" stroke="#63b8ff" d="M531.71,-142.94C539.32,-131.92 549.94,-116.54 558.07,-104.78"/>
<polygon fill="#63b8ff" stroke="#63b8ff" points="561.14,-106.48 563.95,-96.27 555.38,-102.51 561.14,-106.48"/>
</a>
</g>
</g>
<!-- Node32 -->
<g id="Node000032" class="node">
<title>Node32</title>
<g id="a_Node000032"><a xlink:title=" ">
<polygon fill="#e0e0e0" stroke="#999999" points="667.5,-96 614.5,-96 614.5,-77 667.5,-77 667.5,-96"/>
<text text-anchor="middle" x="641" y="-84" font-family="Helvetica,sans-Serif" font-size="10.00">string.h</text>
</a>
</g>
</g>
<!-- Node29&#45;&gt;Node32 -->
<g id="edge38_Node000029_Node000032" class="edge">
<title>Node29&#45;&gt;Node32</title>
<g id="a_edge38_Node000029_Node000032"><a xlink:title=" ">
<path fill="none" stroke="#63b8ff" d="M546.08,-142.94C566.93,-130.76 596.9,-113.26 617.56,-101.19"/>
<polygon fill="#63b8ff" stroke="#63b8ff" points="619.46,-104.13 626.33,-96.07 615.93,-98.09 619.46,-104.13"/>
</a>
</g>
</g>
<!-- Node34 -->
<g id="Node000034" class="node">
<title>Node34</title>
<g id="a_Node000034"><a xlink:href="keyboardSim_8hpp.html" target="_top" xlink:title="Simulates keyboard input in Windows.">
<polygon fill="white" stroke="#666666" points="347.5,-96 246.5,-96 246.5,-77 347.5,-77 347.5,-96"/>
<text text-anchor="middle" x="297" y="-84" font-family="Helvetica,sans-Serif" font-size="10.00">keyboardSim.hpp</text>
</a>
</g>
</g>
<!-- Node33&#45;&gt;Node34 -->
<g id="edge40_Node000033_Node000034" class="edge">
<title>Node33&#45;&gt;Node34</title>
<g id="a_edge40_Node000033_Node000034"><a xlink:title=" ">
<path fill="none" stroke="#63b8ff" d="M355.78,-148.48C345.04,-137.33 325.98,-117.56 312.48,-103.56"/>
<polygon fill="#63b8ff" stroke="#63b8ff" points="314.74,-100.86 305.28,-96.09 309.7,-105.72 314.74,-100.86"/>
</a>
</g>
</g>
<!-- Node35 -->
<g id="Node000035" class="node">
<title>Node35</title>
<g id="a_Node000035"><a xlink:href="mouseSim_8hpp.html" target="_top" xlink:title="Simulates mouse input in Windows.">
<polygon fill="white" stroke="#666666" points="454.5,-96 365.5,-96 365.5,-77 454.5,-77 454.5,-96"/>
<text text-anchor="middle" x="410" y="-84" font-family="Helvetica,sans-Serif" font-size="10.00">mouseSim.hpp</text>
</a>
</g>
</g>
<!-- Node33&#45;&gt;Node35 -->
<g id="edge44_Node000033_Node000035" class="edge">
<title>Node33&#45;&gt;Node35</title>
<g id="a_edge44_Node000033_Node000035"><a xlink:title=" ">
<path fill="none" stroke="#63b8ff" d="M369.64,-148.48C376.81,-137.64 389.37,-118.66 398.58,-104.75"/>
<polygon fill="#63b8ff" stroke="#63b8ff" points="401.71,-106.36 404.31,-96.09 395.88,-102.5 401.71,-106.36"/>
</a>
</g>
</g>
<!-- Node34&#45;&gt;Node10 -->
<g id="edge41_Node000034_Node000010" class="edge">
<title>Node34&#45;&gt;Node10</title>
<g id="a_edge41_Node000034_Node000010"><a xlink:title=" ">
<path fill="none" stroke="#63b8ff" d="M289.27,-76.98C279.17,-65.83 261.25,-46.06 248.56,-32.06"/>
<polygon fill="#63b8ff" stroke="#63b8ff" points="251.1,-29.65 241.79,-24.59 245.91,-34.35 251.1,-29.65"/>
</a>
</g>
</g>
<!-- Node34&#45;&gt;Node11 -->
<g id="edge42_Node000034_Node000011" class="edge">
<title>Node34&#45;&gt;Node11</title>
<g id="a_edge42_Node000034_Node000011"><a xlink:title=" ">
<path fill="none" stroke="#63b8ff" d="M297.12,-76.98C297.27,-66.56 297.53,-48.61 297.73,-34.88"/>
<polygon fill="#63b8ff" stroke="#63b8ff" points="301.23,-34.64 297.88,-24.59 294.23,-34.54 301.23,-34.64"/>
</a>
</g>
</g>
<!-- Node34&#45;&gt;Node27 -->
<g id="edge43_Node000034_Node000027" class="edge">
<title>Node34&#45;&gt;Node27</title>
<g id="a_edge43_Node000034_Node000027"><a xlink:title=" ">
<path fill="none" stroke="#63b8ff" d="M310.86,-76.98C329.92,-65.25 364.46,-44.01 387.32,-29.95"/>
<polygon fill="#63b8ff" stroke="#63b8ff" points="389.35,-32.81 396.03,-24.59 385.68,-26.85 389.35,-32.81"/>
</a>
</g>
</g>
<!-- Node35&#45;&gt;Node27 -->
<g id="edge45_Node000035_Node000027" class="edge">
<title>Node35&#45;&gt;Node27</title>
<g id="a_edge45_Node000035_Node000027"><a xlink:title=" ">
<path fill="none" stroke="#63b8ff" d="M410,-76.98C410,-66.56 410,-48.61 410,-34.88"/>
<polygon fill="#63b8ff" stroke="#63b8ff" points="413.5,-34.59 410,-24.59 406.5,-34.59 413.5,-34.59"/>
</a>
</g>
</g>
</g>
</svg>
