<?xml version="1.0" encoding="UTF-8" standalone="no"?>
<!DOCTYPE svg PUBLIC "-//W3C//DTD SVG 1.1//EN"
 "http://www.w3.org/Graphics/SVG/1.1/DTD/svg11.dtd">
<!-- Generated by graphviz version 2.43.0 (0)
 -->
<!-- Title: src/networking/server.cpp Pages: 1 -->
<svg width="1755pt" height="302pt"
 viewBox="0.00 0.00 1754.50 302.00" xmlns="http://www.w3.org/2000/svg" xmlns:xlink="http://www.w3.org/1999/xlink">
<g id="graph0" class="graph" transform="scale(1 1) rotate(0) translate(4 298)">
<title>src/networking/server.cpp</title>
<!-- Node1 -->
<g id="Node000001" class="node">
<title>Node1</title>
<g id="a_Node000001"><a xlink:title=" ">
<polygon fill="#999999" stroke="#666666" points="1268.5,-294 1126.5,-294 1126.5,-275 1268.5,-275 1268.5,-294"/>
<text text-anchor="middle" x="1197.5" y="-282" font-family="Helvetica,sans-Serif" font-size="10.00">src/networking/server.cpp</text>
</a>
</g>
</g>
<!-- Node2 -->
<g id="Node000002" class="node">
<title>Node2</title>
<g id="a_Node000002"><a xlink:href="server_8hpp.html" target="_top" xlink:title=" ">
<polygon fill="white" stroke="#666666" points="280.5,-233.5 212.5,-233.5 212.5,-214.5 280.5,-214.5 280.5,-233.5"/>
<text text-anchor="middle" x="246.5" y="-221.5" font-family="Helvetica,sans-Serif" font-size="10.00">server.hpp</text>
</a>
</g>
</g>
<!-- Node1&#45;&gt;Node2 -->
<g id="edge1_Node000001_Node000002" class="edge">
<title>Node1&#45;&gt;Node2</title>
<g id="a_edge1_Node000001_Node000002"><a xlink:title=" ">
<path fill="none" stroke="#63b8ff" d="M1126.28,-280.18C988.03,-273.57 673.63,-257.8 409.5,-239 369.24,-236.13 323.44,-232.14 290.67,-229.15"/>
<polygon fill="#63b8ff" stroke="#63b8ff" points="290.78,-225.64 280.51,-228.21 290.14,-232.61 290.78,-225.64"/>
</a>
</g>
</g>
<!-- Node8 -->
<g id="Node000008" class="node">
<title>Node8</title>
<g id="a_Node000008"><a xlink:href="qrcodegen_8hpp.html" target="_top" xlink:title=" ">
<polygon fill="white" stroke="#666666" points="340.5,-107 206.5,-107 206.5,-66 340.5,-66 340.5,-107"/>
<text text-anchor="start" x="214.5" y="-95" font-family="Helvetica,sans-Serif" font-size="10.00">../../third&#45;party&#45;libs</text>
<text text-anchor="start" x="214.5" y="-84" font-family="Helvetica,sans-Serif" font-size="10.00">/QR&#45;Code&#45;generator/cpp</text>
<text text-anchor="middle" x="273.5" y="-73" font-family="Helvetica,sans-Serif" font-size="10.00">/qrcodegen.hpp</text>
</a>
</g>
</g>
<!-- Node1&#45;&gt;Node8 -->
<g id="edge7_Node000001_Node000008" class="edge">
<title>Node1&#45;&gt;Node8</title>
<g id="a_edge7_Node000001_Node000008"><a xlink:title=" ">
<path fill="none" stroke="#63b8ff" d="M1126.48,-283.59C1018.9,-282.45 808.73,-275.22 634.5,-239 546.15,-220.63 521.97,-215.74 442.5,-173 423.24,-162.64 422.37,-154.05 403.5,-143 382.75,-130.85 358.83,-119.87 337.22,-110.94"/>
<polygon fill="#63b8ff" stroke="#63b8ff" points="338.37,-107.64 327.79,-107.12 335.74,-114.12 338.37,-107.64"/>
</a>
</g>
</g>
<!-- Node14 -->
<g id="Node000014" class="node">
<title>Node14</title>
<g id="a_Node000014"><a xlink:href="settings__singleton_8hpp.html" target="_top" xlink:title=" ">
<polygon fill="white" stroke="#666666" points="1106,-239 999,-239 999,-209 1106,-209 1106,-239"/>
<text text-anchor="start" x="1007" y="-227" font-family="Helvetica,sans-Serif" font-size="10.00">../settings/settings</text>
<text text-anchor="middle" x="1052.5" y="-216" font-family="Helvetica,sans-Serif" font-size="10.00">_singleton.hpp</text>
</a>
</g>
</g>
<!-- Node1&#45;&gt;Node14 -->
<g id="edge13_Node000001_Node000014" class="edge">
<title>Node1&#45;&gt;Node14</title>
<g id="a_edge13_Node000001_Node000014"><a xlink:title=" ">
<path fill="none" stroke="#63b8ff" d="M1176.42,-274.99C1155.64,-266.61 1123.26,-253.55 1096.8,-242.87"/>
<polygon fill="#63b8ff" stroke="#63b8ff" points="1097.94,-239.56 1087.36,-239.06 1095.32,-246.05 1097.94,-239.56"/>
</a>
</g>
</g>
<!-- Node26 -->
<g id="Node000026" class="node">
<title>Node26</title>
<g id="a_Node000026"><a xlink:title=" ">
<polygon fill="#e0e0e0" stroke="#999999" points="1435,-167.5 1394,-167.5 1394,-148.5 1435,-148.5 1435,-167.5"/>
<text text-anchor="middle" x="1414.5" y="-155.5" font-family="Helvetica,sans-Serif" font-size="10.00">QList</text>
</a>
</g>
</g>
<!-- Node1&#45;&gt;Node26 -->
<g id="edge51_Node000001_Node000026" class="edge">
<title>Node1&#45;&gt;Node26</title>
<g id="a_edge51_Node000001_Node000026"><a xlink:title=" ">
<path fill="none" stroke="#63b8ff" d="M1185.66,-274.84C1167.15,-260.27 1135.27,-230.37 1153.5,-209 1186.51,-170.31 1330.48,-186.53 1379.5,-173 1381.44,-172.46 1383.42,-171.86 1385.4,-171.2"/>
<polygon fill="#63b8ff" stroke="#63b8ff" points="1386.95,-174.36 1395.14,-167.63 1384.55,-167.78 1386.95,-174.36"/>
</a>
</g>
</g>
<!-- Node30 -->
<g id="Node000030" class="node">
<title>Node30</title>
<g id="a_Node000030"><a xlink:href="executor_8hpp.html" target="_top" xlink:title=" ">
<polygon fill="white" stroke="#666666" points="722,-233.5 643,-233.5 643,-214.5 722,-214.5 722,-233.5"/>
<text text-anchor="middle" x="682.5" y="-221.5" font-family="Helvetica,sans-Serif" font-size="10.00">executor.hpp</text>
</a>
</g>
</g>
<!-- Node1&#45;&gt;Node30 -->
<g id="edge36_Node000001_Node000030" class="edge">
<title>Node1&#45;&gt;Node30</title>
<g id="a_edge36_Node000001_Node000030"><a xlink:title=" ">
<path fill="none" stroke="#63b8ff" d="M1126.43,-275.43C1020.55,-263.4 824.04,-241.08 732.2,-230.65"/>
<polygon fill="#63b8ff" stroke="#63b8ff" points="732.4,-227.15 722.06,-229.49 731.6,-234.1 732.4,-227.15"/>
</a>
</g>
</g>
<!-- Node38 -->
<g id="Node000038" class="node">
<title>Node38</title>
<g id="a_Node000038"><a xlink:title=" ">
<polygon fill="#e0e0e0" stroke="#999999" points="1232.5,-233.5 1162.5,-233.5 1162.5,-214.5 1232.5,-214.5 1232.5,-233.5"/>
<text text-anchor="middle" x="1197.5" y="-221.5" font-family="Helvetica,sans-Serif" font-size="10.00">ui_server.h</text>
</a>
</g>
</g>
<!-- Node1&#45;&gt;Node38 -->
<g id="edge48_Node000001_Node000038" class="edge">
<title>Node1&#45;&gt;Node38</title>
<g id="a_edge48_Node000001_Node000038"><a xlink:title=" ">
<path fill="none" stroke="#63b8ff" d="M1197.5,-274.87C1197.5,-266.75 1197.5,-254.31 1197.5,-243.89"/>
<polygon fill="#63b8ff" stroke="#63b8ff" points="1201,-243.67 1197.5,-233.67 1194,-243.67 1201,-243.67"/>
</a>
</g>
</g>
<!-- Node39 -->
<g id="Node000039" class="node">
<title>Node39</title>
<g id="a_Node000039"><a xlink:title=" ">
<polygon fill="#e0e0e0" stroke="#999999" points="1334,-233.5 1251,-233.5 1251,-214.5 1334,-214.5 1334,-233.5"/>
<text text-anchor="middle" x="1292.5" y="-221.5" font-family="Helvetica,sans-Serif" font-size="10.00">QDataStream</text>
</a>
</g>
</g>
<!-- Node1&#45;&gt;Node39 -->
<g id="edge49_Node000001_Node000039" class="edge">
<title>Node1&#45;&gt;Node39</title>
<g id="a_edge49_Node000001_Node000039"><a xlink:title=" ">
<path fill="none" stroke="#63b8ff" d="M1211.52,-274.87C1226.81,-265.45 1251.53,-250.23 1269.64,-239.08"/>
<polygon fill="#63b8ff" stroke="#63b8ff" points="1271.75,-241.89 1278.42,-233.67 1268.07,-235.93 1271.75,-241.89"/>
</a>
</g>
</g>
<!-- Node40 -->
<g id="Node000040" class="node">
<title>Node40</title>
<g id="a_Node000040"><a xlink:title=" ">
<polygon fill="#e0e0e0" stroke="#999999" points="1438.5,-233.5 1352.5,-233.5 1352.5,-214.5 1438.5,-214.5 1438.5,-233.5"/>
<text text-anchor="middle" x="1395.5" y="-221.5" font-family="Helvetica,sans-Serif" font-size="10.00">QHostAddress</text>
</a>
</g>
</g>
<!-- Node1&#45;&gt;Node40 -->
<g id="edge50_Node000001_Node000040" class="edge">
<title>Node1&#45;&gt;Node40</title>
<g id="a_edge50_Node000001_Node000040"><a xlink:title=" ">
<path fill="none" stroke="#63b8ff" d="M1226.29,-274.99C1260.75,-264.81 1318.59,-247.72 1356.9,-236.4"/>
<polygon fill="#63b8ff" stroke="#63b8ff" points="1358.08,-239.71 1366.67,-233.52 1356.09,-232.99 1358.08,-239.71"/>
</a>
</g>
</g>
<!-- Node41 -->
<g id="Node000041" class="node">
<title>Node41</title>
<g id="a_Node000041"><a xlink:title=" ">
<polygon fill="#e0e0e0" stroke="#999999" points="1542.5,-233.5 1456.5,-233.5 1456.5,-214.5 1542.5,-214.5 1542.5,-233.5"/>
<text text-anchor="middle" x="1499.5" y="-221.5" font-family="Helvetica,sans-Serif" font-size="10.00">QMessageBox</text>
</a>
</g>
</g>
<!-- Node1&#45;&gt;Node41 -->
<g id="edge52_Node000001_Node000041" class="edge">
<title>Node1&#45;&gt;Node41</title>
<g id="a_edge52_Node000001_Node000041"><a xlink:title=" ">
<path fill="none" stroke="#63b8ff" d="M1253.38,-274.98C1304.23,-266.89 1381.24,-253.79 1447.5,-239 1451.44,-238.12 1455.53,-237.14 1459.61,-236.11"/>
<polygon fill="#63b8ff" stroke="#63b8ff" points="1460.84,-239.41 1469.64,-233.52 1459.08,-232.64 1460.84,-239.41"/>
</a>
</g>
</g>
<!-- Node42 -->
<g id="Node000042" class="node">
<title>Node42</title>
<g id="a_Node000042"><a xlink:title=" ">
<polygon fill="#e0e0e0" stroke="#999999" points="1670,-233.5 1561,-233.5 1561,-214.5 1670,-214.5 1670,-233.5"/>
<text text-anchor="middle" x="1615.5" y="-221.5" font-family="Helvetica,sans-Serif" font-size="10.00">QNetworkInterface</text>
</a>
</g>
</g>
<!-- Node1&#45;&gt;Node42 -->
<g id="edge53_Node000001_Node000042" class="edge">
<title>Node1&#45;&gt;Node42</title>
<g id="a_edge53_Node000001_Node000042"><a xlink:title=" ">
<path fill="none" stroke="#63b8ff" d="M1268.64,-276.47C1340.32,-268.93 1453.98,-255.76 1551.5,-239 1557.24,-238.01 1563.25,-236.86 1569.19,-235.65"/>
<polygon fill="#63b8ff" stroke="#63b8ff" points="1570,-239.05 1579.06,-233.57 1568.55,-232.2 1570,-239.05"/>
</a>
</g>
</g>
<!-- Node43 -->
<g id="Node000043" class="node">
<title>Node43</title>
<g id="a_Node000043"><a xlink:title=" ">
<polygon fill="#e0e0e0" stroke="#999999" points="1746.5,-233.5 1688.5,-233.5 1688.5,-214.5 1746.5,-214.5 1746.5,-233.5"/>
<text text-anchor="middle" x="1717.5" y="-221.5" font-family="Helvetica,sans-Serif" font-size="10.00">QThread</text>
</a>
</g>
</g>
<!-- Node1&#45;&gt;Node43 -->
<g id="edge54_Node000001_Node000043" class="edge">
<title>Node1&#45;&gt;Node43</title>
<g id="a_edge54_Node000001_Node000043"><a xlink:title=" ">
<path fill="none" stroke="#63b8ff" d="M1268.65,-282.7C1363.49,-280.33 1536.06,-271.46 1679.5,-239 1682.17,-238.4 1684.91,-237.65 1687.64,-236.82"/>
<polygon fill="#63b8ff" stroke="#63b8ff" points="1688.94,-240.08 1697.29,-233.56 1686.69,-233.45 1688.94,-240.08"/>
</a>
</g>
</g>
<!-- Node3 -->
<g id="Node000003" class="node">
<title>Node3</title>
<g id="a_Node000003"><a xlink:title=" ">
<polygon fill="#e0e0e0" stroke="#999999" points="73,-167.5 0,-167.5 0,-148.5 73,-148.5 73,-167.5"/>
<text text-anchor="middle" x="36.5" y="-155.5" font-family="Helvetica,sans-Serif" font-size="10.00">QByteArray</text>
</a>
</g>
</g>
<!-- Node2&#45;&gt;Node3 -->
<g id="edge2_Node000002_Node000003" class="edge">
<title>Node2&#45;&gt;Node3</title>
<g id="a_edge2_Node000002_Node000003"><a xlink:title=" ">
<path fill="none" stroke="#63b8ff" d="M218.18,-214.37C181.05,-203.05 115.79,-183.16 74.42,-170.56"/>
<polygon fill="#63b8ff" stroke="#63b8ff" points="75.29,-167.16 64.71,-167.6 73.25,-173.86 75.29,-167.16"/>
</a>
</g>
</g>
<!-- Node4 -->
<g id="Node000004" class="node">
<title>Node4</title>
<g id="a_Node000004"><a xlink:title=" ">
<polygon fill="#e0e0e0" stroke="#999999" points="147.5,-167.5 91.5,-167.5 91.5,-148.5 147.5,-148.5 147.5,-167.5"/>
<text text-anchor="middle" x="119.5" y="-155.5" font-family="Helvetica,sans-Serif" font-size="10.00">QDialog</text>
</a>
</g>
</g>
<!-- Node2&#45;&gt;Node4 -->
<g id="edge3_Node000002_Node000004" class="edge">
<title>Node2&#45;&gt;Node4</title>
<g id="a_edge3_Node000002_Node000004"><a xlink:title=" ">
<path fill="none" stroke="#63b8ff" d="M229.37,-214.37C207.88,-203.54 170.8,-184.85 145.73,-172.22"/>
<polygon fill="#63b8ff" stroke="#63b8ff" points="147.27,-169.07 136.76,-167.7 144.12,-175.32 147.27,-169.07"/>
</a>
</g>
</g>
<!-- Node5 -->
<g id="Node000005" class="node">
<title>Node5</title>
<g id="a_Node000005"><a xlink:title=" ">
<polygon fill="#e0e0e0" stroke="#999999" points="237,-167.5 166,-167.5 166,-148.5 237,-148.5 237,-167.5"/>
<text text-anchor="middle" x="201.5" y="-155.5" font-family="Helvetica,sans-Serif" font-size="10.00">QTcpServer</text>
</a>
</g>
</g>
<!-- Node2&#45;&gt;Node5 -->
<g id="edge4_Node000002_Node000005" class="edge">
<title>Node2&#45;&gt;Node5</title>
<g id="a_edge4_Node000002_Node000005"><a xlink:title=" ">
<path fill="none" stroke="#63b8ff" d="M240.43,-214.37C233.63,-204.69 222.41,-188.74 213.76,-176.44"/>
<polygon fill="#63b8ff" stroke="#63b8ff" points="216.38,-174.07 207.76,-167.91 210.65,-178.1 216.38,-174.07"/>
</a>
</g>
</g>
<!-- Node6 -->
<g id="Node000006" class="node">
<title>Node6</title>
<g id="a_Node000006"><a xlink:title=" ">
<polygon fill="#e0e0e0" stroke="#999999" points="327.5,-167.5 255.5,-167.5 255.5,-148.5 327.5,-148.5 327.5,-167.5"/>
<text text-anchor="middle" x="291.5" y="-155.5" font-family="Helvetica,sans-Serif" font-size="10.00">QTcpSocket</text>
</a>
</g>
</g>
<!-- Node2&#45;&gt;Node6 -->
<g id="edge5_Node000002_Node000006" class="edge">
<title>Node2&#45;&gt;Node6</title>
<g id="a_edge5_Node000002_Node000006"><a xlink:title=" ">
<path fill="none" stroke="#63b8ff" d="M252.57,-214.37C259.37,-204.69 270.59,-188.74 279.24,-176.44"/>
<polygon fill="#63b8ff" stroke="#63b8ff" points="282.35,-178.1 285.24,-167.91 276.62,-174.07 282.35,-178.1"/>
</a>
</g>
</g>
<!-- Node7 -->
<g id="Node000007" class="node">
<title>Node7</title>
<g id="a_Node000007"><a xlink:title=" ">
<polygon fill="#e0e0e0" stroke="#999999" points="395,-167.5 346,-167.5 346,-148.5 395,-148.5 395,-167.5"/>
<text text-anchor="middle" x="370.5" y="-155.5" font-family="Helvetica,sans-Serif" font-size="10.00">QTime</text>
</a>
</g>
</g>
<!-- Node2&#45;&gt;Node7 -->
<g id="edge6_Node000002_Node000007" class="edge">
<title>Node2&#45;&gt;Node7</title>
<g id="a_edge6_Node000002_Node000007"><a xlink:title=" ">
<path fill="none" stroke="#63b8ff" d="M263.22,-214.37C284.12,-203.59 320.09,-185.02 344.57,-172.38"/>
<polygon fill="#63b8ff" stroke="#63b8ff" points="346.36,-175.4 353.65,-167.7 343.15,-169.18 346.36,-175.4"/>
</a>
</g>
</g>
<!-- Node9 -->
<g id="Node000009" class="node">
<title>Node9</title>
<g id="a_Node000009"><a xlink:title=" ">
<polygon fill="#e0e0e0" stroke="#999999" points="154.5,-24.5 112.5,-24.5 112.5,-5.5 154.5,-5.5 154.5,-24.5"/>
<text text-anchor="middle" x="133.5" y="-12.5" font-family="Helvetica,sans-Serif" font-size="10.00">array</text>
</a>
</g>
</g>
<!-- Node8&#45;&gt;Node9 -->
<g id="edge8_Node000008_Node000009" class="edge">
<title>Node8&#45;&gt;Node9</title>
<g id="a_edge8_Node000008_Node000009"><a xlink:title=" ">
<path fill="none" stroke="#63b8ff" d="M234.13,-65.96C210.39,-54.17 180.8,-39.48 159.87,-29.09"/>
<polygon fill="#63b8ff" stroke="#63b8ff" points="161.14,-25.82 150.63,-24.5 158.03,-32.09 161.14,-25.82"/>
</a>
</g>
</g>
<!-- Node10 -->
<g id="Node000010" class="node">
<title>Node10</title>
<g id="a_Node000010"><a xlink:title=" ">
<polygon fill="#e0e0e0" stroke="#999999" points="222.5,-24.5 172.5,-24.5 172.5,-5.5 222.5,-5.5 222.5,-24.5"/>
<text text-anchor="middle" x="197.5" y="-12.5" font-family="Helvetica,sans-Serif" font-size="10.00">cstdint</text>
</a>
</g>
</g>
<!-- Node8&#45;&gt;Node10 -->
<g id="edge9_Node000008_Node000010" class="edge">
<title>Node8&#45;&gt;Node10</title>
<g id="a_edge9_Node000008_Node000010"><a xlink:title=" ">
<path fill="none" stroke="#63b8ff" d="M251.92,-65.77C240.17,-55.02 225.83,-41.91 214.82,-31.84"/>
<polygon fill="#63b8ff" stroke="#63b8ff" points="216.89,-28.99 207.14,-24.82 212.16,-34.15 216.89,-28.99"/>
</a>
</g>
</g>
<!-- Node11 -->
<g id="Node000011" class="node">
<title>Node11</title>
<g id="a_Node000011"><a xlink:title=" ">
<polygon fill="#e0e0e0" stroke="#999999" points="306,-24.5 241,-24.5 241,-5.5 306,-5.5 306,-24.5"/>
<text text-anchor="middle" x="273.5" y="-12.5" font-family="Helvetica,sans-Serif" font-size="10.00">stdexcept</text>
</a>
</g>
</g>
<!-- Node8&#45;&gt;Node11 -->
<g id="edge10_Node000008_Node000011" class="edge">
<title>Node8&#45;&gt;Node11</title>
<g id="a_edge10_Node000008_Node000011"><a xlink:title=" ">
<path fill="none" stroke="#63b8ff" d="M273.5,-65.77C273.5,-56.08 273.5,-44.46 273.5,-34.88"/>
<polygon fill="#63b8ff" stroke="#63b8ff" points="277,-34.82 273.5,-24.82 270,-34.82 277,-34.82"/>
</a>
</g>
</g>
<!-- Node12 -->
<g id="Node000012" class="node">
<title>Node12</title>
<g id="a_Node000012"><a xlink:title=" ">
<polygon fill="#e0e0e0" stroke="#999999" points="368.5,-24.5 324.5,-24.5 324.5,-5.5 368.5,-5.5 368.5,-24.5"/>
<text text-anchor="middle" x="346.5" y="-12.5" font-family="Helvetica,sans-Serif" font-size="10.00">string</text>
</a>
</g>
</g>
<!-- Node8&#45;&gt;Node12 -->
<g id="edge11_Node000008_Node000012" class="edge">
<title>Node8&#45;&gt;Node12</title>
<g id="a_edge11_Node000008_Node000012"><a xlink:title=" ">
<path fill="none" stroke="#63b8ff" d="M294.22,-65.77C305.51,-55.02 319.29,-41.91 329.87,-31.84"/>
<polygon fill="#63b8ff" stroke="#63b8ff" points="332.41,-34.25 337.24,-24.82 327.58,-29.18 332.41,-34.25"/>
</a>
</g>
</g>
<!-- Node13 -->
<g id="Node000013" class="node">
<title>Node13</title>
<g id="a_Node000013"><a xlink:title=" ">
<polygon fill="#e0e0e0" stroke="#999999" points="434,-24.5 387,-24.5 387,-5.5 434,-5.5 434,-24.5"/>
<text text-anchor="middle" x="410.5" y="-12.5" font-family="Helvetica,sans-Serif" font-size="10.00">vector</text>
</a>
</g>
</g>
<!-- Node8&#45;&gt;Node13 -->
<g id="edge12_Node000008_Node000013" class="edge">
<title>Node8&#45;&gt;Node13</title>
<g id="a_edge12_Node000008_Node000013"><a xlink:title=" ">
<path fill="none" stroke="#63b8ff" d="M312.03,-65.96C335.26,-54.17 364.21,-39.48 384.7,-29.09"/>
<polygon fill="#63b8ff" stroke="#63b8ff" points="386.4,-32.15 393.74,-24.5 383.24,-25.91 386.4,-32.15"/>
</a>
</g>
</g>
<!-- Node15 -->
<g id="Node000015" class="node">
<title>Node15</title>
<g id="a_Node000015"><a xlink:href="GameButtons_8h.html" target="_top" xlink:title=" ">
<polygon fill="white" stroke="#666666" points="992.5,-30 856.5,-30 856.5,0 992.5,0 992.5,-30"/>
<text text-anchor="start" x="864.5" y="-18" font-family="Helvetica,sans-Serif" font-size="10.00">../../VGP_Data_Exchange</text>
<text text-anchor="middle" x="924.5" y="-7" font-family="Helvetica,sans-Serif" font-size="10.00">/C/GameButtons.h</text>
</a>
</g>
</g>
<!-- Node14&#45;&gt;Node15 -->
<g id="edge14_Node000014_Node000015" class="edge">
<title>Node14&#45;&gt;Node15</title>
<g id="a_edge14_Node000014_Node000015"><a xlink:title=" ">
<path fill="none" stroke="#63b8ff" d="M998.99,-216.77C971.26,-210.52 939.68,-198.02 922.5,-173 895.07,-133.06 906.7,-72.89 916.37,-39.84"/>
<polygon fill="#63b8ff" stroke="#63b8ff" points="919.76,-40.71 919.39,-30.12 913.08,-38.63 919.76,-40.71"/>
</a>
</g>
</g>
<!-- Node16 -->
<g id="Node000016" class="node">
<title>Node16</title>
<g id="a_Node000016"><a xlink:href="input__types_8hpp.html" target="_top" xlink:title=" ">
<polygon fill="white" stroke="#666666" points="1111,-96 1016,-96 1016,-77 1111,-77 1111,-96"/>
<text text-anchor="middle" x="1063.5" y="-84" font-family="Helvetica,sans-Serif" font-size="10.00">input_types.hpp</text>
</a>
</g>
</g>
<!-- Node14&#45;&gt;Node16 -->
<g id="edge15_Node000014_Node000016" class="edge">
<title>Node14&#45;&gt;Node16</title>
<g id="a_edge15_Node000014_Node000016"><a xlink:title=" ">
<path fill="none" stroke="#63b8ff" d="M1069.73,-208.73C1079.32,-199.63 1090.32,-186.96 1095.5,-173 1104.32,-149.21 1089.6,-121.74 1077.32,-104.49"/>
<polygon fill="#63b8ff" stroke="#63b8ff" points="1080.09,-102.35 1071.27,-96.48 1074.51,-106.57 1080.09,-102.35"/>
</a>
</g>
</g>
<!-- Node19 -->
<g id="Node000019" class="node">
<title>Node19</title>
<g id="a_Node000019"><a xlink:href="keymap__profile_8hpp.html" target="_top" xlink:title=" ">
<polygon fill="white" stroke="#666666" points="1299,-167.5 1186,-167.5 1186,-148.5 1299,-148.5 1299,-167.5"/>
<text text-anchor="middle" x="1242.5" y="-155.5" font-family="Helvetica,sans-Serif" font-size="10.00">keymap_profile.hpp</text>
</a>
</g>
</g>
<!-- Node14&#45;&gt;Node19 -->
<g id="edge19_Node000014_Node000019" class="edge">
<title>Node14&#45;&gt;Node19</title>
<g id="a_edge19_Node000014_Node000019"><a xlink:title=" ">
<path fill="none" stroke="#63b8ff" d="M1094.2,-208.95C1128.1,-197.53 1175.41,-181.6 1207.4,-170.82"/>
<polygon fill="#63b8ff" stroke="#63b8ff" points="1208.85,-174.03 1217.21,-167.52 1206.62,-167.39 1208.85,-174.03"/>
</a>
</g>
</g>
<!-- Node21 -->
<g id="Node000021" class="node">
<title>Node21</title>
<g id="a_Node000021"><a xlink:title=" ">
<polygon fill="#e0e0e0" stroke="#999999" points="1185.5,-96 1129.5,-96 1129.5,-77 1185.5,-77 1185.5,-96"/>
<text text-anchor="middle" x="1157.5" y="-84" font-family="Helvetica,sans-Serif" font-size="10.00">QObject</text>
</a>
</g>
</g>
<!-- Node14&#45;&gt;Node21 -->
<g id="edge30_Node000014_Node000021" class="edge">
<title>Node14&#45;&gt;Node21</title>
<g id="a_edge30_Node000014_Node000021"><a xlink:title=" ">
<path fill="none" stroke="#63b8ff" d="M1072.09,-208.98C1084.15,-199.7 1099.37,-186.74 1110.5,-173 1127.62,-151.88 1141.74,-123.63 1149.9,-105.5"/>
<polygon fill="#63b8ff" stroke="#63b8ff" points="1153.2,-106.69 1154,-96.12 1146.79,-103.89 1153.2,-106.69"/>
</a>
</g>
</g>
<!-- Node22 -->
<g id="Node000022" class="node">
<title>Node22</title>
<g id="a_Node000022"><a xlink:title=" ">
<polygon fill="#e0e0e0" stroke="#999999" points="1365.5,-96 1301.5,-96 1301.5,-77 1365.5,-77 1365.5,-96"/>
<text text-anchor="middle" x="1333.5" y="-84" font-family="Helvetica,sans-Serif" font-size="10.00">QSettings</text>
</a>
</g>
</g>
<!-- Node14&#45;&gt;Node22 -->
<g id="edge31_Node000014_Node000022" class="edge">
<title>Node14&#45;&gt;Node22</title>
<g id="a_edge31_Node000014_Node000022"><a xlink:title=" ">
<path fill="none" stroke="#63b8ff" d="M1106.02,-214C1178.84,-201.55 1301.01,-179.83 1308.5,-173 1327.22,-155.92 1332.22,-125.68 1333.39,-106.12"/>
<polygon fill="#63b8ff" stroke="#63b8ff" points="1336.89,-106.13 1333.71,-96.02 1329.9,-105.9 1336.89,-106.13"/>
</a>
</g>
</g>
<!-- Node23 -->
<g id="Node000023" class="node">
<title>Node23</title>
<g id="a_Node000023"><a xlink:title=" ">
<polygon fill="#e0e0e0" stroke="#999999" points="1437,-96 1384,-96 1384,-77 1437,-77 1437,-96"/>
<text text-anchor="middle" x="1410.5" y="-84" font-family="Helvetica,sans-Serif" font-size="10.00">QString</text>
</a>
</g>
</g>
<!-- Node14&#45;&gt;Node23 -->
<g id="edge32_Node000014_Node000023" class="edge">
<title>Node14&#45;&gt;Node23</title>
<g id="a_edge32_Node000014_Node000023"><a xlink:title=" ">
<path fill="none" stroke="#63b8ff" d="M1106.3,-214.22C1184.32,-201.35 1320.7,-178.33 1330.5,-173 1360.71,-156.56 1385.94,-124.5 1399.57,-104.65"/>
<polygon fill="#63b8ff" stroke="#63b8ff" points="1402.53,-106.52 1405.14,-96.25 1396.7,-102.65 1402.53,-106.52"/>
</a>
</g>
</g>
<!-- Node24 -->
<g id="Node000024" class="node">
<title>Node24</title>
<g id="a_Node000024"><a xlink:title=" ">
<polygon fill="#e0e0e0" stroke="#999999" points="997.5,-96 959.5,-96 959.5,-77 997.5,-77 997.5,-96"/>
<text text-anchor="middle" x="978.5" y="-84" font-family="Helvetica,sans-Serif" font-size="10.00">map</text>
</a>
</g>
</g>
<!-- Node14&#45;&gt;Node24 -->
<g id="edge34_Node000014_Node000024" class="edge">
<title>Node14&#45;&gt;Node24</title>
<g id="a_edge34_Node000014_Node000024"><a xlink:title=" ">
<path fill="none" stroke="#63b8ff" d="M1059.08,-208.77C1065.79,-192.01 1073.75,-163.81 1062.5,-143 1048.61,-117.3 1031.84,-123.15 1007.5,-107 1004.9,-105.28 1002.18,-103.46 999.49,-101.66"/>
<polygon fill="#63b8ff" stroke="#63b8ff" points="1001.43,-98.75 991.18,-96.08 997.53,-104.56 1001.43,-98.75"/>
</a>
</g>
</g>
<!-- Node25 -->
<g id="Node000025" class="node">
<title>Node25</title>
<g id="a_Node000025"><a xlink:title=" ">
<polygon fill="#e0e0e0" stroke="#999999" points="874.5,-167.5 836.5,-167.5 836.5,-148.5 874.5,-148.5 874.5,-167.5"/>
<text text-anchor="middle" x="855.5" y="-155.5" font-family="Helvetica,sans-Serif" font-size="10.00">QDir</text>
</a>
</g>
</g>
<!-- Node14&#45;&gt;Node25 -->
<g id="edge27_Node000014_Node000025" class="edge">
<title>Node14&#45;&gt;Node25</title>
<g id="a_edge27_Node000014_Node000025"><a xlink:title=" ">
<path fill="none" stroke="#63b8ff" d="M1001.44,-208.93C968.84,-199.59 925.85,-186.57 888.5,-173 887.07,-172.48 885.62,-171.94 884.16,-171.37"/>
<polygon fill="#63b8ff" stroke="#63b8ff" points="885.14,-167.99 874.56,-167.49 882.52,-174.48 885.14,-167.99"/>
</a>
</g>
</g>
<!-- Node14&#45;&gt;Node26 -->
<g id="edge28_Node000014_Node000026" class="edge">
<title>Node14&#45;&gt;Node26</title>
<g id="a_edge28_Node000014_Node000026"><a xlink:title=" ">
<path fill="none" stroke="#63b8ff" d="M1106.26,-211.6C1111.07,-210.68 1115.87,-209.8 1120.5,-209 1235.03,-189.27 1267.17,-202.8 1379.5,-173 1381.66,-172.43 1383.86,-171.76 1386.06,-171.03"/>
<polygon fill="#63b8ff" stroke="#63b8ff" points="1387.34,-174.29 1395.53,-167.56 1384.93,-167.72 1387.34,-174.29"/>
</a>
</g>
</g>
<!-- Node27 -->
<g id="Node000027" class="node">
<title>Node27</title>
<g id="a_Node000027"><a xlink:title=" ">
<polygon fill="#e0e0e0" stroke="#999999" points="976,-167.5 931,-167.5 931,-148.5 976,-148.5 976,-167.5"/>
<text text-anchor="middle" x="953.5" y="-155.5" font-family="Helvetica,sans-Serif" font-size="10.00">QMap</text>
</a>
</g>
</g>
<!-- Node14&#45;&gt;Node27 -->
<g id="edge29_Node000014_Node000027" class="edge">
<title>Node14&#45;&gt;Node27</title>
<g id="a_edge29_Node000014_Node000027"><a xlink:title=" ">
<path fill="none" stroke="#63b8ff" d="M1030.53,-208.8C1014.09,-198.17 991.71,-183.7 975.31,-173.1"/>
<polygon fill="#63b8ff" stroke="#63b8ff" points="977.19,-170.15 966.89,-167.66 973.39,-176.03 977.19,-170.15"/>
</a>
</g>
</g>
<!-- Node28 -->
<g id="Node000028" class="node">
<title>Node28</title>
<g id="a_Node000028"><a xlink:title=" ">
<polygon fill="#e0e0e0" stroke="#999999" points="1053,-167.5 994,-167.5 994,-148.5 1053,-148.5 1053,-167.5"/>
<text text-anchor="middle" x="1023.5" y="-155.5" font-family="Helvetica,sans-Serif" font-size="10.00">QVariant</text>
</a>
</g>
</g>
<!-- Node14&#45;&gt;Node28 -->
<g id="edge33_Node000014_Node000028" class="edge">
<title>Node14&#45;&gt;Node28</title>
<g id="a_edge33_Node000014_Node000028"><a xlink:title=" ">
<path fill="none" stroke="#63b8ff" d="M1046.06,-208.8C1041.85,-199.5 1036.31,-187.27 1031.77,-177.26"/>
<polygon fill="#63b8ff" stroke="#63b8ff" points="1034.82,-175.51 1027.51,-167.84 1028.45,-178.4 1034.82,-175.51"/>
</a>
</g>
</g>
<!-- Node29 -->
<g id="Node000029" class="node">
<title>Node29</title>
<g id="a_Node000029"><a xlink:title=" ">
<polygon fill="#e0e0e0" stroke="#999999" points="556.5,-24.5 488.5,-24.5 488.5,-5.5 556.5,-5.5 556.5,-24.5"/>
<text text-anchor="middle" x="522.5" y="-12.5" font-family="Helvetica,sans-Serif" font-size="10.00">windows.h</text>
</a>
</g>
</g>
<!-- Node14&#45;&gt;Node29 -->
<g id="edge35_Node000014_Node000029" class="edge">
<title>Node14&#45;&gt;Node29</title>
<g id="a_edge35_Node000014_Node000029"><a xlink:title=" ">
<path fill="none" stroke="#63b8ff" d="M998.9,-217.1C940.65,-209.67 852.53,-195.13 827.5,-173 789.7,-139.57 827.86,-98.79 789.5,-66 756.67,-37.93 634.09,-24.43 567.03,-19.02"/>
<polygon fill="#63b8ff" stroke="#63b8ff" points="567.01,-15.51 556.77,-18.22 566.46,-22.49 567.01,-15.51"/>
</a>
</g>
</g>
<!-- Node16&#45;&gt;Node15 -->
<g id="edge16_Node000016_Node000015" class="edge">
<title>Node16&#45;&gt;Node15</title>
<g id="a_edge16_Node000016_Node000015"><a xlink:title=" ">
<path fill="none" stroke="#63b8ff" d="M1046.46,-76.98C1025.42,-66.46 989.05,-48.28 961.49,-34.49"/>
<polygon fill="#63b8ff" stroke="#63b8ff" points="963.02,-31.35 952.51,-30.01 959.89,-37.61 963.02,-31.35"/>
</a>
</g>
</g>
<!-- Node17 -->
<g id="Node000017" class="node">
<title>Node17</title>
<g id="a_Node000017"><a xlink:title=" ">
<polygon fill="#e0e0e0" stroke="#999999" points="1220,-24.5 1143,-24.5 1143,-5.5 1220,-5.5 1220,-24.5"/>
<text text-anchor="middle" x="1181.5" y="-12.5" font-family="Helvetica,sans-Serif" font-size="10.00">minwindef.h</text>
</a>
</g>
</g>
<!-- Node16&#45;&gt;Node17 -->
<g id="edge17_Node000016_Node000017" class="edge">
<title>Node16&#45;&gt;Node17</title>
<g id="a_edge17_Node000016_Node000017"><a xlink:title=" ">
<path fill="none" stroke="#63b8ff" d="M1077.97,-76.98C1097.96,-65.2 1134.27,-43.82 1158.13,-29.76"/>
<polygon fill="#63b8ff" stroke="#63b8ff" points="1160.07,-32.68 1166.91,-24.59 1156.52,-26.65 1160.07,-32.68"/>
</a>
</g>
</g>
<!-- Node18 -->
<g id="Node000018" class="node">
<title>Node18</title>
<g id="a_Node000018"><a xlink:title=" ">
<polygon fill="#e0e0e0" stroke="#999999" points="1093,-24.5 1034,-24.5 1034,-5.5 1093,-5.5 1093,-24.5"/>
<text text-anchor="middle" x="1063.5" y="-12.5" font-family="Helvetica,sans-Serif" font-size="10.00">qtypes.h</text>
</a>
</g>
</g>
<!-- Node16&#45;&gt;Node18 -->
<g id="edge18_Node000016_Node000018" class="edge">
<title>Node16&#45;&gt;Node18</title>
<g id="a_edge18_Node000016_Node000018"><a xlink:title=" ">
<path fill="none" stroke="#63b8ff" d="M1063.5,-76.98C1063.5,-66.56 1063.5,-48.61 1063.5,-34.88"/>
<polygon fill="#63b8ff" stroke="#63b8ff" points="1067,-34.59 1063.5,-24.59 1060,-34.59 1067,-34.59"/>
</a>
</g>
</g>
<!-- Node19&#45;&gt;Node16 -->
<g id="edge20_Node000019_Node000016" class="edge">
<title>Node19&#45;&gt;Node16</title>
<g id="a_edge20_Node000019_Node000016"><a xlink:title=" ">
<path fill="none" stroke="#63b8ff" d="M1220.55,-148.48C1189.15,-136.29 1131.22,-113.79 1095.17,-99.8"/>
<polygon fill="#63b8ff" stroke="#63b8ff" points="1096.22,-96.45 1085.63,-96.09 1093.68,-102.97 1096.22,-96.45"/>
</a>
</g>
</g>
<!-- Node19&#45;&gt;Node17 -->
<g id="edge26_Node000019_Node000017" class="edge">
<title>Node19&#45;&gt;Node17</title>
<g id="a_edge26_Node000019_Node000017"><a xlink:title=" ">
<path fill="none" stroke="#63b8ff" d="M1238.68,-148.18C1228.88,-125.53 1202.68,-64.95 1189.42,-34.3"/>
<polygon fill="#63b8ff" stroke="#63b8ff" points="1192.5,-32.61 1185.31,-24.82 1186.07,-35.38 1192.5,-32.61"/>
</a>
</g>
</g>
<!-- Node20 -->
<g id="Node000020" class="node">
<title>Node20</title>
<g id="a_Node000020"><a xlink:title=" ">
<polygon fill="#e0e0e0" stroke="#999999" points="1283,-96 1242,-96 1242,-77 1283,-77 1283,-96"/>
<text text-anchor="middle" x="1262.5" y="-84" font-family="Helvetica,sans-Serif" font-size="10.00">QFile</text>
</a>
</g>
</g>
<!-- Node19&#45;&gt;Node20 -->
<g id="edge21_Node000019_Node000020" class="edge">
<title>Node19&#45;&gt;Node20</title>
<g id="a_edge21_Node000019_Node000020"><a xlink:title=" ">
<path fill="none" stroke="#63b8ff" d="M1244.95,-148.48C1247.98,-137.95 1253.22,-119.75 1257.19,-105.97"/>
<polygon fill="#63b8ff" stroke="#63b8ff" points="1260.63,-106.67 1260.03,-96.09 1253.9,-104.73 1260.63,-106.67"/>
</a>
</g>
</g>
<!-- Node19&#45;&gt;Node21 -->
<g id="edge22_Node000019_Node000021" class="edge">
<title>Node19&#45;&gt;Node21</title>
<g id="a_edge22_Node000019_Node000021"><a xlink:title=" ">
<path fill="none" stroke="#63b8ff" d="M1232.08,-148.48C1218.19,-137.12 1193.36,-116.82 1176.19,-102.78"/>
<polygon fill="#63b8ff" stroke="#63b8ff" points="1177.97,-99.71 1168.01,-96.09 1173.53,-105.13 1177.97,-99.71"/>
</a>
</g>
</g>
<!-- Node19&#45;&gt;Node22 -->
<g id="edge23_Node000019_Node000022" class="edge">
<title>Node19&#45;&gt;Node22</title>
<g id="a_edge23_Node000019_Node000022"><a xlink:title=" ">
<path fill="none" stroke="#63b8ff" d="M1253.66,-148.48C1268.67,-137.01 1295.6,-116.45 1313.99,-102.4"/>
<polygon fill="#63b8ff" stroke="#63b8ff" points="1316.43,-104.94 1322.25,-96.09 1312.18,-99.38 1316.43,-104.94"/>
</a>
</g>
</g>
<!-- Node19&#45;&gt;Node23 -->
<g id="edge24_Node000019_Node000023" class="edge">
<title>Node19&#45;&gt;Node23</title>
<g id="a_edge24_Node000019_Node000023"><a xlink:title=" ">
<path fill="none" stroke="#63b8ff" d="M1268.22,-148.41C1295.13,-139.16 1338.4,-123.52 1374.5,-107 1378.5,-105.17 1382.67,-103.08 1386.69,-100.98"/>
<polygon fill="#63b8ff" stroke="#63b8ff" points="1388.54,-103.96 1395.67,-96.12 1385.2,-97.8 1388.54,-103.96"/>
</a>
</g>
</g>
<!-- Node19&#45;&gt;Node24 -->
<g id="edge25_Node000019_Node000024" class="edge">
<title>Node19&#45;&gt;Node24</title>
<g id="a_edge25_Node000019_Node000024"><a xlink:title=" ">
<path fill="none" stroke="#63b8ff" d="M1185.6,-151.07C1136.83,-144.55 1065.49,-131.57 1007.5,-107 1004.16,-105.58 1000.8,-103.77 997.6,-101.81"/>
<polygon fill="#63b8ff" stroke="#63b8ff" points="999.47,-98.84 989.22,-96.15 995.55,-104.65 999.47,-98.84"/>
</a>
</g>
</g>
<!-- Node31 -->
<g id="Node000031" class="node">
<title>Node31</title>
<g id="a_Node000031"><a xlink:href="Colfer_8h.html" target="_top" xlink:title=" ">
<polygon fill="white" stroke="#666666" points="750.5,-173 614.5,-173 614.5,-143 750.5,-143 750.5,-173"/>
<text text-anchor="start" x="622.5" y="-161" font-family="Helvetica,sans-Serif" font-size="10.00">../../VGP_Data_Exchange</text>
<text text-anchor="middle" x="682.5" y="-150" font-family="Helvetica,sans-Serif" font-size="10.00">/C/Colfer.h</text>
</a>
</g>
</g>
<!-- Node30&#45;&gt;Node31 -->
<g id="edge37_Node000030_Node000031" class="edge">
<title>Node30&#45;&gt;Node31</title>
<g id="a_edge37_Node000030_Node000031"><a xlink:title=" ">
<path fill="none" stroke="#63b8ff" d="M682.5,-214.37C682.5,-206.49 682.5,-194.45 682.5,-183.6"/>
<polygon fill="#63b8ff" stroke="#63b8ff" points="686,-183.36 682.5,-173.36 679,-183.36 686,-183.36"/>
</a>
</g>
</g>
<!-- Node35 -->
<g id="Node000035" class="node">
<title>Node35</title>
<g id="a_Node000035"><a xlink:href="simulate_8hpp.html" target="_top" xlink:title=" ">
<polygon fill="white" stroke="#666666" points="595.5,-167.5 451.5,-167.5 451.5,-148.5 595.5,-148.5 595.5,-167.5"/>
<text text-anchor="middle" x="523.5" y="-155.5" font-family="Helvetica,sans-Serif" font-size="10.00">../simulation/simulate.hpp</text>
</a>
</g>
</g>
<!-- Node30&#45;&gt;Node35 -->
<g id="edge41_Node000030_Node000035" class="edge">
<title>Node30&#45;&gt;Node35</title>
<g id="a_edge41_Node000030_Node000035"><a xlink:title=" ">
<path fill="none" stroke="#63b8ff" d="M661.06,-214.37C633.6,-203.32 585.82,-184.08 554.43,-171.45"/>
<polygon fill="#63b8ff" stroke="#63b8ff" points="555.44,-168.08 544.86,-167.6 552.83,-174.58 555.44,-168.08"/>
</a>
</g>
</g>
<!-- Node32 -->
<g id="Node000032" class="node">
<title>Node32</title>
<g id="a_Node000032"><a xlink:title=" ">
<polygon fill="#e0e0e0" stroke="#999999" points="638,-96 585,-96 585,-77 638,-77 638,-96"/>
<text text-anchor="middle" x="611.5" y="-84" font-family="Helvetica,sans-Serif" font-size="10.00">limits.h</text>
</a>
</g>
</g>
<!-- Node31&#45;&gt;Node32 -->
<g id="edge38_Node000031_Node000032" class="edge">
<title>Node31&#45;&gt;Node32</title>
<g id="a_edge38_Node000031_Node000032"><a xlink:title=" ">
<path fill="none" stroke="#63b8ff" d="M668.13,-142.94C656.43,-131.48 639.92,-115.32 627.74,-103.4"/>
<polygon fill="#63b8ff" stroke="#63b8ff" points="630.05,-100.76 620.46,-96.27 625.15,-105.76 630.05,-100.76"/>
</a>
</g>
</g>
<!-- Node33 -->
<g id="Node000033" class="node">
<title>Node33</title>
<g id="a_Node000033"><a xlink:title=" ">
<polygon fill="#e0e0e0" stroke="#999999" points="709,-96 656,-96 656,-77 709,-77 709,-96"/>
<text text-anchor="middle" x="682.5" y="-84" font-family="Helvetica,sans-Serif" font-size="10.00">stdint.h</text>
</a>
</g>
</g>
<!-- Node31&#45;&gt;Node33 -->
<g id="edge39_Node000031_Node000033" class="edge">
<title>Node31&#45;&gt;Node33</title>
<g id="a_edge39_Node000031_Node000033"><a xlink:title=" ">
<path fill="none" stroke="#63b8ff" d="M682.5,-142.94C682.5,-132.46 682.5,-118.05 682.5,-106.55"/>
<polygon fill="#63b8ff" stroke="#63b8ff" points="686,-106.27 682.5,-96.27 679,-106.27 686,-106.27"/>
</a>
</g>
</g>
<!-- Node34 -->
<g id="Node000034" class="node">
<title>Node34</title>
<g id="a_Node000034"><a xlink:title=" ">
<polygon fill="#e0e0e0" stroke="#999999" points="780,-96 727,-96 727,-77 780,-77 780,-96"/>
<text text-anchor="middle" x="753.5" y="-84" font-family="Helvetica,sans-Serif" font-size="10.00">string.h</text>
</a>
</g>
</g>
<!-- Node31&#45;&gt;Node34 -->
<g id="edge40_Node000031_Node000034" class="edge">
<title>Node31&#45;&gt;Node34</title>
<g id="a_edge40_Node000031_Node000034"><a xlink:title=" ">
<path fill="none" stroke="#63b8ff" d="M696.87,-142.94C708.57,-131.48 725.08,-115.32 737.26,-103.4"/>
<polygon fill="#63b8ff" stroke="#63b8ff" points="739.85,-105.76 744.54,-96.27 734.95,-100.76 739.85,-105.76"/>
</a>
</g>
</g>
<!-- Node36 -->
<g id="Node000036" class="node">
<title>Node36</title>
<g id="a_Node000036"><a xlink:href="keyboardSim_8hpp.html" target="_top" xlink:title="Simulates keyboard input in Windows.">
<polygon fill="white" stroke="#666666" points="460,-96 359,-96 359,-77 460,-77 460,-96"/>
<text text-anchor="middle" x="409.5" y="-84" font-family="Helvetica,sans-Serif" font-size="10.00">keyboardSim.hpp</text>
</a>
</g>
</g>
<!-- Node35&#45;&gt;Node36 -->
<g id="edge42_Node000035_Node000036" class="edge">
<title>Node35&#45;&gt;Node36</title>
<g id="a_edge42_Node000035_Node000036"><a xlink:title=" ">
<path fill="none" stroke="#63b8ff" d="M509.52,-148.48C490.29,-136.75 455.44,-115.51 432.38,-101.45"/>
<polygon fill="#63b8ff" stroke="#63b8ff" points="433.95,-98.31 423.59,-96.09 430.31,-104.29 433.95,-98.31"/>
</a>
</g>
</g>
<!-- Node37 -->
<g id="Node000037" class="node">
<title>Node37</title>
<g id="a_Node000037"><a xlink:href="mouseSim_8hpp.html" target="_top" xlink:title="Simulates mouse input in Windows.">
<polygon fill="white" stroke="#666666" points="567,-96 478,-96 478,-77 567,-77 567,-96"/>
<text text-anchor="middle" x="522.5" y="-84" font-family="Helvetica,sans-Serif" font-size="10.00">mouseSim.hpp</text>
</a>
</g>
</g>
<!-- Node35&#45;&gt;Node37 -->
<g id="edge46_Node000035_Node000037" class="edge">
<title>Node35&#45;&gt;Node37</title>
<g id="a_edge46_Node000035_Node000037"><a xlink:title=" ">
<path fill="none" stroke="#63b8ff" d="M523.38,-148.48C523.23,-138.06 522.97,-120.11 522.77,-106.38"/>
<polygon fill="#63b8ff" stroke="#63b8ff" points="526.27,-106.04 522.62,-96.09 519.27,-106.14 526.27,-106.04"/>
</a>
</g>
</g>
<!-- Node36&#45;&gt;Node12 -->
<g id="edge43_Node000036_Node000012" class="edge">
<title>Node36&#45;&gt;Node12</title>
<g id="a_edge43_Node000036_Node000012"><a xlink:title=" ">
<path fill="none" stroke="#63b8ff" d="M401.77,-76.98C391.67,-65.83 373.75,-46.06 361.06,-32.06"/>
<polygon fill="#63b8ff" stroke="#63b8ff" points="363.6,-29.65 354.29,-24.59 358.41,-34.35 363.6,-29.65"/>
</a>
</g>
</g>
<!-- Node36&#45;&gt;Node13 -->
<g id="edge44_Node000036_Node000013" class="edge">
<title>Node36&#45;&gt;Node13</title>
<g id="a_edge44_Node000036_Node000013"><a xlink:title=" ">
<path fill="none" stroke="#63b8ff" d="M409.62,-76.98C409.77,-66.56 410.03,-48.61 410.23,-34.88"/>
<polygon fill="#63b8ff" stroke="#63b8ff" points="413.73,-34.64 410.38,-24.59 406.73,-34.54 413.73,-34.64"/>
</a>
</g>
</g>
<!-- Node36&#45;&gt;Node29 -->
<g id="edge45_Node000036_Node000029" class="edge">
<title>Node36&#45;&gt;Node29</title>
<g id="a_edge45_Node000036_Node000029"><a xlink:title=" ">
<path fill="none" stroke="#63b8ff" d="M423.36,-76.98C442.42,-65.25 476.96,-44.01 499.82,-29.95"/>
<polygon fill="#63b8ff" stroke="#63b8ff" points="501.85,-32.81 508.53,-24.59 498.18,-26.85 501.85,-32.81"/>
</a>
</g>
</g>
<!-- Node37&#45;&gt;Node29 -->
<g id="edge47_Node000037_Node000029" class="edge">
<title>Node37&#45;&gt;Node29</title>
<g id="a_edge47_Node000037_Node000029"><a xlink:title=" ">
<path fill="none" stroke="#63b8ff" d="M522.5,-76.98C522.5,-66.56 522.5,-48.61 522.5,-34.88"/>
<polygon fill="#63b8ff" stroke="#63b8ff" points="526,-34.59 522.5,-24.59 519,-34.59 526,-34.59"/>
</a>
</g>
</g>
</g>
</svg>
