<?xml version="1.0" encoding="UTF-8" standalone="no"?>
<!DOCTYPE svg PUBLIC "-//W3C//DTD SVG 1.1//EN"
 "http://www.w3.org/Graphics/SVG/1.1/DTD/svg11.dtd">
<!-- Generated by graphviz version 2.43.0 (0)
 -->
<!-- Title: src/networking/server.hpp Pages: 1 -->
<svg width="1309pt" height="214pt"
 viewBox="0.00 0.00 1309.00 214.00" xmlns="http://www.w3.org/2000/svg" xmlns:xlink="http://www.w3.org/1999/xlink">
<g id="graph0" class="graph" transform="scale(1 1) rotate(0) translate(4 210)">
<title>src/networking/server.hpp</title>
<!-- Node1 -->
<g id="Node000001" class="node">
<title>Node1</title>
<g id="a_Node000001"><a xlink:title=" ">
<polygon fill="#999999" stroke="#666666" points="1097,-206 954,-206 954,-187 1097,-187 1097,-206"/>
<text text-anchor="middle" x="1025.5" y="-194" font-family="Helvetica,sans-Serif" font-size="10.00">src/networking/server.hpp</text>
</a>
</g>
</g>
<!-- Node2 -->
<g id="Node000002" class="node">
<title>Node2</title>
<g id="a_Node000002"><a xlink:href="executor_8hpp.html" target="_top" xlink:title=" ">
<polygon fill="white" stroke="#666666" points="732,-151 653,-151 653,-132 732,-132 732,-151"/>
<text text-anchor="middle" x="692.5" y="-139" font-family="Helvetica,sans-Serif" font-size="10.00">executor.hpp</text>
</a>
</g>
</g>
<!-- Node1&#45;&gt;Node2 -->
<g id="edge1_Node000001_Node000002" class="edge">
<title>Node1&#45;&gt;Node2</title>
<g id="a_edge1_Node000001_Node000002"><a xlink:title=" ">
<path fill="none" stroke="#63b8ff" d="M972,-186.98C908.61,-176.9 803.84,-160.22 742.17,-150.41"/>
<polygon fill="#63b8ff" stroke="#63b8ff" points="742.71,-146.95 732.29,-148.83 741.61,-153.86 742.71,-146.95"/>
</a>
</g>
</g>
<!-- Node18 -->
<g id="Node000018" class="node">
<title>Node18</title>
<g id="a_Node000018"><a xlink:title=" ">
<polygon fill="#e0e0e0" stroke="#999999" points="1023.5,-90.5 965.5,-90.5 965.5,-71.5 1023.5,-71.5 1023.5,-90.5"/>
<text text-anchor="middle" x="994.5" y="-78.5" font-family="Helvetica,sans-Serif" font-size="10.00">memory</text>
</a>
</g>
</g>
<!-- Node1&#45;&gt;Node18 -->
<g id="edge24_Node000001_Node000018" class="edge">
<title>Node1&#45;&gt;Node18</title>
<g id="a_edge24_Node000001_Node000018"><a xlink:title=" ">
<path fill="none" stroke="#63b8ff" d="M953.8,-187.08C931.81,-180.75 909.91,-169.81 896.5,-151 891.6,-144.12 892.09,-139.2 896.5,-132 903.97,-119.8 936.28,-104.75 961.78,-94.36"/>
<polygon fill="#63b8ff" stroke="#63b8ff" points="963.16,-97.58 971.16,-90.63 960.57,-91.08 963.16,-97.58"/>
</a>
</g>
</g>
<!-- Node19 -->
<g id="Node000019" class="node">
<title>Node19</title>
<g id="a_Node000019"><a xlink:title=" ">
<polygon fill="#e0e0e0" stroke="#999999" points="979,-151 906,-151 906,-132 979,-132 979,-151"/>
<text text-anchor="middle" x="942.5" y="-139" font-family="Helvetica,sans-Serif" font-size="10.00">QByteArray</text>
</a>
</g>
</g>
<!-- Node1&#45;&gt;Node19 -->
<g id="edge19_Node000001_Node000019" class="edge">
<title>Node1&#45;&gt;Node19</title>
<g id="a_edge19_Node000001_Node000019"><a xlink:title=" ">
<path fill="none" stroke="#63b8ff" d="M1012.16,-186.98C999.41,-178.84 979.95,-166.41 964.83,-156.76"/>
<polygon fill="#63b8ff" stroke="#63b8ff" points="966.39,-153.6 956.08,-151.17 962.62,-159.5 966.39,-153.6"/>
</a>
</g>
</g>
<!-- Node20 -->
<g id="Node000020" class="node">
<title>Node20</title>
<g id="a_Node000020"><a xlink:title=" ">
<polygon fill="#e0e0e0" stroke="#999999" points="1053.5,-151 997.5,-151 997.5,-132 1053.5,-132 1053.5,-151"/>
<text text-anchor="middle" x="1025.5" y="-139" font-family="Helvetica,sans-Serif" font-size="10.00">QDialog</text>
</a>
</g>
</g>
<!-- Node1&#45;&gt;Node20 -->
<g id="edge20_Node000001_Node000020" class="edge">
<title>Node1&#45;&gt;Node20</title>
<g id="a_edge20_Node000001_Node000020"><a xlink:title=" ">
<path fill="none" stroke="#63b8ff" d="M1025.5,-186.75C1025.5,-179.8 1025.5,-169.85 1025.5,-161.13"/>
<polygon fill="#63b8ff" stroke="#63b8ff" points="1029,-161.09 1025.5,-151.09 1022,-161.09 1029,-161.09"/>
</a>
</g>
</g>
<!-- Node21 -->
<g id="Node000021" class="node">
<title>Node21</title>
<g id="a_Node000021"><a xlink:title=" ">
<polygon fill="#e0e0e0" stroke="#999999" points="1143,-151 1072,-151 1072,-132 1143,-132 1143,-151"/>
<text text-anchor="middle" x="1107.5" y="-139" font-family="Helvetica,sans-Serif" font-size="10.00">QTcpServer</text>
</a>
</g>
</g>
<!-- Node1&#45;&gt;Node21 -->
<g id="edge21_Node000001_Node000021" class="edge">
<title>Node1&#45;&gt;Node21</title>
<g id="a_edge21_Node000001_Node000021"><a xlink:title=" ">
<path fill="none" stroke="#63b8ff" d="M1038.67,-186.98C1051.27,-178.84 1070.5,-166.41 1085.44,-156.76"/>
<polygon fill="#63b8ff" stroke="#63b8ff" points="1087.59,-159.54 1094.09,-151.17 1083.79,-153.66 1087.59,-159.54"/>
</a>
</g>
</g>
<!-- Node22 -->
<g id="Node000022" class="node">
<title>Node22</title>
<g id="a_Node000022"><a xlink:title=" ">
<polygon fill="#e0e0e0" stroke="#999999" points="1233.5,-151 1161.5,-151 1161.5,-132 1233.5,-132 1233.5,-151"/>
<text text-anchor="middle" x="1197.5" y="-139" font-family="Helvetica,sans-Serif" font-size="10.00">QTcpSocket</text>
</a>
</g>
</g>
<!-- Node1&#45;&gt;Node22 -->
<g id="edge22_Node000001_Node000022" class="edge">
<title>Node1&#45;&gt;Node22</title>
<g id="a_edge22_Node000001_Node000022"><a xlink:title=" ">
<path fill="none" stroke="#63b8ff" d="M1053.13,-186.98C1082.01,-178.09 1127.51,-164.07 1159.7,-154.15"/>
<polygon fill="#63b8ff" stroke="#63b8ff" points="1161.12,-157.37 1169.65,-151.08 1159.06,-150.68 1161.12,-157.37"/>
</a>
</g>
</g>
<!-- Node23 -->
<g id="Node000023" class="node">
<title>Node23</title>
<g id="a_Node000023"><a xlink:title=" ">
<polygon fill="#e0e0e0" stroke="#999999" points="1301,-151 1252,-151 1252,-132 1301,-132 1301,-151"/>
<text text-anchor="middle" x="1276.5" y="-139" font-family="Helvetica,sans-Serif" font-size="10.00">QTime</text>
</a>
</g>
</g>
<!-- Node1&#45;&gt;Node23 -->
<g id="edge23_Node000001_Node000023" class="edge">
<title>Node1&#45;&gt;Node23</title>
<g id="a_edge23_Node000001_Node000023"><a xlink:title=" ">
<path fill="none" stroke="#63b8ff" d="M1070.09,-186.93C1111.9,-178.77 1176.38,-165.86 1241.6,-151.13"/>
<polygon fill="#63b8ff" stroke="#63b8ff" points="1242.67,-154.47 1251.65,-148.84 1241.12,-147.65 1242.67,-154.47"/>
</a>
</g>
</g>
<!-- Node3 -->
<g id="Node000003" class="node">
<title>Node3</title>
<g id="a_Node000003"><a xlink:href="Colfer_8h.html" target="_top" xlink:title=" ">
<polygon fill="white" stroke="#666666" points="201.5,-96 65.5,-96 65.5,-66 201.5,-66 201.5,-96"/>
<text text-anchor="start" x="73.5" y="-84" font-family="Helvetica,sans-Serif" font-size="10.00">../../VGP_Data_Exchange</text>
<text text-anchor="middle" x="133.5" y="-73" font-family="Helvetica,sans-Serif" font-size="10.00">/C/Colfer.h</text>
</a>
</g>
</g>
<!-- Node2&#45;&gt;Node3 -->
<g id="edge2_Node000002_Node000003" class="edge">
<title>Node2&#45;&gt;Node3</title>
<g id="a_edge2_Node000002_Node000003"><a xlink:title=" ">
<path fill="none" stroke="#63b8ff" d="M652.74,-136.7C575.54,-129.27 399.99,-112.13 252.5,-96 239.4,-94.57 225.5,-92.99 211.99,-91.42"/>
<polygon fill="#63b8ff" stroke="#63b8ff" points="212.09,-87.91 201.76,-90.22 211.28,-94.86 212.09,-87.91"/>
</a>
</g>
</g>
<!-- Node7 -->
<g id="Node000007" class="node">
<title>Node7</title>
<g id="a_Node000007"><a xlink:href="input__types_8hpp.html" target="_top" xlink:title=" ">
<polygon fill="white" stroke="#666666" points="407.5,-90.5 261.5,-90.5 261.5,-71.5 407.5,-71.5 407.5,-90.5"/>
<text text-anchor="middle" x="334.5" y="-78.5" font-family="Helvetica,sans-Serif" font-size="10.00">../settings/input_types.hpp</text>
</a>
</g>
</g>
<!-- Node2&#45;&gt;Node7 -->
<g id="edge6_Node000002_Node000007" class="edge">
<title>Node2&#45;&gt;Node7</title>
<g id="a_edge6_Node000002_Node000007"><a xlink:title=" ">
<path fill="none" stroke="#63b8ff" d="M652.72,-134.2C599.06,-125.69 500.53,-109.95 416.5,-96 409.17,-94.78 401.47,-93.49 393.85,-92.2"/>
<polygon fill="#63b8ff" stroke="#63b8ff" points="394.36,-88.74 383.92,-90.51 393.19,-95.64 394.36,-88.74"/>
</a>
</g>
</g>
<!-- Node11 -->
<g id="Node000011" class="node">
<title>Node11</title>
<g id="a_Node000011"><a xlink:href="gamepadSim_8hpp.html" target="_top" xlink:title=" ">
<polygon fill="white" stroke="#666666" points="775.5,-90.5 609.5,-90.5 609.5,-71.5 775.5,-71.5 775.5,-90.5"/>
<text text-anchor="middle" x="692.5" y="-78.5" font-family="Helvetica,sans-Serif" font-size="10.00">../simulation/gamepadSim.hpp</text>
</a>
</g>
</g>
<!-- Node2&#45;&gt;Node11 -->
<g id="edge10_Node000002_Node000011" class="edge">
<title>Node2&#45;&gt;Node11</title>
<g id="a_edge10_Node000002_Node000011"><a xlink:title=" ">
<path fill="none" stroke="#63b8ff" d="M692.5,-131.87C692.5,-123.75 692.5,-111.31 692.5,-100.89"/>
<polygon fill="#63b8ff" stroke="#63b8ff" points="696,-100.67 692.5,-90.67 689,-100.67 696,-100.67"/>
</a>
</g>
</g>
<!-- Node14 -->
<g id="Node000014" class="node">
<title>Node14</title>
<g id="a_Node000014"><a xlink:href="keyboardSim_8hpp.html" target="_top" xlink:title="Simulates keyboard input across platforms.">
<polygon fill="white" stroke="#666666" points="591,-90.5 426,-90.5 426,-71.5 591,-71.5 591,-90.5"/>
<text text-anchor="middle" x="508.5" y="-78.5" font-family="Helvetica,sans-Serif" font-size="10.00">../simulation/keyboardSim.hpp</text>
</a>
</g>
</g>
<!-- Node2&#45;&gt;Node14 -->
<g id="edge13_Node000002_Node000014" class="edge">
<title>Node2&#45;&gt;Node14</title>
<g id="a_edge13_Node000002_Node000014"><a xlink:title=" ">
<path fill="none" stroke="#63b8ff" d="M665.74,-131.99C633.86,-121.86 580.43,-104.87 544.82,-93.55"/>
<polygon fill="#63b8ff" stroke="#63b8ff" points="545.88,-90.21 535.29,-90.52 543.76,-96.88 545.88,-90.21"/>
</a>
</g>
</g>
<!-- Node17 -->
<g id="Node000017" class="node">
<title>Node17</title>
<g id="a_Node000017"><a xlink:href="mouseSim_8hpp.html" target="_top" xlink:title="Simulates mouse input across platforms.">
<polygon fill="white" stroke="#666666" points="947,-90.5 794,-90.5 794,-71.5 947,-71.5 947,-90.5"/>
<text text-anchor="middle" x="870.5" y="-78.5" font-family="Helvetica,sans-Serif" font-size="10.00">../simulation/mouseSim.hpp</text>
</a>
</g>
</g>
<!-- Node2&#45;&gt;Node17 -->
<g id="edge17_Node000002_Node000017" class="edge">
<title>Node2&#45;&gt;Node17</title>
<g id="a_edge17_Node000002_Node000017"><a xlink:title=" ">
<path fill="none" stroke="#63b8ff" d="M718.38,-131.99C749.1,-121.9 800.48,-105.01 834.92,-93.69"/>
<polygon fill="#63b8ff" stroke="#63b8ff" points="836.18,-96.96 844.59,-90.52 833.99,-90.31 836.18,-96.96"/>
</a>
</g>
</g>
<!-- Node2&#45;&gt;Node18 -->
<g id="edge18_Node000002_Node000018" class="edge">
<title>Node2&#45;&gt;Node18</title>
<g id="a_edge18_Node000002_Node000018"><a xlink:title=" ">
<path fill="none" stroke="#63b8ff" d="M732.17,-136.01C784.06,-129.64 877.55,-116.41 955.5,-96 958,-95.35 960.56,-94.6 963.12,-93.8"/>
<polygon fill="#63b8ff" stroke="#63b8ff" points="964.48,-97.04 972.85,-90.54 962.26,-90.4 964.48,-97.04"/>
</a>
</g>
</g>
<!-- Node4 -->
<g id="Node000004" class="node">
<title>Node4</title>
<g id="a_Node000004"><a xlink:title=" ">
<polygon fill="#e0e0e0" stroke="#999999" points="53,-24.5 0,-24.5 0,-5.5 53,-5.5 53,-24.5"/>
<text text-anchor="middle" x="26.5" y="-12.5" font-family="Helvetica,sans-Serif" font-size="10.00">limits.h</text>
</a>
</g>
</g>
<!-- Node3&#45;&gt;Node4 -->
<g id="edge3_Node000003_Node000004" class="edge">
<title>Node3&#45;&gt;Node4</title>
<g id="a_edge3_Node000003_Node000004"><a xlink:title=" ">
<path fill="none" stroke="#63b8ff" d="M110.02,-65.95C92,-55.18 67.26,-40.38 49.39,-29.69"/>
<polygon fill="#63b8ff" stroke="#63b8ff" points="51.12,-26.65 40.74,-24.52 47.53,-32.65 51.12,-26.65"/>
</a>
</g>
</g>
<!-- Node5 -->
<g id="Node000005" class="node">
<title>Node5</title>
<g id="a_Node000005"><a xlink:title=" ">
<polygon fill="#e0e0e0" stroke="#999999" points="124,-24.5 71,-24.5 71,-5.5 124,-5.5 124,-24.5"/>
<text text-anchor="middle" x="97.5" y="-12.5" font-family="Helvetica,sans-Serif" font-size="10.00">stdint.h</text>
</a>
</g>
</g>
<!-- Node3&#45;&gt;Node5 -->
<g id="edge4_Node000003_Node000005" class="edge">
<title>Node3&#45;&gt;Node5</title>
<g id="a_edge4_Node000003_Node000005"><a xlink:title=" ">
<path fill="none" stroke="#63b8ff" d="M125.51,-65.8C120.17,-56.31 113.11,-43.76 107.42,-33.63"/>
<polygon fill="#63b8ff" stroke="#63b8ff" points="110.43,-31.84 102.47,-24.84 104.33,-35.28 110.43,-31.84"/>
</a>
</g>
</g>
<!-- Node6 -->
<g id="Node000006" class="node">
<title>Node6</title>
<g id="a_Node000006"><a xlink:title=" ">
<polygon fill="#e0e0e0" stroke="#999999" points="195,-24.5 142,-24.5 142,-5.5 195,-5.5 195,-24.5"/>
<text text-anchor="middle" x="168.5" y="-12.5" font-family="Helvetica,sans-Serif" font-size="10.00">string.h</text>
</a>
</g>
</g>
<!-- Node3&#45;&gt;Node6 -->
<g id="edge5_Node000003_Node000006" class="edge">
<title>Node3&#45;&gt;Node6</title>
<g id="a_edge5_Node000003_Node000006"><a xlink:title=" ">
<path fill="none" stroke="#63b8ff" d="M141.27,-65.8C146.46,-56.31 153.32,-43.76 158.86,-33.63"/>
<polygon fill="#63b8ff" stroke="#63b8ff" points="161.94,-35.3 163.66,-24.84 155.79,-31.94 161.94,-35.3"/>
</a>
</g>
</g>
<!-- Node8 -->
<g id="Node000008" class="node">
<title>Node8</title>
<g id="a_Node000008"><a xlink:href="GameButtons_8h.html" target="_top" xlink:title=" ">
<polygon fill="white" stroke="#666666" points="349.5,-30 213.5,-30 213.5,0 349.5,0 349.5,-30"/>
<text text-anchor="start" x="221.5" y="-18" font-family="Helvetica,sans-Serif" font-size="10.00">../../VGP_Data_Exchange</text>
<text text-anchor="middle" x="281.5" y="-7" font-family="Helvetica,sans-Serif" font-size="10.00">/C/GameButtons.h</text>
</a>
</g>
</g>
<!-- Node7&#45;&gt;Node8 -->
<g id="edge7_Node000007_Node000008" class="edge">
<title>Node7&#45;&gt;Node8</title>
<g id="a_edge7_Node000007_Node000008"><a xlink:title=" ">
<path fill="none" stroke="#63b8ff" d="M327.35,-71.37C320.35,-62.91 309.38,-49.67 299.93,-38.25"/>
<polygon fill="#63b8ff" stroke="#63b8ff" points="302.47,-35.83 293.39,-30.36 297.07,-40.29 302.47,-35.83"/>
</a>
</g>
</g>
<!-- Node9 -->
<g id="Node000009" class="node">
<title>Node9</title>
<g id="a_Node000009"><a xlink:title=" ">
<polygon fill="#e0e0e0" stroke="#999999" points="468,-24.5 415,-24.5 415,-5.5 468,-5.5 468,-24.5"/>
<text text-anchor="middle" x="441.5" y="-12.5" font-family="Helvetica,sans-Serif" font-size="10.00">QString</text>
</a>
</g>
</g>
<!-- Node7&#45;&gt;Node9 -->
<g id="edge8_Node000007_Node000009" class="edge">
<title>Node7&#45;&gt;Node9</title>
<g id="a_edge8_Node000007_Node000009"><a xlink:title=" ">
<path fill="none" stroke="#63b8ff" d="M348.93,-71.37C366.72,-60.73 397.18,-42.51 418.28,-29.89"/>
<polygon fill="#63b8ff" stroke="#63b8ff" points="420.17,-32.84 426.96,-24.7 416.58,-26.83 420.17,-32.84"/>
</a>
</g>
</g>
<!-- Node10 -->
<g id="Node000010" class="node">
<title>Node10</title>
<g id="a_Node000010"><a xlink:title=" ">
<polygon fill="#e0e0e0" stroke="#999999" points="397,-24.5 368,-24.5 368,-5.5 397,-5.5 397,-24.5"/>
<text text-anchor="middle" x="382.5" y="-12.5" font-family="Helvetica,sans-Serif" font-size="10.00">Qt</text>
</a>
</g>
</g>
<!-- Node7&#45;&gt;Node10 -->
<g id="edge9_Node000007_Node000010" class="edge">
<title>Node7&#45;&gt;Node10</title>
<g id="a_edge9_Node000007_Node000010"><a xlink:title=" ">
<path fill="none" stroke="#63b8ff" d="M340.97,-71.37C348.3,-61.59 360.43,-45.42 369.69,-33.08"/>
<polygon fill="#63b8ff" stroke="#63b8ff" points="372.62,-35.01 375.82,-24.91 367.02,-30.81 372.62,-35.01"/>
</a>
</g>
</g>
<!-- Node12 -->
<g id="Node000012" class="node">
<title>Node12</title>
<g id="a_Node000012"><a xlink:title=" ">
<polygon fill="#e0e0e0" stroke="#999999" points="695.5,-24.5 639.5,-24.5 639.5,-5.5 695.5,-5.5 695.5,-24.5"/>
<text text-anchor="middle" x="667.5" y="-12.5" font-family="Helvetica,sans-Serif" font-size="10.00">QDebug</text>
</a>
</g>
</g>
<!-- Node11&#45;&gt;Node12 -->
<g id="edge11_Node000011_Node000012" class="edge">
<title>Node11&#45;&gt;Node12</title>
<g id="a_edge11_Node000011_Node000012"><a xlink:title=" ">
<path fill="none" stroke="#63b8ff" d="M689.13,-71.37C685.46,-61.97 679.48,-46.67 674.74,-34.53"/>
<polygon fill="#63b8ff" stroke="#63b8ff" points="677.88,-32.95 670.98,-24.91 671.36,-35.49 677.88,-32.95"/>
</a>
</g>
</g>
<!-- Node13 -->
<g id="Node000013" class="node">
<title>Node13</title>
<g id="a_Node000013"><a xlink:title=" ">
<polygon fill="#e0e0e0" stroke="#999999" points="761,-24.5 714,-24.5 714,-5.5 761,-5.5 761,-24.5"/>
<text text-anchor="middle" x="737.5" y="-12.5" font-family="Helvetica,sans-Serif" font-size="10.00">cmath</text>
</a>
</g>
</g>
<!-- Node11&#45;&gt;Node13 -->
<g id="edge12_Node000011_Node000013" class="edge">
<title>Node11&#45;&gt;Node13</title>
<g id="a_edge12_Node000011_Node000013"><a xlink:title=" ">
<path fill="none" stroke="#63b8ff" d="M698.57,-71.37C705.37,-61.69 716.59,-45.74 725.24,-33.44"/>
<polygon fill="#63b8ff" stroke="#63b8ff" points="728.35,-35.1 731.24,-24.91 722.62,-31.07 728.35,-35.1"/>
</a>
</g>
</g>
<!-- Node14&#45;&gt;Node9 -->
<g id="edge14_Node000014_Node000009" class="edge">
<title>Node14&#45;&gt;Node9</title>
<g id="a_edge14_Node000014_Node000009"><a xlink:title=" ">
<path fill="none" stroke="#63b8ff" d="M499.46,-71.37C488.93,-61.31 471.31,-44.48 458.26,-32.01"/>
<polygon fill="#63b8ff" stroke="#63b8ff" points="460.47,-29.28 450.82,-24.91 455.64,-34.34 460.47,-29.28"/>
</a>
</g>
</g>
<!-- Node15 -->
<g id="Node000015" class="node">
<title>Node15</title>
<g id="a_Node000015"><a xlink:title=" ">
<polygon fill="#e0e0e0" stroke="#999999" points="530.5,-24.5 486.5,-24.5 486.5,-5.5 530.5,-5.5 530.5,-24.5"/>
<text text-anchor="middle" x="508.5" y="-12.5" font-family="Helvetica,sans-Serif" font-size="10.00">string</text>
</a>
</g>
</g>
<!-- Node14&#45;&gt;Node15 -->
<g id="edge15_Node000014_Node000015" class="edge">
<title>Node14&#45;&gt;Node15</title>
<g id="a_edge15_Node000014_Node000015"><a xlink:title=" ">
<path fill="none" stroke="#63b8ff" d="M508.5,-71.37C508.5,-62.16 508.5,-47.29 508.5,-35.27"/>
<polygon fill="#63b8ff" stroke="#63b8ff" points="512,-34.91 508.5,-24.91 505,-34.91 512,-34.91"/>
</a>
</g>
</g>
<!-- Node16 -->
<g id="Node000016" class="node">
<title>Node16</title>
<g id="a_Node000016"><a xlink:title=" ">
<polygon fill="#e0e0e0" stroke="#999999" points="596,-24.5 549,-24.5 549,-5.5 596,-5.5 596,-24.5"/>
<text text-anchor="middle" x="572.5" y="-12.5" font-family="Helvetica,sans-Serif" font-size="10.00">vector</text>
</a>
</g>
</g>
<!-- Node14&#45;&gt;Node16 -->
<g id="edge16_Node000014_Node000016" class="edge">
<title>Node14&#45;&gt;Node16</title>
<g id="a_edge16_Node000014_Node000016"><a xlink:title=" ">
<path fill="none" stroke="#63b8ff" d="M517.13,-71.37C527.19,-61.31 544.02,-44.48 556.49,-32.01"/>
<polygon fill="#63b8ff" stroke="#63b8ff" points="559,-34.45 563.59,-24.91 554.05,-29.5 559,-34.45"/>
</a>
</g>
</g>
</g>
</svg>
