<?xml version="1.0" encoding="UTF-8" standalone="no"?>
<!DOCTYPE svg PUBLIC "-//W3C//DTD SVG 1.1//EN"
 "http://www.w3.org/Graphics/SVG/1.1/DTD/svg11.dtd">
<!-- Generated by graphviz version 2.43.0 (0)
 -->
<!-- Title: src/networking/server.cpp Pages: 1 -->
<svg width="1800pt" height="302pt"
 viewBox="0.00 0.00 1799.50 302.00" xmlns="http://www.w3.org/2000/svg" xmlns:xlink="http://www.w3.org/1999/xlink">
<g id="graph0" class="graph" transform="scale(1 1) rotate(0) translate(4 298)">
<title>src/networking/server.cpp</title>
<!-- Node1 -->
<g id="Node000001" class="node">
<title>Node1</title>
<g id="a_Node000001"><a xlink:title=" ">
<polygon fill="#999999" stroke="#666666" points="1267.5,-294 1125.5,-294 1125.5,-275 1267.5,-275 1267.5,-294"/>
<text text-anchor="middle" x="1196.5" y="-282" font-family="Helvetica,sans-Serif" font-size="10.00">src/networking/server.cpp</text>
</a>
</g>
</g>
<!-- Node2 -->
<g id="Node000002" class="node">
<title>Node2</title>
<g id="a_Node000002"><a xlink:href="server_8hpp.html" target="_top" xlink:title=" ">
<polygon fill="white" stroke="#666666" points="238.5,-233.5 170.5,-233.5 170.5,-214.5 238.5,-214.5 238.5,-233.5"/>
<text text-anchor="middle" x="204.5" y="-221.5" font-family="Helvetica,sans-Serif" font-size="10.00">server.hpp</text>
</a>
</g>
</g>
<!-- Node1&#45;&gt;Node2 -->
<g id="edge1_Node000001_Node000002" class="edge">
<title>Node1&#45;&gt;Node2</title>
<g id="a_edge1_Node000001_Node000002"><a xlink:title=" ">
<path fill="none" stroke="#63b8ff" d="M1125.45,-281.65C975.79,-277.38 617.19,-265.12 317.5,-239 294.76,-237.02 269.54,-233.98 248.7,-231.23"/>
<polygon fill="#63b8ff" stroke="#63b8ff" points="248.93,-227.73 238.55,-229.87 248,-234.67 248.93,-227.73"/>
</a>
</g>
</g>
<!-- Node7 -->
<g id="Node000007" class="node">
<title>Node7</title>
<g id="a_Node000007"><a xlink:href="qrcodegen_8hpp.html" target="_top" xlink:title=" ">
<polygon fill="white" stroke="#666666" points="240.5,-107 106.5,-107 106.5,-66 240.5,-66 240.5,-107"/>
<text text-anchor="start" x="114.5" y="-95" font-family="Helvetica,sans-Serif" font-size="10.00">../../third&#45;party&#45;libs</text>
<text text-anchor="start" x="114.5" y="-84" font-family="Helvetica,sans-Serif" font-size="10.00">/QR&#45;Code&#45;generator/cpp</text>
<text text-anchor="middle" x="173.5" y="-73" font-family="Helvetica,sans-Serif" font-size="10.00">/qrcodegen.hpp</text>
</a>
</g>
</g>
<!-- Node1&#45;&gt;Node7 -->
<g id="edge6_Node000001_Node000007" class="edge">
<title>Node1&#45;&gt;Node7</title>
<g id="a_edge6_Node000001_Node000007"><a xlink:title=" ">
<path fill="none" stroke="#63b8ff" d="M1125.37,-284.41C1005.42,-284.66 755.8,-279.63 549.5,-239 458.07,-220.99 432.53,-217.2 350.5,-173 331.56,-162.79 331.13,-153.77 312.5,-143 290.85,-130.48 265.83,-119.53 243.03,-110.74"/>
<polygon fill="#63b8ff" stroke="#63b8ff" points="244.01,-107.37 233.42,-107.11 241.53,-113.92 244.01,-107.37"/>
</a>
</g>
</g>
<!-- Node13 -->
<g id="Node000013" class="node">
<title>Node13</title>
<g id="a_Node000013"><a xlink:href="settings__singleton_8hpp.html" target="_top" xlink:title=" ">
<polygon fill="white" stroke="#666666" points="1060,-239 953,-239 953,-209 1060,-209 1060,-239"/>
<text text-anchor="start" x="961" y="-227" font-family="Helvetica,sans-Serif" font-size="10.00">../settings/settings</text>
<text text-anchor="middle" x="1006.5" y="-216" font-family="Helvetica,sans-Serif" font-size="10.00">_singleton.hpp</text>
</a>
</g>
</g>
<!-- Node1&#45;&gt;Node13 -->
<g id="edge12_Node000001_Node000013" class="edge">
<title>Node1&#45;&gt;Node13</title>
<g id="a_edge12_Node000001_Node000013"><a xlink:title=" ">
<path fill="none" stroke="#63b8ff" d="M1168.87,-274.99C1140.93,-266.39 1096.97,-252.86 1061.83,-242.04"/>
<polygon fill="#63b8ff" stroke="#63b8ff" points="1062.77,-238.66 1052.18,-239.06 1060.71,-245.35 1062.77,-238.66"/>
</a>
</g>
</g>
<!-- Node25 -->
<g id="Node000025" class="node">
<title>Node25</title>
<g id="a_Node000025"><a xlink:title=" ">
<polygon fill="#e0e0e0" stroke="#999999" points="1368,-167.5 1327,-167.5 1327,-148.5 1368,-148.5 1368,-167.5"/>
<text text-anchor="middle" x="1347.5" y="-155.5" font-family="Helvetica,sans-Serif" font-size="10.00">QList</text>
</a>
</g>
</g>
<!-- Node1&#45;&gt;Node25 -->
<g id="edge51_Node000001_Node000025" class="edge">
<title>Node1&#45;&gt;Node25</title>
<g id="a_edge51_Node000001_Node000025"><a xlink:title=" ">
<path fill="none" stroke="#63b8ff" d="M1159.35,-274.9C1140.34,-268.41 1118.85,-257.37 1107.5,-239 1100.49,-227.66 1098.93,-219.21 1107.5,-209 1166.99,-138.16 1223.53,-198.31 1312.5,-173 1314.44,-172.45 1316.41,-171.83 1318.39,-171.16"/>
<polygon fill="#63b8ff" stroke="#63b8ff" points="1319.95,-174.32 1328.13,-167.58 1317.53,-167.75 1319.95,-174.32"/>
</a>
</g>
</g>
<!-- Node29 -->
<g id="Node000029" class="node">
<title>Node29</title>
<g id="a_Node000029"><a xlink:href="executor_8hpp.html" target="_top" xlink:title=" ">
<polygon fill="white" stroke="#666666" points="637,-233.5 558,-233.5 558,-214.5 637,-214.5 637,-233.5"/>
<text text-anchor="middle" x="597.5" y="-221.5" font-family="Helvetica,sans-Serif" font-size="10.00">executor.hpp</text>
</a>
</g>
</g>
<!-- Node1&#45;&gt;Node29 -->
<g id="edge35_Node000001_Node000029" class="edge">
<title>Node1&#45;&gt;Node29</title>
<g id="a_edge35_Node000001_Node000029"><a xlink:title=" ">
<path fill="none" stroke="#63b8ff" d="M1125.43,-276.56C1002.62,-264.57 753.63,-240.25 647.38,-229.87"/>
<polygon fill="#63b8ff" stroke="#63b8ff" points="647.54,-226.37 637.25,-228.88 646.86,-233.34 647.54,-226.37"/>
</a>
</g>
</g>
<!-- Node37 -->
<g id="Node000037" class="node">
<title>Node37</title>
<g id="a_Node000037"><a xlink:title=" ">
<polygon fill="#e0e0e0" stroke="#999999" points="1186.5,-233.5 1116.5,-233.5 1116.5,-214.5 1186.5,-214.5 1186.5,-233.5"/>
<text text-anchor="middle" x="1151.5" y="-221.5" font-family="Helvetica,sans-Serif" font-size="10.00">ui_server.h</text>
</a>
</g>
</g>
<!-- Node1&#45;&gt;Node37 -->
<g id="edge47_Node000001_Node000037" class="edge">
<title>Node1&#45;&gt;Node37</title>
<g id="a_edge47_Node000001_Node000037"><a xlink:title=" ">
<path fill="none" stroke="#63b8ff" d="M1189.86,-274.87C1183.21,-266.23 1172.81,-252.7 1164.51,-241.92"/>
<polygon fill="#63b8ff" stroke="#63b8ff" points="1167.04,-239.46 1158.17,-233.67 1161.49,-243.73 1167.04,-239.46"/>
</a>
</g>
</g>
<!-- Node38 -->
<g id="Node000038" class="node">
<title>Node38</title>
<g id="a_Node000038"><a xlink:title=" ">
<polygon fill="#e0e0e0" stroke="#999999" points="1278,-233.5 1205,-233.5 1205,-214.5 1278,-214.5 1278,-233.5"/>
<text text-anchor="middle" x="1241.5" y="-221.5" font-family="Helvetica,sans-Serif" font-size="10.00">QByteArray</text>
</a>
</g>
</g>
<!-- Node1&#45;&gt;Node38 -->
<g id="edge48_Node000001_Node000038" class="edge">
<title>Node1&#45;&gt;Node38</title>
<g id="a_edge48_Node000001_Node000038"><a xlink:title=" ">
<path fill="none" stroke="#63b8ff" d="M1203.14,-274.87C1209.79,-266.23 1220.19,-252.7 1228.49,-241.92"/>
<polygon fill="#63b8ff" stroke="#63b8ff" points="1231.51,-243.73 1234.83,-233.67 1225.96,-239.46 1231.51,-243.73"/>
</a>
</g>
</g>
<!-- Node39 -->
<g id="Node000039" class="node">
<title>Node39</title>
<g id="a_Node000039"><a xlink:title=" ">
<polygon fill="#e0e0e0" stroke="#999999" points="1379,-233.5 1296,-233.5 1296,-214.5 1379,-214.5 1379,-233.5"/>
<text text-anchor="middle" x="1337.5" y="-221.5" font-family="Helvetica,sans-Serif" font-size="10.00">QDataStream</text>
</a>
</g>
</g>
<!-- Node1&#45;&gt;Node39 -->
<g id="edge49_Node000001_Node000039" class="edge">
<title>Node1&#45;&gt;Node39</title>
<g id="a_edge49_Node000001_Node000039"><a xlink:title=" ">
<path fill="none" stroke="#63b8ff" d="M1217,-274.99C1240.81,-265.12 1280.29,-248.73 1307.54,-237.43"/>
<polygon fill="#63b8ff" stroke="#63b8ff" points="1309.08,-240.58 1316.97,-233.52 1306.39,-234.12 1309.08,-240.58"/>
</a>
</g>
</g>
<!-- Node40 -->
<g id="Node000040" class="node">
<title>Node40</title>
<g id="a_Node000040"><a xlink:title=" ">
<polygon fill="#e0e0e0" stroke="#999999" points="1483.5,-233.5 1397.5,-233.5 1397.5,-214.5 1483.5,-214.5 1483.5,-233.5"/>
<text text-anchor="middle" x="1440.5" y="-221.5" font-family="Helvetica,sans-Serif" font-size="10.00">QHostAddress</text>
</a>
</g>
</g>
<!-- Node1&#45;&gt;Node40 -->
<g id="edge50_Node000001_Node000040" class="edge">
<title>Node1&#45;&gt;Node40</title>
<g id="a_edge50_Node000001_Node000040"><a xlink:title=" ">
<path fill="none" stroke="#63b8ff" d="M1235.21,-274.95C1274.06,-266.27 1335.56,-252.26 1388.5,-239 1392.11,-238.1 1395.86,-237.13 1399.62,-236.15"/>
<polygon fill="#63b8ff" stroke="#63b8ff" points="1400.7,-239.49 1409.48,-233.54 1398.91,-232.72 1400.7,-239.49"/>
</a>
</g>
</g>
<!-- Node41 -->
<g id="Node000041" class="node">
<title>Node41</title>
<g id="a_Node000041"><a xlink:title=" ">
<polygon fill="#e0e0e0" stroke="#999999" points="1587.5,-233.5 1501.5,-233.5 1501.5,-214.5 1587.5,-214.5 1587.5,-233.5"/>
<text text-anchor="middle" x="1544.5" y="-221.5" font-family="Helvetica,sans-Serif" font-size="10.00">QMessageBox</text>
</a>
</g>
</g>
<!-- Node1&#45;&gt;Node41 -->
<g id="edge52_Node000001_Node000041" class="edge">
<title>Node1&#45;&gt;Node41</title>
<g id="a_edge52_Node000001_Node000041"><a xlink:title=" ">
<path fill="none" stroke="#63b8ff" d="M1267.78,-275.1C1327.99,-267.45 1416.33,-254.93 1492.5,-239 1496.67,-238.13 1501,-237.12 1505.31,-236.06"/>
<polygon fill="#63b8ff" stroke="#63b8ff" points="1506.4,-239.39 1515.22,-233.51 1504.66,-232.61 1506.4,-239.39"/>
</a>
</g>
</g>
<!-- Node42 -->
<g id="Node000042" class="node">
<title>Node42</title>
<g id="a_Node000042"><a xlink:title=" ">
<polygon fill="#e0e0e0" stroke="#999999" points="1715,-233.5 1606,-233.5 1606,-214.5 1715,-214.5 1715,-233.5"/>
<text text-anchor="middle" x="1660.5" y="-221.5" font-family="Helvetica,sans-Serif" font-size="10.00">QNetworkInterface</text>
</a>
</g>
</g>
<!-- Node1&#45;&gt;Node42 -->
<g id="edge53_Node000001_Node000042" class="edge">
<title>Node1&#45;&gt;Node42</title>
<g id="a_edge53_Node000001_Node000042"><a xlink:title=" ">
<path fill="none" stroke="#63b8ff" d="M1267.62,-277.85C1347.84,-270.95 1482.05,-257.83 1596.5,-239 1602.4,-238.03 1608.57,-236.87 1614.65,-235.64"/>
<polygon fill="#63b8ff" stroke="#63b8ff" points="1615.68,-239 1624.75,-233.51 1614.24,-232.14 1615.68,-239"/>
</a>
</g>
</g>
<!-- Node43 -->
<g id="Node000043" class="node">
<title>Node43</title>
<g id="a_Node000043"><a xlink:title=" ">
<polygon fill="#e0e0e0" stroke="#999999" points="1791.5,-233.5 1733.5,-233.5 1733.5,-214.5 1791.5,-214.5 1791.5,-233.5"/>
<text text-anchor="middle" x="1762.5" y="-221.5" font-family="Helvetica,sans-Serif" font-size="10.00">QThread</text>
</a>
</g>
</g>
<!-- Node1&#45;&gt;Node43 -->
<g id="edge54_Node000001_Node000043" class="edge">
<title>Node1&#45;&gt;Node43</title>
<g id="a_edge54_Node000001_Node000043"><a xlink:title=" ">
<path fill="none" stroke="#63b8ff" d="M1267.87,-283.53C1370.2,-282.21 1563.98,-274.65 1724.5,-239 1727.17,-238.41 1729.92,-237.67 1732.64,-236.84"/>
<polygon fill="#63b8ff" stroke="#63b8ff" points="1733.94,-240.1 1742.29,-233.59 1731.7,-233.47 1733.94,-240.1"/>
</a>
</g>
</g>
<!-- Node3 -->
<g id="Node000003" class="node">
<title>Node3</title>
<g id="a_Node000003"><a xlink:title=" ">
<polygon fill="#e0e0e0" stroke="#999999" points="303.5,-167.5 247.5,-167.5 247.5,-148.5 303.5,-148.5 303.5,-167.5"/>
<text text-anchor="middle" x="275.5" y="-155.5" font-family="Helvetica,sans-Serif" font-size="10.00">QDialog</text>
</a>
</g>
</g>
<!-- Node2&#45;&gt;Node3 -->
<g id="edge2_Node000002_Node000003" class="edge">
<title>Node2&#45;&gt;Node3</title>
<g id="a_edge2_Node000002_Node000003"><a xlink:title=" ">
<path fill="none" stroke="#63b8ff" d="M214.08,-214.37C225.34,-204.21 244.26,-187.16 258.13,-174.65"/>
<polygon fill="#63b8ff" stroke="#63b8ff" points="260.54,-177.2 265.62,-167.91 255.85,-172 260.54,-177.2"/>
</a>
</g>
</g>
<!-- Node4 -->
<g id="Node000004" class="node">
<title>Node4</title>
<g id="a_Node000004"><a xlink:title=" ">
<polygon fill="#e0e0e0" stroke="#999999" points="71,-167.5 0,-167.5 0,-148.5 71,-148.5 71,-167.5"/>
<text text-anchor="middle" x="35.5" y="-155.5" font-family="Helvetica,sans-Serif" font-size="10.00">QTcpServer</text>
</a>
</g>
</g>
<!-- Node2&#45;&gt;Node4 -->
<g id="edge3_Node000002_Node000004" class="edge">
<title>Node2&#45;&gt;Node4</title>
<g id="a_edge3_Node000002_Node000004"><a xlink:title=" ">
<path fill="none" stroke="#63b8ff" d="M181.71,-214.37C152.4,-203.27 101.3,-183.92 67.94,-171.28"/>
<polygon fill="#63b8ff" stroke="#63b8ff" points="68.79,-167.86 58.2,-167.6 66.31,-174.41 68.79,-167.86"/>
</a>
</g>
</g>
<!-- Node5 -->
<g id="Node000005" class="node">
<title>Node5</title>
<g id="a_Node000005"><a xlink:title=" ">
<polygon fill="#e0e0e0" stroke="#999999" points="161.5,-167.5 89.5,-167.5 89.5,-148.5 161.5,-148.5 161.5,-167.5"/>
<text text-anchor="middle" x="125.5" y="-155.5" font-family="Helvetica,sans-Serif" font-size="10.00">QTcpSocket</text>
</a>
</g>
</g>
<!-- Node2&#45;&gt;Node5 -->
<g id="edge4_Node000002_Node000005" class="edge">
<title>Node2&#45;&gt;Node5</title>
<g id="a_edge4_Node000002_Node000005"><a xlink:title=" ">
<path fill="none" stroke="#63b8ff" d="M193.85,-214.37C181.12,-204.06 159.62,-186.65 144.13,-174.09"/>
<polygon fill="#63b8ff" stroke="#63b8ff" points="146.21,-171.27 136.24,-167.7 141.8,-176.71 146.21,-171.27"/>
</a>
</g>
</g>
<!-- Node6 -->
<g id="Node000006" class="node">
<title>Node6</title>
<g id="a_Node000006"><a xlink:title=" ">
<polygon fill="#e0e0e0" stroke="#999999" points="229,-167.5 180,-167.5 180,-148.5 229,-148.5 229,-167.5"/>
<text text-anchor="middle" x="204.5" y="-155.5" font-family="Helvetica,sans-Serif" font-size="10.00">QTime</text>
</a>
</g>
</g>
<!-- Node2&#45;&gt;Node6 -->
<g id="edge5_Node000002_Node000006" class="edge">
<title>Node2&#45;&gt;Node6</title>
<g id="a_edge5_Node000002_Node000006"><a xlink:title=" ">
<path fill="none" stroke="#63b8ff" d="M204.5,-214.37C204.5,-205.16 204.5,-190.29 204.5,-178.27"/>
<polygon fill="#63b8ff" stroke="#63b8ff" points="208,-177.91 204.5,-167.91 201,-177.91 208,-177.91"/>
</a>
</g>
</g>
<!-- Node8 -->
<g id="Node000008" class="node">
<title>Node8</title>
<g id="a_Node000008"><a xlink:title=" ">
<polygon fill="#e0e0e0" stroke="#999999" points="130.5,-24.5 88.5,-24.5 88.5,-5.5 130.5,-5.5 130.5,-24.5"/>
<text text-anchor="middle" x="109.5" y="-12.5" font-family="Helvetica,sans-Serif" font-size="10.00">array</text>
</a>
</g>
</g>
<!-- Node7&#45;&gt;Node8 -->
<g id="edge7_Node000007_Node000008" class="edge">
<title>Node7&#45;&gt;Node8</title>
<g id="a_edge7_Node000007_Node000008"><a xlink:title=" ">
<path fill="none" stroke="#63b8ff" d="M155.33,-65.77C145.63,-55.24 133.83,-42.42 124.63,-32.43"/>
<polygon fill="#63b8ff" stroke="#63b8ff" points="126.97,-29.81 117.62,-24.82 121.82,-34.55 126.97,-29.81"/>
</a>
</g>
</g>
<!-- Node9 -->
<g id="Node000009" class="node">
<title>Node9</title>
<g id="a_Node000009"><a xlink:title=" ">
<polygon fill="#e0e0e0" stroke="#999999" points="198.5,-24.5 148.5,-24.5 148.5,-5.5 198.5,-5.5 198.5,-24.5"/>
<text text-anchor="middle" x="173.5" y="-12.5" font-family="Helvetica,sans-Serif" font-size="10.00">cstdint</text>
</a>
</g>
</g>
<!-- Node7&#45;&gt;Node9 -->
<g id="edge8_Node000007_Node000009" class="edge">
<title>Node7&#45;&gt;Node9</title>
<g id="a_edge8_Node000007_Node000009"><a xlink:title=" ">
<path fill="none" stroke="#63b8ff" d="M173.5,-65.77C173.5,-56.08 173.5,-44.46 173.5,-34.88"/>
<polygon fill="#63b8ff" stroke="#63b8ff" points="177,-34.82 173.5,-24.82 170,-34.82 177,-34.82"/>
</a>
</g>
</g>
<!-- Node10 -->
<g id="Node000010" class="node">
<title>Node10</title>
<g id="a_Node000010"><a xlink:title=" ">
<polygon fill="#e0e0e0" stroke="#999999" points="282,-24.5 217,-24.5 217,-5.5 282,-5.5 282,-24.5"/>
<text text-anchor="middle" x="249.5" y="-12.5" font-family="Helvetica,sans-Serif" font-size="10.00">stdexcept</text>
</a>
</g>
</g>
<!-- Node7&#45;&gt;Node10 -->
<g id="edge9_Node000007_Node000010" class="edge">
<title>Node7&#45;&gt;Node10</title>
<g id="a_edge9_Node000007_Node000010"><a xlink:title=" ">
<path fill="none" stroke="#63b8ff" d="M195.08,-65.77C206.83,-55.02 221.17,-41.91 232.18,-31.84"/>
<polygon fill="#63b8ff" stroke="#63b8ff" points="234.84,-34.15 239.86,-24.82 230.11,-28.99 234.84,-34.15"/>
</a>
</g>
</g>
<!-- Node11 -->
<g id="Node000011" class="node">
<title>Node11</title>
<g id="a_Node000011"><a xlink:title=" ">
<polygon fill="#e0e0e0" stroke="#999999" points="477.5,-24.5 433.5,-24.5 433.5,-5.5 477.5,-5.5 477.5,-24.5"/>
<text text-anchor="middle" x="455.5" y="-12.5" font-family="Helvetica,sans-Serif" font-size="10.00">string</text>
</a>
</g>
</g>
<!-- Node7&#45;&gt;Node11 -->
<g id="edge10_Node000007_Node000011" class="edge">
<title>Node7&#45;&gt;Node11</title>
<g id="a_edge10_Node000007_Node000011"><a xlink:title=" ">
<path fill="none" stroke="#63b8ff" d="M240.62,-68.23C243.62,-67.47 246.59,-66.73 249.5,-66 310.92,-50.67 382.82,-33.36 423.37,-23.66"/>
<polygon fill="#63b8ff" stroke="#63b8ff" points="424.31,-27.04 433.22,-21.31 422.68,-20.23 424.31,-27.04"/>
</a>
</g>
</g>
<!-- Node12 -->
<g id="Node000012" class="node">
<title>Node12</title>
<g id="a_Node000012"><a xlink:title=" ">
<polygon fill="#e0e0e0" stroke="#999999" points="381,-24.5 334,-24.5 334,-5.5 381,-5.5 381,-24.5"/>
<text text-anchor="middle" x="357.5" y="-12.5" font-family="Helvetica,sans-Serif" font-size="10.00">vector</text>
</a>
</g>
</g>
<!-- Node7&#45;&gt;Node12 -->
<g id="edge11_Node000007_Node000012" class="edge">
<title>Node7&#45;&gt;Node12</title>
<g id="a_edge11_Node000007_Node000012"><a xlink:title=" ">
<path fill="none" stroke="#63b8ff" d="M225.24,-65.96C257.43,-53.8 297.81,-38.55 325.43,-28.11"/>
<polygon fill="#63b8ff" stroke="#63b8ff" points="326.87,-31.31 334.99,-24.5 324.4,-24.76 326.87,-31.31"/>
</a>
</g>
</g>
<!-- Node14 -->
<g id="Node000014" class="node">
<title>Node14</title>
<g id="a_Node000014"><a xlink:href="GameButtons_8h.html" target="_top" xlink:title=" ">
<polygon fill="white" stroke="#666666" points="1329.5,-30 1193.5,-30 1193.5,0 1329.5,0 1329.5,-30"/>
<text text-anchor="start" x="1201.5" y="-18" font-family="Helvetica,sans-Serif" font-size="10.00">../../VGP_Data_Exchange</text>
<text text-anchor="middle" x="1261.5" y="-7" font-family="Helvetica,sans-Serif" font-size="10.00">/C/GameButtons.h</text>
</a>
</g>
</g>
<!-- Node13&#45;&gt;Node14 -->
<g id="edge13_Node000013_Node000014" class="edge">
<title>Node13&#45;&gt;Node14</title>
<g id="a_edge13_Node000013_Node000014"><a xlink:title=" ">
<path fill="none" stroke="#63b8ff" d="M1060.22,-214.05C1138.74,-200.83 1275.98,-177.22 1279.5,-173 1311.16,-135.02 1289.32,-72.71 1273.62,-39.15"/>
<polygon fill="#63b8ff" stroke="#63b8ff" points="1276.74,-37.55 1269.21,-30.1 1270.45,-40.62 1276.74,-37.55"/>
</a>
</g>
</g>
<!-- Node15 -->
<g id="Node000015" class="node">
<title>Node15</title>
<g id="a_Node000015"><a xlink:href="input__types_8hpp.html" target="_top" xlink:title=" ">
<polygon fill="white" stroke="#666666" points="1156,-96 1061,-96 1061,-77 1156,-77 1156,-96"/>
<text text-anchor="middle" x="1108.5" y="-84" font-family="Helvetica,sans-Serif" font-size="10.00">input_types.hpp</text>
</a>
</g>
</g>
<!-- Node13&#45;&gt;Node15 -->
<g id="edge14_Node000013_Node000015" class="edge">
<title>Node13&#45;&gt;Node15</title>
<g id="a_edge14_Node000013_Node000015"><a xlink:title=" ">
<path fill="none" stroke="#63b8ff" d="M1012.4,-208.89C1019.73,-192.23 1033.28,-164.14 1049.5,-143 1061.19,-127.77 1077.18,-113 1089.57,-102.54"/>
<polygon fill="#63b8ff" stroke="#63b8ff" points="1091.99,-105.08 1097.48,-96.02 1087.53,-99.68 1091.99,-105.08"/>
</a>
</g>
</g>
<!-- Node18 -->
<g id="Node000018" class="node">
<title>Node18</title>
<g id="a_Node000018"><a xlink:href="keymap__profile_8hpp.html" target="_top" xlink:title=" ">
<polygon fill="white" stroke="#666666" points="959,-167.5 846,-167.5 846,-148.5 959,-148.5 959,-167.5"/>
<text text-anchor="middle" x="902.5" y="-155.5" font-family="Helvetica,sans-Serif" font-size="10.00">keymap_profile.hpp</text>
</a>
</g>
</g>
<!-- Node13&#45;&gt;Node18 -->
<g id="edge18_Node000013_Node000018" class="edge">
<title>Node13&#45;&gt;Node18</title>
<g id="a_edge18_Node000013_Node000018"><a xlink:title=" ">
<path fill="none" stroke="#63b8ff" d="M983.68,-208.95C966.32,-198.27 942.56,-183.65 925.23,-172.98"/>
<polygon fill="#63b8ff" stroke="#63b8ff" points="926.69,-169.78 916.34,-167.52 923.02,-175.74 926.69,-169.78"/>
</a>
</g>
</g>
<!-- Node20 -->
<g id="Node000020" class="node">
<title>Node20</title>
<g id="a_Node000020"><a xlink:title=" ">
<polygon fill="#e0e0e0" stroke="#999999" points="792.5,-96 736.5,-96 736.5,-77 792.5,-77 792.5,-96"/>
<text text-anchor="middle" x="764.5" y="-84" font-family="Helvetica,sans-Serif" font-size="10.00">QObject</text>
</a>
</g>
</g>
<!-- Node13&#45;&gt;Node20 -->
<g id="edge29_Node000013_Node000020" class="edge">
<title>Node13&#45;&gt;Node20</title>
<g id="a_edge29_Node000013_Node000020"><a xlink:title=" ">
<path fill="none" stroke="#63b8ff" d="M952.6,-217.96C914.02,-212.16 862.41,-199.69 824.5,-173 799.87,-155.65 781.94,-124.81 772.38,-105.3"/>
<polygon fill="#63b8ff" stroke="#63b8ff" points="775.45,-103.6 768.05,-96.02 769.11,-106.56 775.45,-103.6"/>
</a>
</g>
</g>
<!-- Node21 -->
<g id="Node000021" class="node">
<title>Node21</title>
<g id="a_Node000021"><a xlink:title=" ">
<polygon fill="#e0e0e0" stroke="#999999" points="874.5,-96 810.5,-96 810.5,-77 874.5,-77 874.5,-96"/>
<text text-anchor="middle" x="842.5" y="-84" font-family="Helvetica,sans-Serif" font-size="10.00">QSettings</text>
</a>
</g>
</g>
<!-- Node13&#45;&gt;Node21 -->
<g id="edge30_Node000013_Node000021" class="edge">
<title>Node13&#45;&gt;Node21</title>
<g id="a_edge30_Node000013_Node000021"><a xlink:title=" ">
<path fill="none" stroke="#63b8ff" d="M952.81,-214.26C908.76,-205.86 851.46,-191.69 837.5,-173 823,-153.59 828.98,-124.25 835.25,-105.49"/>
<polygon fill="#63b8ff" stroke="#63b8ff" points="838.55,-106.64 838.72,-96.05 831.99,-104.22 838.55,-106.64"/>
</a>
</g>
</g>
<!-- Node22 -->
<g id="Node000022" class="node">
<title>Node22</title>
<g id="a_Node000022"><a xlink:title=" ">
<polygon fill="#e0e0e0" stroke="#999999" points="1043,-96 990,-96 990,-77 1043,-77 1043,-96"/>
<text text-anchor="middle" x="1016.5" y="-84" font-family="Helvetica,sans-Serif" font-size="10.00">QString</text>
</a>
</g>
</g>
<!-- Node13&#45;&gt;Node22 -->
<g id="edge31_Node000013_Node000022" class="edge">
<title>Node13&#45;&gt;Node22</title>
<g id="a_edge31_Node000013_Node000022"><a xlink:title=" ">
<path fill="none" stroke="#63b8ff" d="M1007.27,-208.83C1008.16,-192.83 1009.74,-166.03 1011.5,-143 1012.43,-130.82 1013.66,-117.14 1014.67,-106.42"/>
<polygon fill="#63b8ff" stroke="#63b8ff" points="1018.18,-106.43 1015.65,-96.15 1011.21,-105.77 1018.18,-106.43"/>
</a>
</g>
</g>
<!-- Node23 -->
<g id="Node000023" class="node">
<title>Node23</title>
<g id="a_Node000023"><a xlink:title=" ">
<polygon fill="#e0e0e0" stroke="#999999" points="1212.5,-96 1174.5,-96 1174.5,-77 1212.5,-77 1212.5,-96"/>
<text text-anchor="middle" x="1193.5" y="-84" font-family="Helvetica,sans-Serif" font-size="10.00">map</text>
</a>
</g>
</g>
<!-- Node13&#45;&gt;Node23 -->
<g id="edge33_Node000013_Node000023" class="edge">
<title>Node13&#45;&gt;Node23</title>
<g id="a_edge33_Node000013_Node000023"><a xlink:title=" ">
<path fill="none" stroke="#63b8ff" d="M1018.59,-208.98C1036.18,-188.81 1068.29,-152.93 1082.5,-143 1115.45,-119.96 1130.38,-126.59 1165.5,-107 1168.31,-105.43 1171.18,-103.66 1173.97,-101.83"/>
<polygon fill="#63b8ff" stroke="#63b8ff" points="1176.16,-104.57 1182.39,-96 1172.17,-98.81 1176.16,-104.57"/>
</a>
</g>
</g>
<!-- Node24 -->
<g id="Node000024" class="node">
<title>Node24</title>
<g id="a_Node000024"><a xlink:title=" ">
<polygon fill="#e0e0e0" stroke="#999999" points="1129.5,-167.5 1091.5,-167.5 1091.5,-148.5 1129.5,-148.5 1129.5,-167.5"/>
<text text-anchor="middle" x="1110.5" y="-155.5" font-family="Helvetica,sans-Serif" font-size="10.00">QDir</text>
</a>
</g>
</g>
<!-- Node13&#45;&gt;Node24 -->
<g id="edge26_Node000013_Node000024" class="edge">
<title>Node13&#45;&gt;Node24</title>
<g id="a_edge26_Node000013_Node000024"><a xlink:title=" ">
<path fill="none" stroke="#63b8ff" d="M1029.32,-208.95C1046.68,-198.27 1070.44,-183.65 1087.77,-172.98"/>
<polygon fill="#63b8ff" stroke="#63b8ff" points="1089.98,-175.74 1096.66,-167.52 1086.31,-169.78 1089.98,-175.74"/>
</a>
</g>
</g>
<!-- Node13&#45;&gt;Node25 -->
<g id="edge27_Node000013_Node000025" class="edge">
<title>Node13&#45;&gt;Node25</title>
<g id="a_edge27_Node000013_Node000025"><a xlink:title=" ">
<path fill="none" stroke="#63b8ff" d="M1060.27,-211.66C1065.08,-210.72 1069.87,-209.83 1074.5,-209 1179.82,-190.21 1209.26,-201.05 1312.5,-173 1314.66,-172.41 1316.86,-171.74 1319.06,-171"/>
<polygon fill="#63b8ff" stroke="#63b8ff" points="1320.34,-174.26 1328.52,-167.52 1317.92,-167.69 1320.34,-174.26"/>
</a>
</g>
</g>
<!-- Node26 -->
<g id="Node000026" class="node">
<title>Node26</title>
<g id="a_Node000026"><a xlink:title=" ">
<polygon fill="#e0e0e0" stroke="#999999" points="1193,-167.5 1148,-167.5 1148,-148.5 1193,-148.5 1193,-167.5"/>
<text text-anchor="middle" x="1170.5" y="-155.5" font-family="Helvetica,sans-Serif" font-size="10.00">QMap</text>
</a>
</g>
</g>
<!-- Node13&#45;&gt;Node26 -->
<g id="edge28_Node000013_Node000026" class="edge">
<title>Node13&#45;&gt;Node26</title>
<g id="a_edge28_Node000013_Node000026"><a xlink:title=" ">
<path fill="none" stroke="#63b8ff" d="M1045.11,-208.96C1071.54,-199.2 1107.3,-185.72 1138.5,-173 1139.67,-172.52 1140.86,-172.03 1142.06,-171.53"/>
<polygon fill="#63b8ff" stroke="#63b8ff" points="1143.45,-174.74 1151.28,-167.6 1140.7,-168.3 1143.45,-174.74"/>
</a>
</g>
</g>
<!-- Node27 -->
<g id="Node000027" class="node">
<title>Node27</title>
<g id="a_Node000027"><a xlink:title=" ">
<polygon fill="#e0e0e0" stroke="#999999" points="1270,-167.5 1211,-167.5 1211,-148.5 1270,-148.5 1270,-167.5"/>
<text text-anchor="middle" x="1240.5" y="-155.5" font-family="Helvetica,sans-Serif" font-size="10.00">QVariant</text>
</a>
</g>
</g>
<!-- Node13&#45;&gt;Node27 -->
<g id="edge32_Node000013_Node000027" class="edge">
<title>Node13&#45;&gt;Node27</title>
<g id="a_edge32_Node000013_Node000027"><a xlink:title=" ">
<path fill="none" stroke="#63b8ff" d="M1060.16,-210.89C1099.78,-201.57 1154.88,-187.8 1202.5,-173 1204.63,-172.34 1206.81,-171.63 1209,-170.89"/>
<polygon fill="#63b8ff" stroke="#63b8ff" points="1210.26,-174.15 1218.53,-167.53 1207.93,-167.55 1210.26,-174.15"/>
</a>
</g>
</g>
<!-- Node28 -->
<g id="Node000028" class="node">
<title>Node28</title>
<g id="a_Node000028"><a xlink:title=" ">
<polygon fill="#e0e0e0" stroke="#999999" points="669.5,-24.5 601.5,-24.5 601.5,-5.5 669.5,-5.5 669.5,-24.5"/>
<text text-anchor="middle" x="635.5" y="-12.5" font-family="Helvetica,sans-Serif" font-size="10.00">windows.h</text>
</a>
</g>
</g>
<!-- Node13&#45;&gt;Node28 -->
<g id="edge34_Node000013_Node000028" class="edge">
<title>Node13&#45;&gt;Node28</title>
<g id="a_edge34_Node000013_Node000028"><a xlink:title=" ">
<path fill="none" stroke="#63b8ff" d="M952.63,-218.99C907.19,-213.68 841.7,-201.39 791.5,-173 734.31,-140.66 735.97,-112.45 689.5,-66 677.55,-54.05 663.53,-41.1 652.77,-31.37"/>
<polygon fill="#63b8ff" stroke="#63b8ff" points="655.05,-28.71 645.27,-24.63 650.37,-33.92 655.05,-28.71"/>
</a>
</g>
</g>
<!-- Node15&#45;&gt;Node14 -->
<g id="edge15_Node000015_Node000014" class="edge">
<title>Node15&#45;&gt;Node14</title>
<g id="a_edge15_Node000015_Node000014"><a xlink:title=" ">
<path fill="none" stroke="#63b8ff" d="M1127.26,-76.98C1150.52,-66.41 1190.8,-48.12 1221.18,-34.31"/>
<polygon fill="#63b8ff" stroke="#63b8ff" points="1223.01,-37.33 1230.66,-30.01 1220.11,-30.96 1223.01,-37.33"/>
</a>
</g>
</g>
<!-- Node16 -->
<g id="Node000016" class="node">
<title>Node16</title>
<g id="a_Node000016"><a xlink:title=" ">
<polygon fill="#e0e0e0" stroke="#999999" points="1001,-24.5 924,-24.5 924,-5.5 1001,-5.5 1001,-24.5"/>
<text text-anchor="middle" x="962.5" y="-12.5" font-family="Helvetica,sans-Serif" font-size="10.00">minwindef.h</text>
</a>
</g>
</g>
<!-- Node15&#45;&gt;Node16 -->
<g id="edge16_Node000015_Node000016" class="edge">
<title>Node15&#45;&gt;Node16</title>
<g id="a_edge16_Node000015_Node000016"><a xlink:title=" ">
<path fill="none" stroke="#63b8ff" d="M1090.6,-76.98C1065.42,-64.99 1019.34,-43.06 989.86,-29.02"/>
<polygon fill="#63b8ff" stroke="#63b8ff" points="991.08,-25.73 980.55,-24.59 988.07,-32.05 991.08,-25.73"/>
</a>
</g>
</g>
<!-- Node17 -->
<g id="Node000017" class="node">
<title>Node17</title>
<g id="a_Node000017"><a xlink:title=" ">
<polygon fill="#e0e0e0" stroke="#999999" points="1138,-24.5 1079,-24.5 1079,-5.5 1138,-5.5 1138,-24.5"/>
<text text-anchor="middle" x="1108.5" y="-12.5" font-family="Helvetica,sans-Serif" font-size="10.00">qtypes.h</text>
</a>
</g>
</g>
<!-- Node15&#45;&gt;Node17 -->
<g id="edge17_Node000015_Node000017" class="edge">
<title>Node15&#45;&gt;Node17</title>
<g id="a_edge17_Node000015_Node000017"><a xlink:title=" ">
<path fill="none" stroke="#63b8ff" d="M1108.5,-76.98C1108.5,-66.56 1108.5,-48.61 1108.5,-34.88"/>
<polygon fill="#63b8ff" stroke="#63b8ff" points="1112,-34.59 1108.5,-24.59 1105,-34.59 1112,-34.59"/>
</a>
</g>
</g>
<!-- Node18&#45;&gt;Node15 -->
<g id="edge19_Node000018_Node000015" class="edge">
<title>Node18&#45;&gt;Node15</title>
<g id="a_edge19_Node000018_Node000015"><a xlink:title=" ">
<path fill="none" stroke="#63b8ff" d="M928.55,-148.43C958.5,-138.56 1009.11,-121.79 1052.5,-107 1059.67,-104.56 1067.34,-101.91 1074.64,-99.37"/>
<polygon fill="#63b8ff" stroke="#63b8ff" points="1075.98,-102.61 1084.27,-96.02 1073.67,-96 1075.98,-102.61"/>
</a>
</g>
</g>
<!-- Node18&#45;&gt;Node16 -->
<g id="edge25_Node000018_Node000016" class="edge">
<title>Node18&#45;&gt;Node16</title>
<g id="a_edge25_Node000018_Node000016"><a xlink:title=" ">
<path fill="none" stroke="#63b8ff" d="M903.09,-148.3C904.51,-131.59 909.05,-94.17 922.5,-66 928.44,-53.56 938.02,-41.44 946.31,-32.24"/>
<polygon fill="#63b8ff" stroke="#63b8ff" points="949.11,-34.38 953.42,-24.7 944.01,-29.57 949.11,-34.38"/>
</a>
</g>
</g>
<!-- Node19 -->
<g id="Node000019" class="node">
<title>Node19</title>
<g id="a_Node000019"><a xlink:title=" ">
<polygon fill="#e0e0e0" stroke="#999999" points="972,-96 931,-96 931,-77 972,-77 972,-96"/>
<text text-anchor="middle" x="951.5" y="-84" font-family="Helvetica,sans-Serif" font-size="10.00">QFile</text>
</a>
</g>
</g>
<!-- Node18&#45;&gt;Node19 -->
<g id="edge20_Node000018_Node000019" class="edge">
<title>Node18&#45;&gt;Node19</title>
<g id="a_edge20_Node000018_Node000019"><a xlink:title=" ">
<path fill="none" stroke="#63b8ff" d="M908.51,-148.48C916.22,-137.54 929.79,-118.3 939.62,-104.35"/>
<polygon fill="#63b8ff" stroke="#63b8ff" points="942.54,-106.28 945.44,-96.09 936.82,-102.25 942.54,-106.28"/>
</a>
</g>
</g>
<!-- Node18&#45;&gt;Node20 -->
<g id="edge21_Node000018_Node000020" class="edge">
<title>Node18&#45;&gt;Node20</title>
<g id="a_edge21_Node000018_Node000020"><a xlink:title=" ">
<path fill="none" stroke="#63b8ff" d="M884.92,-148.46C864.71,-138.61 830.6,-121.87 801.5,-107 797.64,-105.03 793.58,-102.92 789.61,-100.84"/>
<polygon fill="#63b8ff" stroke="#63b8ff" points="791.14,-97.69 780.66,-96.13 787.88,-103.89 791.14,-97.69"/>
</a>
</g>
</g>
<!-- Node18&#45;&gt;Node21 -->
<g id="edge22_Node000018_Node000021" class="edge">
<title>Node18&#45;&gt;Node21</title>
<g id="a_edge22_Node000018_Node000021"><a xlink:title=" ">
<path fill="none" stroke="#63b8ff" d="M895.14,-148.48C885.61,-137.43 868.77,-117.93 856.71,-103.96"/>
<polygon fill="#63b8ff" stroke="#63b8ff" points="859.1,-101.37 849.92,-96.09 853.8,-105.95 859.1,-101.37"/>
</a>
</g>
</g>
<!-- Node18&#45;&gt;Node22 -->
<g id="edge23_Node000018_Node000022" class="edge">
<title>Node18&#45;&gt;Node22</title>
<g id="a_edge23_Node000018_Node000022"><a xlink:title=" ">
<path fill="none" stroke="#63b8ff" d="M916.48,-148.48C935.71,-136.75 970.56,-115.51 993.62,-101.45"/>
<polygon fill="#63b8ff" stroke="#63b8ff" points="995.69,-104.29 1002.41,-96.09 992.05,-98.31 995.69,-104.29"/>
</a>
</g>
</g>
<!-- Node18&#45;&gt;Node23 -->
<g id="edge24_Node000018_Node000023" class="edge">
<title>Node18&#45;&gt;Node23</title>
<g id="a_edge24_Node000018_Node000023"><a xlink:title=" ">
<path fill="none" stroke="#63b8ff" d="M959.12,-153.12C1013.76,-147.8 1097.92,-135.42 1165.5,-107 1168.82,-105.6 1172.15,-103.77 1175.29,-101.78"/>
<polygon fill="#63b8ff" stroke="#63b8ff" points="1177.31,-104.64 1183.48,-96.03 1173.28,-98.91 1177.31,-104.64"/>
</a>
</g>
</g>
<!-- Node30 -->
<g id="Node000030" class="node">
<title>Node30</title>
<g id="a_Node000030"><a xlink:href="Colfer_8h.html" target="_top" xlink:title=" ">
<polygon fill="white" stroke="#666666" points="495.5,-173 359.5,-173 359.5,-143 495.5,-143 495.5,-173"/>
<text text-anchor="start" x="367.5" y="-161" font-family="Helvetica,sans-Serif" font-size="10.00">../../VGP_Data_Exchange</text>
<text text-anchor="middle" x="427.5" y="-150" font-family="Helvetica,sans-Serif" font-size="10.00">/C/Colfer.h</text>
</a>
</g>
</g>
<!-- Node29&#45;&gt;Node30 -->
<g id="edge36_Node000029_Node000030" class="edge">
<title>Node29&#45;&gt;Node30</title>
<g id="a_edge36_Node000029_Node000030"><a xlink:title=" ">
<path fill="none" stroke="#63b8ff" d="M574.57,-214.37C549.11,-204.78 507.31,-189.05 474.77,-176.8"/>
<polygon fill="#63b8ff" stroke="#63b8ff" points="475.59,-173.36 464.99,-173.12 473.12,-179.91 475.59,-173.36"/>
</a>
</g>
</g>
<!-- Node34 -->
<g id="Node000034" class="node">
<title>Node34</title>
<g id="a_Node000034"><a xlink:href="simulate_8hpp.html" target="_top" xlink:title=" ">
<polygon fill="white" stroke="#666666" points="669.5,-167.5 525.5,-167.5 525.5,-148.5 669.5,-148.5 669.5,-167.5"/>
<text text-anchor="middle" x="597.5" y="-155.5" font-family="Helvetica,sans-Serif" font-size="10.00">../simulation/simulate.hpp</text>
</a>
</g>
</g>
<!-- Node29&#45;&gt;Node34 -->
<g id="edge40_Node000029_Node000034" class="edge">
<title>Node29&#45;&gt;Node34</title>
<g id="a_edge40_Node000029_Node000034"><a xlink:title=" ">
<path fill="none" stroke="#63b8ff" d="M597.5,-214.37C597.5,-205.16 597.5,-190.29 597.5,-178.27"/>
<polygon fill="#63b8ff" stroke="#63b8ff" points="601,-177.91 597.5,-167.91 594,-177.91 601,-177.91"/>
</a>
</g>
</g>
<!-- Node31 -->
<g id="Node000031" class="node">
<title>Node31</title>
<g id="a_Node000031"><a xlink:title=" ">
<polygon fill="#e0e0e0" stroke="#999999" points="383,-96 330,-96 330,-77 383,-77 383,-96"/>
<text text-anchor="middle" x="356.5" y="-84" font-family="Helvetica,sans-Serif" font-size="10.00">limits.h</text>
</a>
</g>
</g>
<!-- Node30&#45;&gt;Node31 -->
<g id="edge37_Node000030_Node000031" class="edge">
<title>Node30&#45;&gt;Node31</title>
<g id="a_edge37_Node000030_Node000031"><a xlink:title=" ">
<path fill="none" stroke="#63b8ff" d="M413.13,-142.94C401.43,-131.48 384.92,-115.32 372.74,-103.4"/>
<polygon fill="#63b8ff" stroke="#63b8ff" points="375.05,-100.76 365.46,-96.27 370.15,-105.76 375.05,-100.76"/>
</a>
</g>
</g>
<!-- Node32 -->
<g id="Node000032" class="node">
<title>Node32</title>
<g id="a_Node000032"><a xlink:title=" ">
<polygon fill="#e0e0e0" stroke="#999999" points="454,-96 401,-96 401,-77 454,-77 454,-96"/>
<text text-anchor="middle" x="427.5" y="-84" font-family="Helvetica,sans-Serif" font-size="10.00">stdint.h</text>
</a>
</g>
</g>
<!-- Node30&#45;&gt;Node32 -->
<g id="edge38_Node000030_Node000032" class="edge">
<title>Node30&#45;&gt;Node32</title>
<g id="a_edge38_Node000030_Node000032"><a xlink:title=" ">
<path fill="none" stroke="#63b8ff" d="M427.5,-142.94C427.5,-132.46 427.5,-118.05 427.5,-106.55"/>
<polygon fill="#63b8ff" stroke="#63b8ff" points="431,-106.27 427.5,-96.27 424,-106.27 431,-106.27"/>
</a>
</g>
</g>
<!-- Node33 -->
<g id="Node000033" class="node">
<title>Node33</title>
<g id="a_Node000033"><a xlink:title=" ">
<polygon fill="#e0e0e0" stroke="#999999" points="312,-96 259,-96 259,-77 312,-77 312,-96"/>
<text text-anchor="middle" x="285.5" y="-84" font-family="Helvetica,sans-Serif" font-size="10.00">string.h</text>
</a>
</g>
</g>
<!-- Node30&#45;&gt;Node33 -->
<g id="edge39_Node000030_Node000033" class="edge">
<title>Node30&#45;&gt;Node33</title>
<g id="a_edge39_Node000030_Node000033"><a xlink:title=" ">
<path fill="none" stroke="#63b8ff" d="M396.2,-142.79C374.98,-133.02 346.37,-119.59 321.5,-107 317.65,-105.05 313.6,-102.93 309.66,-100.82"/>
<polygon fill="#63b8ff" stroke="#63b8ff" points="311.28,-97.72 300.82,-96.04 307.95,-103.88 311.28,-97.72"/>
</a>
</g>
</g>
<!-- Node35 -->
<g id="Node000035" class="node">
<title>Node35</title>
<g id="a_Node000035"><a xlink:href="keyboardSim_8hpp.html" target="_top" xlink:title="Simulates keyboard input in Windows.">
<polygon fill="white" stroke="#666666" points="573,-96 472,-96 472,-77 573,-77 573,-96"/>
<text text-anchor="middle" x="522.5" y="-84" font-family="Helvetica,sans-Serif" font-size="10.00">keyboardSim.hpp</text>
</a>
</g>
</g>
<!-- Node34&#45;&gt;Node35 -->
<g id="edge41_Node000034_Node000035" class="edge">
<title>Node34&#45;&gt;Node35</title>
<g id="a_edge41_Node000034_Node000035"><a xlink:title=" ">
<path fill="none" stroke="#63b8ff" d="M588.3,-148.48C576.16,-137.22 554.54,-117.19 539.41,-103.17"/>
<polygon fill="#63b8ff" stroke="#63b8ff" points="541.49,-100.32 531.77,-96.09 536.73,-105.46 541.49,-100.32"/>
</a>
</g>
</g>
<!-- Node36 -->
<g id="Node000036" class="node">
<title>Node36</title>
<g id="a_Node000036"><a xlink:href="mouseSim_8hpp.html" target="_top" xlink:title="Simulates mouse input in Windows.">
<polygon fill="white" stroke="#666666" points="680,-96 591,-96 591,-77 680,-77 680,-96"/>
<text text-anchor="middle" x="635.5" y="-84" font-family="Helvetica,sans-Serif" font-size="10.00">mouseSim.hpp</text>
</a>
</g>
</g>
<!-- Node34&#45;&gt;Node36 -->
<g id="edge45_Node000034_Node000036" class="edge">
<title>Node34&#45;&gt;Node36</title>
<g id="a_edge45_Node000034_Node000036"><a xlink:title=" ">
<path fill="none" stroke="#63b8ff" d="M602.16,-148.48C608.03,-137.74 618.26,-119.03 625.85,-105.16"/>
<polygon fill="#63b8ff" stroke="#63b8ff" points="629.08,-106.55 630.8,-96.09 622.93,-103.19 629.08,-106.55"/>
</a>
</g>
</g>
<!-- Node35&#45;&gt;Node11 -->
<g id="edge42_Node000035_Node000011" class="edge">
<title>Node35&#45;&gt;Node11</title>
<g id="a_edge42_Node000035_Node000011"><a xlink:title=" ">
<path fill="none" stroke="#63b8ff" d="M514.28,-76.98C503.54,-65.83 484.48,-46.06 470.98,-32.06"/>
<polygon fill="#63b8ff" stroke="#63b8ff" points="473.24,-29.36 463.78,-24.59 468.2,-34.22 473.24,-29.36"/>
</a>
</g>
</g>
<!-- Node35&#45;&gt;Node12 -->
<g id="edge43_Node000035_Node000012" class="edge">
<title>Node35&#45;&gt;Node12</title>
<g id="a_edge43_Node000035_Node000012"><a xlink:title=" ">
<path fill="none" stroke="#63b8ff" d="M502.27,-76.98C473.44,-64.84 420.38,-42.49 387.12,-28.48"/>
<polygon fill="#63b8ff" stroke="#63b8ff" points="388.47,-25.25 377.9,-24.59 385.75,-31.7 388.47,-25.25"/>
</a>
</g>
</g>
<!-- Node35&#45;&gt;Node28 -->
<g id="edge44_Node000035_Node000028" class="edge">
<title>Node35&#45;&gt;Node28</title>
<g id="a_edge44_Node000035_Node000028"><a xlink:title=" ">
<path fill="none" stroke="#63b8ff" d="M536.36,-76.98C555.42,-65.25 589.96,-44.01 612.82,-29.95"/>
<polygon fill="#63b8ff" stroke="#63b8ff" points="614.85,-32.81 621.53,-24.59 611.18,-26.85 614.85,-32.81"/>
</a>
</g>
</g>
<!-- Node36&#45;&gt;Node28 -->
<g id="edge46_Node000036_Node000028" class="edge">
<title>Node36&#45;&gt;Node28</title>
<g id="a_edge46_Node000036_Node000028"><a xlink:title=" ">
<path fill="none" stroke="#63b8ff" d="M635.5,-76.98C635.5,-66.56 635.5,-48.61 635.5,-34.88"/>
<polygon fill="#63b8ff" stroke="#63b8ff" points="639,-34.59 635.5,-24.59 632,-34.59 639,-34.59"/>
</a>
</g>
</g>
</g>
</svg>
