<?xml version="1.0" encoding="UTF-8" standalone="no"?>
<!DOCTYPE svg PUBLIC "-//W3C//DTD SVG 1.1//EN"
 "http://www.w3.org/Graphics/SVG/1.1/DTD/svg11.dtd">
<!-- Generated by graphviz version 2.43.0 (0)
 -->
<!-- Title: src/networking/server.cpp Pages: 1 -->
<svg width="1561pt" height="280pt"
 viewBox="0.00 0.00 1561.00 280.00" xmlns="http://www.w3.org/2000/svg" xmlns:xlink="http://www.w3.org/1999/xlink">
<g id="graph0" class="graph" transform="scale(1 1) rotate(0) translate(4 276)">
<title>src/networking/server.cpp</title>
<!-- Node1 -->
<g id="Node000001" class="node">
<title>Node1</title>
<g id="a_Node000001"><a xlink:title=" ">
<polygon fill="#999999" stroke="#666666" points="1062,-272 920,-272 920,-253 1062,-253 1062,-272"/>
<text text-anchor="middle" x="991" y="-260" font-family="Helvetica,sans-Serif" font-size="10.00">src/networking/server.cpp</text>
</a>
</g>
</g>
<!-- Node2 -->
<g id="Node000002" class="node">
<title>Node2</title>
<g id="a_Node000002"><a xlink:href="server_8hpp.html" target="_top" xlink:title=" ">
<polygon fill="white" stroke="#666666" points="189,-217 121,-217 121,-198 189,-198 189,-217"/>
<text text-anchor="middle" x="155" y="-205" font-family="Helvetica,sans-Serif" font-size="10.00">server.hpp</text>
</a>
</g>
</g>
<!-- Node1&#45;&gt;Node2 -->
<g id="edge1_Node000001_Node000002" class="edge">
<title>Node1&#45;&gt;Node2</title>
<g id="a_edge1_Node000001_Node000002"><a xlink:title=" ">
<path fill="none" stroke="#63b8ff" d="M919.72,-256.98C751.94,-246.34 335.91,-219.97 199.27,-211.31"/>
<polygon fill="#63b8ff" stroke="#63b8ff" points="199.37,-207.81 189.17,-210.67 198.93,-214.79 199.37,-207.81"/>
</a>
</g>
</g>
<!-- Node6 -->
<g id="Node000006" class="node">
<title>Node6</title>
<g id="a_Node000006"><a xlink:href="executor_8hpp.html" target="_top" xlink:title=" ">
<polygon fill="white" stroke="#666666" points="673.5,-217 594.5,-217 594.5,-198 673.5,-198 673.5,-217"/>
<text text-anchor="middle" x="634" y="-205" font-family="Helvetica,sans-Serif" font-size="10.00">executor.hpp</text>
</a>
</g>
</g>
<!-- Node1&#45;&gt;Node6 -->
<g id="edge5_Node000001_Node000006" class="edge">
<title>Node1&#45;&gt;Node6</title>
<g id="a_edge5_Node000001_Node000006"><a xlink:title=" ">
<path fill="none" stroke="#63b8ff" d="M933.64,-252.98C864.42,-242.71 749.17,-225.6 683.61,-215.87"/>
<polygon fill="#63b8ff" stroke="#63b8ff" points="683.94,-212.38 673.53,-214.37 682.91,-219.3 683.94,-212.38"/>
</a>
</g>
</g>
<!-- Node7 -->
<g id="Node000007" class="node">
<title>Node7</title>
<g id="a_Node000007"><a xlink:href="Colfer_8h.html" target="_top" xlink:title=" ">
<polygon fill="white" stroke="#666666" points="390,-162 254,-162 254,-132 390,-132 390,-162"/>
<text text-anchor="start" x="262" y="-150" font-family="Helvetica,sans-Serif" font-size="10.00">../../VGP_Data_Exchange</text>
<text text-anchor="middle" x="322" y="-139" font-family="Helvetica,sans-Serif" font-size="10.00">/C/Colfer.h</text>
</a>
</g>
</g>
<!-- Node1&#45;&gt;Node7 -->
<g id="edge20_Node000001_Node000007" class="edge">
<title>Node1&#45;&gt;Node7</title>
<g id="a_edge20_Node000001_Node000007"><a xlink:title=" ">
<path fill="none" stroke="#63b8ff" d="M919.76,-256.89C838.33,-250.87 701.27,-238.5 585,-217 512.18,-203.53 429.83,-180.66 376.99,-164.96"/>
<polygon fill="#63b8ff" stroke="#63b8ff" points="377.74,-161.53 367.15,-162.02 375.73,-168.24 377.74,-161.53"/>
</a>
</g>
</g>
<!-- Node19 -->
<g id="Node000019" class="node">
<title>Node19</title>
<g id="a_Node000019"><a xlink:title=" ">
<polygon fill="#e0e0e0" stroke="#999999" points="888,-217 818,-217 818,-198 888,-198 888,-217"/>
<text text-anchor="middle" x="853" y="-205" font-family="Helvetica,sans-Serif" font-size="10.00">ui_server.h</text>
</a>
</g>
</g>
<!-- Node1&#45;&gt;Node19 -->
<g id="edge19_Node000001_Node000019" class="edge">
<title>Node1&#45;&gt;Node19</title>
<g id="a_edge19_Node000001_Node000019"><a xlink:title=" ">
<path fill="none" stroke="#63b8ff" d="M968.83,-252.98C946.23,-244.3 910.94,-230.75 885.25,-220.88"/>
<polygon fill="#63b8ff" stroke="#63b8ff" points="886.17,-217.49 875.58,-217.17 883.66,-224.02 886.17,-217.49"/>
</a>
</g>
</g>
<!-- Node20 -->
<g id="Node000020" class="node">
<title>Node20</title>
<g id="a_Node000020"><a xlink:href="qrcodegen_8hpp.html" target="_top" xlink:title=" ">
<polygon fill="white" stroke="#666666" points="857,-96 723,-96 723,-55 857,-55 857,-96"/>
<text text-anchor="start" x="731" y="-84" font-family="Helvetica,sans-Serif" font-size="10.00">../../third&#45;party&#45;libs</text>
<text text-anchor="start" x="731" y="-73" font-family="Helvetica,sans-Serif" font-size="10.00">/QR&#45;Code&#45;generator/cpp</text>
<text text-anchor="middle" x="790" y="-62" font-family="Helvetica,sans-Serif" font-size="10.00">/qrcodegen.hpp</text>
</a>
</g>
</g>
<!-- Node1&#45;&gt;Node20 -->
<g id="edge21_Node000001_Node000020" class="edge">
<title>Node1&#45;&gt;Node20</title>
<g id="a_edge21_Node000001_Node000020"><a xlink:title=" ">
<path fill="none" stroke="#63b8ff" d="M923.1,-252.95C877.99,-245.82 824.34,-234.05 809,-217 781.93,-186.92 781.79,-137.52 785.16,-106.03"/>
<polygon fill="#63b8ff" stroke="#63b8ff" points="788.64,-106.45 786.4,-96.09 781.69,-105.58 788.64,-106.45"/>
</a>
</g>
</g>
<!-- Node24 -->
<g id="Node000024" class="node">
<title>Node24</title>
<g id="a_Node000024"><a xlink:title=" ">
<polygon fill="#e0e0e0" stroke="#999999" points="979.5,-217 906.5,-217 906.5,-198 979.5,-198 979.5,-217"/>
<text text-anchor="middle" x="943" y="-205" font-family="Helvetica,sans-Serif" font-size="10.00">QByteArray</text>
</a>
</g>
</g>
<!-- Node1&#45;&gt;Node24 -->
<g id="edge27_Node000001_Node000024" class="edge">
<title>Node1&#45;&gt;Node24</title>
<g id="a_edge27_Node000001_Node000024"><a xlink:title=" ">
<path fill="none" stroke="#63b8ff" d="M983.07,-252.75C976.15,-245.11 965.93,-233.82 957.55,-224.56"/>
<polygon fill="#63b8ff" stroke="#63b8ff" points="960.09,-222.15 950.78,-217.09 954.9,-226.85 960.09,-222.15"/>
</a>
</g>
</g>
<!-- Node25 -->
<g id="Node000025" class="node">
<title>Node25</title>
<g id="a_Node000025"><a xlink:title=" ">
<polygon fill="#e0e0e0" stroke="#999999" points="1080.5,-217 997.5,-217 997.5,-198 1080.5,-198 1080.5,-217"/>
<text text-anchor="middle" x="1039" y="-205" font-family="Helvetica,sans-Serif" font-size="10.00">QDataStream</text>
</a>
</g>
</g>
<!-- Node1&#45;&gt;Node25 -->
<g id="edge28_Node000001_Node000025" class="edge">
<title>Node1&#45;&gt;Node25</title>
<g id="a_edge28_Node000001_Node000025"><a xlink:title=" ">
<path fill="none" stroke="#63b8ff" d="M998.93,-252.75C1005.85,-245.11 1016.07,-233.82 1024.45,-224.56"/>
<polygon fill="#63b8ff" stroke="#63b8ff" points="1027.1,-226.85 1031.22,-217.09 1021.91,-222.15 1027.1,-226.85"/>
</a>
</g>
</g>
<!-- Node26 -->
<g id="Node000026" class="node">
<title>Node26</title>
<g id="a_Node000026"><a xlink:title=" ">
<polygon fill="#e0e0e0" stroke="#999999" points="1185,-217 1099,-217 1099,-198 1185,-198 1185,-217"/>
<text text-anchor="middle" x="1142" y="-205" font-family="Helvetica,sans-Serif" font-size="10.00">QHostAddress</text>
</a>
</g>
</g>
<!-- Node1&#45;&gt;Node26 -->
<g id="edge29_Node000001_Node000026" class="edge">
<title>Node1&#45;&gt;Node26</title>
<g id="a_edge29_Node000001_Node000026"><a xlink:title=" ">
<path fill="none" stroke="#63b8ff" d="M1015.26,-252.98C1040.32,-244.19 1079.63,-230.39 1107.83,-220.49"/>
<polygon fill="#63b8ff" stroke="#63b8ff" points="1109.02,-223.78 1117.3,-217.17 1106.7,-217.18 1109.02,-223.78"/>
</a>
</g>
</g>
<!-- Node27 -->
<g id="Node000027" class="node">
<title>Node27</title>
<g id="a_Node000027"><a xlink:title=" ">
<polygon fill="#e0e0e0" stroke="#999999" points="1244.5,-217 1203.5,-217 1203.5,-198 1244.5,-198 1244.5,-217"/>
<text text-anchor="middle" x="1224" y="-205" font-family="Helvetica,sans-Serif" font-size="10.00">QList</text>
</a>
</g>
</g>
<!-- Node1&#45;&gt;Node27 -->
<g id="edge30_Node000001_Node000027" class="edge">
<title>Node1&#45;&gt;Node27</title>
<g id="a_edge30_Node000001_Node000027"><a xlink:title=" ">
<path fill="none" stroke="#63b8ff" d="M1033.55,-252.95C1072.66,-244.92 1132.43,-232.21 1193.57,-216.98"/>
<polygon fill="#63b8ff" stroke="#63b8ff" points="1194.54,-220.35 1203.39,-214.52 1192.84,-213.56 1194.54,-220.35"/>
</a>
</g>
</g>
<!-- Node28 -->
<g id="Node000028" class="node">
<title>Node28</title>
<g id="a_Node000028"><a xlink:title=" ">
<polygon fill="#e0e0e0" stroke="#999999" points="1349,-217 1263,-217 1263,-198 1349,-198 1349,-217"/>
<text text-anchor="middle" x="1306" y="-205" font-family="Helvetica,sans-Serif" font-size="10.00">QMessageBox</text>
</a>
</g>
</g>
<!-- Node1&#45;&gt;Node28 -->
<g id="edge31_Node000001_Node000028" class="edge">
<title>Node1&#45;&gt;Node28</title>
<g id="a_edge31_Node000001_Node000028"><a xlink:title=" ">
<path fill="none" stroke="#63b8ff" d="M1041.61,-252.98C1099.48,-243.25 1193.8,-227.38 1252.75,-217.46"/>
<polygon fill="#63b8ff" stroke="#63b8ff" points="1253.33,-220.91 1262.61,-215.8 1252.17,-214.01 1253.33,-220.91"/>
</a>
</g>
</g>
<!-- Node29 -->
<g id="Node000029" class="node">
<title>Node29</title>
<g id="a_Node000029"><a xlink:title=" ">
<polygon fill="#e0e0e0" stroke="#999999" points="1476.5,-217 1367.5,-217 1367.5,-198 1476.5,-198 1476.5,-217"/>
<text text-anchor="middle" x="1422" y="-205" font-family="Helvetica,sans-Serif" font-size="10.00">QNetworkInterface</text>
</a>
</g>
</g>
<!-- Node1&#45;&gt;Node29 -->
<g id="edge32_Node000001_Node000029" class="edge">
<title>Node1&#45;&gt;Node29</title>
<g id="a_edge32_Node000001_Node000029"><a xlink:title=" ">
<path fill="none" stroke="#63b8ff" d="M1062.07,-253.13C1133.79,-244.62 1248,-230.92 1357,-217.11"/>
<polygon fill="#63b8ff" stroke="#63b8ff" points="1357.71,-220.55 1367.19,-215.82 1356.83,-213.61 1357.71,-220.55"/>
</a>
</g>
</g>
<!-- Node30 -->
<g id="Node000030" class="node">
<title>Node30</title>
<g id="a_Node000030"><a xlink:title=" ">
<polygon fill="#e0e0e0" stroke="#999999" points="1553,-217 1495,-217 1495,-198 1553,-198 1553,-217"/>
<text text-anchor="middle" x="1524" y="-205" font-family="Helvetica,sans-Serif" font-size="10.00">QThread</text>
</a>
</g>
</g>
<!-- Node1&#45;&gt;Node30 -->
<g id="edge33_Node000001_Node000030" class="edge">
<title>Node1&#45;&gt;Node30</title>
<g id="a_edge33_Node000001_Node000030"><a xlink:title=" ">
<path fill="none" stroke="#63b8ff" d="M1062.26,-258.02C1156.69,-252.75 1328.58,-240.91 1484.38,-217.06"/>
<polygon fill="#63b8ff" stroke="#63b8ff" points="1485.27,-220.46 1494.61,-215.47 1484.2,-213.55 1485.27,-220.46"/>
</a>
</g>
</g>
<!-- Node3 -->
<g id="Node000003" class="node">
<title>Node3</title>
<g id="a_Node000003"><a xlink:title=" ">
<polygon fill="#e0e0e0" stroke="#999999" points="56,-156.5 0,-156.5 0,-137.5 56,-137.5 56,-156.5"/>
<text text-anchor="middle" x="28" y="-144.5" font-family="Helvetica,sans-Serif" font-size="10.00">QDialog</text>
</a>
</g>
</g>
<!-- Node2&#45;&gt;Node3 -->
<g id="edge2_Node000002_Node000003" class="edge">
<title>Node2&#45;&gt;Node3</title>
<g id="a_edge2_Node000002_Node000003"><a xlink:title=" ">
<path fill="none" stroke="#63b8ff" d="M136.53,-197.99C115.28,-188.2 80.15,-172.02 55.63,-160.73"/>
<polygon fill="#63b8ff" stroke="#63b8ff" points="57.04,-157.52 46.49,-156.52 54.11,-163.88 57.04,-157.52"/>
</a>
</g>
</g>
<!-- Node4 -->
<g id="Node000004" class="node">
<title>Node4</title>
<g id="a_Node000004"><a xlink:title=" ">
<polygon fill="#e0e0e0" stroke="#999999" points="145.5,-156.5 74.5,-156.5 74.5,-137.5 145.5,-137.5 145.5,-156.5"/>
<text text-anchor="middle" x="110" y="-144.5" font-family="Helvetica,sans-Serif" font-size="10.00">QTcpServer</text>
</a>
</g>
</g>
<!-- Node2&#45;&gt;Node4 -->
<g id="edge3_Node000002_Node000004" class="edge">
<title>Node2&#45;&gt;Node4</title>
<g id="a_edge3_Node000002_Node000004"><a xlink:title=" ">
<path fill="none" stroke="#63b8ff" d="M148.36,-197.87C141.71,-189.23 131.31,-175.7 123.01,-164.92"/>
<polygon fill="#63b8ff" stroke="#63b8ff" points="125.54,-162.46 116.67,-156.67 119.99,-166.73 125.54,-162.46"/>
</a>
</g>
</g>
<!-- Node5 -->
<g id="Node000005" class="node">
<title>Node5</title>
<g id="a_Node000005"><a xlink:title=" ">
<polygon fill="#e0e0e0" stroke="#999999" points="236,-156.5 164,-156.5 164,-137.5 236,-137.5 236,-156.5"/>
<text text-anchor="middle" x="200" y="-144.5" font-family="Helvetica,sans-Serif" font-size="10.00">QTcpSocket</text>
</a>
</g>
</g>
<!-- Node2&#45;&gt;Node5 -->
<g id="edge4_Node000002_Node000005" class="edge">
<title>Node2&#45;&gt;Node5</title>
<g id="a_edge4_Node000002_Node000005"><a xlink:title=" ">
<path fill="none" stroke="#63b8ff" d="M161.64,-197.87C168.29,-189.23 178.69,-175.7 186.99,-164.92"/>
<polygon fill="#63b8ff" stroke="#63b8ff" points="190.01,-166.73 193.33,-156.67 184.46,-162.46 190.01,-166.73"/>
</a>
</g>
</g>
<!-- Node6&#45;&gt;Node7 -->
<g id="edge6_Node000006_Node000007" class="edge">
<title>Node6&#45;&gt;Node7</title>
<g id="a_edge6_Node000006_Node000007"><a xlink:title=" ">
<path fill="none" stroke="#63b8ff" d="M594.48,-199.09C545.87,-189.98 462.18,-174.28 400.35,-162.69"/>
<polygon fill="#63b8ff" stroke="#63b8ff" points="400.71,-159.2 390.23,-160.79 399.42,-166.08 400.71,-159.2"/>
</a>
</g>
</g>
<!-- Node11 -->
<g id="Node000011" class="node">
<title>Node11</title>
<g id="a_Node000011"><a xlink:href="GameButtons_8h.html" target="_top" xlink:title=" ">
<polygon fill="white" stroke="#666666" points="544,-162 408,-162 408,-132 544,-132 544,-162"/>
<text text-anchor="start" x="416" y="-150" font-family="Helvetica,sans-Serif" font-size="10.00">../../VGP_Data_Exchange</text>
<text text-anchor="middle" x="476" y="-139" font-family="Helvetica,sans-Serif" font-size="10.00">/C/GameButtons.h</text>
</a>
</g>
</g>
<!-- Node6&#45;&gt;Node11 -->
<g id="edge10_Node000006_Node000011" class="edge">
<title>Node6&#45;&gt;Node11</title>
<g id="a_edge10_Node000006_Node000011"><a xlink:title=" ">
<path fill="none" stroke="#63b8ff" d="M611.03,-197.99C588.19,-189.54 552.48,-176.32 523.52,-165.59"/>
<polygon fill="#63b8ff" stroke="#63b8ff" points="524.58,-162.25 513.99,-162.06 522.15,-168.82 524.58,-162.25"/>
</a>
</g>
</g>
<!-- Node12 -->
<g id="Node000012" class="node">
<title>Node12</title>
<g id="a_Node000012"><a xlink:href="simulate_8hpp.html" target="_top" xlink:title=" ">
<polygon fill="white" stroke="#666666" points="706,-156.5 562,-156.5 562,-137.5 706,-137.5 706,-156.5"/>
<text text-anchor="middle" x="634" y="-144.5" font-family="Helvetica,sans-Serif" font-size="10.00">../simulation/simulate.hpp</text>
</a>
</g>
</g>
<!-- Node6&#45;&gt;Node12 -->
<g id="edge11_Node000006_Node000012" class="edge">
<title>Node6&#45;&gt;Node12</title>
<g id="a_edge11_Node000006_Node000012"><a xlink:title=" ">
<path fill="none" stroke="#63b8ff" d="M634,-197.87C634,-189.75 634,-177.31 634,-166.89"/>
<polygon fill="#63b8ff" stroke="#63b8ff" points="637.5,-166.67 634,-156.67 630.5,-166.67 637.5,-166.67"/>
</a>
</g>
</g>
<!-- Node18 -->
<g id="Node000018" class="node">
<title>Node18</title>
<g id="a_Node000018"><a xlink:title=" ">
<polygon fill="#e0e0e0" stroke="#999999" points="762,-156.5 724,-156.5 724,-137.5 762,-137.5 762,-156.5"/>
<text text-anchor="middle" x="743" y="-144.5" font-family="Helvetica,sans-Serif" font-size="10.00">map</text>
</a>
</g>
</g>
<!-- Node6&#45;&gt;Node18 -->
<g id="edge18_Node000006_Node000018" class="edge">
<title>Node6&#45;&gt;Node18</title>
<g id="a_edge18_Node000006_Node000018"><a xlink:title=" ">
<path fill="none" stroke="#63b8ff" d="M650.08,-197.87C667.95,-188.28 697.04,-172.67 717.91,-161.47"/>
<polygon fill="#63b8ff" stroke="#63b8ff" points="719.69,-164.48 726.85,-156.67 716.38,-158.31 719.69,-164.48"/>
</a>
</g>
</g>
<!-- Node8 -->
<g id="Node000008" class="node">
<title>Node8</title>
<g id="a_Node000008"><a xlink:title=" ">
<polygon fill="#e0e0e0" stroke="#999999" points="277.5,-85 224.5,-85 224.5,-66 277.5,-66 277.5,-85"/>
<text text-anchor="middle" x="251" y="-73" font-family="Helvetica,sans-Serif" font-size="10.00">limits.h</text>
</a>
</g>
</g>
<!-- Node7&#45;&gt;Node8 -->
<g id="edge7_Node000007_Node000008" class="edge">
<title>Node7&#45;&gt;Node8</title>
<g id="a_edge7_Node000007_Node000008"><a xlink:title=" ">
<path fill="none" stroke="#63b8ff" d="M307.63,-131.94C295.93,-120.48 279.42,-104.32 267.24,-92.4"/>
<polygon fill="#63b8ff" stroke="#63b8ff" points="269.55,-89.76 259.96,-85.27 264.65,-94.76 269.55,-89.76"/>
</a>
</g>
</g>
<!-- Node9 -->
<g id="Node000009" class="node">
<title>Node9</title>
<g id="a_Node000009"><a xlink:title=" ">
<polygon fill="#e0e0e0" stroke="#999999" points="348.5,-85 295.5,-85 295.5,-66 348.5,-66 348.5,-85"/>
<text text-anchor="middle" x="322" y="-73" font-family="Helvetica,sans-Serif" font-size="10.00">stdint.h</text>
</a>
</g>
</g>
<!-- Node7&#45;&gt;Node9 -->
<g id="edge8_Node000007_Node000009" class="edge">
<title>Node7&#45;&gt;Node9</title>
<g id="a_edge8_Node000007_Node000009"><a xlink:title=" ">
<path fill="none" stroke="#63b8ff" d="M322,-131.94C322,-121.46 322,-107.05 322,-95.55"/>
<polygon fill="#63b8ff" stroke="#63b8ff" points="325.5,-95.27 322,-85.27 318.5,-95.27 325.5,-95.27"/>
</a>
</g>
</g>
<!-- Node10 -->
<g id="Node000010" class="node">
<title>Node10</title>
<g id="a_Node000010"><a xlink:title=" ">
<polygon fill="#e0e0e0" stroke="#999999" points="419.5,-85 366.5,-85 366.5,-66 419.5,-66 419.5,-85"/>
<text text-anchor="middle" x="393" y="-73" font-family="Helvetica,sans-Serif" font-size="10.00">string.h</text>
</a>
</g>
</g>
<!-- Node7&#45;&gt;Node10 -->
<g id="edge9_Node000007_Node000010" class="edge">
<title>Node7&#45;&gt;Node10</title>
<g id="a_edge9_Node000007_Node000010"><a xlink:title=" ">
<path fill="none" stroke="#63b8ff" d="M336.37,-131.94C348.07,-120.48 364.58,-104.32 376.76,-92.4"/>
<polygon fill="#63b8ff" stroke="#63b8ff" points="379.35,-94.76 384.04,-85.27 374.45,-89.76 379.35,-94.76"/>
</a>
</g>
</g>
<!-- Node13 -->
<g id="Node000013" class="node">
<title>Node13</title>
<g id="a_Node000013"><a xlink:href="keyboardSim_8hpp.html" target="_top" xlink:title="Simulates keyboard input in Windows.">
<polygon fill="white" stroke="#666666" points="704.5,-85 603.5,-85 603.5,-66 704.5,-66 704.5,-85"/>
<text text-anchor="middle" x="654" y="-73" font-family="Helvetica,sans-Serif" font-size="10.00">keyboardSim.hpp</text>
</a>
</g>
</g>
<!-- Node12&#45;&gt;Node13 -->
<g id="edge12_Node000012_Node000013" class="edge">
<title>Node12&#45;&gt;Node13</title>
<g id="a_edge12_Node000012_Node000013"><a xlink:title=" ">
<path fill="none" stroke="#63b8ff" d="M636.45,-137.48C639.48,-126.95 644.72,-108.75 648.69,-94.97"/>
<polygon fill="#63b8ff" stroke="#63b8ff" points="652.13,-95.67 651.53,-85.09 645.4,-93.73 652.13,-95.67"/>
</a>
</g>
</g>
<!-- Node17 -->
<g id="Node000017" class="node">
<title>Node17</title>
<g id="a_Node000017"><a xlink:href="mouseSim_8hpp.html" target="_top" xlink:title="Simulates mouse input in Windows.">
<polygon fill="white" stroke="#666666" points="585.5,-85 496.5,-85 496.5,-66 585.5,-66 585.5,-85"/>
<text text-anchor="middle" x="541" y="-73" font-family="Helvetica,sans-Serif" font-size="10.00">mouseSim.hpp</text>
</a>
</g>
</g>
<!-- Node12&#45;&gt;Node17 -->
<g id="edge16_Node000012_Node000017" class="edge">
<title>Node12&#45;&gt;Node17</title>
<g id="a_edge16_Node000012_Node000017"><a xlink:title=" ">
<path fill="none" stroke="#63b8ff" d="M622.6,-137.48C607.19,-125.96 579.49,-105.26 560.68,-91.21"/>
<polygon fill="#63b8ff" stroke="#63b8ff" points="562.6,-88.27 552.5,-85.09 558.41,-93.88 562.6,-88.27"/>
</a>
</g>
</g>
<!-- Node14 -->
<g id="Node000014" class="node">
<title>Node14</title>
<g id="a_Node000014"><a xlink:title=" ">
<polygon fill="#e0e0e0" stroke="#999999" points="595,-19 527,-19 527,0 595,0 595,-19"/>
<text text-anchor="middle" x="561" y="-7" font-family="Helvetica,sans-Serif" font-size="10.00">windows.h</text>
</a>
</g>
</g>
<!-- Node13&#45;&gt;Node14 -->
<g id="edge13_Node000013_Node000014" class="edge">
<title>Node13&#45;&gt;Node14</title>
<g id="a_edge13_Node000013_Node000014"><a xlink:title=" ">
<path fill="none" stroke="#63b8ff" d="M641.46,-65.87C626.2,-55.37 600.23,-37.5 581.93,-24.9"/>
<polygon fill="#63b8ff" stroke="#63b8ff" points="583.86,-21.98 573.64,-19.2 579.89,-27.75 583.86,-21.98"/>
</a>
</g>
</g>
<!-- Node15 -->
<g id="Node000015" class="node">
<title>Node15</title>
<g id="a_Node000015"><a xlink:title=" ">
<polygon fill="#e0e0e0" stroke="#999999" points="676,-19 632,-19 632,0 676,0 676,-19"/>
<text text-anchor="middle" x="654" y="-7" font-family="Helvetica,sans-Serif" font-size="10.00">string</text>
</a>
</g>
</g>
<!-- Node13&#45;&gt;Node15 -->
<g id="edge14_Node000013_Node000015" class="edge">
<title>Node13&#45;&gt;Node15</title>
<g id="a_edge14_Node000013_Node000015"><a xlink:title=" ">
<path fill="none" stroke="#63b8ff" d="M654,-65.87C654,-56.66 654,-41.79 654,-29.77"/>
<polygon fill="#63b8ff" stroke="#63b8ff" points="657.5,-29.41 654,-19.41 650.5,-29.41 657.5,-29.41"/>
</a>
</g>
</g>
<!-- Node16 -->
<g id="Node000016" class="node">
<title>Node16</title>
<g id="a_Node000016"><a xlink:title=" ">
<polygon fill="#e0e0e0" stroke="#999999" points="741.5,-19 694.5,-19 694.5,0 741.5,0 741.5,-19"/>
<text text-anchor="middle" x="718" y="-7" font-family="Helvetica,sans-Serif" font-size="10.00">vector</text>
</a>
</g>
</g>
<!-- Node13&#45;&gt;Node16 -->
<g id="edge15_Node000013_Node000016" class="edge">
<title>Node13&#45;&gt;Node16</title>
<g id="a_edge15_Node000013_Node000016"><a xlink:title=" ">
<path fill="none" stroke="#63b8ff" d="M662.63,-65.87C672.69,-55.81 689.52,-38.98 701.99,-26.51"/>
<polygon fill="#63b8ff" stroke="#63b8ff" points="704.5,-28.95 709.09,-19.41 699.55,-24 704.5,-28.95"/>
</a>
</g>
</g>
<!-- Node17&#45;&gt;Node14 -->
<g id="edge17_Node000017_Node000014" class="edge">
<title>Node17&#45;&gt;Node14</title>
<g id="a_edge17_Node000017_Node000014"><a xlink:title=" ">
<path fill="none" stroke="#63b8ff" d="M543.7,-65.87C546.63,-56.47 551.42,-41.17 555.21,-29.03"/>
<polygon fill="#63b8ff" stroke="#63b8ff" points="558.57,-29.99 558.22,-19.41 551.89,-27.91 558.57,-29.99"/>
</a>
</g>
</g>
<!-- Node20&#45;&gt;Node15 -->
<g id="edge25_Node000020_Node000015" class="edge">
<title>Node20&#45;&gt;Node15</title>
<g id="a_edge25_Node000020_Node000015"><a xlink:title=" ">
<path fill="none" stroke="#63b8ff" d="M748.46,-54.95C726.67,-44.7 700.59,-32.43 681.36,-23.38"/>
<polygon fill="#63b8ff" stroke="#63b8ff" points="682.8,-20.18 672.26,-19.09 679.82,-26.52 682.8,-20.18"/>
</a>
</g>
</g>
<!-- Node20&#45;&gt;Node16 -->
<g id="edge26_Node000020_Node000016" class="edge">
<title>Node20&#45;&gt;Node16</title>
<g id="a_edge26_Node000020_Node000016"><a xlink:title=" ">
<path fill="none" stroke="#63b8ff" d="M768.01,-54.95C757.54,-45.65 745.2,-34.68 735.4,-25.96"/>
<polygon fill="#63b8ff" stroke="#63b8ff" points="737.66,-23.29 727.86,-19.26 733,-28.52 737.66,-23.29"/>
</a>
</g>
</g>
<!-- Node21 -->
<g id="Node000021" class="node">
<title>Node21</title>
<g id="a_Node000021"><a xlink:title=" ">
<polygon fill="#e0e0e0" stroke="#999999" points="802,-19 760,-19 760,0 802,0 802,-19"/>
<text text-anchor="middle" x="781" y="-7" font-family="Helvetica,sans-Serif" font-size="10.00">array</text>
</a>
</g>
</g>
<!-- Node20&#45;&gt;Node21 -->
<g id="edge22_Node000020_Node000021" class="edge">
<title>Node20&#45;&gt;Node21</title>
<g id="a_edge22_Node000020_Node000021"><a xlink:title=" ">
<path fill="none" stroke="#63b8ff" d="M787.25,-54.95C786.1,-46.76 784.77,-37.28 783.63,-29.19"/>
<polygon fill="#63b8ff" stroke="#63b8ff" points="787.09,-28.68 782.23,-19.26 780.16,-29.65 787.09,-28.68"/>
</a>
</g>
</g>
<!-- Node22 -->
<g id="Node000022" class="node">
<title>Node22</title>
<g id="a_Node000022"><a xlink:title=" ">
<polygon fill="#e0e0e0" stroke="#999999" points="870,-19 820,-19 820,0 870,0 870,-19"/>
<text text-anchor="middle" x="845" y="-7" font-family="Helvetica,sans-Serif" font-size="10.00">cstdint</text>
</a>
</g>
</g>
<!-- Node20&#45;&gt;Node22 -->
<g id="edge23_Node000020_Node000022" class="edge">
<title>Node20&#45;&gt;Node22</title>
<g id="a_edge23_Node000020_Node000022"><a xlink:title=" ">
<path fill="none" stroke="#63b8ff" d="M806.8,-54.95C814.48,-46.02 823.47,-35.55 830.8,-27.02"/>
<polygon fill="#63b8ff" stroke="#63b8ff" points="833.61,-29.13 837.47,-19.26 828.3,-24.56 833.61,-29.13"/>
</a>
</g>
</g>
<!-- Node23 -->
<g id="Node000023" class="node">
<title>Node23</title>
<g id="a_Node000023"><a xlink:title=" ">
<polygon fill="#e0e0e0" stroke="#999999" points="953.5,-19 888.5,-19 888.5,0 953.5,0 953.5,-19"/>
<text text-anchor="middle" x="921" y="-7" font-family="Helvetica,sans-Serif" font-size="10.00">stdexcept</text>
</a>
</g>
</g>
<!-- Node20&#45;&gt;Node23 -->
<g id="edge24_Node000020_Node000023" class="edge">
<title>Node20&#45;&gt;Node23</title>
<g id="a_edge24_Node000020_Node000023"><a xlink:title=" ">
<path fill="none" stroke="#63b8ff" d="M830.02,-54.95C850.9,-44.75 875.89,-32.54 894.39,-23.5"/>
<polygon fill="#63b8ff" stroke="#63b8ff" points="895.96,-26.63 903.41,-19.09 892.89,-20.34 895.96,-26.63"/>
</a>
</g>
</g>
</g>
</svg>
