<?xml version="1.0" encoding="UTF-8" standalone="no"?>
<!DOCTYPE svg PUBLIC "-//W3C//DTD SVG 1.1//EN"
 "http://www.w3.org/Graphics/SVG/1.1/DTD/svg11.dtd">
<!-- Generated by graphviz version 2.43.0 (0)
 -->
<!-- Title: src/networking/server.cpp Pages: 1 -->
<svg width="1992pt" height="291pt"
 viewBox="0.00 0.00 1991.50 291.00" xmlns="http://www.w3.org/2000/svg" xmlns:xlink="http://www.w3.org/1999/xlink">
<g id="graph0" class="graph" transform="scale(1 1) rotate(0) translate(4 287)">
<title>src/networking/server.cpp</title>
<!-- Node1 -->
<g id="Node000001" class="node">
<title>Node1</title>
<g id="a_Node000001"><a xlink:title=" ">
<polygon fill="#999999" stroke="#666666" points="1505.5,-283 1363.5,-283 1363.5,-264 1505.5,-264 1505.5,-283"/>
<text text-anchor="middle" x="1434.5" y="-271" font-family="Helvetica,sans-Serif" font-size="10.00">src/networking/server.cpp</text>
</a>
</g>
</g>
<!-- Node2 -->
<g id="Node000002" class="node">
<title>Node2</title>
<g id="a_Node000002"><a xlink:href="server_8hpp.html" target="_top" xlink:title=" ">
<polygon fill="white" stroke="#666666" points="819.5,-222.5 751.5,-222.5 751.5,-203.5 819.5,-203.5 819.5,-222.5"/>
<text text-anchor="middle" x="785.5" y="-210.5" font-family="Helvetica,sans-Serif" font-size="10.00">server.hpp</text>
</a>
</g>
</g>
<!-- Node1&#45;&gt;Node2 -->
<g id="edge1_Node000001_Node000002" class="edge">
<title>Node1&#45;&gt;Node2</title>
<g id="a_edge1_Node000001_Node000002"><a xlink:title=" ">
<path fill="none" stroke="#63b8ff" d="M1363.5,-266.1C1228.88,-253.97 940.12,-227.94 829.69,-217.98"/>
<polygon fill="#63b8ff" stroke="#63b8ff" points="829.85,-214.48 819.57,-217.07 829.22,-221.45 829.85,-214.48"/>
</a>
</g>
</g>
<!-- Node20 -->
<g id="Node000020" class="node">
<title>Node20</title>
<g id="a_Node000020"><a xlink:title=" ">
<polygon fill="#e0e0e0" stroke="#999999" points="563,-162 490,-162 490,-143 563,-143 563,-162"/>
<text text-anchor="middle" x="526.5" y="-150" font-family="Helvetica,sans-Serif" font-size="10.00">QByteArray</text>
</a>
</g>
</g>
<!-- Node1&#45;&gt;Node20 -->
<g id="edge50_Node000001_Node000020" class="edge">
<title>Node1&#45;&gt;Node20</title>
<g id="a_edge50_Node000001_Node000020"><a xlink:title=" ">
<path fill="none" stroke="#63b8ff" d="M1363.47,-270.34C1211.62,-265.34 859.72,-251.54 742.5,-228 673.16,-214.08 595.63,-183.41 554.95,-166.08"/>
<polygon fill="#63b8ff" stroke="#63b8ff" points="556.24,-162.82 545.67,-162.08 553.47,-169.25 556.24,-162.82"/>
</a>
</g>
</g>
<!-- Node25 -->
<g id="Node000025" class="node">
<title>Node25</title>
<g id="a_Node000025"><a xlink:href="qrcodegen_8hpp.html" target="_top" xlink:title=" ">
<polygon fill="white" stroke="#666666" points="932.5,-107 798.5,-107 798.5,-66 932.5,-66 932.5,-107"/>
<text text-anchor="start" x="806.5" y="-95" font-family="Helvetica,sans-Serif" font-size="10.00">../../third&#45;party&#45;libs</text>
<text text-anchor="start" x="806.5" y="-84" font-family="Helvetica,sans-Serif" font-size="10.00">/QR&#45;Code&#45;generator/cpp</text>
<text text-anchor="middle" x="865.5" y="-73" font-family="Helvetica,sans-Serif" font-size="10.00">/qrcodegen.hpp</text>
</a>
</g>
</g>
<!-- Node1&#45;&gt;Node25 -->
<g id="edge26_Node000001_Node000025" class="edge">
<title>Node1&#45;&gt;Node25</title>
<g id="a_edge26_Node000001_Node000025"><a xlink:title=" ">
<path fill="none" stroke="#63b8ff" d="M1381.01,-263.94C1338.77,-256.48 1278.63,-244.3 1227.5,-228 1136.26,-198.91 1118.93,-177.26 1029.5,-143 999.36,-131.45 965.66,-119.83 936.68,-110.23"/>
<polygon fill="#63b8ff" stroke="#63b8ff" points="937.64,-106.86 927.05,-107.05 935.45,-113.5 937.64,-106.86"/>
</a>
</g>
</g>
<!-- Node29 -->
<g id="Node000029" class="node">
<title>Node29</title>
<g id="a_Node000029"><a xlink:href="settings__singleton_8hpp.html" target="_top" xlink:title=" ">
<polygon fill="white" stroke="#666666" points="1343,-228 1236,-228 1236,-198 1343,-198 1343,-228"/>
<text text-anchor="start" x="1244" y="-216" font-family="Helvetica,sans-Serif" font-size="10.00">../settings/settings</text>
<text text-anchor="middle" x="1289.5" y="-205" font-family="Helvetica,sans-Serif" font-size="10.00">_singleton.hpp</text>
</a>
</g>
</g>
<!-- Node1&#45;&gt;Node29 -->
<g id="edge32_Node000001_Node000029" class="edge">
<title>Node1&#45;&gt;Node29</title>
<g id="a_edge32_Node000001_Node000029"><a xlink:title=" ">
<path fill="none" stroke="#63b8ff" d="M1413.42,-263.99C1392.64,-255.61 1360.26,-242.55 1333.8,-231.87"/>
<polygon fill="#63b8ff" stroke="#63b8ff" points="1334.94,-228.56 1324.36,-228.06 1332.32,-235.05 1334.94,-228.56"/>
</a>
</g>
</g>
<!-- Node36 -->
<g id="Node000036" class="node">
<title>Node36</title>
<g id="a_Node000036"><a xlink:title=" ">
<polygon fill="#e0e0e0" stroke="#999999" points="1636,-162 1595,-162 1595,-143 1636,-143 1636,-162"/>
<text text-anchor="middle" x="1615.5" y="-150" font-family="Helvetica,sans-Serif" font-size="10.00">QList</text>
</a>
</g>
</g>
<!-- Node1&#45;&gt;Node36 -->
<g id="edge53_Node000001_Node000036" class="edge">
<title>Node1&#45;&gt;Node36</title>
<g id="a_edge53_Node000001_Node000036"><a xlink:title=" ">
<path fill="none" stroke="#63b8ff" d="M1422.72,-263.88C1404.29,-249.39 1372.52,-219.58 1390.5,-198 1417.13,-166.04 1528.68,-171.4 1584.84,-161.85"/>
<polygon fill="#63b8ff" stroke="#63b8ff" points="1585.87,-165.21 1594.98,-159.8 1584.48,-158.35 1585.87,-165.21"/>
</a>
</g>
</g>
<!-- Node39 -->
<g id="Node000039" class="node">
<title>Node39</title>
<g id="a_Node000039"><a xlink:title=" ">
<polygon fill="#e0e0e0" stroke="#999999" points="1469.5,-222.5 1399.5,-222.5 1399.5,-203.5 1469.5,-203.5 1469.5,-222.5"/>
<text text-anchor="middle" x="1434.5" y="-210.5" font-family="Helvetica,sans-Serif" font-size="10.00">ui_server.h</text>
</a>
</g>
</g>
<!-- Node1&#45;&gt;Node39 -->
<g id="edge49_Node000001_Node000039" class="edge">
<title>Node1&#45;&gt;Node39</title>
<g id="a_edge49_Node000001_Node000039"><a xlink:title=" ">
<path fill="none" stroke="#63b8ff" d="M1434.5,-263.87C1434.5,-255.75 1434.5,-243.31 1434.5,-232.89"/>
<polygon fill="#63b8ff" stroke="#63b8ff" points="1438,-232.67 1434.5,-222.67 1431,-232.67 1438,-232.67"/>
</a>
</g>
</g>
<!-- Node40 -->
<g id="Node000040" class="node">
<title>Node40</title>
<g id="a_Node000040"><a xlink:title=" ">
<polygon fill="#e0e0e0" stroke="#999999" points="1571,-222.5 1488,-222.5 1488,-203.5 1571,-203.5 1571,-222.5"/>
<text text-anchor="middle" x="1529.5" y="-210.5" font-family="Helvetica,sans-Serif" font-size="10.00">QDataStream</text>
</a>
</g>
</g>
<!-- Node1&#45;&gt;Node40 -->
<g id="edge51_Node000001_Node000040" class="edge">
<title>Node1&#45;&gt;Node40</title>
<g id="a_edge51_Node000001_Node000040"><a xlink:title=" ">
<path fill="none" stroke="#63b8ff" d="M1448.52,-263.87C1463.81,-254.45 1488.53,-239.23 1506.64,-228.08"/>
<polygon fill="#63b8ff" stroke="#63b8ff" points="1508.75,-230.89 1515.42,-222.67 1505.07,-224.93 1508.75,-230.89"/>
</a>
</g>
</g>
<!-- Node41 -->
<g id="Node000041" class="node">
<title>Node41</title>
<g id="a_Node000041"><a xlink:title=" ">
<polygon fill="#e0e0e0" stroke="#999999" points="1675.5,-222.5 1589.5,-222.5 1589.5,-203.5 1675.5,-203.5 1675.5,-222.5"/>
<text text-anchor="middle" x="1632.5" y="-210.5" font-family="Helvetica,sans-Serif" font-size="10.00">QHostAddress</text>
</a>
</g>
</g>
<!-- Node1&#45;&gt;Node41 -->
<g id="edge52_Node000001_Node000041" class="edge">
<title>Node1&#45;&gt;Node41</title>
<g id="a_edge52_Node000001_Node000041"><a xlink:title=" ">
<path fill="none" stroke="#63b8ff" d="M1463.29,-263.99C1497.75,-253.81 1555.59,-236.72 1593.9,-225.4"/>
<polygon fill="#63b8ff" stroke="#63b8ff" points="1595.08,-228.71 1603.67,-222.52 1593.09,-221.99 1595.08,-228.71"/>
</a>
</g>
</g>
<!-- Node42 -->
<g id="Node000042" class="node">
<title>Node42</title>
<g id="a_Node000042"><a xlink:title=" ">
<polygon fill="#e0e0e0" stroke="#999999" points="1779.5,-222.5 1693.5,-222.5 1693.5,-203.5 1779.5,-203.5 1779.5,-222.5"/>
<text text-anchor="middle" x="1736.5" y="-210.5" font-family="Helvetica,sans-Serif" font-size="10.00">QMessageBox</text>
</a>
</g>
</g>
<!-- Node1&#45;&gt;Node42 -->
<g id="edge54_Node000001_Node000042" class="edge">
<title>Node1&#45;&gt;Node42</title>
<g id="a_edge54_Node000001_Node000042"><a xlink:title=" ">
<path fill="none" stroke="#63b8ff" d="M1490.38,-263.98C1541.23,-255.89 1618.24,-242.79 1684.5,-228 1688.44,-227.12 1692.53,-226.14 1696.61,-225.11"/>
<polygon fill="#63b8ff" stroke="#63b8ff" points="1697.84,-228.41 1706.64,-222.52 1696.08,-221.64 1697.84,-228.41"/>
</a>
</g>
</g>
<!-- Node43 -->
<g id="Node000043" class="node">
<title>Node43</title>
<g id="a_Node000043"><a xlink:title=" ">
<polygon fill="#e0e0e0" stroke="#999999" points="1907,-222.5 1798,-222.5 1798,-203.5 1907,-203.5 1907,-222.5"/>
<text text-anchor="middle" x="1852.5" y="-210.5" font-family="Helvetica,sans-Serif" font-size="10.00">QNetworkInterface</text>
</a>
</g>
</g>
<!-- Node1&#45;&gt;Node43 -->
<g id="edge55_Node000001_Node000043" class="edge">
<title>Node1&#45;&gt;Node43</title>
<g id="a_edge55_Node000001_Node000043"><a xlink:title=" ">
<path fill="none" stroke="#63b8ff" d="M1505.64,-265.47C1577.32,-257.93 1690.98,-244.76 1788.5,-228 1794.24,-227.01 1800.25,-225.86 1806.19,-224.65"/>
<polygon fill="#63b8ff" stroke="#63b8ff" points="1807,-228.05 1816.06,-222.57 1805.55,-221.2 1807,-228.05"/>
</a>
</g>
</g>
<!-- Node44 -->
<g id="Node000044" class="node">
<title>Node44</title>
<g id="a_Node000044"><a xlink:title=" ">
<polygon fill="#e0e0e0" stroke="#999999" points="1983.5,-222.5 1925.5,-222.5 1925.5,-203.5 1983.5,-203.5 1983.5,-222.5"/>
<text text-anchor="middle" x="1954.5" y="-210.5" font-family="Helvetica,sans-Serif" font-size="10.00">QThread</text>
</a>
</g>
</g>
<!-- Node1&#45;&gt;Node44 -->
<g id="edge56_Node000001_Node000044" class="edge">
<title>Node1&#45;&gt;Node44</title>
<g id="a_edge56_Node000001_Node000044"><a xlink:title=" ">
<path fill="none" stroke="#63b8ff" d="M1505.65,-271.7C1600.49,-269.33 1773.06,-260.46 1916.5,-228 1919.17,-227.4 1921.91,-226.65 1924.64,-225.82"/>
<polygon fill="#63b8ff" stroke="#63b8ff" points="1925.94,-229.08 1934.29,-222.56 1923.69,-222.45 1925.94,-229.08"/>
</a>
</g>
</g>
<!-- Node3 -->
<g id="Node000003" class="node">
<title>Node3</title>
<g id="a_Node000003"><a xlink:href="executor_8hpp.html" target="_top" xlink:title=" ">
<polygon fill="white" stroke="#666666" points="660,-162 581,-162 581,-143 660,-143 660,-162"/>
<text text-anchor="middle" x="620.5" y="-150" font-family="Helvetica,sans-Serif" font-size="10.00">executor.hpp</text>
</a>
</g>
</g>
<!-- Node2&#45;&gt;Node3 -->
<g id="edge2_Node000002_Node000003" class="edge">
<title>Node2&#45;&gt;Node3</title>
<g id="a_edge2_Node000002_Node000003"><a xlink:title=" ">
<path fill="none" stroke="#63b8ff" d="M761.51,-203.49C733.28,-193.49 686.22,-176.8 654.31,-165.49"/>
<polygon fill="#63b8ff" stroke="#63b8ff" points="655.12,-162.06 644.52,-162.02 652.78,-168.66 655.12,-162.06"/>
</a>
</g>
</g>
<!-- Node19 -->
<g id="Node000019" class="node">
<title>Node19</title>
<g id="a_Node000019"><a xlink:title=" ">
<polygon fill="#e0e0e0" stroke="#999999" points="780.5,-96 722.5,-96 722.5,-77 780.5,-77 780.5,-96"/>
<text text-anchor="middle" x="751.5" y="-84" font-family="Helvetica,sans-Serif" font-size="10.00">memory</text>
</a>
</g>
</g>
<!-- Node2&#45;&gt;Node19 -->
<g id="edge25_Node000002_Node000019" class="edge">
<title>Node2&#45;&gt;Node19</title>
<g id="a_edge25_Node000002_Node000019"><a xlink:title=" ">
<path fill="none" stroke="#63b8ff" d="M760.53,-203.49C742.23,-195.79 718.69,-182.46 707.5,-162 696.1,-141.16 715.57,-117.64 732.13,-102.7"/>
<polygon fill="#63b8ff" stroke="#63b8ff" points="734.53,-105.26 739.87,-96.11 729.99,-99.93 734.53,-105.26"/>
</a>
</g>
</g>
<!-- Node2&#45;&gt;Node20 -->
<g id="edge20_Node000002_Node000020" class="edge">
<title>Node2&#45;&gt;Node20</title>
<g id="a_edge20_Node000002_Node000020"><a xlink:title=" ">
<path fill="none" stroke="#63b8ff" d="M751.37,-204.29C705.66,-193.97 624.36,-175.6 573.05,-164.01"/>
<polygon fill="#63b8ff" stroke="#63b8ff" points="573.74,-160.58 563.21,-161.79 572.19,-167.41 573.74,-160.58"/>
</a>
</g>
</g>
<!-- Node21 -->
<g id="Node000021" class="node">
<title>Node21</title>
<g id="a_Node000021"><a xlink:title=" ">
<polygon fill="#e0e0e0" stroke="#999999" points="772.5,-162 716.5,-162 716.5,-143 772.5,-143 772.5,-162"/>
<text text-anchor="middle" x="744.5" y="-150" font-family="Helvetica,sans-Serif" font-size="10.00">QDialog</text>
</a>
</g>
</g>
<!-- Node2&#45;&gt;Node21 -->
<g id="edge21_Node000002_Node000021" class="edge">
<title>Node2&#45;&gt;Node21</title>
<g id="a_edge21_Node000002_Node000021"><a xlink:title=" ">
<path fill="none" stroke="#63b8ff" d="M779.45,-203.37C773.39,-194.73 763.91,-181.2 756.36,-170.42"/>
<polygon fill="#63b8ff" stroke="#63b8ff" points="759.18,-168.35 750.57,-162.17 753.45,-172.37 759.18,-168.35"/>
</a>
</g>
</g>
<!-- Node22 -->
<g id="Node000022" class="node">
<title>Node22</title>
<g id="a_Node000022"><a xlink:title=" ">
<polygon fill="#e0e0e0" stroke="#999999" points="862,-162 791,-162 791,-143 862,-143 862,-162"/>
<text text-anchor="middle" x="826.5" y="-150" font-family="Helvetica,sans-Serif" font-size="10.00">QTcpServer</text>
</a>
</g>
</g>
<!-- Node2&#45;&gt;Node22 -->
<g id="edge22_Node000002_Node000022" class="edge">
<title>Node2&#45;&gt;Node22</title>
<g id="a_edge22_Node000002_Node000022"><a xlink:title=" ">
<path fill="none" stroke="#63b8ff" d="M791.55,-203.37C797.61,-194.73 807.09,-181.2 814.64,-170.42"/>
<polygon fill="#63b8ff" stroke="#63b8ff" points="817.55,-172.37 820.43,-162.17 811.82,-168.35 817.55,-172.37"/>
</a>
</g>
</g>
<!-- Node23 -->
<g id="Node000023" class="node">
<title>Node23</title>
<g id="a_Node000023"><a xlink:title=" ">
<polygon fill="#e0e0e0" stroke="#999999" points="952.5,-162 880.5,-162 880.5,-143 952.5,-143 952.5,-162"/>
<text text-anchor="middle" x="916.5" y="-150" font-family="Helvetica,sans-Serif" font-size="10.00">QTcpSocket</text>
</a>
</g>
</g>
<!-- Node2&#45;&gt;Node23 -->
<g id="edge23_Node000002_Node000023" class="edge">
<title>Node2&#45;&gt;Node23</title>
<g id="a_edge23_Node000002_Node000023"><a xlink:title=" ">
<path fill="none" stroke="#63b8ff" d="M804.55,-203.49C826.47,-193.7 862.71,-177.52 888,-166.23"/>
<polygon fill="#63b8ff" stroke="#63b8ff" points="889.72,-169.29 897.43,-162.02 886.87,-162.9 889.72,-169.29"/>
</a>
</g>
</g>
<!-- Node24 -->
<g id="Node000024" class="node">
<title>Node24</title>
<g id="a_Node000024"><a xlink:title=" ">
<polygon fill="#e0e0e0" stroke="#999999" points="1020,-162 971,-162 971,-143 1020,-143 1020,-162"/>
<text text-anchor="middle" x="995.5" y="-150" font-family="Helvetica,sans-Serif" font-size="10.00">QTime</text>
</a>
</g>
</g>
<!-- Node2&#45;&gt;Node24 -->
<g id="edge24_Node000002_Node000024" class="edge">
<title>Node2&#45;&gt;Node24</title>
<g id="a_edge24_Node000002_Node000024"><a xlink:title=" ">
<path fill="none" stroke="#63b8ff" d="M816.04,-203.49C854.63,-192.74 920.87,-174.29 961.18,-163.06"/>
<polygon fill="#63b8ff" stroke="#63b8ff" points="962.14,-166.43 970.83,-160.37 960.26,-159.68 962.14,-166.43"/>
</a>
</g>
</g>
<!-- Node4 -->
<g id="Node000004" class="node">
<title>Node4</title>
<g id="a_Node000004"><a xlink:href="Colfer_8h.html" target="_top" xlink:title=" ">
<polygon fill="white" stroke="#666666" points="165.5,-101.5 29.5,-101.5 29.5,-71.5 165.5,-71.5 165.5,-101.5"/>
<text text-anchor="start" x="37.5" y="-89.5" font-family="Helvetica,sans-Serif" font-size="10.00">../../VGP_Data_Exchange</text>
<text text-anchor="middle" x="97.5" y="-78.5" font-family="Helvetica,sans-Serif" font-size="10.00">/C/Colfer.h</text>
</a>
</g>
</g>
<!-- Node3&#45;&gt;Node4 -->
<g id="edge3_Node000003_Node000004" class="edge">
<title>Node3&#45;&gt;Node4</title>
<g id="a_edge3_Node000003_Node000004"><a xlink:title=" ">
<path fill="none" stroke="#63b8ff" d="M580.96,-144.36C577.77,-143.87 574.58,-143.41 571.5,-143 395.85,-119.84 349.14,-136.84 174.5,-107 169.15,-106.09 163.62,-104.99 158.1,-103.79"/>
<polygon fill="#63b8ff" stroke="#63b8ff" points="158.73,-100.35 148.2,-101.54 157.18,-107.17 158.73,-100.35"/>
</a>
</g>
</g>
<!-- Node8 -->
<g id="Node000008" class="node">
<title>Node8</title>
<g id="a_Node000008"><a xlink:href="input__types_8hpp.html" target="_top" xlink:title=" ">
<polygon fill="white" stroke="#666666" points="1096.5,-96 950.5,-96 950.5,-77 1096.5,-77 1096.5,-96"/>
<text text-anchor="middle" x="1023.5" y="-84" font-family="Helvetica,sans-Serif" font-size="10.00">../settings/input_types.hpp</text>
</a>
</g>
</g>
<!-- Node3&#45;&gt;Node8 -->
<g id="edge7_Node000003_Node000008" class="edge">
<title>Node3&#45;&gt;Node8</title>
<g id="a_edge7_Node000003_Node000008"><a xlink:title=" ">
<path fill="none" stroke="#63b8ff" d="M660.23,-147.23C721.07,-140.42 840.86,-125.9 941.5,-107 954.44,-104.57 968.41,-101.44 981.09,-98.4"/>
<polygon fill="#63b8ff" stroke="#63b8ff" points="982.05,-101.77 990.93,-96 980.39,-94.97 982.05,-101.77"/>
</a>
</g>
</g>
<!-- Node12 -->
<g id="Node000012" class="node">
<title>Node12</title>
<g id="a_Node000012"><a xlink:href="gamepadSim_8hpp.html" target="_top" xlink:title=" ">
<polygon fill="white" stroke="#666666" points="349.5,-96 183.5,-96 183.5,-77 349.5,-77 349.5,-96"/>
<text text-anchor="middle" x="266.5" y="-84" font-family="Helvetica,sans-Serif" font-size="10.00">../simulation/gamepadSim.hpp</text>
</a>
</g>
</g>
<!-- Node3&#45;&gt;Node12 -->
<g id="edge11_Node000003_Node000012" class="edge">
<title>Node3&#45;&gt;Node12</title>
<g id="a_edge11_Node000003_Node000012"><a xlink:title=" ">
<path fill="none" stroke="#63b8ff" d="M580.92,-144.62C577.73,-144.07 574.56,-143.52 571.5,-143 476.87,-126.8 452.81,-124.96 358.5,-107 344.3,-104.3 328.92,-101.13 314.88,-98.15"/>
<polygon fill="#63b8ff" stroke="#63b8ff" points="315.44,-94.69 304.92,-96.02 313.97,-101.53 315.44,-94.69"/>
</a>
</g>
</g>
<!-- Node15 -->
<g id="Node000015" class="node">
<title>Node15</title>
<g id="a_Node000015"><a xlink:href="keyboardSim_8hpp.html" target="_top" xlink:title="Simulates keyboard input across platforms.">
<polygon fill="white" stroke="#666666" points="704,-96 539,-96 539,-77 704,-77 704,-96"/>
<text text-anchor="middle" x="621.5" y="-84" font-family="Helvetica,sans-Serif" font-size="10.00">../simulation/keyboardSim.hpp</text>
</a>
</g>
</g>
<!-- Node3&#45;&gt;Node15 -->
<g id="edge14_Node000003_Node000015" class="edge">
<title>Node3&#45;&gt;Node15</title>
<g id="a_edge14_Node000003_Node000015"><a xlink:title=" ">
<path fill="none" stroke="#63b8ff" d="M620.63,-142.87C620.78,-133.66 621.01,-118.79 621.2,-106.77"/>
<polygon fill="#63b8ff" stroke="#63b8ff" points="624.7,-106.46 621.36,-96.41 617.7,-106.35 624.7,-106.46"/>
</a>
</g>
</g>
<!-- Node18 -->
<g id="Node000018" class="node">
<title>Node18</title>
<g id="a_Node000018"><a xlink:href="mouseSim_8hpp.html" target="_top" xlink:title="Simulates mouse input across platforms.">
<polygon fill="white" stroke="#666666" points="521,-96 368,-96 368,-77 521,-77 521,-96"/>
<text text-anchor="middle" x="444.5" y="-84" font-family="Helvetica,sans-Serif" font-size="10.00">../simulation/mouseSim.hpp</text>
</a>
</g>
</g>
<!-- Node3&#45;&gt;Node18 -->
<g id="edge18_Node000003_Node000018" class="edge">
<title>Node3&#45;&gt;Node18</title>
<g id="a_edge18_Node000003_Node000018"><a xlink:title=" ">
<path fill="none" stroke="#63b8ff" d="M596.76,-142.87C566.11,-131.72 512.57,-112.25 477.84,-99.62"/>
<polygon fill="#63b8ff" stroke="#63b8ff" points="478.73,-96.22 468.14,-96.1 476.34,-102.8 478.73,-96.22"/>
</a>
</g>
</g>
<!-- Node3&#45;&gt;Node19 -->
<g id="edge19_Node000003_Node000019" class="edge">
<title>Node3&#45;&gt;Node19</title>
<g id="a_edge19_Node000003_Node000019"><a xlink:title=" ">
<path fill="none" stroke="#63b8ff" d="M638.75,-142.95C657.55,-134.1 687.68,-119.8 713.5,-107 717.46,-105.04 721.64,-102.93 725.72,-100.85"/>
<polygon fill="#63b8ff" stroke="#63b8ff" points="727.6,-103.82 734.9,-96.14 724.41,-97.59 727.6,-103.82"/>
</a>
</g>
</g>
<!-- Node5 -->
<g id="Node000005" class="node">
<title>Node5</title>
<g id="a_Node000005"><a xlink:title=" ">
<polygon fill="#e0e0e0" stroke="#999999" points="124,-24.5 71,-24.5 71,-5.5 124,-5.5 124,-24.5"/>
<text text-anchor="middle" x="97.5" y="-12.5" font-family="Helvetica,sans-Serif" font-size="10.00">limits.h</text>
</a>
</g>
</g>
<!-- Node4&#45;&gt;Node5 -->
<g id="edge4_Node000004_Node000005" class="edge">
<title>Node4&#45;&gt;Node5</title>
<g id="a_edge4_Node000004_Node000005"><a xlink:title=" ">
<path fill="none" stroke="#63b8ff" d="M97.5,-71.44C97.5,-60.96 97.5,-46.55 97.5,-35.05"/>
<polygon fill="#63b8ff" stroke="#63b8ff" points="101,-34.77 97.5,-24.77 94,-34.77 101,-34.77"/>
</a>
</g>
</g>
<!-- Node6 -->
<g id="Node000006" class="node">
<title>Node6</title>
<g id="a_Node000006"><a xlink:title=" ">
<polygon fill="#e0e0e0" stroke="#999999" points="195,-24.5 142,-24.5 142,-5.5 195,-5.5 195,-24.5"/>
<text text-anchor="middle" x="168.5" y="-12.5" font-family="Helvetica,sans-Serif" font-size="10.00">stdint.h</text>
</a>
</g>
</g>
<!-- Node4&#45;&gt;Node6 -->
<g id="edge5_Node000004_Node000006" class="edge">
<title>Node4&#45;&gt;Node6</title>
<g id="a_edge5_Node000004_Node000006"><a xlink:title=" ">
<path fill="none" stroke="#63b8ff" d="M111.87,-71.44C123.57,-59.98 140.08,-43.82 152.26,-31.9"/>
<polygon fill="#63b8ff" stroke="#63b8ff" points="154.85,-34.26 159.54,-24.77 149.95,-29.26 154.85,-34.26"/>
</a>
</g>
</g>
<!-- Node7 -->
<g id="Node000007" class="node">
<title>Node7</title>
<g id="a_Node000007"><a xlink:title=" ">
<polygon fill="#e0e0e0" stroke="#999999" points="53,-24.5 0,-24.5 0,-5.5 53,-5.5 53,-24.5"/>
<text text-anchor="middle" x="26.5" y="-12.5" font-family="Helvetica,sans-Serif" font-size="10.00">string.h</text>
</a>
</g>
</g>
<!-- Node4&#45;&gt;Node7 -->
<g id="edge6_Node000004_Node000007" class="edge">
<title>Node4&#45;&gt;Node7</title>
<g id="a_edge6_Node000004_Node000007"><a xlink:title=" ">
<path fill="none" stroke="#63b8ff" d="M83.13,-71.44C71.43,-59.98 54.92,-43.82 42.74,-31.9"/>
<polygon fill="#63b8ff" stroke="#63b8ff" points="45.05,-29.26 35.46,-24.77 40.15,-34.26 45.05,-29.26"/>
</a>
</g>
</g>
<!-- Node9 -->
<g id="Node000009" class="node">
<title>Node9</title>
<g id="a_Node000009"><a xlink:href="GameButtons_8h.html" target="_top" xlink:title=" ">
<polygon fill="white" stroke="#666666" points="1150.5,-30 1014.5,-30 1014.5,0 1150.5,0 1150.5,-30"/>
<text text-anchor="start" x="1022.5" y="-18" font-family="Helvetica,sans-Serif" font-size="10.00">../../VGP_Data_Exchange</text>
<text text-anchor="middle" x="1082.5" y="-7" font-family="Helvetica,sans-Serif" font-size="10.00">/C/GameButtons.h</text>
</a>
</g>
</g>
<!-- Node8&#45;&gt;Node9 -->
<g id="edge8_Node000008_Node000009" class="edge">
<title>Node8&#45;&gt;Node9</title>
<g id="a_edge8_Node000008_Node000009"><a xlink:title=" ">
<path fill="none" stroke="#63b8ff" d="M1030.73,-76.98C1038.94,-67.31 1052.64,-51.17 1063.88,-37.93"/>
<polygon fill="#63b8ff" stroke="#63b8ff" points="1066.69,-40.03 1070.5,-30.14 1061.36,-35.5 1066.69,-40.03"/>
</a>
</g>
</g>
<!-- Node10 -->
<g id="Node000010" class="node">
<title>Node10</title>
<g id="a_Node000010"><a xlink:title=" ">
<polygon fill="#e0e0e0" stroke="#999999" points="1222,-24.5 1169,-24.5 1169,-5.5 1222,-5.5 1222,-24.5"/>
<text text-anchor="middle" x="1195.5" y="-12.5" font-family="Helvetica,sans-Serif" font-size="10.00">QString</text>
</a>
</g>
</g>
<!-- Node8&#45;&gt;Node10 -->
<g id="edge9_Node000008_Node000010" class="edge">
<title>Node8&#45;&gt;Node10</title>
<g id="a_edge9_Node000008_Node000010"><a xlink:title=" ">
<path fill="none" stroke="#63b8ff" d="M1044.59,-76.98C1074.64,-64.84 1129.95,-42.49 1164.62,-28.48"/>
<polygon fill="#63b8ff" stroke="#63b8ff" points="1166.28,-31.58 1174.24,-24.59 1163.65,-25.09 1166.28,-31.58"/>
</a>
</g>
</g>
<!-- Node11 -->
<g id="Node000011" class="node">
<title>Node11</title>
<g id="a_Node000011"><a xlink:title=" ">
<polygon fill="#e0e0e0" stroke="#999999" points="996,-24.5 967,-24.5 967,-5.5 996,-5.5 996,-24.5"/>
<text text-anchor="middle" x="981.5" y="-12.5" font-family="Helvetica,sans-Serif" font-size="10.00">Qt</text>
</a>
</g>
</g>
<!-- Node8&#45;&gt;Node11 -->
<g id="edge10_Node000008_Node000011" class="edge">
<title>Node8&#45;&gt;Node11</title>
<g id="a_edge10_Node000008_Node000011"><a xlink:title=" ">
<path fill="none" stroke="#63b8ff" d="M1018.35,-76.98C1011.8,-66.14 1000.33,-47.16 991.93,-33.25"/>
<polygon fill="#63b8ff" stroke="#63b8ff" points="994.86,-31.34 986.69,-24.59 988.87,-34.96 994.86,-31.34"/>
</a>
</g>
</g>
<!-- Node13 -->
<g id="Node000013" class="node">
<title>Node13</title>
<g id="a_Node000013"><a xlink:title=" ">
<polygon fill="#e0e0e0" stroke="#999999" points="282.5,-24.5 226.5,-24.5 226.5,-5.5 282.5,-5.5 282.5,-24.5"/>
<text text-anchor="middle" x="254.5" y="-12.5" font-family="Helvetica,sans-Serif" font-size="10.00">QDebug</text>
</a>
</g>
</g>
<!-- Node12&#45;&gt;Node13 -->
<g id="edge12_Node000012_Node000013" class="edge">
<title>Node12&#45;&gt;Node13</title>
<g id="a_edge12_Node000012_Node000013"><a xlink:title=" ">
<path fill="none" stroke="#63b8ff" d="M265.03,-76.98C263.21,-66.45 260.07,-48.25 257.69,-34.47"/>
<polygon fill="#63b8ff" stroke="#63b8ff" points="261.13,-33.85 255.98,-24.59 254.24,-35.04 261.13,-33.85"/>
</a>
</g>
</g>
<!-- Node14 -->
<g id="Node000014" class="node">
<title>Node14</title>
<g id="a_Node000014"><a xlink:title=" ">
<polygon fill="#e0e0e0" stroke="#999999" points="348,-24.5 301,-24.5 301,-5.5 348,-5.5 348,-24.5"/>
<text text-anchor="middle" x="324.5" y="-12.5" font-family="Helvetica,sans-Serif" font-size="10.00">cmath</text>
</a>
</g>
</g>
<!-- Node12&#45;&gt;Node14 -->
<g id="edge13_Node000012_Node000014" class="edge">
<title>Node12&#45;&gt;Node14</title>
<g id="a_edge13_Node000012_Node000014"><a xlink:title=" ">
<path fill="none" stroke="#63b8ff" d="M273.61,-76.98C282.83,-65.93 299.1,-46.43 310.77,-32.46"/>
<polygon fill="#63b8ff" stroke="#63b8ff" points="313.61,-34.51 317.33,-24.59 308.24,-30.03 313.61,-34.51"/>
</a>
</g>
</g>
<!-- Node15&#45;&gt;Node10 -->
<g id="edge15_Node000015_Node000010" class="edge">
<title>Node15&#45;&gt;Node10</title>
<g id="a_edge15_Node000015_Node000010"><a xlink:title=" ">
<path fill="none" stroke="#63b8ff" d="M656.7,-76.93C673.76,-73.06 694.6,-68.75 713.5,-66 910.29,-37.32 965.68,-74.51 1159.5,-30 1161.87,-29.46 1164.29,-28.78 1166.7,-28.03"/>
<polygon fill="#63b8ff" stroke="#63b8ff" points="1168.13,-31.24 1176.39,-24.61 1165.8,-24.64 1168.13,-31.24"/>
</a>
</g>
</g>
<!-- Node16 -->
<g id="Node000016" class="node">
<title>Node16</title>
<g id="a_Node000016"><a xlink:title=" ">
<polygon fill="#e0e0e0" stroke="#999999" points="728.5,-24.5 684.5,-24.5 684.5,-5.5 728.5,-5.5 728.5,-24.5"/>
<text text-anchor="middle" x="706.5" y="-12.5" font-family="Helvetica,sans-Serif" font-size="10.00">string</text>
</a>
</g>
</g>
<!-- Node15&#45;&gt;Node16 -->
<g id="edge16_Node000015_Node000016" class="edge">
<title>Node15&#45;&gt;Node16</title>
<g id="a_edge16_Node000015_Node000016"><a xlink:title=" ">
<path fill="none" stroke="#63b8ff" d="M631.92,-76.98C645.81,-65.62 670.64,-45.32 687.81,-31.28"/>
<polygon fill="#63b8ff" stroke="#63b8ff" points="690.47,-33.63 695.99,-24.59 686.03,-28.21 690.47,-33.63"/>
</a>
</g>
</g>
<!-- Node17 -->
<g id="Node000017" class="node">
<title>Node17</title>
<g id="a_Node000017"><a xlink:title=" ">
<polygon fill="#e0e0e0" stroke="#999999" points="649,-24.5 602,-24.5 602,-5.5 649,-5.5 649,-24.5"/>
<text text-anchor="middle" x="625.5" y="-12.5" font-family="Helvetica,sans-Serif" font-size="10.00">vector</text>
</a>
</g>
</g>
<!-- Node15&#45;&gt;Node17 -->
<g id="edge17_Node000015_Node000017" class="edge">
<title>Node15&#45;&gt;Node17</title>
<g id="a_edge17_Node000015_Node000017"><a xlink:title=" ">
<path fill="none" stroke="#63b8ff" d="M621.99,-76.98C622.59,-66.56 623.62,-48.61 624.41,-34.88"/>
<polygon fill="#63b8ff" stroke="#63b8ff" points="627.93,-34.78 625.01,-24.59 620.94,-34.37 627.93,-34.78"/>
</a>
</g>
</g>
<!-- Node25&#45;&gt;Node16 -->
<g id="edge30_Node000025_Node000016" class="edge">
<title>Node25&#45;&gt;Node16</title>
<g id="a_edge30_Node000025_Node000016"><a xlink:title=" ">
<path fill="none" stroke="#63b8ff" d="M820.79,-65.96C793.34,-53.96 759,-38.95 735.16,-28.53"/>
<polygon fill="#63b8ff" stroke="#63b8ff" points="736.52,-25.3 725.95,-24.5 733.72,-31.72 736.52,-25.3"/>
</a>
</g>
</g>
<!-- Node25&#45;&gt;Node17 -->
<g id="edge31_Node000025_Node000017" class="edge">
<title>Node25&#45;&gt;Node17</title>
<g id="a_edge31_Node000025_Node000017"><a xlink:title=" ">
<path fill="none" stroke="#63b8ff" d="M798.33,-66.05C753.02,-52.93 695.15,-36.17 659.21,-25.76"/>
<polygon fill="#63b8ff" stroke="#63b8ff" points="659.82,-22.29 649.24,-22.87 657.87,-29.02 659.82,-22.29"/>
</a>
</g>
</g>
<!-- Node26 -->
<g id="Node000026" class="node">
<title>Node26</title>
<g id="a_Node000026"><a xlink:title=" ">
<polygon fill="#e0e0e0" stroke="#999999" points="797.5,-24.5 755.5,-24.5 755.5,-5.5 797.5,-5.5 797.5,-24.5"/>
<text text-anchor="middle" x="776.5" y="-12.5" font-family="Helvetica,sans-Serif" font-size="10.00">array</text>
</a>
</g>
</g>
<!-- Node25&#45;&gt;Node26 -->
<g id="edge27_Node000025_Node000026" class="edge">
<title>Node25&#45;&gt;Node26</title>
<g id="a_edge27_Node000025_Node000026"><a xlink:title=" ">
<path fill="none" stroke="#63b8ff" d="M840.23,-65.77C826.2,-54.81 809.02,-41.39 796.03,-31.25"/>
<polygon fill="#63b8ff" stroke="#63b8ff" points="797.83,-28.22 787.79,-24.82 793.52,-33.73 797.83,-28.22"/>
</a>
</g>
</g>
<!-- Node27 -->
<g id="Node000027" class="node">
<title>Node27</title>
<g id="a_Node000027"><a xlink:title=" ">
<polygon fill="#e0e0e0" stroke="#999999" points="865.5,-24.5 815.5,-24.5 815.5,-5.5 865.5,-5.5 865.5,-24.5"/>
<text text-anchor="middle" x="840.5" y="-12.5" font-family="Helvetica,sans-Serif" font-size="10.00">cstdint</text>
</a>
</g>
</g>
<!-- Node25&#45;&gt;Node27 -->
<g id="edge28_Node000025_Node000027" class="edge">
<title>Node25&#45;&gt;Node27</title>
<g id="a_edge28_Node000025_Node000027"><a xlink:title=" ">
<path fill="none" stroke="#63b8ff" d="M858.4,-65.77C854.84,-55.87 850.55,-43.95 847.07,-34.26"/>
<polygon fill="#63b8ff" stroke="#63b8ff" points="850.35,-33.04 843.67,-24.82 843.76,-35.41 850.35,-33.04"/>
</a>
</g>
</g>
<!-- Node28 -->
<g id="Node000028" class="node">
<title>Node28</title>
<g id="a_Node000028"><a xlink:title=" ">
<polygon fill="#e0e0e0" stroke="#999999" points="949,-24.5 884,-24.5 884,-5.5 949,-5.5 949,-24.5"/>
<text text-anchor="middle" x="916.5" y="-12.5" font-family="Helvetica,sans-Serif" font-size="10.00">stdexcept</text>
</a>
</g>
</g>
<!-- Node25&#45;&gt;Node28 -->
<g id="edge29_Node000025_Node000028" class="edge">
<title>Node25&#45;&gt;Node28</title>
<g id="a_edge29_Node000025_Node000028"><a xlink:title=" ">
<path fill="none" stroke="#63b8ff" d="M879.98,-65.77C887.55,-55.45 896.74,-42.93 904,-33.04"/>
<polygon fill="#63b8ff" stroke="#63b8ff" points="906.93,-34.95 910.03,-24.82 901.29,-30.81 906.93,-34.95"/>
</a>
</g>
</g>
<!-- Node29&#45;&gt;Node8 -->
<g id="edge34_Node000029_Node000008" class="edge">
<title>Node29&#45;&gt;Node8</title>
<g id="a_edge34_Node000029_Node000008"><a xlink:title=" ">
<path fill="none" stroke="#63b8ff" d="M1235.9,-203.37C1199.08,-195.95 1149.92,-183.04 1110.5,-162 1081.86,-146.71 1054.36,-120.62 1038.2,-103.72"/>
<polygon fill="#63b8ff" stroke="#63b8ff" points="1040.6,-101.17 1031.22,-96.25 1035.49,-105.95 1040.6,-101.17"/>
</a>
</g>
</g>
<!-- Node29&#45;&gt;Node9 -->
<g id="edge33_Node000029_Node000009" class="edge">
<title>Node29&#45;&gt;Node9</title>
<g id="a_edge33_Node000029_Node000009"><a xlink:title=" ">
<path fill="none" stroke="#63b8ff" d="M1236.14,-197.95C1213.73,-190.09 1188.52,-178.48 1169.5,-162 1148.83,-144.08 1112.46,-75.52 1093.98,-39.08"/>
<polygon fill="#63b8ff" stroke="#63b8ff" points="1097.1,-37.5 1089.47,-30.14 1090.85,-40.65 1097.1,-37.5"/>
</a>
</g>
</g>
<!-- Node29&#45;&gt;Node10 -->
<g id="edge47_Node000029_Node000010" class="edge">
<title>Node29&#45;&gt;Node10</title>
<g id="a_edge47_Node000029_Node000010"><a xlink:title=" ">
<path fill="none" stroke="#63b8ff" d="M1235.77,-200.02C1215.49,-192.61 1194.45,-180.77 1182.5,-162 1157.19,-122.23 1175.32,-63.57 1187.27,-34.18"/>
<polygon fill="#63b8ff" stroke="#63b8ff" points="1190.58,-35.33 1191.3,-24.76 1184.15,-32.58 1190.58,-35.33"/>
</a>
</g>
</g>
<!-- Node30 -->
<g id="Node000030" class="node">
<title>Node30</title>
<g id="a_Node000030"><a xlink:href="keymap__profile_8hpp.html" target="_top" xlink:title=" ">
<polygon fill="white" stroke="#666666" points="1304,-162 1191,-162 1191,-143 1304,-143 1304,-162"/>
<text text-anchor="middle" x="1247.5" y="-150" font-family="Helvetica,sans-Serif" font-size="10.00">keymap_profile.hpp</text>
</a>
</g>
</g>
<!-- Node29&#45;&gt;Node30 -->
<g id="edge35_Node000029_Node000030" class="edge">
<title>Node29&#45;&gt;Node30</title>
<g id="a_edge35_Node000029_Node000030"><a xlink:title=" ">
<path fill="none" stroke="#63b8ff" d="M1279.33,-197.84C1273.42,-189.61 1265.94,-179.18 1259.71,-170.51"/>
<polygon fill="#63b8ff" stroke="#63b8ff" points="1262.47,-168.35 1253.79,-162.27 1256.78,-172.43 1262.47,-168.35"/>
</a>
</g>
</g>
<!-- Node32 -->
<g id="Node000032" class="node">
<title>Node32</title>
<g id="a_Node000032"><a xlink:title=" ">
<polygon fill="#e0e0e0" stroke="#999999" points="1400.5,-96 1344.5,-96 1344.5,-77 1400.5,-77 1400.5,-96"/>
<text text-anchor="middle" x="1372.5" y="-84" font-family="Helvetica,sans-Serif" font-size="10.00">QObject</text>
</a>
</g>
</g>
<!-- Node29&#45;&gt;Node32 -->
<g id="edge45_Node000029_Node000032" class="edge">
<title>Node29&#45;&gt;Node32</title>
<g id="a_edge45_Node000029_Node000032"><a xlink:title=" ">
<path fill="none" stroke="#63b8ff" d="M1299.02,-197.72C1314.43,-174.61 1344.75,-129.13 1361.21,-104.43"/>
<polygon fill="#63b8ff" stroke="#63b8ff" points="1364.15,-106.33 1366.79,-96.07 1358.33,-102.45 1364.15,-106.33"/>
</a>
</g>
</g>
<!-- Node33 -->
<g id="Node000033" class="node">
<title>Node33</title>
<g id="a_Node000033"><a xlink:title=" ">
<polygon fill="#e0e0e0" stroke="#999999" points="1482.5,-96 1418.5,-96 1418.5,-77 1482.5,-77 1482.5,-96"/>
<text text-anchor="middle" x="1450.5" y="-84" font-family="Helvetica,sans-Serif" font-size="10.00">QSettings</text>
</a>
</g>
</g>
<!-- Node29&#45;&gt;Node33 -->
<g id="edge46_Node000029_Node000033" class="edge">
<title>Node29&#45;&gt;Node33</title>
<g id="a_edge46_Node000029_Node000033"><a xlink:title=" ">
<path fill="none" stroke="#63b8ff" d="M1307.66,-197.96C1338.33,-174.24 1400.1,-126.47 1431.4,-102.27"/>
<polygon fill="#63b8ff" stroke="#63b8ff" points="1433.6,-105 1439.37,-96.11 1429.31,-99.46 1433.6,-105"/>
</a>
</g>
</g>
<!-- Node35 -->
<g id="Node000035" class="node">
<title>Node35</title>
<g id="a_Node000035"><a xlink:title=" ">
<polygon fill="#e0e0e0" stroke="#999999" points="1436.5,-162 1398.5,-162 1398.5,-143 1436.5,-143 1436.5,-162"/>
<text text-anchor="middle" x="1417.5" y="-150" font-family="Helvetica,sans-Serif" font-size="10.00">QDir</text>
</a>
</g>
</g>
<!-- Node29&#45;&gt;Node35 -->
<g id="edge42_Node000029_Node000035" class="edge">
<title>Node29&#45;&gt;Node35</title>
<g id="a_edge42_Node000029_Node000035"><a xlink:title=" ">
<path fill="none" stroke="#63b8ff" d="M1320.16,-197.99C1341.23,-188.36 1368.99,-175.67 1389.47,-166.31"/>
<polygon fill="#63b8ff" stroke="#63b8ff" points="1390.96,-169.48 1398.6,-162.14 1388.05,-163.11 1390.96,-169.48"/>
</a>
</g>
</g>
<!-- Node29&#45;&gt;Node36 -->
<g id="edge43_Node000029_Node000036" class="edge">
<title>Node29&#45;&gt;Node36</title>
<g id="a_edge43_Node000029_Node000036"><a xlink:title=" ">
<path fill="none" stroke="#63b8ff" d="M1343.28,-200.68C1348.08,-199.75 1352.87,-198.84 1357.5,-198 1455.7,-180.18 1484.2,-184.25 1585,-162.1"/>
<polygon fill="#63b8ff" stroke="#63b8ff" points="1585.99,-165.46 1594.99,-159.87 1584.47,-158.63 1585.99,-165.46"/>
</a>
</g>
</g>
<!-- Node37 -->
<g id="Node000037" class="node">
<title>Node37</title>
<g id="a_Node000037"><a xlink:title=" ">
<polygon fill="#e0e0e0" stroke="#999999" points="1500,-162 1455,-162 1455,-143 1500,-143 1500,-162"/>
<text text-anchor="middle" x="1477.5" y="-150" font-family="Helvetica,sans-Serif" font-size="10.00">QMap</text>
</a>
</g>
</g>
<!-- Node29&#45;&gt;Node37 -->
<g id="edge44_Node000029_Node000037" class="edge">
<title>Node29&#45;&gt;Node37</title>
<g id="a_edge44_Node000029_Node000037"><a xlink:title=" ">
<path fill="none" stroke="#63b8ff" d="M1334.53,-197.99C1368.59,-187.39 1414.55,-173.09 1445.07,-163.59"/>
<polygon fill="#63b8ff" stroke="#63b8ff" points="1446.27,-166.88 1454.78,-160.57 1444.19,-160.2 1446.27,-166.88"/>
</a>
</g>
</g>
<!-- Node38 -->
<g id="Node000038" class="node">
<title>Node38</title>
<g id="a_Node000038"><a xlink:title=" ">
<polygon fill="#e0e0e0" stroke="#999999" points="1577,-162 1518,-162 1518,-143 1577,-143 1577,-162"/>
<text text-anchor="middle" x="1547.5" y="-150" font-family="Helvetica,sans-Serif" font-size="10.00">QVariant</text>
</a>
</g>
</g>
<!-- Node29&#45;&gt;Node38 -->
<g id="edge48_Node000029_Node000038" class="edge">
<title>Node29&#45;&gt;Node38</title>
<g id="a_edge48_Node000029_Node000038"><a xlink:title=" ">
<path fill="none" stroke="#63b8ff" d="M1343.27,-199.81C1392.46,-188.66 1464.07,-172.42 1508.12,-162.43"/>
<polygon fill="#63b8ff" stroke="#63b8ff" points="1508.91,-165.84 1517.89,-160.21 1507.36,-159.01 1508.91,-165.84"/>
</a>
</g>
</g>
<!-- Node30&#45;&gt;Node8 -->
<g id="edge36_Node000030_Node000008" class="edge">
<title>Node30&#45;&gt;Node8</title>
<g id="a_edge36_Node000030_Node000008"><a xlink:title=" ">
<path fill="none" stroke="#63b8ff" d="M1217.29,-142.87C1177.52,-131.5 1107.49,-111.5 1063.39,-98.9"/>
<polygon fill="#63b8ff" stroke="#63b8ff" points="1064.16,-95.48 1053.59,-96.1 1062.24,-102.21 1064.16,-95.48"/>
</a>
</g>
</g>
<!-- Node30&#45;&gt;Node10 -->
<g id="edge40_Node000030_Node000010" class="edge">
<title>Node30&#45;&gt;Node10</title>
<g id="a_edge40_Node000030_Node000010"><a xlink:title=" ">
<path fill="none" stroke="#63b8ff" d="M1241.14,-142.69C1235.11,-133.99 1226.15,-120.11 1220.5,-107 1210.15,-82.96 1202.98,-53.49 1199.05,-34.72"/>
<polygon fill="#63b8ff" stroke="#63b8ff" points="1202.46,-33.92 1197.07,-24.8 1195.6,-35.29 1202.46,-33.92"/>
</a>
</g>
</g>
<!-- Node31 -->
<g id="Node000031" class="node">
<title>Node31</title>
<g id="a_Node000031"><a xlink:title=" ">
<polygon fill="#e0e0e0" stroke="#999999" points="1270,-96 1229,-96 1229,-77 1270,-77 1270,-96"/>
<text text-anchor="middle" x="1249.5" y="-84" font-family="Helvetica,sans-Serif" font-size="10.00">QFile</text>
</a>
</g>
</g>
<!-- Node30&#45;&gt;Node31 -->
<g id="edge37_Node000030_Node000031" class="edge">
<title>Node30&#45;&gt;Node31</title>
<g id="a_edge37_Node000030_Node000031"><a xlink:title=" ">
<path fill="none" stroke="#63b8ff" d="M1247.77,-142.87C1248.06,-133.66 1248.52,-118.79 1248.9,-106.77"/>
<polygon fill="#63b8ff" stroke="#63b8ff" points="1252.41,-106.51 1249.22,-96.41 1245.41,-106.29 1252.41,-106.51"/>
</a>
</g>
</g>
<!-- Node30&#45;&gt;Node32 -->
<g id="edge38_Node000030_Node000032" class="edge">
<title>Node30&#45;&gt;Node32</title>
<g id="a_edge38_Node000030_Node000032"><a xlink:title=" ">
<path fill="none" stroke="#63b8ff" d="M1264.74,-142.89C1282.52,-133.99 1311.01,-119.65 1335.5,-107 1339.35,-105.01 1343.41,-102.89 1347.38,-100.81"/>
<polygon fill="#63b8ff" stroke="#63b8ff" points="1349.1,-103.86 1356.32,-96.1 1345.84,-97.67 1349.1,-103.86"/>
</a>
</g>
</g>
<!-- Node30&#45;&gt;Node33 -->
<g id="edge39_Node000030_Node000033" class="edge">
<title>Node30&#45;&gt;Node33</title>
<g id="a_edge39_Node000030_Node000033"><a xlink:title=" ">
<path fill="none" stroke="#63b8ff" d="M1286.07,-142.93C1319.28,-135.07 1368.22,-122.35 1409.5,-107 1414.54,-105.13 1419.81,-102.86 1424.82,-100.56"/>
<polygon fill="#63b8ff" stroke="#63b8ff" points="1426.52,-103.62 1434.03,-96.15 1423.5,-97.31 1426.52,-103.62"/>
</a>
</g>
</g>
<!-- Node34 -->
<g id="Node000034" class="node">
<title>Node34</title>
<g id="a_Node000034"><a xlink:title=" ">
<polygon fill="#e0e0e0" stroke="#999999" points="1326.5,-96 1288.5,-96 1288.5,-77 1326.5,-77 1326.5,-96"/>
<text text-anchor="middle" x="1307.5" y="-84" font-family="Helvetica,sans-Serif" font-size="10.00">map</text>
</a>
</g>
</g>
<!-- Node30&#45;&gt;Node34 -->
<g id="edge41_Node000030_Node000034" class="edge">
<title>Node30&#45;&gt;Node34</title>
<g id="a_edge41_Node000030_Node000034"><a xlink:title=" ">
<path fill="none" stroke="#63b8ff" d="M1255.59,-142.87C1264.93,-132.9 1280.51,-116.29 1292.16,-103.86"/>
<polygon fill="#63b8ff" stroke="#63b8ff" points="1294.87,-106.09 1299.15,-96.41 1289.76,-101.31 1294.87,-106.09"/>
</a>
</g>
</g>
</g>
</svg>
