<?xml version="1.0" encoding="UTF-8" standalone="no"?>
<!DOCTYPE svg PUBLIC "-//W3C//DTD SVG 1.1//EN"
 "http://www.w3.org/Graphics/SVG/1.1/DTD/svg11.dtd">
<!-- Generated by graphviz version 2.43.0 (0)
 -->
<!-- Title: src/settings/settings_singleton.cpp Pages: 1 -->
<svg width="852pt" height="324pt"
 viewBox="0.00 0.00 852.00 324.00" xmlns="http://www.w3.org/2000/svg" xmlns:xlink="http://www.w3.org/1999/xlink">
<g id="graph0" class="graph" transform="scale(1 1) rotate(0) translate(4 320)">
<title>src/settings/settings_singleton.cpp</title>
<!-- Node1 -->
<g id="Node000001" class="node">
<title>Node1</title>
<g id="a_Node000001"><a xlink:title=" ">
<polygon fill="#999999" stroke="#666666" points="750.5,-316 635.5,-316 635.5,-286 750.5,-286 750.5,-316"/>
<text text-anchor="start" x="643.5" y="-304" font-family="Helvetica,sans-Serif" font-size="10.00">src/settings/settings</text>
<text text-anchor="middle" x="693" y="-293" font-family="Helvetica,sans-Serif" font-size="10.00">_singleton.cpp</text>
</a>
</g>
</g>
<!-- Node2 -->
<g id="Node000002" class="node">
<title>Node2</title>
<g id="a_Node000002"><a xlink:href="settings__singleton_8hpp.html" target="_top" xlink:title=" ">
<polygon fill="white" stroke="#666666" points="523.5,-195 396.5,-195 396.5,-176 523.5,-176 523.5,-195"/>
<text text-anchor="middle" x="460" y="-183" font-family="Helvetica,sans-Serif" font-size="10.00">settings_singleton.hpp</text>
</a>
</g>
</g>
<!-- Node1&#45;&gt;Node2 -->
<g id="edge1_Node000001_Node000002" class="edge">
<title>Node1&#45;&gt;Node2</title>
<g id="a_edge1_Node000001_Node000002"><a xlink:title=" ">
<path fill="none" stroke="#63b8ff" d="M642.67,-285.94C614.88,-277.28 580.19,-264.97 551,-250 524.04,-236.17 495.86,-215.37 478.14,-201.38"/>
<polygon fill="#63b8ff" stroke="#63b8ff" points="480.32,-198.64 470.33,-195.12 475.94,-204.11 480.32,-198.64"/>
</a>
</g>
</g>
<!-- Node16 -->
<g id="Node000016" class="node">
<title>Node16</title>
<g id="a_Node000016"><a xlink:href="appdir_8hpp.html" target="_top" xlink:title=" ">
<polygon fill="white" stroke="#666666" points="731.5,-250 654.5,-250 654.5,-231 731.5,-231 731.5,-250"/>
<text text-anchor="middle" x="693" y="-238" font-family="Helvetica,sans-Serif" font-size="10.00">../appdir.hpp</text>
</a>
</g>
</g>
<!-- Node1&#45;&gt;Node16 -->
<g id="edge21_Node000001_Node000016" class="edge">
<title>Node1&#45;&gt;Node16</title>
<g id="a_edge21_Node000001_Node000016"><a xlink:title=" ">
<path fill="none" stroke="#63b8ff" d="M693,-285.84C693,-278.21 693,-268.7 693,-260.45"/>
<polygon fill="#63b8ff" stroke="#63b8ff" points="696.5,-260.27 693,-250.27 689.5,-260.27 696.5,-260.27"/>
</a>
</g>
</g>
<!-- Node17 -->
<g id="Node000017" class="node">
<title>Node17</title>
<g id="a_Node000017"><a xlink:title=" ">
<polygon fill="#e0e0e0" stroke="#999999" points="821.5,-195 742.5,-195 742.5,-176 821.5,-176 821.5,-195"/>
<text text-anchor="middle" x="782" y="-183" font-family="Helvetica,sans-Serif" font-size="10.00">QApplication</text>
</a>
</g>
</g>
<!-- Node1&#45;&gt;Node17 -->
<g id="edge28_Node000001_Node000017" class="edge">
<title>Node1&#45;&gt;Node17</title>
<g id="a_edge28_Node000001_Node000017"><a xlink:title=" ">
<path fill="none" stroke="#63b8ff" d="M708.06,-285.8C717.94,-276.14 730.85,-262.84 741,-250 752.68,-235.24 764.14,-217.08 771.96,-203.97"/>
<polygon fill="#63b8ff" stroke="#63b8ff" points="775.14,-205.47 777.18,-195.07 769.1,-201.93 775.14,-205.47"/>
</a>
</g>
</g>
<!-- Node19 -->
<g id="Node000019" class="node">
<title>Node19</title>
<g id="a_Node000019"><a xlink:href="settings_8hpp.html" target="_top" xlink:title=" ">
<polygon fill="white" stroke="#666666" points="636.5,-250 559.5,-250 559.5,-231 636.5,-231 636.5,-250"/>
<text text-anchor="middle" x="598" y="-238" font-family="Helvetica,sans-Serif" font-size="10.00">settings.hpp</text>
</a>
</g>
</g>
<!-- Node1&#45;&gt;Node19 -->
<g id="edge25_Node000001_Node000019" class="edge">
<title>Node1&#45;&gt;Node19</title>
<g id="a_edge25_Node000001_Node000019"><a xlink:title=" ">
<path fill="none" stroke="#63b8ff" d="M670,-285.84C655,-276.6 635.5,-264.59 620.57,-255.4"/>
<polygon fill="#63b8ff" stroke="#63b8ff" points="622.31,-252.36 611.96,-250.09 618.64,-258.32 622.31,-252.36"/>
</a>
</g>
</g>
<!-- Node20 -->
<g id="Node000020" class="node">
<title>Node20</title>
<g id="a_Node000020"><a xlink:title=" ">
<polygon fill="#e0e0e0" stroke="#999999" points="844,-250 788,-250 788,-231 844,-231 844,-250"/>
<text text-anchor="middle" x="816" y="-238" font-family="Helvetica,sans-Serif" font-size="10.00">QDebug</text>
</a>
</g>
</g>
<!-- Node1&#45;&gt;Node20 -->
<g id="edge29_Node000001_Node000020" class="edge">
<title>Node1&#45;&gt;Node20</title>
<g id="a_edge29_Node000001_Node000020"><a xlink:title=" ">
<path fill="none" stroke="#63b8ff" d="M722.46,-285.99C742.62,-276.4 769.14,-263.79 788.8,-254.44"/>
<polygon fill="#63b8ff" stroke="#63b8ff" points="790.31,-257.6 797.84,-250.14 787.3,-251.27 790.31,-257.6"/>
</a>
</g>
</g>
<!-- Node3 -->
<g id="Node000003" class="node">
<title>Node3</title>
<g id="a_Node000003"><a xlink:href="GameButtons_8h.html" target="_top" xlink:title=" ">
<polygon fill="white" stroke="#666666" points="136,-30 0,-30 0,0 136,0 136,-30"/>
<text text-anchor="start" x="8" y="-18" font-family="Helvetica,sans-Serif" font-size="10.00">../../VGP_Data_Exchange</text>
<text text-anchor="middle" x="68" y="-7" font-family="Helvetica,sans-Serif" font-size="10.00">/C/GameButtons.h</text>
</a>
</g>
</g>
<!-- Node2&#45;&gt;Node3 -->
<g id="edge2_Node000002_Node000003" class="edge">
<title>Node2&#45;&gt;Node3</title>
<g id="a_edge2_Node000002_Node000003"><a xlink:title=" ">
<path fill="none" stroke="#63b8ff" d="M396.35,-181.3C339.03,-176.78 253.25,-165.95 183,-140 139.03,-123.75 122.66,-121.31 93,-85 82.47,-72.1 76.17,-54.39 72.53,-40.14"/>
<polygon fill="#63b8ff" stroke="#63b8ff" points="75.87,-39.04 70.24,-30.06 69.05,-40.59 75.87,-39.04"/>
</a>
</g>
</g>
<!-- Node4 -->
<g id="Node000004" class="node">
<title>Node4</title>
<g id="a_Node000004"><a xlink:href="input__types_8hpp.html" target="_top" xlink:title=" ">
<polygon fill="white" stroke="#666666" points="197.5,-85 102.5,-85 102.5,-66 197.5,-66 197.5,-85"/>
<text text-anchor="middle" x="150" y="-73" font-family="Helvetica,sans-Serif" font-size="10.00">input_types.hpp</text>
</a>
</g>
</g>
<!-- Node2&#45;&gt;Node4 -->
<g id="edge3_Node000002_Node000004" class="edge">
<title>Node2&#45;&gt;Node4</title>
<g id="a_edge3_Node000002_Node000004"><a xlink:title=" ">
<path fill="none" stroke="#63b8ff" d="M396.42,-183.68C344.15,-180.59 269.59,-170.53 212,-140 191.03,-128.88 172.85,-108.16 161.69,-93.41"/>
<polygon fill="#63b8ff" stroke="#63b8ff" points="164.4,-91.17 155.69,-85.14 158.73,-95.29 164.4,-91.17"/>
</a>
</g>
</g>
<!-- Node5 -->
<g id="Node000005" class="node">
<title>Node5</title>
<g id="a_Node000005"><a xlink:title=" ">
<polygon fill="#e0e0e0" stroke="#999999" points="254.5,-24.5 201.5,-24.5 201.5,-5.5 254.5,-5.5 254.5,-24.5"/>
<text text-anchor="middle" x="228" y="-12.5" font-family="Helvetica,sans-Serif" font-size="10.00">QString</text>
</a>
</g>
</g>
<!-- Node2&#45;&gt;Node5 -->
<g id="edge19_Node000002_Node000005" class="edge">
<title>Node2&#45;&gt;Node5</title>
<g id="a_edge19_Node000002_Node000005"><a xlink:title=" ">
<path fill="none" stroke="#63b8ff" d="M396.37,-179.14C341.21,-173.12 267.17,-161.29 247,-140 220,-111.5 221.6,-61.66 224.91,-34.66"/>
<polygon fill="#63b8ff" stroke="#63b8ff" points="228.4,-35.01 226.36,-24.62 221.47,-34.02 228.4,-35.01"/>
</a>
</g>
</g>
<!-- Node7 -->
<g id="Node000007" class="node">
<title>Node7</title>
<g id="a_Node000007"><a xlink:href="keymap__profile_8hpp.html" target="_top" xlink:title=" ">
<polygon fill="white" stroke="#666666" points="369.5,-140 256.5,-140 256.5,-121 369.5,-121 369.5,-140"/>
<text text-anchor="middle" x="313" y="-128" font-family="Helvetica,sans-Serif" font-size="10.00">keymap_profile.hpp</text>
</a>
</g>
</g>
<!-- Node2&#45;&gt;Node7 -->
<g id="edge7_Node000002_Node000007" class="edge">
<title>Node2&#45;&gt;Node7</title>
<g id="a_edge7_Node000002_Node000007"><a xlink:title=" ">
<path fill="none" stroke="#63b8ff" d="M436.38,-175.98C412.1,-167.23 374.05,-153.51 346.63,-143.62"/>
<polygon fill="#63b8ff" stroke="#63b8ff" points="347.64,-140.27 337.05,-140.17 345.27,-146.85 347.64,-140.27"/>
</a>
</g>
</g>
<!-- Node9 -->
<g id="Node000009" class="node">
<title>Node9</title>
<g id="a_Node000009"><a xlink:title=" ">
<polygon fill="#e0e0e0" stroke="#999999" points="464,-85 408,-85 408,-66 464,-66 464,-85"/>
<text text-anchor="middle" x="436" y="-73" font-family="Helvetica,sans-Serif" font-size="10.00">QObject</text>
</a>
</g>
</g>
<!-- Node2&#45;&gt;Node9 -->
<g id="edge17_Node000002_Node000009" class="edge">
<title>Node2&#45;&gt;Node9</title>
<g id="a_edge17_Node000002_Node000009"><a xlink:title=" ">
<path fill="none" stroke="#63b8ff" d="M449.29,-175.93C440.07,-167.8 427.41,-154.68 422,-140 416.51,-125.12 421.26,-107.46 426.66,-94.54"/>
<polygon fill="#63b8ff" stroke="#63b8ff" points="429.9,-95.88 430.96,-85.34 423.56,-92.92 429.9,-95.88"/>
</a>
</g>
</g>
<!-- Node10 -->
<g id="Node000010" class="node">
<title>Node10</title>
<g id="a_Node000010"><a xlink:title=" ">
<polygon fill="#e0e0e0" stroke="#999999" points="546,-85 482,-85 482,-66 546,-66 546,-85"/>
<text text-anchor="middle" x="514" y="-73" font-family="Helvetica,sans-Serif" font-size="10.00">QSettings</text>
</a>
</g>
</g>
<!-- Node2&#45;&gt;Node10 -->
<g id="edge18_Node000002_Node000010" class="edge">
<title>Node2&#45;&gt;Node10</title>
<g id="a_edge18_Node000002_Node000010"><a xlink:title=" ">
<path fill="none" stroke="#63b8ff" d="M456.59,-175.74C452.2,-162.97 446.12,-138.82 455,-121 461.57,-107.82 474.1,-97.52 485.93,-90.16"/>
<polygon fill="#63b8ff" stroke="#63b8ff" points="487.8,-93.12 494.73,-85.1 484.32,-87.05 487.8,-93.12"/>
</a>
</g>
</g>
<!-- Node12 -->
<g id="Node000012" class="node">
<title>Node12</title>
<g id="a_Node000012"><a xlink:title=" ">
<polygon fill="#e0e0e0" stroke="#999999" points="702,-140 664,-140 664,-121 702,-121 702,-140"/>
<text text-anchor="middle" x="683" y="-128" font-family="Helvetica,sans-Serif" font-size="10.00">QDir</text>
</a>
</g>
</g>
<!-- Node2&#45;&gt;Node12 -->
<g id="edge14_Node000002_Node000012" class="edge">
<title>Node2&#45;&gt;Node12</title>
<g id="a_edge14_Node000002_Node000012"><a xlink:title=" ">
<path fill="none" stroke="#63b8ff" d="M501.29,-175.96C538.82,-168 595.89,-155.41 654.05,-140.11"/>
<polygon fill="#63b8ff" stroke="#63b8ff" points="655,-143.48 663.77,-137.53 653.21,-136.71 655,-143.48"/>
</a>
</g>
</g>
<!-- Node13 -->
<g id="Node000013" class="node">
<title>Node13</title>
<g id="a_Node000013"><a xlink:title=" ">
<polygon fill="#e0e0e0" stroke="#999999" points="505.5,-140 464.5,-140 464.5,-121 505.5,-121 505.5,-140"/>
<text text-anchor="middle" x="485" y="-128" font-family="Helvetica,sans-Serif" font-size="10.00">QList</text>
</a>
</g>
</g>
<!-- Node2&#45;&gt;Node13 -->
<g id="edge15_Node000002_Node000013" class="edge">
<title>Node2&#45;&gt;Node13</title>
<g id="a_edge15_Node000002_Node000013"><a xlink:title=" ">
<path fill="none" stroke="#63b8ff" d="M464.13,-175.75C467.51,-168.57 472.42,-158.18 476.62,-149.27"/>
<polygon fill="#63b8ff" stroke="#63b8ff" points="479.85,-150.63 480.95,-140.09 473.52,-147.64 479.85,-150.63"/>
</a>
</g>
</g>
<!-- Node14 -->
<g id="Node000014" class="node">
<title>Node14</title>
<g id="a_Node000014"><a xlink:title=" ">
<polygon fill="#e0e0e0" stroke="#999999" points="568.5,-140 523.5,-140 523.5,-121 568.5,-121 568.5,-140"/>
<text text-anchor="middle" x="546" y="-128" font-family="Helvetica,sans-Serif" font-size="10.00">QMap</text>
</a>
</g>
</g>
<!-- Node2&#45;&gt;Node14 -->
<g id="edge16_Node000002_Node000014" class="edge">
<title>Node2&#45;&gt;Node14</title>
<g id="a_edge16_Node000002_Node000014"><a xlink:title=" ">
<path fill="none" stroke="#63b8ff" d="M473.82,-175.98C487.15,-167.77 507.58,-155.18 523.31,-145.49"/>
<polygon fill="#63b8ff" stroke="#63b8ff" points="525.25,-148.4 531.93,-140.17 521.58,-142.44 525.25,-148.4"/>
</a>
</g>
</g>
<!-- Node15 -->
<g id="Node000015" class="node">
<title>Node15</title>
<g id="a_Node000015"><a xlink:title=" ">
<polygon fill="#e0e0e0" stroke="#999999" points="645.5,-140 586.5,-140 586.5,-121 645.5,-121 645.5,-140"/>
<text text-anchor="middle" x="616" y="-128" font-family="Helvetica,sans-Serif" font-size="10.00">QVariant</text>
</a>
</g>
</g>
<!-- Node2&#45;&gt;Node15 -->
<g id="edge20_Node000002_Node000015" class="edge">
<title>Node2&#45;&gt;Node15</title>
<g id="a_edge20_Node000002_Node000015"><a xlink:title=" ">
<path fill="none" stroke="#63b8ff" d="M485.06,-175.98C511.03,-167.16 551.81,-153.31 580.96,-143.41"/>
<polygon fill="#63b8ff" stroke="#63b8ff" points="582.4,-146.61 590.74,-140.08 580.15,-139.99 582.4,-146.61"/>
</a>
</g>
</g>
<!-- Node4&#45;&gt;Node3 -->
<g id="edge4_Node000004_Node000003" class="edge">
<title>Node4&#45;&gt;Node3</title>
<g id="a_edge4_Node000004_Node000003"><a xlink:title=" ">
<path fill="none" stroke="#63b8ff" d="M137.9,-65.87C126.98,-58.08 110.49,-46.32 96.28,-36.17"/>
<polygon fill="#63b8ff" stroke="#63b8ff" points="97.96,-33.07 87.78,-30.11 93.89,-38.77 97.96,-33.07"/>
</a>
</g>
</g>
<!-- Node4&#45;&gt;Node5 -->
<g id="edge5_Node000004_Node000005" class="edge">
<title>Node4&#45;&gt;Node5</title>
<g id="a_edge5_Node000004_Node000005"><a xlink:title=" ">
<path fill="none" stroke="#63b8ff" d="M161.51,-65.87C173.84,-56.62 193.62,-41.78 208.41,-30.69"/>
<polygon fill="#63b8ff" stroke="#63b8ff" points="210.54,-33.47 216.44,-24.67 206.34,-27.87 210.54,-33.47"/>
</a>
</g>
</g>
<!-- Node6 -->
<g id="Node000006" class="node">
<title>Node6</title>
<g id="a_Node000006"><a xlink:title=" ">
<polygon fill="#e0e0e0" stroke="#999999" points="183.5,-24.5 154.5,-24.5 154.5,-5.5 183.5,-5.5 183.5,-24.5"/>
<text text-anchor="middle" x="169" y="-12.5" font-family="Helvetica,sans-Serif" font-size="10.00">Qt</text>
</a>
</g>
</g>
<!-- Node4&#45;&gt;Node6 -->
<g id="edge6_Node000004_Node000006" class="edge">
<title>Node4&#45;&gt;Node6</title>
<g id="a_edge6_Node000004_Node000006"><a xlink:title=" ">
<path fill="none" stroke="#63b8ff" d="M152.8,-65.87C155.5,-57.57 159.65,-44.78 163.08,-34.22"/>
<polygon fill="#63b8ff" stroke="#63b8ff" points="166.42,-35.26 166.18,-24.67 159.77,-33.1 166.42,-35.26"/>
</a>
</g>
</g>
<!-- Node7&#45;&gt;Node4 -->
<g id="edge8_Node000007_Node000004" class="edge">
<title>Node7&#45;&gt;Node4</title>
<g id="a_edge8_Node000007_Node000004"><a xlink:title=" ">
<path fill="none" stroke="#63b8ff" d="M286.81,-120.98C259.56,-112.13 216.7,-98.19 186.22,-88.28"/>
<polygon fill="#63b8ff" stroke="#63b8ff" points="186.99,-84.85 176.39,-85.08 184.82,-91.5 186.99,-84.85"/>
</a>
</g>
</g>
<!-- Node7&#45;&gt;Node5 -->
<g id="edge12_Node000007_Node000005" class="edge">
<title>Node7&#45;&gt;Node5</title>
<g id="a_edge12_Node000007_Node000005"><a xlink:title=" ">
<path fill="none" stroke="#63b8ff" d="M306.61,-120.97C292.58,-102.24 258.87,-57.22 240.48,-32.66"/>
<polygon fill="#63b8ff" stroke="#63b8ff" points="243.26,-30.54 234.46,-24.63 237.66,-34.73 243.26,-30.54"/>
</a>
</g>
</g>
<!-- Node8 -->
<g id="Node000008" class="node">
<title>Node8</title>
<g id="a_Node000008"><a xlink:title=" ">
<polygon fill="#e0e0e0" stroke="#999999" points="333.5,-85 292.5,-85 292.5,-66 333.5,-66 333.5,-85"/>
<text text-anchor="middle" x="313" y="-73" font-family="Helvetica,sans-Serif" font-size="10.00">QFile</text>
</a>
</g>
</g>
<!-- Node7&#45;&gt;Node8 -->
<g id="edge9_Node000007_Node000008" class="edge">
<title>Node7&#45;&gt;Node8</title>
<g id="a_edge9_Node000007_Node000008"><a xlink:title=" ">
<path fill="none" stroke="#63b8ff" d="M313,-120.75C313,-113.8 313,-103.85 313,-95.13"/>
<polygon fill="#63b8ff" stroke="#63b8ff" points="316.5,-95.09 313,-85.09 309.5,-95.09 316.5,-95.09"/>
</a>
</g>
</g>
<!-- Node7&#45;&gt;Node9 -->
<g id="edge10_Node000007_Node000009" class="edge">
<title>Node7&#45;&gt;Node9</title>
<g id="a_edge10_Node000007_Node000009"><a xlink:title=" ">
<path fill="none" stroke="#63b8ff" d="M332.76,-120.98C352.73,-112.38 383.8,-98.99 406.65,-89.15"/>
<polygon fill="#63b8ff" stroke="#63b8ff" points="408.08,-92.34 415.88,-85.17 405.31,-85.91 408.08,-92.34"/>
</a>
</g>
</g>
<!-- Node7&#45;&gt;Node10 -->
<g id="edge11_Node000007_Node000010" class="edge">
<title>Node7&#45;&gt;Node10</title>
<g id="a_edge11_Node000007_Node000010"><a xlink:title=" ">
<path fill="none" stroke="#63b8ff" d="M345.29,-120.98C379.73,-111.91 434.38,-97.49 472.11,-87.55"/>
<polygon fill="#63b8ff" stroke="#63b8ff" points="473.01,-90.93 481.79,-84.99 471.22,-84.16 473.01,-90.93"/>
</a>
</g>
</g>
<!-- Node11 -->
<g id="Node000011" class="node">
<title>Node11</title>
<g id="a_Node000011"><a xlink:title=" ">
<polygon fill="#e0e0e0" stroke="#999999" points="390,-85 352,-85 352,-66 390,-66 390,-85"/>
<text text-anchor="middle" x="371" y="-73" font-family="Helvetica,sans-Serif" font-size="10.00">map</text>
</a>
</g>
</g>
<!-- Node7&#45;&gt;Node11 -->
<g id="edge13_Node000007_Node000011" class="edge">
<title>Node7&#45;&gt;Node11</title>
<g id="a_edge13_Node000007_Node000011"><a xlink:title=" ">
<path fill="none" stroke="#63b8ff" d="M322.32,-120.98C330.81,-113.23 343.56,-101.58 353.88,-92.14"/>
<polygon fill="#63b8ff" stroke="#63b8ff" points="356.49,-94.5 361.51,-85.17 351.77,-89.33 356.49,-94.5"/>
</a>
</g>
</g>
<!-- Node16&#45;&gt;Node12 -->
<g id="edge23_Node000016_Node000012" class="edge">
<title>Node16&#45;&gt;Node12</title>
<g id="a_edge23_Node000016_Node000012"><a xlink:title=" ">
<path fill="none" stroke="#63b8ff" d="M682.29,-230.93C673.07,-222.8 660.41,-209.68 655,-195 649.04,-178.84 658.47,-160.92 667.96,-148.25"/>
<polygon fill="#63b8ff" stroke="#63b8ff" points="670.75,-150.36 674.36,-140.4 665.33,-145.94 670.75,-150.36"/>
</a>
</g>
</g>
<!-- Node16&#45;&gt;Node17 -->
<g id="edge22_Node000016_Node000017" class="edge">
<title>Node16&#45;&gt;Node17</title>
<g id="a_edge22_Node000016_Node000017"><a xlink:title=" ">
<path fill="none" stroke="#63b8ff" d="M707.3,-230.98C721.1,-222.77 742.24,-210.18 758.51,-200.49"/>
<polygon fill="#63b8ff" stroke="#63b8ff" points="760.64,-203.29 767.44,-195.17 757.06,-197.28 760.64,-203.29"/>
</a>
</g>
</g>
<!-- Node18 -->
<g id="Node000018" class="node">
<title>Node18</title>
<g id="a_Node000018"><a xlink:title=" ">
<polygon fill="#e0e0e0" stroke="#999999" points="724,-195 664,-195 664,-176 724,-176 724,-195"/>
<text text-anchor="middle" x="694" y="-183" font-family="Helvetica,sans-Serif" font-size="10.00">QFileInfo</text>
</a>
</g>
</g>
<!-- Node16&#45;&gt;Node18 -->
<g id="edge24_Node000016_Node000018" class="edge">
<title>Node16&#45;&gt;Node18</title>
<g id="a_edge24_Node000016_Node000018"><a xlink:title=" ">
<path fill="none" stroke="#63b8ff" d="M693.17,-230.75C693.3,-223.8 693.48,-213.85 693.65,-205.13"/>
<polygon fill="#63b8ff" stroke="#63b8ff" points="697.15,-205.15 693.84,-195.09 690.15,-205.02 697.15,-205.15"/>
</a>
</g>
</g>
<!-- Node19&#45;&gt;Node2 -->
<g id="edge26_Node000019_Node000002" class="edge">
<title>Node19&#45;&gt;Node2</title>
<g id="a_edge26_Node000019_Node000002"><a xlink:title=" ">
<path fill="none" stroke="#63b8ff" d="M575.83,-230.98C553.23,-222.3 517.94,-208.75 492.25,-198.88"/>
<polygon fill="#63b8ff" stroke="#63b8ff" points="493.17,-195.49 482.58,-195.17 490.66,-202.02 493.17,-195.49"/>
</a>
</g>
</g>
<!-- Node19&#45;&gt;Node12 -->
<g id="edge27_Node000019_Node000012" class="edge">
<title>Node19&#45;&gt;Node12</title>
<g id="a_edge27_Node000019_Node000012"><a xlink:title=" ">
<path fill="none" stroke="#63b8ff" d="M604.96,-230.66C619.16,-212.61 651.69,-171.28 669.95,-148.08"/>
<polygon fill="#63b8ff" stroke="#63b8ff" points="672.75,-150.18 676.19,-140.16 667.25,-145.85 672.75,-150.18"/>
</a>
</g>
</g>
</g>
</svg>
