<?xml version="1.0" encoding="UTF-8" standalone="no"?>
<!DOCTYPE svg PUBLIC "-//W3C//DTD SVG 1.1//EN"
 "http://www.w3.org/Graphics/SVG/1.1/DTD/svg11.dtd">
<!-- Generated by graphviz version 2.43.0 (0)
 -->
<!-- Title: src/settings/settings_singleton.hpp Pages: 1 -->
<svg width="710pt" height="214pt"
 viewBox="0.00 0.00 709.50 214.00" xmlns="http://www.w3.org/2000/svg" xmlns:xlink="http://www.w3.org/1999/xlink">
<g id="graph0" class="graph" transform="scale(1 1) rotate(0) translate(4 210)">
<title>src/settings/settings_singleton.hpp</title>
<!-- Node1 -->
<g id="Node000001" class="node">
<title>Node1</title>
<g id="a_Node000001"><a xlink:title=" ">
<polygon fill="#999999" stroke="#666666" points="474.5,-206 359.5,-206 359.5,-176 474.5,-176 474.5,-206"/>
<text text-anchor="start" x="367.5" y="-194" font-family="Helvetica,sans-Serif" font-size="10.00">src/settings/settings</text>
<text text-anchor="middle" x="417" y="-183" font-family="Helvetica,sans-Serif" font-size="10.00">_singleton.hpp</text>
</a>
</g>
</g>
<!-- Node2 -->
<g id="Node000002" class="node">
<title>Node2</title>
<g id="a_Node000002"><a xlink:href="GameButtons_8h.html" target="_top" xlink:title=" ">
<polygon fill="white" stroke="#666666" points="136,-30 0,-30 0,0 136,0 136,-30"/>
<text text-anchor="start" x="8" y="-18" font-family="Helvetica,sans-Serif" font-size="10.00">../../VGP_Data_Exchange</text>
<text text-anchor="middle" x="68" y="-7" font-family="Helvetica,sans-Serif" font-size="10.00">/C/GameButtons.h</text>
</a>
</g>
</g>
<!-- Node1&#45;&gt;Node2 -->
<g id="edge1_Node000001_Node000002" class="edge">
<title>Node1&#45;&gt;Node2</title>
<g id="a_edge1_Node000001_Node000002"><a xlink:title=" ">
<path fill="none" stroke="#63b8ff" d="M359.15,-183.19C310.8,-176.2 240.69,-163.01 183,-140 139.46,-122.63 122.66,-121.31 93,-85 82.47,-72.1 76.17,-54.39 72.53,-40.14"/>
<polygon fill="#63b8ff" stroke="#63b8ff" points="75.87,-39.04 70.24,-30.06 69.05,-40.59 75.87,-39.04"/>
</a>
</g>
</g>
<!-- Node3 -->
<g id="Node000003" class="node">
<title>Node3</title>
<g id="a_Node000003"><a xlink:href="input__types_8hpp.html" target="_top" xlink:title=" ">
<polygon fill="white" stroke="#666666" points="197.5,-85 102.5,-85 102.5,-66 197.5,-66 197.5,-85"/>
<text text-anchor="middle" x="150" y="-73" font-family="Helvetica,sans-Serif" font-size="10.00">input_types.hpp</text>
</a>
</g>
</g>
<!-- Node1&#45;&gt;Node3 -->
<g id="edge2_Node000001_Node000003" class="edge">
<title>Node1&#45;&gt;Node3</title>
<g id="a_edge2_Node000001_Node000003"><a xlink:title=" ">
<path fill="none" stroke="#63b8ff" d="M359.48,-184.61C316.55,-178.6 257.67,-166.04 212,-140 191.61,-128.37 173.52,-108.09 162.23,-93.57"/>
<polygon fill="#63b8ff" stroke="#63b8ff" points="164.91,-91.31 156.11,-85.41 159.31,-95.51 164.91,-91.31"/>
</a>
</g>
</g>
<!-- Node4 -->
<g id="Node000004" class="node">
<title>Node4</title>
<g id="a_Node000004"><a xlink:title=" ">
<polygon fill="#e0e0e0" stroke="#999999" points="254.5,-24.5 201.5,-24.5 201.5,-5.5 254.5,-5.5 254.5,-24.5"/>
<text text-anchor="middle" x="228" y="-12.5" font-family="Helvetica,sans-Serif" font-size="10.00">QString</text>
</a>
</g>
</g>
<!-- Node1&#45;&gt;Node4 -->
<g id="edge18_Node000001_Node000004" class="edge">
<title>Node1&#45;&gt;Node4</title>
<g id="a_edge18_Node000001_Node000004"><a xlink:title=" ">
<path fill="none" stroke="#63b8ff" d="M359.34,-188.25C321.82,-183.91 274.84,-171.85 247,-140 221.29,-110.59 222.28,-61.51 225.18,-34.77"/>
<polygon fill="#63b8ff" stroke="#63b8ff" points="228.65,-35.17 226.46,-24.8 221.71,-34.27 228.65,-35.17"/>
</a>
</g>
</g>
<!-- Node6 -->
<g id="Node000006" class="node">
<title>Node6</title>
<g id="a_Node000006"><a xlink:href="keymap__profile_8hpp.html" target="_top" xlink:title=" ">
<polygon fill="white" stroke="#666666" points="369.5,-140 256.5,-140 256.5,-121 369.5,-121 369.5,-140"/>
<text text-anchor="middle" x="313" y="-128" font-family="Helvetica,sans-Serif" font-size="10.00">keymap_profile.hpp</text>
</a>
</g>
</g>
<!-- Node1&#45;&gt;Node6 -->
<g id="edge6_Node000001_Node000006" class="edge">
<title>Node1&#45;&gt;Node6</title>
<g id="a_edge6_Node000001_Node000006"><a xlink:title=" ">
<path fill="none" stroke="#63b8ff" d="M392.09,-175.99C375.51,-166.66 353.84,-154.47 337.37,-145.21"/>
<polygon fill="#63b8ff" stroke="#63b8ff" points="338.79,-141.99 328.36,-140.14 335.36,-148.09 338.79,-141.99"/>
</a>
</g>
</g>
<!-- Node8 -->
<g id="Node000008" class="node">
<title>Node8</title>
<g id="a_Node000008"><a xlink:title=" ">
<polygon fill="#e0e0e0" stroke="#999999" points="464,-85 408,-85 408,-66 464,-66 464,-85"/>
<text text-anchor="middle" x="436" y="-73" font-family="Helvetica,sans-Serif" font-size="10.00">QObject</text>
</a>
</g>
</g>
<!-- Node1&#45;&gt;Node8 -->
<g id="edge16_Node000001_Node000008" class="edge">
<title>Node1&#45;&gt;Node8</title>
<g id="a_edge16_Node000001_Node000008"><a xlink:title=" ">
<path fill="none" stroke="#63b8ff" d="M417.07,-175.87C417.36,-161.83 418.42,-139.76 422,-121 423.67,-112.25 426.49,-102.8 429.16,-94.87"/>
<polygon fill="#63b8ff" stroke="#63b8ff" points="432.55,-95.8 432.6,-85.21 425.95,-93.46 432.55,-95.8"/>
</a>
</g>
</g>
<!-- Node9 -->
<g id="Node000009" class="node">
<title>Node9</title>
<g id="a_Node000009"><a xlink:title=" ">
<polygon fill="#e0e0e0" stroke="#999999" points="546,-85 482,-85 482,-66 546,-66 546,-85"/>
<text text-anchor="middle" x="514" y="-73" font-family="Helvetica,sans-Serif" font-size="10.00">QSettings</text>
</a>
</g>
</g>
<!-- Node1&#45;&gt;Node9 -->
<g id="edge17_Node000001_Node000009" class="edge">
<title>Node1&#45;&gt;Node9</title>
<g id="a_edge17_Node000001_Node000009"><a xlink:title=" ">
<path fill="none" stroke="#63b8ff" d="M422.62,-175.97C428.99,-161.21 440.4,-137.85 455,-121 465.18,-109.26 478.93,-98.66 490.6,-90.76"/>
<polygon fill="#63b8ff" stroke="#63b8ff" points="492.56,-93.66 499.02,-85.27 488.73,-87.8 492.56,-93.66"/>
</a>
</g>
</g>
<!-- Node11 -->
<g id="Node000011" class="node">
<title>Node11</title>
<g id="a_Node000011"><a xlink:title=" ">
<polygon fill="#e0e0e0" stroke="#999999" points="502,-140 464,-140 464,-121 502,-121 502,-140"/>
<text text-anchor="middle" x="483" y="-128" font-family="Helvetica,sans-Serif" font-size="10.00">QDir</text>
</a>
</g>
</g>
<!-- Node1&#45;&gt;Node11 -->
<g id="edge13_Node000001_Node000011" class="edge">
<title>Node1&#45;&gt;Node11</title>
<g id="a_edge13_Node000001_Node000011"><a xlink:title=" ">
<path fill="none" stroke="#63b8ff" d="M432.98,-175.84C442.75,-167.17 455.27,-156.08 465.34,-147.15"/>
<polygon fill="#63b8ff" stroke="#63b8ff" points="467.95,-149.52 473.11,-140.27 463.31,-144.28 467.95,-149.52"/>
</a>
</g>
</g>
<!-- Node12 -->
<g id="Node000012" class="node">
<title>Node12</title>
<g id="a_Node000012"><a xlink:title=" ">
<polygon fill="#e0e0e0" stroke="#999999" points="561.5,-140 520.5,-140 520.5,-121 561.5,-121 561.5,-140"/>
<text text-anchor="middle" x="541" y="-128" font-family="Helvetica,sans-Serif" font-size="10.00">QList</text>
</a>
</g>
</g>
<!-- Node1&#45;&gt;Node12 -->
<g id="edge14_Node000001_Node000012" class="edge">
<title>Node1&#45;&gt;Node12</title>
<g id="a_edge14_Node000001_Node000012"><a xlink:title=" ">
<path fill="none" stroke="#63b8ff" d="M446.7,-175.99C467.02,-166.4 493.76,-153.79 513.58,-144.44"/>
<polygon fill="#63b8ff" stroke="#63b8ff" points="515.14,-147.57 522.69,-140.14 512.15,-141.24 515.14,-147.57"/>
</a>
</g>
</g>
<!-- Node13 -->
<g id="Node000013" class="node">
<title>Node13</title>
<g id="a_Node000013"><a xlink:title=" ">
<polygon fill="#e0e0e0" stroke="#999999" points="624.5,-140 579.5,-140 579.5,-121 624.5,-121 624.5,-140"/>
<text text-anchor="middle" x="602" y="-128" font-family="Helvetica,sans-Serif" font-size="10.00">QMap</text>
</a>
</g>
</g>
<!-- Node1&#45;&gt;Node13 -->
<g id="edge15_Node000001_Node000013" class="edge">
<title>Node1&#45;&gt;Node13</title>
<g id="a_edge15_Node000001_Node000013"><a xlink:title=" ">
<path fill="none" stroke="#63b8ff" d="M461.31,-175.99C494.73,-165.42 539.8,-151.17 569.83,-141.67"/>
<polygon fill="#63b8ff" stroke="#63b8ff" points="570.91,-145 579.39,-138.65 568.8,-138.33 570.91,-145"/>
</a>
</g>
</g>
<!-- Node14 -->
<g id="Node000014" class="node">
<title>Node14</title>
<g id="a_Node000014"><a xlink:title=" ">
<polygon fill="#e0e0e0" stroke="#999999" points="701.5,-140 642.5,-140 642.5,-121 701.5,-121 701.5,-140"/>
<text text-anchor="middle" x="672" y="-128" font-family="Helvetica,sans-Serif" font-size="10.00">QVariant</text>
</a>
</g>
</g>
<!-- Node1&#45;&gt;Node14 -->
<g id="edge19_Node000001_Node000014" class="edge">
<title>Node1&#45;&gt;Node14</title>
<g id="a_edge19_Node000001_Node000014"><a xlink:title=" ">
<path fill="none" stroke="#63b8ff" d="M474.54,-176.8C522.72,-165.75 590.19,-150.27 632.48,-140.57"/>
<polygon fill="#63b8ff" stroke="#63b8ff" points="633.43,-143.94 642.4,-138.29 631.87,-137.12 633.43,-143.94"/>
</a>
</g>
</g>
<!-- Node3&#45;&gt;Node2 -->
<g id="edge3_Node000003_Node000002" class="edge">
<title>Node3&#45;&gt;Node2</title>
<g id="a_edge3_Node000003_Node000002"><a xlink:title=" ">
<path fill="none" stroke="#63b8ff" d="M137.9,-65.87C126.98,-58.08 110.49,-46.32 96.28,-36.17"/>
<polygon fill="#63b8ff" stroke="#63b8ff" points="97.96,-33.07 87.78,-30.11 93.89,-38.77 97.96,-33.07"/>
</a>
</g>
</g>
<!-- Node3&#45;&gt;Node4 -->
<g id="edge4_Node000003_Node000004" class="edge">
<title>Node3&#45;&gt;Node4</title>
<g id="a_edge4_Node000003_Node000004"><a xlink:title=" ">
<path fill="none" stroke="#63b8ff" d="M161.51,-65.87C173.84,-56.62 193.62,-41.78 208.41,-30.69"/>
<polygon fill="#63b8ff" stroke="#63b8ff" points="210.54,-33.47 216.44,-24.67 206.34,-27.87 210.54,-33.47"/>
</a>
</g>
</g>
<!-- Node5 -->
<g id="Node000005" class="node">
<title>Node5</title>
<g id="a_Node000005"><a xlink:title=" ">
<polygon fill="#e0e0e0" stroke="#999999" points="183.5,-24.5 154.5,-24.5 154.5,-5.5 183.5,-5.5 183.5,-24.5"/>
<text text-anchor="middle" x="169" y="-12.5" font-family="Helvetica,sans-Serif" font-size="10.00">Qt</text>
</a>
</g>
</g>
<!-- Node3&#45;&gt;Node5 -->
<g id="edge5_Node000003_Node000005" class="edge">
<title>Node3&#45;&gt;Node5</title>
<g id="a_edge5_Node000003_Node000005"><a xlink:title=" ">
<path fill="none" stroke="#63b8ff" d="M152.8,-65.87C155.5,-57.57 159.65,-44.78 163.08,-34.22"/>
<polygon fill="#63b8ff" stroke="#63b8ff" points="166.42,-35.26 166.18,-24.67 159.77,-33.1 166.42,-35.26"/>
</a>
</g>
</g>
<!-- Node6&#45;&gt;Node3 -->
<g id="edge7_Node000006_Node000003" class="edge">
<title>Node6&#45;&gt;Node3</title>
<g id="a_edge7_Node000006_Node000003"><a xlink:title=" ">
<path fill="none" stroke="#63b8ff" d="M286.81,-120.98C259.56,-112.13 216.7,-98.19 186.22,-88.28"/>
<polygon fill="#63b8ff" stroke="#63b8ff" points="186.99,-84.85 176.39,-85.08 184.82,-91.5 186.99,-84.85"/>
</a>
</g>
</g>
<!-- Node6&#45;&gt;Node4 -->
<g id="edge11_Node000006_Node000004" class="edge">
<title>Node6&#45;&gt;Node4</title>
<g id="a_edge11_Node000006_Node000004"><a xlink:title=" ">
<path fill="none" stroke="#63b8ff" d="M306.61,-120.97C292.58,-102.24 258.87,-57.22 240.48,-32.66"/>
<polygon fill="#63b8ff" stroke="#63b8ff" points="243.26,-30.54 234.46,-24.63 237.66,-34.73 243.26,-30.54"/>
</a>
</g>
</g>
<!-- Node7 -->
<g id="Node000007" class="node">
<title>Node7</title>
<g id="a_Node000007"><a xlink:title=" ">
<polygon fill="#e0e0e0" stroke="#999999" points="333.5,-85 292.5,-85 292.5,-66 333.5,-66 333.5,-85"/>
<text text-anchor="middle" x="313" y="-73" font-family="Helvetica,sans-Serif" font-size="10.00">QFile</text>
</a>
</g>
</g>
<!-- Node6&#45;&gt;Node7 -->
<g id="edge8_Node000006_Node000007" class="edge">
<title>Node6&#45;&gt;Node7</title>
<g id="a_edge8_Node000006_Node000007"><a xlink:title=" ">
<path fill="none" stroke="#63b8ff" d="M313,-120.75C313,-113.8 313,-103.85 313,-95.13"/>
<polygon fill="#63b8ff" stroke="#63b8ff" points="316.5,-95.09 313,-85.09 309.5,-95.09 316.5,-95.09"/>
</a>
</g>
</g>
<!-- Node6&#45;&gt;Node8 -->
<g id="edge9_Node000006_Node000008" class="edge">
<title>Node6&#45;&gt;Node8</title>
<g id="a_edge9_Node000006_Node000008"><a xlink:title=" ">
<path fill="none" stroke="#63b8ff" d="M332.76,-120.98C352.73,-112.38 383.8,-98.99 406.65,-89.15"/>
<polygon fill="#63b8ff" stroke="#63b8ff" points="408.08,-92.34 415.88,-85.17 405.31,-85.91 408.08,-92.34"/>
</a>
</g>
</g>
<!-- Node6&#45;&gt;Node9 -->
<g id="edge10_Node000006_Node000009" class="edge">
<title>Node6&#45;&gt;Node9</title>
<g id="a_edge10_Node000006_Node000009"><a xlink:title=" ">
<path fill="none" stroke="#63b8ff" d="M345.29,-120.98C379.73,-111.91 434.38,-97.49 472.11,-87.55"/>
<polygon fill="#63b8ff" stroke="#63b8ff" points="473.01,-90.93 481.79,-84.99 471.22,-84.16 473.01,-90.93"/>
</a>
</g>
</g>
<!-- Node10 -->
<g id="Node000010" class="node">
<title>Node10</title>
<g id="a_Node000010"><a xlink:title=" ">
<polygon fill="#e0e0e0" stroke="#999999" points="390,-85 352,-85 352,-66 390,-66 390,-85"/>
<text text-anchor="middle" x="371" y="-73" font-family="Helvetica,sans-Serif" font-size="10.00">map</text>
</a>
</g>
</g>
<!-- Node6&#45;&gt;Node10 -->
<g id="edge12_Node000006_Node000010" class="edge">
<title>Node6&#45;&gt;Node10</title>
<g id="a_edge12_Node000006_Node000010"><a xlink:title=" ">
<path fill="none" stroke="#63b8ff" d="M322.32,-120.98C330.81,-113.23 343.56,-101.58 353.88,-92.14"/>
<polygon fill="#63b8ff" stroke="#63b8ff" points="356.49,-94.5 361.51,-85.17 351.77,-89.33 356.49,-94.5"/>
</a>
</g>
</g>
</g>
</svg>
