<?xml version="1.0" encoding="UTF-8" standalone="no"?>
<!DOCTYPE svg PUBLIC "-//W3C//DTD SVG 1.1//EN"
 "http://www.w3.org/Graphics/SVG/1.1/DTD/svg11.dtd">
<!-- Generated by graphviz version 2.43.0 (0)
 -->
<!-- Title: src/settings/settings.hpp Pages: 1 -->
<svg width="710pt" height="258pt"
 viewBox="0.00 0.00 710.00 258.00" xmlns="http://www.w3.org/2000/svg" xmlns:xlink="http://www.w3.org/1999/xlink">
<g id="graph0" class="graph" transform="scale(1 1) rotate(0) translate(4 254)">
<title>src/settings/settings.hpp</title>
<!-- Node1 -->
<g id="Node000001" class="node">
<title>Node1</title>
<g id="a_Node000001"><a xlink:title=" ">
<polygon fill="#999999" stroke="#666666" points="550,-250 414,-250 414,-231 550,-231 550,-250"/>
<text text-anchor="middle" x="482" y="-238" font-family="Helvetica,sans-Serif" font-size="10.00">src/settings/settings.hpp</text>
</a>
</g>
</g>
<!-- Node2 -->
<g id="Node000002" class="node">
<title>Node2</title>
<g id="a_Node000002"><a xlink:href="settings__singleton_8hpp.html" target="_top" xlink:title=" ">
<polygon fill="white" stroke="#666666" points="499.5,-195 372.5,-195 372.5,-176 499.5,-176 499.5,-195"/>
<text text-anchor="middle" x="436" y="-183" font-family="Helvetica,sans-Serif" font-size="10.00">settings_singleton.hpp</text>
</a>
</g>
</g>
<!-- Node1&#45;&gt;Node2 -->
<g id="edge1_Node000001_Node000002" class="edge">
<title>Node1&#45;&gt;Node2</title>
<g id="a_edge1_Node000001_Node000002"><a xlink:title=" ">
<path fill="none" stroke="#63b8ff" d="M474.4,-230.75C467.84,-223.18 458.18,-212.05 450.19,-202.84"/>
<polygon fill="#63b8ff" stroke="#63b8ff" points="452.65,-200.35 443.45,-195.09 447.37,-204.94 452.65,-200.35"/>
</a>
</g>
</g>
<!-- Node12 -->
<g id="Node000012" class="node">
<title>Node12</title>
<g id="a_Node000012"><a xlink:title=" ">
<polygon fill="#e0e0e0" stroke="#999999" points="702,-140 664,-140 664,-121 702,-121 702,-140"/>
<text text-anchor="middle" x="683" y="-128" font-family="Helvetica,sans-Serif" font-size="10.00">QDir</text>
</a>
</g>
</g>
<!-- Node1&#45;&gt;Node12 -->
<g id="edge21_Node000001_Node000012" class="edge">
<title>Node1&#45;&gt;Node12</title>
<g id="a_edge21_Node000001_Node000012"><a xlink:title=" ">
<path fill="none" stroke="#63b8ff" d="M498.11,-230.84C533.11,-212.04 616.31,-167.33 658.12,-144.87"/>
<polygon fill="#63b8ff" stroke="#63b8ff" points="659.94,-147.86 667.09,-140.05 656.63,-141.7 659.94,-147.86"/>
</a>
</g>
</g>
<!-- Node3 -->
<g id="Node000003" class="node">
<title>Node3</title>
<g id="a_Node000003"><a xlink:href="GameButtons_8h.html" target="_top" xlink:title=" ">
<polygon fill="white" stroke="#666666" points="136,-30 0,-30 0,0 136,0 136,-30"/>
<text text-anchor="start" x="8" y="-18" font-family="Helvetica,sans-Serif" font-size="10.00">../../VGP_Data_Exchange</text>
<text text-anchor="middle" x="68" y="-7" font-family="Helvetica,sans-Serif" font-size="10.00">/C/GameButtons.h</text>
</a>
</g>
</g>
<!-- Node2&#45;&gt;Node3 -->
<g id="edge2_Node000002_Node000003" class="edge">
<title>Node2&#45;&gt;Node3</title>
<g id="a_edge2_Node000002_Node000003"><a xlink:title=" ">
<path fill="none" stroke="#63b8ff" d="M372.4,-179.93C320.16,-174.64 244.95,-163.41 183,-140 139.15,-123.43 122.66,-121.31 93,-85 82.47,-72.1 76.17,-54.39 72.53,-40.14"/>
<polygon fill="#63b8ff" stroke="#63b8ff" points="75.87,-39.04 70.24,-30.06 69.05,-40.59 75.87,-39.04"/>
</a>
</g>
</g>
<!-- Node4 -->
<g id="Node000004" class="node">
<title>Node4</title>
<g id="a_Node000004"><a xlink:href="input__types_8hpp.html" target="_top" xlink:title=" ">
<polygon fill="white" stroke="#666666" points="197.5,-85 102.5,-85 102.5,-66 197.5,-66 197.5,-85"/>
<text text-anchor="middle" x="150" y="-73" font-family="Helvetica,sans-Serif" font-size="10.00">input_types.hpp</text>
</a>
</g>
</g>
<!-- Node2&#45;&gt;Node4 -->
<g id="edge3_Node000002_Node000004" class="edge">
<title>Node2&#45;&gt;Node4</title>
<g id="a_edge3_Node000002_Node000004"><a xlink:title=" ">
<path fill="none" stroke="#63b8ff" d="M372.24,-181.89C325.45,-177.66 261.67,-166.93 212,-140 191.14,-128.69 172.93,-108 161.74,-93.31"/>
<polygon fill="#63b8ff" stroke="#63b8ff" points="164.45,-91.09 155.72,-85.08 158.8,-95.22 164.45,-91.09"/>
</a>
</g>
</g>
<!-- Node5 -->
<g id="Node000005" class="node">
<title>Node5</title>
<g id="a_Node000005"><a xlink:title=" ">
<polygon fill="#e0e0e0" stroke="#999999" points="254.5,-24.5 201.5,-24.5 201.5,-5.5 254.5,-5.5 254.5,-24.5"/>
<text text-anchor="middle" x="228" y="-12.5" font-family="Helvetica,sans-Serif" font-size="10.00">QString</text>
</a>
</g>
</g>
<!-- Node2&#45;&gt;Node5 -->
<g id="edge19_Node000002_Node000005" class="edge">
<title>Node2&#45;&gt;Node5</title>
<g id="a_edge19_Node000002_Node000005"><a xlink:title=" ">
<path fill="none" stroke="#63b8ff" d="M372.02,-177.14C324.04,-170.25 263.87,-158.26 247,-140 220.36,-111.16 221.82,-61.46 225.01,-34.57"/>
<polygon fill="#63b8ff" stroke="#63b8ff" points="228.49,-34.96 226.41,-24.57 221.56,-33.99 228.49,-34.96"/>
</a>
</g>
</g>
<!-- Node7 -->
<g id="Node000007" class="node">
<title>Node7</title>
<g id="a_Node000007"><a xlink:href="keymap__profile_8hpp.html" target="_top" xlink:title=" ">
<polygon fill="white" stroke="#666666" points="369.5,-140 256.5,-140 256.5,-121 369.5,-121 369.5,-140"/>
<text text-anchor="middle" x="313" y="-128" font-family="Helvetica,sans-Serif" font-size="10.00">keymap_profile.hpp</text>
</a>
</g>
</g>
<!-- Node2&#45;&gt;Node7 -->
<g id="edge7_Node000002_Node000007" class="edge">
<title>Node2&#45;&gt;Node7</title>
<g id="a_edge7_Node000002_Node000007"><a xlink:title=" ">
<path fill="none" stroke="#63b8ff" d="M416.24,-175.98C396.27,-167.38 365.2,-153.99 342.35,-144.15"/>
<polygon fill="#63b8ff" stroke="#63b8ff" points="343.69,-140.91 333.12,-140.17 340.92,-147.34 343.69,-140.91"/>
</a>
</g>
</g>
<!-- Node9 -->
<g id="Node000009" class="node">
<title>Node9</title>
<g id="a_Node000009"><a xlink:title=" ">
<polygon fill="#e0e0e0" stroke="#999999" points="464,-85 408,-85 408,-66 464,-66 464,-85"/>
<text text-anchor="middle" x="436" y="-73" font-family="Helvetica,sans-Serif" font-size="10.00">QObject</text>
</a>
</g>
</g>
<!-- Node2&#45;&gt;Node9 -->
<g id="edge17_Node000002_Node000009" class="edge">
<title>Node2&#45;&gt;Node9</title>
<g id="a_edge17_Node000002_Node000009"><a xlink:title=" ">
<path fill="none" stroke="#63b8ff" d="M432.04,-175.94C426.91,-163.8 418.95,-140.86 422,-121 423.35,-112.19 426.13,-102.74 428.85,-94.82"/>
<polygon fill="#63b8ff" stroke="#63b8ff" points="432.23,-95.77 432.4,-85.18 425.66,-93.35 432.23,-95.77"/>
</a>
</g>
</g>
<!-- Node10 -->
<g id="Node000010" class="node">
<title>Node10</title>
<g id="a_Node000010"><a xlink:title=" ">
<polygon fill="#e0e0e0" stroke="#999999" points="546,-85 482,-85 482,-66 546,-66 546,-85"/>
<text text-anchor="middle" x="514" y="-73" font-family="Helvetica,sans-Serif" font-size="10.00">QSettings</text>
</a>
</g>
</g>
<!-- Node2&#45;&gt;Node10 -->
<g id="edge18_Node000002_Node000010" class="edge">
<title>Node2&#45;&gt;Node10</title>
<g id="a_edge18_Node000002_Node000010"><a xlink:title=" ">
<path fill="none" stroke="#63b8ff" d="M436.85,-175.96C438.48,-163.04 443.04,-138.19 455,-121 463.7,-108.49 477.02,-98.02 488.8,-90.37"/>
<polygon fill="#63b8ff" stroke="#63b8ff" points="490.72,-93.31 497.41,-85.1 487.06,-87.34 490.72,-93.31"/>
</a>
</g>
</g>
<!-- Node2&#45;&gt;Node12 -->
<g id="edge14_Node000002_Node000012" class="edge">
<title>Node2&#45;&gt;Node12</title>
<g id="a_edge14_Node000002_Node000012"><a xlink:title=" ">
<path fill="none" stroke="#63b8ff" d="M484.57,-175.99C526.97,-168.25 590.33,-155.96 653.98,-140.07"/>
<polygon fill="#63b8ff" stroke="#63b8ff" points="654.95,-143.44 663.79,-137.59 653.23,-136.65 654.95,-143.44"/>
</a>
</g>
</g>
<!-- Node13 -->
<g id="Node000013" class="node">
<title>Node13</title>
<g id="a_Node000013"><a xlink:title=" ">
<polygon fill="#e0e0e0" stroke="#999999" points="505.5,-140 464.5,-140 464.5,-121 505.5,-121 505.5,-140"/>
<text text-anchor="middle" x="485" y="-128" font-family="Helvetica,sans-Serif" font-size="10.00">QList</text>
</a>
</g>
</g>
<!-- Node2&#45;&gt;Node13 -->
<g id="edge15_Node000002_Node000013" class="edge">
<title>Node2&#45;&gt;Node13</title>
<g id="a_edge15_Node000002_Node000013"><a xlink:title=" ">
<path fill="none" stroke="#63b8ff" d="M444.09,-175.75C451.16,-168.11 461.59,-156.82 470.15,-147.56"/>
<polygon fill="#63b8ff" stroke="#63b8ff" points="472.84,-149.81 477.06,-140.09 467.7,-145.06 472.84,-149.81"/>
</a>
</g>
</g>
<!-- Node14 -->
<g id="Node000014" class="node">
<title>Node14</title>
<g id="a_Node000014"><a xlink:title=" ">
<polygon fill="#e0e0e0" stroke="#999999" points="568.5,-140 523.5,-140 523.5,-121 568.5,-121 568.5,-140"/>
<text text-anchor="middle" x="546" y="-128" font-family="Helvetica,sans-Serif" font-size="10.00">QMap</text>
</a>
</g>
</g>
<!-- Node2&#45;&gt;Node14 -->
<g id="edge16_Node000002_Node000014" class="edge">
<title>Node2&#45;&gt;Node14</title>
<g id="a_edge16_Node000002_Node000014"><a xlink:title=" ">
<path fill="none" stroke="#63b8ff" d="M453.67,-175.98C471.29,-167.5 498.58,-154.35 518.93,-144.54"/>
<polygon fill="#63b8ff" stroke="#63b8ff" points="520.52,-147.66 528.01,-140.17 517.48,-141.36 520.52,-147.66"/>
</a>
</g>
</g>
<!-- Node15 -->
<g id="Node000015" class="node">
<title>Node15</title>
<g id="a_Node000015"><a xlink:title=" ">
<polygon fill="#e0e0e0" stroke="#999999" points="645.5,-140 586.5,-140 586.5,-121 645.5,-121 645.5,-140"/>
<text text-anchor="middle" x="616" y="-128" font-family="Helvetica,sans-Serif" font-size="10.00">QVariant</text>
</a>
</g>
</g>
<!-- Node2&#45;&gt;Node15 -->
<g id="edge20_Node000002_Node000015" class="edge">
<title>Node2&#45;&gt;Node15</title>
<g id="a_edge20_Node000002_Node000015"><a xlink:title=" ">
<path fill="none" stroke="#63b8ff" d="M464.92,-175.98C495.27,-167.05 543.17,-152.94 576.88,-143.02"/>
<polygon fill="#63b8ff" stroke="#63b8ff" points="578.25,-146.26 586.85,-140.08 576.27,-139.55 578.25,-146.26"/>
</a>
</g>
</g>
<!-- Node4&#45;&gt;Node3 -->
<g id="edge4_Node000004_Node000003" class="edge">
<title>Node4&#45;&gt;Node3</title>
<g id="a_edge4_Node000004_Node000003"><a xlink:title=" ">
<path fill="none" stroke="#63b8ff" d="M137.9,-65.87C126.98,-58.08 110.49,-46.32 96.28,-36.17"/>
<polygon fill="#63b8ff" stroke="#63b8ff" points="97.96,-33.07 87.78,-30.11 93.89,-38.77 97.96,-33.07"/>
</a>
</g>
</g>
<!-- Node4&#45;&gt;Node5 -->
<g id="edge5_Node000004_Node000005" class="edge">
<title>Node4&#45;&gt;Node5</title>
<g id="a_edge5_Node000004_Node000005"><a xlink:title=" ">
<path fill="none" stroke="#63b8ff" d="M161.51,-65.87C173.84,-56.62 193.62,-41.78 208.41,-30.69"/>
<polygon fill="#63b8ff" stroke="#63b8ff" points="210.54,-33.47 216.44,-24.67 206.34,-27.87 210.54,-33.47"/>
</a>
</g>
</g>
<!-- Node6 -->
<g id="Node000006" class="node">
<title>Node6</title>
<g id="a_Node000006"><a xlink:title=" ">
<polygon fill="#e0e0e0" stroke="#999999" points="183.5,-24.5 154.5,-24.5 154.5,-5.5 183.5,-5.5 183.5,-24.5"/>
<text text-anchor="middle" x="169" y="-12.5" font-family="Helvetica,sans-Serif" font-size="10.00">Qt</text>
</a>
</g>
</g>
<!-- Node4&#45;&gt;Node6 -->
<g id="edge6_Node000004_Node000006" class="edge">
<title>Node4&#45;&gt;Node6</title>
<g id="a_edge6_Node000004_Node000006"><a xlink:title=" ">
<path fill="none" stroke="#63b8ff" d="M152.8,-65.87C155.5,-57.57 159.65,-44.78 163.08,-34.22"/>
<polygon fill="#63b8ff" stroke="#63b8ff" points="166.42,-35.26 166.18,-24.67 159.77,-33.1 166.42,-35.26"/>
</a>
</g>
</g>
<!-- Node7&#45;&gt;Node4 -->
<g id="edge8_Node000007_Node000004" class="edge">
<title>Node7&#45;&gt;Node4</title>
<g id="a_edge8_Node000007_Node000004"><a xlink:title=" ">
<path fill="none" stroke="#63b8ff" d="M286.81,-120.98C259.56,-112.13 216.7,-98.19 186.22,-88.28"/>
<polygon fill="#63b8ff" stroke="#63b8ff" points="186.99,-84.85 176.39,-85.08 184.82,-91.5 186.99,-84.85"/>
</a>
</g>
</g>
<!-- Node7&#45;&gt;Node5 -->
<g id="edge12_Node000007_Node000005" class="edge">
<title>Node7&#45;&gt;Node5</title>
<g id="a_edge12_Node000007_Node000005"><a xlink:title=" ">
<path fill="none" stroke="#63b8ff" d="M306.61,-120.97C292.58,-102.24 258.87,-57.22 240.48,-32.66"/>
<polygon fill="#63b8ff" stroke="#63b8ff" points="243.26,-30.54 234.46,-24.63 237.66,-34.73 243.26,-30.54"/>
</a>
</g>
</g>
<!-- Node8 -->
<g id="Node000008" class="node">
<title>Node8</title>
<g id="a_Node000008"><a xlink:title=" ">
<polygon fill="#e0e0e0" stroke="#999999" points="333.5,-85 292.5,-85 292.5,-66 333.5,-66 333.5,-85"/>
<text text-anchor="middle" x="313" y="-73" font-family="Helvetica,sans-Serif" font-size="10.00">QFile</text>
</a>
</g>
</g>
<!-- Node7&#45;&gt;Node8 -->
<g id="edge9_Node000007_Node000008" class="edge">
<title>Node7&#45;&gt;Node8</title>
<g id="a_edge9_Node000007_Node000008"><a xlink:title=" ">
<path fill="none" stroke="#63b8ff" d="M313,-120.75C313,-113.8 313,-103.85 313,-95.13"/>
<polygon fill="#63b8ff" stroke="#63b8ff" points="316.5,-95.09 313,-85.09 309.5,-95.09 316.5,-95.09"/>
</a>
</g>
</g>
<!-- Node7&#45;&gt;Node9 -->
<g id="edge10_Node000007_Node000009" class="edge">
<title>Node7&#45;&gt;Node9</title>
<g id="a_edge10_Node000007_Node000009"><a xlink:title=" ">
<path fill="none" stroke="#63b8ff" d="M332.76,-120.98C352.73,-112.38 383.8,-98.99 406.65,-89.15"/>
<polygon fill="#63b8ff" stroke="#63b8ff" points="408.08,-92.34 415.88,-85.17 405.31,-85.91 408.08,-92.34"/>
</a>
</g>
</g>
<!-- Node7&#45;&gt;Node10 -->
<g id="edge11_Node000007_Node000010" class="edge">
<title>Node7&#45;&gt;Node10</title>
<g id="a_edge11_Node000007_Node000010"><a xlink:title=" ">
<path fill="none" stroke="#63b8ff" d="M345.29,-120.98C379.73,-111.91 434.38,-97.49 472.11,-87.55"/>
<polygon fill="#63b8ff" stroke="#63b8ff" points="473.01,-90.93 481.79,-84.99 471.22,-84.16 473.01,-90.93"/>
</a>
</g>
</g>
<!-- Node11 -->
<g id="Node000011" class="node">
<title>Node11</title>
<g id="a_Node000011"><a xlink:title=" ">
<polygon fill="#e0e0e0" stroke="#999999" points="390,-85 352,-85 352,-66 390,-66 390,-85"/>
<text text-anchor="middle" x="371" y="-73" font-family="Helvetica,sans-Serif" font-size="10.00">map</text>
</a>
</g>
</g>
<!-- Node7&#45;&gt;Node11 -->
<g id="edge13_Node000007_Node000011" class="edge">
<title>Node7&#45;&gt;Node11</title>
<g id="a_edge13_Node000007_Node000011"><a xlink:title=" ">
<path fill="none" stroke="#63b8ff" d="M322.32,-120.98C330.81,-113.23 343.56,-101.58 353.88,-92.14"/>
<polygon fill="#63b8ff" stroke="#63b8ff" points="356.49,-94.5 361.51,-85.17 351.77,-89.33 356.49,-94.5"/>
</a>
</g>
</g>
</g>
</svg>
