<?xml version="1.0" encoding="UTF-8" standalone="no"?>
<!DOCTYPE svg PUBLIC "-//W3C//DTD SVG 1.1//EN"
 "http://www.w3.org/Graphics/SVG/1.1/DTD/svg11.dtd">
<!-- Generated by graphviz version 2.43.0 (0)
 -->
<!-- Title: src/settings_key_variables.h Pages: 1 -->
<svg width="748pt" height="82pt"
 viewBox="0.00 0.00 747.50 82.00" xmlns="http://www.w3.org/2000/svg" xmlns:xlink="http://www.w3.org/1999/xlink">
<g id="graph0" class="graph" transform="scale(1 1) rotate(0) translate(4 78)">
<title>src/settings_key_variables.h</title>
<!-- Node1 -->
<g id="Node000001" class="node">
<title>Node1</title>
<g id="a_Node000001"><a xlink:title=" ">
<polygon fill="#999999" stroke="#666666" points="465,-74 310,-74 310,-55 465,-55 465,-74"/>
<text text-anchor="middle" x="387.5" y="-62" font-family="Helvetica,sans-Serif" font-size="10.00">src/settings_key_variables.h</text>
</a>
</g>
</g>
<!-- Node2 -->
<g id="Node000002" class="node">
<title>Node2</title>
<g id="a_Node000002"><a xlink:href="executor_8cpp.html" target="_top" xlink:title=" ">
<polygon fill="white" stroke="#666666" points="153,-19 0,-19 0,0 153,0 153,-19"/>
<text text-anchor="middle" x="76.5" y="-7" font-family="Helvetica,sans-Serif" font-size="10.00">src/networking/executor.cpp</text>
</a>
</g>
</g>
<!-- Node1&#45;&gt;Node2 -->
<g id="edge1_Node000001_Node000002" class="edge">
<title>Node1&#45;&gt;Node2</title>
<g id="a_edge1_Node000001_Node000002"><a xlink:title=" ">
<path fill="none" stroke="#63b8ff" d="M327.34,-53.25C268.94,-43.3 181.32,-28.36 126.6,-19.04"/>
<polygon fill="#63b8ff" stroke="#63b8ff" points="327.09,-56.75 337.53,-54.98 328.26,-49.85 327.09,-56.75"/>
</a>
</g>
</g>
<!-- Node3 -->
<g id="Node000003" class="node">
<title>Node3</title>
<g id="a_Node000003"><a xlink:href="server_8cpp.html" target="_top" xlink:title=" ">
<polygon fill="white" stroke="#666666" points="313.5,-19 171.5,-19 171.5,0 313.5,0 313.5,-19"/>
<text text-anchor="middle" x="242.5" y="-7" font-family="Helvetica,sans-Serif" font-size="10.00">src/networking/server.cpp</text>
</a>
</g>
</g>
<!-- Node1&#45;&gt;Node3 -->
<g id="edge2_Node000001_Node000003" class="edge">
<title>Node1&#45;&gt;Node3</title>
<g id="a_edge2_Node000001_Node000003"><a xlink:title=" ">
<path fill="none" stroke="#63b8ff" d="M354.81,-51.55C327.88,-41.71 290.34,-27.98 266.22,-19.17"/>
<polygon fill="#63b8ff" stroke="#63b8ff" points="353.61,-54.84 364.2,-54.98 356.01,-48.26 353.61,-54.84"/>
</a>
</g>
</g>
<!-- Node4 -->
<g id="Node000004" class="node">
<title>Node4</title>
<g id="a_Node000004"><a xlink:href="preferences_8cpp.html" target="_top" xlink:title=" ">
<polygon fill="white" stroke="#666666" points="443.5,-19 331.5,-19 331.5,0 443.5,0 443.5,-19"/>
<text text-anchor="middle" x="387.5" y="-7" font-family="Helvetica,sans-Serif" font-size="10.00">src/preferences.cpp</text>
</a>
</g>
</g>
<!-- Node1&#45;&gt;Node4 -->
<g id="edge3_Node000001_Node000004" class="edge">
<title>Node1&#45;&gt;Node4</title>
<g id="a_edge3_Node000001_Node000004"><a xlink:title=" ">
<path fill="none" stroke="#63b8ff" d="M387.5,-44.66C387.5,-35.93 387.5,-25.99 387.5,-19.09"/>
<polygon fill="#63b8ff" stroke="#63b8ff" points="384,-44.75 387.5,-54.75 391,-44.75 384,-44.75"/>
</a>
</g>
</g>
<!-- Node5 -->
<g id="Node000005" class="node">
<title>Node5</title>
<g id="a_Node000005"><a xlink:href="settings_8cpp.html" target="_top" xlink:title=" ">
<polygon fill="white" stroke="#666666" points="555,-19 462,-19 462,0 555,0 555,-19"/>
<text text-anchor="middle" x="508.5" y="-7" font-family="Helvetica,sans-Serif" font-size="10.00">src/settings.cpp</text>
</a>
</g>
</g>
<!-- Node1&#45;&gt;Node5 -->
<g id="edge4_Node000001_Node000005" class="edge">
<title>Node1&#45;&gt;Node5</title>
<g id="a_edge4_Node000001_Node000005"><a xlink:title=" ">
<path fill="none" stroke="#63b8ff" d="M416.27,-50.9C438.62,-41.11 469.02,-27.79 488.71,-19.17"/>
<polygon fill="#63b8ff" stroke="#63b8ff" points="414.7,-47.77 406.94,-54.98 417.5,-54.18 414.7,-47.77"/>
</a>
</g>
</g>
<!-- Node6 -->
<g id="Node000006" class="node">
<title>Node6</title>
<g id="a_Node000006"><a xlink:href="settings__key__variables_8cpp.html" target="_top" xlink:title=" ">
<polygon fill="white" stroke="#666666" points="739.5,-19 573.5,-19 573.5,0 739.5,0 739.5,-19"/>
<text text-anchor="middle" x="656.5" y="-7" font-family="Helvetica,sans-Serif" font-size="10.00">src/settings_key_variables.cpp</text>
</a>
</g>
</g>
<!-- Node1&#45;&gt;Node6 -->
<g id="edge5_Node000001_Node000006" class="edge">
<title>Node1&#45;&gt;Node6</title>
<g id="a_edge5_Node000001_Node000006"><a xlink:title=" ">
<path fill="none" stroke="#63b8ff" d="M440.78,-53C491.2,-43.07 565.98,-28.33 612.94,-19.08"/>
<polygon fill="#63b8ff" stroke="#63b8ff" points="439.85,-49.62 430.72,-54.98 441.21,-56.49 439.85,-49.62"/>
</a>
</g>
</g>
</g>
</svg>
