<?xml version="1.0" encoding="UTF-8" standalone="no"?>
<!DOCTYPE svg PUBLIC "-//W3C//DTD SVG 1.1//EN"
 "http://www.w3.org/Graphics/SVG/1.1/DTD/svg11.dtd">
<!-- Generated by graphviz version 2.43.0 (0)
 -->
<!-- Title: src/settings/settings_singleton.cpp Pages: 1 -->
<svg width="739pt" height="324pt"
 viewBox="0.00 0.00 738.50 324.00" xmlns="http://www.w3.org/2000/svg" xmlns:xlink="http://www.w3.org/1999/xlink">
<g id="graph0" class="graph" transform="scale(1 1) rotate(0) translate(4 320)">
<title>src/settings/settings_singleton.cpp</title>
<!-- Node1 -->
<g id="Node000001" class="node">
<title>Node1</title>
<g id="a_Node000001"><a xlink:title=" ">
<polygon fill="#999999" stroke="#666666" points="627,-316 512,-316 512,-286 627,-286 627,-316"/>
<text text-anchor="start" x="520" y="-304" font-family="Helvetica,sans-Serif" font-size="10.00">src/settings/settings</text>
<text text-anchor="middle" x="569.5" y="-293" font-family="Helvetica,sans-Serif" font-size="10.00">_singleton.cpp</text>
</a>
</g>
</g>
<!-- Node2 -->
<g id="Node000002" class="node">
<title>Node2</title>
<g id="a_Node000002"><a xlink:href="settings__singleton_8hpp.html" target="_top" xlink:title=" ">
<polygon fill="white" stroke="#666666" points="518,-195 391,-195 391,-176 518,-176 518,-195"/>
<text text-anchor="middle" x="454.5" y="-183" font-family="Helvetica,sans-Serif" font-size="10.00">settings_singleton.hpp</text>
</a>
</g>
</g>
<!-- Node1&#45;&gt;Node2 -->
<g id="edge1_Node000001_Node000002" class="edge">
<title>Node1&#45;&gt;Node2</title>
<g id="a_edge1_Node000001_Node000002"><a xlink:title=" ">
<path fill="none" stroke="#63b8ff" d="M526.81,-285.97C508.45,-278.01 488.12,-266.31 474.5,-250 463.97,-237.39 458.96,-219.19 456.6,-205.51"/>
<polygon fill="#63b8ff" stroke="#63b8ff" points="460.02,-204.72 455.17,-195.3 453.09,-205.69 460.02,-204.72"/>
</a>
</g>
</g>
<!-- Node18 -->
<g id="Node000018" class="node">
<title>Node18</title>
<g id="a_Node000018"><a xlink:href="settings_8hpp.html" target="_top" xlink:title=" ">
<polygon fill="white" stroke="#666666" points="560,-250 483,-250 483,-231 560,-231 560,-250"/>
<text text-anchor="middle" x="521.5" y="-238" font-family="Helvetica,sans-Serif" font-size="10.00">settings.hpp</text>
</a>
</g>
</g>
<!-- Node1&#45;&gt;Node18 -->
<g id="edge24_Node000001_Node000018" class="edge">
<title>Node1&#45;&gt;Node18</title>
<g id="a_edge24_Node000001_Node000018"><a xlink:title=" ">
<path fill="none" stroke="#63b8ff" d="M557.88,-285.84C551.06,-277.52 542.39,-266.96 535.23,-258.23"/>
<polygon fill="#63b8ff" stroke="#63b8ff" points="537.74,-255.78 528.69,-250.27 532.33,-260.22 537.74,-255.78"/>
</a>
</g>
</g>
<!-- Node19 -->
<g id="Node000019" class="node">
<title>Node19</title>
<g id="a_Node000019"><a xlink:title=" ">
<polygon fill="#e0e0e0" stroke="#999999" points="657,-250 578,-250 578,-231 657,-231 657,-250"/>
<text text-anchor="middle" x="617.5" y="-238" font-family="Helvetica,sans-Serif" font-size="10.00">QApplication</text>
</a>
</g>
</g>
<!-- Node1&#45;&gt;Node19 -->
<g id="edge27_Node000001_Node000019" class="edge">
<title>Node1&#45;&gt;Node19</title>
<g id="a_edge27_Node000001_Node000019"><a xlink:title=" ">
<path fill="none" stroke="#63b8ff" d="M581.12,-285.84C587.94,-277.52 596.61,-266.96 603.77,-258.23"/>
<polygon fill="#63b8ff" stroke="#63b8ff" points="606.67,-260.22 610.31,-250.27 601.26,-255.78 606.67,-260.22"/>
</a>
</g>
</g>
<!-- Node20 -->
<g id="Node000020" class="node">
<title>Node20</title>
<g id="a_Node000020"><a xlink:title=" ">
<polygon fill="#e0e0e0" stroke="#999999" points="730.5,-250 674.5,-250 674.5,-231 730.5,-231 730.5,-250"/>
<text text-anchor="middle" x="702.5" y="-238" font-family="Helvetica,sans-Serif" font-size="10.00">QDebug</text>
</a>
</g>
</g>
<!-- Node1&#45;&gt;Node20 -->
<g id="edge28_Node000001_Node000020" class="edge">
<title>Node1&#45;&gt;Node20</title>
<g id="a_edge28_Node000001_Node000020"><a xlink:title=" ">
<path fill="none" stroke="#63b8ff" d="M601.36,-285.99C623.35,-276.31 652.35,-263.56 673.66,-254.18"/>
<polygon fill="#63b8ff" stroke="#63b8ff" points="675.11,-257.37 682.86,-250.14 672.3,-250.96 675.11,-257.37"/>
</a>
</g>
</g>
<!-- Node3 -->
<g id="Node000003" class="node">
<title>Node3</title>
<g id="a_Node000003"><a xlink:href="GameButtons_8h.html" target="_top" xlink:title=" ">
<polygon fill="white" stroke="#666666" points="596.5,-30 460.5,-30 460.5,0 596.5,0 596.5,-30"/>
<text text-anchor="start" x="468.5" y="-18" font-family="Helvetica,sans-Serif" font-size="10.00">../../VGP_Data_Exchange</text>
<text text-anchor="middle" x="528.5" y="-7" font-family="Helvetica,sans-Serif" font-size="10.00">/C/GameButtons.h</text>
</a>
</g>
</g>
<!-- Node2&#45;&gt;Node3 -->
<g id="edge2_Node000002_Node000003" class="edge">
<title>Node2&#45;&gt;Node3</title>
<g id="a_edge2_Node000002_Node000003"><a xlink:title=" ">
<path fill="none" stroke="#63b8ff" d="M496.08,-176C518.38,-169.51 544.82,-158.44 562.5,-140 586.08,-115.41 596.14,-97.22 582.5,-66 577.46,-54.48 568.32,-44.42 558.96,-36.41"/>
<polygon fill="#63b8ff" stroke="#63b8ff" points="561.15,-33.67 551.15,-30.17 556.78,-39.15 561.15,-33.67"/>
</a>
</g>
</g>
<!-- Node4 -->
<g id="Node000004" class="node">
<title>Node4</title>
<g id="a_Node000004"><a xlink:href="input__types_8hpp.html" target="_top" xlink:title=" ">
<polygon fill="white" stroke="#666666" points="344,-85 249,-85 249,-66 344,-66 344,-85"/>
<text text-anchor="middle" x="296.5" y="-73" font-family="Helvetica,sans-Serif" font-size="10.00">input_types.hpp</text>
</a>
</g>
</g>
<!-- Node2&#45;&gt;Node4 -->
<g id="edge3_Node000002_Node000004" class="edge">
<title>Node2&#45;&gt;Node4</title>
<g id="a_edge3_Node000002_Node000004"><a xlink:title=" ">
<path fill="none" stroke="#63b8ff" d="M467.59,-175.97C485.15,-163.49 512.5,-139.69 497.5,-121 488.44,-109.72 410.43,-94.9 354.31,-85.54"/>
<polygon fill="#63b8ff" stroke="#63b8ff" points="354.55,-82.03 344.11,-83.86 353.41,-88.94 354.55,-82.03"/>
</a>
</g>
</g>
<!-- Node7 -->
<g id="Node000007" class="node">
<title>Node7</title>
<g id="a_Node000007"><a xlink:href="keymap__profile_8hpp.html" target="_top" xlink:title=" ">
<polygon fill="white" stroke="#666666" points="203,-140 90,-140 90,-121 203,-121 203,-140"/>
<text text-anchor="middle" x="146.5" y="-128" font-family="Helvetica,sans-Serif" font-size="10.00">keymap_profile.hpp</text>
</a>
</g>
</g>
<!-- Node2&#45;&gt;Node7 -->
<g id="edge7_Node000002_Node000007" class="edge">
<title>Node2&#45;&gt;Node7</title>
<g id="a_edge7_Node000002_Node000007"><a xlink:title=" ">
<path fill="none" stroke="#63b8ff" d="M405.01,-175.98C350.87,-166.67 264.1,-151.74 206.22,-141.78"/>
<polygon fill="#63b8ff" stroke="#63b8ff" points="206.57,-138.28 196.12,-140.04 205.38,-145.18 206.57,-138.28"/>
</a>
</g>
</g>
<!-- Node9 -->
<g id="Node000009" class="node">
<title>Node9</title>
<g id="a_Node000009"><a xlink:title=" ">
<polygon fill="#e0e0e0" stroke="#999999" points="433.5,-85 377.5,-85 377.5,-66 433.5,-66 433.5,-85"/>
<text text-anchor="middle" x="405.5" y="-73" font-family="Helvetica,sans-Serif" font-size="10.00">QObject</text>
</a>
</g>
</g>
<!-- Node2&#45;&gt;Node9 -->
<g id="edge18_Node000002_Node000009" class="edge">
<title>Node2&#45;&gt;Node9</title>
<g id="a_edge18_Node000002_Node000009"><a xlink:title=" ">
<path fill="none" stroke="#63b8ff" d="M480.17,-175.9C508.31,-165.05 547.35,-144.88 530.5,-121 511.05,-93.42 472.92,-82.84 443.86,-78.82"/>
<polygon fill="#63b8ff" stroke="#63b8ff" points="443.96,-75.31 433.62,-77.62 443.14,-82.26 443.96,-75.31"/>
</a>
</g>
</g>
<!-- Node10 -->
<g id="Node000010" class="node">
<title>Node10</title>
<g id="a_Node000010"><a xlink:title=" ">
<polygon fill="#e0e0e0" stroke="#999999" points="573.5,-85 509.5,-85 509.5,-66 573.5,-66 573.5,-85"/>
<text text-anchor="middle" x="541.5" y="-73" font-family="Helvetica,sans-Serif" font-size="10.00">QSettings</text>
</a>
</g>
</g>
<!-- Node2&#45;&gt;Node10 -->
<g id="edge19_Node000002_Node000010" class="edge">
<title>Node2&#45;&gt;Node10</title>
<g id="a_edge19_Node000002_Node000010"><a xlink:title=" ">
<path fill="none" stroke="#63b8ff" d="M493.81,-175.92C513.21,-169.48 534.91,-158.49 546.5,-140 554.94,-126.55 552.34,-108.2 548.42,-94.69"/>
<polygon fill="#63b8ff" stroke="#63b8ff" points="551.7,-93.44 545.19,-85.08 545.06,-95.67 551.7,-93.44"/>
</a>
</g>
</g>
<!-- Node11 -->
<g id="Node000011" class="node">
<title>Node11</title>
<g id="a_Node000011"><a xlink:title=" ">
<polygon fill="#e0e0e0" stroke="#999999" points="53,-85 0,-85 0,-66 53,-66 53,-85"/>
<text text-anchor="middle" x="26.5" y="-73" font-family="Helvetica,sans-Serif" font-size="10.00">QString</text>
</a>
</g>
</g>
<!-- Node2&#45;&gt;Node11 -->
<g id="edge20_Node000002_Node000011" class="edge">
<title>Node2&#45;&gt;Node11</title>
<g id="a_edge20_Node000002_Node000011"><a xlink:title=" ">
<path fill="none" stroke="#63b8ff" d="M390.91,-183.3C296.32,-180.5 124.05,-171.14 71.5,-140 53.93,-129.59 41.42,-109.34 34.12,-94.5"/>
<polygon fill="#63b8ff" stroke="#63b8ff" points="37.25,-92.91 29.9,-85.27 30.88,-95.82 37.25,-92.91"/>
</a>
</g>
</g>
<!-- Node12 -->
<g id="Node000012" class="node">
<title>Node12</title>
<g id="a_Node000012"><a xlink:title=" ">
<polygon fill="#e0e0e0" stroke="#999999" points="115.5,-85 77.5,-85 77.5,-66 115.5,-66 115.5,-85"/>
<text text-anchor="middle" x="96.5" y="-73" font-family="Helvetica,sans-Serif" font-size="10.00">map</text>
</a>
</g>
</g>
<!-- Node2&#45;&gt;Node12 -->
<g id="edge22_Node000002_Node000012" class="edge">
<title>Node2&#45;&gt;Node12</title>
<g id="a_edge22_Node000002_Node000012"><a xlink:title=" ">
<path fill="none" stroke="#63b8ff" d="M390.84,-181.46C289.48,-175.96 100.72,-162.77 80.5,-140 69.21,-127.29 76.57,-107.77 84.64,-93.73"/>
<polygon fill="#63b8ff" stroke="#63b8ff" points="87.75,-95.36 90.12,-85.03 81.83,-91.62 87.75,-95.36"/>
</a>
</g>
</g>
<!-- Node13 -->
<g id="Node000013" class="node">
<title>Node13</title>
<g id="a_Node000013"><a xlink:title=" ">
<polygon fill="#e0e0e0" stroke="#999999" points="696.5,-140 658.5,-140 658.5,-121 696.5,-121 696.5,-140"/>
<text text-anchor="middle" x="677.5" y="-128" font-family="Helvetica,sans-Serif" font-size="10.00">QDir</text>
</a>
</g>
</g>
<!-- Node2&#45;&gt;Node13 -->
<g id="edge15_Node000002_Node000013" class="edge">
<title>Node2&#45;&gt;Node13</title>
<g id="a_edge15_Node000002_Node000013"><a xlink:title=" ">
<path fill="none" stroke="#63b8ff" d="M492.05,-175.96C530.42,-167.18 591.7,-152.98 644.5,-140 645.76,-139.69 647.05,-139.37 648.35,-139.05"/>
<polygon fill="#63b8ff" stroke="#63b8ff" points="649.49,-142.37 658.32,-136.52 647.77,-135.58 649.49,-142.37"/>
</a>
</g>
</g>
<!-- Node14 -->
<g id="Node000014" class="node">
<title>Node14</title>
<g id="a_Node000014"><a xlink:title=" ">
<polygon fill="#e0e0e0" stroke="#999999" points="262,-140 221,-140 221,-121 262,-121 262,-140"/>
<text text-anchor="middle" x="241.5" y="-128" font-family="Helvetica,sans-Serif" font-size="10.00">QList</text>
</a>
</g>
</g>
<!-- Node2&#45;&gt;Node14 -->
<g id="edge16_Node000002_Node000014" class="edge">
<title>Node2&#45;&gt;Node14</title>
<g id="a_edge16_Node000002_Node000014"><a xlink:title=" ">
<path fill="none" stroke="#63b8ff" d="M417.01,-175.99C381.77,-167.86 327.35,-155 271.72,-140.24"/>
<polygon fill="#63b8ff" stroke="#63b8ff" points="272.63,-136.86 262.06,-137.66 270.82,-143.62 272.63,-136.86"/>
</a>
</g>
</g>
<!-- Node15 -->
<g id="Node000015" class="node">
<title>Node15</title>
<g id="a_Node000015"><a xlink:title=" ">
<polygon fill="#e0e0e0" stroke="#999999" points="325,-140 280,-140 280,-121 325,-121 325,-140"/>
<text text-anchor="middle" x="302.5" y="-128" font-family="Helvetica,sans-Serif" font-size="10.00">QMap</text>
</a>
</g>
</g>
<!-- Node2&#45;&gt;Node15 -->
<g id="edge17_Node000002_Node000015" class="edge">
<title>Node2&#45;&gt;Node15</title>
<g id="a_edge17_Node000002_Node000015"><a xlink:title=" ">
<path fill="none" stroke="#63b8ff" d="M430.08,-175.98C404.25,-166.98 363.39,-152.73 334.89,-142.79"/>
<polygon fill="#63b8ff" stroke="#63b8ff" points="335.96,-139.46 325.37,-139.47 333.66,-146.07 335.96,-139.46"/>
</a>
</g>
</g>
<!-- Node16 -->
<g id="Node000016" class="node">
<title>Node16</title>
<g id="a_Node000016"><a xlink:title=" ">
<polygon fill="#e0e0e0" stroke="#999999" points="402,-140 343,-140 343,-121 402,-121 402,-140"/>
<text text-anchor="middle" x="372.5" y="-128" font-family="Helvetica,sans-Serif" font-size="10.00">QVariant</text>
</a>
</g>
</g>
<!-- Node2&#45;&gt;Node16 -->
<g id="edge21_Node000002_Node000016" class="edge">
<title>Node2&#45;&gt;Node16</title>
<g id="a_edge21_Node000002_Node000016"><a xlink:title=" ">
<path fill="none" stroke="#63b8ff" d="M441.33,-175.98C428.73,-167.84 409.5,-155.41 394.56,-145.76"/>
<polygon fill="#63b8ff" stroke="#63b8ff" points="396.21,-142.66 385.91,-140.17 392.41,-148.54 396.21,-142.66"/>
</a>
</g>
</g>
<!-- Node17 -->
<g id="Node000017" class="node">
<title>Node17</title>
<g id="a_Node000017"><a xlink:title=" ">
<polygon fill="#e0e0e0" stroke="#999999" points="488.5,-140 420.5,-140 420.5,-121 488.5,-121 488.5,-140"/>
<text text-anchor="middle" x="454.5" y="-128" font-family="Helvetica,sans-Serif" font-size="10.00">windows.h</text>
</a>
</g>
</g>
<!-- Node2&#45;&gt;Node17 -->
<g id="edge23_Node000002_Node000017" class="edge">
<title>Node2&#45;&gt;Node17</title>
<g id="a_edge23_Node000002_Node000017"><a xlink:title=" ">
<path fill="none" stroke="#63b8ff" d="M454.5,-175.75C454.5,-168.8 454.5,-158.85 454.5,-150.13"/>
<polygon fill="#63b8ff" stroke="#63b8ff" points="458,-150.09 454.5,-140.09 451,-150.09 458,-150.09"/>
</a>
</g>
</g>
<!-- Node4&#45;&gt;Node3 -->
<g id="edge4_Node000004_Node000003" class="edge">
<title>Node4&#45;&gt;Node3</title>
<g id="a_edge4_Node000004_Node000003"><a xlink:title=" ">
<path fill="none" stroke="#63b8ff" d="M330.23,-65.99C364.86,-57.26 419.64,-43.45 462.85,-32.55"/>
<polygon fill="#63b8ff" stroke="#63b8ff" points="463.88,-35.9 472.72,-30.06 462.17,-29.12 463.88,-35.9"/>
</a>
</g>
</g>
<!-- Node5 -->
<g id="Node000005" class="node">
<title>Node5</title>
<g id="a_Node000005"><a xlink:title=" ">
<polygon fill="#e0e0e0" stroke="#999999" points="225,-24.5 148,-24.5 148,-5.5 225,-5.5 225,-24.5"/>
<text text-anchor="middle" x="186.5" y="-12.5" font-family="Helvetica,sans-Serif" font-size="10.00">minwindef.h</text>
</a>
</g>
</g>
<!-- Node4&#45;&gt;Node5 -->
<g id="edge5_Node000004_Node000005" class="edge">
<title>Node4&#45;&gt;Node5</title>
<g id="a_edge5_Node000004_Node000005"><a xlink:title=" ">
<path fill="none" stroke="#63b8ff" d="M280.27,-65.87C262.23,-56.28 232.88,-40.67 211.82,-29.47"/>
<polygon fill="#63b8ff" stroke="#63b8ff" points="213.27,-26.27 202.8,-24.67 209.98,-32.45 213.27,-26.27"/>
</a>
</g>
</g>
<!-- Node6 -->
<g id="Node000006" class="node">
<title>Node6</title>
<g id="a_Node000006"><a xlink:title=" ">
<polygon fill="#e0e0e0" stroke="#999999" points="326,-24.5 267,-24.5 267,-5.5 326,-5.5 326,-24.5"/>
<text text-anchor="middle" x="296.5" y="-12.5" font-family="Helvetica,sans-Serif" font-size="10.00">qtypes.h</text>
</a>
</g>
</g>
<!-- Node4&#45;&gt;Node6 -->
<g id="edge6_Node000004_Node000006" class="edge">
<title>Node4&#45;&gt;Node6</title>
<g id="a_edge6_Node000004_Node000006"><a xlink:title=" ">
<path fill="none" stroke="#63b8ff" d="M296.5,-65.87C296.5,-57.75 296.5,-45.31 296.5,-34.89"/>
<polygon fill="#63b8ff" stroke="#63b8ff" points="300,-34.67 296.5,-24.67 293,-34.67 300,-34.67"/>
</a>
</g>
</g>
<!-- Node7&#45;&gt;Node4 -->
<g id="edge8_Node000007_Node000004" class="edge">
<title>Node7&#45;&gt;Node4</title>
<g id="a_edge8_Node000007_Node000004"><a xlink:title=" ">
<path fill="none" stroke="#63b8ff" d="M170.6,-120.98C195.38,-112.23 234.2,-98.51 262.19,-88.62"/>
<polygon fill="#63b8ff" stroke="#63b8ff" points="263.7,-91.8 271.96,-85.17 261.37,-85.2 263.7,-91.8"/>
</a>
</g>
</g>
<!-- Node7&#45;&gt;Node5 -->
<g id="edge14_Node000007_Node000005" class="edge">
<title>Node7&#45;&gt;Node5</title>
<g id="a_edge14_Node000007_Node000005"><a xlink:title=" ">
<path fill="none" stroke="#63b8ff" d="M148.79,-120.78C152.1,-108.45 158.59,-85.28 165.5,-66 169.37,-55.2 174.32,-43.34 178.44,-33.89"/>
<polygon fill="#63b8ff" stroke="#63b8ff" points="181.64,-35.3 182.49,-24.74 175.24,-32.46 181.64,-35.3"/>
</a>
</g>
</g>
<!-- Node8 -->
<g id="Node000008" class="node">
<title>Node8</title>
<g id="a_Node000008"><a xlink:title=" ">
<polygon fill="#e0e0e0" stroke="#999999" points="216,-85 175,-85 175,-66 216,-66 216,-85"/>
<text text-anchor="middle" x="195.5" y="-73" font-family="Helvetica,sans-Serif" font-size="10.00">QFile</text>
</a>
</g>
</g>
<!-- Node7&#45;&gt;Node8 -->
<g id="edge9_Node000007_Node000008" class="edge">
<title>Node7&#45;&gt;Node8</title>
<g id="a_edge9_Node000007_Node000008"><a xlink:title=" ">
<path fill="none" stroke="#63b8ff" d="M154.59,-120.75C161.66,-113.11 172.09,-101.82 180.65,-92.56"/>
<polygon fill="#63b8ff" stroke="#63b8ff" points="183.34,-94.81 187.56,-85.09 178.2,-90.06 183.34,-94.81"/>
</a>
</g>
</g>
<!-- Node7&#45;&gt;Node9 -->
<g id="edge10_Node000007_Node000009" class="edge">
<title>Node7&#45;&gt;Node9</title>
<g id="a_edge10_Node000007_Node000009"><a xlink:title=" ">
<path fill="none" stroke="#63b8ff" d="M188.11,-120.98C237.54,-110.87 319.3,-94.14 367.22,-84.33"/>
<polygon fill="#63b8ff" stroke="#63b8ff" points="368.1,-87.73 377.19,-82.29 366.69,-80.87 368.1,-87.73"/>
</a>
</g>
</g>
<!-- Node7&#45;&gt;Node10 -->
<g id="edge11_Node000007_Node000010" class="edge">
<title>Node7&#45;&gt;Node10</title>
<g id="a_edge11_Node000007_Node000010"><a xlink:title=" ">
<path fill="none" stroke="#63b8ff" d="M203.09,-121.91C283.2,-111.16 427.85,-91.75 499.26,-82.17"/>
<polygon fill="#63b8ff" stroke="#63b8ff" points="499.81,-85.63 509.25,-80.83 498.88,-78.69 499.81,-85.63"/>
</a>
</g>
</g>
<!-- Node7&#45;&gt;Node11 -->
<g id="edge12_Node000007_Node000011" class="edge">
<title>Node7&#45;&gt;Node11</title>
<g id="a_edge12_Node000007_Node000011"><a xlink:title=" ">
<path fill="none" stroke="#63b8ff" d="M127.22,-120.98C107.83,-112.42 77.69,-99.11 55.43,-89.28"/>
<polygon fill="#63b8ff" stroke="#63b8ff" points="56.69,-86.01 46.13,-85.17 53.86,-92.41 56.69,-86.01"/>
</a>
</g>
</g>
<!-- Node7&#45;&gt;Node12 -->
<g id="edge13_Node000007_Node000012" class="edge">
<title>Node7&#45;&gt;Node12</title>
<g id="a_edge13_Node000007_Node000012"><a xlink:title=" ">
<path fill="none" stroke="#63b8ff" d="M138.24,-120.75C131.04,-113.11 120.39,-101.82 111.65,-92.56"/>
<polygon fill="#63b8ff" stroke="#63b8ff" points="114.01,-89.96 104.6,-85.09 108.92,-94.76 114.01,-89.96"/>
</a>
</g>
</g>
<!-- Node18&#45;&gt;Node2 -->
<g id="edge25_Node000018_Node000002" class="edge">
<title>Node18&#45;&gt;Node2</title>
<g id="a_edge25_Node000018_Node000002"><a xlink:title=" ">
<path fill="none" stroke="#63b8ff" d="M510.74,-230.98C500.73,-223.07 485.61,-211.11 473.57,-201.58"/>
<polygon fill="#63b8ff" stroke="#63b8ff" points="475.47,-198.63 465.46,-195.17 471.13,-204.12 475.47,-198.63"/>
</a>
</g>
</g>
<!-- Node18&#45;&gt;Node13 -->
<g id="edge26_Node000018_Node000013" class="edge">
<title>Node18&#45;&gt;Node13</title>
<g id="a_edge26_Node000018_Node000013"><a xlink:title=" ">
<path fill="none" stroke="#63b8ff" d="M534,-230.84C560.7,-212.36 623.54,-168.86 656.49,-146.05"/>
<polygon fill="#63b8ff" stroke="#63b8ff" points="658.71,-148.77 664.94,-140.2 654.72,-143.01 658.71,-148.77"/>
</a>
</g>
</g>
</g>
</svg>
