<?xml version="1.0" encoding="UTF-8" standalone="no"?>
<!DOCTYPE svg PUBLIC "-//W3C//DTD SVG 1.1//EN"
 "http://www.w3.org/Graphics/SVG/1.1/DTD/svg11.dtd">
<!-- Generated by graphviz version 2.43.0 (0)
 -->
<!-- Title: src/settings/settings_singleton.hpp Pages: 1 -->
<svg width="999pt" height="159pt"
 viewBox="0.00 0.00 999.00 159.00" xmlns="http://www.w3.org/2000/svg" xmlns:xlink="http://www.w3.org/1999/xlink">
<g id="graph0" class="graph" transform="scale(1 1) rotate(0) translate(4 155)">
<title>src/settings/settings_singleton.hpp</title>
<!-- Node1 -->
<g id="Node000001" class="node">
<title>Node1</title>
<g id="a_Node000001"><a xlink:title=" ">
<polygon fill="#999999" stroke="#666666" points="543,-151 428,-151 428,-121 543,-121 543,-151"/>
<text text-anchor="start" x="436" y="-139" font-family="Helvetica,sans-Serif" font-size="10.00">src/settings/settings</text>
<text text-anchor="middle" x="485.5" y="-128" font-family="Helvetica,sans-Serif" font-size="10.00">_singleton.hpp</text>
</a>
</g>
</g>
<!-- Node2 -->
<g id="Node000002" class="node">
<title>Node2</title>
<g id="a_Node000002"><a xlink:href="executor_8cpp.html" target="_top" xlink:title=" ">
<polygon fill="white" stroke="#666666" points="153,-85 0,-85 0,-66 153,-66 153,-85"/>
<text text-anchor="middle" x="76.5" y="-73" font-family="Helvetica,sans-Serif" font-size="10.00">src/networking/executor.cpp</text>
</a>
</g>
</g>
<!-- Node1&#45;&gt;Node2 -->
<g id="edge1_Node000001_Node000002" class="edge">
<title>Node1&#45;&gt;Node2</title>
<g id="a_edge1_Node000001_Node000002"><a xlink:title=" ">
<path fill="none" stroke="#63b8ff" d="M417.49,-125.27C338.86,-114.03 210.72,-95.7 135.93,-85"/>
<polygon fill="#63b8ff" stroke="#63b8ff" points="417.37,-128.79 427.77,-126.74 418.36,-121.86 417.37,-128.79"/>
</a>
</g>
</g>
<!-- Node3 -->
<g id="Node000003" class="node">
<title>Node3</title>
<g id="a_Node000003"><a xlink:href="server_8cpp.html" target="_top" xlink:title=" ">
<polygon fill="white" stroke="#666666" points="313.5,-85 171.5,-85 171.5,-66 313.5,-66 313.5,-85"/>
<text text-anchor="middle" x="242.5" y="-73" font-family="Helvetica,sans-Serif" font-size="10.00">src/networking/server.cpp</text>
</a>
</g>
</g>
<!-- Node1&#45;&gt;Node3 -->
<g id="edge2_Node000001_Node000003" class="edge">
<title>Node1&#45;&gt;Node3</title>
<g id="a_edge2_Node000001_Node000003"><a xlink:title=" ">
<path fill="none" stroke="#63b8ff" d="M418.12,-118.78C372.67,-107.84 314.5,-93.83 277.86,-85.01"/>
<polygon fill="#63b8ff" stroke="#63b8ff" points="417.37,-122.2 427.91,-121.14 419.01,-115.39 417.37,-122.2"/>
</a>
</g>
</g>
<!-- Node4 -->
<g id="Node000004" class="node">
<title>Node4</title>
<g id="a_Node000004"><a xlink:href="settings_8hpp.html" target="_top" xlink:title=" ">
<polygon fill="white" stroke="#666666" points="505.5,-85 369.5,-85 369.5,-66 505.5,-66 505.5,-85"/>
<text text-anchor="middle" x="437.5" y="-73" font-family="Helvetica,sans-Serif" font-size="10.00">src/settings/settings.hpp</text>
</a>
</g>
</g>
<!-- Node1&#45;&gt;Node4 -->
<g id="edge3_Node000001_Node000004" class="edge">
<title>Node1&#45;&gt;Node4</title>
<g id="a_edge3_Node000001_Node000004"><a xlink:title=" ">
<path fill="none" stroke="#63b8ff" d="M467.52,-113.09C459.59,-103.42 450.72,-92.61 444.69,-85.27"/>
<polygon fill="#63b8ff" stroke="#63b8ff" points="464.83,-115.33 473.88,-120.84 470.24,-110.89 464.83,-115.33"/>
</a>
</g>
</g>
<!-- Node6 -->
<g id="Node000006" class="node">
<title>Node6</title>
<g id="a_Node000006"><a xlink:href="settings__singleton_8cpp.html" target="_top" xlink:title=" ">
<polygon fill="white" stroke="#666666" points="381,-30 266,-30 266,0 381,0 381,-30"/>
<text text-anchor="start" x="274" y="-18" font-family="Helvetica,sans-Serif" font-size="10.00">src/settings/settings</text>
<text text-anchor="middle" x="323.5" y="-7" font-family="Helvetica,sans-Serif" font-size="10.00">_singleton.cpp</text>
</a>
</g>
</g>
<!-- Node1&#45;&gt;Node6 -->
<g id="edge7_Node000001_Node000006" class="edge">
<title>Node1&#45;&gt;Node6</title>
<g id="a_edge7_Node000001_Node000006"><a xlink:title=" ">
<path fill="none" stroke="#63b8ff" d="M418.42,-117.89C398.13,-110.3 376.9,-99.66 360.5,-85 343.68,-69.96 333.12,-45.41 327.77,-30.01"/>
<polygon fill="#63b8ff" stroke="#63b8ff" points="417.38,-121.23 427.97,-121.27 419.72,-114.63 417.38,-121.23"/>
</a>
</g>
</g>
<!-- Node7 -->
<g id="Node000007" class="node">
<title>Node7</title>
<g id="a_Node000007"><a xlink:href="preferences_8cpp.html" target="_top" xlink:title=" ">
<polygon fill="white" stroke="#666666" points="656.5,-24.5 532.5,-24.5 532.5,-5.5 656.5,-5.5 656.5,-24.5"/>
<text text-anchor="middle" x="594.5" y="-12.5" font-family="Helvetica,sans-Serif" font-size="10.00">src/ui/preferences.cpp</text>
</a>
</g>
</g>
<!-- Node1&#45;&gt;Node7 -->
<g id="edge10_Node000001_Node000007" class="edge">
<title>Node1&#45;&gt;Node7</title>
<g id="a_edge10_Node000001_Node000007"><a xlink:title=" ">
<path fill="none" stroke="#63b8ff" d="M505.43,-113.25C529.71,-86.73 569.61,-43.18 586.52,-24.71"/>
<polygon fill="#63b8ff" stroke="#63b8ff" points="502.61,-111.14 498.43,-120.88 507.77,-115.87 502.61,-111.14"/>
</a>
</g>
</g>
<!-- Node8 -->
<g id="Node000008" class="node">
<title>Node8</title>
<g id="a_Node000008"><a xlink:href="buttoninputbox_8cpp.html" target="_top" xlink:title=" ">
<polygon fill="white" stroke="#666666" points="701.5,-85 561.5,-85 561.5,-66 701.5,-66 701.5,-85"/>
<text text-anchor="middle" x="631.5" y="-73" font-family="Helvetica,sans-Serif" font-size="10.00">src/ui/buttoninputbox.cpp</text>
</a>
</g>
</g>
<!-- Node1&#45;&gt;Node8 -->
<g id="edge8_Node000001_Node000008" class="edge">
<title>Node1&#45;&gt;Node8</title>
<g id="a_edge8_Node000001_Node000008"><a xlink:title=" ">
<path fill="none" stroke="#63b8ff" d="M529.94,-117.19C556.47,-106.57 588.96,-93.54 609.94,-85.14"/>
<polygon fill="#63b8ff" stroke="#63b8ff" points="528.45,-114.02 520.47,-120.99 531.06,-120.52 528.45,-114.02"/>
</a>
</g>
</g>
<!-- Node9 -->
<g id="Node000009" class="node">
<title>Node9</title>
<g id="a_Node000009"><a xlink:href="mainwindow_8cpp.html" target="_top" xlink:title=" ">
<polygon fill="white" stroke="#666666" points="847.5,-85 719.5,-85 719.5,-66 847.5,-66 847.5,-85"/>
<text text-anchor="middle" x="783.5" y="-73" font-family="Helvetica,sans-Serif" font-size="10.00">src/ui/mainwindow.cpp</text>
</a>
</g>
</g>
<!-- Node1&#45;&gt;Node9 -->
<g id="edge9_Node000001_Node000009" class="edge">
<title>Node1&#45;&gt;Node9</title>
<g id="a_edge9_Node000001_Node000009"><a xlink:title=" ">
<path fill="none" stroke="#63b8ff" d="M553.36,-121.68C610.61,-110.44 690.84,-94.69 739.88,-85.06"/>
<polygon fill="#63b8ff" stroke="#63b8ff" points="552.45,-118.29 543.31,-123.65 553.8,-125.16 552.45,-118.29"/>
</a>
</g>
</g>
<!-- Node10 -->
<g id="Node000010" class="node">
<title>Node10</title>
<g id="a_Node000010"><a xlink:href="preferences_8hpp.html" target="_top" xlink:title=" ">
<polygon fill="white" stroke="#666666" points="991,-85 866,-85 866,-66 991,-66 991,-85"/>
<text text-anchor="middle" x="928.5" y="-73" font-family="Helvetica,sans-Serif" font-size="10.00">src/ui/preferences.hpp</text>
</a>
</g>
</g>
<!-- Node1&#45;&gt;Node10 -->
<g id="edge11_Node000001_Node000010" class="edge">
<title>Node1&#45;&gt;Node10</title>
<g id="a_edge11_Node000001_Node000010"><a xlink:title=" ">
<path fill="none" stroke="#63b8ff" d="M553.5,-126.02C638.66,-114.77 783.39,-95.66 865.93,-84.76"/>
<polygon fill="#63b8ff" stroke="#63b8ff" points="552.87,-122.57 543.41,-127.35 553.79,-129.51 552.87,-122.57"/>
</a>
</g>
</g>
<!-- Node5 -->
<g id="Node000005" class="node">
<title>Node5</title>
<g id="a_Node000005"><a xlink:href="keymap__profile_8cpp.html" target="_top" xlink:title=" ">
<polygon fill="white" stroke="#666666" points="514,-30 399,-30 399,0 514,0 514,-30"/>
<text text-anchor="start" x="407" y="-18" font-family="Helvetica,sans-Serif" font-size="10.00">src/settings/keymap</text>
<text text-anchor="middle" x="456.5" y="-7" font-family="Helvetica,sans-Serif" font-size="10.00">_profile.cpp</text>
</a>
</g>
</g>
<!-- Node4&#45;&gt;Node5 -->
<g id="edge4_Node000004_Node000005" class="edge">
<title>Node4&#45;&gt;Node5</title>
<g id="a_edge4_Node000004_Node000005"><a xlink:title=" ">
<path fill="none" stroke="#63b8ff" d="M443.44,-56.22C446.17,-47.79 449.37,-37.95 451.92,-30.11"/>
<polygon fill="#63b8ff" stroke="#63b8ff" points="440.06,-55.28 440.3,-65.87 446.72,-57.44 440.06,-55.28"/>
</a>
</g>
</g>
<!-- Node4&#45;&gt;Node6 -->
<g id="edge5_Node000004_Node000006" class="edge">
<title>Node4&#45;&gt;Node6</title>
<g id="a_edge5_Node000004_Node000006"><a xlink:title=" ">
<path fill="none" stroke="#63b8ff" d="M411.33,-61.07C393.28,-51.81 369.34,-39.52 351.01,-30.11"/>
<polygon fill="#63b8ff" stroke="#63b8ff" points="410.18,-64.42 420.68,-65.87 413.38,-58.19 410.18,-64.42"/>
</a>
</g>
</g>
<!-- Node4&#45;&gt;Node7 -->
<g id="edge6_Node000004_Node000007" class="edge">
<title>Node4&#45;&gt;Node7</title>
<g id="a_edge6_Node000004_Node000007"><a xlink:title=" ">
<path fill="none" stroke="#63b8ff" d="M470.03,-62.38C500.38,-51.07 544.89,-34.49 571.64,-24.52"/>
<polygon fill="#63b8ff" stroke="#63b8ff" points="468.48,-59.22 460.33,-65.99 470.92,-65.78 468.48,-59.22"/>
</a>
</g>
</g>
<!-- Node10&#45;&gt;Node7 -->
<g id="edge13_Node000010_Node000007" class="edge">
<title>Node10&#45;&gt;Node7</title>
<g id="a_edge13_Node000010_Node000007"><a xlink:title=" ">
<path fill="none" stroke="#63b8ff" d="M869.94,-64.24C805.54,-52.96 703.26,-35.05 643.13,-24.52"/>
<polygon fill="#63b8ff" stroke="#63b8ff" points="869.48,-67.72 879.93,-65.99 870.69,-60.82 869.48,-67.72"/>
</a>
</g>
</g>
<!-- Node11 -->
<g id="Node000011" class="node">
<title>Node11</title>
<g id="a_Node000011"><a xlink:href="mainmenu_8cpp.html" target="_top" xlink:title=" ">
<polygon fill="white" stroke="#666666" points="988,-24.5 869,-24.5 869,-5.5 988,-5.5 988,-24.5"/>
<text text-anchor="middle" x="928.5" y="-12.5" font-family="Helvetica,sans-Serif" font-size="10.00">src/ui/mainmenu.cpp</text>
</a>
</g>
</g>
<!-- Node10&#45;&gt;Node11 -->
<g id="edge12_Node000010_Node000011" class="edge">
<title>Node10&#45;&gt;Node11</title>
<g id="a_edge12_Node000010_Node000011"><a xlink:title=" ">
<path fill="none" stroke="#63b8ff" d="M928.5,-55.66C928.5,-45.24 928.5,-32.8 928.5,-24.67"/>
<polygon fill="#63b8ff" stroke="#63b8ff" points="925,-55.87 928.5,-65.87 932,-55.87 925,-55.87"/>
</a>
</g>
</g>
</g>
</svg>
