<?xml version="1.0" encoding="UTF-8" standalone="no"?>
<!DOCTYPE svg PUBLIC "-//W3C//DTD SVG 1.1//EN"
 "http://www.w3.org/Graphics/SVG/1.1/DTD/svg11.dtd">
<!-- Generated by graphviz version 2.43.0 (0)
 -->
<!-- Title: src/settings/settings_singleton.cpp Pages: 1 -->
<svg width="790pt" height="324pt"
 viewBox="0.00 0.00 789.78 324.00" xmlns="http://www.w3.org/2000/svg" xmlns:xlink="http://www.w3.org/1999/xlink">
<g id="graph0" class="graph" transform="scale(1 1) rotate(0) translate(4 320)">
<title>src/settings/settings_singleton.cpp</title>
<!-- Node1 -->
<g id="Node000001" class="node">
<title>Node1</title>
<g id="a_Node000001"><a xlink:title=" ">
<polygon fill="#999999" stroke="#666666" points="644.78,-316 529.78,-316 529.78,-286 644.78,-286 644.78,-316"/>
<text text-anchor="start" x="537.78" y="-304" font-family="Helvetica,sans-Serif" font-size="10.00">src/settings/settings</text>
<text text-anchor="middle" x="587.28" y="-293" font-family="Helvetica,sans-Serif" font-size="10.00">_singleton.cpp</text>
</a>
</g>
</g>
<!-- Node2 -->
<g id="Node000002" class="node">
<title>Node2</title>
<g id="a_Node000002"><a xlink:href="settings__singleton_8hpp.html" target="_top" xlink:title=" ">
<polygon fill="white" stroke="#666666" points="379.78,-195 252.78,-195 252.78,-176 379.78,-176 379.78,-195"/>
<text text-anchor="middle" x="316.28" y="-183" font-family="Helvetica,sans-Serif" font-size="10.00">settings_singleton.hpp</text>
</a>
</g>
</g>
<!-- Node1&#45;&gt;Node2 -->
<g id="edge1_Node000001_Node000002" class="edge">
<title>Node1&#45;&gt;Node2</title>
<g id="a_edge1_Node000001_Node000002"><a xlink:title=" ">
<path fill="none" stroke="#63b8ff" d="M529.44,-298.57C480.92,-294.85 411.67,-283.45 361.28,-250 344.27,-238.71 331.66,-218.62 324.19,-204.05"/>
<polygon fill="#63b8ff" stroke="#63b8ff" points="327.33,-202.52 319.84,-195.03 321.02,-205.56 327.33,-202.52"/>
</a>
</g>
</g>
<!-- Node16 -->
<g id="Node000016" class="node">
<title>Node16</title>
<g id="a_Node000016"><a xlink:href="appdir_8hpp.html" target="_top" xlink:title=" ">
<polygon fill="white" stroke="#666666" points="625.78,-250 548.78,-250 548.78,-231 625.78,-231 625.78,-250"/>
<text text-anchor="middle" x="587.28" y="-238" font-family="Helvetica,sans-Serif" font-size="10.00">../appdir.hpp</text>
</a>
</g>
</g>
<!-- Node1&#45;&gt;Node16 -->
<g id="edge21_Node000001_Node000016" class="edge">
<title>Node1&#45;&gt;Node16</title>
<g id="a_edge21_Node000001_Node000016"><a xlink:title=" ">
<path fill="none" stroke="#63b8ff" d="M587.28,-285.84C587.28,-278.21 587.28,-268.7 587.28,-260.45"/>
<polygon fill="#63b8ff" stroke="#63b8ff" points="590.78,-260.27 587.28,-250.27 583.78,-260.27 590.78,-260.27"/>
</a>
</g>
</g>
<!-- Node17 -->
<g id="Node000017" class="node">
<title>Node17</title>
<g id="a_Node000017"><a xlink:title=" ">
<polygon fill="#e0e0e0" stroke="#999999" points="781.78,-195 702.78,-195 702.78,-176 781.78,-176 781.78,-195"/>
<text text-anchor="middle" x="742.28" y="-183" font-family="Helvetica,sans-Serif" font-size="10.00">QApplication</text>
</a>
</g>
</g>
<!-- Node1&#45;&gt;Node17 -->
<g id="edge30_Node000001_Node000017" class="edge">
<title>Node1&#45;&gt;Node17</title>
<g id="a_edge30_Node000001_Node000017"><a xlink:title=" ">
<path fill="none" stroke="#63b8ff" d="M603.69,-285.99C620.71,-271.66 648.28,-249.02 673.28,-231 688.22,-220.23 705.65,-209 719.26,-200.51"/>
<polygon fill="#63b8ff" stroke="#63b8ff" points="721.32,-203.35 727.99,-195.12 717.64,-197.4 721.32,-203.35"/>
</a>
</g>
</g>
<!-- Node20 -->
<g id="Node000020" class="node">
<title>Node20</title>
<g id="a_Node000020"><a xlink:href="settings_8hpp.html" target="_top" xlink:title=" ">
<polygon fill="white" stroke="#666666" points="446.78,-250 369.78,-250 369.78,-231 446.78,-231 446.78,-250"/>
<text text-anchor="middle" x="408.28" y="-238" font-family="Helvetica,sans-Serif" font-size="10.00">settings.hpp</text>
</a>
</g>
</g>
<!-- Node1&#45;&gt;Node20 -->
<g id="edge27_Node000001_Node000020" class="edge">
<title>Node1&#45;&gt;Node20</title>
<g id="a_edge27_Node000001_Node000020"><a xlink:title=" ">
<path fill="none" stroke="#63b8ff" d="M544.41,-285.99C513.78,-275.98 473.05,-262.67 444.15,-253.22"/>
<polygon fill="#63b8ff" stroke="#63b8ff" points="445.05,-249.83 434.45,-250.05 442.87,-256.49 445.05,-249.83"/>
</a>
</g>
</g>
<!-- Node21 -->
<g id="Node000021" class="node">
<title>Node21</title>
<g id="a_Node000021"><a xlink:title=" ">
<polygon fill="#e0e0e0" stroke="#999999" points="738.28,-250 682.28,-250 682.28,-231 738.28,-231 738.28,-250"/>
<text text-anchor="middle" x="710.28" y="-238" font-family="Helvetica,sans-Serif" font-size="10.00">QDebug</text>
</a>
</g>
</g>
<!-- Node1&#45;&gt;Node21 -->
<g id="edge31_Node000001_Node000021" class="edge">
<title>Node1&#45;&gt;Node21</title>
<g id="a_edge31_Node000001_Node000021"><a xlink:title=" ">
<path fill="none" stroke="#63b8ff" d="M616.74,-285.99C636.9,-276.4 663.42,-263.79 683.08,-254.44"/>
<polygon fill="#63b8ff" stroke="#63b8ff" points="684.59,-257.6 692.12,-250.14 681.58,-251.27 684.59,-257.6"/>
</a>
</g>
</g>
<!-- Node3 -->
<g id="Node000003" class="node">
<title>Node3</title>
<g id="a_Node000003"><a xlink:href="GameButtons_8h.html" target="_top" xlink:title=" ">
<polygon fill="white" stroke="#666666" points="539.28,-30 403.28,-30 403.28,0 539.28,0 539.28,-30"/>
<text text-anchor="start" x="411.28" y="-18" font-family="Helvetica,sans-Serif" font-size="10.00">../../VGP_Data_Exchange</text>
<text text-anchor="middle" x="471.28" y="-7" font-family="Helvetica,sans-Serif" font-size="10.00">/C/GameButtons.h</text>
</a>
</g>
</g>
<!-- Node2&#45;&gt;Node3 -->
<g id="edge2_Node000002_Node000003" class="edge">
<title>Node2&#45;&gt;Node3</title>
<g id="a_edge2_Node000002_Node000003"><a xlink:title=" ">
<path fill="none" stroke="#63b8ff" d="M360.41,-175.96C406.72,-164.33 476.94,-138.5 507.28,-85 516.14,-69.38 506.1,-51.38 494.39,-37.68"/>
<polygon fill="#63b8ff" stroke="#63b8ff" points="496.8,-35.13 487.44,-30.16 491.66,-39.88 496.8,-35.13"/>
</a>
</g>
</g>
<!-- Node4 -->
<g id="Node000004" class="node">
<title>Node4</title>
<g id="a_Node000004"><a xlink:href="input__types_8hpp.html" target="_top" xlink:title=" ">
<polygon fill="white" stroke="#666666" points="363.78,-85 268.78,-85 268.78,-66 363.78,-66 363.78,-85"/>
<text text-anchor="middle" x="316.28" y="-73" font-family="Helvetica,sans-Serif" font-size="10.00">input_types.hpp</text>
</a>
</g>
</g>
<!-- Node2&#45;&gt;Node4 -->
<g id="edge3_Node000002_Node000004" class="edge">
<title>Node2&#45;&gt;Node4</title>
<g id="a_edge3_Node000002_Node000004"><a xlink:title=" ">
<path fill="none" stroke="#63b8ff" d="M337.92,-175.9C361.71,-165.04 394.97,-144.87 382.28,-121 374.97,-107.25 361.31,-96.99 348.31,-89.8"/>
<polygon fill="#63b8ff" stroke="#63b8ff" points="349.56,-86.51 339.06,-85.11 346.39,-92.75 349.56,-86.51"/>
</a>
</g>
</g>
<!-- Node5 -->
<g id="Node000005" class="node">
<title>Node5</title>
<g id="a_Node000005"><a xlink:title=" ">
<polygon fill="#e0e0e0" stroke="#999999" points="266.78,-24.5 213.78,-24.5 213.78,-5.5 266.78,-5.5 266.78,-24.5"/>
<text text-anchor="middle" x="240.28" y="-12.5" font-family="Helvetica,sans-Serif" font-size="10.00">QString</text>
</a>
</g>
</g>
<!-- Node2&#45;&gt;Node5 -->
<g id="edge19_Node000002_Node000005" class="edge">
<title>Node2&#45;&gt;Node5</title>
<g id="a_edge19_Node000002_Node000005"><a xlink:title=" ">
<path fill="none" stroke="#63b8ff" d="M252.72,-184.55C172.91,-183.1 42.71,-175.21 12.28,-140 -46.58,-71.89 125.28,-34.57 203.61,-21.46"/>
<polygon fill="#63b8ff" stroke="#63b8ff" points="204.25,-24.9 213.56,-19.84 203.13,-17.99 204.25,-24.9"/>
</a>
</g>
</g>
<!-- Node7 -->
<g id="Node000007" class="node">
<title>Node7</title>
<g id="a_Node000007"><a xlink:href="keymap__profile_8hpp.html" target="_top" xlink:title=" ">
<polygon fill="white" stroke="#666666" points="372.78,-140 259.78,-140 259.78,-121 372.78,-121 372.78,-140"/>
<text text-anchor="middle" x="316.28" y="-128" font-family="Helvetica,sans-Serif" font-size="10.00">keymap_profile.hpp</text>
</a>
</g>
</g>
<!-- Node2&#45;&gt;Node7 -->
<g id="edge7_Node000002_Node000007" class="edge">
<title>Node2&#45;&gt;Node7</title>
<g id="a_edge7_Node000002_Node000007"><a xlink:title=" ">
<path fill="none" stroke="#63b8ff" d="M316.28,-175.75C316.28,-168.8 316.28,-158.85 316.28,-150.13"/>
<polygon fill="#63b8ff" stroke="#63b8ff" points="319.78,-150.09 316.28,-140.09 312.78,-150.09 319.78,-150.09"/>
</a>
</g>
</g>
<!-- Node9 -->
<g id="Node000009" class="node">
<title>Node9</title>
<g id="a_Node000009"><a xlink:title=" ">
<polygon fill="#e0e0e0" stroke="#999999" points="438.28,-85 382.28,-85 382.28,-66 438.28,-66 438.28,-85"/>
<text text-anchor="middle" x="410.28" y="-73" font-family="Helvetica,sans-Serif" font-size="10.00">QObject</text>
</a>
</g>
</g>
<!-- Node2&#45;&gt;Node9 -->
<g id="edge17_Node000002_Node000009" class="edge">
<title>Node2&#45;&gt;Node9</title>
<g id="a_edge17_Node000002_Node000009"><a xlink:title=" ">
<path fill="none" stroke="#63b8ff" d="M344.46,-175.91C362.28,-169.03 384.34,-157.57 397.28,-140 406.78,-127.12 409.73,-108.96 410.49,-95.36"/>
<polygon fill="#63b8ff" stroke="#63b8ff" points="413.99,-95.29 410.7,-85.22 406.99,-95.14 413.99,-95.29"/>
</a>
</g>
</g>
<!-- Node10 -->
<g id="Node000010" class="node">
<title>Node10</title>
<g id="a_Node000010"><a xlink:title=" ">
<polygon fill="#e0e0e0" stroke="#999999" points="156.28,-85 92.28,-85 92.28,-66 156.28,-66 156.28,-85"/>
<text text-anchor="middle" x="124.28" y="-73" font-family="Helvetica,sans-Serif" font-size="10.00">QSettings</text>
</a>
</g>
</g>
<!-- Node2&#45;&gt;Node10 -->
<g id="edge18_Node000002_Node000010" class="edge">
<title>Node2&#45;&gt;Node10</title>
<g id="a_edge18_Node000002_Node000010"><a xlink:title=" ">
<path fill="none" stroke="#63b8ff" d="M303.02,-175.93C283.45,-163.39 245.55,-139.53 212.28,-121 192.22,-109.82 169.01,-98.14 151.47,-89.55"/>
<polygon fill="#63b8ff" stroke="#63b8ff" points="152.89,-86.35 142.37,-85.12 149.83,-92.64 152.89,-86.35"/>
</a>
</g>
</g>
<!-- Node12 -->
<g id="Node000012" class="node">
<title>Node12</title>
<g id="a_Node000012"><a xlink:title=" ">
<polygon fill="#e0e0e0" stroke="#999999" points="585.28,-140 547.28,-140 547.28,-121 585.28,-121 585.28,-140"/>
<text text-anchor="middle" x="566.28" y="-128" font-family="Helvetica,sans-Serif" font-size="10.00">QDir</text>
</a>
</g>
</g>
<!-- Node2&#45;&gt;Node12 -->
<g id="edge14_Node000002_Node000012" class="edge">
<title>Node2&#45;&gt;Node12</title>
<g id="a_edge14_Node000002_Node000012"><a xlink:title=" ">
<path fill="none" stroke="#63b8ff" d="M361.31,-175.95C405.3,-167.43 474.08,-153.69 533.28,-140 534.55,-139.71 535.84,-139.4 537.14,-139.09"/>
<polygon fill="#63b8ff" stroke="#63b8ff" points="538.27,-142.42 547.13,-136.61 536.58,-135.62 538.27,-142.42"/>
</a>
</g>
</g>
<!-- Node13 -->
<g id="Node000013" class="node">
<title>Node13</title>
<g id="a_Node000013"><a xlink:title=" ">
<polygon fill="#e0e0e0" stroke="#999999" points="62.78,-140 21.78,-140 21.78,-121 62.78,-121 62.78,-140"/>
<text text-anchor="middle" x="42.28" y="-128" font-family="Helvetica,sans-Serif" font-size="10.00">QList</text>
</a>
</g>
</g>
<!-- Node2&#45;&gt;Node13 -->
<g id="edge15_Node000002_Node000013" class="edge">
<title>Node2&#45;&gt;Node13</title>
<g id="a_edge15_Node000002_Node000013"><a xlink:title=" ">
<path fill="none" stroke="#63b8ff" d="M259.49,-175.93C211.85,-168.34 141.86,-156.28 72.58,-140.11"/>
<polygon fill="#63b8ff" stroke="#63b8ff" points="73.34,-136.7 62.81,-137.81 71.73,-143.51 73.34,-136.7"/>
</a>
</g>
</g>
<!-- Node14 -->
<g id="Node000014" class="node">
<title>Node14</title>
<g id="a_Node000014"><a xlink:title=" ">
<polygon fill="#e0e0e0" stroke="#999999" points="125.78,-140 80.78,-140 80.78,-121 125.78,-121 125.78,-140"/>
<text text-anchor="middle" x="103.28" y="-128" font-family="Helvetica,sans-Serif" font-size="10.00">QMap</text>
</a>
</g>
</g>
<!-- Node2&#45;&gt;Node14 -->
<g id="edge16_Node000002_Node000014" class="edge">
<title>Node2&#45;&gt;Node14</title>
<g id="a_edge16_Node000002_Node000014"><a xlink:title=" ">
<path fill="none" stroke="#63b8ff" d="M280.86,-176C246.33,-167.66 192.1,-154.45 135.78,-140.09"/>
<polygon fill="#63b8ff" stroke="#63b8ff" points="136.55,-136.67 125.99,-137.59 134.82,-143.46 136.55,-136.67"/>
</a>
</g>
</g>
<!-- Node15 -->
<g id="Node000015" class="node">
<title>Node15</title>
<g id="a_Node000015"><a xlink:title=" ">
<polygon fill="#e0e0e0" stroke="#999999" points="202.78,-140 143.78,-140 143.78,-121 202.78,-121 202.78,-140"/>
<text text-anchor="middle" x="173.28" y="-128" font-family="Helvetica,sans-Serif" font-size="10.00">QVariant</text>
</a>
</g>
</g>
<!-- Node2&#45;&gt;Node15 -->
<g id="edge20_Node000002_Node000015" class="edge">
<title>Node2&#45;&gt;Node15</title>
<g id="a_edge20_Node000002_Node000015"><a xlink:title=" ">
<path fill="none" stroke="#63b8ff" d="M293.31,-175.98C269.78,-167.27 233,-153.63 206.34,-143.75"/>
<polygon fill="#63b8ff" stroke="#63b8ff" points="207.27,-140.36 196.68,-140.17 204.84,-146.93 207.27,-140.36"/>
</a>
</g>
</g>
<!-- Node4&#45;&gt;Node3 -->
<g id="edge4_Node000004_Node000003" class="edge">
<title>Node4&#45;&gt;Node3</title>
<g id="a_edge4_Node000004_Node000003"><a xlink:title=" ">
<path fill="none" stroke="#63b8ff" d="M338.82,-65.99C361.13,-57.57 395.95,-44.43 424.29,-33.73"/>
<polygon fill="#63b8ff" stroke="#63b8ff" points="425.9,-36.87 434.02,-30.06 423.43,-30.32 425.9,-36.87"/>
</a>
</g>
</g>
<!-- Node4&#45;&gt;Node5 -->
<g id="edge5_Node000004_Node000005" class="edge">
<title>Node4&#45;&gt;Node5</title>
<g id="a_edge5_Node000004_Node000005"><a xlink:title=" ">
<path fill="none" stroke="#63b8ff" d="M305.07,-65.87C293.17,-56.71 274.14,-42.06 259.78,-31.01"/>
<polygon fill="#63b8ff" stroke="#63b8ff" points="261.6,-27.99 251.54,-24.67 257.33,-33.54 261.6,-27.99"/>
</a>
</g>
</g>
<!-- Node6 -->
<g id="Node000006" class="node">
<title>Node6</title>
<g id="a_Node000006"><a xlink:title=" ">
<polygon fill="#e0e0e0" stroke="#999999" points="330.78,-24.5 301.78,-24.5 301.78,-5.5 330.78,-5.5 330.78,-24.5"/>
<text text-anchor="middle" x="316.28" y="-12.5" font-family="Helvetica,sans-Serif" font-size="10.00">Qt</text>
</a>
</g>
</g>
<!-- Node4&#45;&gt;Node6 -->
<g id="edge6_Node000004_Node000006" class="edge">
<title>Node4&#45;&gt;Node6</title>
<g id="a_edge6_Node000004_Node000006"><a xlink:title=" ">
<path fill="none" stroke="#63b8ff" d="M316.28,-65.87C316.28,-57.75 316.28,-45.31 316.28,-34.89"/>
<polygon fill="#63b8ff" stroke="#63b8ff" points="319.78,-34.67 316.28,-24.67 312.78,-34.67 319.78,-34.67"/>
</a>
</g>
</g>
<!-- Node7&#45;&gt;Node4 -->
<g id="edge8_Node000007_Node000004" class="edge">
<title>Node7&#45;&gt;Node4</title>
<g id="a_edge8_Node000007_Node000004"><a xlink:title=" ">
<path fill="none" stroke="#63b8ff" d="M316.28,-120.75C316.28,-113.8 316.28,-103.85 316.28,-95.13"/>
<polygon fill="#63b8ff" stroke="#63b8ff" points="319.78,-95.09 316.28,-85.09 312.78,-95.09 319.78,-95.09"/>
</a>
</g>
</g>
<!-- Node7&#45;&gt;Node5 -->
<g id="edge12_Node000007_Node000005" class="edge">
<title>Node7&#45;&gt;Node5</title>
<g id="a_edge12_Node000007_Node000005"><a xlink:title=" ">
<path fill="none" stroke="#63b8ff" d="M300.77,-120.89C288.1,-113.09 270.66,-100.47 260.28,-85 250.1,-69.81 245.02,-49.39 242.54,-34.71"/>
<polygon fill="#63b8ff" stroke="#63b8ff" points="246,-34.18 241.11,-24.78 239.07,-35.18 246,-34.18"/>
</a>
</g>
</g>
<!-- Node8 -->
<g id="Node000008" class="node">
<title>Node8</title>
<g id="a_Node000008"><a xlink:title=" ">
<polygon fill="#e0e0e0" stroke="#999999" points="497.78,-85 456.78,-85 456.78,-66 497.78,-66 497.78,-85"/>
<text text-anchor="middle" x="477.28" y="-73" font-family="Helvetica,sans-Serif" font-size="10.00">QFile</text>
</a>
</g>
</g>
<!-- Node7&#45;&gt;Node8 -->
<g id="edge9_Node000007_Node000008" class="edge">
<title>Node7&#45;&gt;Node8</title>
<g id="a_edge9_Node000007_Node000008"><a xlink:title=" ">
<path fill="none" stroke="#63b8ff" d="M342.15,-120.98C370.74,-111.57 416.74,-96.43 446.99,-86.47"/>
<polygon fill="#63b8ff" stroke="#63b8ff" points="448.19,-89.76 456.6,-83.31 446,-83.11 448.19,-89.76"/>
</a>
</g>
</g>
<!-- Node7&#45;&gt;Node9 -->
<g id="edge10_Node000007_Node000009" class="edge">
<title>Node7&#45;&gt;Node9</title>
<g id="a_edge10_Node000007_Node000009"><a xlink:title=" ">
<path fill="none" stroke="#63b8ff" d="M331.38,-120.98C346.1,-112.69 368.71,-99.94 385.96,-90.22"/>
<polygon fill="#63b8ff" stroke="#63b8ff" points="387.91,-93.13 394.9,-85.17 384.47,-87.03 387.91,-93.13"/>
</a>
</g>
</g>
<!-- Node7&#45;&gt;Node10 -->
<g id="edge11_Node000007_Node000010" class="edge">
<title>Node7&#45;&gt;Node10</title>
<g id="a_edge11_Node000007_Node000010"><a xlink:title=" ">
<path fill="none" stroke="#63b8ff" d="M285.43,-120.98C252.78,-111.97 201.09,-97.7 165.08,-87.76"/>
<polygon fill="#63b8ff" stroke="#63b8ff" points="165.94,-84.37 155.37,-85.08 164.08,-91.12 165.94,-84.37"/>
</a>
</g>
</g>
<!-- Node11 -->
<g id="Node000011" class="node">
<title>Node11</title>
<g id="a_Node000011"><a xlink:title=" ">
<polygon fill="#e0e0e0" stroke="#999999" points="212.28,-85 174.28,-85 174.28,-66 212.28,-66 212.28,-85"/>
<text text-anchor="middle" x="193.28" y="-73" font-family="Helvetica,sans-Serif" font-size="10.00">map</text>
</a>
</g>
</g>
<!-- Node7&#45;&gt;Node11 -->
<g id="edge13_Node000007_Node000011" class="edge">
<title>Node7&#45;&gt;Node11</title>
<g id="a_edge13_Node000007_Node000011"><a xlink:title=" ">
<path fill="none" stroke="#63b8ff" d="M296.52,-120.98C276.32,-112.28 244.74,-98.67 221.82,-88.8"/>
<polygon fill="#63b8ff" stroke="#63b8ff" points="223.16,-85.56 212.59,-84.82 220.39,-91.99 223.16,-85.56"/>
</a>
</g>
</g>
<!-- Node16&#45;&gt;Node8 -->
<g id="edge24_Node000016_Node000008" class="edge">
<title>Node16&#45;&gt;Node8</title>
<g id="a_edge24_Node000016_Node000008"><a xlink:title=" ">
<path fill="none" stroke="#63b8ff" d="M609.77,-230.94C633.58,-220.39 666.31,-200.79 655.28,-176 629.31,-117.6 551.45,-92.09 507.8,-82.12"/>
<polygon fill="#63b8ff" stroke="#63b8ff" points="508.52,-78.69 498.01,-80.01 507.05,-85.54 508.52,-78.69"/>
</a>
</g>
</g>
<!-- Node16&#45;&gt;Node12 -->
<g id="edge23_Node000016_Node000012" class="edge">
<title>Node16&#45;&gt;Node12</title>
<g id="a_edge23_Node000016_Node000012"><a xlink:title=" ">
<path fill="none" stroke="#63b8ff" d="M585.24,-231C583.12,-222.06 579.78,-207.58 577.28,-195 574.31,-180.04 571.38,-163.02 569.3,-150.36"/>
<polygon fill="#63b8ff" stroke="#63b8ff" points="572.7,-149.46 567.64,-140.15 565.79,-150.58 572.7,-149.46"/>
</a>
</g>
</g>
<!-- Node16&#45;&gt;Node17 -->
<g id="edge22_Node000016_Node000017" class="edge">
<title>Node16&#45;&gt;Node17</title>
<g id="a_edge22_Node000016_Node000017"><a xlink:title=" ">
<path fill="none" stroke="#63b8ff" d="M612.19,-230.98C637.98,-222.16 678.5,-208.31 707.46,-198.41"/>
<polygon fill="#63b8ff" stroke="#63b8ff" points="708.85,-201.63 717.18,-195.08 706.59,-195.01 708.85,-201.63"/>
</a>
</g>
</g>
<!-- Node18 -->
<g id="Node000018" class="node">
<title>Node18</title>
<g id="a_Node000018"><a xlink:title=" ">
<polygon fill="#e0e0e0" stroke="#999999" points="646.28,-195 586.28,-195 586.28,-176 646.28,-176 646.28,-195"/>
<text text-anchor="middle" x="616.28" y="-183" font-family="Helvetica,sans-Serif" font-size="10.00">QFileInfo</text>
</a>
</g>
</g>
<!-- Node16&#45;&gt;Node18 -->
<g id="edge25_Node000016_Node000018" class="edge">
<title>Node16&#45;&gt;Node18</title>
<g id="a_edge25_Node000016_Node000018"><a xlink:title=" ">
<path fill="none" stroke="#63b8ff" d="M592.07,-230.75C596.04,-223.49 601.81,-212.95 606.72,-203.98"/>
<polygon fill="#63b8ff" stroke="#63b8ff" points="609.85,-205.54 611.58,-195.09 603.71,-202.18 609.85,-205.54"/>
</a>
</g>
</g>
<!-- Node19 -->
<g id="Node000019" class="node">
<title>Node19</title>
<g id="a_Node000019"><a xlink:title=" ">
<polygon fill="#e0e0e0" stroke="#999999" points="530.28,-195 436.28,-195 436.28,-176 530.28,-176 530.28,-195"/>
<text text-anchor="middle" x="483.28" y="-183" font-family="Helvetica,sans-Serif" font-size="10.00">QStandardPaths</text>
</a>
</g>
</g>
<!-- Node16&#45;&gt;Node19 -->
<g id="edge26_Node000016_Node000019" class="edge">
<title>Node16&#45;&gt;Node19</title>
<g id="a_edge26_Node000016_Node000019"><a xlink:title=" ">
<path fill="none" stroke="#63b8ff" d="M570.57,-230.98C554.07,-222.57 528.58,-209.59 509.4,-199.81"/>
<polygon fill="#63b8ff" stroke="#63b8ff" points="510.79,-196.59 500.3,-195.17 507.62,-202.83 510.79,-196.59"/>
</a>
</g>
</g>
<!-- Node20&#45;&gt;Node2 -->
<g id="edge28_Node000020_Node000002" class="edge">
<title>Node20&#45;&gt;Node2</title>
<g id="a_edge28_Node000020_Node000002"><a xlink:title=" ">
<path fill="none" stroke="#63b8ff" d="M393.5,-230.98C379.1,-222.69 356.97,-209.94 340.09,-200.22"/>
<polygon fill="#63b8ff" stroke="#63b8ff" points="341.74,-197.13 331.33,-195.17 338.25,-203.19 341.74,-197.13"/>
</a>
</g>
</g>
<!-- Node20&#45;&gt;Node12 -->
<g id="edge29_Node000020_Node000012" class="edge">
<title>Node20&#45;&gt;Node12</title>
<g id="a_edge29_Node000020_Node000012"><a xlink:title=" ">
<path fill="none" stroke="#63b8ff" d="M408.43,-230.84C409.13,-217.31 412.45,-191.11 427.28,-176 435.13,-168 498.48,-149.81 536.9,-139.33"/>
<polygon fill="#63b8ff" stroke="#63b8ff" points="538.27,-142.59 547.01,-136.6 536.44,-135.83 538.27,-142.59"/>
</a>
</g>
</g>
</g>
</svg>
