<?xml version="1.0" encoding="UTF-8" standalone="no"?>
<!DOCTYPE svg PUBLIC "-//W3C//DTD SVG 1.1//EN"
 "http://www.w3.org/Graphics/SVG/1.1/DTD/svg11.dtd">
<!-- Generated by graphviz version 2.43.0 (0)
 -->
<!-- Title: src/settings/settings_singleton.hpp Pages: 1 -->
<svg width="850pt" height="214pt"
 viewBox="0.00 0.00 850.00 214.00" xmlns="http://www.w3.org/2000/svg" xmlns:xlink="http://www.w3.org/1999/xlink">
<g id="graph0" class="graph" transform="scale(1 1) rotate(0) translate(4 210)">
<title>src/settings/settings_singleton.hpp</title>
<!-- Node1 -->
<g id="Node000001" class="node">
<title>Node1</title>
<g id="a_Node000001"><a xlink:title=" ">
<polygon fill="#999999" stroke="#666666" points="528.5,-206 413.5,-206 413.5,-176 528.5,-176 528.5,-206"/>
<text text-anchor="start" x="421.5" y="-194" font-family="Helvetica,sans-Serif" font-size="10.00">src/settings/settings</text>
<text text-anchor="middle" x="471" y="-183" font-family="Helvetica,sans-Serif" font-size="10.00">_singleton.hpp</text>
</a>
</g>
</g>
<!-- Node2 -->
<g id="Node000002" class="node">
<title>Node2</title>
<g id="a_Node000002"><a xlink:href="GameButtons_8h.html" target="_top" xlink:title=" ">
<polygon fill="white" stroke="#666666" points="136,-30 0,-30 0,0 136,0 136,-30"/>
<text text-anchor="start" x="8" y="-18" font-family="Helvetica,sans-Serif" font-size="10.00">../../VGP_Data_Exchange</text>
<text text-anchor="middle" x="68" y="-7" font-family="Helvetica,sans-Serif" font-size="10.00">/C/GameButtons.h</text>
</a>
</g>
</g>
<!-- Node1&#45;&gt;Node2 -->
<g id="edge1_Node000001_Node000002" class="edge">
<title>Node1&#45;&gt;Node2</title>
<g id="a_edge1_Node000001_Node000002"><a xlink:title=" ">
<path fill="none" stroke="#63b8ff" d="M413.36,-183.19C359.2,-175.83 276.34,-162.09 207,-140 151.1,-122.19 125.01,-129.69 87,-85 76.41,-72.56 71.69,-54.69 69.6,-40.26"/>
<polygon fill="#63b8ff" stroke="#63b8ff" points="73.05,-39.59 68.46,-30.04 66.09,-40.36 73.05,-39.59"/>
</a>
</g>
</g>
<!-- Node3 -->
<g id="Node000003" class="node">
<title>Node3</title>
<g id="a_Node000003"><a xlink:href="input__types_8hpp.html" target="_top" xlink:title=" ">
<polygon fill="white" stroke="#666666" points="191.5,-85 96.5,-85 96.5,-66 191.5,-66 191.5,-85"/>
<text text-anchor="middle" x="144" y="-73" font-family="Helvetica,sans-Serif" font-size="10.00">input_types.hpp</text>
</a>
</g>
</g>
<!-- Node1&#45;&gt;Node3 -->
<g id="edge2_Node000001_Node000003" class="edge">
<title>Node1&#45;&gt;Node3</title>
<g id="a_edge2_Node000001_Node000003"><a xlink:title=" ">
<path fill="none" stroke="#63b8ff" d="M413.45,-182.7C367.01,-175.52 300.64,-162.32 246,-140 215.02,-127.35 182.81,-105.61 163.08,-91.15"/>
<polygon fill="#63b8ff" stroke="#63b8ff" points="165.05,-88.25 154.94,-85.08 160.86,-93.86 165.05,-88.25"/>
</a>
</g>
</g>
<!-- Node6 -->
<g id="Node000006" class="node">
<title>Node6</title>
<g id="a_Node000006"><a xlink:href="keymap__profile_8hpp.html" target="_top" xlink:title=" ">
<polygon fill="white" stroke="#666666" points="385.5,-140 272.5,-140 272.5,-121 385.5,-121 385.5,-140"/>
<text text-anchor="middle" x="329" y="-128" font-family="Helvetica,sans-Serif" font-size="10.00">keymap_profile.hpp</text>
</a>
</g>
</g>
<!-- Node1&#45;&gt;Node6 -->
<g id="edge6_Node000001_Node000006" class="edge">
<title>Node1&#45;&gt;Node6</title>
<g id="a_edge6_Node000001_Node000006"><a xlink:title=" ">
<path fill="none" stroke="#63b8ff" d="M436.99,-175.99C413.4,-166.27 382.26,-153.44 359.48,-144.06"/>
<polygon fill="#63b8ff" stroke="#63b8ff" points="360.55,-140.71 349.97,-140.14 357.88,-147.18 360.55,-140.71"/>
</a>
</g>
</g>
<!-- Node8 -->
<g id="Node000008" class="node">
<title>Node8</title>
<g id="a_Node000008"><a xlink:title=" ">
<polygon fill="#e0e0e0" stroke="#999999" points="266,-85 210,-85 210,-66 266,-66 266,-85"/>
<text text-anchor="middle" x="238" y="-73" font-family="Helvetica,sans-Serif" font-size="10.00">QObject</text>
</a>
</g>
</g>
<!-- Node1&#45;&gt;Node8 -->
<g id="edge17_Node000001_Node000008" class="edge">
<title>Node1&#45;&gt;Node8</title>
<g id="a_edge17_Node000001_Node000008"><a xlink:title=" ">
<path fill="none" stroke="#63b8ff" d="M413.39,-182.21C359.89,-173.93 285.24,-159.35 263,-140 250.02,-128.71 243.72,-109.8 240.7,-95.55"/>
<polygon fill="#63b8ff" stroke="#63b8ff" points="244.09,-94.6 238.92,-85.35 237.19,-95.8 244.09,-94.6"/>
</a>
</g>
</g>
<!-- Node9 -->
<g id="Node000009" class="node">
<title>Node9</title>
<g id="a_Node000009"><a xlink:title=" ">
<polygon fill="#e0e0e0" stroke="#999999" points="446,-85 382,-85 382,-66 446,-66 446,-85"/>
<text text-anchor="middle" x="414" y="-73" font-family="Helvetica,sans-Serif" font-size="10.00">QSettings</text>
</a>
</g>
</g>
<!-- Node1&#45;&gt;Node9 -->
<g id="edge18_Node000001_Node000009" class="edge">
<title>Node1&#45;&gt;Node9</title>
<g id="a_edge18_Node000001_Node000009"><a xlink:title=" ">
<path fill="none" stroke="#63b8ff" d="M463.78,-175.63C453.39,-154.93 434.23,-116.78 422.95,-94.32"/>
<polygon fill="#63b8ff" stroke="#63b8ff" points="426,-92.6 418.38,-85.23 419.74,-95.74 426,-92.6"/>
</a>
</g>
</g>
<!-- Node10 -->
<g id="Node000010" class="node">
<title>Node10</title>
<g id="a_Node000010"><a xlink:title=" ">
<polygon fill="#e0e0e0" stroke="#999999" points="517.5,-85 464.5,-85 464.5,-66 517.5,-66 517.5,-85"/>
<text text-anchor="middle" x="491" y="-73" font-family="Helvetica,sans-Serif" font-size="10.00">QString</text>
</a>
</g>
</g>
<!-- Node1&#45;&gt;Node10 -->
<g id="edge19_Node000001_Node000010" class="edge">
<title>Node1&#45;&gt;Node10</title>
<g id="a_edge19_Node000001_Node000010"><a xlink:title=" ">
<path fill="none" stroke="#63b8ff" d="M470.99,-175.85C471.21,-161.8 472.23,-139.72 476,-121 477.79,-112.11 480.86,-102.54 483.75,-94.56"/>
<polygon fill="#63b8ff" stroke="#63b8ff" points="487.04,-95.78 487.34,-85.19 480.5,-93.28 487.04,-95.78"/>
</a>
</g>
</g>
<!-- Node11 -->
<g id="Node000011" class="node">
<title>Node11</title>
<g id="a_Node000011"><a xlink:title=" ">
<polygon fill="#e0e0e0" stroke="#999999" points="574,-85 536,-85 536,-66 574,-66 574,-85"/>
<text text-anchor="middle" x="555" y="-73" font-family="Helvetica,sans-Serif" font-size="10.00">map</text>
</a>
</g>
</g>
<!-- Node1&#45;&gt;Node11 -->
<g id="edge21_Node000001_Node000011" class="edge">
<title>Node1&#45;&gt;Node11</title>
<g id="a_edge21_Node000001_Node000011"><a xlink:title=" ">
<path fill="none" stroke="#63b8ff" d="M477.29,-175.77C484.05,-161.27 495.63,-138.49 509,-121 517.06,-110.46 527.61,-100.06 536.58,-91.98"/>
<polygon fill="#63b8ff" stroke="#63b8ff" points="539.03,-94.48 544.25,-85.26 534.42,-89.22 539.03,-94.48"/>
</a>
</g>
</g>
<!-- Node12 -->
<g id="Node000012" class="node">
<title>Node12</title>
<g id="a_Node000012"><a xlink:title=" ">
<polygon fill="#e0e0e0" stroke="#999999" points="556,-140 518,-140 518,-121 556,-121 556,-140"/>
<text text-anchor="middle" x="537" y="-128" font-family="Helvetica,sans-Serif" font-size="10.00">QDir</text>
</a>
</g>
</g>
<!-- Node1&#45;&gt;Node12 -->
<g id="edge14_Node000001_Node000012" class="edge">
<title>Node1&#45;&gt;Node12</title>
<g id="a_edge14_Node000001_Node000012"><a xlink:title=" ">
<path fill="none" stroke="#63b8ff" d="M486.98,-175.84C496.75,-167.17 509.27,-156.08 519.34,-147.15"/>
<polygon fill="#63b8ff" stroke="#63b8ff" points="521.95,-149.52 527.11,-140.27 517.31,-144.28 521.95,-149.52"/>
</a>
</g>
</g>
<!-- Node13 -->
<g id="Node000013" class="node">
<title>Node13</title>
<g id="a_Node000013"><a xlink:title=" ">
<polygon fill="#e0e0e0" stroke="#999999" points="615.5,-140 574.5,-140 574.5,-121 615.5,-121 615.5,-140"/>
<text text-anchor="middle" x="595" y="-128" font-family="Helvetica,sans-Serif" font-size="10.00">QList</text>
</a>
</g>
</g>
<!-- Node1&#45;&gt;Node13 -->
<g id="edge15_Node000001_Node000013" class="edge">
<title>Node1&#45;&gt;Node13</title>
<g id="a_edge15_Node000001_Node000013"><a xlink:title=" ">
<path fill="none" stroke="#63b8ff" d="M500.7,-175.99C521.02,-166.4 547.76,-153.79 567.58,-144.44"/>
<polygon fill="#63b8ff" stroke="#63b8ff" points="569.14,-147.57 576.69,-140.14 566.15,-141.24 569.14,-147.57"/>
</a>
</g>
</g>
<!-- Node14 -->
<g id="Node000014" class="node">
<title>Node14</title>
<g id="a_Node000014"><a xlink:title=" ">
<polygon fill="#e0e0e0" stroke="#999999" points="678.5,-140 633.5,-140 633.5,-121 678.5,-121 678.5,-140"/>
<text text-anchor="middle" x="656" y="-128" font-family="Helvetica,sans-Serif" font-size="10.00">QMap</text>
</a>
</g>
</g>
<!-- Node1&#45;&gt;Node14 -->
<g id="edge16_Node000001_Node000014" class="edge">
<title>Node1&#45;&gt;Node14</title>
<g id="a_edge16_Node000001_Node000014"><a xlink:title=" ">
<path fill="none" stroke="#63b8ff" d="M515.31,-175.99C548.73,-165.42 593.8,-151.17 623.83,-141.67"/>
<polygon fill="#63b8ff" stroke="#63b8ff" points="624.91,-145 633.39,-138.65 622.8,-138.33 624.91,-145"/>
</a>
</g>
</g>
<!-- Node15 -->
<g id="Node000015" class="node">
<title>Node15</title>
<g id="a_Node000015"><a xlink:title=" ">
<polygon fill="#e0e0e0" stroke="#999999" points="755.5,-140 696.5,-140 696.5,-121 755.5,-121 755.5,-140"/>
<text text-anchor="middle" x="726" y="-128" font-family="Helvetica,sans-Serif" font-size="10.00">QVariant</text>
</a>
</g>
</g>
<!-- Node1&#45;&gt;Node15 -->
<g id="edge20_Node000001_Node000015" class="edge">
<title>Node1&#45;&gt;Node15</title>
<g id="a_edge20_Node000001_Node000015"><a xlink:title=" ">
<path fill="none" stroke="#63b8ff" d="M528.54,-176.8C576.72,-165.75 644.19,-150.27 686.48,-140.57"/>
<polygon fill="#63b8ff" stroke="#63b8ff" points="687.43,-143.94 696.4,-138.29 685.87,-137.12 687.43,-143.94"/>
</a>
</g>
</g>
<!-- Node16 -->
<g id="Node000016" class="node">
<title>Node16</title>
<g id="a_Node000016"><a xlink:title=" ">
<polygon fill="#e0e0e0" stroke="#999999" points="842,-140 774,-140 774,-121 842,-121 842,-140"/>
<text text-anchor="middle" x="808" y="-128" font-family="Helvetica,sans-Serif" font-size="10.00">windows.h</text>
</a>
</g>
</g>
<!-- Node1&#45;&gt;Node16 -->
<g id="edge22_Node000001_Node000016" class="edge">
<title>Node1&#45;&gt;Node16</title>
<g id="a_edge22_Node000001_Node000016"><a xlink:title=" ">
<path fill="none" stroke="#63b8ff" d="M528.54,-180.68C585.73,-171.31 676.19,-156.21 763.9,-140.16"/>
<polygon fill="#63b8ff" stroke="#63b8ff" points="764.54,-143.6 773.75,-138.36 763.28,-136.72 764.54,-143.6"/>
</a>
</g>
</g>
<!-- Node3&#45;&gt;Node2 -->
<g id="edge3_Node000003_Node000002" class="edge">
<title>Node3&#45;&gt;Node2</title>
<g id="a_edge3_Node000003_Node000002"><a xlink:title=" ">
<path fill="none" stroke="#63b8ff" d="M132.79,-65.87C122.76,-58.15 107.67,-46.54 94.58,-36.46"/>
<polygon fill="#63b8ff" stroke="#63b8ff" points="96.4,-33.44 86.34,-30.11 92.13,-38.99 96.4,-33.44"/>
</a>
</g>
</g>
<!-- Node4 -->
<g id="Node000004" class="node">
<title>Node4</title>
<g id="a_Node000004"><a xlink:title=" ">
<polygon fill="#e0e0e0" stroke="#999999" points="320.5,-24.5 243.5,-24.5 243.5,-5.5 320.5,-5.5 320.5,-24.5"/>
<text text-anchor="middle" x="282" y="-12.5" font-family="Helvetica,sans-Serif" font-size="10.00">minwindef.h</text>
</a>
</g>
</g>
<!-- Node3&#45;&gt;Node4 -->
<g id="edge4_Node000003_Node000004" class="edge">
<title>Node3&#45;&gt;Node4</title>
<g id="a_edge4_Node000003_Node000004"><a xlink:title=" ">
<path fill="none" stroke="#63b8ff" d="M164.07,-65.99C187.37,-56.12 226.01,-39.73 252.68,-28.43"/>
<polygon fill="#63b8ff" stroke="#63b8ff" points="254.07,-31.64 261.91,-24.52 251.34,-25.2 254.07,-31.64"/>
</a>
</g>
</g>
<!-- Node5 -->
<g id="Node000005" class="node">
<title>Node5</title>
<g id="a_Node000005"><a xlink:title=" ">
<polygon fill="#e0e0e0" stroke="#999999" points="213.5,-24.5 154.5,-24.5 154.5,-5.5 213.5,-5.5 213.5,-24.5"/>
<text text-anchor="middle" x="184" y="-12.5" font-family="Helvetica,sans-Serif" font-size="10.00">qtypes.h</text>
</a>
</g>
</g>
<!-- Node3&#45;&gt;Node5 -->
<g id="edge5_Node000003_Node000005" class="edge">
<title>Node3&#45;&gt;Node5</title>
<g id="a_edge5_Node000003_Node000005"><a xlink:title=" ">
<path fill="none" stroke="#63b8ff" d="M149.9,-65.87C155.75,-57.31 164.87,-43.97 172.21,-33.24"/>
<polygon fill="#63b8ff" stroke="#63b8ff" points="175.32,-34.9 178.07,-24.67 169.54,-30.95 175.32,-34.9"/>
</a>
</g>
</g>
<!-- Node6&#45;&gt;Node3 -->
<g id="edge7_Node000006_Node000003" class="edge">
<title>Node6&#45;&gt;Node3</title>
<g id="a_edge7_Node000006_Node000003"><a xlink:title=" ">
<path fill="none" stroke="#63b8ff" d="M299.28,-120.98C267.95,-112.01 218.43,-97.82 183.76,-87.89"/>
<polygon fill="#63b8ff" stroke="#63b8ff" points="184.53,-84.47 173.96,-85.08 182.61,-91.2 184.53,-84.47"/>
</a>
</g>
</g>
<!-- Node6&#45;&gt;Node4 -->
<g id="edge13_Node000006_Node000004" class="edge">
<title>Node6&#45;&gt;Node4</title>
<g id="a_edge13_Node000006_Node000004"><a xlink:title=" ">
<path fill="none" stroke="#63b8ff" d="M325.47,-120.97C317.85,-102.56 299.72,-58.79 289.44,-33.98"/>
<polygon fill="#63b8ff" stroke="#63b8ff" points="292.63,-32.53 285.57,-24.63 286.17,-35.21 292.63,-32.53"/>
</a>
</g>
</g>
<!-- Node7 -->
<g id="Node000007" class="node">
<title>Node7</title>
<g id="a_Node000007"><a xlink:title=" ">
<polygon fill="#e0e0e0" stroke="#999999" points="363.5,-85 322.5,-85 322.5,-66 363.5,-66 363.5,-85"/>
<text text-anchor="middle" x="343" y="-73" font-family="Helvetica,sans-Serif" font-size="10.00">QFile</text>
</a>
</g>
</g>
<!-- Node6&#45;&gt;Node7 -->
<g id="edge8_Node000006_Node000007" class="edge">
<title>Node6&#45;&gt;Node7</title>
<g id="a_edge8_Node000006_Node000007"><a xlink:title=" ">
<path fill="none" stroke="#63b8ff" d="M331.31,-120.75C333.17,-113.72 335.84,-103.62 338.15,-94.84"/>
<polygon fill="#63b8ff" stroke="#63b8ff" points="341.56,-95.65 340.73,-85.09 334.79,-93.86 341.56,-95.65"/>
</a>
</g>
</g>
<!-- Node6&#45;&gt;Node8 -->
<g id="edge9_Node000006_Node000008" class="edge">
<title>Node6&#45;&gt;Node8</title>
<g id="a_edge9_Node000006_Node000008"><a xlink:title=" ">
<path fill="none" stroke="#63b8ff" d="M314.38,-120.98C300.14,-112.69 278.25,-99.94 261.55,-90.22"/>
<polygon fill="#63b8ff" stroke="#63b8ff" points="263.29,-87.18 252.89,-85.17 259.77,-93.23 263.29,-87.18"/>
</a>
</g>
</g>
<!-- Node6&#45;&gt;Node9 -->
<g id="edge10_Node000006_Node000009" class="edge">
<title>Node6&#45;&gt;Node9</title>
<g id="a_edge10_Node000006_Node000009"><a xlink:title=" ">
<path fill="none" stroke="#63b8ff" d="M342.66,-120.98C355.84,-112.77 376.03,-100.18 391.57,-90.49"/>
<polygon fill="#63b8ff" stroke="#63b8ff" points="393.46,-93.43 400.09,-85.17 389.76,-87.49 393.46,-93.43"/>
</a>
</g>
</g>
<!-- Node6&#45;&gt;Node10 -->
<g id="edge11_Node000006_Node000010" class="edge">
<title>Node6&#45;&gt;Node10</title>
<g id="a_edge11_Node000006_Node000010"><a xlink:title=" ">
<path fill="none" stroke="#63b8ff" d="M355.03,-120.98C382.11,-112.13 424.71,-98.19 455.01,-88.28"/>
<polygon fill="#63b8ff" stroke="#63b8ff" points="456.35,-91.52 464.77,-85.08 454.18,-84.87 456.35,-91.52"/>
</a>
</g>
</g>
<!-- Node6&#45;&gt;Node11 -->
<g id="edge12_Node000006_Node000011" class="edge">
<title>Node6&#45;&gt;Node11</title>
<g id="a_edge12_Node000006_Node000011"><a xlink:title=" ">
<path fill="none" stroke="#63b8ff" d="M371.32,-120.93C409.44,-113 467.19,-100.47 525.95,-85.13"/>
<polygon fill="#63b8ff" stroke="#63b8ff" points="527,-88.47 535.77,-82.54 525.21,-81.7 527,-88.47"/>
</a>
</g>
</g>
</g>
</svg>
