<?xml version="1.0" encoding="UTF-8" standalone="no"?>
<!DOCTYPE svg PUBLIC "-//W3C//DTD SVG 1.1//EN"
 "http://www.w3.org/Graphics/SVG/1.1/DTD/svg11.dtd">
<!-- Generated by graphviz version 2.43.0 (0)
 -->
<!-- Title: src/simulation/windows/gamepadSim.cpp Pages: 1 -->
<svg width="143pt" height="148pt"
 viewBox="0.00 0.00 142.79 148.00" xmlns="http://www.w3.org/2000/svg" xmlns:xlink="http://www.w3.org/1999/xlink">
<g id="graph0" class="graph" transform="scale(1 1) rotate(0) translate(4 144)">
<title>src/simulation/windows/gamepadSim.cpp</title>
<!-- Node1 -->
<g id="Node000001" class="node">
<title>Node1</title>
<g id="a_Node000001"><a xlink:title=" ">
<polygon fill="#999999" stroke="#666666" points="132.5,-140 1.5,-140 1.5,-110 132.5,-110 132.5,-140"/>
<text text-anchor="start" x="9.5" y="-128" font-family="Helvetica,sans-Serif" font-size="10.00">src/simulation/windows</text>
<text text-anchor="middle" x="67" y="-117" font-family="Helvetica,sans-Serif" font-size="10.00">/gamepadSim.cpp</text>
</a>
</g>
</g>
<!-- Node2 -->
<g id="Node000002" class="node">
<title>Node2</title>
<g id="a_Node000002"><a xlink:href="gamepadSim_8hpp.html" target="_top" xlink:title=" ">
<polygon fill="white" stroke="#666666" points="122.5,-74 11.5,-74 11.5,-55 122.5,-55 122.5,-74"/>
<text text-anchor="middle" x="67" y="-62" font-family="Helvetica,sans-Serif" font-size="10.00">../gamepadSim.hpp</text>
</a>
</g>
</g>
<!-- Node1&#45;&gt;Node2 -->
<g id="edge1_Node000001_Node000002" class="edge">
<title>Node1&#45;&gt;Node2</title>
<g id="a_edge1_Node000001_Node000002"><a xlink:title=" ">
<path fill="none" stroke="#63b8ff" d="M67,-109.84C67,-102.21 67,-92.7 67,-84.45"/>
<polygon fill="#63b8ff" stroke="#63b8ff" points="70.5,-84.27 67,-74.27 63.5,-84.27 70.5,-84.27"/>
</a>
</g>
</g>
<!-- Node3 -->
<g id="Node000003" class="node">
<title>Node3</title>
<g id="a_Node000003"><a xlink:title=" ">
<polygon fill="#e0e0e0" stroke="#999999" points="56,-19 0,-19 0,0 56,0 56,-19"/>
<text text-anchor="middle" x="28" y="-7" font-family="Helvetica,sans-Serif" font-size="10.00">QDebug</text>
</a>
</g>
</g>
<!-- Node1&#45;&gt;Node3 -->
<g id="edge4_Node000001_Node000003" class="edge">
<title>Node1&#45;&gt;Node3</title>
<g id="a_edge4_Node000001_Node000003"><a xlink:title=" ">
<path fill="none" stroke="#63b8ff" d="M38.95,-109.95C25.43,-101.54 10.54,-89.46 3,-74 -4.51,-58.6 4.44,-40.33 13.66,-27.35"/>
<polygon fill="#63b8ff" stroke="#63b8ff" points="16.53,-29.36 19.88,-19.31 10.99,-25.08 16.53,-29.36"/>
</a>
</g>
</g>
<!-- Node4 -->
<g id="Node000004" class="node">
<title>Node4</title>
<g id="a_Node000004"><a xlink:title=" ">
<polygon fill="#e0e0e0" stroke="#999999" points="128.5,-19 81.5,-19 81.5,0 128.5,0 128.5,-19"/>
<text text-anchor="middle" x="105" y="-7" font-family="Helvetica,sans-Serif" font-size="10.00">cmath</text>
</a>
</g>
</g>
<!-- Node1&#45;&gt;Node4 -->
<g id="edge5_Node000001_Node000004" class="edge">
<title>Node1&#45;&gt;Node4</title>
<g id="a_edge5_Node000001_Node000004"><a xlink:title=" ">
<path fill="none" stroke="#63b8ff" d="M95.81,-109.84C109.45,-101.47 124.39,-89.45 132,-74 139.65,-58.46 130.04,-40.21 120.23,-27.27"/>
<polygon fill="#63b8ff" stroke="#63b8ff" points="122.68,-24.75 113.62,-19.26 117.29,-29.2 122.68,-24.75"/>
</a>
</g>
</g>
<!-- Node2&#45;&gt;Node3 -->
<g id="edge2_Node000002_Node000003" class="edge">
<title>Node2&#45;&gt;Node3</title>
<g id="a_edge2_Node000002_Node000003"><a xlink:title=" ">
<path fill="none" stroke="#63b8ff" d="M60.56,-54.75C55.11,-47.34 47.14,-36.5 40.44,-27.41"/>
<polygon fill="#63b8ff" stroke="#63b8ff" points="43.07,-25.07 34.32,-19.09 37.43,-29.22 43.07,-25.07"/>
</a>
</g>
</g>
<!-- Node2&#45;&gt;Node4 -->
<g id="edge3_Node000002_Node000004" class="edge">
<title>Node2&#45;&gt;Node4</title>
<g id="a_edge3_Node000002_Node000004"><a xlink:title=" ">
<path fill="none" stroke="#63b8ff" d="M73.27,-54.75C78.59,-47.34 86.36,-36.5 92.88,-27.41"/>
<polygon fill="#63b8ff" stroke="#63b8ff" points="95.86,-29.26 98.84,-19.09 90.17,-25.18 95.86,-29.26"/>
</a>
</g>
</g>
</g>
</svg>
